<?xml version="1.0" encoding="UTF-8" standalone="no"?>
<!DOCTYPE svg PUBLIC "-//W3C//DTD SVG 1.1//EN"
 "http://www.w3.org/Graphics/SVG/1.1/DTD/svg11.dtd">
<!-- Generated by graphviz version 2.38.0 (20140413.2041)
 -->
<!-- Title: %3 Pages: 1 -->
<svg width="1482pt" height="332pt"
 viewBox="0.00 0.00 1481.74 332.00" xmlns="http://www.w3.org/2000/svg" xmlns:xlink="http://www.w3.org/1999/xlink">
<g id="graph0" class="graph" transform="scale(1 1) rotate(0) translate(4 328)">
<title>%3</title>
<polygon fill="white" stroke="none" points="-4,4 -4,-328 1477.74,-328 1477.74,4 -4,4"/>
<!-- reporttree -->
<g id="node1" class="node"><title>reporttree</title>
<ellipse fill="none" stroke="black" cx="441.693" cy="-234" rx="59.2899" ry="18"/>
<text text-anchor="middle" x="441.693" y="-230.3" font-family="Times,serif" font-size="14.00">reporttree</text>
</g>
<!-- STL -->
<g id="node7" class="node"><title>STL</title>
<ellipse fill="none" stroke="black" cx="722.693" cy="-18" rx="28.6953" ry="18"/>
<text text-anchor="middle" x="722.693" y="-14.3" font-family="Times,serif" font-size="14.00">STL</text>
</g>
<!-- reporttree&#45;&gt;STL -->
<g id="edge2" class="edge"><title>reporttree&#45;&gt;STL</title>
<path fill="none" stroke="black" d="M485.525,-221.762C493.551,-219.784 501.863,-217.788 509.693,-216 586.683,-198.42 626.015,-233.941 683.693,-180 720.623,-145.463 725.223,-82.428 724.481,-46.3276"/>
<polygon fill="black" stroke="black" points="727.969,-45.917 724.109,-36.0501 720.973,-46.1701 727.969,-45.917"/>
</g>
<!-- core -->
<g id="node11" class="node"><title>core</title>
<ellipse fill="none" stroke="black" cx="577.693" cy="-90" rx="31.3957" ry="18"/>
<text text-anchor="middle" x="577.693" y="-86.3" font-family="Times,serif" font-size="14.00">core</text>
</g>
<!-- reporttree&#45;&gt;core -->
<g id="edge1" class="edge"><title>reporttree&#45;&gt;core</title>
<path fill="none" stroke="black" d="M485.56,-221.909C493.582,-219.916 501.884,-217.877 509.693,-216 578.878,-199.37 621.395,-235.685 665.693,-180 675.654,-167.479 673.565,-157.93 665.693,-144 659.436,-132.927 632.836,-117.742 610.503,-106.463"/>
<polygon fill="black" stroke="black" points="611.78,-103.189 601.265,-101.892 608.676,-109.463 611.78,-103.189"/>
</g>
<!-- guiassert -->
<g id="node17" class="node"><title>guiassert</title>
<ellipse fill="none" stroke="black" cx="436.693" cy="-90" rx="53.8905" ry="18"/>
<text text-anchor="middle" x="436.693" y="-86.3" font-family="Times,serif" font-size="14.00">guiassert</text>
</g>
<!-- reporttree&#45;&gt;guiassert -->
<g id="edge3" class="edge"><title>reporttree&#45;&gt;guiassert</title>
<path fill="none" stroke="black" d="M385.252,-228.6C321.429,-222.315 223.409,-208.254 200.693,-180 151.389,-118.675 287.582,-99.5911 373.151,-93.6626"/>
<polygon fill="black" stroke="black" points="373.567,-97.1431 383.319,-93.0029 373.113,-90.1578 373.567,-97.1431"/>
</g>
<!-- importancetablemodel -->
<g id="node2" class="node"><title>importancetablemodel</title>
<ellipse fill="none" stroke="black" cx="540.693" cy="-162" rx="115.88" ry="18"/>
<text text-anchor="middle" x="540.693" y="-158.3" font-family="Times,serif" font-size="14.00">importancetablemodel</text>
</g>
<!-- importancetablemodel&#45;&gt;STL -->
<g id="edge7" class="edge"><title>importancetablemodel&#45;&gt;STL</title>
<path fill="none" stroke="black" d="M534.223,-143.684C528.164,-124.21 522.153,-92.6177 537.693,-72 555.388,-48.5239 636.179,-32.2784 684.955,-24.4164"/>
<polygon fill="black" stroke="black" points="685.506,-27.8728 694.844,-22.8664 684.422,-20.9573 685.506,-27.8728"/>
</g>
<!-- importancetablemodel&#45;&gt;core -->
<g id="edge4" class="edge"><title>importancetablemodel&#45;&gt;core</title>
<path fill="none" stroke="black" d="M549.839,-143.697C554.159,-135.523 559.403,-125.603 564.17,-116.584"/>
<polygon fill="black" stroke="black" points="567.328,-118.099 568.907,-107.622 561.14,-114.828 567.328,-118.099"/>
</g>
<!-- importancetablemodel&#45;&gt;guiassert -->
<g id="edge6" class="edge"><title>importancetablemodel&#45;&gt;guiassert</title>
<path fill="none" stroke="black" d="M516.047,-144.411C501.786,-134.813 483.689,-122.632 468.38,-112.328"/>
<polygon fill="black" stroke="black" points="469.988,-109.191 459.738,-106.511 466.079,-114.998 469.988,-109.191"/>
</g>
<!-- align -->
<g id="node22" class="node"><title>align</title>
<ellipse fill="none" stroke="black" cx="660.693" cy="-90" rx="33.5952" ry="18"/>
<text text-anchor="middle" x="660.693" y="-86.3" font-family="Times,serif" font-size="14.00">align</text>
</g>
<!-- importancetablemodel&#45;&gt;align -->
<g id="edge5" class="edge"><title>importancetablemodel&#45;&gt;align</title>
<path fill="none" stroke="black" d="M569.132,-144.411C587.476,-133.71 611.324,-119.799 630.083,-108.856"/>
<polygon fill="black" stroke="black" points="631.962,-111.812 638.836,-103.75 628.435,-105.766 631.962,-111.812"/>
</g>
<!-- ext -->
<g id="node3" class="node"><title>ext</title>
<ellipse fill="none" stroke="black" cx="436.693" cy="-18" rx="27" ry="18"/>
<text text-anchor="middle" x="436.693" y="-14.3" font-family="Times,serif" font-size="14.00">ext</text>
</g>
<!-- settingsdialog -->
<g id="node4" class="node"><title>settingsdialog</title>
<ellipse fill="none" stroke="black" cx="76.6932" cy="-162" rx="76.8869" ry="18"/>
<text text-anchor="middle" x="76.6932" y="-158.3" font-family="Times,serif" font-size="14.00">settingsdialog</text>
</g>
<!-- settingsdialog&#45;&gt;STL -->
<g id="edge9" class="edge"><title>settingsdialog&#45;&gt;STL</title>
<path fill="none" stroke="black" d="M112.619,-146.013C161.701,-126.13 252.862,-91.3011 333.693,-72 459.809,-41.8855 613.297,-27.2607 683.836,-21.7339"/>
<polygon fill="black" stroke="black" points="684.324,-25.2068 694.028,-20.9538 683.79,-18.2273 684.324,-25.2068"/>
</g>
<!-- settingsdialog&#45;&gt;core -->
<g id="edge8" class="edge"><title>settingsdialog&#45;&gt;core</title>
<path fill="none" stroke="black" d="M140.705,-152.02C159.979,-149.371 181.189,-146.511 200.693,-144 333.446,-126.909 367.711,-130.277 499.693,-108 512.612,-105.819 526.626,-102.931 539.164,-100.155"/>
<polygon fill="black" stroke="black" points="540.31,-103.485 549.293,-97.8681 538.768,-96.6569 540.31,-103.485"/>
</g>
<!-- settingsdialog&#45;&gt;guiassert -->
<g id="edge10" class="edge"><title>settingsdialog&#45;&gt;guiassert</title>
<path fill="none" stroke="black" d="M133.736,-149.908C201.626,-136.708 314.215,-114.815 381.348,-101.762"/>
<polygon fill="black" stroke="black" points="382.167,-105.168 391.316,-99.8234 380.831,-98.2966 382.167,-105.168"/>
</g>
<!-- Boost -->
<g id="node5" class="node"><title>Boost</title>
<ellipse fill="none" stroke="black" cx="884.693" cy="-90" rx="37.0935" ry="18"/>
<text text-anchor="middle" x="884.693" y="-86.3" font-family="Times,serif" font-size="14.00">Boost</text>
</g>
<!-- printable -->
<g id="node6" class="node"><title>printable</title>
<ellipse fill="none" stroke="black" cx="1320.69" cy="-162" rx="53.0913" ry="18"/>
<text text-anchor="middle" x="1320.69" y="-158.3" font-family="Times,serif" font-size="14.00">printable</text>
</g>
<!-- Qt5 -->
<g id="node13" class="node"><title>Qt5</title>
<ellipse fill="none" stroke="black" cx="1077.69" cy="-18" rx="27.8951" ry="18"/>
<text text-anchor="middle" x="1077.69" y="-14.3" font-family="Times,serif" font-size="14.00">Qt5</text>
</g>
<!-- printable&#45;&gt;Qt5 -->
<g id="edge11" class="edge"><title>printable&#45;&gt;Qt5</title>
<path fill="none" stroke="black" d="M1302.29,-145.033C1279.7,-125.966 1239.69,-93.9075 1201.69,-72 1172.51,-55.1718 1136.95,-40.5161 1111.41,-30.9076"/>
<polygon fill="black" stroke="black" points="1112.4,-27.5418 1101.81,-27.3547 1109.97,-34.107 1112.4,-27.5418"/>
</g>
<!-- mainwindow -->
<g id="node8" class="node"><title>mainwindow</title>
<ellipse fill="none" stroke="black" cx="775.693" cy="-306" rx="69.5877" ry="18"/>
<text text-anchor="middle" x="775.693" y="-302.3" font-family="Times,serif" font-size="14.00">mainwindow</text>
</g>
<!-- mainwindow&#45;&gt;reporttree -->
<g id="edge22" class="edge"><title>mainwindow&#45;&gt;reporttree</title>
<path fill="none" stroke="black" d="M720.765,-294.858C666.864,-284.717 582.401,-268.322 509.693,-252 505.04,-250.955 500.219,-249.832 495.389,-248.679"/>
<polygon fill="black" stroke="black" points="496.058,-245.24 485.514,-246.286 494.408,-252.043 496.058,-245.24"/>
</g>
<!-- mainwindow&#45;&gt;importancetablemodel -->
<g id="edge15" class="edge"><title>mainwindow&#45;&gt;importancetablemodel</title>
<path fill="none" stroke="black" d="M708.552,-300.918C599.89,-293.619 395.39,-276.745 373.693,-252 342.059,-215.922 400.876,-192.042 457.233,-178.184"/>
<polygon fill="black" stroke="black" points="458.047,-181.588 466.972,-175.879 456.435,-174.777 458.047,-181.588"/>
</g>
<!-- mainwindow&#45;&gt;settingsdialog -->
<g id="edge17" class="edge"><title>mainwindow&#45;&gt;settingsdialog</title>
<path fill="none" stroke="black" d="M707.937,-301.744C619.316,-296.41 459.681,-283.104 326.693,-252 252.673,-234.688 170.215,-202.72 120.945,-182.18"/>
<polygon fill="black" stroke="black" points="122.121,-178.878 111.545,-178.232 119.41,-185.332 122.121,-178.878"/>
</g>
<!-- mainwindow&#45;&gt;printable -->
<g id="edge20" class="edge"><title>mainwindow&#45;&gt;printable</title>
<path fill="none" stroke="black" d="M845.041,-304.021C995.333,-301.18 1340.45,-290.492 1375.69,-252 1394.26,-231.716 1371.63,-204.294 1350.03,-185.272"/>
<polygon fill="black" stroke="black" points="1352.11,-182.441 1342.2,-178.673 1347.59,-187.794 1352.11,-182.441"/>
</g>
<!-- modeltree -->
<g id="node9" class="node"><title>modeltree</title>
<ellipse fill="none" stroke="black" cx="900.693" cy="-234" rx="57.6901" ry="18"/>
<text text-anchor="middle" x="900.693" y="-230.3" font-family="Times,serif" font-size="14.00">modeltree</text>
</g>
<!-- mainwindow&#45;&gt;modeltree -->
<g id="edge19" class="edge"><title>mainwindow&#45;&gt;modeltree</title>
<path fill="none" stroke="black" d="M803.435,-289.465C821.566,-279.311 845.419,-265.954 864.965,-255.008"/>
<polygon fill="black" stroke="black" points="866.872,-257.951 873.887,-250.011 863.452,-251.844 866.872,-257.951"/>
</g>
<!-- preferencesdialog -->
<g id="node10" class="node"><title>preferencesdialog</title>
<ellipse fill="none" stroke="black" cx="613.693" cy="-234" rx="94.7833" ry="18"/>
<text text-anchor="middle" x="613.693" y="-230.3" font-family="Times,serif" font-size="14.00">preferencesdialog</text>
</g>
<!-- mainwindow&#45;&gt;preferencesdialog -->
<g id="edge12" class="edge"><title>mainwindow&#45;&gt;preferencesdialog</title>
<path fill="none" stroke="black" d="M741.337,-290.155C717.431,-279.825 685.302,-265.942 659.26,-254.689"/>
<polygon fill="black" stroke="black" points="660.535,-251.428 649.967,-250.674 657.759,-257.853 660.535,-251.428"/>
</g>
<!-- diagram -->
<g id="node12" class="node"><title>diagram</title>
<ellipse fill="none" stroke="black" cx="775.693" cy="-234" rx="49.2915" ry="18"/>
<text text-anchor="middle" x="775.693" y="-230.3" font-family="Times,serif" font-size="14.00">diagram</text>
</g>
<!-- mainwindow&#45;&gt;diagram -->
<g id="edge18" class="edge"><title>mainwindow&#45;&gt;diagram</title>
<path fill="none" stroke="black" d="M775.693,-287.697C775.693,-279.983 775.693,-270.712 775.693,-262.112"/>
<polygon fill="black" stroke="black" points="779.193,-262.104 775.693,-252.104 772.193,-262.104 779.193,-262.104"/>
</g>
<!-- zoomableview -->
<g id="node14" class="node"><title>zoomableview</title>
<ellipse fill="none" stroke="black" cx="1397.69" cy="-90" rx="76.0865" ry="18"/>
<text text-anchor="middle" x="1397.69" y="-86.3" font-family="Times,serif" font-size="14.00">zoomableview</text>
</g>
<!-- mainwindow&#45;&gt;zoomableview -->
<g id="edge13" class="edge"><title>mainwindow&#45;&gt;zoomableview</title>
<path fill="none" stroke="black" d="M844.893,-304.125C998.156,-301.479 1355.64,-291.133 1392.69,-252 1426.55,-216.236 1416.19,-153.483 1406.43,-117.8"/>
<polygon fill="black" stroke="black" points="1409.75,-116.7 1403.6,-108.077 1403.03,-118.657 1409.75,-116.7"/>
</g>
<!-- producttablemodel -->
<g id="node15" class="node"><title>producttablemodel</title>
<ellipse fill="none" stroke="black" cx="308.693" cy="-162" rx="98.5829" ry="18"/>
<text text-anchor="middle" x="308.693" y="-158.3" font-family="Times,serif" font-size="14.00">producttablemodel</text>
</g>
<!-- mainwindow&#45;&gt;producttablemodel -->
<g id="edge21" class="edge"><title>mainwindow&#45;&gt;producttablemodel</title>
<path fill="none" stroke="black" d="M706.582,-303.37C603.842,-299.759 416.983,-288.264 361.693,-252 339.466,-237.421 325.237,-210.007 317.18,-189.439"/>
<polygon fill="black" stroke="black" points="320.441,-188.164 313.713,-179.979 313.868,-190.573 320.441,-188.164"/>
</g>
<!-- eventdialog -->
<g id="node19" class="node"><title>eventdialog</title>
<ellipse fill="none" stroke="black" cx="1301.69" cy="-234" rx="64.9885" ry="18"/>
<text text-anchor="middle" x="1301.69" y="-230.3" font-family="Times,serif" font-size="14.00">eventdialog</text>
</g>
<!-- mainwindow&#45;&gt;eventdialog -->
<g id="edge16" class="edge"><title>mainwindow&#45;&gt;eventdialog</title>
<path fill="none" stroke="black" d="M840.759,-299.618C928.874,-291.817 1090.86,-275.666 1227.69,-252 1233.35,-251.021 1239.23,-249.883 1245.08,-248.669"/>
<polygon fill="black" stroke="black" points="1245.83,-252.088 1254.87,-246.567 1244.36,-245.244 1245.83,-252.088"/>
</g>
<!-- elementcontainermodel -->
<g id="node20" class="node"><title>elementcontainermodel</title>
<ellipse fill="none" stroke="black" cx="1097.69" cy="-234" rx="120.779" ry="18"/>
<text text-anchor="middle" x="1097.69" y="-230.3" font-family="Times,serif" font-size="14.00">elementcontainermodel</text>
</g>
<!-- mainwindow&#45;&gt;elementcontainermodel -->
<g id="edge14" class="edge"><title>mainwindow&#45;&gt;elementcontainermodel</title>
<path fill="none" stroke="black" d="M827.071,-293.831C879.8,-282.368 962.404,-264.411 1022.49,-251.349"/>
<polygon fill="black" stroke="black" points="1023.28,-254.76 1032.3,-249.215 1021.79,-247.919 1023.28,-254.76"/>
</g>
<!-- model -->
<g id="node18" class="node"><title>model</title>
<ellipse fill="none" stroke="black" cx="1033.69" cy="-162" rx="38.9931" ry="18"/>
<text text-anchor="middle" x="1033.69" y="-158.3" font-family="Times,serif" font-size="14.00">model</text>
</g>
<!-- modeltree&#45;&gt;model -->
<g id="edge23" class="edge"><title>modeltree&#45;&gt;model</title>
<path fill="none" stroke="black" d="M928.899,-218.155C949.582,-207.269 977.763,-192.437 999.692,-180.895"/>
<polygon fill="black" stroke="black" points="1001.45,-183.926 1008.67,-176.172 998.188,-177.732 1001.45,-183.926"/>
</g>
<!-- overload -->
<g id="node23" class="node"><title>overload</title>
<ellipse fill="none" stroke="black" cx="925.693" cy="-162" rx="50.8918" ry="18"/>
<text text-anchor="middle" x="925.693" y="-158.3" font-family="Times,serif" font-size="14.00">overload</text>
</g>
<!-- modeltree&#45;&gt;overload -->
<g id="edge24" class="edge"><title>modeltree&#45;&gt;overload</title>
<path fill="none" stroke="black" d="M906.745,-216.055C909.559,-208.176 912.973,-198.617 916.124,-189.794"/>
<polygon fill="black" stroke="black" points="919.456,-190.87 919.523,-180.275 912.864,-188.516 919.456,-190.87"/>
</g>
<!-- language -->
<g id="node21" class="node"><title>language</title>
<ellipse fill="none" stroke="black" cx="803.693" cy="-162" rx="53.0913" ry="18"/>
<text text-anchor="middle" x="803.693" y="-158.3" font-family="Times,serif" font-size="14.00">language</text>
</g>
<!-- preferencesdialog&#45;&gt;language -->
<g id="edge25" class="edge"><title>preferencesdialog&#45;&gt;language</title>
<path fill="none" stroke="black" d="M655.39,-217.638C686.276,-206.259 728.278,-190.785 759.698,-179.209"/>
<polygon fill="black" stroke="black" points="760.912,-182.491 769.086,-175.75 758.492,-175.923 760.912,-182.491"/>
</g>
<!-- preferencesdialog&#45;&gt;overload -->
<g id="edge26" class="edge"><title>preferencesdialog&#45;&gt;overload</title>
<path fill="none" stroke="black" d="M678.187,-220.706C729.266,-210.665 802.318,-195.623 865.693,-180 869.773,-178.994 873.995,-177.903 878.222,-176.774"/>
<polygon fill="black" stroke="black" points="879.305,-180.107 888.031,-174.099 877.462,-173.354 879.305,-180.107"/>
</g>
<!-- diagram&#45;&gt;model -->
<g id="edge27" class="edge"><title>diagram&#45;&gt;model</title>
<path fill="none" stroke="black" d="M812.431,-221.916C819.47,-219.882 826.796,-217.826 833.693,-216 900.805,-198.23 919.098,-199.617 985.693,-180 988.651,-179.129 991.693,-178.179 994.743,-177.189"/>
<polygon fill="black" stroke="black" points="996.05,-180.442 1004.41,-173.935 993.817,-173.808 996.05,-180.442"/>
</g>
<!-- diagram&#45;&gt;overload -->
<g id="edge28" class="edge"><title>diagram&#45;&gt;overload</title>
<path fill="none" stroke="black" d="M804.971,-219.337C828.434,-208.387 861.553,-192.932 887.168,-180.979"/>
<polygon fill="black" stroke="black" points="888.652,-184.148 896.234,-176.748 885.692,-177.805 888.652,-184.148"/>
</g>
<!-- zoomableview&#45;&gt;Qt5 -->
<g id="edge29" class="edge"><title>zoomableview&#45;&gt;Qt5</title>
<path fill="none" stroke="black" d="M1343.77,-77.2046C1278.37,-62.8991 1169.95,-39.1806 1113.83,-26.905"/>
<polygon fill="black" stroke="black" points="1114.5,-23.4688 1103.98,-24.7509 1113,-30.3071 1114.5,-23.4688"/>
</g>
<!-- producttablemodel&#45;&gt;STL -->
<g id="edge33" class="edge"><title>producttablemodel&#45;&gt;STL</title>
<path fill="none" stroke="black" d="M316.181,-143.693C326.116,-122.98 345.721,-88.9717 373.693,-72 425.341,-40.6634 604.422,-26.1594 684.029,-21.1468"/>
<polygon fill="black" stroke="black" points="684.362,-24.6331 694.13,-20.5284 683.935,-17.6462 684.362,-24.6331"/>
</g>
<!-- producttablemodel&#45;&gt;core -->
<g id="edge30" class="edge"><title>producttablemodel&#45;&gt;core</title>
<path fill="none" stroke="black" d="M362.806,-146.919C415.296,-133.26 493.586,-112.887 539.759,-100.871"/>
<polygon fill="black" stroke="black" points="540.863,-104.201 549.659,-98.2952 539.1,-97.4264 540.863,-104.201"/>
</g>
<!-- producttablemodel&#45;&gt;guiassert -->
<g id="edge32" class="edge"><title>producttablemodel&#45;&gt;guiassert</title>
<path fill="none" stroke="black" d="M338.381,-144.765C356.997,-134.584 381.113,-121.395 400.801,-110.629"/>
<polygon fill="black" stroke="black" points="402.688,-113.586 409.782,-105.717 399.329,-107.444 402.688,-113.586"/>
</g>
<!-- producttablemodel&#45;&gt;align -->
<g id="edge31" class="edge"><title>producttablemodel&#45;&gt;align</title>
<path fill="none" stroke="black" d="M380.122,-149.547C464.181,-135.943 595.222,-114.296 617.693,-108 620.285,-107.274 622.936,-106.446 625.585,-105.556"/>
<polygon fill="black" stroke="black" points="626.853,-108.82 635.068,-102.13 624.474,-102.236 626.853,-108.82"/>
</g>
<!-- validator -->
<g id="node16" class="node"><title>validator</title>
<ellipse fill="none" stroke="black" cx="1140.69" cy="-90" rx="51.9908" ry="18"/>
<text text-anchor="middle" x="1140.69" y="-86.3" font-family="Times,serif" font-size="14.00">validator</text>
</g>
<!-- validator&#45;&gt;STL -->
<g id="edge35" class="edge"><title>validator&#45;&gt;STL</title>
<path fill="none" stroke="black" d="M1102.8,-77.6538C1095.19,-75.5977 1087.22,-73.6011 1079.69,-72 964.744,-47.5489 826.6,-30.4769 760.952,-23.0961"/>
<polygon fill="black" stroke="black" points="761.004,-19.5804 750.678,-21.9539 760.23,-26.5375 761.004,-19.5804"/>
</g>
<!-- validator&#45;&gt;Qt5 -->
<g id="edge34" class="edge"><title>validator&#45;&gt;Qt5</title>
<path fill="none" stroke="black" d="M1125.76,-72.411C1117.49,-63.2234 1107.1,-51.6695 1098.09,-41.66"/>
<polygon fill="black" stroke="black" points="1100.52,-39.1298 1091.23,-34.0382 1095.32,-43.8126 1100.52,-39.1298"/>
</g>
<!-- guiassert&#45;&gt;ext -->
<g id="edge36" class="edge"><title>guiassert&#45;&gt;ext</title>
<path fill="none" stroke="black" d="M436.693,-71.6966C436.693,-63.9827 436.693,-54.7125 436.693,-46.1124"/>
<polygon fill="black" stroke="black" points="440.193,-46.1043 436.693,-36.1043 433.193,-46.1044 440.193,-46.1043"/>
</g>
<!-- guiassert&#45;&gt;Qt5 -->
<g id="edge37" class="edge"><title>guiassert&#45;&gt;Qt5</title>
<path fill="none" stroke="black" d="M482.85,-80.5431C500.029,-77.5772 519.715,-74.3924 537.693,-72 725.677,-46.9847 951.946,-28.5372 1040.03,-21.7975"/>
<polygon fill="black" stroke="black" points="1040.37,-25.2819 1050.08,-21.034 1039.84,-18.3021 1040.37,-25.2819"/>
</g>
<!-- model&#45;&gt;Boost -->
<g id="edge40" class="edge"><title>model&#45;&gt;Boost</title>
<path fill="none" stroke="black" d="M1007.4,-148.647C982.96,-137.166 946.395,-119.987 919.536,-107.369"/>
<polygon fill="black" stroke="black" points="921.015,-104.197 910.476,-103.113 918.039,-110.533 921.015,-104.197"/>
</g>
<!-- model&#45;&gt;core -->
<g id="edge38" class="edge"><title>model&#45;&gt;core</title>
<path fill="none" stroke="black" d="M1005.09,-149.595C998.784,-147.441 992.079,-145.421 985.693,-144 825.28,-108.306 776.933,-148.609 617.693,-108 615.349,-107.402 612.964,-106.687 610.587,-105.894"/>
<polygon fill="black" stroke="black" points="611.561,-102.522 600.969,-102.293 609.106,-109.078 611.561,-102.522"/>
</g>
<!-- model&#45;&gt;guiassert -->
<g id="edge41" class="edge"><title>model&#45;&gt;guiassert</title>
<path fill="none" stroke="black" d="M1005.36,-149.598C998.982,-147.416 992.178,-145.384 985.693,-144 790.34,-102.304 735.925,-132.601 537.693,-108 522.997,-106.176 507.174,-103.74 492.512,-101.283"/>
<polygon fill="black" stroke="black" points="493.022,-97.8191 482.576,-99.5854 491.844,-104.719 493.022,-97.8191"/>
</g>
<!-- command -->
<g id="node24" class="node"><title>command</title>
<ellipse fill="none" stroke="black" cx="1014.69" cy="-90" rx="55.7903" ry="18"/>
<text text-anchor="middle" x="1014.69" y="-86.3" font-family="Times,serif" font-size="14.00">command</text>
</g>
<!-- model&#45;&gt;command -->
<g id="edge39" class="edge"><title>model&#45;&gt;command</title>
<path fill="none" stroke="black" d="M1029.09,-144.055C1026.98,-136.261 1024.42,-126.822 1022.04,-118.079"/>
<polygon fill="black" stroke="black" points="1025.38,-117.009 1019.38,-108.275 1018.62,-118.843 1025.38,-117.009"/>
</g>
<!-- eventdialog&#45;&gt;validator -->
<g id="edge43" class="edge"><title>eventdialog&#45;&gt;validator</title>
<path fill="none" stroke="black" d="M1283.22,-216.711C1254.59,-191.459 1199.4,-142.781 1166.74,-113.97"/>
<polygon fill="black" stroke="black" points="1168.76,-111.089 1158.95,-107.099 1164.13,-116.339 1168.76,-111.089"/>
</g>
<!-- eventdialog&#45;&gt;model -->
<g id="edge44" class="edge"><title>eventdialog&#45;&gt;model</title>
<path fill="none" stroke="black" d="M1256.23,-221.125C1205.93,-207.988 1125.51,-186.983 1076.37,-174.146"/>
<polygon fill="black" stroke="black" points="1077.23,-170.755 1066.67,-171.614 1075.46,-177.528 1077.23,-170.755"/>
</g>
<!-- eventdialog&#45;&gt;overload -->
<g id="edge42" class="edge"><title>eventdialog&#45;&gt;overload</title>
<path fill="none" stroke="black" d="M1254.44,-221.565C1245.58,-219.586 1236.37,-217.64 1227.69,-216 1120.84,-195.811 1092,-202.868 985.693,-180 981.526,-179.103 977.22,-178.081 972.919,-176.991"/>
<polygon fill="black" stroke="black" points="973.517,-173.529 962.954,-174.358 971.728,-180.297 973.517,-173.529"/>
</g>
<!-- elementcontainermodel&#45;&gt;model -->
<g id="edge47" class="edge"><title>elementcontainermodel&#45;&gt;model</title>
<path fill="none" stroke="black" d="M1082.2,-216.055C1074.03,-207.115 1063.88,-196.012 1054.97,-186.276"/>
<polygon fill="black" stroke="black" points="1057.5,-183.848 1048.17,-178.829 1052.33,-188.571 1057.5,-183.848"/>
</g>
<!-- elementcontainermodel&#45;&gt;align -->
<g id="edge45" class="edge"><title>elementcontainermodel&#45;&gt;align</title>
<path fill="none" stroke="black" d="M1100.04,-215.835C1101.76,-195.588 1101.05,-162.368 1081.69,-144 1068.07,-131.071 808.833,-105.094 704.07,-95.0725"/>
<polygon fill="black" stroke="black" points="704.126,-91.562 693.839,-94.0976 703.462,-98.5305 704.126,-91.562"/>
</g>
<!-- elementcontainermodel&#45;&gt;overload -->
<g id="edge46" class="edge"><title>elementcontainermodel&#45;&gt;overload</title>
<path fill="none" stroke="black" d="M1058.23,-216.941C1031,-205.856 994.846,-191.144 967.181,-179.885"/>
<polygon fill="black" stroke="black" points="968.36,-176.586 957.778,-176.058 965.721,-183.069 968.36,-176.586"/>
</g>
<!-- language&#45;&gt;Boost -->
<g id="edge48" class="edge"><title>language&#45;&gt;Boost</title>
<path fill="none" stroke="black" d="M822.48,-144.765C833.492,-135.248 847.544,-123.104 859.507,-112.766"/>
<polygon fill="black" stroke="black" points="862.114,-115.139 867.391,-105.952 857.537,-109.843 862.114,-115.139"/>
</g>
<!-- language&#45;&gt;STL -->
<g id="edge51" class="edge"><title>language&#45;&gt;STL</title>
<path fill="none" stroke="black" d="M794.083,-144.153C780.002,-119.468 753.655,-73.2793 737.207,-44.4442"/>
<polygon fill="black" stroke="black" points="740.036,-42.3387 732.041,-35.3867 733.955,-45.8071 740.036,-42.3387"/>
</g>
<!-- language&#45;&gt;core -->
<g id="edge50" class="edge"><title>language&#45;&gt;core</title>
<path fill="none" stroke="black" d="M761.858,-150.67C723.853,-140.91 666.446,-125.231 617.693,-108 615.472,-107.215 613.198,-106.369 610.917,-105.488"/>
<polygon fill="black" stroke="black" points="612.199,-102.231 601.616,-101.738 609.582,-108.723 612.199,-102.231"/>
</g>
<!-- language&#45;&gt;guiassert -->
<g id="edge49" class="edge"><title>language&#45;&gt;guiassert</title>
<path fill="none" stroke="black" d="M758.324,-152.346C691.011,-139.507 564.837,-115.442 492.138,-101.575"/>
<polygon fill="black" stroke="black" points="492.726,-98.1243 482.247,-99.6887 491.414,-105 492.726,-98.1243"/>
</g>
<!-- align&#45;&gt;Qt5 -->
<g id="edge52" class="edge"><title>align&#45;&gt;Qt5</title>
<path fill="none" stroke="black" d="M692.378,-83.6812C768.23,-70.9483 959.935,-38.7676 1040.8,-25.1925"/>
<polygon fill="black" stroke="black" points="1041.72,-28.5873 1051.01,-23.48 1040.56,-21.6838 1041.72,-28.5873"/>
</g>
<!-- command&#45;&gt;STL -->
<g id="edge54" class="edge"><title>command&#45;&gt;STL</title>
<path fill="none" stroke="black" d="M971.293,-78.5959C913.533,-64.7492 812.45,-40.5171 758.696,-27.6309"/>
<polygon fill="black" stroke="black" points="759.457,-24.2143 748.917,-25.2865 757.826,-31.0214 759.457,-24.2143"/>
</g>
<!-- command&#45;&gt;Qt5 -->
<g id="edge53" class="edge"><title>command&#45;&gt;Qt5</title>
<path fill="none" stroke="black" d="M1029.62,-72.411C1037.89,-63.2234 1048.29,-51.6695 1057.3,-41.66"/>
<polygon fill="black" stroke="black" points="1060.07,-43.8126 1064.16,-34.0382 1054.87,-39.1298 1060.07,-43.8126"/>
</g>
</g>
</svg>
