<?xml version="1.0" encoding="UTF-8" standalone="no"?>
<!DOCTYPE svg PUBLIC "-//W3C//DTD SVG 1.1//EN"
 "http://www.w3.org/Graphics/SVG/1.1/DTD/svg11.dtd">
<!-- Generated by graphviz version 2.38.0 (20140413.2041)
 -->
<!-- Title: alignment.cc Pages: 1 -->
<svg width="2114pt" height="319pt"
 viewBox="0.00 0.00 2114.00 319.00" xmlns="http://www.w3.org/2000/svg" xmlns:xlink="http://www.w3.org/1999/xlink">
<g id="graph0" class="graph" transform="scale(1 1) rotate(0) translate(4 315)">
<title>alignment.cc</title>
<polygon fill="white" stroke="none" points="-4,4 -4,-315 2110,-315 2110,4 -4,4"/>
<!-- Node1 -->
<g id="node1" class="node"><title>Node1</title>
<polygon fill="#bfbfbf" stroke="black" points="1626,-291.5 1626,-310.5 1704,-310.5 1704,-291.5 1626,-291.5"/>
<text text-anchor="middle" x="1665" y="-298.5" font-family="Helvetica,sans-Serif" font-size="10.00">alignment.cc</text>
</g>
<!-- Node2 -->
<g id="node2" class="node"><title>Node2</title>
<g id="a_node2"><a xlink:href="alignment_8h.xhtml" target="_top" xlink:title="Mission and phase constructs. ">
<polygon fill="white" stroke="black" points="1019,-235.5 1019,-254.5 1093,-254.5 1093,-235.5 1019,-235.5"/>
<text text-anchor="middle" x="1056" y="-242.5" font-family="Helvetica,sans-Serif" font-size="10.00">alignment.h</text>
</a>
</g>
</g>
<!-- Node1&#45;&gt;Node2 -->
<g id="edge1" class="edge"><title>Node1&#45;&gt;Node2</title>
<path fill="none" stroke="midnightblue" d="M1625.98,-296.54C1518.69,-287.027 1219.55,-260.502 1103.17,-250.182"/>
<polygon fill="midnightblue" stroke="midnightblue" points="1103.41,-246.69 1093.14,-249.293 1102.79,-253.663 1103.41,-246.69"/>
</g>
<!-- Node21 -->
<g id="node21" class="node"><title>Node21</title>
<g id="a_node21"><a xlink:href="error_8h.xhtml" target="_top" xlink:title="Exceptions for SCRAM. ">
<polygon fill="white" stroke="black" points="1641,-235.5 1641,-254.5 1689,-254.5 1689,-235.5 1641,-235.5"/>
<text text-anchor="middle" x="1665" y="-242.5" font-family="Helvetica,sans-Serif" font-size="10.00">error.h</text>
</a>
</g>
</g>
<!-- Node1&#45;&gt;Node21 -->
<g id="edge37" class="edge"><title>Node1&#45;&gt;Node21</title>
<path fill="none" stroke="midnightblue" d="M1665,-291.083C1665,-284.006 1665,-273.861 1665,-264.986"/>
<polygon fill="midnightblue" stroke="midnightblue" points="1668.5,-264.751 1665,-254.751 1661.5,-264.751 1668.5,-264.751"/>
</g>
<!-- Node27 -->
<g id="node27" class="node"><title>Node27</title>
<g id="a_node27"><a xlink:href="float__compare_8h.xhtml" target="_top" xlink:title="Floating pointing comparison helper functions. ">
<polygon fill="white" stroke="black" points="1955.5,-235.5 1955.5,-254.5 2068.5,-254.5 2068.5,-235.5 1955.5,-235.5"/>
<text text-anchor="middle" x="2012" y="-242.5" font-family="Helvetica,sans-Serif" font-size="10.00">ext/float_compare.h</text>
</a>
</g>
</g>
<!-- Node1&#45;&gt;Node27 -->
<g id="edge44" class="edge"><title>Node1&#45;&gt;Node27</title>
<path fill="none" stroke="midnightblue" d="M1704.13,-293.91C1763.17,-284.722 1875.71,-267.209 1947.14,-256.094"/>
<polygon fill="midnightblue" stroke="midnightblue" points="1948.03,-259.498 1957.37,-254.502 1946.95,-252.581 1948.03,-259.498"/>
</g>
<!-- Node3 -->
<g id="node3" class="node"><title>Node3</title>
<polygon fill="white" stroke="#bfbfbf" points="1102.5,-67.5 1102.5,-86.5 1159.5,-86.5 1159.5,-67.5 1102.5,-67.5"/>
<text text-anchor="middle" x="1131" y="-74.5" font-family="Helvetica,sans-Serif" font-size="10.00">memory</text>
</g>
<!-- Node2&#45;&gt;Node3 -->
<g id="edge2" class="edge"><title>Node2&#45;&gt;Node3</title>
<path fill="none" stroke="midnightblue" d="M1060.03,-235.075C1071.89,-208.832 1106.81,-131.545 1122.81,-96.1165"/>
<polygon fill="midnightblue" stroke="midnightblue" points="1126.2,-97.1222 1127.13,-86.5681 1119.82,-94.2401 1126.2,-97.1222"/>
</g>
<!-- Node4 -->
<g id="node4" class="node"><title>Node4</title>
<polygon fill="white" stroke="#bfbfbf" points="1137,-6 1137,-25 1181,-25 1181,-6 1137,-6"/>
<text text-anchor="middle" x="1159" y="-13" font-family="Helvetica,sans-Serif" font-size="10.00">string</text>
</g>
<!-- Node2&#45;&gt;Node4 -->
<g id="edge3" class="edge"><title>Node2&#45;&gt;Node4</title>
<path fill="none" stroke="midnightblue" d="M1067.24,-235.284C1094.04,-213.692 1161.22,-154.551 1185,-87 1191.47,-68.6286 1181.55,-47.7074 1172.16,-33.4587"/>
<polygon fill="midnightblue" stroke="midnightblue" points="1174.89,-31.2658 1166.24,-25.1528 1169.19,-35.3279 1174.89,-31.2658"/>
</g>
<!-- Node5 -->
<g id="node5" class="node"><title>Node5</title>
<polygon fill="white" stroke="#bfbfbf" points="710.5,-6 710.5,-25 757.5,-25 757.5,-6 710.5,-6"/>
<text text-anchor="middle" x="734" y="-13" font-family="Helvetica,sans-Serif" font-size="10.00">vector</text>
</g>
<!-- Node2&#45;&gt;Node5 -->
<g id="edge4" class="edge"><title>Node2&#45;&gt;Node5</title>
<path fill="none" stroke="midnightblue" d="M1018.88,-242.078C947.561,-236.751 788.966,-216.834 682,-143 650.239,-121.077 620.195,-100.123 640,-67 643.831,-60.5922 680.111,-42.2301 706.454,-29.5097"/>
<polygon fill="midnightblue" stroke="midnightblue" points="708.126,-32.5895 715.631,-25.1111 705.1,-26.2771 708.126,-32.5895"/>
</g>
<!-- Node6 -->
<g id="node6" class="node"><title>Node6</title>
<g id="a_node6"><a xlink:href="element_8h.xhtml" target="_top" xlink:title="Helper classes, structs, and properties common to all other classes. ">
<polygon fill="white" stroke="black" points="420.5,-67.5 420.5,-86.5 485.5,-86.5 485.5,-67.5 420.5,-67.5"/>
<text text-anchor="middle" x="453" y="-74.5" font-family="Helvetica,sans-Serif" font-size="10.00">element.h</text>
</a>
</g>
</g>
<!-- Node2&#45;&gt;Node6 -->
<g id="edge5" class="edge"><title>Node2&#45;&gt;Node6</title>
<path fill="none" stroke="midnightblue" d="M1018.87,-242.982C903.529,-239.534 556.699,-226.928 515,-199 479.319,-175.103 463.04,-124.059 456.606,-96.5238"/>
<polygon fill="midnightblue" stroke="midnightblue" points="460,-95.6584 454.483,-86.6136 453.156,-97.125 460,-95.6584"/>
</g>
<!-- Node12 -->
<g id="node12" class="node"><title>Node12</title>
<g id="a_node12"><a xlink:href="instruction_8h.xhtml" target="_top" xlink:title="Model and event tree modifier instructions. ">
<polygon fill="white" stroke="black" points="885,-179.5 885,-198.5 961,-198.5 961,-179.5 885,-179.5"/>
<text text-anchor="middle" x="923" y="-186.5" font-family="Helvetica,sans-Serif" font-size="10.00">instruction.h</text>
</a>
</g>
</g>
<!-- Node2&#45;&gt;Node12 -->
<g id="edge13" class="edge"><title>Node2&#45;&gt;Node12</title>
<path fill="none" stroke="midnightblue" d="M1034.93,-235.444C1012.94,-226.517 978.266,-212.439 953.336,-202.317"/>
<polygon fill="midnightblue" stroke="midnightblue" points="954.558,-199.035 943.976,-198.516 951.924,-205.521 954.558,-199.035"/>
</g>
<!-- Node6&#45;&gt;Node4 -->
<g id="edge7" class="edge"><title>Node6&#45;&gt;Node4</title>
<path fill="none" stroke="midnightblue" d="M485.803,-74.4442C599.857,-68.9206 978.728,-49.5876 1099,-31 1108.23,-29.5729 1118.14,-27.436 1127.18,-25.2383"/>
<polygon fill="midnightblue" stroke="midnightblue" points="1128.12,-28.6128 1136.95,-22.7658 1126.4,-21.8268 1128.12,-28.6128"/>
</g>
<!-- Node6&#45;&gt;Node5 -->
<g id="edge8" class="edge"><title>Node6&#45;&gt;Node5</title>
<path fill="none" stroke="midnightblue" d="M485.679,-72.5464C533.67,-66.9226 625.677,-54.032 701,-31 702.93,-30.4099 704.897,-29.7383 706.862,-29.0152"/>
<polygon fill="midnightblue" stroke="midnightblue" points="708.532,-32.1149 716.479,-25.1084 705.897,-25.6296 708.532,-32.1149"/>
</g>
<!-- Node7 -->
<g id="node7" class="node"><title>Node7</title>
<polygon fill="white" stroke="#bfbfbf" points="496.5,-6 496.5,-25 545.5,-25 545.5,-6 496.5,-6"/>
<text text-anchor="middle" x="521" y="-13" font-family="Helvetica,sans-Serif" font-size="10.00">cstdint</text>
</g>
<!-- Node6&#45;&gt;Node7 -->
<g id="edge6" class="edge"><title>Node6&#45;&gt;Node7</title>
<path fill="none" stroke="midnightblue" d="M462.743,-67.4751C473.347,-58.1966 490.519,-43.1706 503.479,-31.831"/>
<polygon fill="midnightblue" stroke="midnightblue" points="506.054,-34.2282 511.275,-25.0091 501.445,-28.9601 506.054,-34.2282"/>
</g>
<!-- Node8 -->
<g id="node8" class="node"><title>Node8</title>
<polygon fill="white" stroke="#bfbfbf" points="190,-0.5 190,-30.5 330,-30.5 330,-0.5 190,-0.5"/>
<text text-anchor="start" x="198" y="-18.5" font-family="Helvetica,sans-Serif" font-size="10.00">boost/multi_index/hashed</text>
<text text-anchor="middle" x="260" y="-7.5" font-family="Helvetica,sans-Serif" font-size="10.00">_index.hpp</text>
</g>
<!-- Node6&#45;&gt;Node8 -->
<g id="edge9" class="edge"><title>Node6&#45;&gt;Node8</title>
<path fill="none" stroke="midnightblue" d="M425.348,-67.4751C396.766,-58.6635 351.37,-44.6684 315.369,-33.5698"/>
<polygon fill="midnightblue" stroke="midnightblue" points="316.074,-30.1245 305.486,-30.523 314.011,-36.8138 316.074,-30.1245"/>
</g>
<!-- Node9 -->
<g id="node9" class="node"><title>Node9</title>
<polygon fill="white" stroke="#bfbfbf" points="348,-0.5 348,-30.5 478,-30.5 478,-0.5 348,-0.5"/>
<text text-anchor="start" x="356" y="-18.5" font-family="Helvetica,sans-Serif" font-size="10.00">boost/multi_index/mem</text>
<text text-anchor="middle" x="413" y="-7.5" font-family="Helvetica,sans-Serif" font-size="10.00">_fun.hpp</text>
</g>
<!-- Node6&#45;&gt;Node9 -->
<g id="edge10" class="edge"><title>Node6&#45;&gt;Node9</title>
<path fill="none" stroke="midnightblue" d="M447.269,-67.4751C442.257,-60.0192 434.749,-48.8519 428.038,-38.8685"/>
<polygon fill="midnightblue" stroke="midnightblue" points="430.911,-36.8693 422.427,-30.523 425.102,-40.7747 430.911,-36.8693"/>
</g>
<!-- Node10 -->
<g id="node10" class="node"><title>Node10</title>
<polygon fill="white" stroke="#bfbfbf" points="0,-6 0,-25 172,-25 172,-6 0,-6"/>
<text text-anchor="middle" x="86" y="-13" font-family="Helvetica,sans-Serif" font-size="10.00">boost/multi_index_container.hpp</text>
</g>
<!-- Node6&#45;&gt;Node10 -->
<g id="edge11" class="edge"><title>Node6&#45;&gt;Node10</title>
<path fill="none" stroke="midnightblue" d="M420.431,-70.7198C359.571,-60.8529 227.642,-39.4638 148.897,-26.6972"/>
<polygon fill="midnightblue" stroke="midnightblue" points="149.055,-23.1771 138.623,-25.0316 147.934,-30.0869 149.055,-23.1771"/>
</g>
<!-- Node11 -->
<g id="node11" class="node"><title>Node11</title>
<polygon fill="white" stroke="#bfbfbf" points="564,-6 564,-25 692,-25 692,-6 564,-6"/>
<text text-anchor="middle" x="628" y="-13" font-family="Helvetica,sans-Serif" font-size="10.00">boost/noncopyable.hpp</text>
</g>
<!-- Node6&#45;&gt;Node11 -->
<g id="edge12" class="edge"><title>Node6&#45;&gt;Node11</title>
<path fill="none" stroke="midnightblue" d="M478.073,-67.4751C508.352,-57.1804 559.44,-39.8103 593.441,-28.2502"/>
<polygon fill="midnightblue" stroke="midnightblue" points="594.632,-31.5419 602.973,-25.0091 592.379,-24.9145 594.632,-31.5419"/>
</g>
<!-- Node12&#45;&gt;Node3 -->
<g id="edge14" class="edge"><title>Node12&#45;&gt;Node3</title>
<path fill="none" stroke="midnightblue" d="M939.321,-179.368C975.47,-160.251 1062.49,-114.229 1105.74,-91.361"/>
<polygon fill="midnightblue" stroke="midnightblue" points="1107.55,-94.3604 1114.75,-86.5914 1104.28,-88.1725 1107.55,-94.3604"/>
</g>
<!-- Node12&#45;&gt;Node4 -->
<g id="edge15" class="edge"><title>Node12&#45;&gt;Node4</title>
<path fill="none" stroke="midnightblue" d="M961.116,-185.144C1017.73,-178.6 1122.27,-157.143 1168,-87 1178.18,-71.3794 1173.21,-49.6328 1167.42,-34.4366"/>
<polygon fill="midnightblue" stroke="midnightblue" points="1170.59,-32.9535 1163.46,-25.1184 1164.15,-35.6909 1170.59,-32.9535"/>
</g>
<!-- Node12&#45;&gt;Node5 -->
<g id="edge16" class="edge"><title>Node12&#45;&gt;Node5</title>
<path fill="none" stroke="midnightblue" d="M884.572,-186.923C822.431,-182.858 701.368,-164.789 647,-87 641.908,-79.7142 642.565,-74.7032 647,-67 653.558,-55.6111 682.474,-40.1595 705.193,-29.3582"/>
<polygon fill="midnightblue" stroke="midnightblue" points="706.879,-32.4337 714.467,-25.0392 703.924,-26.0881 706.879,-32.4337"/>
</g>
<!-- Node12&#45;&gt;Node6 -->
<g id="edge18" class="edge"><title>Node12&#45;&gt;Node6</title>
<path fill="none" stroke="midnightblue" d="M884.943,-188.946C816.391,-189.449 668.549,-185.009 553,-143 521.274,-131.466 489.4,-108.261 470.434,-92.9275"/>
<polygon fill="midnightblue" stroke="midnightblue" points="472.61,-90.1857 462.675,-86.5068 468.148,-95.5786 472.61,-90.1857"/>
</g>
<!-- Node12&#45;&gt;Node11 -->
<g id="edge17" class="edge"><title>Node12&#45;&gt;Node11</title>
<path fill="none" stroke="midnightblue" d="M884.907,-184.279C825.808,-177.949 715.352,-163.722 682,-143 655.574,-126.581 652.288,-115.581 640,-87 632.88,-70.4398 629.976,-49.9874 628.797,-35.3841"/>
<polygon fill="midnightblue" stroke="midnightblue" points="632.273,-34.882 628.172,-25.1127 625.286,-35.3067 632.273,-34.882"/>
</g>
<!-- Node13 -->
<g id="node13" class="node"><title>Node13</title>
<g id="a_node13"><a xlink:href="event_8h.xhtml" target="_top" xlink:title="Contains event classes for fault trees. ">
<polygon fill="white" stroke="black" points="812.5,-123.5 812.5,-142.5 865.5,-142.5 865.5,-123.5 812.5,-123.5"/>
<text text-anchor="middle" x="839" y="-130.5" font-family="Helvetica,sans-Serif" font-size="10.00">event.h</text>
</a>
</g>
</g>
<!-- Node12&#45;&gt;Node13 -->
<g id="edge19" class="edge"><title>Node12&#45;&gt;Node13</title>
<path fill="none" stroke="midnightblue" d="M909.504,-179.324C896.4,-170.9 876.288,-157.971 860.893,-148.074"/>
<polygon fill="midnightblue" stroke="midnightblue" points="862.767,-145.118 852.463,-142.655 858.982,-151.006 862.767,-145.118"/>
</g>
<!-- Node18 -->
<g id="node18" class="node"><title>Node18</title>
<g id="a_node18"><a xlink:href="expression_8h.xhtml" target="_top" xlink:title="Provides the base class for all expressions and units for expression values. ">
<polygon fill="white" stroke="black" points="968.5,-67.5 968.5,-86.5 1045.5,-86.5 1045.5,-67.5 968.5,-67.5"/>
<text text-anchor="middle" x="1007" y="-74.5" font-family="Helvetica,sans-Serif" font-size="10.00">expression.h</text>
</a>
</g>
</g>
<!-- Node12&#45;&gt;Node18 -->
<g id="edge36" class="edge"><title>Node12&#45;&gt;Node18</title>
<path fill="none" stroke="midnightblue" d="M929.591,-179.368C943.515,-161.135 976.129,-118.426 994.266,-94.6752"/>
<polygon fill="midnightblue" stroke="midnightblue" points="997.152,-96.6633 1000.44,-86.5914 991.588,-92.4149 997.152,-96.6633"/>
</g>
<!-- Node13&#45;&gt;Node3 -->
<g id="edge22" class="edge"><title>Node13&#45;&gt;Node3</title>
<path fill="none" stroke="midnightblue" d="M865.578,-127.444C911.161,-119.575 1007.15,-102.763 1088,-87 1089.45,-86.7172 1090.93,-86.4257 1092.42,-86.1283"/>
<polygon fill="midnightblue" stroke="midnightblue" points="1093.24,-89.5336 1102.34,-84.1129 1091.84,-82.6736 1093.24,-89.5336"/>
</g>
<!-- Node13&#45;&gt;Node4 -->
<g id="edge24" class="edge"><title>Node13&#45;&gt;Node4</title>
<path fill="none" stroke="midnightblue" d="M865.789,-129.72C907.457,-125.45 989.689,-114.1 1054,-87 1087.31,-72.9625 1121.2,-47.8221 1141.15,-31.6653"/>
<polygon fill="midnightblue" stroke="midnightblue" points="1143.56,-34.214 1149.05,-25.1479 1139.11,-28.8162 1143.56,-34.214"/>
</g>
<!-- Node13&#45;&gt;Node5 -->
<g id="edge27" class="edge"><title>Node13&#45;&gt;Node5</title>
<path fill="none" stroke="midnightblue" d="M827.104,-123.461C815.645,-114.931 798.159,-101.093 785,-87 769.438,-70.3346 754.498,-48.8133 744.856,-33.9555"/>
<polygon fill="midnightblue" stroke="midnightblue" points="747.652,-31.8306 739.332,-25.2721 741.746,-35.588 747.652,-31.8306"/>
</g>
<!-- Node13&#45;&gt;Node6 -->
<g id="edge28" class="edge"><title>Node13&#45;&gt;Node6</title>
<path fill="none" stroke="midnightblue" d="M812.469,-128.288C746.776,-119.098 576.076,-95.2179 495.847,-83.9942"/>
<polygon fill="midnightblue" stroke="midnightblue" points="495.995,-80.4808 485.606,-82.5615 495.025,-87.4133 495.995,-80.4808"/>
</g>
<!-- Node13&#45;&gt;Node7 -->
<g id="edge20" class="edge"><title>Node13&#45;&gt;Node7</title>
<path fill="none" stroke="midnightblue" d="M812.212,-128.153C774.445,-122.191 703.813,-109.047 647,-87 608.044,-71.8827 566.394,-46.5588 542.077,-30.7314"/>
<polygon fill="midnightblue" stroke="midnightblue" points="543.923,-27.756 533.648,-25.1715 540.069,-33.5994 543.923,-27.756"/>
</g>
<!-- Node14 -->
<g id="node14" class="node"><title>Node14</title>
<polygon fill="white" stroke="#bfbfbf" points="800.5,-67.5 800.5,-86.5 877.5,-86.5 877.5,-67.5 800.5,-67.5"/>
<text text-anchor="middle" x="839" y="-74.5" font-family="Helvetica,sans-Serif" font-size="10.00">initializer_list</text>
</g>
<!-- Node13&#45;&gt;Node14 -->
<g id="edge21" class="edge"><title>Node13&#45;&gt;Node14</title>
<path fill="none" stroke="midnightblue" d="M839,-123.083C839,-116.006 839,-105.861 839,-96.9865"/>
<polygon fill="midnightblue" stroke="midnightblue" points="842.5,-96.751 839,-86.7511 835.5,-96.7511 842.5,-96.751"/>
</g>
<!-- Node15 -->
<g id="node15" class="node"><title>Node15</title>
<polygon fill="white" stroke="#bfbfbf" points="895.5,-67.5 895.5,-86.5 950.5,-86.5 950.5,-67.5 895.5,-67.5"/>
<text text-anchor="middle" x="923" y="-74.5" font-family="Helvetica,sans-Serif" font-size="10.00">optional</text>
</g>
<!-- Node13&#45;&gt;Node15 -->
<g id="edge23" class="edge"><title>Node13&#45;&gt;Node15</title>
<path fill="none" stroke="midnightblue" d="M852.496,-123.324C865.6,-114.9 885.712,-101.971 901.107,-92.0741"/>
<polygon fill="midnightblue" stroke="midnightblue" points="903.018,-95.0063 909.537,-86.6545 899.233,-89.118 903.018,-95.0063"/>
</g>
<!-- Node16 -->
<g id="node16" class="node"><title>Node16</title>
<polygon fill="white" stroke="#bfbfbf" points="807,-6 807,-25 849,-25 849,-6 807,-6"/>
<text text-anchor="middle" x="828" y="-13" font-family="Helvetica,sans-Serif" font-size="10.00">utility</text>
</g>
<!-- Node13&#45;&gt;Node16 -->
<g id="edge25" class="edge"><title>Node13&#45;&gt;Node16</title>
<path fill="none" stroke="midnightblue" d="M824.63,-123.33C813.12,-115.469 797.811,-102.722 791,-87 782.732,-67.915 796.966,-46.9094 810.106,-32.8342"/>
<polygon fill="midnightblue" stroke="midnightblue" points="812.934,-34.9568 817.538,-25.4147 807.988,-30.0028 812.934,-34.9568"/>
</g>
<!-- Node17 -->
<g id="node17" class="node"><title>Node17</title>
<polygon fill="white" stroke="#bfbfbf" points="656,-67.5 656,-86.5 706,-86.5 706,-67.5 656,-67.5"/>
<text text-anchor="middle" x="681" y="-74.5" font-family="Helvetica,sans-Serif" font-size="10.00">variant</text>
</g>
<!-- Node13&#45;&gt;Node17 -->
<g id="edge26" class="edge"><title>Node13&#45;&gt;Node17</title>
<path fill="none" stroke="midnightblue" d="M813.964,-123.444C787.384,-114.359 745.191,-99.9388 715.477,-89.7831"/>
<polygon fill="midnightblue" stroke="midnightblue" points="716.513,-86.4386 705.918,-86.5164 714.249,-93.0625 716.513,-86.4386"/>
</g>
<!-- Node13&#45;&gt;Node18 -->
<g id="edge29" class="edge"><title>Node13&#45;&gt;Node18</title>
<path fill="none" stroke="midnightblue" d="M865.62,-123.444C894.006,-114.32 939.137,-99.8133 970.753,-89.6509"/>
<polygon fill="midnightblue" stroke="midnightblue" points="972.055,-92.9087 980.504,-86.5164 969.913,-86.2445 972.055,-92.9087"/>
</g>
<!-- Node18&#45;&gt;Node4 -->
<g id="edge31" class="edge"><title>Node18&#45;&gt;Node4</title>
<path fill="none" stroke="midnightblue" d="M1028.78,-67.4751C1054.74,-57.3129 1098.31,-40.2564 1127.83,-28.6996"/>
<polygon fill="midnightblue" stroke="midnightblue" points="1129.23,-31.9135 1137.26,-25.0091 1126.67,-25.3951 1129.23,-31.9135"/>
</g>
<!-- Node18&#45;&gt;Node5 -->
<g id="edge33" class="edge"><title>Node18&#45;&gt;Node5</title>
<path fill="none" stroke="midnightblue" d="M968.453,-67.8297C926.494,-58.9063 857.437,-44.1315 798,-31 788.092,-28.8111 777.332,-26.3902 767.512,-24.1637"/>
<polygon fill="midnightblue" stroke="midnightblue" points="768.221,-20.7356 757.693,-21.9317 766.669,-27.5615 768.221,-20.7356"/>
</g>
<!-- Node18&#45;&gt;Node11 -->
<g id="edge35" class="edge"><title>Node18&#45;&gt;Node11</title>
<path fill="none" stroke="midnightblue" d="M968.255,-68.5746C965.127,-68.0241 962.012,-67.4923 959,-67 844.738,-48.3267 815.16,-50.2861 701,-31 693.817,-29.7866 686.258,-28.4044 678.836,-26.9867"/>
<polygon fill="midnightblue" stroke="midnightblue" points="679.334,-23.5179 668.849,-25.0438 677.997,-30.3891 679.334,-23.5179"/>
</g>
<!-- Node18&#45;&gt;Node16 -->
<g id="edge32" class="edge"><title>Node18&#45;&gt;Node16</title>
<path fill="none" stroke="midnightblue" d="M981.354,-67.4751C948.975,-56.7124 893.332,-38.2166 858.719,-26.7111"/>
<polygon fill="midnightblue" stroke="midnightblue" points="859.72,-23.3554 849.126,-23.5224 857.512,-29.9981 859.72,-23.3554"/>
</g>
<!-- Node19 -->
<g id="node19" class="node"><title>Node19</title>
<polygon fill="white" stroke="#bfbfbf" points="1028,-6 1028,-25 1090,-25 1090,-6 1028,-6"/>
<text text-anchor="middle" x="1059" y="-13" font-family="Helvetica,sans-Serif" font-size="10.00">algorithm</text>
</g>
<!-- Node18&#45;&gt;Node19 -->
<g id="edge30" class="edge"><title>Node18&#45;&gt;Node19</title>
<path fill="none" stroke="midnightblue" d="M1014.45,-67.4751C1022.33,-58.4617 1034.94,-44.0246 1044.74,-32.8118"/>
<polygon fill="midnightblue" stroke="midnightblue" points="1047.62,-34.842 1051.56,-25.0091 1042.35,-30.2356 1047.62,-34.842"/>
</g>
<!-- Node20 -->
<g id="node20" class="node"><title>Node20</title>
<polygon fill="white" stroke="#bfbfbf" points="898,-0.5 898,-30.5 1010,-30.5 1010,-0.5 898,-0.5"/>
<text text-anchor="start" x="906" y="-18.5" font-family="Helvetica,sans-Serif" font-size="10.00">boost/icl/continuous</text>
<text text-anchor="middle" x="954" y="-7.5" font-family="Helvetica,sans-Serif" font-size="10.00">_interval.hpp</text>
</g>
<!-- Node18&#45;&gt;Node20 -->
<g id="edge34" class="edge"><title>Node18&#45;&gt;Node20</title>
<path fill="none" stroke="midnightblue" d="M999.406,-67.4751C992.631,-59.8685 982.414,-48.3992 973.387,-38.2649"/>
<polygon fill="midnightblue" stroke="midnightblue" points="975.756,-35.6622 966.491,-30.523 970.529,-40.3182 975.756,-35.6622"/>
</g>
<!-- Node21&#45;&gt;Node4 -->
<g id="edge39" class="edge"><title>Node21&#45;&gt;Node4</title>
<path fill="none" stroke="midnightblue" d="M1689.21,-243.874C1750.4,-242.992 1908.69,-237.006 1941,-199 1946.76,-192.228 1946.61,-185.895 1941,-179 1843.76,-59.4802 1326.04,-25.0114 1191.15,-17.9976"/>
<polygon fill="midnightblue" stroke="midnightblue" points="1191.22,-14.4964 1181.05,-17.487 1190.86,-21.4875 1191.22,-14.4964"/>
</g>
<!-- Node22 -->
<g id="node22" class="node"><title>Node22</title>
<polygon fill="white" stroke="#bfbfbf" points="1254.5,-179.5 1254.5,-198.5 1317.5,-198.5 1317.5,-179.5 1254.5,-179.5"/>
<text text-anchor="middle" x="1286" y="-186.5" font-family="Helvetica,sans-Serif" font-size="10.00">exception</text>
</g>
<!-- Node21&#45;&gt;Node22 -->
<g id="edge38" class="edge"><title>Node21&#45;&gt;Node22</title>
<path fill="none" stroke="midnightblue" d="M1640.71,-241.473C1586.49,-235.681 1451.28,-220.408 1327.74,-198.994"/>
<polygon fill="midnightblue" stroke="midnightblue" points="1328.19,-195.518 1317.73,-197.24 1326.98,-202.413 1328.19,-195.518"/>
</g>
<!-- Node23 -->
<g id="node23" class="node"><title>Node23</title>
<polygon fill="white" stroke="#bfbfbf" points="1336,-179.5 1336,-198.5 1482,-198.5 1482,-179.5 1336,-179.5"/>
<text text-anchor="middle" x="1409" y="-186.5" font-family="Helvetica,sans-Serif" font-size="10.00">boost/current_function.hpp</text>
</g>
<!-- Node21&#45;&gt;Node23 -->
<g id="edge40" class="edge"><title>Node21&#45;&gt;Node23</title>
<path fill="none" stroke="midnightblue" d="M1640.92,-238.92C1599.55,-230.195 1514.18,-212.187 1459.36,-200.623"/>
<polygon fill="midnightblue" stroke="midnightblue" points="1460,-197.181 1449.49,-198.542 1458.56,-204.03 1460,-197.181"/>
</g>
<!-- Node24 -->
<g id="node24" class="node"><title>Node24</title>
<polygon fill="white" stroke="#bfbfbf" points="1500,-179.5 1500,-198.5 1664,-198.5 1664,-179.5 1500,-179.5"/>
<text text-anchor="middle" x="1582" y="-186.5" font-family="Helvetica,sans-Serif" font-size="10.00">boost/exception/exception.hpp</text>
</g>
<!-- Node21&#45;&gt;Node24 -->
<g id="edge41" class="edge"><title>Node21&#45;&gt;Node24</title>
<path fill="none" stroke="midnightblue" d="M1651.66,-235.324C1638.84,-226.979 1619.22,-214.212 1604.06,-204.352"/>
<polygon fill="midnightblue" stroke="midnightblue" points="1605.59,-201.174 1595.3,-198.655 1601.78,-207.042 1605.59,-201.174"/>
</g>
<!-- Node25 -->
<g id="node25" class="node"><title>Node25</title>
<polygon fill="white" stroke="#bfbfbf" points="1682,-179.5 1682,-198.5 1816,-198.5 1816,-179.5 1682,-179.5"/>
<text text-anchor="middle" x="1749" y="-186.5" font-family="Helvetica,sans-Serif" font-size="10.00">boost/exception/info.hpp</text>
</g>
<!-- Node21&#45;&gt;Node25 -->
<g id="edge42" class="edge"><title>Node21&#45;&gt;Node25</title>
<path fill="none" stroke="midnightblue" d="M1678.5,-235.324C1691.6,-226.9 1711.71,-213.971 1727.11,-204.074"/>
<polygon fill="midnightblue" stroke="midnightblue" points="1729.02,-207.006 1735.54,-198.655 1725.23,-201.118 1729.02,-207.006"/>
</g>
<!-- Node26 -->
<g id="node26" class="node"><title>Node26</title>
<g id="a_node26"><a xlink:href="source__info_8h.xhtml" target="_top" xlink:title="Helper facilities to get source file information. ">
<polygon fill="white" stroke="black" points="1834,-179.5 1834,-198.5 1932,-198.5 1932,-179.5 1834,-179.5"/>
<text text-anchor="middle" x="1883" y="-186.5" font-family="Helvetica,sans-Serif" font-size="10.00">ext/source_info.h</text>
</a>
</g>
</g>
<!-- Node21&#45;&gt;Node26 -->
<g id="edge43" class="edge"><title>Node21&#45;&gt;Node26</title>
<path fill="none" stroke="midnightblue" d="M1689.16,-238.015C1725.13,-229.105 1793.36,-212.205 1838.51,-201.021"/>
<polygon fill="midnightblue" stroke="midnightblue" points="1839.47,-204.389 1848.33,-198.587 1837.79,-197.594 1839.47,-204.389"/>
</g>
<!-- Node28 -->
<g id="node28" class="node"><title>Node28</title>
<polygon fill="white" stroke="#bfbfbf" points="2054,-179.5 2054,-198.5 2106,-198.5 2106,-179.5 2054,-179.5"/>
<text text-anchor="middle" x="2080" y="-186.5" font-family="Helvetica,sans-Serif" font-size="10.00">cassert</text>
</g>
<!-- Node27&#45;&gt;Node28 -->
<g id="edge45" class="edge"><title>Node27&#45;&gt;Node28</title>
<path fill="none" stroke="midnightblue" d="M2022.93,-235.324C2033.17,-227.185 2048.72,-214.839 2061,-205.087"/>
<polygon fill="midnightblue" stroke="midnightblue" points="2063.22,-207.794 2068.88,-198.834 2058.87,-202.312 2063.22,-207.794"/>
</g>
<!-- Node29 -->
<g id="node29" class="node"><title>Node29</title>
<polygon fill="white" stroke="#bfbfbf" points="1988.5,-179.5 1988.5,-198.5 2035.5,-198.5 2035.5,-179.5 1988.5,-179.5"/>
<text text-anchor="middle" x="2012" y="-186.5" font-family="Helvetica,sans-Serif" font-size="10.00">cmath</text>
</g>
<!-- Node27&#45;&gt;Node29 -->
<g id="edge46" class="edge"><title>Node27&#45;&gt;Node29</title>
<path fill="none" stroke="midnightblue" d="M2012,-235.083C2012,-228.006 2012,-217.861 2012,-208.986"/>
<polygon fill="midnightblue" stroke="midnightblue" points="2015.5,-208.751 2012,-198.751 2008.5,-208.751 2015.5,-208.751"/>
</g>
</g>
</svg>
