<?xml version="1.0" encoding="UTF-8" standalone="no"?>
<!DOCTYPE svg PUBLIC "-//W3C//DTD SVG 1.1//EN"
 "http://www.w3.org/Graphics/SVG/1.1/DTD/svg11.dtd">
<!-- Generated by graphviz version 2.38.0 (20140413.2041)
 -->
<!-- Title: alignment.h Pages: 1 -->
<!--zoomable 263 -->
<svg id="main" version="1.1" xmlns="http://www.w3.org/2000/svg" xmlns:xlink="http://www.w3.org/1999/xlink" xml:space="preserve" onload="init(evt)">
<style type="text/css"><![CDATA[
.edge:hover path { stroke: red; }
.edge:hover polygon { stroke: red; fill: red; }
]]></style>
<script type="text/javascript"><![CDATA[
var edges = document.getElementsByTagName('g');
if (edges && edges.length) {
  for (var i=0;i<edges.length;i++) {
    if (edges[i].id.substr(0,4)=='edge') {
      edges[i].setAttribute('class','edge');
    }
  }
}
]]></script>
        <defs>
                <circle id="rim" cx="0" cy="0" r="7"/>
                <circle id="rim2" cx="0" cy="0" r="3.5"/>
                <g id="zoomPlus">
                        <use xlink:href="#rim" fill="#404040">
                                <set attributeName="fill" to="#808080" begin="zoomplus.mouseover" end="zoomplus.mouseout"/>
                        </use>
                        <path d="M-4,0h8M0,-4v8" fill="none" stroke="white" stroke-width="1.5" pointer-events="none"/>
                </g>
                <g id="zoomMin">
                        <use xlink:href="#rim" fill="#404040">
                                <set attributeName="fill" to="#808080" begin="zoomminus.mouseover" end="zoomminus.mouseout"/>
                        </use>
                        <path d="M-4,0h8" fill="none" stroke="white" stroke-width="1.5" pointer-events="none"/>
                </g>
                <g id="dirArrow">
                        <path fill="none" stroke="white" stroke-width="1.5" d="M0,-3.0v7 M-2.5,-0.5L0,-3.0L2.5,-0.5"/>
                </g>
               <g id="resetDef">
                       <use xlink:href="#rim2" fill="#404040">
                               <set attributeName="fill" to="#808080" begin="reset.mouseover" end="reset.mouseout"/>
                       </use>
               </g>
        </defs>

<script type="text/javascript">
var viewWidth = 1097;
var viewHeight = 263;
var sectionId = 'dynsection-0';
</script>
<script xlink:href="svgpan.js"/>
<svg id="graph" class="graph">
<g id="viewport">
<title>alignment.h</title>
<polygon fill="white" stroke="none" points="-4,4 -4,-259 1092.5,-259 1092.5,4 -4,4"/>
<!-- Node1 -->
<g id="node1" class="node"><title>Node1</title>
<polygon fill="#bfbfbf" stroke="black" points="457.5,-235.5 457.5,-254.5 531.5,-254.5 531.5,-235.5 457.5,-235.5"/>
<text text-anchor="middle" x="494.5" y="-242.5" font-family="Helvetica,sans-Serif" font-size="10.00">alignment.h</text>
</g>
<!-- Node2 -->
<g id="node2" class="node"><title>Node2</title>
<polygon fill="white" stroke="#bfbfbf" points="68,-67.5 68,-86.5 125,-86.5 125,-67.5 68,-67.5"/>
<text text-anchor="middle" x="96.5" y="-74.5" font-family="Helvetica,sans-Serif" font-size="10.00">memory</text>
</g>
<!-- Node1&#45;&gt;Node2 -->
<g id="edge1" class="edge"><title>Node1&#45;&gt;Node2</title>
<path fill="none" stroke="midnightblue" d="M457.418,-238.72C372.184,-225.877 165.85,-190.538 116.5,-143 104.02,-130.978 99.2761,-111.377 97.5,-96.8377"/>
<polygon fill="midnightblue" stroke="midnightblue" points="100.956,-96.1718 96.6207,-86.5046 93.9812,-96.7654 100.956,-96.1718"/>
</g>
<!-- Node3 -->
<g id="node3" class="node"><title>Node3</title>
<polygon fill="white" stroke="#bfbfbf" points="1044.5,-6 1044.5,-25 1088.5,-25 1088.5,-6 1044.5,-6"/>
<text text-anchor="middle" x="1066.5" y="-13" font-family="Helvetica,sans-Serif" font-size="10.00">string</text>
</g>
<!-- Node1&#45;&gt;Node3 -->
<g id="edge2" class="edge"><title>Node1&#45;&gt;Node3</title>
<path fill="none" stroke="midnightblue" d="M521.147,-235.475C589.375,-213.395 775.549,-151.549 925.5,-87 967.101,-69.0923 1013.84,-44.8763 1041.69,-29.9912"/>
<polygon fill="midnightblue" stroke="midnightblue" points="1043.56,-32.9584 1050.71,-25.1409 1040.25,-26.7927 1043.56,-32.9584"/>
</g>
<!-- Node4 -->
<g id="node4" class="node"><title>Node4</title>
<polygon fill="white" stroke="#bfbfbf" points="0,-6 0,-25 47,-25 47,-6 0,-6"/>
<text text-anchor="middle" x="23.5" y="-13" font-family="Helvetica,sans-Serif" font-size="10.00">vector</text>
</g>
<!-- Node1&#45;&gt;Node4 -->
<g id="edge3" class="edge"><title>Node1&#45;&gt;Node4</title>
<path fill="none" stroke="midnightblue" d="M457.473,-243.503C398.664,-241.636 281.094,-233.469 188.5,-199 117.028,-172.394 98.5018,-151.93 58.5,-87 47.8875,-69.774 37.843,-48.891 31.2595,-34.3434"/>
<polygon fill="midnightblue" stroke="midnightblue" points="34.3743,-32.7336 27.1187,-25.0131 27.9761,-35.5732 34.3743,-32.7336"/>
</g>
<!-- Node5 -->
<g id="node5" class="node"><title>Node5</title>
<g id="a_node5"><a xlink:href="element_8h.xhtml" target="_top" xlink:title="Helper classes, structs, and properties common to all other classes. ">
<polygon fill="white" stroke="black" points="495,-67.5 495,-86.5 560,-86.5 560,-67.5 495,-67.5"/>
<text text-anchor="middle" x="527.5" y="-74.5" font-family="Helvetica,sans-Serif" font-size="10.00">element.h</text>
</a>
</g>
</g>
<!-- Node1&#45;&gt;Node5 -->
<g id="edge4" class="edge"><title>Node1&#45;&gt;Node5</title>
<path fill="none" stroke="midnightblue" d="M496.274,-235.075C501.469,-208.945 516.723,-132.211 523.807,-96.577"/>
<polygon fill="midnightblue" stroke="midnightblue" points="527.28,-97.0586 525.797,-86.5681 520.414,-95.6937 527.28,-97.0586"/>
</g>
<!-- Node11 -->
<g id="node11" class="node"><title>Node11</title>
<g id="a_node11"><a xlink:href="instruction_8h.xhtml" target="_top" xlink:title="Model and event tree modifier instructions. ">
<polygon fill="white" stroke="black" points="522.5,-179.5 522.5,-198.5 598.5,-198.5 598.5,-179.5 522.5,-179.5"/>
<text text-anchor="middle" x="560.5" y="-186.5" font-family="Helvetica,sans-Serif" font-size="10.00">instruction.h</text>
</a>
</g>
</g>
<!-- Node1&#45;&gt;Node11 -->
<g id="edge12" class="edge"><title>Node1&#45;&gt;Node11</title>
<path fill="none" stroke="midnightblue" d="M505.104,-235.324C514.956,-227.263 529.851,-215.077 541.715,-205.369"/>
<polygon fill="midnightblue" stroke="midnightblue" points="544.18,-207.875 549.703,-198.834 539.747,-202.457 544.18,-207.875"/>
</g>
<!-- Node5&#45;&gt;Node3 -->
<g id="edge6" class="edge"><title>Node5&#45;&gt;Node3</title>
<path fill="none" stroke="midnightblue" d="M560.341,-73.7579C665.505,-66.4854 989.759,-43.3117 1035.5,-31 1037.44,-30.4788 1039.4,-29.843 1041.35,-29.1319"/>
<polygon fill="midnightblue" stroke="midnightblue" points="1042.97,-32.2493 1050.81,-25.1305 1040.24,-25.8022 1042.97,-32.2493"/>
</g>
<!-- Node5&#45;&gt;Node4 -->
<g id="edge7" class="edge"><title>Node5&#45;&gt;Node4</title>
<path fill="none" stroke="midnightblue" d="M494.821,-72.1707C480.332,-70.5124 463.073,-68.5909 447.5,-67 273.45,-49.2195 224.642,-75.7265 55.5,-31 53.3441,-30.4299 51.1512,-29.7269 48.976,-28.9405"/>
<polygon fill="midnightblue" stroke="midnightblue" points="50.3,-25.7006 39.7214,-25.1135 47.6249,-32.1694 50.3,-25.7006"/>
</g>
<!-- Node6 -->
<g id="node6" class="node"><title>Node6</title>
<polygon fill="white" stroke="#bfbfbf" points="65,-6 65,-25 114,-25 114,-6 65,-6"/>
<text text-anchor="middle" x="89.5" y="-13" font-family="Helvetica,sans-Serif" font-size="10.00">cstdint</text>
</g>
<!-- Node5&#45;&gt;Node6 -->
<g id="edge5" class="edge"><title>Node5&#45;&gt;Node6</title>
<path fill="none" stroke="midnightblue" d="M494.947,-69.379C490.115,-68.5089 485.186,-67.6835 480.5,-67 322.699,-43.9813 277.942,-70.7332 123.5,-31 121.14,-30.3929 118.733,-29.647 116.343,-28.8167"/>
<polygon fill="midnightblue" stroke="midnightblue" points="117.38,-25.4637 106.792,-25.0685 114.823,-31.9799 117.38,-25.4637"/>
</g>
<!-- Node7 -->
<g id="node7" class="node"><title>Node7</title>
<polygon fill="white" stroke="#bfbfbf" points="132.5,-0.5 132.5,-30.5 272.5,-30.5 272.5,-0.5 132.5,-0.5"/>
<text text-anchor="start" x="140.5" y="-18.5" font-family="Helvetica,sans-Serif" font-size="10.00">boost/multi_index/hashed</text>
<text text-anchor="middle" x="202.5" y="-7.5" font-family="Helvetica,sans-Serif" font-size="10.00">_index.hpp</text>
</g>
<!-- Node5&#45;&gt;Node7 -->
<g id="edge8" class="edge"><title>Node5&#45;&gt;Node7</title>
<path fill="none" stroke="midnightblue" d="M494.892,-69.7112C490.068,-68.7938 485.156,-67.8668 480.5,-67 395.245,-51.1262 371.568,-47.3706 282.691,-31.213"/>
<polygon fill="midnightblue" stroke="midnightblue" points="283.175,-27.7436 272.71,-29.3962 281.921,-34.6305 283.175,-27.7436"/>
</g>
<!-- Node8 -->
<g id="node8" class="node"><title>Node8</title>
<polygon fill="white" stroke="#bfbfbf" points="290.5,-0.5 290.5,-30.5 420.5,-30.5 420.5,-0.5 290.5,-0.5"/>
<text text-anchor="start" x="298.5" y="-18.5" font-family="Helvetica,sans-Serif" font-size="10.00">boost/multi_index/mem</text>
<text text-anchor="middle" x="355.5" y="-7.5" font-family="Helvetica,sans-Serif" font-size="10.00">_fun.hpp</text>
</g>
<!-- Node5&#45;&gt;Node8 -->
<g id="edge9" class="edge"><title>Node5&#45;&gt;Node8</title>
<path fill="none" stroke="midnightblue" d="M502.857,-67.4751C477.602,-58.7388 437.619,-44.9073 405.669,-33.855"/>
<polygon fill="midnightblue" stroke="midnightblue" points="406.632,-30.4846 396.037,-30.523 404.343,-37.0999 406.632,-30.4846"/>
</g>
<!-- Node9 -->
<g id="node9" class="node"><title>Node9</title>
<polygon fill="white" stroke="#bfbfbf" points="438.5,-6 438.5,-25 610.5,-25 610.5,-6 438.5,-6"/>
<text text-anchor="middle" x="524.5" y="-13" font-family="Helvetica,sans-Serif" font-size="10.00">boost/multi_index_container.hpp</text>
</g>
<!-- Node5&#45;&gt;Node9 -->
<g id="edge10" class="edge"><title>Node5&#45;&gt;Node9</title>
<path fill="none" stroke="midnightblue" d="M527.07,-67.4751C526.647,-59.0803 525.986,-45.9806 525.441,-35.1631"/>
<polygon fill="midnightblue" stroke="midnightblue" points="528.928,-34.8201 524.929,-25.0091 521.937,-35.1727 528.928,-34.8201"/>
</g>
<!-- Node10 -->
<g id="node10" class="node"><title>Node10</title>
<polygon fill="white" stroke="#bfbfbf" points="768.5,-6 768.5,-25 896.5,-25 896.5,-6 768.5,-6"/>
<text text-anchor="middle" x="832.5" y="-13" font-family="Helvetica,sans-Serif" font-size="10.00">boost/noncopyable.hpp</text>
</g>
<!-- Node5&#45;&gt;Node10 -->
<g id="edge11" class="edge"><title>Node5&#45;&gt;Node10</title>
<path fill="none" stroke="midnightblue" d="M560.167,-69.7117C605.085,-61.054 688.441,-44.9487 759.5,-31 766.06,-29.7124 772.949,-28.353 779.768,-27.0035"/>
<polygon fill="midnightblue" stroke="midnightblue" points="780.531,-30.4204 789.66,-25.0428 779.17,-23.5539 780.531,-30.4204"/>
</g>
<!-- Node11&#45;&gt;Node2 -->
<g id="edge13" class="edge"><title>Node11&#45;&gt;Node2</title>
<path fill="none" stroke="midnightblue" d="M522.371,-188C431.179,-187.363 203.324,-181.817 139.5,-143 121.842,-132.26 109.947,-111.195 103.225,-95.9502"/>
<polygon fill="midnightblue" stroke="midnightblue" points="106.4,-94.4681 99.3897,-86.5243 99.9162,-97.106 106.4,-94.4681"/>
</g>
<!-- Node11&#45;&gt;Node3 -->
<g id="edge14" class="edge"><title>Node11&#45;&gt;Node3</title>
<path fill="none" stroke="midnightblue" d="M590.397,-179.461C665.982,-157.584 870.448,-96.6113 1035.5,-31 1036.88,-30.4513 1038.29,-29.8715 1039.7,-29.2718"/>
<polygon fill="midnightblue" stroke="midnightblue" points="1041.24,-32.4157 1048.95,-25.1472 1038.39,-26.0222 1041.24,-32.4157"/>
</g>
<!-- Node11&#45;&gt;Node4 -->
<g id="edge15" class="edge"><title>Node11&#45;&gt;Node4</title>
<path fill="none" stroke="midnightblue" d="M522.255,-181.851C450.658,-169.546 292.353,-138.561 167.5,-87 151.296,-80.3081 149.042,-75.1122 133.5,-67 125.768,-62.9641 81.7958,-42.9214 51.8439,-29.3323"/>
<polygon fill="midnightblue" stroke="midnightblue" points="53.2285,-26.1172 42.6756,-25.1755 50.338,-32.4925 53.2285,-26.1172"/>
</g>
<!-- Node11&#45;&gt;Node5 -->
<g id="edge17" class="edge"><title>Node11&#45;&gt;Node5</title>
<path fill="none" stroke="midnightblue" d="M557.911,-179.368C552.561,-161.537 540.189,-120.295 532.982,-96.2717"/>
<polygon fill="midnightblue" stroke="midnightblue" points="536.303,-95.1639 530.077,-86.5914 529.599,-97.1754 536.303,-95.1639"/>
</g>
<!-- Node11&#45;&gt;Node10 -->
<g id="edge16" class="edge"><title>Node11&#45;&gt;Node10</title>
<path fill="none" stroke="midnightblue" d="M580.335,-179.382C616.023,-163.478 692.803,-127.423 751.5,-87 775.82,-70.2518 801.053,-47.2405 816.759,-32.1274"/>
<polygon fill="midnightblue" stroke="midnightblue" points="819.333,-34.5065 824.049,-25.0193 814.446,-29.4947 819.333,-34.5065"/>
</g>
<!-- Node12 -->
<g id="node12" class="node"><title>Node12</title>
<g id="a_node12"><a xlink:href="event_8h.xhtml" target="_top" xlink:title="Contains event classes for fault trees. ">
<polygon fill="white" stroke="black" points="413,-123.5 413,-142.5 466,-142.5 466,-123.5 413,-123.5"/>
<text text-anchor="middle" x="439.5" y="-130.5" font-family="Helvetica,sans-Serif" font-size="10.00">event.h</text>
</a>
</g>
</g>
<!-- Node11&#45;&gt;Node12 -->
<g id="edge18" class="edge"><title>Node11&#45;&gt;Node12</title>
<path fill="none" stroke="midnightblue" d="M541.327,-179.444C521.591,-170.636 490.615,-156.812 468.007,-146.722"/>
<polygon fill="midnightblue" stroke="midnightblue" points="469.141,-143.396 458.583,-142.516 466.289,-149.788 469.141,-143.396"/>
</g>
<!-- Node17 -->
<g id="node17" class="node"><title>Node17</title>
<g id="a_node17"><a xlink:href="expression_8h.xhtml" target="_top" xlink:title="Provides the base class for all expressions and units for expression values. ">
<polygon fill="white" stroke="black" points="666,-67.5 666,-86.5 743,-86.5 743,-67.5 666,-67.5"/>
<text text-anchor="middle" x="704.5" y="-74.5" font-family="Helvetica,sans-Serif" font-size="10.00">expression.h</text>
</a>
</g>
</g>
<!-- Node11&#45;&gt;Node17 -->
<g id="edge35" class="edge"><title>Node11&#45;&gt;Node17</title>
<path fill="none" stroke="midnightblue" d="M571.799,-179.368C596.3,-160.653 654.557,-116.151 685.083,-92.8324"/>
<polygon fill="midnightblue" stroke="midnightblue" points="687.431,-95.4432 693.253,-86.5914 683.182,-89.8805 687.431,-95.4432"/>
</g>
<!-- Node12&#45;&gt;Node2 -->
<g id="edge21" class="edge"><title>Node12&#45;&gt;Node2</title>
<path fill="none" stroke="midnightblue" d="M412.871,-127.808C352.685,-118.332 205.943,-95.2301 135.496,-84.1393"/>
<polygon fill="midnightblue" stroke="midnightblue" points="135.695,-80.6276 125.272,-82.5298 134.606,-87.5424 135.695,-80.6276"/>
</g>
<!-- Node12&#45;&gt;Node3 -->
<g id="edge23" class="edge"><title>Node12&#45;&gt;Node3</title>
<path fill="none" stroke="midnightblue" d="M466.06,-128.564C566.94,-115.352 926.151,-66.764 1035.5,-31 1037.17,-30.454 1038.87,-29.8407 1040.56,-29.183"/>
<polygon fill="midnightblue" stroke="midnightblue" points="1042.27,-32.2589 1050.07,-25.0889 1039.5,-25.8297 1042.27,-32.2589"/>
</g>
<!-- Node12&#45;&gt;Node4 -->
<g id="edge26" class="edge"><title>Node12&#45;&gt;Node4</title>
<path fill="none" stroke="midnightblue" d="M412.874,-128.89C369.627,-123.37 281.776,-110.201 210.5,-87 190.458,-80.4761 187.127,-74.6842 167.5,-67 118.813,-47.9379 104.281,-49.8208 55.5,-31 54.0774,-30.4511 52.6275,-29.8712 51.1691,-29.2714"/>
<polygon fill="midnightblue" stroke="midnightblue" points="52.191,-25.9003 41.623,-25.1465 49.4143,-32.326 52.191,-25.9003"/>
</g>
<!-- Node12&#45;&gt;Node5 -->
<g id="edge27" class="edge"><title>Node12&#45;&gt;Node5</title>
<path fill="none" stroke="midnightblue" d="M453.639,-123.324C467.366,-114.9 488.436,-101.971 504.564,-92.0741"/>
<polygon fill="midnightblue" stroke="midnightblue" points="506.704,-94.8678 513.396,-86.6545 503.043,-88.9016 506.704,-94.8678"/>
</g>
<!-- Node12&#45;&gt;Node6 -->
<g id="edge19" class="edge"><title>Node12&#45;&gt;Node6</title>
<path fill="none" stroke="midnightblue" d="M444.353,-123.167C451.215,-109.348 461.452,-82.5885 447.5,-67 399.186,-13.0206 193.566,-49.4056 123.5,-31 121.143,-30.381 118.738,-29.6266 116.35,-28.7906"/>
<polygon fill="midnightblue" stroke="midnightblue" points="117.389,-25.4382 106.802,-25.0327 114.825,-31.9519 117.389,-25.4382"/>
</g>
<!-- Node13 -->
<g id="node13" class="node"><title>Node13</title>
<polygon fill="white" stroke="#bfbfbf" points="220,-67.5 220,-86.5 297,-86.5 297,-67.5 220,-67.5"/>
<text text-anchor="middle" x="258.5" y="-74.5" font-family="Helvetica,sans-Serif" font-size="10.00">initializer_list</text>
</g>
<!-- Node12&#45;&gt;Node13 -->
<g id="edge20" class="edge"><title>Node12&#45;&gt;Node13</title>
<path fill="none" stroke="midnightblue" d="M412.793,-124.032C382.183,-114.9 331.764,-99.8578 296.936,-89.467"/>
<polygon fill="midnightblue" stroke="midnightblue" points="297.695,-86.041 287.111,-86.536 295.693,-92.7489 297.695,-86.041"/>
</g>
<!-- Node14 -->
<g id="node14" class="node"><title>Node14</title>
<polygon fill="white" stroke="#bfbfbf" points="315,-67.5 315,-86.5 370,-86.5 370,-67.5 315,-67.5"/>
<text text-anchor="middle" x="342.5" y="-74.5" font-family="Helvetica,sans-Serif" font-size="10.00">optional</text>
</g>
<!-- Node12&#45;&gt;Node14 -->
<g id="edge22" class="edge"><title>Node12&#45;&gt;Node14</title>
<path fill="none" stroke="midnightblue" d="M423.915,-123.324C408.501,-114.743 384.688,-101.486 366.79,-91.5224"/>
<polygon fill="midnightblue" stroke="midnightblue" points="368.486,-88.4606 358.046,-86.6545 365.081,-94.5767 368.486,-88.4606"/>
</g>
<!-- Node15 -->
<g id="node15" class="node"><title>Node15</title>
<polygon fill="white" stroke="#bfbfbf" points="628.5,-6 628.5,-25 670.5,-25 670.5,-6 628.5,-6"/>
<text text-anchor="middle" x="649.5" y="-13" font-family="Helvetica,sans-Serif" font-size="10.00">utility</text>
</g>
<!-- Node12&#45;&gt;Node15 -->
<g id="edge24" class="edge"><title>Node12&#45;&gt;Node15</title>
<path fill="none" stroke="midnightblue" d="M466.217,-125.864C493.229,-118.947 535.575,-106.111 568.5,-87 594.313,-72.0169 619.518,-48.2023 634.781,-32.4617"/>
<polygon fill="midnightblue" stroke="midnightblue" points="637.464,-34.7195 641.807,-25.0559 632.385,-29.9018 637.464,-34.7195"/>
</g>
<!-- Node16 -->
<g id="node16" class="node"><title>Node16</title>
<polygon fill="white" stroke="#bfbfbf" points="388.5,-67.5 388.5,-86.5 438.5,-86.5 438.5,-67.5 388.5,-67.5"/>
<text text-anchor="middle" x="413.5" y="-74.5" font-family="Helvetica,sans-Serif" font-size="10.00">variant</text>
</g>
<!-- Node12&#45;&gt;Node16 -->
<g id="edge25" class="edge"><title>Node12&#45;&gt;Node16</title>
<path fill="none" stroke="midnightblue" d="M435.207,-123.083C431.648,-115.691 426.478,-104.953 422.076,-95.8111"/>
<polygon fill="midnightblue" stroke="midnightblue" points="425.205,-94.2427 417.713,-86.7511 418.898,-97.2795 425.205,-94.2427"/>
</g>
<!-- Node12&#45;&gt;Node17 -->
<g id="edge28" class="edge"><title>Node12&#45;&gt;Node17</title>
<path fill="none" stroke="midnightblue" d="M466.368,-126.525C510.715,-117.488 599.86,-99.3229 655.611,-87.9623"/>
<polygon fill="midnightblue" stroke="midnightblue" points="656.514,-91.3502 665.614,-85.9239 655.117,-84.4912 656.514,-91.3502"/>
</g>
<!-- Node17&#45;&gt;Node3 -->
<g id="edge30" class="edge"><title>Node17&#45;&gt;Node3</title>
<path fill="none" stroke="midnightblue" d="M743.238,-70.7142C752.19,-69.4936 761.677,-68.2009 770.5,-67 888.274,-50.9702 921.477,-64.5627 1035.5,-31 1037.38,-30.4463 1039.29,-29.7945 1041.19,-29.0789"/>
<polygon fill="midnightblue" stroke="midnightblue" points="1042.63,-32.2733 1050.45,-25.1303 1039.88,-25.8346 1042.63,-32.2733"/>
</g>
<!-- Node17&#45;&gt;Node4 -->
<g id="edge32" class="edge"><title>Node17&#45;&gt;Node4</title>
<path fill="none" stroke="midnightblue" d="M665.863,-73.4124C527.276,-64.1196 62.9516,-32.8816 55.5,-31 53.2898,-30.4419 51.0428,-29.7377 48.817,-28.9419"/>
<polygon fill="midnightblue" stroke="midnightblue" points="49.9521,-25.6239 39.3736,-25.0365 47.2769,-32.0926 49.9521,-25.6239"/>
</g>
<!-- Node17&#45;&gt;Node10 -->
<g id="edge34" class="edge"><title>Node17&#45;&gt;Node10</title>
<path fill="none" stroke="midnightblue" d="M722.839,-67.4751C744.321,-57.4897 780.122,-40.8476 804.948,-29.3075"/>
<polygon fill="midnightblue" stroke="midnightblue" points="806.602,-32.3983 814.195,-25.0091 803.651,-26.0506 806.602,-32.3983"/>
</g>
<!-- Node17&#45;&gt;Node15 -->
<g id="edge31" class="edge"><title>Node17&#45;&gt;Node15</title>
<path fill="none" stroke="midnightblue" d="M696.62,-67.4751C688.206,-58.3733 674.681,-43.741 664.274,-32.483"/>
<polygon fill="midnightblue" stroke="midnightblue" points="666.724,-29.9766 657.366,-25.0091 661.583,-34.7282 666.724,-29.9766"/>
</g>
<!-- Node18 -->
<g id="node18" class="node"><title>Node18</title>
<polygon fill="white" stroke="#bfbfbf" points="688.5,-6 688.5,-25 750.5,-25 750.5,-6 688.5,-6"/>
<text text-anchor="middle" x="719.5" y="-13" font-family="Helvetica,sans-Serif" font-size="10.00">algorithm</text>
</g>
<!-- Node17&#45;&gt;Node18 -->
<g id="edge29" class="edge"><title>Node17&#45;&gt;Node18</title>
<path fill="none" stroke="midnightblue" d="M706.649,-67.4751C708.788,-58.9919 712.138,-45.7043 714.881,-34.8222"/>
<polygon fill="midnightblue" stroke="midnightblue" points="718.304,-35.5613 717.355,-25.0091 711.516,-33.8501 718.304,-35.5613"/>
</g>
<!-- Node19 -->
<g id="node19" class="node"><title>Node19</title>
<polygon fill="white" stroke="#bfbfbf" points="914.5,-0.5 914.5,-30.5 1026.5,-30.5 1026.5,-0.5 914.5,-0.5"/>
<text text-anchor="start" x="922.5" y="-18.5" font-family="Helvetica,sans-Serif" font-size="10.00">boost/icl/continuous</text>
<text text-anchor="middle" x="970.5" y="-7.5" font-family="Helvetica,sans-Serif" font-size="10.00">_interval.hpp</text>
</g>
<!-- Node17&#45;&gt;Node19 -->
<g id="edge33" class="edge"><title>Node17&#45;&gt;Node19</title>
<path fill="none" stroke="midnightblue" d="M742.611,-67.4751C784.765,-58.046 853.454,-42.6813 904.417,-31.2817"/>
<polygon fill="midnightblue" stroke="midnightblue" points="905.365,-34.6562 914.36,-29.0576 903.837,-27.825 905.365,-34.6562"/>
</g>
</g>
</svg>
        <g id="navigator" transform="translate(0 0)" fill="#404254">
                <rect fill="#f2f5e9" fill-opacity="0.5" stroke="#606060" stroke-width=".5" x="0" y="0" width="60" height="60"/>
                <use id="zoomplus" xlink:href="#zoomPlus" x="17" y="9" onmousedown="handleZoom(evt,'in')"/>
                <use id="zoomminus" xlink:href="#zoomMin" x="42" y="9" onmousedown="handleZoom(evt,'out')"/>
                <use id="reset" xlink:href="#resetDef" x="30" y="36" onmousedown="handleReset()"/>
                <g id="arrowUp" xlink:href="#dirArrow" transform="translate(30 24)" onmousedown="handlePan(0,-1)">
                  <use xlink:href="#rim" fill="#404040">
                        <set attributeName="fill" to="#808080" begin="arrowUp.mouseover" end="arrowUp.mouseout"/>
                  </use>
                  <path fill="none" stroke="white" stroke-width="1.5" d="M0,-3.0v7 M-2.5,-0.5L0,-3.0L2.5,-0.5"/>
                </g>
                <g id="arrowRight" xlink:href="#dirArrow" transform="rotate(90) translate(36 -43)" onmousedown="handlePan(1,0)">
                  <use xlink:href="#rim" fill="#404040">
                        <set attributeName="fill" to="#808080" begin="arrowRight.mouseover" end="arrowRight.mouseout"/>
                  </use>
                  <path fill="none" stroke="white" stroke-width="1.5" d="M0,-3.0v7 M-2.5,-0.5L0,-3.0L2.5,-0.5"/>
                </g>
                <g id="arrowDown" xlink:href="#dirArrow" transform="rotate(180) translate(-30 -48)" onmousedown="handlePan(0,1)">
                  <use xlink:href="#rim" fill="#404040">
                        <set attributeName="fill" to="#808080" begin="arrowDown.mouseover" end="arrowDown.mouseout"/>
                  </use>
                  <path fill="none" stroke="white" stroke-width="1.5" d="M0,-3.0v7 M-2.5,-0.5L0,-3.0L2.5,-0.5"/>
                </g>
                <g id="arrowLeft" xlink:href="#dirArrow" transform="rotate(270) translate(-36 17)" onmousedown="handlePan(-1,0)">
                  <use xlink:href="#rim" fill="#404040">
                        <set attributeName="fill" to="#808080" begin="arrowLeft.mouseover" end="arrowLeft.mouseout"/>
                  </use>
                  <path fill="none" stroke="white" stroke-width="1.5" d="M0,-3.0v7 M-2.5,-0.5L0,-3.0L2.5,-0.5"/>
                </g>
        </g>
        <svg viewBox="0 0 15 15" width="100%" height="30px" preserveAspectRatio="xMaxYMin meet">
         <g id="arrow_out" transform="scale(0.3 0.3)">
          <a xlink:href="alignment_8h__incl_org.svg" target="_base">
           <rect id="button" ry="5" rx="5" y="6" x="6" height="38" width="38"
                fill="#f2f5e9" fill-opacity="0.5" stroke="#606060" stroke-width="1.0"/>
           <path id="arrow"
             d="M 11.500037,31.436501 C 11.940474,20.09759 22.043105,11.32322 32.158766,21.979434 L 37.068811,17.246167 C 37.068811,17.246167 37.088388,32 37.088388,32 L 22.160133,31.978069 C 22.160133,31.978069 26.997745,27.140456 26.997745,27.140456 C 18.528582,18.264221 13.291696,25.230495 11.500037,31.436501 z"
             style="fill:#404040;"/>
          </a>
         </g>
        </svg>
</svg>
