<?xml version="1.0" encoding="UTF-8" standalone="no"?>
<!DOCTYPE svg PUBLIC "-//W3C//DTD SVG 1.1//EN"
 "http://www.w3.org/Graphics/SVG/1.1/DTD/svg11.dtd">
<!-- Generated by graphviz version 2.38.0 (20140413.2041)
 -->
<!-- Title: ccf_group.cc Pages: 1 -->
<!--zoomable 274 -->
<svg id="main" version="1.1" xmlns="http://www.w3.org/2000/svg" xmlns:xlink="http://www.w3.org/1999/xlink" xml:space="preserve" onload="init(evt)">
<style type="text/css"><![CDATA[
.edge:hover path { stroke: red; }
.edge:hover polygon { stroke: red; fill: red; }
]]></style>
<script type="text/javascript"><![CDATA[
var edges = document.getElementsByTagName('g');
if (edges && edges.length) {
  for (var i=0;i<edges.length;i++) {
    if (edges[i].id.substr(0,4)=='edge') {
      edges[i].setAttribute('class','edge');
    }
  }
}
]]></script>
        <defs>
                <circle id="rim" cx="0" cy="0" r="7"/>
                <circle id="rim2" cx="0" cy="0" r="3.5"/>
                <g id="zoomPlus">
                        <use xlink:href="#rim" fill="#404040">
                                <set attributeName="fill" to="#808080" begin="zoomplus.mouseover" end="zoomplus.mouseout"/>
                        </use>
                        <path d="M-4,0h8M0,-4v8" fill="none" stroke="white" stroke-width="1.5" pointer-events="none"/>
                </g>
                <g id="zoomMin">
                        <use xlink:href="#rim" fill="#404040">
                                <set attributeName="fill" to="#808080" begin="zoomminus.mouseover" end="zoomminus.mouseout"/>
                        </use>
                        <path d="M-4,0h8" fill="none" stroke="white" stroke-width="1.5" pointer-events="none"/>
                </g>
                <g id="dirArrow">
                        <path fill="none" stroke="white" stroke-width="1.5" d="M0,-3.0v7 M-2.5,-0.5L0,-3.0L2.5,-0.5"/>
                </g>
               <g id="resetDef">
                       <use xlink:href="#rim2" fill="#404040">
                               <set attributeName="fill" to="#808080" begin="reset.mouseover" end="reset.mouseout"/>
                       </use>
               </g>
        </defs>

<script type="text/javascript">
var viewWidth = 2337;
var viewHeight = 274;
var sectionId = 'dynsection-0';
</script>
<script xlink:href="svgpan.js"/>
<svg id="graph" class="graph">
<g id="viewport">
<title>ccf_group.cc</title>
<polygon fill="white" stroke="none" points="-4,4 -4,-270 2332.5,-270 2332.5,4 -4,4"/>
<!-- Node1 -->
<g id="node1" class="node"><title>Node1</title>
<polygon fill="#bfbfbf" stroke="black" points="1784.5,-246.5 1784.5,-265.5 1861.5,-265.5 1861.5,-246.5 1784.5,-246.5"/>
<text text-anchor="middle" x="1823" y="-253.5" font-family="Helvetica,sans-Serif" font-size="10.00">ccf_group.cc</text>
</g>
<!-- Node2 -->
<g id="node2" class="node"><title>Node2</title>
<g id="a_node2"><a xlink:href="ccf__group_8h.xhtml" target="_top" xlink:title="Functional containers for basic events grouped by common cause failure. ">
<polygon fill="white" stroke="black" points="559,-185 559,-204 631,-204 631,-185 559,-185"/>
<text text-anchor="middle" x="595" y="-192" font-family="Helvetica,sans-Serif" font-size="10.00">ccf_group.h</text>
</a>
</g>
</g>
<!-- Node1&#45;&gt;Node2 -->
<g id="edge1" class="edge"><title>Node1&#45;&gt;Node2</title>
<path fill="none" stroke="midnightblue" d="M1784.22,-253.121C1602.77,-244.329 838.185,-207.283 641.362,-197.746"/>
<polygon fill="midnightblue" stroke="midnightblue" points="641.24,-194.236 631.082,-197.248 640.901,-201.228 641.24,-194.236"/>
</g>
<!-- Node7 -->
<g id="node7" class="node"><title>Node7</title>
<polygon fill="white" stroke="#bfbfbf" points="1092,-6 1092,-25 1134,-25 1134,-6 1092,-6"/>
<text text-anchor="middle" x="1113" y="-13" font-family="Helvetica,sans-Serif" font-size="10.00">utility</text>
</g>
<!-- Node1&#45;&gt;Node7 -->
<g id="edge35" class="edge"><title>Node1&#45;&gt;Node7</title>
<path fill="none" stroke="midnightblue" d="M1828.27,-246.328C1841.58,-223.184 1873.34,-159.256 1842,-123 1749.44,-15.9354 1272.14,-14.3902 1144.45,-15.9384"/>
<polygon fill="midnightblue" stroke="midnightblue" points="1144.14,-12.4422 1134.19,-16.0791 1144.24,-19.4415 1144.14,-12.4422"/>
</g>
<!-- Node21 -->
<g id="node21" class="node"><title>Node21</title>
<polygon fill="white" stroke="#bfbfbf" points="1889.5,-123.5 1889.5,-142.5 1936.5,-142.5 1936.5,-123.5 1889.5,-123.5"/>
<text text-anchor="middle" x="1913" y="-130.5" font-family="Helvetica,sans-Serif" font-size="10.00">cmath</text>
</g>
<!-- Node1&#45;&gt;Node21 -->
<g id="edge34" class="edge"><title>Node1&#45;&gt;Node21</title>
<path fill="none" stroke="midnightblue" d="M1835.37,-246.497C1846.76,-238.2 1863.57,-224.707 1875,-210 1888.96,-192.035 1899.89,-168.134 1906.38,-151.969"/>
<polygon fill="midnightblue" stroke="midnightblue" points="1909.65,-153.192 1909.98,-142.603 1903.12,-150.676 1909.65,-153.192"/>
</g>
<!-- Node22 -->
<g id="node22" class="node"><title>Node22</title>
<polygon fill="white" stroke="#bfbfbf" points="1539,-179.5 1539,-209.5 1661,-209.5 1661,-179.5 1539,-179.5"/>
<text text-anchor="start" x="1547" y="-197.5" font-family="Helvetica,sans-Serif" font-size="10.00">boost/algorithm/string</text>
<text text-anchor="middle" x="1600" y="-186.5" font-family="Helvetica,sans-Serif" font-size="10.00">/join.hpp</text>
</g>
<!-- Node1&#45;&gt;Node22 -->
<g id="edge36" class="edge"><title>Node1&#45;&gt;Node22</title>
<path fill="none" stroke="midnightblue" d="M1791.05,-246.475C1757.6,-237.551 1704.22,-223.309 1662.38,-212.144"/>
<polygon fill="midnightblue" stroke="midnightblue" points="1663.12,-208.719 1652.56,-209.523 1661.32,-215.483 1663.12,-208.719"/>
</g>
<!-- Node23 -->
<g id="node23" class="node"><title>Node23</title>
<polygon fill="white" stroke="#bfbfbf" points="1679.5,-179.5 1679.5,-209.5 1794.5,-209.5 1794.5,-179.5 1679.5,-179.5"/>
<text text-anchor="start" x="1687.5" y="-197.5" font-family="Helvetica,sans-Serif" font-size="10.00">boost/range/adaptor</text>
<text text-anchor="middle" x="1737" y="-186.5" font-family="Helvetica,sans-Serif" font-size="10.00">/transformed.hpp</text>
</g>
<!-- Node1&#45;&gt;Node23 -->
<g id="edge37" class="edge"><title>Node1&#45;&gt;Node23</title>
<path fill="none" stroke="midnightblue" d="M1810.68,-246.475C1799.03,-238.417 1781.12,-226.023 1765.87,-215.474"/>
<polygon fill="midnightblue" stroke="midnightblue" points="1767.48,-212.334 1757.27,-209.523 1763.5,-218.091 1767.48,-212.334"/>
</g>
<!-- Node24 -->
<g id="node24" class="node"><title>Node24</title>
<g id="a_node24"><a xlink:href="error_8h.xhtml" target="_top" xlink:title="Exceptions for SCRAM. ">
<polygon fill="white" stroke="black" points="1161,-185 1161,-204 1209,-204 1209,-185 1161,-185"/>
<text text-anchor="middle" x="1185" y="-192" font-family="Helvetica,sans-Serif" font-size="10.00">error.h</text>
</a>
</g>
</g>
<!-- Node1&#45;&gt;Node24 -->
<g id="edge38" class="edge"><title>Node1&#45;&gt;Node24</title>
<path fill="none" stroke="midnightblue" d="M1784.05,-251.368C1668.45,-240.587 1328.6,-208.892 1219.29,-198.698"/>
<polygon fill="midnightblue" stroke="midnightblue" points="1219.43,-195.196 1209.15,-197.752 1218.78,-202.166 1219.43,-195.196"/>
</g>
<!-- Node30 -->
<g id="node30" class="node"><title>Node30</title>
<g id="a_node30"><a xlink:href="constant_8h.xhtml" target="_top" xlink:title="Constant expressions that cannot have uncertainties. ">
<polygon fill="white" stroke="black" points="1711,-123.5 1711,-142.5 1833,-142.5 1833,-123.5 1711,-123.5"/>
<text text-anchor="middle" x="1772" y="-130.5" font-family="Helvetica,sans-Serif" font-size="10.00">expression/constant.h</text>
</a>
</g>
</g>
<!-- Node1&#45;&gt;Node30 -->
<g id="edge45" class="edge"><title>Node1&#45;&gt;Node30</title>
<path fill="none" stroke="midnightblue" d="M1821.71,-246.234C1819.35,-231.733 1813.59,-202.064 1803,-179 1798.41,-168.996 1791.61,-158.816 1785.55,-150.675"/>
<polygon fill="midnightblue" stroke="midnightblue" points="1788.3,-148.504 1779.4,-142.746 1782.76,-152.793 1788.3,-148.504"/>
</g>
<!-- Node31 -->
<g id="node31" class="node"><title>Node31</title>
<g id="a_node31"><a xlink:href="numerical_8h.xhtml" target="_top" xlink:title="A collection of numerical expressions. ">
<polygon fill="white" stroke="black" points="1393,-185 1393,-204 1521,-204 1521,-185 1393,-185"/>
<text text-anchor="middle" x="1457" y="-192" font-family="Helvetica,sans-Serif" font-size="10.00">expression/numerical.h</text>
</a>
</g>
</g>
<!-- Node1&#45;&gt;Node31 -->
<g id="edge47" class="edge"><title>Node1&#45;&gt;Node31</title>
<path fill="none" stroke="midnightblue" d="M1784.05,-249.57C1727.83,-241.608 1620.73,-225.97 1530,-210 1522.91,-208.753 1515.46,-207.362 1508.12,-205.949"/>
<polygon fill="midnightblue" stroke="midnightblue" points="1508.74,-202.502 1498.25,-204.02 1507.39,-209.373 1508.74,-202.502"/>
</g>
<!-- Node33 -->
<g id="node33" class="node"><title>Node33</title>
<g id="a_node33"><a xlink:href="algorithm_8h.xhtml" target="_top" xlink:title="Helpful algorithm facilities as an extension to the STL or Boost. ">
<polygon fill="white" stroke="black" points="2058.5,-185 2058.5,-204 2147.5,-204 2147.5,-185 2058.5,-185"/>
<text text-anchor="middle" x="2103" y="-192" font-family="Helvetica,sans-Serif" font-size="10.00">ext/algorithm.h</text>
</a>
</g>
</g>
<!-- Node1&#45;&gt;Node33 -->
<g id="edge53" class="edge"><title>Node1&#45;&gt;Node33</title>
<path fill="none" stroke="midnightblue" d="M1861.74,-248.19C1907.07,-240.021 1984.3,-225.478 2050,-210 2054.4,-208.963 2058.99,-207.813 2063.55,-206.627"/>
<polygon fill="midnightblue" stroke="midnightblue" points="2064.62,-209.963 2073.38,-204.004 2062.82,-203.199 2064.62,-209.963"/>
</g>
<!-- Node35 -->
<g id="node35" class="node"><title>Node35</title>
<g id="a_node35"><a xlink:href="combination_8h.xhtml" target="_top" xlink:title="n&#45;choose&#45;k combination generation facilities from http://howardhinnant.github.io/combinations.html ">
<polygon fill="white" stroke="black" points="2225.5,-67.5 2225.5,-86.5 2328.5,-86.5 2328.5,-67.5 2225.5,-67.5"/>
<text text-anchor="middle" x="2277" y="-74.5" font-family="Helvetica,sans-Serif" font-size="10.00">ext/combination.h</text>
</a>
</g>
</g>
<!-- Node1&#45;&gt;Node35 -->
<g id="edge56" class="edge"><title>Node1&#45;&gt;Node35</title>
<path fill="none" stroke="midnightblue" d="M1861.66,-253.103C1938.28,-248.81 2106.36,-236.586 2157,-210 2208.49,-182.967 2249.01,-124.574 2266.94,-95.3693"/>
<polygon fill="midnightblue" stroke="midnightblue" points="2270.02,-97.0504 2272.15,-86.6715 2264.01,-93.4577 2270.02,-97.0504"/>
</g>
<!-- Node37 -->
<g id="node37" class="node"><title>Node37</title>
<g id="a_node37"><a xlink:href="float__compare_8h.xhtml" target="_top" xlink:title="Floating pointing comparison helper functions. ">
<polygon fill="white" stroke="black" points="1927.5,-185 1927.5,-204 2040.5,-204 2040.5,-185 1927.5,-185"/>
<text text-anchor="middle" x="1984" y="-192" font-family="Helvetica,sans-Serif" font-size="10.00">ext/float_compare.h</text>
</a>
</g>
</g>
<!-- Node1&#45;&gt;Node37 -->
<g id="edge60" class="edge"><title>Node1&#45;&gt;Node37</title>
<path fill="none" stroke="midnightblue" d="M1846.07,-246.475C1873.68,-236.269 1920.12,-219.108 1951.4,-207.549"/>
<polygon fill="midnightblue" stroke="midnightblue" points="1952.81,-210.759 1960.98,-204.009 1950.38,-204.193 1952.81,-210.759"/>
</g>
<!-- Node3 -->
<g id="node3" class="node"><title>Node3</title>
<polygon fill="white" stroke="#bfbfbf" points="375.5,-67.5 375.5,-86.5 432.5,-86.5 432.5,-67.5 375.5,-67.5"/>
<text text-anchor="middle" x="404" y="-74.5" font-family="Helvetica,sans-Serif" font-size="10.00">memory</text>
</g>
<!-- Node2&#45;&gt;Node3 -->
<g id="edge2" class="edge"><title>Node2&#45;&gt;Node3</title>
<path fill="none" stroke="midnightblue" d="M575.518,-184.903C554.806,-175.501 521.333,-159.554 494,-143 468.449,-127.525 440.849,-106.964 423.046,-93.1465"/>
<polygon fill="midnightblue" stroke="midnightblue" points="424.721,-90.0127 414.692,-86.5984 420.403,-95.5221 424.721,-90.0127"/>
</g>
<!-- Node4 -->
<g id="node4" class="node"><title>Node4</title>
<polygon fill="white" stroke="#bfbfbf" points="450.5,-67.5 450.5,-86.5 505.5,-86.5 505.5,-67.5 450.5,-67.5"/>
<text text-anchor="middle" x="478" y="-74.5" font-family="Helvetica,sans-Serif" font-size="10.00">optional</text>
</g>
<!-- Node2&#45;&gt;Node4 -->
<g id="edge3" class="edge"><title>Node2&#45;&gt;Node4</title>
<path fill="none" stroke="midnightblue" d="M574.431,-184.863C556.192,-176.377 529.764,-161.952 512,-143 499.369,-129.524 490.137,-110.455 484.507,-96.4556"/>
<polygon fill="midnightblue" stroke="midnightblue" points="487.712,-95.0353 480.907,-86.9147 481.163,-97.5064 487.712,-95.0353"/>
</g>
<!-- Node5 -->
<g id="node5" class="node"><title>Node5</title>
<polygon fill="white" stroke="#bfbfbf" points="564,-6 564,-25 608,-25 608,-6 564,-6"/>
<text text-anchor="middle" x="586" y="-13" font-family="Helvetica,sans-Serif" font-size="10.00">string</text>
</g>
<!-- Node2&#45;&gt;Node5 -->
<g id="edge4" class="edge"><title>Node2&#45;&gt;Node5</title>
<path fill="none" stroke="midnightblue" d="M558.904,-188.089C480.88,-174.935 308.049,-137.101 366,-67 420.205,-1.43053 472.912,-56.7356 554,-31 555.875,-30.405 557.785,-29.7297 559.692,-29.0039"/>
<polygon fill="midnightblue" stroke="midnightblue" points="561.154,-32.1864 569.022,-25.0911 558.446,-25.7312 561.154,-32.1864"/>
</g>
<!-- Node6 -->
<g id="node6" class="node"><title>Node6</title>
<polygon fill="white" stroke="#bfbfbf" points="521,-123.5 521,-142.5 589,-142.5 589,-123.5 521,-123.5"/>
<text text-anchor="middle" x="555" y="-130.5" font-family="Helvetica,sans-Serif" font-size="10.00">type_traits</text>
</g>
<!-- Node2&#45;&gt;Node6 -->
<g id="edge5" class="edge"><title>Node2&#45;&gt;Node6</title>
<path fill="none" stroke="midnightblue" d="M589.269,-184.975C583.328,-176.138 573.883,-162.089 566.412,-150.975"/>
<polygon fill="midnightblue" stroke="midnightblue" points="569.204,-148.855 560.72,-142.509 563.395,-152.761 569.204,-148.855"/>
</g>
<!-- Node2&#45;&gt;Node7 -->
<g id="edge6" class="edge"><title>Node2&#45;&gt;Node7</title>
<path fill="none" stroke="midnightblue" d="M622.098,-184.958C668.151,-170.665 764.796,-141.639 848,-123 940.832,-102.204 977.554,-136.162 1059,-87 1079.77,-74.464 1095.41,-50.7056 1104.38,-34.2555"/>
<polygon fill="midnightblue" stroke="midnightblue" points="1107.61,-35.6152 1109.08,-25.1231 1101.39,-32.4073 1107.61,-35.6152"/>
</g>
<!-- Node8 -->
<g id="node8" class="node"><title>Node8</title>
<polygon fill="white" stroke="#bfbfbf" points="750.5,-6 750.5,-25 797.5,-25 797.5,-6 750.5,-6"/>
<text text-anchor="middle" x="774" y="-13" font-family="Helvetica,sans-Serif" font-size="10.00">vector</text>
</g>
<!-- Node2&#45;&gt;Node8 -->
<g id="edge7" class="edge"><title>Node2&#45;&gt;Node8</title>
<path fill="none" stroke="midnightblue" d="M611.545,-184.921C654.289,-162.593 765.714,-103.284 775,-87 783.891,-71.4088 782.269,-50.5502 779.261,-35.5726"/>
<polygon fill="midnightblue" stroke="midnightblue" points="782.57,-34.3622 776.84,-25.4502 775.762,-35.9899 782.57,-34.3622"/>
</g>
<!-- Node9 -->
<g id="node9" class="node"><title>Node9</title>
<g id="a_node9"><a xlink:href="element_8h.xhtml" target="_top" xlink:title="Helper classes, structs, and properties common to all other classes. ">
<polygon fill="white" stroke="black" points="253.5,-67.5 253.5,-86.5 318.5,-86.5 318.5,-67.5 253.5,-67.5"/>
<text text-anchor="middle" x="286" y="-74.5" font-family="Helvetica,sans-Serif" font-size="10.00">element.h</text>
</a>
</g>
</g>
<!-- Node2&#45;&gt;Node9 -->
<g id="edge8" class="edge"><title>Node2&#45;&gt;Node9</title>
<path fill="none" stroke="midnightblue" d="M558.639,-189.824C495.79,-182.93 370.009,-166.596 333,-143 315.255,-131.686 302.081,-111.078 294.266,-96.0921"/>
<polygon fill="midnightblue" stroke="midnightblue" points="297.259,-94.2444 289.722,-86.7986 290.971,-97.3196 297.259,-94.2444"/>
</g>
<!-- Node15 -->
<g id="node15" class="node"><title>Node15</title>
<g id="a_node15"><a xlink:href="event_8h.xhtml" target="_top" xlink:title="Contains event classes for fault trees. ">
<polygon fill="white" stroke="black" points="607.5,-123.5 607.5,-142.5 660.5,-142.5 660.5,-123.5 607.5,-123.5"/>
<text text-anchor="middle" x="634" y="-130.5" font-family="Helvetica,sans-Serif" font-size="10.00">event.h</text>
</a>
</g>
</g>
<!-- Node2&#45;&gt;Node15 -->
<g id="edge16" class="edge"><title>Node2&#45;&gt;Node15</title>
<path fill="none" stroke="midnightblue" d="M600.588,-184.975C606.38,-176.138 615.589,-162.089 622.874,-150.975"/>
<polygon fill="midnightblue" stroke="midnightblue" points="625.868,-152.791 628.423,-142.509 620.013,-148.954 625.868,-152.791"/>
</g>
<!-- Node18 -->
<g id="node18" class="node"><title>Node18</title>
<g id="a_node18"><a xlink:href="expression_8h.xhtml" target="_top" xlink:title="Provides the base class for all expressions and units for expression values. ">
<polygon fill="white" stroke="black" points="943.5,-67.5 943.5,-86.5 1020.5,-86.5 1020.5,-67.5 943.5,-67.5"/>
<text text-anchor="middle" x="982" y="-74.5" font-family="Helvetica,sans-Serif" font-size="10.00">expression.h</text>
</a>
</g>
</g>
<!-- Node2&#45;&gt;Node18 -->
<g id="edge33" class="edge"><title>Node2&#45;&gt;Node18</title>
<path fill="none" stroke="midnightblue" d="M618.333,-184.983C645.142,-175.134 690.407,-158.307 729,-143 750.483,-134.479 754.959,-129.95 777,-123 829.49,-106.45 891.406,-93.7637 933.351,-86.1437"/>
<polygon fill="midnightblue" stroke="midnightblue" points="934.075,-89.5697 943.302,-84.3628 932.842,-82.6791 934.075,-89.5697"/>
</g>
<!-- Node9&#45;&gt;Node5 -->
<g id="edge10" class="edge"><title>Node9&#45;&gt;Node5</title>
<path fill="none" stroke="midnightblue" d="M318.594,-69.6374C323.421,-68.7305 328.337,-67.8261 333,-67 430.991,-49.6402 458.738,-59.7872 554,-31 555.927,-30.4178 557.888,-29.7447 559.844,-29.0139"/>
<polygon fill="midnightblue" stroke="midnightblue" points="561.503,-32.1143 569.382,-25.0318 558.806,-25.6547 561.503,-32.1143"/>
</g>
<!-- Node9&#45;&gt;Node8 -->
<g id="edge11" class="edge"><title>Node9&#45;&gt;Node8</title>
<path fill="none" stroke="midnightblue" d="M318.777,-72.0036C407.285,-61.2122 650.474,-31.5611 740.182,-20.6233"/>
<polygon fill="midnightblue" stroke="midnightblue" points="740.838,-24.0694 750.34,-19.3847 739.99,-17.1208 740.838,-24.0694"/>
</g>
<!-- Node10 -->
<g id="node10" class="node"><title>Node10</title>
<polygon fill="white" stroke="#bfbfbf" points="496.5,-6 496.5,-25 545.5,-25 545.5,-6 496.5,-6"/>
<text text-anchor="middle" x="521" y="-13" font-family="Helvetica,sans-Serif" font-size="10.00">cstdint</text>
</g>
<!-- Node9&#45;&gt;Node10 -->
<g id="edge9" class="edge"><title>Node9&#45;&gt;Node10</title>
<path fill="none" stroke="midnightblue" d="M318.512,-69.4763C367.015,-59.6155 455.941,-41.0065 487,-31 488.924,-30.3801 490.889,-29.6932 492.857,-28.9653"/>
<polygon fill="midnightblue" stroke="midnightblue" points="494.539,-32.062 502.528,-25.1024 491.943,-25.5614 494.539,-32.062"/>
</g>
<!-- Node11 -->
<g id="node11" class="node"><title>Node11</title>
<polygon fill="white" stroke="#bfbfbf" points="338,-0.5 338,-30.5 478,-30.5 478,-0.5 338,-0.5"/>
<text text-anchor="start" x="346" y="-18.5" font-family="Helvetica,sans-Serif" font-size="10.00">boost/multi_index/hashed</text>
<text text-anchor="middle" x="408" y="-7.5" font-family="Helvetica,sans-Serif" font-size="10.00">_index.hpp</text>
</g>
<!-- Node9&#45;&gt;Node11 -->
<g id="edge12" class="edge"><title>Node9&#45;&gt;Node11</title>
<path fill="none" stroke="midnightblue" d="M303.48,-67.4751C320.775,-59.0401 347.81,-45.8551 370.051,-35.008"/>
<polygon fill="midnightblue" stroke="midnightblue" points="371.793,-38.0524 379.247,-30.523 368.725,-31.7607 371.793,-38.0524"/>
</g>
<!-- Node12 -->
<g id="node12" class="node"><title>Node12</title>
<polygon fill="white" stroke="#bfbfbf" points="0,-0.5 0,-30.5 130,-30.5 130,-0.5 0,-0.5"/>
<text text-anchor="start" x="8" y="-18.5" font-family="Helvetica,sans-Serif" font-size="10.00">boost/multi_index/mem</text>
<text text-anchor="middle" x="65" y="-7.5" font-family="Helvetica,sans-Serif" font-size="10.00">_fun.hpp</text>
</g>
<!-- Node9&#45;&gt;Node12 -->
<g id="edge13" class="edge"><title>Node9&#45;&gt;Node12</title>
<path fill="none" stroke="midnightblue" d="M254.336,-67.4751C221.188,-58.5506 168.29,-44.3087 126.822,-33.1444"/>
<polygon fill="midnightblue" stroke="midnightblue" points="127.651,-29.7431 117.085,-30.523 125.832,-36.5024 127.651,-29.7431"/>
</g>
<!-- Node13 -->
<g id="node13" class="node"><title>Node13</title>
<polygon fill="white" stroke="#bfbfbf" points="148,-6 148,-25 320,-25 320,-6 148,-6"/>
<text text-anchor="middle" x="234" y="-13" font-family="Helvetica,sans-Serif" font-size="10.00">boost/multi_index_container.hpp</text>
</g>
<!-- Node9&#45;&gt;Node13 -->
<g id="edge14" class="edge"><title>Node9&#45;&gt;Node13</title>
<path fill="none" stroke="midnightblue" d="M278.55,-67.4751C270.672,-58.4617 258.055,-44.0246 248.256,-32.8118"/>
<polygon fill="midnightblue" stroke="midnightblue" points="250.653,-30.2356 241.437,-25.0091 245.382,-34.842 250.653,-30.2356"/>
</g>
<!-- Node14 -->
<g id="node14" class="node"><title>Node14</title>
<polygon fill="white" stroke="#bfbfbf" points="816,-6 816,-25 944,-25 944,-6 816,-6"/>
<text text-anchor="middle" x="880" y="-13" font-family="Helvetica,sans-Serif" font-size="10.00">boost/noncopyable.hpp</text>
</g>
<!-- Node9&#45;&gt;Node14 -->
<g id="edge15" class="edge"><title>Node9&#45;&gt;Node14</title>
<path fill="none" stroke="midnightblue" d="M318.672,-72.0972C333.16,-70.4253 350.42,-68.5134 366,-67 561.29,-48.0302 611.645,-57.9065 806,-31 814.021,-29.8896 822.486,-28.4693 830.711,-26.9538"/>
<polygon fill="midnightblue" stroke="midnightblue" points="831.413,-30.3831 840.581,-25.0722 830.102,-23.5069 831.413,-30.3831"/>
</g>
<!-- Node15&#45;&gt;Node3 -->
<g id="edge19" class="edge"><title>Node15&#45;&gt;Node3</title>
<path fill="none" stroke="midnightblue" d="M607.278,-125.258C604.152,-124.487 601.007,-123.721 598,-123 531.51,-107.067 512.367,-103.745 442.831,-87.4086"/>
<polygon fill="midnightblue" stroke="midnightblue" points="443.211,-83.9022 432.674,-85.0144 441.604,-90.7155 443.211,-83.9022"/>
</g>
<!-- Node15&#45;&gt;Node4 -->
<g id="edge20" class="edge"><title>Node15&#45;&gt;Node4</title>
<path fill="none" stroke="midnightblue" d="M609.281,-123.444C583.152,-114.399 541.741,-100.064 512.424,-89.9158"/>
<polygon fill="midnightblue" stroke="midnightblue" points="513.198,-86.4801 502.603,-86.5164 510.908,-93.0951 513.198,-86.4801"/>
</g>
<!-- Node15&#45;&gt;Node5 -->
<g id="edge21" class="edge"><title>Node15&#45;&gt;Node5</title>
<path fill="none" stroke="midnightblue" d="M621.768,-123.19C611.561,-115.067 597.648,-102.019 591,-87 583.789,-70.7097 583.149,-50.2211 583.946,-35.5359"/>
<polygon fill="midnightblue" stroke="midnightblue" points="587.465,-35.4469 584.795,-25.1939 580.489,-34.8739 587.465,-35.4469"/>
</g>
<!-- Node15&#45;&gt;Node7 -->
<g id="edge22" class="edge"><title>Node15&#45;&gt;Node7</title>
<path fill="none" stroke="midnightblue" d="M660.538,-129.87C743.618,-123.077 995.193,-101.527 1029,-87 1057.3,-74.8388 1083.38,-49.8887 1098.75,-33.1732"/>
<polygon fill="midnightblue" stroke="midnightblue" points="1101.72,-35.0912 1105.76,-25.294 1096.49,-30.4378 1101.72,-35.0912"/>
</g>
<!-- Node15&#45;&gt;Node8 -->
<g id="edge24" class="edge"><title>Node15&#45;&gt;Node8</title>
<path fill="none" stroke="midnightblue" d="M660.562,-129.189C688.067,-124.863 730.394,-114.003 755,-87 767.917,-72.8255 772.202,-50.7842 773.547,-35.1235"/>
<polygon fill="midnightblue" stroke="midnightblue" points="777.047,-35.225 774.088,-25.0516 770.057,-34.8495 777.047,-35.225"/>
</g>
<!-- Node15&#45;&gt;Node9 -->
<g id="edge25" class="edge"><title>Node15&#45;&gt;Node9</title>
<path fill="none" stroke="midnightblue" d="M607.332,-125.012C604.196,-124.286 601.034,-123.596 598,-123 502.51,-104.228 389.139,-89.8224 328.802,-82.7747"/>
<polygon fill="midnightblue" stroke="midnightblue" points="328.859,-79.258 318.523,-81.5855 328.054,-86.2116 328.859,-79.258"/>
</g>
<!-- Node15&#45;&gt;Node10 -->
<g id="edge17" class="edge"><title>Node15&#45;&gt;Node10</title>
<path fill="none" stroke="midnightblue" d="M623.245,-123.46C612.443,-114.709 595.507,-100.508 582,-87 564.562,-69.5605 546.271,-47.9047 534.321,-33.2303"/>
<polygon fill="midnightblue" stroke="midnightblue" points="536.765,-30.6848 527.764,-25.0957 531.315,-35.0778 536.765,-30.6848"/>
</g>
<!-- Node16 -->
<g id="node16" class="node"><title>Node16</title>
<polygon fill="white" stroke="#bfbfbf" points="600.5,-67.5 600.5,-86.5 677.5,-86.5 677.5,-67.5 600.5,-67.5"/>
<text text-anchor="middle" x="639" y="-74.5" font-family="Helvetica,sans-Serif" font-size="10.00">initializer_list</text>
</g>
<!-- Node15&#45;&gt;Node16 -->
<g id="edge18" class="edge"><title>Node15&#45;&gt;Node16</title>
<path fill="none" stroke="midnightblue" d="M634.826,-123.083C635.481,-116.006 636.42,-105.861 637.242,-96.9865"/>
<polygon fill="midnightblue" stroke="midnightblue" points="640.753,-97.0312 638.19,-86.7511 633.783,-96.3858 640.753,-97.0312"/>
</g>
<!-- Node17 -->
<g id="node17" class="node"><title>Node17</title>
<polygon fill="white" stroke="#bfbfbf" points="696,-67.5 696,-86.5 746,-86.5 746,-67.5 696,-67.5"/>
<text text-anchor="middle" x="721" y="-74.5" font-family="Helvetica,sans-Serif" font-size="10.00">variant</text>
</g>
<!-- Node15&#45;&gt;Node17 -->
<g id="edge23" class="edge"><title>Node15&#45;&gt;Node17</title>
<path fill="none" stroke="midnightblue" d="M647.978,-123.324C661.55,-114.9 682.38,-101.971 698.325,-92.0741"/>
<polygon fill="midnightblue" stroke="midnightblue" points="700.406,-94.9019 707.057,-86.6545 696.714,-88.9544 700.406,-94.9019"/>
</g>
<!-- Node15&#45;&gt;Node18 -->
<g id="edge26" class="edge"><title>Node15&#45;&gt;Node18</title>
<path fill="none" stroke="midnightblue" d="M660.729,-127.852C719.1,-118.795 858.691,-97.1341 933.195,-85.5732"/>
<polygon fill="midnightblue" stroke="midnightblue" points="933.916,-89.0033 943.261,-84.0113 932.842,-82.0861 933.916,-89.0033"/>
</g>
<!-- Node18&#45;&gt;Node5 -->
<g id="edge28" class="edge"><title>Node18&#45;&gt;Node5</title>
<path fill="none" stroke="midnightblue" d="M943.309,-70.1866C865.376,-58.4769 690.78,-32.2435 618.397,-21.3677"/>
<polygon fill="midnightblue" stroke="midnightblue" points="618.494,-17.8431 608.085,-19.8183 617.454,-24.7654 618.494,-17.8431"/>
</g>
<!-- Node18&#45;&gt;Node7 -->
<g id="edge29" class="edge"><title>Node18&#45;&gt;Node7</title>
<path fill="none" stroke="midnightblue" d="M1001.82,-67.3854C1022.25,-58.4584 1054.97,-44.0153 1083,-31 1084.15,-30.4656 1085.33,-29.9163 1086.51,-29.3586"/>
<polygon fill="midnightblue" stroke="midnightblue" points="1088.07,-32.4901 1095.59,-25.026 1085.06,-26.1719 1088.07,-32.4901"/>
</g>
<!-- Node18&#45;&gt;Node8 -->
<g id="edge30" class="edge"><title>Node18&#45;&gt;Node8</title>
<path fill="none" stroke="midnightblue" d="M943.234,-67.9322C907.415,-60.0325 852.955,-46.8871 807,-31 805.137,-30.3559 803.233,-29.6508 801.326,-28.9095"/>
<polygon fill="midnightblue" stroke="midnightblue" points="802.522,-25.6167 791.945,-25.0151 799.839,-32.0818 802.522,-25.6167"/>
</g>
<!-- Node18&#45;&gt;Node14 -->
<g id="edge32" class="edge"><title>Node18&#45;&gt;Node14</title>
<path fill="none" stroke="midnightblue" d="M967.386,-67.4751C950.647,-57.7106 922.996,-41.5807 903.281,-30.0808"/>
<polygon fill="midnightblue" stroke="midnightblue" points="904.988,-27.0246 894.587,-25.0091 901.461,-33.0711 904.988,-27.0246"/>
</g>
<!-- Node19 -->
<g id="node19" class="node"><title>Node19</title>
<polygon fill="white" stroke="#bfbfbf" points="2166,-6 2166,-25 2228,-25 2228,-6 2166,-6"/>
<text text-anchor="middle" x="2197" y="-13" font-family="Helvetica,sans-Serif" font-size="10.00">algorithm</text>
</g>
<!-- Node18&#45;&gt;Node19 -->
<g id="edge27" class="edge"><title>Node18&#45;&gt;Node19</title>
<path fill="none" stroke="midnightblue" d="M1020.71,-74.1044C1202.27,-65.2132 1968.49,-27.6902 2155.64,-18.5255"/>
<polygon fill="midnightblue" stroke="midnightblue" points="2156.06,-22.0093 2165.87,-18.0243 2155.71,-15.0177 2156.06,-22.0093"/>
</g>
<!-- Node20 -->
<g id="node20" class="node"><title>Node20</title>
<polygon fill="white" stroke="#bfbfbf" points="962,-0.5 962,-30.5 1074,-30.5 1074,-0.5 962,-0.5"/>
<text text-anchor="start" x="970" y="-18.5" font-family="Helvetica,sans-Serif" font-size="10.00">boost/icl/continuous</text>
<text text-anchor="middle" x="1018" y="-7.5" font-family="Helvetica,sans-Serif" font-size="10.00">_interval.hpp</text>
</g>
<!-- Node18&#45;&gt;Node20 -->
<g id="edge31" class="edge"><title>Node18&#45;&gt;Node20</title>
<path fill="none" stroke="midnightblue" d="M987.158,-67.4751C991.624,-60.0945 998.289,-49.0772 1004.28,-39.1714"/>
<polygon fill="midnightblue" stroke="midnightblue" points="1007.33,-40.8907 1009.52,-30.523 1001.34,-37.267 1007.33,-40.8907"/>
</g>
<!-- Node24&#45;&gt;Node5 -->
<g id="edge40" class="edge"><title>Node24&#45;&gt;Node5</title>
<path fill="none" stroke="midnightblue" d="M1160.93,-194.167C1103.92,-194.859 957.266,-191.395 848,-143 799.193,-121.383 802.155,-92.0161 755,-67 710.505,-43.3949 653.42,-29.2753 618.292,-22.1969"/>
<polygon fill="midnightblue" stroke="midnightblue" points="618.617,-18.6948 608.133,-20.2235 617.282,-25.5663 618.617,-18.6948"/>
</g>
<!-- Node25 -->
<g id="node25" class="node"><title>Node25</title>
<polygon fill="white" stroke="#bfbfbf" points="857.5,-123.5 857.5,-142.5 920.5,-142.5 920.5,-123.5 857.5,-123.5"/>
<text text-anchor="middle" x="889" y="-130.5" font-family="Helvetica,sans-Serif" font-size="10.00">exception</text>
</g>
<!-- Node24&#45;&gt;Node25 -->
<g id="edge39" class="edge"><title>Node24&#45;&gt;Node25</title>
<path fill="none" stroke="midnightblue" d="M1160.71,-188.861C1116.92,-180.464 1021.61,-162.018 930.689,-143.11"/>
<polygon fill="midnightblue" stroke="midnightblue" points="931.274,-139.657 920.77,-141.042 929.845,-146.509 931.274,-139.657"/>
</g>
<!-- Node26 -->
<g id="node26" class="node"><title>Node26</title>
<polygon fill="white" stroke="#bfbfbf" points="939,-123.5 939,-142.5 1085,-142.5 1085,-123.5 939,-123.5"/>
<text text-anchor="middle" x="1012" y="-130.5" font-family="Helvetica,sans-Serif" font-size="10.00">boost/current_function.hpp</text>
</g>
<!-- Node24&#45;&gt;Node26 -->
<g id="edge41" class="edge"><title>Node24&#45;&gt;Node26</title>
<path fill="none" stroke="midnightblue" d="M1160.95,-185.227C1131.2,-174.997 1080.36,-157.512 1046.47,-145.857"/>
<polygon fill="midnightblue" stroke="midnightblue" points="1047.57,-142.531 1036.97,-142.588 1045.29,-149.15 1047.57,-142.531"/>
</g>
<!-- Node27 -->
<g id="node27" class="node"><title>Node27</title>
<polygon fill="white" stroke="#bfbfbf" points="1103,-123.5 1103,-142.5 1267,-142.5 1267,-123.5 1103,-123.5"/>
<text text-anchor="middle" x="1185" y="-130.5" font-family="Helvetica,sans-Serif" font-size="10.00">boost/exception/exception.hpp</text>
</g>
<!-- Node24&#45;&gt;Node27 -->
<g id="edge42" class="edge"><title>Node24&#45;&gt;Node27</title>
<path fill="none" stroke="midnightblue" d="M1185,-184.975C1185,-176.58 1185,-163.481 1185,-152.663"/>
<polygon fill="midnightblue" stroke="midnightblue" points="1188.5,-152.509 1185,-142.509 1181.5,-152.509 1188.5,-152.509"/>
</g>
<!-- Node28 -->
<g id="node28" class="node"><title>Node28</title>
<polygon fill="white" stroke="#bfbfbf" points="1285,-123.5 1285,-142.5 1419,-142.5 1419,-123.5 1285,-123.5"/>
<text text-anchor="middle" x="1352" y="-130.5" font-family="Helvetica,sans-Serif" font-size="10.00">boost/exception/info.hpp</text>
</g>
<!-- Node24&#45;&gt;Node28 -->
<g id="edge43" class="edge"><title>Node24&#45;&gt;Node28</title>
<path fill="none" stroke="midnightblue" d="M1208.93,-184.975C1237.7,-174.725 1286.16,-157.459 1318.6,-145.899"/>
<polygon fill="midnightblue" stroke="midnightblue" points="1319.87,-149.162 1328.12,-142.509 1317.52,-142.568 1319.87,-149.162"/>
</g>
<!-- Node29 -->
<g id="node29" class="node"><title>Node29</title>
<g id="a_node29"><a xlink:href="source__info_8h.xhtml" target="_top" xlink:title="Helper facilities to get source file information. ">
<polygon fill="white" stroke="black" points="1437,-123.5 1437,-142.5 1535,-142.5 1535,-123.5 1437,-123.5"/>
<text text-anchor="middle" x="1486" y="-130.5" font-family="Helvetica,sans-Serif" font-size="10.00">ext/source_info.h</text>
</a>
</g>
</g>
<!-- Node24&#45;&gt;Node29 -->
<g id="edge44" class="edge"><title>Node24&#45;&gt;Node29</title>
<path fill="none" stroke="midnightblue" d="M1209.12,-188.731C1257.39,-179.19 1366.86,-157.551 1432.77,-144.521"/>
<polygon fill="midnightblue" stroke="midnightblue" points="1433.83,-147.88 1442.96,-142.507 1432.47,-141.013 1433.83,-147.88"/>
</g>
<!-- Node30&#45;&gt;Node18 -->
<g id="edge46" class="edge"><title>Node30&#45;&gt;Node18</title>
<path fill="none" stroke="midnightblue" d="M1710.84,-123.996C1707.51,-123.639 1704.22,-123.304 1701,-123 1449.29,-99.1944 1146.78,-84.9255 1030.65,-79.9758"/>
<polygon fill="midnightblue" stroke="midnightblue" points="1030.79,-76.4787 1020.65,-79.5531 1030.49,-83.4724 1030.79,-76.4787"/>
</g>
<!-- Node31&#45;&gt;Node8 -->
<g id="edge50" class="edge"><title>Node31&#45;&gt;Node8</title>
<path fill="none" stroke="midnightblue" d="M1482.64,-184.971C1516.12,-172.564 1567.8,-148.25 1544,-123 1497.43,-73.5965 999.998,-102.94 934,-87 883.147,-74.7175 828.247,-47.0193 797.798,-30.2292"/>
<polygon fill="midnightblue" stroke="midnightblue" points="799.242,-27.0267 788.807,-25.1944 795.822,-33.1342 799.242,-27.0267"/>
</g>
<!-- Node31&#45;&gt;Node18 -->
<g id="edge52" class="edge"><title>Node31&#45;&gt;Node18</title>
<path fill="none" stroke="midnightblue" d="M1498.78,-184.982C1543.57,-174.077 1604.76,-152.944 1577,-123 1540.19,-83.2988 1166.72,-78.4301 1030.98,-77.9795"/>
<polygon fill="midnightblue" stroke="midnightblue" points="1030.87,-74.4794 1020.86,-77.9528 1030.85,-81.4793 1030.87,-74.4794"/>
</g>
<!-- Node31&#45;&gt;Node21 -->
<g id="edge48" class="edge"><title>Node31&#45;&gt;Node21</title>
<path fill="none" stroke="midnightblue" d="M1497.06,-184.935C1507.73,-182.82 1519.28,-180.681 1530,-179 1667.9,-157.385 1703.43,-159.777 1842,-143 1854.21,-141.522 1867.6,-139.841 1879.42,-138.335"/>
<polygon fill="midnightblue" stroke="midnightblue" points="1879.87,-141.807 1889.34,-137.066 1878.98,-134.863 1879.87,-141.807"/>
</g>
<!-- Node31&#45;&gt;Node30 -->
<g id="edge51" class="edge"><title>Node31&#45;&gt;Node30</title>
<path fill="none" stroke="midnightblue" d="M1499.44,-184.978C1509.46,-182.993 1520.1,-180.903 1530,-179 1593.27,-166.834 1665.96,-153.389 1715.02,-144.392"/>
<polygon fill="midnightblue" stroke="midnightblue" points="1715.92,-147.786 1725.12,-142.541 1714.66,-140.901 1715.92,-147.786"/>
</g>
<!-- Node32 -->
<g id="node32" class="node"><title>Node32</title>
<polygon fill="white" stroke="#bfbfbf" points="1629.5,-123.5 1629.5,-142.5 1692.5,-142.5 1692.5,-123.5 1629.5,-123.5"/>
<text text-anchor="middle" x="1661" y="-130.5" font-family="Helvetica,sans-Serif" font-size="10.00">functional</text>
</g>
<!-- Node31&#45;&gt;Node32 -->
<g id="edge49" class="edge"><title>Node31&#45;&gt;Node32</title>
<path fill="none" stroke="midnightblue" d="M1486.23,-184.975C1521.9,-174.57 1582.36,-156.937 1621.98,-145.38"/>
<polygon fill="midnightblue" stroke="midnightblue" points="1623.21,-148.669 1631.83,-142.509 1621.25,-141.949 1623.21,-148.669"/>
</g>
<!-- Node33&#45;&gt;Node19 -->
<g id="edge54" class="edge"><title>Node33&#45;&gt;Node19</title>
<path fill="none" stroke="midnightblue" d="M2124.46,-184.933C2141.83,-176.821 2165.42,-162.904 2178,-143 2199.08,-109.64 2200.05,-61.64 2198.67,-35.3994"/>
<polygon fill="midnightblue" stroke="midnightblue" points="2202.15,-35.0276 2197.96,-25.2974 2195.17,-35.518 2202.15,-35.0276"/>
</g>
<!-- Node34 -->
<g id="node34" class="node"><title>Node34</title>
<polygon fill="white" stroke="#bfbfbf" points="2025,-123.5 2025,-142.5 2169,-142.5 2169,-123.5 2025,-123.5"/>
<text text-anchor="middle" x="2097" y="-130.5" font-family="Helvetica,sans-Serif" font-size="10.00">boost/range/algorithm.hpp</text>
</g>
<!-- Node33&#45;&gt;Node34 -->
<g id="edge55" class="edge"><title>Node33&#45;&gt;Node34</title>
<path fill="none" stroke="midnightblue" d="M2102.14,-184.975C2101.29,-176.58 2099.97,-163.481 2098.88,-152.663"/>
<polygon fill="midnightblue" stroke="midnightblue" points="2102.34,-152.107 2097.86,-142.509 2095.38,-152.81 2102.34,-152.107"/>
</g>
<!-- Node35&#45;&gt;Node7 -->
<g id="edge59" class="edge"><title>Node35&#45;&gt;Node7</title>
<path fill="none" stroke="midnightblue" d="M2225.48,-73.3666C2025.49,-63.1435 1303.75,-26.2506 1144.32,-18.1008"/>
<polygon fill="midnightblue" stroke="midnightblue" points="1144.4,-14.6004 1134.23,-17.5852 1144.04,-21.5913 1144.4,-14.6004"/>
</g>
<!-- Node35&#45;&gt;Node19 -->
<g id="edge57" class="edge"><title>Node35&#45;&gt;Node19</title>
<path fill="none" stroke="midnightblue" d="M2265.54,-67.4751C2252.83,-58.0199 2232.09,-42.5961 2216.75,-31.1871"/>
<polygon fill="midnightblue" stroke="midnightblue" points="2218.55,-28.1686 2208.44,-25.0091 2214.38,-33.7854 2218.55,-28.1686"/>
</g>
<!-- Node36 -->
<g id="node36" class="node"><title>Node36</title>
<polygon fill="white" stroke="#bfbfbf" points="2251,-6 2251,-25 2303,-25 2303,-6 2251,-6"/>
<text text-anchor="middle" x="2277" y="-13" font-family="Helvetica,sans-Serif" font-size="10.00">iterator</text>
</g>
<!-- Node35&#45;&gt;Node36 -->
<g id="edge58" class="edge"><title>Node35&#45;&gt;Node36</title>
<path fill="none" stroke="midnightblue" d="M2277,-67.4751C2277,-59.0803 2277,-45.9806 2277,-35.1631"/>
<polygon fill="midnightblue" stroke="midnightblue" points="2280.5,-35.0091 2277,-25.0091 2273.5,-35.0091 2280.5,-35.0091"/>
</g>
<!-- Node37&#45;&gt;Node21 -->
<g id="edge62" class="edge"><title>Node37&#45;&gt;Node21</title>
<path fill="none" stroke="midnightblue" d="M1973.83,-184.975C1962.65,-175.608 1944.48,-160.384 1930.91,-149.008"/>
<polygon fill="midnightblue" stroke="midnightblue" points="1933.07,-146.25 1923.15,-142.509 1928.57,-151.615 1933.07,-146.25"/>
</g>
<!-- Node38 -->
<g id="node38" class="node"><title>Node38</title>
<polygon fill="white" stroke="#bfbfbf" points="1955,-123.5 1955,-142.5 2007,-142.5 2007,-123.5 1955,-123.5"/>
<text text-anchor="middle" x="1981" y="-130.5" font-family="Helvetica,sans-Serif" font-size="10.00">cassert</text>
</g>
<!-- Node37&#45;&gt;Node38 -->
<g id="edge61" class="edge"><title>Node37&#45;&gt;Node38</title>
<path fill="none" stroke="midnightblue" d="M1983.57,-184.975C1983.15,-176.58 1982.49,-163.481 1981.94,-152.663"/>
<polygon fill="midnightblue" stroke="midnightblue" points="1985.43,-152.32 1981.43,-142.509 1978.44,-152.673 1985.43,-152.32"/>
</g>
</g>
</svg>
        <g id="navigator" transform="translate(0 0)" fill="#404254">
                <rect fill="#f2f5e9" fill-opacity="0.5" stroke="#606060" stroke-width=".5" x="0" y="0" width="60" height="60"/>
                <use id="zoomplus" xlink:href="#zoomPlus" x="17" y="9" onmousedown="handleZoom(evt,'in')"/>
                <use id="zoomminus" xlink:href="#zoomMin" x="42" y="9" onmousedown="handleZoom(evt,'out')"/>
                <use id="reset" xlink:href="#resetDef" x="30" y="36" onmousedown="handleReset()"/>
                <g id="arrowUp" xlink:href="#dirArrow" transform="translate(30 24)" onmousedown="handlePan(0,-1)">
                  <use xlink:href="#rim" fill="#404040">
                        <set attributeName="fill" to="#808080" begin="arrowUp.mouseover" end="arrowUp.mouseout"/>
                  </use>
                  <path fill="none" stroke="white" stroke-width="1.5" d="M0,-3.0v7 M-2.5,-0.5L0,-3.0L2.5,-0.5"/>
                </g>
                <g id="arrowRight" xlink:href="#dirArrow" transform="rotate(90) translate(36 -43)" onmousedown="handlePan(1,0)">
                  <use xlink:href="#rim" fill="#404040">
                        <set attributeName="fill" to="#808080" begin="arrowRight.mouseover" end="arrowRight.mouseout"/>
                  </use>
                  <path fill="none" stroke="white" stroke-width="1.5" d="M0,-3.0v7 M-2.5,-0.5L0,-3.0L2.5,-0.5"/>
                </g>
                <g id="arrowDown" xlink:href="#dirArrow" transform="rotate(180) translate(-30 -48)" onmousedown="handlePan(0,1)">
                  <use xlink:href="#rim" fill="#404040">
                        <set attributeName="fill" to="#808080" begin="arrowDown.mouseover" end="arrowDown.mouseout"/>
                  </use>
                  <path fill="none" stroke="white" stroke-width="1.5" d="M0,-3.0v7 M-2.5,-0.5L0,-3.0L2.5,-0.5"/>
                </g>
                <g id="arrowLeft" xlink:href="#dirArrow" transform="rotate(270) translate(-36 17)" onmousedown="handlePan(-1,0)">
                  <use xlink:href="#rim" fill="#404040">
                        <set attributeName="fill" to="#808080" begin="arrowLeft.mouseover" end="arrowLeft.mouseout"/>
                  </use>
                  <path fill="none" stroke="white" stroke-width="1.5" d="M0,-3.0v7 M-2.5,-0.5L0,-3.0L2.5,-0.5"/>
                </g>
        </g>
        <svg viewBox="0 0 15 15" width="100%" height="30px" preserveAspectRatio="xMaxYMin meet">
         <g id="arrow_out" transform="scale(0.3 0.3)">
          <a xlink:href="ccf__group_8cc__incl_org.svg" target="_base">
           <rect id="button" ry="5" rx="5" y="6" x="6" height="38" width="38"
                fill="#f2f5e9" fill-opacity="0.5" stroke="#606060" stroke-width="1.0"/>
           <path id="arrow"
             d="M 11.500037,31.436501 C 11.940474,20.09759 22.043105,11.32322 32.158766,21.979434 L 37.068811,17.246167 C 37.068811,17.246167 37.088388,32 37.088388,32 L 22.160133,31.978069 C 22.160133,31.978069 26.997745,27.140456 26.997745,27.140456 C 18.528582,18.264221 13.291696,25.230495 11.500037,31.436501 z"
             style="fill:#404040;"/>
          </a>
         </g>
        </svg>
</svg>
