<?xml version="1.0" encoding="UTF-8" standalone="no"?>
<!DOCTYPE svg PUBLIC "-//W3C//DTD SVG 1.1//EN"
 "http://www.w3.org/Graphics/SVG/1.1/DTD/svg11.dtd">
<!-- Generated by graphviz version 2.38.0 (20140413.2041)
 -->
<!-- Title: ccf_group.h Pages: 1 -->
<!--zoomable 207 -->
<svg id="main" version="1.1" xmlns="http://www.w3.org/2000/svg" xmlns:xlink="http://www.w3.org/1999/xlink" xml:space="preserve" onload="init(evt)">
<style type="text/css"><![CDATA[
.edge:hover path { stroke: red; }
.edge:hover polygon { stroke: red; fill: red; }
]]></style>
<script type="text/javascript"><![CDATA[
var edges = document.getElementsByTagName('g');
if (edges && edges.length) {
  for (var i=0;i<edges.length;i++) {
    if (edges[i].id.substr(0,4)=='edge') {
      edges[i].setAttribute('class','edge');
    }
  }
}
]]></script>
        <defs>
                <circle id="rim" cx="0" cy="0" r="7"/>
                <circle id="rim2" cx="0" cy="0" r="3.5"/>
                <g id="zoomPlus">
                        <use xlink:href="#rim" fill="#404040">
                                <set attributeName="fill" to="#808080" begin="zoomplus.mouseover" end="zoomplus.mouseout"/>
                        </use>
                        <path d="M-4,0h8M0,-4v8" fill="none" stroke="white" stroke-width="1.5" pointer-events="none"/>
                </g>
                <g id="zoomMin">
                        <use xlink:href="#rim" fill="#404040">
                                <set attributeName="fill" to="#808080" begin="zoomminus.mouseover" end="zoomminus.mouseout"/>
                        </use>
                        <path d="M-4,0h8" fill="none" stroke="white" stroke-width="1.5" pointer-events="none"/>
                </g>
                <g id="dirArrow">
                        <path fill="none" stroke="white" stroke-width="1.5" d="M0,-3.0v7 M-2.5,-0.5L0,-3.0L2.5,-0.5"/>
                </g>
               <g id="resetDef">
                       <use xlink:href="#rim2" fill="#404040">
                               <set attributeName="fill" to="#808080" begin="reset.mouseover" end="reset.mouseout"/>
                       </use>
               </g>
        </defs>

<script type="text/javascript">
var viewWidth = 1116;
var viewHeight = 207;
var sectionId = 'dynsection-0';
</script>
<script xlink:href="svgpan.js"/>
<svg id="graph" class="graph">
<g id="viewport">
<title>ccf_group.h</title>
<polygon fill="white" stroke="none" points="-4,4 -4,-203 1112.09,-203 1112.09,4 -4,4"/>
<!-- Node1 -->
<g id="node1" class="node"><title>Node1</title>
<polygon fill="#bfbfbf" stroke="black" points="394.586,-179.5 394.586,-198.5 466.586,-198.5 466.586,-179.5 394.586,-179.5"/>
<text text-anchor="middle" x="430.586" y="-186.5" font-family="Helvetica,sans-Serif" font-size="10.00">ccf_group.h</text>
</g>
<!-- Node2 -->
<g id="node2" class="node"><title>Node2</title>
<polygon fill="white" stroke="#bfbfbf" points="14.0858,-67.5 14.0858,-86.5 71.0858,-86.5 71.0858,-67.5 14.0858,-67.5"/>
<text text-anchor="middle" x="42.5858" y="-74.5" font-family="Helvetica,sans-Serif" font-size="10.00">memory</text>
</g>
<!-- Node1&#45;&gt;Node2 -->
<g id="edge1" class="edge"><title>Node1&#45;&gt;Node2</title>
<path fill="none" stroke="midnightblue" d="M394.479,-180.327C356.275,-171.993 294.341,-157.869 241.586,-143 182.856,-126.447 115.571,-103.65 76.2103,-89.9176"/>
<polygon fill="midnightblue" stroke="midnightblue" points="77.1851,-86.5506 66.5902,-86.5477 74.8708,-93.157 77.1851,-86.5506"/>
</g>
<!-- Node3 -->
<g id="node3" class="node"><title>Node3</title>
<polygon fill="white" stroke="#bfbfbf" points="89.0858,-67.5 89.0858,-86.5 144.086,-86.5 144.086,-67.5 89.0858,-67.5"/>
<text text-anchor="middle" x="116.586" y="-74.5" font-family="Helvetica,sans-Serif" font-size="10.00">optional</text>
</g>
<!-- Node1&#45;&gt;Node3 -->
<g id="edge2" class="edge"><title>Node1&#45;&gt;Node3</title>
<path fill="none" stroke="midnightblue" d="M406.208,-179.46C350.677,-160.006 214.654,-112.355 150.774,-89.9768"/>
<polygon fill="midnightblue" stroke="midnightblue" points="151.759,-86.6135 141.164,-86.6104 149.445,-93.2198 151.759,-86.6135"/>
</g>
<!-- Node4 -->
<g id="node4" class="node"><title>Node4</title>
<polygon fill="white" stroke="#bfbfbf" points="434.586,-6 434.586,-25 478.586,-25 478.586,-6 434.586,-6"/>
<text text-anchor="middle" x="456.586" y="-13" font-family="Helvetica,sans-Serif" font-size="10.00">string</text>
</g>
<!-- Node1&#45;&gt;Node4 -->
<g id="edge3" class="edge"><title>Node1&#45;&gt;Node4</title>
<path fill="none" stroke="midnightblue" d="M435.048,-179.389C443.613,-162.323 462.081,-122.759 468.586,-87 471.808,-69.2842 467.528,-49.0141 463.212,-34.7698"/>
<polygon fill="midnightblue" stroke="midnightblue" points="466.504,-33.5788 460.028,-25.1939 459.862,-35.7874 466.504,-33.5788"/>
</g>
<!-- Node5 -->
<g id="node5" class="node"><title>Node5</title>
<polygon fill="white" stroke="#bfbfbf" points="734.586,-123.5 734.586,-142.5 802.586,-142.5 802.586,-123.5 734.586,-123.5"/>
<text text-anchor="middle" x="768.586" y="-130.5" font-family="Helvetica,sans-Serif" font-size="10.00">type_traits</text>
</g>
<!-- Node1&#45;&gt;Node5 -->
<g id="edge4" class="edge"><title>Node1&#45;&gt;Node5</title>
<path fill="none" stroke="midnightblue" d="M466.814,-182.752C521.765,-174.707 629.439,-158.613 720.586,-143 721.855,-142.783 723.142,-142.559 724.442,-142.332"/>
<polygon fill="midnightblue" stroke="midnightblue" points="725.296,-145.734 734.521,-140.524 724.06,-138.844 725.296,-145.734"/>
</g>
<!-- Node6 -->
<g id="node6" class="node"><title>Node6</title>
<polygon fill="white" stroke="#bfbfbf" points="18.5858,-6 18.5858,-25 60.5858,-25 60.5858,-6 18.5858,-6"/>
<text text-anchor="middle" x="39.5858" y="-13" font-family="Helvetica,sans-Serif" font-size="10.00">utility</text>
</g>
<!-- Node1&#45;&gt;Node6 -->
<g id="edge5" class="edge"><title>Node1&#45;&gt;Node6</title>
<path fill="none" stroke="midnightblue" d="M394.447,-185.306C300.098,-177.419 50.4715,-150.784 4.58575,-87 -7.8033,-69.7785 7.70637,-47.5166 21.8331,-32.6614"/>
<polygon fill="midnightblue" stroke="midnightblue" points="24.6878,-34.762 29.353,-25.2496 19.774,-29.7766 24.6878,-34.762"/>
</g>
<!-- Node7 -->
<g id="node7" class="node"><title>Node7</title>
<polygon fill="white" stroke="#bfbfbf" points="1061.09,-6 1061.09,-25 1108.09,-25 1108.09,-6 1061.09,-6"/>
<text text-anchor="middle" x="1084.59" y="-13" font-family="Helvetica,sans-Serif" font-size="10.00">vector</text>
</g>
<!-- Node1&#45;&gt;Node7 -->
<g id="edge6" class="edge"><title>Node1&#45;&gt;Node7</title>
<path fill="none" stroke="midnightblue" d="M466.966,-179.644C582.383,-153.001 939.311,-69.5589 1051.59,-31 1053.45,-30.3597 1055.36,-29.6575 1057.26,-28.9182"/>
<polygon fill="midnightblue" stroke="midnightblue" points="1058.75,-32.0914 1066.65,-25.0288 1056.07,-25.6249 1058.75,-32.0914"/>
</g>
<!-- Node8 -->
<g id="node8" class="node"><title>Node8</title>
<g id="a_node8"><a xlink:href="element_8h.xhtml" target="_top" xlink:title="Helper classes, structs, and properties common to all other classes. ">
<polygon fill="white" stroke="black" points="575.086,-67.5 575.086,-86.5 640.086,-86.5 640.086,-67.5 575.086,-67.5"/>
<text text-anchor="middle" x="607.586" y="-74.5" font-family="Helvetica,sans-Serif" font-size="10.00">element.h</text>
</a>
</g>
</g>
<!-- Node1&#45;&gt;Node8 -->
<g id="edge7" class="edge"><title>Node1&#45;&gt;Node8</title>
<path fill="none" stroke="midnightblue" d="M466.748,-181.669C494.511,-175.428 532.692,-163.725 560.586,-143 577.297,-130.584 590.519,-110.502 598.628,-95.9419"/>
<polygon fill="midnightblue" stroke="midnightblue" points="601.825,-97.3827 603.404,-86.9063 595.636,-94.111 601.825,-97.3827"/>
</g>
<!-- Node14 -->
<g id="node14" class="node"><title>Node14</title>
<g id="a_node14"><a xlink:href="event_8h.xhtml" target="_top" xlink:title="Contains event classes for fault trees. ">
<polygon fill="white" stroke="black" points="349.086,-123.5 349.086,-142.5 402.086,-142.5 402.086,-123.5 349.086,-123.5"/>
<text text-anchor="middle" x="375.586" y="-130.5" font-family="Helvetica,sans-Serif" font-size="10.00">event.h</text>
</a>
</g>
</g>
<!-- Node1&#45;&gt;Node14 -->
<g id="edge15" class="edge"><title>Node1&#45;&gt;Node14</title>
<path fill="none" stroke="midnightblue" d="M421.504,-179.083C413.414,-171.141 401.39,-159.335 391.676,-149.797"/>
<polygon fill="midnightblue" stroke="midnightblue" points="394.087,-147.26 384.499,-142.751 389.182,-152.254 394.087,-147.26"/>
</g>
<!-- Node17 -->
<g id="node17" class="node"><title>Node17</title>
<g id="a_node17"><a xlink:href="expression_8h.xhtml" target="_top" xlink:title="Provides the base class for all expressions and units for expression values. ">
<polygon fill="white" stroke="black" points="365.086,-67.5 365.086,-86.5 442.086,-86.5 442.086,-67.5 365.086,-67.5"/>
<text text-anchor="middle" x="403.586" y="-74.5" font-family="Helvetica,sans-Serif" font-size="10.00">expression.h</text>
</a>
</g>
</g>
<!-- Node1&#45;&gt;Node17 -->
<g id="edge32" class="edge"><title>Node1&#45;&gt;Node17</title>
<path fill="none" stroke="midnightblue" d="M428.467,-179.368C424.11,-161.617 414.058,-120.666 408.151,-96.5974"/>
<polygon fill="midnightblue" stroke="midnightblue" points="411.478,-95.4688 405.695,-86.5914 404.679,-97.1375 411.478,-95.4688"/>
</g>
<!-- Node8&#45;&gt;Node4 -->
<g id="edge9" class="edge"><title>Node8&#45;&gt;Node4</title>
<path fill="none" stroke="midnightblue" d="M583.002,-67.4216C558.589,-58.7533 520.196,-44.716 487.586,-31 486.217,-30.4241 484.819,-29.8224 483.412,-29.2054"/>
<polygon fill="midnightblue" stroke="midnightblue" points="484.736,-25.9629 474.183,-25.0238 481.847,-32.339 484.736,-25.9629"/>
</g>
<!-- Node8&#45;&gt;Node7 -->
<g id="edge10" class="edge"><title>Node8&#45;&gt;Node7</title>
<path fill="none" stroke="midnightblue" d="M640.132,-69.3362C644.965,-68.4722 649.896,-67.6599 654.586,-67 830.025,-42.3097 880.023,-75.2124 1051.59,-31 1053.89,-30.4071 1056.23,-29.671 1058.56,-28.8474"/>
<polygon fill="midnightblue" stroke="midnightblue" points="1059.86,-32.0931 1067.83,-25.1108 1057.25,-25.5999 1059.86,-32.0931"/>
</g>
<!-- Node9 -->
<g id="node9" class="node"><title>Node9</title>
<polygon fill="white" stroke="#bfbfbf" points="497.086,-6 497.086,-25 546.086,-25 546.086,-6 497.086,-6"/>
<text text-anchor="middle" x="521.586" y="-13" font-family="Helvetica,sans-Serif" font-size="10.00">cstdint</text>
</g>
<!-- Node8&#45;&gt;Node9 -->
<g id="edge8" class="edge"><title>Node8&#45;&gt;Node9</title>
<path fill="none" stroke="midnightblue" d="M595.264,-67.4751C581.47,-57.9315 558.887,-42.3073 542.353,-30.8683"/>
<polygon fill="midnightblue" stroke="midnightblue" points="544.1,-27.8205 533.885,-25.0091 540.117,-33.577 544.1,-27.8205"/>
</g>
<!-- Node10 -->
<g id="node10" class="node"><title>Node10</title>
<polygon fill="white" stroke="#bfbfbf" points="754.586,-0.5 754.586,-30.5 894.586,-30.5 894.586,-0.5 754.586,-0.5"/>
<text text-anchor="start" x="762.586" y="-18.5" font-family="Helvetica,sans-Serif" font-size="10.00">boost/multi_index/hashed</text>
<text text-anchor="middle" x="824.586" y="-7.5" font-family="Helvetica,sans-Serif" font-size="10.00">_index.hpp</text>
</g>
<!-- Node8&#45;&gt;Node10 -->
<g id="edge11" class="edge"><title>Node8&#45;&gt;Node10</title>
<path fill="none" stroke="midnightblue" d="M638.677,-67.4751C671.156,-58.5694 722.947,-44.3688 763.625,-33.2151"/>
<polygon fill="midnightblue" stroke="midnightblue" points="764.725,-36.5428 773.443,-30.523 762.874,-29.792 764.725,-36.5428"/>
</g>
<!-- Node11 -->
<g id="node11" class="node"><title>Node11</title>
<polygon fill="white" stroke="#bfbfbf" points="912.586,-0.5 912.586,-30.5 1042.59,-30.5 1042.59,-0.5 912.586,-0.5"/>
<text text-anchor="start" x="920.586" y="-18.5" font-family="Helvetica,sans-Serif" font-size="10.00">boost/multi_index/mem</text>
<text text-anchor="middle" x="977.586" y="-7.5" font-family="Helvetica,sans-Serif" font-size="10.00">_fun.hpp</text>
</g>
<!-- Node8&#45;&gt;Node11 -->
<g id="edge12" class="edge"><title>Node8&#45;&gt;Node11</title>
<path fill="none" stroke="midnightblue" d="M640.167,-69.5617C644.995,-68.6656 649.916,-67.7843 654.586,-67 761.736,-49.0048 791.673,-49.7001 902.36,-31.1575"/>
<polygon fill="midnightblue" stroke="midnightblue" points="902.971,-34.6039 912.248,-29.4862 901.805,-27.7018 902.971,-34.6039"/>
</g>
<!-- Node12 -->
<g id="node12" class="node"><title>Node12</title>
<polygon fill="white" stroke="#bfbfbf" points="564.586,-6 564.586,-25 736.586,-25 736.586,-6 564.586,-6"/>
<text text-anchor="middle" x="650.586" y="-13" font-family="Helvetica,sans-Serif" font-size="10.00">boost/multi_index_container.hpp</text>
</g>
<!-- Node8&#45;&gt;Node12 -->
<g id="edge13" class="edge"><title>Node8&#45;&gt;Node12</title>
<path fill="none" stroke="midnightblue" d="M613.747,-67.4751C620.197,-58.5501 630.49,-44.3071 638.558,-33.1425"/>
<polygon fill="midnightblue" stroke="midnightblue" points="641.416,-35.1642 644.436,-25.0091 635.742,-31.064 641.416,-35.1642"/>
</g>
<!-- Node13 -->
<g id="node13" class="node"><title>Node13</title>
<polygon fill="white" stroke="#bfbfbf" points="288.586,-6 288.586,-25 416.586,-25 416.586,-6 288.586,-6"/>
<text text-anchor="middle" x="352.586" y="-13" font-family="Helvetica,sans-Serif" font-size="10.00">boost/noncopyable.hpp</text>
</g>
<!-- Node8&#45;&gt;Node13 -->
<g id="edge14" class="edge"><title>Node8&#45;&gt;Node13</title>
<path fill="none" stroke="midnightblue" d="M575.031,-68.4038C530.345,-57.9772 449.763,-39.1747 398.832,-27.2909"/>
<polygon fill="midnightblue" stroke="midnightblue" points="399.595,-23.8749 389.061,-25.0109 398.004,-30.6918 399.595,-23.8749"/>
</g>
<!-- Node14&#45;&gt;Node2 -->
<g id="edge18" class="edge"><title>Node14&#45;&gt;Node2</title>
<path fill="none" stroke="midnightblue" d="M348.917,-128.743C298.507,-122.417 185.613,-107.439 81.2816,-87.2011"/>
<polygon fill="midnightblue" stroke="midnightblue" points="81.7008,-83.7168 71.2141,-85.2264 80.3533,-90.5859 81.7008,-83.7168"/>
</g>
<!-- Node14&#45;&gt;Node3 -->
<g id="edge19" class="edge"><title>Node14&#45;&gt;Node3</title>
<path fill="none" stroke="midnightblue" d="M348.848,-126.515C307.877,-118.096 227.104,-101.446 158.586,-87 157.126,-86.6923 155.639,-86.3778 154.136,-86.0594"/>
<polygon fill="midnightblue" stroke="midnightblue" points="154.652,-82.5909 144.143,-83.9323 153.195,-89.4375 154.652,-82.5909"/>
</g>
<!-- Node14&#45;&gt;Node4 -->
<g id="edge20" class="edge"><title>Node14&#45;&gt;Node4</title>
<path fill="none" stroke="midnightblue" d="M401.632,-123.464C418.569,-116.468 439.497,-104.78 450.586,-87 460.221,-71.5513 460.71,-50.3587 459.414,-35.2521"/>
<polygon fill="midnightblue" stroke="midnightblue" points="462.861,-34.5956 458.197,-25.0823 455.91,-35.4273 462.861,-34.5956"/>
</g>
<!-- Node14&#45;&gt;Node6 -->
<g id="edge21" class="edge"><title>Node14&#45;&gt;Node6</title>
<path fill="none" stroke="midnightblue" d="M348.798,-127.486C312.45,-120.906 245.819,-107.219 191.586,-87 173.333,-80.1952 170.197,-75.3244 152.586,-67 116.233,-49.8169 106.139,-47.7524 69.5858,-31 68.4321,-30.4713 67.2559,-29.9267 66.0694,-29.3729"/>
<polygon fill="midnightblue" stroke="midnightblue" points="67.5131,-26.1839 56.9785,-25.0554 64.5101,-32.507 67.5131,-26.1839"/>
</g>
<!-- Node14&#45;&gt;Node7 -->
<g id="edge23" class="edge"><title>Node14&#45;&gt;Node7</title>
<path fill="none" stroke="midnightblue" d="M402.47,-129.929C452.041,-125.595 560.801,-113.674 648.586,-87 669.139,-80.7547 671.845,-72.5905 692.586,-67 847.416,-25.2667 896.495,-71.7549 1051.59,-31 1053.88,-30.3961 1056.23,-29.6524 1058.55,-28.8236"/>
<polygon fill="midnightblue" stroke="midnightblue" points="1059.86,-32.0677 1067.83,-25.0781 1057.24,-25.5768 1059.86,-32.0677"/>
</g>
<!-- Node14&#45;&gt;Node8 -->
<g id="edge24" class="edge"><title>Node14&#45;&gt;Node8</title>
<path fill="none" stroke="midnightblue" d="M402.199,-125.806C442.007,-116.54 517.45,-98.9799 564.984,-87.9159"/>
<polygon fill="midnightblue" stroke="midnightblue" points="566.026,-91.2671 574.972,-85.5911 564.439,-84.4493 566.026,-91.2671"/>
</g>
<!-- Node14&#45;&gt;Node9 -->
<g id="edge16" class="edge"><title>Node14&#45;&gt;Node9</title>
<path fill="none" stroke="midnightblue" d="M401.14,-123.43C420.957,-115.934 448.362,-103.637 468.586,-87 486.8,-72.0155 502.283,-49.5402 511.728,-34.013"/>
<polygon fill="midnightblue" stroke="midnightblue" points="514.756,-35.7682 516.798,-25.3721 508.718,-32.2254 514.756,-35.7682"/>
</g>
<!-- Node15 -->
<g id="node15" class="node"><title>Node15</title>
<polygon fill="white" stroke="#bfbfbf" points="201.086,-67.5 201.086,-86.5 278.086,-86.5 278.086,-67.5 201.086,-67.5"/>
<text text-anchor="middle" x="239.586" y="-74.5" font-family="Helvetica,sans-Serif" font-size="10.00">initializer_list</text>
</g>
<!-- Node14&#45;&gt;Node15 -->
<g id="edge17" class="edge"><title>Node14&#45;&gt;Node15</title>
<path fill="none" stroke="midnightblue" d="M354.036,-123.444C331.555,-114.517 296.098,-100.439 270.606,-90.3168"/>
<polygon fill="midnightblue" stroke="midnightblue" points="271.62,-86.9539 261.035,-86.5164 269.037,-93.4598 271.62,-86.9539"/>
</g>
<!-- Node16 -->
<g id="node16" class="node"><title>Node16</title>
<polygon fill="white" stroke="#bfbfbf" points="296.586,-67.5 296.586,-86.5 346.586,-86.5 346.586,-67.5 296.586,-67.5"/>
<text text-anchor="middle" x="321.586" y="-74.5" font-family="Helvetica,sans-Serif" font-size="10.00">variant</text>
</g>
<!-- Node14&#45;&gt;Node16 -->
<g id="edge22" class="edge"><title>Node14&#45;&gt;Node16</title>
<path fill="none" stroke="midnightblue" d="M366.669,-123.083C358.805,-115.22 347.155,-103.569 337.667,-94.0813"/>
<polygon fill="midnightblue" stroke="midnightblue" points="339.883,-91.3473 330.337,-86.7511 334.933,-96.2971 339.883,-91.3473"/>
</g>
<!-- Node14&#45;&gt;Node17 -->
<g id="edge25" class="edge"><title>Node14&#45;&gt;Node17</title>
<path fill="none" stroke="midnightblue" d="M380.209,-123.083C384.042,-115.691 389.61,-104.953 394.35,-95.8111"/>
<polygon fill="midnightblue" stroke="midnightblue" points="397.552,-97.2398 399.048,-86.7511 391.338,-94.0175 397.552,-97.2398"/>
</g>
<!-- Node17&#45;&gt;Node4 -->
<g id="edge27" class="edge"><title>Node17&#45;&gt;Node4</title>
<path fill="none" stroke="midnightblue" d="M411.179,-67.4751C419.287,-58.3733 432.321,-43.741 442.349,-32.483"/>
<polygon fill="midnightblue" stroke="midnightblue" points="444.968,-34.8043 449.006,-25.0091 439.741,-30.1483 444.968,-34.8043"/>
</g>
<!-- Node17&#45;&gt;Node6 -->
<g id="edge28" class="edge"><title>Node17&#45;&gt;Node6</title>
<path fill="none" stroke="midnightblue" d="M364.848,-68.5298C361.718,-67.9893 358.601,-67.4721 355.586,-67 229.013,-47.1861 192.434,-67.3546 69.5858,-31 67.7136,-30.446 65.8137,-29.786 63.9259,-29.0577"/>
<polygon fill="midnightblue" stroke="midnightblue" points="65.3339,-25.8534 54.7718,-25.0201 62.5089,-32.2581 65.3339,-25.8534"/>
</g>
<!-- Node17&#45;&gt;Node7 -->
<g id="edge29" class="edge"><title>Node17&#45;&gt;Node7</title>
<path fill="none" stroke="midnightblue" d="M442.521,-73.6666C577.959,-65.5012 1021.92,-38.3122 1051.59,-31 1053.94,-30.4187 1056.35,-29.6804 1058.72,-28.846"/>
<polygon fill="midnightblue" stroke="midnightblue" points="1060.22,-32.0152 1068.19,-25.0316 1057.61,-25.5225 1060.22,-32.0152"/>
</g>
<!-- Node17&#45;&gt;Node13 -->
<g id="edge31" class="edge"><title>Node17&#45;&gt;Node13</title>
<path fill="none" stroke="midnightblue" d="M396.279,-67.4751C388.553,-58.4617 376.178,-44.0246 366.567,-32.8118"/>
<polygon fill="midnightblue" stroke="midnightblue" points="369.045,-30.3239 359.879,-25.0091 363.73,-34.8795 369.045,-30.3239"/>
</g>
<!-- Node18 -->
<g id="node18" class="node"><title>Node18</title>
<polygon fill="white" stroke="#bfbfbf" points="78.5858,-6 78.5858,-25 140.586,-25 140.586,-6 78.5858,-6"/>
<text text-anchor="middle" x="109.586" y="-13" font-family="Helvetica,sans-Serif" font-size="10.00">algorithm</text>
</g>
<!-- Node17&#45;&gt;Node18 -->
<g id="edge26" class="edge"><title>Node17&#45;&gt;Node18</title>
<path fill="none" stroke="midnightblue" d="M365.081,-68.7371C361.87,-68.1446 358.673,-67.5591 355.586,-67 264.131,-50.4355 239.396,-54.9288 149.586,-31 146.612,-30.2078 143.548,-29.2895 140.5,-28.3071"/>
<polygon fill="midnightblue" stroke="midnightblue" points="141.55,-24.9672 130.956,-25.0266 139.275,-31.5871 141.55,-24.9672"/>
</g>
<!-- Node19 -->
<g id="node19" class="node"><title>Node19</title>
<polygon fill="white" stroke="#bfbfbf" points="158.586,-0.5 158.586,-30.5 270.586,-30.5 270.586,-0.5 158.586,-0.5"/>
<text text-anchor="start" x="166.586" y="-18.5" font-family="Helvetica,sans-Serif" font-size="10.00">boost/icl/continuous</text>
<text text-anchor="middle" x="214.586" y="-7.5" font-family="Helvetica,sans-Serif" font-size="10.00">_interval.hpp</text>
</g>
<!-- Node17&#45;&gt;Node19 -->
<g id="edge30" class="edge"><title>Node17&#45;&gt;Node19</title>
<path fill="none" stroke="midnightblue" d="M376.507,-67.4751C348.517,-58.6635 304.062,-44.6684 268.808,-33.5698"/>
<polygon fill="midnightblue" stroke="midnightblue" points="269.719,-30.1874 259.129,-30.523 267.617,-36.8644 269.719,-30.1874"/>
</g>
</g>
</svg>
        <g id="navigator" transform="translate(0 0)" fill="#404254">
                <rect fill="#f2f5e9" fill-opacity="0.5" stroke="#606060" stroke-width=".5" x="0" y="0" width="60" height="60"/>
                <use id="zoomplus" xlink:href="#zoomPlus" x="17" y="9" onmousedown="handleZoom(evt,'in')"/>
                <use id="zoomminus" xlink:href="#zoomMin" x="42" y="9" onmousedown="handleZoom(evt,'out')"/>
                <use id="reset" xlink:href="#resetDef" x="30" y="36" onmousedown="handleReset()"/>
                <g id="arrowUp" xlink:href="#dirArrow" transform="translate(30 24)" onmousedown="handlePan(0,-1)">
                  <use xlink:href="#rim" fill="#404040">
                        <set attributeName="fill" to="#808080" begin="arrowUp.mouseover" end="arrowUp.mouseout"/>
                  </use>
                  <path fill="none" stroke="white" stroke-width="1.5" d="M0,-3.0v7 M-2.5,-0.5L0,-3.0L2.5,-0.5"/>
                </g>
                <g id="arrowRight" xlink:href="#dirArrow" transform="rotate(90) translate(36 -43)" onmousedown="handlePan(1,0)">
                  <use xlink:href="#rim" fill="#404040">
                        <set attributeName="fill" to="#808080" begin="arrowRight.mouseover" end="arrowRight.mouseout"/>
                  </use>
                  <path fill="none" stroke="white" stroke-width="1.5" d="M0,-3.0v7 M-2.5,-0.5L0,-3.0L2.5,-0.5"/>
                </g>
                <g id="arrowDown" xlink:href="#dirArrow" transform="rotate(180) translate(-30 -48)" onmousedown="handlePan(0,1)">
                  <use xlink:href="#rim" fill="#404040">
                        <set attributeName="fill" to="#808080" begin="arrowDown.mouseover" end="arrowDown.mouseout"/>
                  </use>
                  <path fill="none" stroke="white" stroke-width="1.5" d="M0,-3.0v7 M-2.5,-0.5L0,-3.0L2.5,-0.5"/>
                </g>
                <g id="arrowLeft" xlink:href="#dirArrow" transform="rotate(270) translate(-36 17)" onmousedown="handlePan(-1,0)">
                  <use xlink:href="#rim" fill="#404040">
                        <set attributeName="fill" to="#808080" begin="arrowLeft.mouseover" end="arrowLeft.mouseout"/>
                  </use>
                  <path fill="none" stroke="white" stroke-width="1.5" d="M0,-3.0v7 M-2.5,-0.5L0,-3.0L2.5,-0.5"/>
                </g>
        </g>
        <svg viewBox="0 0 15 15" width="100%" height="30px" preserveAspectRatio="xMaxYMin meet">
         <g id="arrow_out" transform="scale(0.3 0.3)">
          <a xlink:href="ccf__group_8h__incl_org.svg" target="_base">
           <rect id="button" ry="5" rx="5" y="6" x="6" height="38" width="38"
                fill="#f2f5e9" fill-opacity="0.5" stroke="#606060" stroke-width="1.0"/>
           <path id="arrow"
             d="M 11.500037,31.436501 C 11.940474,20.09759 22.043105,11.32322 32.158766,21.979434 L 37.068811,17.246167 C 37.068811,17.246167 37.088388,32 37.088388,32 L 22.160133,31.978069 C 22.160133,31.978069 26.997745,27.140456 26.997745,27.140456 C 18.528582,18.264221 13.291696,25.230495 11.500037,31.436501 z"
             style="fill:#404040;"/>
          </a>
         </g>
        </svg>
</svg>
