<?xml version="1.0" encoding="UTF-8" standalone="no"?>
<!DOCTYPE svg PUBLIC "-//W3C//DTD SVG 1.1//EN"
 "http://www.w3.org/Graphics/SVG/1.1/DTD/svg11.dtd">
<!-- Generated by graphviz version 2.38.0 (20140413.2041)
 -->
<!-- Title: scram::mef::Id::id Pages: 1 -->
<svg width="845pt" height="325pt"
 viewBox="0.00 0.00 845.00 325.13" xmlns="http://www.w3.org/2000/svg" xmlns:xlink="http://www.w3.org/1999/xlink">
<g id="graph0" class="graph" transform="scale(1 1) rotate(0) translate(4 321.133)">
<title>scram::mef::Id::id</title>
<polygon fill="white" stroke="none" points="-4,4 -4,-321.133 841,-321.133 841,4 -4,4"/>
<!-- Node1 -->
<g id="node1" class="node"><title>Node1</title>
<polygon fill="#bfbfbf" stroke="black" points="0,-115.5 0,-134.5 100,-134.5 100,-115.5 0,-115.5"/>
<text text-anchor="middle" x="50" y="-122.5" font-family="Helvetica,sans-Serif" font-size="10.00">scram::mef::Id::id</text>
</g>
<!-- Node2 -->
<g id="node2" class="node"><title>Node2</title>
<g id="a_node2"><a xlink:href="classscram_1_1mef_1_1Substitution.xhtml#a0a6da28d1514d7543d80e554e144df6f" target="_top" xlink:title="Adds a source event to the substitution container. ">
<polygon fill="white" stroke="black" points="143,-269.5 143,-288.5 303,-288.5 303,-269.5 143,-269.5"/>
<text text-anchor="middle" x="223" y="-276.5" font-family="Helvetica,sans-Serif" font-size="10.00">scram::mef::Substitution::Add</text>
</a>
</g>
</g>
<!-- Node1&#45;&gt;Node2 -->
<g id="edge1" class="edge"><title>Node1&#45;&gt;Node2</title>
<path fill="none" stroke="midnightblue" d="M65.5415,-142.427C81.8005,-161.451 109.359,-192.356 136,-216 159.394,-236.762 189.38,-257.568 207.059,-269.311"/>
<polygon fill="midnightblue" stroke="midnightblue" points="68.0416,-139.963 58.9101,-134.59 62.6981,-144.485 68.0416,-139.963"/>
</g>
<!-- Node6 -->
<g id="node6" class="node"><title>Node6</title>
<g id="a_node6"><a xlink:href="classscram_1_1mef_1_1Formula_1_1ArgSet.xhtml#adef52f323d9a5b26ceaa951d5b304bb7" target="_top" xlink:title="Adds an event into the arguments set. ">
<polygon fill="white" stroke="black" points="165,-176 165,-206 281,-206 281,-176 165,-176"/>
<text text-anchor="start" x="173" y="-194" font-family="Helvetica,sans-Serif" font-size="10.00">scram::mef::Formula</text>
<text text-anchor="middle" x="223" y="-183" font-family="Helvetica,sans-Serif" font-size="10.00">::ArgSet::Add</text>
</a>
</g>
</g>
<!-- Node1&#45;&gt;Node6 -->
<g id="edge7" class="edge"><title>Node1&#45;&gt;Node6</title>
<path fill="none" stroke="midnightblue" d="M81.9263,-138.669C97.96,-145.61 117.922,-154.027 136,-161 149.278,-166.122 163.849,-171.35 177.163,-175.977"/>
<polygon fill="midnightblue" stroke="midnightblue" points="83.0684,-135.349 72.5026,-134.564 80.2727,-141.767 83.0684,-135.349"/>
</g>
<!-- Node8 -->
<g id="node8" class="node"><title>Node8</title>
<g id="a_node8"><a xlink:href="classscram_1_1core_1_1EventTreeAnalysis.xhtml#a3e3404417cbdcf92474e5653ec24f936" target="_top" xlink:title="scram::core::EventTreeAnalysis\l::EventTreeAnalysis">
<polygon fill="white" stroke="black" points="346,-127 346,-157 511,-157 511,-127 346,-127"/>
<text text-anchor="start" x="354" y="-145" font-family="Helvetica,sans-Serif" font-size="10.00">scram::core::EventTreeAnalysis</text>
<text text-anchor="middle" x="428.5" y="-134" font-family="Helvetica,sans-Serif" font-size="10.00">::EventTreeAnalysis</text>
</a>
</g>
</g>
<!-- Node1&#45;&gt;Node8 -->
<g id="edge11" class="edge"><title>Node1&#45;&gt;Node8</title>
<path fill="none" stroke="midnightblue" d="M110.463,-127.685C173.951,-130.552 274.977,-135.113 345.885,-138.315"/>
<polygon fill="midnightblue" stroke="midnightblue" points="110.369,-124.177 100.221,-127.222 110.053,-131.17 110.369,-124.177"/>
</g>
<!-- Node9 -->
<g id="node9" class="node"><title>Node9</title>
<g id="a_node9"><a xlink:href="reporter_8cc.xhtml#a73f9569f4c2e2b6a3eac8d2c01b81943" target="_top" xlink:title="Describes all performed analyses deduced from settings. ">
<polygon fill="white" stroke="black" points="136,-88 136,-118 310,-118 310,-88 136,-88"/>
<text text-anchor="start" x="144" y="-106" font-family="Helvetica,sans-Serif" font-size="10.00">scram::ReportCalculatedQuantity</text>
<text text-anchor="middle" x="223" y="-95" font-family="Helvetica,sans-Serif" font-size="10.00">&lt; core::RiskAnalysis &gt;</text>
</a>
</g>
</g>
<!-- Node1&#45;&gt;Node9 -->
<g id="edge12" class="edge"><title>Node1&#45;&gt;Node9</title>
<path fill="none" stroke="midnightblue" d="M109.994,-117.41C118.359,-116.334 127.099,-115.209 135.848,-114.084"/>
<polygon fill="midnightblue" stroke="midnightblue" points="109.473,-113.948 100.002,-118.696 110.367,-120.891 109.473,-113.948"/>
</g>
<!-- Node10 -->
<g id="node10" class="node"><title>Node10</title>
<g id="a_node10"><a xlink:href="classscram_1_1mef_1_1Formula.xhtml#a6a6ea9595613f23e0f19af5f96754683" target="_top" xlink:title="Swaps an argument event with another one. ">
<polygon fill="white" stroke="black" points="165,-39 165,-69 281,-69 281,-39 165,-39"/>
<text text-anchor="start" x="173" y="-57" font-family="Helvetica,sans-Serif" font-size="10.00">scram::mef::Formula</text>
<text text-anchor="middle" x="223" y="-46" font-family="Helvetica,sans-Serif" font-size="10.00">::Swap</text>
</a>
</g>
</g>
<!-- Node1&#45;&gt;Node10 -->
<g id="edge13" class="edge"><title>Node1&#45;&gt;Node10</title>
<path fill="none" stroke="midnightblue" d="M74.3639,-110.135C91.0405,-100.016 114.275,-86.8954 136,-78 145.181,-74.2409 155.146,-70.8614 164.93,-67.9066"/>
<polygon fill="midnightblue" stroke="midnightblue" points="72.4985,-107.173 65.8249,-115.402 76.1735,-113.131 72.4985,-107.173"/>
</g>
<!-- Node11 -->
<g id="node11" class="node"><title>Node11</title>
<g id="a_node11"><a xlink:href="classscram_1_1mef_1_1Id.xhtml#a846997cebdf27bbff872fa87e7f1a9e2" target="_top" xlink:title="Produces unique name for the model element within the same type. ">
<polygon fill="white" stroke="black" points="144.5,-0.5 144.5,-19.5 301.5,-19.5 301.5,-0.5 144.5,-0.5"/>
<text text-anchor="middle" x="223" y="-7.5" font-family="Helvetica,sans-Serif" font-size="10.00">scram::mef::Id::unique_name</text>
</a>
</g>
</g>
<!-- Node1&#45;&gt;Node11 -->
<g id="edge14" class="edge"><title>Node1&#45;&gt;Node11</title>
<path fill="none" stroke="midnightblue" d="M62.1048,-106.559C76.3705,-84.5381 103.241,-48.2717 136,-29 142.59,-25.1234 149.886,-22.0363 157.361,-19.5782"/>
<polygon fill="midnightblue" stroke="midnightblue" points="58.9719,-104.967 56.6216,-115.297 64.9013,-108.687 58.9719,-104.967"/>
</g>
<!-- Node3 -->
<g id="node3" class="node"><title>Node3</title>
<g id="a_node3"><a xlink:href="classscram_1_1mef_1_1Initializer.xhtml#a969f088f20697a8a317cb7c998f034ad" target="_top" xlink:title="Specializations for elements defined after registration. ">
<polygon fill="white" stroke="black" points="718,-264 718,-294 837,-294 837,-264 718,-264"/>
<text text-anchor="start" x="726" y="-282" font-family="Helvetica,sans-Serif" font-size="10.00">scram::mef::Initializer</text>
<text text-anchor="middle" x="777.5" y="-271" font-family="Helvetica,sans-Serif" font-size="10.00">::Define</text>
</a>
</g>
</g>
<!-- Node2&#45;&gt;Node3 -->
<g id="edge2" class="edge"><title>Node2&#45;&gt;Node3</title>
<path fill="none" stroke="midnightblue" d="M270.544,-290.841C293.154,-296 320.818,-301.446 346,-304 494.571,-319.066 533.913,-323.257 682,-304 697.651,-301.965 714.402,-298.109 729.388,-294.024"/>
<polygon fill="midnightblue" stroke="midnightblue" points="271.073,-287.37 260.539,-288.502 269.48,-294.186 271.073,-287.37"/>
</g>
<!-- Node4 -->
<g id="node4" class="node"><title>Node4</title>
<g id="a_node4"><a xlink:href="classscram_1_1mef_1_1Substitution.xhtml#ad29f35247718d44ff8d6f9bd9bd41d9f" target="_top" xlink:title="scram::mef::Substitution\l::declarative">
<polygon fill="white" stroke="black" points="361,-264 361,-294 496,-294 496,-264 361,-264"/>
<text text-anchor="start" x="369" y="-282" font-family="Helvetica,sans-Serif" font-size="10.00">scram::mef::Substitution</text>
<text text-anchor="middle" x="428.5" y="-271" font-family="Helvetica,sans-Serif" font-size="10.00">::declarative</text>
</a>
</g>
</g>
<!-- Node2&#45;&gt;Node4 -->
<g id="edge3" class="edge"><title>Node2&#45;&gt;Node4</title>
<path fill="none" stroke="midnightblue" d="M313.639,-279C329.545,-279 345.852,-279 360.974,-279"/>
<polygon fill="midnightblue" stroke="midnightblue" points="313.261,-275.5 303.261,-279 313.261,-282.5 313.261,-275.5"/>
</g>
<!-- Node5 -->
<g id="node5" class="node"><title>Node5</title>
<g id="a_node5"><a xlink:href="classscram_1_1mef_1_1Substitution.xhtml#ab1859efddac529e0827537fae2f16cbb" target="_top" xlink:title="Checks if the substitution is setup correctly. ">
<polygon fill="white" stroke="black" points="547,-264 547,-294 682,-294 682,-264 547,-264"/>
<text text-anchor="start" x="555" y="-282" font-family="Helvetica,sans-Serif" font-size="10.00">scram::mef::Substitution</text>
<text text-anchor="middle" x="614.5" y="-271" font-family="Helvetica,sans-Serif" font-size="10.00">::Validate</text>
</a>
</g>
</g>
<!-- Node4&#45;&gt;Node5 -->
<g id="edge4" class="edge"><title>Node4&#45;&gt;Node5</title>
<path fill="none" stroke="midnightblue" d="M506.341,-272.332C519.757,-272.186 533.614,-272.235 546.73,-272.481"/>
<polygon fill="midnightblue" stroke="midnightblue" points="506.135,-268.835 496.188,-272.482 506.239,-275.834 506.135,-268.835"/>
</g>
<!-- Node5&#45;&gt;Node3 -->
<g id="edge5" class="edge"><title>Node5&#45;&gt;Node3</title>
<path fill="none" stroke="midnightblue" d="M692.644,-279C701.099,-279 709.604,-279 717.785,-279"/>
<polygon fill="midnightblue" stroke="midnightblue" points="692.38,-275.5 682.38,-279 692.38,-282.5 692.38,-275.5"/>
</g>
<!-- Node5&#45;&gt;Node4 -->
<g id="edge6" class="edge"><title>Node5&#45;&gt;Node4</title>
<path fill="none" stroke="midnightblue" d="M536.575,-285.669C523.158,-285.815 509.301,-285.764 496.188,-285.518"/>
<polygon fill="midnightblue" stroke="midnightblue" points="536.783,-289.166 546.73,-285.519 536.68,-282.167 536.783,-289.166"/>
</g>
<!-- Node6&#45;&gt;Node3 -->
<g id="edge9" class="edge"><title>Node6&#45;&gt;Node3</title>
<path fill="none" stroke="midnightblue" d="M291.454,-205.909C309.146,-209.52 328.243,-213.156 346,-216 494.443,-239.779 534.151,-227.77 682,-255 695.151,-257.422 709.185,-260.635 722.304,-263.92"/>
<polygon fill="midnightblue" stroke="midnightblue" points="291.723,-202.39 281.221,-203.791 290.304,-209.245 291.723,-202.39"/>
</g>
<!-- Node7 -->
<g id="node7" class="node"><title>Node7</title>
<g id="a_node7"><a xlink:href="classscram_1_1core_1_1EventTreeAnalysis.xhtml#a070c68c0d67edb30c9bf57e226aaf88e" target="_top" xlink:title="Analyzes an event tree given the initiating event. ">
<polygon fill="white" stroke="black" points="346,-176 346,-206 511,-206 511,-176 346,-176"/>
<text text-anchor="start" x="354" y="-194" font-family="Helvetica,sans-Serif" font-size="10.00">scram::core::EventTreeAnalysis</text>
<text text-anchor="middle" x="428.5" y="-183" font-family="Helvetica,sans-Serif" font-size="10.00">::Analyze</text>
</a>
</g>
</g>
<!-- Node6&#45;&gt;Node7 -->
<g id="edge8" class="edge"><title>Node6&#45;&gt;Node7</title>
<path fill="none" stroke="midnightblue" d="M291.276,-191C308.673,-191 327.595,-191 345.647,-191"/>
<polygon fill="midnightblue" stroke="midnightblue" points="291.228,-187.5 281.228,-191 291.228,-194.5 291.228,-187.5"/>
</g>
<!-- Node6&#45;&gt;Node8 -->
<g id="edge10" class="edge"><title>Node6&#45;&gt;Node8</title>
<path fill="none" stroke="midnightblue" d="M291.225,-174.813C315.001,-169.088 341.63,-162.676 364.997,-157.05"/>
<polygon fill="midnightblue" stroke="midnightblue" points="290.13,-171.477 281.228,-177.22 291.769,-178.282 290.13,-171.477"/>
</g>
</g>
</svg>
