<?xml version="1.0" encoding="UTF-8" standalone="no"?>
<!DOCTYPE svg PUBLIC "-//W3C//DTD SVG 1.1//EN"
 "http://www.w3.org/Graphics/SVG/1.1/DTD/svg11.dtd">
<!-- Generated by graphviz version 2.38.0 (20140413.2041)
 -->
<!-- Title: scram::mef::Formula::Swap Pages: 1 -->
<svg width="277pt" height="274pt"
 viewBox="0.00 0.00 277.00 274.00" xmlns="http://www.w3.org/2000/svg" xmlns:xlink="http://www.w3.org/1999/xlink">
<g id="graph0" class="graph" transform="scale(1 1) rotate(0) translate(4 270)">
<title>scram::mef::Formula::Swap</title>
<polygon fill="white" stroke="none" points="-4,4 -4,-270 273,-270 273,4 -4,4"/>
<!-- Node1 -->
<g id="node1" class="node"><title>Node1</title>
<polygon fill="#bfbfbf" stroke="black" points="0,-122.5 0,-152.5 116,-152.5 116,-122.5 0,-122.5"/>
<text text-anchor="start" x="8" y="-140.5" font-family="Helvetica,sans-Serif" font-size="10.00">scram::mef::Formula</text>
<text text-anchor="middle" x="58" y="-129.5" font-family="Helvetica,sans-Serif" font-size="10.00">::Swap</text>
</g>
<!-- Node2 -->
<g id="node2" class="node"><title>Node2</title>
<g id="a_node2"><a xlink:href="classscram_1_1mef_1_1Formula_1_1ArgSet.xhtml#a9e35c2fdad19fe30bc9e1ba4ccc8ed93" target="_top" xlink:title="scram::mef::Formula\l::ArgSet::data">
<polygon fill="white" stroke="black" points="152.5,-235.5 152.5,-265.5 268.5,-265.5 268.5,-235.5 152.5,-235.5"/>
<text text-anchor="start" x="160.5" y="-253.5" font-family="Helvetica,sans-Serif" font-size="10.00">scram::mef::Formula</text>
<text text-anchor="middle" x="210.5" y="-242.5" font-family="Helvetica,sans-Serif" font-size="10.00">::ArgSet::data</text>
</a>
</g>
</g>
<!-- Node1&#45;&gt;Node2 -->
<g id="edge1" class="edge"><title>Node1&#45;&gt;Node2</title>
<path fill="none" stroke="midnightblue" d="M71.8714,-152.567C88.7252,-171.564 119.917,-204.299 152,-225.5 154.77,-227.33 157.696,-229.08 160.702,-230.741"/>
<polygon fill="midnightblue" stroke="midnightblue" points="159.387,-234 169.881,-235.454 162.584,-227.773 159.387,-234"/>
</g>
<!-- Node3 -->
<g id="node3" class="node"><title>Node3</title>
<g id="a_node3"><a xlink:href="classscram_1_1mef_1_1Id.xhtml#a7e258c5f6332715d5ed6a3fdbf681a8b" target="_top" xlink:title="scram::mef::Id::id">
<polygon fill="white" stroke="black" points="160.5,-197 160.5,-216 260.5,-216 260.5,-197 160.5,-197"/>
<text text-anchor="middle" x="210.5" y="-204" font-family="Helvetica,sans-Serif" font-size="10.00">scram::mef::Id::id</text>
</a>
</g>
</g>
<!-- Node1&#45;&gt;Node3 -->
<g id="edge2" class="edge"><title>Node1&#45;&gt;Node3</title>
<path fill="none" stroke="midnightblue" d="M84.066,-152.521C102.455,-163.156 128.256,-177.287 152,-187.5 157.01,-189.655 162.351,-191.717 167.682,-193.635"/>
<polygon fill="midnightblue" stroke="midnightblue" points="166.601,-196.964 177.196,-196.921 168.886,-190.348 166.601,-196.964"/>
</g>
<!-- Node4 -->
<g id="node4" class="node"><title>Node4</title>
<g id="a_node4"><a xlink:href="classscram_1_1mef_1_1Formula.xhtml#a306266e72a52153d168abdce3d039368" target="_top" xlink:title="scram::mef::Formula\l::max_number">
<polygon fill="white" stroke="black" points="152.5,-147.5 152.5,-177.5 268.5,-177.5 268.5,-147.5 152.5,-147.5"/>
<text text-anchor="start" x="160.5" y="-165.5" font-family="Helvetica,sans-Serif" font-size="10.00">scram::mef::Formula</text>
<text text-anchor="middle" x="210.5" y="-154.5" font-family="Helvetica,sans-Serif" font-size="10.00">::max_number</text>
</a>
</g>
</g>
<!-- Node1&#45;&gt;Node4 -->
<g id="edge3" class="edge"><title>Node1&#45;&gt;Node4</title>
<path fill="none" stroke="midnightblue" d="M116.327,-147.023C124.805,-148.431 133.606,-149.893 142.263,-151.331"/>
<polygon fill="midnightblue" stroke="midnightblue" points="141.894,-154.818 152.332,-153.004 143.041,-147.912 141.894,-154.818"/>
</g>
<!-- Node5 -->
<g id="node5" class="node"><title>Node5</title>
<g id="a_node5"><a xlink:href="classscram_1_1mef_1_1Formula.xhtml#a7a1e721a74179b966543929fcaabd6af" target="_top" xlink:title="scram::mef::Formula\l::min_number">
<polygon fill="white" stroke="black" points="152.5,-98.5 152.5,-128.5 268.5,-128.5 268.5,-98.5 152.5,-98.5"/>
<text text-anchor="start" x="160.5" y="-116.5" font-family="Helvetica,sans-Serif" font-size="10.00">scram::mef::Formula</text>
<text text-anchor="middle" x="210.5" y="-105.5" font-family="Helvetica,sans-Serif" font-size="10.00">::min_number</text>
</a>
</g>
</g>
<!-- Node1&#45;&gt;Node5 -->
<g id="edge4" class="edge"><title>Node1&#45;&gt;Node5</title>
<path fill="none" stroke="midnightblue" d="M116.327,-128.358C124.805,-127.006 133.606,-125.603 142.263,-124.222"/>
<polygon fill="midnightblue" stroke="midnightblue" points="143.008,-127.648 152.332,-122.616 141.906,-120.735 143.008,-127.648"/>
</g>
<!-- Node6 -->
<g id="node6" class="node"><title>Node6</title>
<g id="a_node6"><a xlink:href="classscram_1_1mef_1_1Element.xhtml#adb401e2ca84aa98cb60797bec2500a81" target="_top" xlink:title="scram::mef::Element\l::name">
<polygon fill="white" stroke="black" points="152,-49.5 152,-79.5 269,-79.5 269,-49.5 152,-49.5"/>
<text text-anchor="start" x="160" y="-67.5" font-family="Helvetica,sans-Serif" font-size="10.00">scram::mef::Element</text>
<text text-anchor="middle" x="210.5" y="-56.5" font-family="Helvetica,sans-Serif" font-size="10.00">::name</text>
</a>
</g>
</g>
<!-- Node1&#45;&gt;Node6 -->
<g id="edge5" class="edge"><title>Node1&#45;&gt;Node6</title>
<path fill="none" stroke="midnightblue" d="M87.2477,-122.301C105.556,-112.605 130.006,-99.943 152,-89.5 156.036,-87.5835 160.256,-85.6389 164.498,-83.7245"/>
<polygon fill="midnightblue" stroke="midnightblue" points="166.041,-86.8686 173.753,-79.6042 163.194,-80.4736 166.041,-86.8686"/>
</g>
<!-- Node7 -->
<g id="node7" class="node"><title>Node7</title>
<g id="a_node7"><a xlink:href="classscram_1_1mef_1_1Usage.xhtml#ae2ee222f7ce6cd4660567ce97d551222" target="_top" xlink:title="scram::mef::Usage::\lusage">
<polygon fill="white" stroke="black" points="153.5,-0.5 153.5,-30.5 267.5,-30.5 267.5,-0.5 153.5,-0.5"/>
<text text-anchor="start" x="161.5" y="-18.5" font-family="Helvetica,sans-Serif" font-size="10.00">scram::mef::Usage::</text>
<text text-anchor="middle" x="210.5" y="-7.5" font-family="Helvetica,sans-Serif" font-size="10.00">usage</text>
</a>
</g>
</g>
<!-- Node1&#45;&gt;Node7 -->
<g id="edge6" class="edge"><title>Node1&#45;&gt;Node7</title>
<path fill="none" stroke="midnightblue" d="M70.422,-122.231C86.6275,-101.434 118.113,-64.0979 152,-40.5 154.553,-38.7223 157.252,-37.0299 160.034,-35.426"/>
<polygon fill="midnightblue" stroke="midnightblue" points="161.923,-38.3858 169.118,-30.6083 158.643,-32.2017 161.923,-38.3858"/>
</g>
</g>
</svg>
