<?xml version="1.0" encoding="UTF-8" standalone="no"?>
<!DOCTYPE svg PUBLIC "-//W3C//DTD SVG 1.1//EN"
 "http://www.w3.org/Graphics/SVG/1.1/DTD/svg11.dtd">
<!-- Generated by graphviz version 2.38.0 (20140413.2041)
 -->
<!-- Title: scram::mef::FaultTree::CollectTopEvents Pages: 1 -->
<svg width="459pt" height="225pt"
 viewBox="0.00 0.00 459.00 225.00" xmlns="http://www.w3.org/2000/svg" xmlns:xlink="http://www.w3.org/1999/xlink">
<g id="graph0" class="graph" transform="scale(1 1) rotate(0) translate(4 221)">
<title>scram::mef::FaultTree::CollectTopEvents</title>
<polygon fill="white" stroke="none" points="-4,4 -4,-221 455,-221 455,4 -4,4"/>
<!-- Node1 -->
<g id="node1" class="node"><title>Node1</title>
<polygon fill="#bfbfbf" stroke="black" points="0,-98.5 0,-128.5 119,-128.5 119,-98.5 0,-98.5"/>
<text text-anchor="start" x="8" y="-116.5" font-family="Helvetica,sans-Serif" font-size="10.00">scram::mef::FaultTree</text>
<text text-anchor="middle" x="59.5" y="-105.5" font-family="Helvetica,sans-Serif" font-size="10.00">::CollectTopEvents</text>
</g>
<!-- Node2 -->
<g id="node2" class="node"><title>Node2</title>
<g id="a_node2"><a xlink:href="classscram_1_1mef_1_1Formula.xhtml#ac850fff7d56305c9cf3a29c5381b502a" target="_top" xlink:title="scram::mef::Formula\l::args">
<polygon fill="white" stroke="black" points="168.5,-186.5 168.5,-216.5 284.5,-216.5 284.5,-186.5 168.5,-186.5"/>
<text text-anchor="start" x="176.5" y="-204.5" font-family="Helvetica,sans-Serif" font-size="10.00">scram::mef::Formula</text>
<text text-anchor="middle" x="226.5" y="-193.5" font-family="Helvetica,sans-Serif" font-size="10.00">::args</text>
</a>
</g>
</g>
<!-- Node1&#45;&gt;Node2 -->
<g id="edge1" class="edge"><title>Node1&#45;&gt;Node2</title>
<path fill="none" stroke="midnightblue" d="M79.9039,-128.522C98.4224,-142.343 127.498,-162.723 155,-176.5 159.274,-178.641 163.777,-180.683 168.354,-182.611"/>
<polygon fill="midnightblue" stroke="midnightblue" points="167.221,-185.927 177.805,-186.402 169.827,-179.43 167.221,-185.927"/>
</g>
<!-- Node3 -->
<g id="node3" class="node"><title>Node3</title>
<g id="a_node3"><a xlink:href="classscram_1_1mef_1_1Gate.xhtml#abde84a63a060e2424ab92431634f21d9" target="_top" xlink:title="scram::mef::Gate::formula">
<polygon fill="white" stroke="black" points="155,-148 155,-167 298,-167 298,-148 155,-148"/>
<text text-anchor="middle" x="226.5" y="-155" font-family="Helvetica,sans-Serif" font-size="10.00">scram::mef::Gate::formula</text>
</a>
</g>
</g>
<!-- Node1&#45;&gt;Node3 -->
<g id="edge2" class="edge"><title>Node1&#45;&gt;Node3</title>
<path fill="none" stroke="midnightblue" d="M116.822,-128.519C137.333,-133.989 160.253,-140.101 179.737,-145.296"/>
<polygon fill="midnightblue" stroke="midnightblue" points="179.017,-148.727 189.581,-147.922 180.821,-141.963 179.017,-148.727"/>
</g>
<!-- Node4 -->
<g id="node4" class="node"><title>Node4</title>
<g id="a_node4"><a xlink:href="classscram_1_1mef_1_1Component.xhtml#ad246305a79904f65b36157096464703b" target="_top" xlink:title="scram::mef::Component\l::gates">
<polygon fill="white" stroke="black" points="159.5,-98.5 159.5,-128.5 293.5,-128.5 293.5,-98.5 159.5,-98.5"/>
<text text-anchor="start" x="167.5" y="-116.5" font-family="Helvetica,sans-Serif" font-size="10.00">scram::mef::Component</text>
<text text-anchor="middle" x="226.5" y="-105.5" font-family="Helvetica,sans-Serif" font-size="10.00">::gates</text>
</a>
</g>
</g>
<!-- Node1&#45;&gt;Node4 -->
<g id="edge3" class="edge"><title>Node1&#45;&gt;Node4</title>
<path fill="none" stroke="midnightblue" d="M119.137,-113.5C128.933,-113.5 139.219,-113.5 149.376,-113.5"/>
<polygon fill="midnightblue" stroke="midnightblue" points="149.467,-117 159.467,-113.5 149.467,-110 149.467,-117"/>
</g>
<!-- Node5 -->
<g id="node5" class="node"><title>Node5</title>
<g id="a_node5"><a xlink:href="classscram_1_1mef_1_1Component.xhtml#a63441da08667fe6826f3ae0c0a5a94fe" target="_top" xlink:title="Recursively traverses components to gather gates relevant to the whole component. ...">
<polygon fill="white" stroke="black" points="159.5,-49.5 159.5,-79.5 293.5,-79.5 293.5,-49.5 159.5,-49.5"/>
<text text-anchor="start" x="167.5" y="-67.5" font-family="Helvetica,sans-Serif" font-size="10.00">scram::mef::Component</text>
<text text-anchor="middle" x="226.5" y="-56.5" font-family="Helvetica,sans-Serif" font-size="10.00">::GatherGates</text>
</a>
</g>
</g>
<!-- Node1&#45;&gt;Node5 -->
<g id="edge4" class="edge"><title>Node1&#45;&gt;Node5</title>
<path fill="none" stroke="midnightblue" d="M111.352,-98.3986C128.369,-93.3449 147.504,-87.6624 165.173,-82.4152"/>
<polygon fill="midnightblue" stroke="midnightblue" points="166.226,-85.7536 174.816,-79.5516 164.233,-79.0433 166.226,-85.7536"/>
</g>
<!-- Node7 -->
<g id="node7" class="node"><title>Node7</title>
<g id="a_node7"><a xlink:href="classscram_1_1mef_1_1NodeMark.xhtml#ae433446a44a3ae40ec411b08916ec4ca" target="_top" xlink:title="scram::mef::NodeMark\l::mark">
<polygon fill="white" stroke="black" points="163.5,-0.5 163.5,-30.5 289.5,-30.5 289.5,-0.5 163.5,-0.5"/>
<text text-anchor="start" x="171.5" y="-18.5" font-family="Helvetica,sans-Serif" font-size="10.00">scram::mef::NodeMark</text>
<text text-anchor="middle" x="226.5" y="-7.5" font-family="Helvetica,sans-Serif" font-size="10.00">::mark</text>
</a>
</g>
</g>
<!-- Node1&#45;&gt;Node7 -->
<g id="edge6" class="edge"><title>Node1&#45;&gt;Node7</title>
<path fill="none" stroke="midnightblue" d="M76.7769,-98.2993C94.763,-82.159 125.151,-56.7779 155,-40.5 158.889,-38.3792 162.993,-36.3798 167.186,-34.507"/>
<polygon fill="midnightblue" stroke="midnightblue" points="168.595,-37.7117 176.458,-30.6115 165.883,-31.2581 168.595,-37.7117"/>
</g>
<!-- Node6 -->
<g id="node6" class="node"><title>Node6</title>
<g id="a_node6"><a xlink:href="classscram_1_1mef_1_1Element.xhtml#adb401e2ca84aa98cb60797bec2500a81" target="_top" xlink:title="scram::mef::Element\l::name">
<polygon fill="white" stroke="black" points="334,-49.5 334,-79.5 451,-79.5 451,-49.5 334,-49.5"/>
<text text-anchor="start" x="342" y="-67.5" font-family="Helvetica,sans-Serif" font-size="10.00">scram::mef::Element</text>
<text text-anchor="middle" x="392.5" y="-56.5" font-family="Helvetica,sans-Serif" font-size="10.00">::name</text>
</a>
</g>
</g>
<!-- Node5&#45;&gt;Node6 -->
<g id="edge5" class="edge"><title>Node5&#45;&gt;Node6</title>
<path fill="none" stroke="midnightblue" d="M293.732,-64.5C303.629,-64.5 313.845,-64.5 323.772,-64.5"/>
<polygon fill="midnightblue" stroke="midnightblue" points="323.988,-68.0001 333.988,-64.5 323.988,-61.0001 323.988,-68.0001"/>
</g>
</g>
</svg>
