<?xml version="1.0" encoding="UTF-8" standalone="no"?>
<!DOCTYPE svg PUBLIC "-//W3C//DTD SVG 1.1//EN"
 "http://www.w3.org/Graphics/SVG/1.1/DTD/svg11.dtd">
<!-- Generated by graphviz version 2.38.0 (20140413.2041)
 -->
<!-- Title: scram::mef::Id Pages: 1 -->
<svg width="1075pt" height="976pt"
 viewBox="0.00 0.00 1074.50 976.00" xmlns="http://www.w3.org/2000/svg" xmlns:xlink="http://www.w3.org/1999/xlink">
<g id="graph0" class="graph" transform="scale(1 1) rotate(0) translate(4 972)">
<title>scram::mef::Id</title>
<polygon fill="white" stroke="none" points="-4,4 -4,-972 1070.5,-972 1070.5,4 -4,4"/>
<!-- Node1 -->
<g id="node1" class="node"><title>Node1</title>
<polygon fill="#bfbfbf" stroke="black" points="745.5,-524.5 745.5,-658.5 846.5,-658.5 846.5,-524.5 745.5,-524.5"/>
<text text-anchor="middle" x="796" y="-646.5" font-family="Helvetica,sans-Serif" font-size="10.00">scram::mef::Id</text>
<polyline fill="none" stroke="black" points="745.5,-639.5 846.5,-639.5 "/>
<text text-anchor="middle" x="796" y="-627.5" font-family="Helvetica,sans-Serif" font-size="10.00"> </text>
<polyline fill="none" stroke="black" points="745.5,-620.5 846.5,-620.5 "/>
<text text-anchor="start" x="753.5" y="-608.5" font-family="Helvetica,sans-Serif" font-size="10.00">+ Id()</text>
<text text-anchor="start" x="753.5" y="-597.5" font-family="Helvetica,sans-Serif" font-size="10.00">+ id()</text>
<text text-anchor="start" x="753.5" y="-586.5" font-family="Helvetica,sans-Serif" font-size="10.00">+ id()</text>
<text text-anchor="start" x="753.5" y="-575.5" font-family="Helvetica,sans-Serif" font-size="10.00">+ unique_name()</text>
<text text-anchor="start" x="753.5" y="-564.5" font-family="Helvetica,sans-Serif" font-size="10.00">+ unique_name()</text>
<text text-anchor="start" x="753.5" y="-553.5" font-family="Helvetica,sans-Serif" font-size="10.00"># ~Id()</text>
<text text-anchor="start" x="753.5" y="-542.5" font-family="Helvetica,sans-Serif" font-size="10.00">* unique_name()</text>
<text text-anchor="start" x="753.5" y="-531.5" font-family="Helvetica,sans-Serif" font-size="10.00">* unique_name()</text>
</g>
<!-- Node5 -->
<g id="node5" class="node"><title>Node5</title>
<g id="a_node5"><a xlink:href="classscram_1_1mef_1_1CcfGroup.xhtml" target="_top" xlink:title="Abstract base class for all common cause failure models. ">
<polygon fill="white" stroke="black" points="356,-298.5 356,-487.5 478,-487.5 478,-298.5 356,-298.5"/>
<text text-anchor="middle" x="417" y="-475.5" font-family="Helvetica,sans-Serif" font-size="10.00">scram::mef::CcfGroup</text>
<polyline fill="none" stroke="black" points="356,-468.5 478,-468.5 "/>
<text text-anchor="middle" x="417" y="-456.5" font-family="Helvetica,sans-Serif" font-size="10.00"> </text>
<polyline fill="none" stroke="black" points="356,-449.5 478,-449.5 "/>
<text text-anchor="start" x="364" y="-437.5" font-family="Helvetica,sans-Serif" font-size="10.00">+ ~CcfGroup()</text>
<text text-anchor="start" x="364" y="-426.5" font-family="Helvetica,sans-Serif" font-size="10.00">+ members()</text>
<text text-anchor="start" x="364" y="-415.5" font-family="Helvetica,sans-Serif" font-size="10.00">+ AddMember()</text>
<text text-anchor="start" x="364" y="-404.5" font-family="Helvetica,sans-Serif" font-size="10.00">+ AddDistribution()</text>
<text text-anchor="start" x="364" y="-393.5" font-family="Helvetica,sans-Serif" font-size="10.00">+ AddFactor()</text>
<text text-anchor="start" x="364" y="-382.5" font-family="Helvetica,sans-Serif" font-size="10.00">+ Validate()</text>
<text text-anchor="start" x="364" y="-371.5" font-family="Helvetica,sans-Serif" font-size="10.00">+ ApplyModel()</text>
<text text-anchor="start" x="364" y="-360.5" font-family="Helvetica,sans-Serif" font-size="10.00"># distribution()</text>
<text text-anchor="start" x="364" y="-349.5" font-family="Helvetica,sans-Serif" font-size="10.00"># factors()</text>
<text text-anchor="start" x="364" y="-338.5" font-family="Helvetica,sans-Serif" font-size="10.00"># Register()</text>
<text text-anchor="start" x="364" y="-327.5" font-family="Helvetica,sans-Serif" font-size="10.00"># Register()</text>
<text text-anchor="start" x="364" y="-316.5" font-family="Helvetica,sans-Serif" font-size="10.00">* Register()</text>
<text text-anchor="start" x="364" y="-305.5" font-family="Helvetica,sans-Serif" font-size="10.00">* Register()</text>
</a>
</g>
</g>
<!-- Node1&#45;&gt;Node5 -->
<g id="edge4" class="edge"><title>Node1&#45;&gt;Node5</title>
<path fill="none" stroke="midnightblue" d="M736.067,-559.426C665.545,-522.863 549.088,-462.483 478.075,-425.665"/>
<polygon fill="none" stroke="midnightblue" points="734.791,-562.707 745.28,-564.203 738.013,-556.493 734.791,-562.707"/>
</g>
<!-- Node10 -->
<g id="node10" class="node"><title>Node10</title>
<g id="a_node10"><a xlink:href="classscram_1_1mef_1_1Event.xhtml" target="_top" xlink:title="Abstract base class for general fault tree events. ">
<polygon fill="white" stroke="black" points="744,-364.5 744,-421.5 848,-421.5 848,-364.5 744,-364.5"/>
<text text-anchor="middle" x="796" y="-409.5" font-family="Helvetica,sans-Serif" font-size="10.00">scram::mef::Event</text>
<polyline fill="none" stroke="black" points="744,-402.5 848,-402.5 "/>
<text text-anchor="middle" x="796" y="-390.5" font-family="Helvetica,sans-Serif" font-size="10.00"> </text>
<polyline fill="none" stroke="black" points="744,-383.5 848,-383.5 "/>
<text text-anchor="start" x="752" y="-371.5" font-family="Helvetica,sans-Serif" font-size="10.00">+ ~Event()</text>
</a>
</g>
</g>
<!-- Node1&#45;&gt;Node10 -->
<g id="edge9" class="edge"><title>Node1&#45;&gt;Node10</title>
<path fill="none" stroke="midnightblue" d="M796,-513.844C796,-481.381 796,-445.611 796,-421.674"/>
<polygon fill="none" stroke="midnightblue" points="792.5,-514.248 796,-524.248 799.5,-514.248 792.5,-514.248"/>
</g>
<!-- Node15 -->
<g id="node15" class="node"><title>Node15</title>
<g id="a_node15"><a xlink:href="classscram_1_1mef_1_1Parameter.xhtml" target="_top" xlink:title="This class provides a representation of a variable in basic event description. ">
<polygon fill="white" stroke="black" points="866,-342.5 866,-443.5 994,-443.5 994,-342.5 866,-342.5"/>
<text text-anchor="middle" x="930" y="-431.5" font-family="Helvetica,sans-Serif" font-size="10.00">scram::mef::Parameter</text>
<polyline fill="none" stroke="black" points="866,-424.5 994,-424.5 "/>
<text text-anchor="middle" x="930" y="-412.5" font-family="Helvetica,sans-Serif" font-size="10.00"> </text>
<polyline fill="none" stroke="black" points="866,-405.5 994,-405.5 "/>
<text text-anchor="start" x="874" y="-393.5" font-family="Helvetica,sans-Serif" font-size="10.00">+ expression()</text>
<text text-anchor="start" x="874" y="-382.5" font-family="Helvetica,sans-Serif" font-size="10.00">+ unit()</text>
<text text-anchor="start" x="874" y="-371.5" font-family="Helvetica,sans-Serif" font-size="10.00">+ unit()</text>
<text text-anchor="start" x="874" y="-360.5" font-family="Helvetica,sans-Serif" font-size="10.00">+ value()</text>
<text text-anchor="start" x="874" y="-349.5" font-family="Helvetica,sans-Serif" font-size="10.00">+ interval()</text>
</a>
</g>
</g>
<!-- Node1&#45;&gt;Node15 -->
<g id="edge14" class="edge"><title>Node1&#45;&gt;Node15</title>
<path fill="none" stroke="midnightblue" d="M846.949,-515.788C863.442,-491.602 881.314,-465.394 896.239,-443.507"/>
<polygon fill="none" stroke="midnightblue" points="843.922,-514.014 841.179,-524.248 849.705,-517.958 843.922,-514.014"/>
</g>
<!-- Node2 -->
<g id="node2" class="node"><title>Node2</title>
<g id="a_node2"><a xlink:href="classscram_1_1mef_1_1Element.xhtml" target="_top" xlink:title="Mixin class that represents any element of analysis that can have extra descriptions, such as attributes and a label. ">
<polygon fill="white" stroke="black" points="675.5,-695.5 675.5,-873.5 792.5,-873.5 792.5,-695.5 675.5,-695.5"/>
<text text-anchor="middle" x="734" y="-861.5" font-family="Helvetica,sans-Serif" font-size="10.00">scram::mef::Element</text>
<polyline fill="none" stroke="black" points="675.5,-854.5 792.5,-854.5 "/>
<text text-anchor="middle" x="734" y="-842.5" font-family="Helvetica,sans-Serif" font-size="10.00"> </text>
<polyline fill="none" stroke="black" points="675.5,-835.5 792.5,-835.5 "/>
<text text-anchor="start" x="683.5" y="-823.5" font-family="Helvetica,sans-Serif" font-size="10.00">+ Element()</text>
<text text-anchor="start" x="683.5" y="-812.5" font-family="Helvetica,sans-Serif" font-size="10.00">+ name()</text>
<text text-anchor="start" x="683.5" y="-801.5" font-family="Helvetica,sans-Serif" font-size="10.00">+ label()</text>
<text text-anchor="start" x="683.5" y="-790.5" font-family="Helvetica,sans-Serif" font-size="10.00">+ label()</text>
<text text-anchor="start" x="683.5" y="-779.5" font-family="Helvetica,sans-Serif" font-size="10.00">+ attributes()</text>
<text text-anchor="start" x="683.5" y="-768.5" font-family="Helvetica,sans-Serif" font-size="10.00">+ AddAttribute()</text>
<text text-anchor="start" x="683.5" y="-757.5" font-family="Helvetica,sans-Serif" font-size="10.00">+ SetAttribute()</text>
<text text-anchor="start" x="683.5" y="-746.5" font-family="Helvetica,sans-Serif" font-size="10.00">+ HasAttribute()</text>
<text text-anchor="start" x="683.5" y="-735.5" font-family="Helvetica,sans-Serif" font-size="10.00">+ GetAttribute()</text>
<text text-anchor="start" x="683.5" y="-724.5" font-family="Helvetica,sans-Serif" font-size="10.00">+ RemoveAttribute()</text>
<text text-anchor="start" x="683.5" y="-713.5" font-family="Helvetica,sans-Serif" font-size="10.00"># ~Element()</text>
<text text-anchor="start" x="683.5" y="-702.5" font-family="Helvetica,sans-Serif" font-size="10.00"># name()</text>
</a>
</g>
</g>
<!-- Node2&#45;&gt;Node1 -->
<g id="edge1" class="edge"><title>Node2&#45;&gt;Node1</title>
<path fill="none" stroke="midnightblue" d="M765.739,-685.724C768.713,-676.562 771.678,-667.428 774.524,-658.66"/>
<polygon fill="none" stroke="midnightblue" points="762.399,-684.676 762.641,-695.268 769.057,-686.837 762.399,-684.676"/>
</g>
<!-- Node3 -->
<g id="node3" class="node"><title>Node3</title>
<polygon fill="white" stroke="#bfbfbf" points="695.5,-910.5 695.5,-967.5 772.5,-967.5 772.5,-910.5 695.5,-910.5"/>
<text text-anchor="middle" x="734" y="-955.5" font-family="Helvetica,sans-Serif" font-size="10.00">noncopyable</text>
<polyline fill="none" stroke="#bfbfbf" points="695.5,-948.5 772.5,-948.5 "/>
<text text-anchor="middle" x="734" y="-936.5" font-family="Helvetica,sans-Serif" font-size="10.00"> </text>
<polyline fill="none" stroke="#bfbfbf" points="695.5,-929.5 772.5,-929.5 "/>
<text text-anchor="middle" x="734" y="-917.5" font-family="Helvetica,sans-Serif" font-size="10.00"> </text>
</g>
<!-- Node3&#45;&gt;Node2 -->
<g id="edge2" class="edge"><title>Node3&#45;&gt;Node2</title>
<path fill="none" stroke="#8b1a1a" d="M734,-900.374C734,-892.089 734,-882.977 734,-873.62"/>
<polygon fill="none" stroke="#8b1a1a" points="730.5,-900.383 734,-910.383 737.5,-900.383 730.5,-900.383"/>
</g>
<!-- Node4 -->
<g id="node4" class="node"><title>Node4</title>
<g id="a_node4"><a xlink:href="classscram_1_1mef_1_1Role.xhtml" target="_top" xlink:title="Mixin class that manages private or public roles for elements as needed. ">
<polygon fill="white" stroke="black" points="810.5,-739.5 810.5,-829.5 907.5,-829.5 907.5,-739.5 810.5,-739.5"/>
<text text-anchor="middle" x="859" y="-817.5" font-family="Helvetica,sans-Serif" font-size="10.00">scram::mef::Role</text>
<polyline fill="none" stroke="black" points="810.5,-810.5 907.5,-810.5 "/>
<text text-anchor="middle" x="859" y="-798.5" font-family="Helvetica,sans-Serif" font-size="10.00"> </text>
<polyline fill="none" stroke="black" points="810.5,-791.5 907.5,-791.5 "/>
<text text-anchor="start" x="818.5" y="-779.5" font-family="Helvetica,sans-Serif" font-size="10.00">+ Role()</text>
<text text-anchor="start" x="818.5" y="-768.5" font-family="Helvetica,sans-Serif" font-size="10.00">+ role()</text>
<text text-anchor="start" x="818.5" y="-757.5" font-family="Helvetica,sans-Serif" font-size="10.00">+ base_path()</text>
<text text-anchor="start" x="818.5" y="-746.5" font-family="Helvetica,sans-Serif" font-size="10.00"># ~Role()</text>
</a>
</g>
</g>
<!-- Node4&#45;&gt;Node1 -->
<g id="edge3" class="edge"><title>Node4&#45;&gt;Node1</title>
<path fill="none" stroke="midnightblue" d="M841.245,-729.67C833.968,-707.61 825.475,-681.86 817.824,-658.666"/>
<polygon fill="none" stroke="midnightblue" points="837.932,-730.8 844.388,-739.201 844.58,-728.608 837.932,-730.8"/>
</g>
<!-- Node6 -->
<g id="node6" class="node"><title>Node6</title>
<g id="a_node6"><a xlink:href="classscram_1_1mef_1_1AlphaFactorModel.xhtml" target="_top" xlink:title="Alpha factor model characterizes failure of exactly k members of the group due to common cause...">
<polygon fill="white" stroke="black" points="0,-160.5 0,-217.5 162,-217.5 162,-160.5 0,-160.5"/>
<text text-anchor="middle" x="81" y="-205.5" font-family="Helvetica,sans-Serif" font-size="10.00">scram::mef::AlphaFactorModel</text>
<polyline fill="none" stroke="black" points="0,-198.5 162,-198.5 "/>
<text text-anchor="middle" x="81" y="-186.5" font-family="Helvetica,sans-Serif" font-size="10.00"> </text>
<polyline fill="none" stroke="black" points="0,-179.5 162,-179.5 "/>
<text text-anchor="middle" x="81" y="-167.5" font-family="Helvetica,sans-Serif" font-size="10.00"> </text>
</a>
</g>
</g>
<!-- Node5&#45;&gt;Node6 -->
<g id="edge5" class="edge"><title>Node5&#45;&gt;Node6</title>
<path fill="none" stroke="midnightblue" d="M346.623,-359.222C296.314,-334.744 227.755,-299.22 171,-262 150.586,-248.613 129.189,-231.633 112.383,-217.525"/>
<polygon fill="none" stroke="midnightblue" points="345.271,-362.456 355.797,-363.662 348.321,-356.155 345.271,-362.456"/>
</g>
<!-- Node7 -->
<g id="node7" class="node"><title>Node7</title>
<g id="a_node7"><a xlink:href="classscram_1_1mef_1_1BetaFactorModel.xhtml" target="_top" xlink:title="Common cause failure model that assumes, if common cause failure occurs, then all components or membe...">
<polygon fill="white" stroke="black" points="180,-160.5 180,-217.5 338,-217.5 338,-160.5 180,-160.5"/>
<text text-anchor="middle" x="259" y="-205.5" font-family="Helvetica,sans-Serif" font-size="10.00">scram::mef::BetaFactorModel</text>
<polyline fill="none" stroke="black" points="180,-198.5 338,-198.5 "/>
<text text-anchor="middle" x="259" y="-186.5" font-family="Helvetica,sans-Serif" font-size="10.00"> </text>
<polyline fill="none" stroke="black" points="180,-179.5 338,-179.5 "/>
<text text-anchor="middle" x="259" y="-167.5" font-family="Helvetica,sans-Serif" font-size="10.00"> </text>
</a>
</g>
</g>
<!-- Node5&#45;&gt;Node7 -->
<g id="edge6" class="edge"><title>Node5&#45;&gt;Node7</title>
<path fill="none" stroke="midnightblue" d="M349.639,-305.88C324.804,-274.129 298.4,-240.372 280.536,-217.533"/>
<polygon fill="none" stroke="midnightblue" points="346.995,-308.181 355.913,-313.902 352.509,-303.868 346.995,-308.181"/>
</g>
<!-- Node8 -->
<g id="node8" class="node"><title>Node8</title>
<g id="a_node8"><a xlink:href="classscram_1_1mef_1_1MglModel.xhtml" target="_top" xlink:title="Multiple Greek Letters model characterizes failure of sub&#45;groups of the group due to common cause...">
<polygon fill="white" stroke="black" points="356,-160.5 356,-217.5 478,-217.5 478,-160.5 356,-160.5"/>
<text text-anchor="middle" x="417" y="-205.5" font-family="Helvetica,sans-Serif" font-size="10.00">scram::mef::MglModel</text>
<polyline fill="none" stroke="black" points="356,-198.5 478,-198.5 "/>
<text text-anchor="middle" x="417" y="-186.5" font-family="Helvetica,sans-Serif" font-size="10.00"> </text>
<polyline fill="none" stroke="black" points="356,-179.5 478,-179.5 "/>
<text text-anchor="middle" x="417" y="-167.5" font-family="Helvetica,sans-Serif" font-size="10.00"> </text>
</a>
</g>
</g>
<!-- Node5&#45;&gt;Node8 -->
<g id="edge7" class="edge"><title>Node5&#45;&gt;Node8</title>
<path fill="none" stroke="midnightblue" d="M417,-288.069C417,-262.142 417,-236.473 417,-217.903"/>
<polygon fill="none" stroke="midnightblue" points="413.5,-288.392 417,-298.392 420.5,-288.392 413.5,-288.392"/>
</g>
<!-- Node9 -->
<g id="node9" class="node"><title>Node9</title>
<g id="a_node9"><a xlink:href="classscram_1_1mef_1_1PhiFactorModel.xhtml" target="_top" xlink:title="Phi factor model is a simplification, where fractions of k&#45;member group failure is given directly...">
<polygon fill="white" stroke="black" points="496.5,-160.5 496.5,-217.5 645.5,-217.5 645.5,-160.5 496.5,-160.5"/>
<text text-anchor="middle" x="571" y="-205.5" font-family="Helvetica,sans-Serif" font-size="10.00">scram::mef::PhiFactorModel</text>
<polyline fill="none" stroke="black" points="496.5,-198.5 645.5,-198.5 "/>
<text text-anchor="middle" x="571" y="-186.5" font-family="Helvetica,sans-Serif" font-size="10.00"> </text>
<polyline fill="none" stroke="black" points="496.5,-179.5 645.5,-179.5 "/>
<text text-anchor="middle" x="571" y="-167.5" font-family="Helvetica,sans-Serif" font-size="10.00"> </text>
</a>
</g>
</g>
<!-- Node5&#45;&gt;Node9 -->
<g id="edge8" class="edge"><title>Node5&#45;&gt;Node9</title>
<path fill="none" stroke="midnightblue" d="M484.369,-303.632C507.94,-272.714 532.735,-240.192 549.729,-217.901"/>
<polygon fill="none" stroke="midnightblue" points="481.366,-301.8 478.086,-311.874 486.932,-306.044 481.366,-301.8"/>
</g>
<!-- Node11 -->
<g id="node11" class="node"><title>Node11</title>
<g id="a_node11"><a xlink:href="classscram_1_1mef_1_1BasicEvent.xhtml" target="_top" xlink:title="Representation of a basic event in a fault tree. ">
<polygon fill="white" stroke="black" points="664,-116.5 664,-261.5 794,-261.5 794,-116.5 664,-116.5"/>
<text text-anchor="middle" x="729" y="-249.5" font-family="Helvetica,sans-Serif" font-size="10.00">scram::mef::BasicEvent</text>
<polyline fill="none" stroke="black" points="664,-242.5 794,-242.5 "/>
<text text-anchor="middle" x="729" y="-230.5" font-family="Helvetica,sans-Serif" font-size="10.00"> </text>
<polyline fill="none" stroke="black" points="664,-223.5 794,-223.5 "/>
<text text-anchor="start" x="672" y="-211.5" font-family="Helvetica,sans-Serif" font-size="10.00">+ ~BasicEvent()</text>
<text text-anchor="start" x="672" y="-200.5" font-family="Helvetica,sans-Serif" font-size="10.00">+ HasExpression()</text>
<text text-anchor="start" x="672" y="-189.5" font-family="Helvetica,sans-Serif" font-size="10.00">+ expression()</text>
<text text-anchor="start" x="672" y="-178.5" font-family="Helvetica,sans-Serif" font-size="10.00">+ expression()</text>
<text text-anchor="start" x="672" y="-167.5" font-family="Helvetica,sans-Serif" font-size="10.00">+ p()</text>
<text text-anchor="start" x="672" y="-156.5" font-family="Helvetica,sans-Serif" font-size="10.00">+ Validate()</text>
<text text-anchor="start" x="672" y="-145.5" font-family="Helvetica,sans-Serif" font-size="10.00">+ HasCcf()</text>
<text text-anchor="start" x="672" y="-134.5" font-family="Helvetica,sans-Serif" font-size="10.00">+ ccf_gate()</text>
<text text-anchor="start" x="672" y="-123.5" font-family="Helvetica,sans-Serif" font-size="10.00">+ ccf_gate()</text>
</a>
</g>
</g>
<!-- Node10&#45;&gt;Node11 -->
<g id="edge10" class="edge"><title>Node10&#45;&gt;Node11</title>
<path fill="none" stroke="midnightblue" d="M783.563,-354.503C774.93,-328.475 763.157,-292.979 752.756,-261.622"/>
<polygon fill="none" stroke="midnightblue" points="780.354,-355.947 786.824,-364.336 786.998,-353.743 780.354,-355.947"/>
</g>
<!-- Node13 -->
<g id="node13" class="node"><title>Node13</title>
<g id="a_node13"><a xlink:href="classscram_1_1mef_1_1Gate.xhtml" target="_top" xlink:title="A representation of a gate in a fault tree. ">
<polygon fill="white" stroke="black" points="812.5,-133 812.5,-245 913.5,-245 913.5,-133 812.5,-133"/>
<text text-anchor="middle" x="863" y="-233" font-family="Helvetica,sans-Serif" font-size="10.00">scram::mef::Gate</text>
<polyline fill="none" stroke="black" points="812.5,-226 913.5,-226 "/>
<text text-anchor="middle" x="863" y="-214" font-family="Helvetica,sans-Serif" font-size="10.00"> </text>
<polyline fill="none" stroke="black" points="812.5,-207 913.5,-207 "/>
<text text-anchor="start" x="820.5" y="-195" font-family="Helvetica,sans-Serif" font-size="10.00">+ HasFormula()</text>
<text text-anchor="start" x="820.5" y="-184" font-family="Helvetica,sans-Serif" font-size="10.00">+ formula()</text>
<text text-anchor="start" x="820.5" y="-173" font-family="Helvetica,sans-Serif" font-size="10.00">+ formula()</text>
<text text-anchor="start" x="820.5" y="-162" font-family="Helvetica,sans-Serif" font-size="10.00">+ formula()</text>
<text text-anchor="start" x="820.5" y="-151" font-family="Helvetica,sans-Serif" font-size="10.00">* formula()</text>
<text text-anchor="start" x="820.5" y="-140" font-family="Helvetica,sans-Serif" font-size="10.00">* formula()</text>
</a>
</g>
</g>
<!-- Node10&#45;&gt;Node13 -->
<g id="edge12" class="edge"><title>Node10&#45;&gt;Node13</title>
<path fill="none" stroke="midnightblue" d="M808.455,-354.45C818.65,-323.711 833.216,-279.796 844.732,-245.077"/>
<polygon fill="none" stroke="midnightblue" points="805.002,-353.743 805.176,-364.336 811.646,-355.947 805.002,-353.743"/>
</g>
<!-- Node14 -->
<g id="node14" class="node"><title>Node14</title>
<g id="a_node14"><a xlink:href="classscram_1_1mef_1_1HouseEvent.xhtml" target="_top" xlink:title="Representation of a house event in a fault tree. ">
<polygon fill="white" stroke="black" points="931.5,-144 931.5,-234 1066.5,-234 1066.5,-144 931.5,-144"/>
<text text-anchor="middle" x="999" y="-222" font-family="Helvetica,sans-Serif" font-size="10.00">scram::mef::HouseEvent</text>
<polyline fill="none" stroke="black" points="931.5,-215 1066.5,-215 "/>
<text text-anchor="start" x="939.5" y="-203" font-family="Helvetica,sans-Serif" font-size="10.00">+ kTrue</text>
<text text-anchor="start" x="939.5" y="-192" font-family="Helvetica,sans-Serif" font-size="10.00">+ kFalse</text>
<polyline fill="none" stroke="black" points="931.5,-185 1066.5,-185 "/>
<text text-anchor="start" x="939.5" y="-173" font-family="Helvetica,sans-Serif" font-size="10.00">+ HouseEvent()</text>
<text text-anchor="start" x="939.5" y="-162" font-family="Helvetica,sans-Serif" font-size="10.00">+ state()</text>
<text text-anchor="start" x="939.5" y="-151" font-family="Helvetica,sans-Serif" font-size="10.00">+ state()</text>
</a>
</g>
</g>
<!-- Node10&#45;&gt;Node14 -->
<g id="edge13" class="edge"><title>Node10&#45;&gt;Node14</title>
<path fill="none" stroke="midnightblue" d="M814.143,-355.412C824.76,-336.617 839.515,-314.305 857,-298 881.152,-275.478 895.293,-281.424 922,-262 933.397,-253.711 944.904,-243.895 955.424,-234.219"/>
<polygon fill="none" stroke="midnightblue" points="811.002,-353.862 809.27,-364.314 817.142,-357.223 811.002,-353.862"/>
</g>
<!-- Node12 -->
<g id="node12" class="node"><title>Node12</title>
<g id="a_node12"><a xlink:href="classscram_1_1mef_1_1CcfEvent.xhtml" target="_top" xlink:title="A basic event that represents a multiple failure of a group of events due to a common cause...">
<polygon fill="white" stroke="black" points="669.5,-0.5 669.5,-79.5 788.5,-79.5 788.5,-0.5 669.5,-0.5"/>
<text text-anchor="middle" x="729" y="-67.5" font-family="Helvetica,sans-Serif" font-size="10.00">scram::mef::CcfEvent</text>
<polyline fill="none" stroke="black" points="669.5,-60.5 788.5,-60.5 "/>
<text text-anchor="middle" x="729" y="-48.5" font-family="Helvetica,sans-Serif" font-size="10.00"> </text>
<polyline fill="none" stroke="black" points="669.5,-41.5 788.5,-41.5 "/>
<text text-anchor="start" x="677.5" y="-29.5" font-family="Helvetica,sans-Serif" font-size="10.00">+ CcfEvent()</text>
<text text-anchor="start" x="677.5" y="-18.5" font-family="Helvetica,sans-Serif" font-size="10.00">+ ccf_group()</text>
<text text-anchor="start" x="677.5" y="-7.5" font-family="Helvetica,sans-Serif" font-size="10.00">+ members()</text>
</a>
</g>
</g>
<!-- Node11&#45;&gt;Node12 -->
<g id="edge11" class="edge"><title>Node11&#45;&gt;Node12</title>
<path fill="none" stroke="midnightblue" d="M729,-105.954C729,-96.8992 729,-88.0195 729,-79.875"/>
<polygon fill="none" stroke="midnightblue" points="725.5,-106.222 729,-116.223 732.5,-106.223 725.5,-106.222"/>
</g>
</g>
</svg>
