<?xml version="1.0" encoding="UTF-8" standalone="no"?>
<!DOCTYPE svg PUBLIC "-//W3C//DTD SVG 1.1//EN"
 "http://www.w3.org/Graphics/SVG/1.1/DTD/svg11.dtd">
<!-- Generated by graphviz version 2.38.0 (20140413.2041)
 -->
<!-- Title: scram::mef::Formula::ArgSet::Add Pages: 1 -->
<svg width="277pt" height="127pt"
 viewBox="0.00 0.00 277.00 126.50" xmlns="http://www.w3.org/2000/svg" xmlns:xlink="http://www.w3.org/1999/xlink">
<g id="graph0" class="graph" transform="scale(1 1) rotate(0) translate(4 122.5)">
<title>scram::mef::Formula::ArgSet::Add</title>
<polygon fill="white" stroke="none" points="-4,4 -4,-122.5 273,-122.5 273,4 -4,4"/>
<!-- Node1 -->
<g id="node1" class="node"><title>Node1</title>
<polygon fill="#bfbfbf" stroke="black" points="0,-49.5 0,-79.5 116,-79.5 116,-49.5 0,-49.5"/>
<text text-anchor="start" x="8" y="-67.5" font-family="Helvetica,sans-Serif" font-size="10.00">scram::mef::Formula</text>
<text text-anchor="middle" x="58" y="-56.5" font-family="Helvetica,sans-Serif" font-size="10.00">::ArgSet::Add</text>
</g>
<!-- Node2 -->
<g id="node2" class="node"><title>Node2</title>
<g id="a_node2"><a xlink:href="classscram_1_1mef_1_1Id.xhtml#a7e258c5f6332715d5ed6a3fdbf681a8b" target="_top" xlink:title="scram::mef::Id::id">
<polygon fill="white" stroke="black" points="160.5,-99 160.5,-118 260.5,-118 260.5,-99 160.5,-99"/>
<text text-anchor="middle" x="210.5" y="-106" font-family="Helvetica,sans-Serif" font-size="10.00">scram::mef::Id::id</text>
</a>
</g>
</g>
<!-- Node1&#45;&gt;Node2 -->
<g id="edge1" class="edge"><title>Node1&#45;&gt;Node2</title>
<path fill="none" stroke="midnightblue" d="M110.373,-79.5192C128.738,-84.8885 149.22,-90.8766 166.777,-96.0095"/>
<polygon fill="midnightblue" stroke="midnightblue" points="166.158,-99.4749 176.738,-98.9217 168.122,-92.7561 166.158,-99.4749"/>
</g>
<!-- Node3 -->
<g id="node3" class="node"><title>Node3</title>
<g id="a_node3"><a xlink:href="classscram_1_1mef_1_1Element.xhtml#adb401e2ca84aa98cb60797bec2500a81" target="_top" xlink:title="scram::mef::Element\l::name">
<polygon fill="white" stroke="black" points="152,-49.5 152,-79.5 269,-79.5 269,-49.5 152,-49.5"/>
<text text-anchor="start" x="160" y="-67.5" font-family="Helvetica,sans-Serif" font-size="10.00">scram::mef::Element</text>
<text text-anchor="middle" x="210.5" y="-56.5" font-family="Helvetica,sans-Serif" font-size="10.00">::name</text>
</a>
</g>
</g>
<!-- Node1&#45;&gt;Node3 -->
<g id="edge2" class="edge"><title>Node1&#45;&gt;Node3</title>
<path fill="none" stroke="midnightblue" d="M116.327,-64.5C124.595,-64.5 133.169,-64.5 141.619,-64.5"/>
<polygon fill="midnightblue" stroke="midnightblue" points="141.834,-68.0001 151.834,-64.5 141.834,-61.0001 141.834,-68.0001"/>
</g>
<!-- Node4 -->
<g id="node4" class="node"><title>Node4</title>
<g id="a_node4"><a xlink:href="classscram_1_1mef_1_1Usage.xhtml#ae2ee222f7ce6cd4660567ce97d551222" target="_top" xlink:title="scram::mef::Usage::\lusage">
<polygon fill="white" stroke="black" points="153.5,-0.5 153.5,-30.5 267.5,-30.5 267.5,-0.5 153.5,-0.5"/>
<text text-anchor="start" x="161.5" y="-18.5" font-family="Helvetica,sans-Serif" font-size="10.00">scram::mef::Usage::</text>
<text text-anchor="middle" x="210.5" y="-7.5" font-family="Helvetica,sans-Serif" font-size="10.00">usage</text>
</a>
</g>
</g>
<!-- Node1&#45;&gt;Node4 -->
<g id="edge3" class="edge"><title>Node1&#45;&gt;Node4</title>
<path fill="none" stroke="midnightblue" d="M105.383,-49.3986C120.618,-44.4385 137.713,-38.8726 153.578,-33.7071"/>
<polygon fill="midnightblue" stroke="midnightblue" points="154.845,-36.9756 163.27,-30.5516 152.678,-30.3195 154.845,-36.9756"/>
</g>
</g>
</svg>
