<?xml version="1.0" encoding="UTF-8" standalone="no"?>
<!DOCTYPE svg PUBLIC "-//W3C//DTD SVG 1.1//EN"
 "http://www.w3.org/Graphics/SVG/1.1/DTD/svg11.dtd">
<!-- Generated by graphviz version 2.38.0 (20140413.2041)
 -->
<!-- Title: cycle.h Pages: 1 -->
<svg width="2059pt" height="330pt"
 viewBox="0.00 0.00 2059.00 330.00" xmlns="http://www.w3.org/2000/svg" xmlns:xlink="http://www.w3.org/1999/xlink">
<g id="graph0" class="graph" transform="scale(1 1) rotate(0) translate(4 326)">
<title>cycle.h</title>
<polygon fill="white" stroke="none" points="-4,4 -4,-326 2055,-326 2055,4 -4,4"/>
<!-- Node1 -->
<g id="node1" class="node"><title>Node1</title>
<polygon fill="#bfbfbf" stroke="black" points="1176.5,-302.5 1176.5,-321.5 1226.5,-321.5 1226.5,-302.5 1176.5,-302.5"/>
<text text-anchor="middle" x="1201.5" y="-309.5" font-family="Helvetica,sans-Serif" font-size="10.00">cycle.h</text>
</g>
<!-- Node2 -->
<g id="node2" class="node"><title>Node2</title>
<polygon fill="white" stroke="#bfbfbf" points="0,-241 0,-260 41,-260 41,-241 0,-241"/>
<text text-anchor="middle" x="20.5" y="-248" font-family="Helvetica,sans-Serif" font-size="10.00">array</text>
</g>
<!-- Node1&#45;&gt;Node2 -->
<g id="edge1" class="edge"><title>Node1&#45;&gt;Node2</title>
<path fill="none" stroke="midnightblue" d="M1176.33,-311.213C1029.22,-312.28 279.644,-315.183 55.5,-266 52.8218,-265.412 50.0878,-264.632 47.3871,-263.736"/>
<polygon fill="midnightblue" stroke="midnightblue" points="48.5023,-260.416 37.9112,-260.131 46.0132,-266.958 48.5023,-260.416"/>
</g>
<!-- Node3 -->
<g id="node3" class="node"><title>Node3</title>
<polygon fill="white" stroke="#bfbfbf" points="944.5,-6 944.5,-25 988.5,-25 988.5,-6 944.5,-6"/>
<text text-anchor="middle" x="966.5" y="-13" font-family="Helvetica,sans-Serif" font-size="10.00">string</text>
</g>
<!-- Node1&#45;&gt;Node3 -->
<g id="edge2" class="edge"><title>Node1&#45;&gt;Node3</title>
<path fill="none" stroke="midnightblue" d="M1176.27,-311.034C1009.24,-310.934 69.5,-305.253 69.5,-190 69.5,-190 69.5,-190 69.5,-132 69.5,-42.9769 773.474,-21.0385 934.128,-17.191"/>
<polygon fill="midnightblue" stroke="midnightblue" points="934.411,-20.6855 944.327,-16.9538 934.248,-13.6874 934.411,-20.6855"/>
</g>
<!-- Node4 -->
<g id="node4" class="node"><title>Node4</title>
<polygon fill="white" stroke="#bfbfbf" points="2004,-6 2004,-25 2051,-25 2051,-6 2004,-6"/>
<text text-anchor="middle" x="2027.5" y="-13" font-family="Helvetica,sans-Serif" font-size="10.00">vector</text>
</g>
<!-- Node1&#45;&gt;Node4 -->
<g id="edge3" class="edge"><title>Node1&#45;&gt;Node4</title>
<path fill="none" stroke="midnightblue" d="M1226.55,-309.751C1358.57,-302.845 1967.5,-266.826 1967.5,-190 1967.5,-190 1967.5,-190 1967.5,-132 1967.5,-93.0743 1994.67,-54.2361 2012.44,-32.9936"/>
<polygon fill="midnightblue" stroke="midnightblue" points="2015.24,-35.1063 2019.16,-25.2612 2009.96,-30.5163 2015.24,-35.1063"/>
</g>
<!-- Node5 -->
<g id="node5" class="node"><title>Node5</title>
<polygon fill="white" stroke="#bfbfbf" points="737.5,-235.5 737.5,-265.5 859.5,-265.5 859.5,-235.5 737.5,-235.5"/>
<text text-anchor="start" x="745.5" y="-253.5" font-family="Helvetica,sans-Serif" font-size="10.00">boost/algorithm/string</text>
<text text-anchor="middle" x="798.5" y="-242.5" font-family="Helvetica,sans-Serif" font-size="10.00">/join.hpp</text>
</g>
<!-- Node1&#45;&gt;Node5 -->
<g id="edge4" class="edge"><title>Node1&#45;&gt;Node5</title>
<path fill="none" stroke="midnightblue" d="M1176.42,-308.181C1120.93,-301.815 983.619,-285.365 869.5,-266 869.399,-265.983 869.298,-265.966 869.197,-265.949"/>
<polygon fill="midnightblue" stroke="midnightblue" points="870.099,-262.554 859.642,-264.257 868.879,-269.447 870.099,-262.554"/>
</g>
<!-- Node6 -->
<g id="node6" class="node"><title>Node6</title>
<polygon fill="white" stroke="#bfbfbf" points="878,-235.5 878,-265.5 993,-265.5 993,-235.5 878,-235.5"/>
<text text-anchor="start" x="886" y="-253.5" font-family="Helvetica,sans-Serif" font-size="10.00">boost/range/adaptor</text>
<text text-anchor="middle" x="935.5" y="-242.5" font-family="Helvetica,sans-Serif" font-size="10.00">/filtered.hpp</text>
</g>
<!-- Node1&#45;&gt;Node6 -->
<g id="edge5" class="edge"><title>Node1&#45;&gt;Node6</title>
<path fill="none" stroke="midnightblue" d="M1176.48,-305.402C1137.19,-296.615 1059.7,-279.281 1003.16,-266.635"/>
<polygon fill="midnightblue" stroke="midnightblue" points="1003.74,-263.179 993.221,-264.411 1002.22,-270.01 1003.74,-263.179"/>
</g>
<!-- Node7 -->
<g id="node7" class="node"><title>Node7</title>
<polygon fill="white" stroke="#bfbfbf" points="1011,-235.5 1011,-265.5 1126,-265.5 1126,-235.5 1011,-235.5"/>
<text text-anchor="start" x="1019" y="-253.5" font-family="Helvetica,sans-Serif" font-size="10.00">boost/range/adaptor</text>
<text text-anchor="middle" x="1068.5" y="-242.5" font-family="Helvetica,sans-Serif" font-size="10.00">/reversed.hpp</text>
</g>
<!-- Node1&#45;&gt;Node7 -->
<g id="edge6" class="edge"><title>Node1&#45;&gt;Node7</title>
<path fill="none" stroke="midnightblue" d="M1182.44,-302.475C1163.42,-293.965 1133.59,-280.619 1109.22,-269.718"/>
<polygon fill="midnightblue" stroke="midnightblue" points="1110.4,-266.412 1099.85,-265.523 1107.54,-272.802 1110.4,-266.412"/>
</g>
<!-- Node8 -->
<g id="node8" class="node"><title>Node8</title>
<polygon fill="white" stroke="#bfbfbf" points="1144,-235.5 1144,-265.5 1259,-265.5 1259,-235.5 1144,-235.5"/>
<text text-anchor="start" x="1152" y="-253.5" font-family="Helvetica,sans-Serif" font-size="10.00">boost/range/adaptor</text>
<text text-anchor="middle" x="1201.5" y="-242.5" font-family="Helvetica,sans-Serif" font-size="10.00">/transformed.hpp</text>
</g>
<!-- Node1&#45;&gt;Node8 -->
<g id="edge7" class="edge"><title>Node1&#45;&gt;Node8</title>
<path fill="none" stroke="midnightblue" d="M1201.5,-302.475C1201.5,-295.471 1201.5,-285.192 1201.5,-275.696"/>
<polygon fill="midnightblue" stroke="midnightblue" points="1205,-275.523 1201.5,-265.523 1198,-275.523 1205,-275.523"/>
</g>
<!-- Node9 -->
<g id="node9" class="node"><title>Node9</title>
<g id="a_node9"><a xlink:href="element_8h.xhtml" target="_top" xlink:title="Helper classes, structs, and properties common to all other classes. ">
<polygon fill="white" stroke="black" points="1545,-67.5 1545,-86.5 1610,-86.5 1610,-67.5 1545,-67.5"/>
<text text-anchor="middle" x="1577.5" y="-74.5" font-family="Helvetica,sans-Serif" font-size="10.00">element.h</text>
</a>
</g>
</g>
<!-- Node1&#45;&gt;Node9 -->
<g id="edge8" class="edge"><title>Node1&#45;&gt;Node9</title>
<path fill="none" stroke="midnightblue" d="M1226.77,-311.478C1275.23,-311.386 1383.41,-306.247 1462.5,-266 1527.34,-233.007 1545.02,-211.142 1570.5,-143 1576.03,-128.199 1577.62,-110.273 1577.91,-96.9983"/>
<polygon fill="midnightblue" stroke="midnightblue" points="1581.41,-96.7229 1577.91,-86.7252 1574.41,-96.7274 1581.41,-96.7229"/>
</g>
<!-- Node15 -->
<g id="node15" class="node"><title>Node15</title>
<g id="a_node15"><a xlink:href="error_8h.xhtml" target="_top" xlink:title="Exceptions for SCRAM. ">
<polygon fill="white" stroke="black" points="620.5,-241 620.5,-260 668.5,-260 668.5,-241 620.5,-241"/>
<text text-anchor="middle" x="644.5" y="-248" font-family="Helvetica,sans-Serif" font-size="10.00">error.h</text>
</a>
</g>
</g>
<!-- Node1&#45;&gt;Node15 -->
<g id="edge16" class="edge"><title>Node1&#45;&gt;Node15</title>
<path fill="none" stroke="midnightblue" d="M1176.3,-309.281C1105.52,-304.307 898.973,-288.789 728.5,-266 712.053,-263.801 693.899,-260.747 678.689,-258.008"/>
<polygon fill="midnightblue" stroke="midnightblue" points="679.153,-254.535 668.686,-256.177 677.892,-261.421 679.153,-254.535"/>
</g>
<!-- Node21 -->
<g id="node21" class="node"><title>Node21</title>
<g id="a_node21"><a xlink:href="event_8h.xhtml" target="_top" xlink:title="Contains event classes for fault trees. ">
<polygon fill="white" stroke="black" points="1218,-123.5 1218,-142.5 1271,-142.5 1271,-123.5 1218,-123.5"/>
<text text-anchor="middle" x="1244.5" y="-130.5" font-family="Helvetica,sans-Serif" font-size="10.00">event.h</text>
</a>
</g>
</g>
<!-- Node1&#45;&gt;Node21 -->
<g id="edge23" class="edge"><title>Node1&#45;&gt;Node21</title>
<path fill="none" stroke="midnightblue" d="M1224.29,-302.471C1239.83,-295.316 1259.21,-283.435 1268.5,-266 1288.41,-228.635 1267.95,-177.78 1254.4,-151.431"/>
<polygon fill="midnightblue" stroke="midnightblue" points="1257.48,-149.755 1249.65,-142.612 1251.31,-153.076 1257.48,-149.755"/>
</g>
<!-- Node30 -->
<g id="node30" class="node"><title>Node30</title>
<g id="a_node30"><a xlink:href="event__tree_8h.xhtml" target="_top" xlink:title="Event Tree facilities. ">
<polygon fill="white" stroke="black" points="1354,-241 1354,-260 1431,-260 1431,-241 1354,-241"/>
<text text-anchor="middle" x="1392.5" y="-248" font-family="Helvetica,sans-Serif" font-size="10.00">event_tree.h</text>
</a>
</g>
</g>
<!-- Node1&#45;&gt;Node30 -->
<g id="edge40" class="edge"><title>Node1&#45;&gt;Node30</title>
<path fill="none" stroke="midnightblue" d="M1226.86,-303.099C1259.84,-292.826 1317.68,-274.808 1355.54,-263.014"/>
<polygon fill="midnightblue" stroke="midnightblue" points="1356.67,-266.327 1365.18,-260.012 1354.59,-259.644 1356.67,-266.327"/>
</g>
<!-- Node32 -->
<g id="node32" class="node"><title>Node32</title>
<g id="a_node32"><a xlink:href="instruction_8h.xhtml" target="_top" xlink:title="Model and event tree modifier instructions. ">
<polygon fill="white" stroke="black" points="1421.5,-179.5 1421.5,-198.5 1497.5,-198.5 1497.5,-179.5 1421.5,-179.5"/>
<text text-anchor="middle" x="1459.5" y="-186.5" font-family="Helvetica,sans-Serif" font-size="10.00">instruction.h</text>
</a>
</g>
</g>
<!-- Node1&#45;&gt;Node32 -->
<g id="edge56" class="edge"><title>Node1&#45;&gt;Node32</title>
<path fill="none" stroke="midnightblue" d="M1226.81,-309.614C1281.83,-306.082 1409.86,-294.891 1440.5,-266 1456.09,-251.306 1459.69,-225.925 1460.15,-208.57"/>
<polygon fill="midnightblue" stroke="midnightblue" points="1463.65,-208.497 1460.09,-198.516 1456.65,-208.535 1463.65,-208.497"/>
</g>
<!-- Node33 -->
<g id="node33" class="node"><title>Node33</title>
<g id="a_node33"><a xlink:href="parameter_8h.xhtml" target="_top" xlink:title="Parameter expressions that act like a shareable variable. ">
<polygon fill="white" stroke="black" points="1289.5,-123.5 1289.5,-142.5 1365.5,-142.5 1365.5,-123.5 1289.5,-123.5"/>
<text text-anchor="middle" x="1327.5" y="-130.5" font-family="Helvetica,sans-Serif" font-size="10.00">parameter.h</text>
</a>
</g>
</g>
<!-- Node1&#45;&gt;Node33 -->
<g id="edge57" class="edge"><title>Node1&#45;&gt;Node33</title>
<path fill="none" stroke="midnightblue" d="M1226.86,-303.466C1245.83,-296.596 1271.04,-284.634 1286.5,-266 1314.12,-232.71 1323.17,-180.859 1326.11,-153.088"/>
<polygon fill="midnightblue" stroke="midnightblue" points="1329.63,-153.057 1327.03,-142.785 1322.65,-152.434 1329.63,-153.057"/>
</g>
<!-- Node9&#45;&gt;Node3 -->
<g id="edge10" class="edge"><title>Node9&#45;&gt;Node3</title>
<path fill="none" stroke="midnightblue" d="M1544.83,-72.0459C1530.35,-70.3645 1513.09,-68.4594 1497.5,-67 1284.06,-47.0135 1227.47,-69.0592 1016.5,-31 1010.57,-29.9309 1004.35,-28.4362 998.374,-26.8098"/>
<polygon fill="midnightblue" stroke="midnightblue" points="999.244,-23.418 988.665,-24.0002 997.298,-30.1421 999.244,-23.418"/>
</g>
<!-- Node9&#45;&gt;Node4 -->
<g id="edge11" class="edge"><title>Node9&#45;&gt;Node4</title>
<path fill="none" stroke="midnightblue" d="M1610.05,-69.3641C1614.88,-68.4961 1619.81,-67.6753 1624.5,-67 1788.03,-43.4382 1834.64,-72.7555 1994.5,-31 1996.8,-30.3995 1999.14,-29.6582 2001.47,-28.831"/>
<polygon fill="midnightblue" stroke="midnightblue" points="2002.78,-32.0756 2010.74,-25.0882 2000.16,-25.584 2002.78,-32.0756"/>
</g>
<!-- Node10 -->
<g id="node10" class="node"><title>Node10</title>
<polygon fill="white" stroke="#bfbfbf" points="1085,-6 1085,-25 1134,-25 1134,-6 1085,-6"/>
<text text-anchor="middle" x="1109.5" y="-13" font-family="Helvetica,sans-Serif" font-size="10.00">cstdint</text>
</g>
<!-- Node9&#45;&gt;Node10 -->
<g id="edge9" class="edge"><title>Node9&#45;&gt;Node10</title>
<path fill="none" stroke="midnightblue" d="M1544.81,-72.2408C1530.32,-70.5954 1513.06,-68.6647 1497.5,-67 1339.81,-50.1351 1295.86,-71.3911 1142.5,-31 1140.2,-30.3948 1137.86,-29.6502 1135.54,-28.8208"/>
<polygon fill="midnightblue" stroke="midnightblue" points="1136.84,-25.5741 1126.26,-25.0742 1134.22,-32.0647 1136.84,-25.5741"/>
</g>
<!-- Node11 -->
<g id="node11" class="node"><title>Node11</title>
<polygon fill="white" stroke="#bfbfbf" points="1507.5,-0.5 1507.5,-30.5 1647.5,-30.5 1647.5,-0.5 1507.5,-0.5"/>
<text text-anchor="start" x="1515.5" y="-18.5" font-family="Helvetica,sans-Serif" font-size="10.00">boost/multi_index/hashed</text>
<text text-anchor="middle" x="1577.5" y="-7.5" font-family="Helvetica,sans-Serif" font-size="10.00">_index.hpp</text>
</g>
<!-- Node9&#45;&gt;Node11 -->
<g id="edge12" class="edge"><title>Node9&#45;&gt;Node11</title>
<path fill="none" stroke="midnightblue" d="M1577.5,-67.4751C1577.5,-60.471 1577.5,-50.1919 1577.5,-40.6956"/>
<polygon fill="midnightblue" stroke="midnightblue" points="1581,-40.5229 1577.5,-30.523 1574,-40.523 1581,-40.5229"/>
</g>
<!-- Node12 -->
<g id="node12" class="node"><title>Node12</title>
<polygon fill="white" stroke="#bfbfbf" points="1665.5,-0.5 1665.5,-30.5 1795.5,-30.5 1795.5,-0.5 1665.5,-0.5"/>
<text text-anchor="start" x="1673.5" y="-18.5" font-family="Helvetica,sans-Serif" font-size="10.00">boost/multi_index/mem</text>
<text text-anchor="middle" x="1730.5" y="-7.5" font-family="Helvetica,sans-Serif" font-size="10.00">_fun.hpp</text>
</g>
<!-- Node9&#45;&gt;Node12 -->
<g id="edge13" class="edge"><title>Node9&#45;&gt;Node12</title>
<path fill="none" stroke="midnightblue" d="M1599.42,-67.4751C1621.6,-58.8518 1656.54,-45.2641 1684.77,-34.2852"/>
<polygon fill="midnightblue" stroke="midnightblue" points="1686.39,-37.4095 1694.44,-30.523 1683.85,-30.8855 1686.39,-37.4095"/>
</g>
<!-- Node13 -->
<g id="node13" class="node"><title>Node13</title>
<polygon fill="white" stroke="#bfbfbf" points="1813.5,-6 1813.5,-25 1985.5,-25 1985.5,-6 1813.5,-6"/>
<text text-anchor="middle" x="1899.5" y="-13" font-family="Helvetica,sans-Serif" font-size="10.00">boost/multi_index_container.hpp</text>
</g>
<!-- Node9&#45;&gt;Node13 -->
<g id="edge14" class="edge"><title>Node9&#45;&gt;Node13</title>
<path fill="none" stroke="midnightblue" d="M1610.11,-69.7224C1614.93,-68.8034 1619.85,-67.873 1624.5,-67 1699.73,-52.8897 1786.62,-37.0021 1842.26,-26.8803"/>
<polygon fill="midnightblue" stroke="midnightblue" points="1843.07,-30.2917 1852.28,-25.0592 1841.81,-23.4046 1843.07,-30.2917"/>
</g>
<!-- Node14 -->
<g id="node14" class="node"><title>Node14</title>
<polygon fill="white" stroke="#bfbfbf" points="1361.5,-6 1361.5,-25 1489.5,-25 1489.5,-6 1361.5,-6"/>
<text text-anchor="middle" x="1425.5" y="-13" font-family="Helvetica,sans-Serif" font-size="10.00">boost/noncopyable.hpp</text>
</g>
<!-- Node9&#45;&gt;Node14 -->
<g id="edge15" class="edge"><title>Node9&#45;&gt;Node14</title>
<path fill="none" stroke="midnightblue" d="M1555.72,-67.4751C1529.76,-57.3129 1486.19,-40.2564 1456.67,-28.6996"/>
<polygon fill="midnightblue" stroke="midnightblue" points="1457.83,-25.3951 1447.24,-25.0091 1455.27,-31.9135 1457.83,-25.3951"/>
</g>
<!-- Node15&#45;&gt;Node3 -->
<g id="edge18" class="edge"><title>Node15&#45;&gt;Node3</title>
<path fill="none" stroke="midnightblue" d="M668.759,-247.212C699.778,-243.012 753.21,-231.284 784.5,-199 827.442,-154.694 784.609,-111.355 827.5,-67 856.043,-37.4828 903.168,-25.1368 934.521,-20.0274"/>
<polygon fill="midnightblue" stroke="midnightblue" points="935.116,-23.4776 944.499,-18.5577 934.096,-16.5523 935.116,-23.4776"/>
</g>
<!-- Node16 -->
<g id="node16" class="node"><title>Node16</title>
<polygon fill="white" stroke="#bfbfbf" points="712,-179.5 712,-198.5 775,-198.5 775,-179.5 712,-179.5"/>
<text text-anchor="middle" x="743.5" y="-186.5" font-family="Helvetica,sans-Serif" font-size="10.00">exception</text>
</g>
<!-- Node15&#45;&gt;Node16 -->
<g id="edge17" class="edge"><title>Node15&#45;&gt;Node16</title>
<path fill="none" stroke="midnightblue" d="M658.684,-240.975C674.858,-231.255 701.526,-215.227 720.643,-203.737"/>
<polygon fill="midnightblue" stroke="midnightblue" points="722.574,-206.66 729.342,-198.509 718.968,-200.661 722.574,-206.66"/>
</g>
<!-- Node17 -->
<g id="node17" class="node"><title>Node17</title>
<polygon fill="white" stroke="#bfbfbf" points="97.5,-179.5 97.5,-198.5 243.5,-198.5 243.5,-179.5 97.5,-179.5"/>
<text text-anchor="middle" x="170.5" y="-186.5" font-family="Helvetica,sans-Serif" font-size="10.00">boost/current_function.hpp</text>
</g>
<!-- Node15&#45;&gt;Node17 -->
<g id="edge19" class="edge"><title>Node15&#45;&gt;Node17</title>
<path fill="none" stroke="midnightblue" d="M620.343,-246.468C552.562,-237.959 358.397,-213.586 248.598,-199.803"/>
<polygon fill="midnightblue" stroke="midnightblue" points="248.926,-196.317 238.568,-198.544 248.054,-203.263 248.926,-196.317"/>
</g>
<!-- Node18 -->
<g id="node18" class="node"><title>Node18</title>
<polygon fill="white" stroke="#bfbfbf" points="261.5,-179.5 261.5,-198.5 425.5,-198.5 425.5,-179.5 261.5,-179.5"/>
<text text-anchor="middle" x="343.5" y="-186.5" font-family="Helvetica,sans-Serif" font-size="10.00">boost/exception/exception.hpp</text>
</g>
<!-- Node15&#45;&gt;Node18 -->
<g id="edge20" class="edge"><title>Node15&#45;&gt;Node18</title>
<path fill="none" stroke="midnightblue" d="M620.377,-244.731C572.11,-235.19 462.64,-213.551 396.725,-200.521"/>
<polygon fill="midnightblue" stroke="midnightblue" points="397.026,-197.013 386.537,-198.507 395.668,-203.88 397.026,-197.013"/>
</g>
<!-- Node19 -->
<g id="node19" class="node"><title>Node19</title>
<polygon fill="white" stroke="#bfbfbf" points="443.5,-179.5 443.5,-198.5 577.5,-198.5 577.5,-179.5 443.5,-179.5"/>
<text text-anchor="middle" x="510.5" y="-186.5" font-family="Helvetica,sans-Serif" font-size="10.00">boost/exception/info.hpp</text>
</g>
<!-- Node15&#45;&gt;Node19 -->
<g id="edge21" class="edge"><title>Node15&#45;&gt;Node19</title>
<path fill="none" stroke="midnightblue" d="M625.301,-240.975C602.713,-230.945 565.001,-214.2 538.999,-202.655"/>
<polygon fill="midnightblue" stroke="midnightblue" points="540.223,-199.369 529.663,-198.509 537.382,-205.766 540.223,-199.369"/>
</g>
<!-- Node20 -->
<g id="node20" class="node"><title>Node20</title>
<g id="a_node20"><a xlink:href="source__info_8h.xhtml" target="_top" xlink:title="Helper facilities to get source file information. ">
<polygon fill="white" stroke="black" points="595.5,-179.5 595.5,-198.5 693.5,-198.5 693.5,-179.5 595.5,-179.5"/>
<text text-anchor="middle" x="644.5" y="-186.5" font-family="Helvetica,sans-Serif" font-size="10.00">ext/source_info.h</text>
</a>
</g>
</g>
<!-- Node15&#45;&gt;Node20 -->
<g id="edge22" class="edge"><title>Node15&#45;&gt;Node20</title>
<path fill="none" stroke="midnightblue" d="M644.5,-240.975C644.5,-232.58 644.5,-219.481 644.5,-208.663"/>
<polygon fill="midnightblue" stroke="midnightblue" points="648,-208.509 644.5,-198.509 641,-208.509 648,-208.509"/>
</g>
<!-- Node21&#45;&gt;Node3 -->
<g id="edge28" class="edge"><title>Node21&#45;&gt;Node3</title>
<path fill="none" stroke="midnightblue" d="M1217.91,-125.148C1188.82,-117.303 1141.05,-103.399 1101.5,-87 1095.92,-84.6874 1029.56,-49.7772 992.008,-29.9687"/>
<polygon fill="midnightblue" stroke="midnightblue" points="993.172,-26.6253 982.694,-25.0542 989.905,-32.8164 993.172,-26.6253"/>
</g>
<!-- Node21&#45;&gt;Node4 -->
<g id="edge31" class="edge"><title>Node21&#45;&gt;Node4</title>
<path fill="none" stroke="midnightblue" d="M1271.15,-124.899C1274.29,-124.193 1277.46,-123.54 1280.5,-123 1429.69,-96.5623 1473.5,-127.498 1619.5,-87 1639.81,-81.3664 1642.2,-72.6561 1662.5,-67 1805.48,-27.171 1851.11,-69.3002 1994.5,-31 1996.8,-30.3869 1999.14,-29.6366 2001.46,-28.8035"/>
<polygon fill="midnightblue" stroke="midnightblue" points="2002.78,-32.0461 2010.73,-25.0504 2000.15,-25.5573 2002.78,-32.0461"/>
</g>
<!-- Node21&#45;&gt;Node9 -->
<g id="edge32" class="edge"><title>Node21&#45;&gt;Node9</title>
<path fill="none" stroke="midnightblue" d="M1271.17,-125.033C1274.31,-124.303 1277.47,-123.607 1280.5,-123 1370.28,-105.018 1476.61,-90.5349 1534.56,-83.2094"/>
<polygon fill="midnightblue" stroke="midnightblue" points="1535.32,-86.6422 1544.8,-81.9257 1534.44,-79.6965 1535.32,-86.6422"/>
</g>
<!-- Node21&#45;&gt;Node10 -->
<g id="edge24" class="edge"><title>Node21&#45;&gt;Node10</title>
<path fill="none" stroke="midnightblue" d="M1247.55,-123.486C1251.74,-110.105 1257.52,-83.9341 1245.5,-67 1217.43,-27.4557 1187.62,-48.7672 1142.5,-31 1140.9,-30.3695 1139.26,-29.7071 1137.61,-29.027"/>
<polygon fill="midnightblue" stroke="midnightblue" points="1138.81,-25.7342 1128.24,-25.0361 1136.07,-32.1745 1138.81,-25.7342"/>
</g>
<!-- Node22 -->
<g id="node22" class="node"><title>Node22</title>
<polygon fill="white" stroke="#bfbfbf" points="976,-67.5 976,-86.5 1053,-86.5 1053,-67.5 976,-67.5"/>
<text text-anchor="middle" x="1014.5" y="-74.5" font-family="Helvetica,sans-Serif" font-size="10.00">initializer_list</text>
</g>
<!-- Node21&#45;&gt;Node22 -->
<g id="edge25" class="edge"><title>Node21&#45;&gt;Node22</title>
<path fill="none" stroke="midnightblue" d="M1217.67,-125.7C1179.25,-116.68 1108.02,-99.9568 1060.94,-88.9031"/>
<polygon fill="midnightblue" stroke="midnightblue" points="1061.52,-85.4451 1050.99,-86.5667 1059.92,-92.2598 1061.52,-85.4451"/>
</g>
<!-- Node23 -->
<g id="node23" class="node"><title>Node23</title>
<polygon fill="white" stroke="#bfbfbf" points="1431,-67.5 1431,-86.5 1488,-86.5 1488,-67.5 1431,-67.5"/>
<text text-anchor="middle" x="1459.5" y="-74.5" font-family="Helvetica,sans-Serif" font-size="10.00">memory</text>
</g>
<!-- Node21&#45;&gt;Node23 -->
<g id="edge26" class="edge"><title>Node21&#45;&gt;Node23</title>
<path fill="none" stroke="midnightblue" d="M1271.3,-125.27C1309.02,-115.795 1377.99,-98.4712 1421.15,-87.6332"/>
<polygon fill="midnightblue" stroke="midnightblue" points="1422.15,-90.9896 1431,-85.159 1420.45,-84.2005 1422.15,-90.9896"/>
</g>
<!-- Node24 -->
<g id="node24" class="node"><title>Node24</title>
<polygon fill="white" stroke="#bfbfbf" points="1110,-67.5 1110,-86.5 1165,-86.5 1165,-67.5 1110,-67.5"/>
<text text-anchor="middle" x="1137.5" y="-74.5" font-family="Helvetica,sans-Serif" font-size="10.00">optional</text>
</g>
<!-- Node21&#45;&gt;Node24 -->
<g id="edge27" class="edge"><title>Node21&#45;&gt;Node24</title>
<path fill="none" stroke="midnightblue" d="M1227.31,-123.324C1210.15,-114.664 1183.55,-101.242 1163.75,-91.249"/>
<polygon fill="midnightblue" stroke="midnightblue" points="1165.15,-88.0354 1154.65,-86.6545 1162,-94.2847 1165.15,-88.0354"/>
</g>
<!-- Node25 -->
<g id="node25" class="node"><title>Node25</title>
<polygon fill="white" stroke="#bfbfbf" points="1025.5,-6 1025.5,-25 1067.5,-25 1067.5,-6 1025.5,-6"/>
<text text-anchor="middle" x="1046.5" y="-13" font-family="Helvetica,sans-Serif" font-size="10.00">utility</text>
</g>
<!-- Node21&#45;&gt;Node25 -->
<g id="edge29" class="edge"><title>Node21&#45;&gt;Node25</title>
<path fill="none" stroke="midnightblue" d="M1237.18,-123.254C1225.29,-109.554 1200.51,-82.9552 1174.5,-67 1134.95,-42.7382 1119.22,-49.118 1076.5,-31 1075.3,-30.4918 1074.08,-29.9609 1072.85,-29.4152"/>
<polygon fill="midnightblue" stroke="midnightblue" points="1074.05,-26.1091 1063.5,-25.0747 1071.1,-32.4588 1074.05,-26.1091"/>
</g>
<!-- Node26 -->
<g id="node26" class="node"><title>Node26</title>
<polygon fill="white" stroke="#bfbfbf" points="869.5,-67.5 869.5,-86.5 919.5,-86.5 919.5,-67.5 869.5,-67.5"/>
<text text-anchor="middle" x="894.5" y="-74.5" font-family="Helvetica,sans-Serif" font-size="10.00">variant</text>
</g>
<!-- Node21&#45;&gt;Node26 -->
<g id="edge30" class="edge"><title>Node21&#45;&gt;Node26</title>
<path fill="none" stroke="midnightblue" d="M1217.91,-127.897C1155.54,-118.275 999.87,-94.2571 929.736,-83.4364"/>
<polygon fill="midnightblue" stroke="midnightblue" points="930.052,-79.9439 919.635,-81.878 928.985,-86.862 930.052,-79.9439"/>
</g>
<!-- Node27 -->
<g id="node27" class="node"><title>Node27</title>
<g id="a_node27"><a xlink:href="expression_8h.xhtml" target="_top" xlink:title="Provides the base class for all expressions and units for expression values. ">
<polygon fill="white" stroke="black" points="1336,-67.5 1336,-86.5 1413,-86.5 1413,-67.5 1336,-67.5"/>
<text text-anchor="middle" x="1374.5" y="-74.5" font-family="Helvetica,sans-Serif" font-size="10.00">expression.h</text>
</a>
</g>
</g>
<!-- Node21&#45;&gt;Node27 -->
<g id="edge33" class="edge"><title>Node21&#45;&gt;Node27</title>
<path fill="none" stroke="midnightblue" d="M1265.1,-123.444C1286.49,-114.557 1320.18,-100.563 1344.52,-90.4514"/>
<polygon fill="midnightblue" stroke="midnightblue" points="1346.11,-93.5848 1354,-86.5164 1343.42,-87.1203 1346.11,-93.5848"/>
</g>
<!-- Node27&#45;&gt;Node3 -->
<g id="edge35" class="edge"><title>Node27&#45;&gt;Node3</title>
<path fill="none" stroke="midnightblue" d="M1335.76,-73.1395C1269.73,-67.8173 1131.37,-54.7227 1016.5,-31 1010.6,-29.7821 1004.39,-28.2161 998.422,-26.5655"/>
<polygon fill="midnightblue" stroke="midnightblue" points="999.292,-23.1738 988.713,-23.7546 997.345,-29.8977 999.292,-23.1738"/>
</g>
<!-- Node27&#45;&gt;Node4 -->
<g id="edge37" class="edge"><title>Node27&#45;&gt;Node4</title>
<path fill="none" stroke="midnightblue" d="M1413.21,-68.321C1416.35,-67.8274 1419.47,-67.3778 1422.5,-67 1675.27,-35.4694 1746.98,-91.1595 1994.5,-31 1996.86,-30.4264 1999.26,-29.6934 2001.64,-28.8626"/>
<polygon fill="midnightblue" stroke="midnightblue" points="2003.14,-32.0329 2011.11,-25.0539 2000.53,-25.5386 2003.14,-32.0329"/>
</g>
<!-- Node27&#45;&gt;Node14 -->
<g id="edge39" class="edge"><title>Node27&#45;&gt;Node14</title>
<path fill="none" stroke="midnightblue" d="M1381.81,-67.4751C1389.53,-58.4617 1401.91,-44.0246 1411.52,-32.8118"/>
<polygon fill="midnightblue" stroke="midnightblue" points="1414.36,-34.8795 1418.21,-25.0091 1409.04,-30.3239 1414.36,-34.8795"/>
</g>
<!-- Node27&#45;&gt;Node25 -->
<g id="edge36" class="edge"><title>Node27&#45;&gt;Node25</title>
<path fill="none" stroke="midnightblue" d="M1335.57,-73.8504C1277.86,-69.8361 1166.72,-58.9141 1076.5,-31 1074.83,-30.4828 1073.13,-29.8853 1071.44,-29.2339"/>
<polygon fill="midnightblue" stroke="midnightblue" points="1072.58,-25.9119 1062.02,-25.0938 1069.77,-32.3206 1072.58,-25.9119"/>
</g>
<!-- Node28 -->
<g id="node28" class="node"><title>Node28</title>
<polygon fill="white" stroke="#bfbfbf" points="1281.5,-6 1281.5,-25 1343.5,-25 1343.5,-6 1281.5,-6"/>
<text text-anchor="middle" x="1312.5" y="-13" font-family="Helvetica,sans-Serif" font-size="10.00">algorithm</text>
</g>
<!-- Node27&#45;&gt;Node28 -->
<g id="edge34" class="edge"><title>Node27&#45;&gt;Node28</title>
<path fill="none" stroke="midnightblue" d="M1365.62,-67.4751C1356.04,-58.285 1340.59,-43.4563 1328.81,-32.156"/>
<polygon fill="midnightblue" stroke="midnightblue" points="1331.01,-29.408 1321.37,-25.0091 1326.16,-34.4585 1331.01,-29.408"/>
</g>
<!-- Node29 -->
<g id="node29" class="node"><title>Node29</title>
<polygon fill="white" stroke="#bfbfbf" points="1151.5,-0.5 1151.5,-30.5 1263.5,-30.5 1263.5,-0.5 1151.5,-0.5"/>
<text text-anchor="start" x="1159.5" y="-18.5" font-family="Helvetica,sans-Serif" font-size="10.00">boost/icl/continuous</text>
<text text-anchor="middle" x="1207.5" y="-7.5" font-family="Helvetica,sans-Serif" font-size="10.00">_interval.hpp</text>
</g>
<!-- Node27&#45;&gt;Node29 -->
<g id="edge38" class="edge"><title>Node27&#45;&gt;Node29</title>
<path fill="none" stroke="midnightblue" d="M1350.57,-67.4751C1326.16,-58.7765 1287.57,-45.0264 1256.61,-33.9981"/>
<polygon fill="midnightblue" stroke="midnightblue" points="1257.45,-30.5823 1246.86,-30.523 1255.1,-37.1762 1257.45,-30.5823"/>
</g>
<!-- Node30&#45;&gt;Node3 -->
<g id="edge42" class="edge"><title>Node30&#45;&gt;Node3</title>
<path fill="none" stroke="midnightblue" d="M1353.97,-244.904C1329.5,-242.007 1297.15,-238.219 1268.5,-235 1120.13,-218.329 1073.11,-254.501 934.5,-199 872.063,-173.999 824.598,-123.873 860.5,-67 876.663,-41.3966 909.755,-28.5033 934.689,-22.1904"/>
<polygon fill="midnightblue" stroke="midnightblue" points="935.506,-25.5941 944.466,-19.9397 933.935,-18.7725 935.506,-25.5941"/>
</g>
<!-- Node30&#45;&gt;Node4 -->
<g id="edge44" class="edge"><title>Node30&#45;&gt;Node4</title>
<path fill="none" stroke="midnightblue" d="M1417.96,-240.932C1501.36,-212.723 1773.63,-119.495 1994.5,-31 1995.92,-30.4327 1997.36,-29.8419 1998.82,-29.2374"/>
<polygon fill="midnightblue" stroke="midnightblue" points="2000.57,-32.294 2008.4,-25.1489 1997.82,-25.8561 2000.57,-32.294"/>
</g>
<!-- Node30&#45;&gt;Node9 -->
<g id="edge45" class="edge"><title>Node30&#45;&gt;Node9</title>
<path fill="none" stroke="midnightblue" d="M1421.17,-240.967C1445.49,-232.798 1480.48,-218.783 1506.5,-199 1532.14,-179.506 1536.29,-170.832 1552.5,-143 1561.06,-128.308 1567.76,-110.144 1572.06,-96.7548"/>
<polygon fill="midnightblue" stroke="midnightblue" points="1575.52,-97.3988 1575.09,-86.8125 1568.83,-95.3541 1575.52,-97.3988"/>
</g>
<!-- Node30&#45;&gt;Node23 -->
<g id="edge41" class="edge"><title>Node30&#45;&gt;Node23</title>
<path fill="none" stroke="midnightblue" d="M1394.52,-240.674C1397.73,-227.18 1404.43,-200.703 1412.5,-179 1423.64,-149.052 1439.97,-115.696 1450.16,-95.8015"/>
<polygon fill="midnightblue" stroke="midnightblue" points="1453.37,-97.2039 1454.87,-86.7146 1447.16,-93.9844 1453.37,-97.2039"/>
</g>
<!-- Node30&#45;&gt;Node26 -->
<g id="edge43" class="edge"><title>Node30&#45;&gt;Node26</title>
<path fill="none" stroke="midnightblue" d="M1355.43,-240.989C1288.55,-225.131 1143.71,-188.511 1026.5,-143 987.69,-127.93 944.793,-105.703 918.745,-91.5393"/>
<polygon fill="midnightblue" stroke="midnightblue" points="920.4,-88.4552 909.949,-86.7144 917.033,-94.5925 920.4,-88.4552"/>
</g>
<!-- Node31 -->
<g id="node31" class="node"><title>Node31</title>
<g id="a_node31"><a xlink:href="variant_8h.xhtml" target="_top" xlink:title="Extra helper functions for std::variant. ">
<polygon fill="white" stroke="black" points="870,-123.5 870,-142.5 947,-142.5 947,-123.5 870,-123.5"/>
<text text-anchor="middle" x="908.5" y="-130.5" font-family="Helvetica,sans-Serif" font-size="10.00">ext/variant.h</text>
</a>
</g>
</g>
<!-- Node30&#45;&gt;Node31 -->
<g id="edge46" class="edge"><title>Node30&#45;&gt;Node31</title>
<path fill="none" stroke="midnightblue" d="M1353.87,-244.974C1248.08,-232.579 961.5,-199 961.5,-199 941.812,-188.201 926.611,-166.824 917.635,-151.533"/>
<polygon fill="midnightblue" stroke="midnightblue" points="920.559,-149.587 912.652,-142.536 914.435,-152.979 920.559,-149.587"/>
</g>
<!-- Node30&#45;&gt;Node32 -->
<g id="edge48" class="edge"><title>Node30&#45;&gt;Node32</title>
<path fill="none" stroke="midnightblue" d="M1402.1,-240.975C1412.55,-231.697 1429.47,-216.671 1442.24,-205.331"/>
<polygon fill="midnightblue" stroke="midnightblue" points="1444.77,-207.766 1449.92,-198.509 1440.12,-202.532 1444.77,-207.766"/>
</g>
<!-- Node31&#45;&gt;Node26 -->
<g id="edge47" class="edge"><title>Node31&#45;&gt;Node26</title>
<path fill="none" stroke="midnightblue" d="M906.188,-123.083C904.333,-115.927 901.665,-105.635 899.346,-96.6911"/>
<polygon fill="midnightblue" stroke="midnightblue" points="902.666,-95.5527 896.769,-86.7511 895.891,-97.3094 902.666,-95.5527"/>
</g>
<!-- Node32&#45;&gt;Node3 -->
<g id="edge50" class="edge"><title>Node32&#45;&gt;Node3</title>
<path fill="none" stroke="midnightblue" d="M1421.25,-186.188C1315.74,-180.307 1024.64,-157.838 967.5,-87 955.997,-72.7401 957.603,-51.056 960.921,-35.5032"/>
<polygon fill="midnightblue" stroke="midnightblue" points="964.404,-36.0101 963.477,-25.4559 957.62,-34.2843 964.404,-36.0101"/>
</g>
<!-- Node32&#45;&gt;Node4 -->
<g id="edge51" class="edge"><title>Node32&#45;&gt;Node4</title>
<path fill="none" stroke="midnightblue" d="M1486.35,-179.405C1550.23,-159.041 1716.44,-106.595 1856.5,-67 1917.5,-49.7565 1934.63,-51.8148 1994.5,-31 1996.36,-30.3527 1998.27,-29.6451 2000.17,-28.902"/>
<polygon fill="midnightblue" stroke="midnightblue" points="2001.66,-32.0735 2009.55,-25.0034 1998.97,-25.6096 2001.66,-32.0735"/>
</g>
<!-- Node32&#45;&gt;Node9 -->
<g id="edge53" class="edge"><title>Node32&#45;&gt;Node9</title>
<path fill="none" stroke="midnightblue" d="M1476.83,-179.438C1492.05,-171.384 1514.24,-158.299 1530.5,-143 1545.5,-128.891 1558.85,-109.393 1567.46,-95.4403"/>
<polygon fill="midnightblue" stroke="midnightblue" points="1570.49,-97.1808 1572.62,-86.8007 1564.48,-93.5916 1570.49,-97.1808"/>
</g>
<!-- Node32&#45;&gt;Node14 -->
<g id="edge52" class="edge"><title>Node32&#45;&gt;Node14</title>
<path fill="none" stroke="midnightblue" d="M1466.6,-179.387C1482.5,-158.984 1518.02,-106.46 1497.5,-67 1488.81,-50.2857 1471.77,-37.9517 1456.45,-29.6585"/>
<polygon fill="midnightblue" stroke="midnightblue" points="1457.72,-26.3837 1447.22,-25.014 1454.58,-32.6363 1457.72,-26.3837"/>
</g>
<!-- Node32&#45;&gt;Node21 -->
<g id="edge54" class="edge"><title>Node32&#45;&gt;Node21</title>
<path fill="none" stroke="midnightblue" d="M1425.43,-179.444C1386.03,-169.546 1321.41,-153.316 1281,-143.167"/>
<polygon fill="midnightblue" stroke="midnightblue" points="1281.83,-139.767 1271.28,-140.725 1280.12,-146.556 1281.83,-139.767"/>
</g>
<!-- Node32&#45;&gt;Node23 -->
<g id="edge49" class="edge"><title>Node32&#45;&gt;Node23</title>
<path fill="none" stroke="midnightblue" d="M1459.5,-179.368C1459.5,-161.617 1459.5,-120.666 1459.5,-96.5974"/>
<polygon fill="midnightblue" stroke="midnightblue" points="1463,-96.5914 1459.5,-86.5914 1456,-96.5915 1463,-96.5914"/>
</g>
<!-- Node32&#45;&gt;Node27 -->
<g id="edge55" class="edge"><title>Node32&#45;&gt;Node27</title>
<path fill="none" stroke="midnightblue" d="M1452.83,-179.368C1438.74,-161.135 1405.74,-118.426 1387.39,-94.6752"/>
<polygon fill="midnightblue" stroke="midnightblue" points="1390.02,-92.3642 1381.14,-86.5914 1384.48,-96.6444 1390.02,-92.3642"/>
</g>
<!-- Node33&#45;&gt;Node3 -->
<g id="edge60" class="edge"><title>Node33&#45;&gt;Node3</title>
<path fill="none" stroke="midnightblue" d="M1309.99,-123.346C1281.96,-109.773 1225.02,-83.3449 1174.5,-67 1105.97,-44.8318 1086.23,-49.0376 1016.5,-31 1010.67,-29.4919 1004.49,-27.7866 998.532,-26.089"/>
<polygon fill="midnightblue" stroke="midnightblue" points="999.403,-22.6975 988.824,-23.2754 997.455,-29.4208 999.403,-22.6975"/>
</g>
<!-- Node33&#45;&gt;Node9 -->
<g id="edge61" class="edge"><title>Node33&#45;&gt;Node9</title>
<path fill="none" stroke="midnightblue" d="M1365.74,-123.74C1411.36,-113.886 1487.41,-97.4603 1534.88,-87.2065"/>
<polygon fill="midnightblue" stroke="midnightblue" points="1535.81,-90.5866 1544.84,-85.0541 1534.33,-83.7444 1535.81,-90.5866"/>
</g>
<!-- Node33&#45;&gt;Node10 -->
<g id="edge58" class="edge"><title>Node33&#45;&gt;Node10</title>
<path fill="none" stroke="midnightblue" d="M1321.29,-123.492C1310.75,-109.637 1287.98,-82.2214 1262.5,-67 1214.7,-38.4472 1194.75,-50.2357 1142.5,-31 1140.84,-30.3906 1139.15,-29.7397 1137.46,-29.0637"/>
<polygon fill="midnightblue" stroke="midnightblue" points="1138.41,-25.6703 1127.84,-25.0331 1135.71,-32.1263 1138.41,-25.6703"/>
</g>
<!-- Node33&#45;&gt;Node23 -->
<g id="edge59" class="edge"><title>Node33&#45;&gt;Node23</title>
<path fill="none" stroke="midnightblue" d="M1348.42,-123.444C1370.24,-114.517 1404.65,-100.439 1429.39,-90.3168"/>
<polygon fill="midnightblue" stroke="midnightblue" points="1430.75,-93.5422 1438.68,-86.5164 1428.1,-87.0634 1430.75,-93.5422"/>
</g>
<!-- Node33&#45;&gt;Node27 -->
<g id="edge62" class="edge"><title>Node33&#45;&gt;Node27</title>
<path fill="none" stroke="midnightblue" d="M1335.26,-123.083C1342.04,-115.298 1352.04,-103.801 1360.26,-94.3665"/>
<polygon fill="midnightblue" stroke="midnightblue" points="1362.96,-96.592 1366.88,-86.7511 1357.68,-91.9963 1362.96,-96.592"/>
</g>
</g>
</svg>
