<?xml version="1.0" encoding="UTF-8" standalone="no"?>
<!DOCTYPE svg PUBLIC "-//W3C//DTD SVG 1.1//EN"
 "http://www.w3.org/Graphics/SVG/1.1/DTD/svg11.dtd">
<!-- Generated by graphviz version 2.38.0 (20140413.2041)
 -->
<!-- Title: event_tree_analysis.h Pages: 1 -->
<!--zoomable 319 -->
<svg id="main" version="1.1" xmlns="http://www.w3.org/2000/svg" xmlns:xlink="http://www.w3.org/1999/xlink" xml:space="preserve" onload="init(evt)">
<style type="text/css"><![CDATA[
.edge:hover path { stroke: red; }
.edge:hover polygon { stroke: red; fill: red; }
]]></style>
<script type="text/javascript"><![CDATA[
var edges = document.getElementsByTagName('g');
if (edges && edges.length) {
  for (var i=0;i<edges.length;i++) {
    if (edges[i].id.substr(0,4)=='edge') {
      edges[i].setAttribute('class','edge');
    }
  }
}
]]></script>
        <defs>
                <circle id="rim" cx="0" cy="0" r="7"/>
                <circle id="rim2" cx="0" cy="0" r="3.5"/>
                <g id="zoomPlus">
                        <use xlink:href="#rim" fill="#404040">
                                <set attributeName="fill" to="#808080" begin="zoomplus.mouseover" end="zoomplus.mouseout"/>
                        </use>
                        <path d="M-4,0h8M0,-4v8" fill="none" stroke="white" stroke-width="1.5" pointer-events="none"/>
                </g>
                <g id="zoomMin">
                        <use xlink:href="#rim" fill="#404040">
                                <set attributeName="fill" to="#808080" begin="zoomminus.mouseover" end="zoomminus.mouseout"/>
                        </use>
                        <path d="M-4,0h8" fill="none" stroke="white" stroke-width="1.5" pointer-events="none"/>
                </g>
                <g id="dirArrow">
                        <path fill="none" stroke="white" stroke-width="1.5" d="M0,-3.0v7 M-2.5,-0.5L0,-3.0L2.5,-0.5"/>
                </g>
               <g id="resetDef">
                       <use xlink:href="#rim2" fill="#404040">
                               <set attributeName="fill" to="#808080" begin="reset.mouseover" end="reset.mouseout"/>
                       </use>
               </g>
        </defs>

<script type="text/javascript">
var viewWidth = 1246;
var viewHeight = 319;
var sectionId = 'dynsection-0';
</script>
<script xlink:href="svgpan.js"/>
<svg id="graph" class="graph">
<g id="viewport">
<title>event_tree_analysis.h</title>
<polygon fill="white" stroke="none" points="-4,4 -4,-315 1241.5,-315 1241.5,4 -4,4"/>
<!-- Node1 -->
<g id="node1" class="node"><title>Node1</title>
<polygon fill="#bfbfbf" stroke="black" points="805,-291.5 805,-310.5 926,-310.5 926,-291.5 805,-291.5"/>
<text text-anchor="middle" x="865.5" y="-298.5" font-family="Helvetica,sans-Serif" font-size="10.00">event_tree_analysis.h</text>
</g>
<!-- Node2 -->
<g id="node2" class="node"><title>Node2</title>
<polygon fill="white" stroke="#bfbfbf" points="231,-67.5 231,-86.5 288,-86.5 288,-67.5 231,-67.5"/>
<text text-anchor="middle" x="259.5" y="-74.5" font-family="Helvetica,sans-Serif" font-size="10.00">memory</text>
</g>
<!-- Node1&#45;&gt;Node2 -->
<g id="edge1" class="edge"><title>Node1&#45;&gt;Node2</title>
<path fill="none" stroke="midnightblue" d="M804.681,-300.437C715.382,-299.659 544.239,-292.745 404.5,-255 346.903,-239.442 323.49,-242.352 282.5,-199 256.266,-171.254 255.44,-123.34 257.34,-96.8956"/>
<polygon fill="midnightblue" stroke="midnightblue" points="260.847,-96.9824 258.289,-86.701 253.877,-96.3334 260.847,-96.9824"/>
</g>
<!-- Node3 -->
<g id="node3" class="node"><title>Node3</title>
<polygon fill="white" stroke="#bfbfbf" points="814.5,-6 814.5,-25 858.5,-25 858.5,-6 814.5,-6"/>
<text text-anchor="middle" x="836.5" y="-13" font-family="Helvetica,sans-Serif" font-size="10.00">string</text>
</g>
<!-- Node1&#45;&gt;Node3 -->
<g id="edge2" class="edge"><title>Node1&#45;&gt;Node3</title>
<path fill="none" stroke="midnightblue" d="M870.923,-291.25C881.639,-273.096 904.5,-229.713 904.5,-190 904.5,-190 904.5,-190 904.5,-132 904.5,-101.775 899.761,-93.0901 884.5,-67 876.693,-53.6535 864.715,-41.0445 854.678,-31.7641"/>
<polygon fill="midnightblue" stroke="midnightblue" points="856.961,-29.1107 847.161,-25.0846 852.311,-34.3433 856.961,-29.1107"/>
</g>
<!-- Node4 -->
<g id="node4" class="node"><title>Node4</title>
<polygon fill="white" stroke="#bfbfbf" points="1066,-179.5 1066,-198.5 1159,-198.5 1159,-179.5 1066,-179.5"/>
<text text-anchor="middle" x="1112.5" y="-186.5" font-family="Helvetica,sans-Serif" font-size="10.00">unordered_map</text>
</g>
<!-- Node1&#45;&gt;Node4 -->
<g id="edge3" class="edge"><title>Node1&#45;&gt;Node4</title>
<path fill="none" stroke="midnightblue" d="M926.159,-294.959C984.893,-288.877 1068.49,-276.664 1092.5,-255 1105.49,-243.278 1110.15,-223.34 1111.76,-208.63"/>
<polygon fill="midnightblue" stroke="midnightblue" points="1115.25,-208.851 1112.49,-198.622 1108.27,-208.341 1115.25,-208.851"/>
</g>
<!-- Node5 -->
<g id="node5" class="node"><title>Node5</title>
<polygon fill="white" stroke="#bfbfbf" points="894,-6 894,-25 941,-25 941,-6 894,-6"/>
<text text-anchor="middle" x="917.5" y="-13" font-family="Helvetica,sans-Serif" font-size="10.00">vector</text>
</g>
<!-- Node1&#45;&gt;Node5 -->
<g id="edge4" class="edge"><title>Node1&#45;&gt;Node5</title>
<path fill="none" stroke="midnightblue" d="M926.006,-298.942C984.054,-295.945 1073.04,-286.074 1143.5,-255 1186.05,-236.234 1225.5,-236.506 1225.5,-190 1225.5,-190 1225.5,-190 1225.5,-132 1225.5,-40.1177 972.829,-34.6716 959.5,-31 956.474,-30.1665 953.349,-29.2316 950.233,-28.2487"/>
<polygon fill="midnightblue" stroke="midnightblue" points="951.035,-24.8275 940.442,-25.0106 948.837,-31.4735 951.035,-24.8275"/>
</g>
<!-- Node6 -->
<g id="node6" class="node"><title>Node6</title>
<g id="a_node6"><a xlink:href="analysis_8h.xhtml" target="_top" xlink:title="Common facilities for all analysis classes. ">
<polygon fill="white" stroke="black" points="90.5,-123.5 90.5,-142.5 154.5,-142.5 154.5,-123.5 90.5,-123.5"/>
<text text-anchor="middle" x="122.5" y="-130.5" font-family="Helvetica,sans-Serif" font-size="10.00">analysis.h</text>
</a>
</g>
</g>
<!-- Node1&#45;&gt;Node6 -->
<g id="edge5" class="edge"><title>Node1&#45;&gt;Node6</title>
<path fill="none" stroke="midnightblue" d="M804.798,-299.786C644.567,-298.706 219.044,-292.318 168.5,-255 135.753,-230.822 126.317,-180.286 123.599,-152.793"/>
<polygon fill="midnightblue" stroke="midnightblue" points="127.068,-152.261 122.797,-142.565 120.09,-152.808 127.068,-152.261"/>
</g>
<!-- Node9 -->
<g id="node9" class="node"><title>Node9</title>
<g id="a_node9"><a xlink:href="settings_8h.xhtml" target="_top" xlink:title="Builder for settings. ">
<polygon fill="white" stroke="black" points="2.5,-67.5 2.5,-86.5 66.5,-86.5 66.5,-67.5 2.5,-67.5"/>
<text text-anchor="middle" x="34.5" y="-74.5" font-family="Helvetica,sans-Serif" font-size="10.00">settings.h</text>
</a>
</g>
</g>
<!-- Node1&#45;&gt;Node9 -->
<g id="edge57" class="edge"><title>Node1&#45;&gt;Node9</title>
<path fill="none" stroke="midnightblue" d="M804.755,-299.338C641.61,-297.122 202.43,-288.114 146.5,-255 84.9836,-218.578 51.8988,-133.712 39.8565,-96.2867"/>
<polygon fill="midnightblue" stroke="midnightblue" points="43.1869,-95.2092 36.8983,-86.6825 36.4971,-97.2697 43.1869,-95.2092"/>
</g>
<!-- Node12 -->
<g id="node12" class="node"><title>Node12</title>
<g id="a_node12"><a xlink:href="event_8h.xhtml" target="_top" xlink:title="Contains event classes for fault trees. ">
<polygon fill="white" stroke="black" points="668,-123.5 668,-142.5 721,-142.5 721,-123.5 668,-123.5"/>
<text text-anchor="middle" x="694.5" y="-130.5" font-family="Helvetica,sans-Serif" font-size="10.00">event.h</text>
</a>
</g>
</g>
<!-- Node1&#45;&gt;Node12 -->
<g id="edge12" class="edge"><title>Node1&#45;&gt;Node12</title>
<path fill="none" stroke="midnightblue" d="M856.306,-291.075C828.69,-264.267 746.202,-184.19 710.864,-149.885"/>
<polygon fill="midnightblue" stroke="midnightblue" points="712.939,-147.022 703.326,-142.568 708.064,-152.045 712.939,-147.022"/>
</g>
<!-- Node21 -->
<g id="node21" class="node"><title>Node21</title>
<g id="a_node21"><a xlink:href="expression_8h.xhtml" target="_top" xlink:title="Provides the base class for all expressions and units for expression values. ">
<polygon fill="white" stroke="black" points="1047,-67.5 1047,-86.5 1124,-86.5 1124,-67.5 1047,-67.5"/>
<text text-anchor="middle" x="1085.5" y="-74.5" font-family="Helvetica,sans-Serif" font-size="10.00">expression.h</text>
</a>
</g>
</g>
<!-- Node1&#45;&gt;Node21 -->
<g id="edge52" class="edge"><title>Node1&#45;&gt;Node21</title>
<path fill="none" stroke="midnightblue" d="M926.001,-299.297C978.427,-296.371 1054.86,-286.393 1113.5,-255 1143.98,-238.681 1154.56,-231.062 1167.5,-199 1184.62,-156.593 1137,-113.93 1107.31,-92.3857"/>
<polygon fill="midnightblue" stroke="midnightblue" points="1109.31,-89.5186 1099.12,-86.6437 1105.29,-95.2502 1109.31,-89.5186"/>
</g>
<!-- Node24 -->
<g id="node24" class="node"><title>Node24</title>
<g id="a_node24"><a xlink:href="event__tree_8h.xhtml" target="_top" xlink:title="Event Tree facilities. ">
<polygon fill="white" stroke="black" points="414,-235.5 414,-254.5 491,-254.5 491,-235.5 414,-235.5"/>
<text text-anchor="middle" x="452.5" y="-242.5" font-family="Helvetica,sans-Serif" font-size="10.00">event_tree.h</text>
</a>
</g>
</g>
<!-- Node1&#45;&gt;Node24 -->
<g id="edge36" class="edge"><title>Node1&#45;&gt;Node24</title>
<path fill="none" stroke="midnightblue" d="M804.56,-292.032C722.162,-281.258 576.85,-262.259 501.262,-252.376"/>
<polygon fill="midnightblue" stroke="midnightblue" points="501.442,-248.87 491.073,-251.043 500.535,-255.81 501.442,-248.87"/>
</g>
<!-- Node27 -->
<g id="node27" class="node"><title>Node27</title>
<g id="a_node27"><a xlink:href="test__event_8h.xhtml" target="_top" xlink:title="Event tree analysis expressions to test functional and initiating events. ">
<polygon fill="white" stroke="black" points="953,-235.5 953,-254.5 1084,-254.5 1084,-235.5 953,-235.5"/>
<text text-anchor="middle" x="1018.5" y="-242.5" font-family="Helvetica,sans-Serif" font-size="10.00">expression/test_event.h</text>
</a>
</g>
</g>
<!-- Node1&#45;&gt;Node27 -->
<g id="edge53" class="edge"><title>Node1&#45;&gt;Node27</title>
<path fill="none" stroke="midnightblue" d="M889.743,-291.444C915.371,-282.399 955.985,-268.064 984.738,-257.916"/>
<polygon fill="midnightblue" stroke="midnightblue" points="986.105,-261.145 994.37,-254.516 983.775,-254.544 986.105,-261.145"/>
</g>
<!-- Node6&#45;&gt;Node3 -->
<g id="edge7" class="edge"><title>Node6&#45;&gt;Node3</title>
<path fill="none" stroke="midnightblue" d="M134.116,-123.266C155.965,-107.028 202.674,-73.2654 221.5,-67 468.243,15.1163 553.506,-95.2205 805.5,-31 807.486,-30.4938 809.5,-29.8607 811.498,-29.144"/>
<polygon fill="midnightblue" stroke="midnightblue" points="813.304,-32.1807 821.155,-25.0659 810.581,-25.7322 813.304,-32.1807"/>
</g>
<!-- Node7 -->
<g id="node7" class="node"><title>Node7</title>
<polygon fill="white" stroke="#bfbfbf" points="122.5,-67.5 122.5,-86.5 174.5,-86.5 174.5,-67.5 122.5,-67.5"/>
<text text-anchor="middle" x="148.5" y="-74.5" font-family="Helvetica,sans-Serif" font-size="10.00">cassert</text>
</g>
<!-- Node6&#45;&gt;Node7 -->
<g id="edge6" class="edge"><title>Node6&#45;&gt;Node7</title>
<path fill="none" stroke="midnightblue" d="M126.793,-123.083C130.352,-115.691 135.522,-104.953 139.924,-95.8111"/>
<polygon fill="midnightblue" stroke="midnightblue" points="143.102,-97.2795 144.287,-86.7511 136.795,-94.2427 143.102,-97.2795"/>
</g>
<!-- Node8 -->
<g id="node8" class="node"><title>Node8</title>
<polygon fill="white" stroke="#bfbfbf" points="172.5,-6 172.5,-25 300.5,-25 300.5,-6 172.5,-6"/>
<text text-anchor="middle" x="236.5" y="-13" font-family="Helvetica,sans-Serif" font-size="10.00">boost/noncopyable.hpp</text>
</g>
<!-- Node6&#45;&gt;Node8 -->
<g id="edge8" class="edge"><title>Node6&#45;&gt;Node8</title>
<path fill="none" stroke="midnightblue" d="M117.784,-123.163C111.374,-109.809 101.954,-84.2218 113.5,-67 126.657,-47.3752 148.955,-35.3704 170.982,-28.0296"/>
<polygon fill="midnightblue" stroke="midnightblue" points="172.165,-31.3281 180.712,-25.0674 170.127,-24.6315 172.165,-31.3281"/>
</g>
<!-- Node6&#45;&gt;Node9 -->
<g id="edge9" class="edge"><title>Node6&#45;&gt;Node9</title>
<path fill="none" stroke="midnightblue" d="M108.361,-123.324C94.6337,-114.9 73.5637,-101.971 57.4357,-92.0741"/>
<polygon fill="midnightblue" stroke="midnightblue" points="58.9574,-88.9016 48.6036,-86.6545 55.2963,-94.8678 58.9574,-88.9016"/>
</g>
<!-- Node10 -->
<g id="node10" class="node"><title>Node10</title>
<polygon fill="white" stroke="#bfbfbf" points="105,-6 105,-25 154,-25 154,-6 105,-6"/>
<text text-anchor="middle" x="129.5" y="-13" font-family="Helvetica,sans-Serif" font-size="10.00">cstdint</text>
</g>
<!-- Node9&#45;&gt;Node10 -->
<g id="edge10" class="edge"><title>Node9&#45;&gt;Node10</title>
<path fill="none" stroke="midnightblue" d="M48.1112,-67.4751C63.5605,-57.7989 88.9899,-41.8721 107.316,-30.3941"/>
<polygon fill="midnightblue" stroke="midnightblue" points="109.297,-33.2834 115.914,-25.0091 105.581,-27.3509 109.297,-33.2834"/>
</g>
<!-- Node11 -->
<g id="node11" class="node"><title>Node11</title>
<polygon fill="white" stroke="#bfbfbf" points="0,-6 0,-25 69,-25 69,-6 0,-6"/>
<text text-anchor="middle" x="34.5" y="-13" font-family="Helvetica,sans-Serif" font-size="10.00">string_view</text>
</g>
<!-- Node9&#45;&gt;Node11 -->
<g id="edge11" class="edge"><title>Node9&#45;&gt;Node11</title>
<path fill="none" stroke="midnightblue" d="M34.5,-67.4751C34.5,-59.0803 34.5,-45.9806 34.5,-35.1631"/>
<polygon fill="midnightblue" stroke="midnightblue" points="38.0001,-35.0091 34.5,-25.0091 31.0001,-35.0091 38.0001,-35.0091"/>
</g>
<!-- Node12&#45;&gt;Node2 -->
<g id="edge15" class="edge"><title>Node12&#45;&gt;Node2</title>
<path fill="none" stroke="midnightblue" d="M667.861,-130.088C605.181,-125.355 443.363,-111.769 298.047,-86.8839"/>
<polygon fill="midnightblue" stroke="midnightblue" points="298.509,-83.4119 288.058,-85.1507 297.312,-90.3088 298.509,-83.4119"/>
</g>
<!-- Node12&#45;&gt;Node3 -->
<g id="edge17" class="edge"><title>Node12&#45;&gt;Node3</title>
<path fill="none" stroke="midnightblue" d="M687.846,-123.088C678.681,-109.636 664.681,-83.9217 677.5,-67 713.185,-19.8944 750.106,-51.5877 805.5,-31 806.927,-30.4696 808.379,-29.9001 809.837,-29.3046"/>
<polygon fill="midnightblue" stroke="midnightblue" points="811.583,-32.3607 819.334,-25.1376 808.77,-25.9507 811.583,-32.3607"/>
</g>
<!-- Node12&#45;&gt;Node5 -->
<g id="edge20" class="edge"><title>Node12&#45;&gt;Node5</title>
<path fill="none" stroke="midnightblue" d="M705.389,-123.34C722.532,-109.993 757.196,-84.144 789.5,-67 820.373,-50.615 857.766,-36.4637 884.143,-27.3448"/>
<polygon fill="midnightblue" stroke="midnightblue" points="885.335,-30.636 893.676,-24.1021 883.081,-24.0089 885.335,-30.636"/>
</g>
<!-- Node12&#45;&gt;Node10 -->
<g id="edge13" class="edge"><title>Node12&#45;&gt;Node10</title>
<path fill="none" stroke="midnightblue" d="M667.769,-127.978C621.46,-120.848 523.411,-105.031 441.5,-87 407.389,-79.4911 399.61,-74.5147 365.5,-67 276.443,-47.38 250.891,-57.054 163.5,-31 161.351,-30.3595 159.156,-29.6237 156.967,-28.8306"/>
<polygon fill="midnightblue" stroke="midnightblue" points="158.156,-25.5372 147.57,-25.1044 155.576,-32.0442 158.156,-25.5372"/>
</g>
<!-- Node13 -->
<g id="node13" class="node"><title>Node13</title>
<polygon fill="white" stroke="#bfbfbf" points="799,-67.5 799,-86.5 876,-86.5 876,-67.5 799,-67.5"/>
<text text-anchor="middle" x="837.5" y="-74.5" font-family="Helvetica,sans-Serif" font-size="10.00">initializer_list</text>
</g>
<!-- Node12&#45;&gt;Node13 -->
<g id="edge14" class="edge"><title>Node12&#45;&gt;Node13</title>
<path fill="none" stroke="midnightblue" d="M717.159,-123.444C740.902,-114.478 778.409,-100.314 805.238,-90.1827"/>
<polygon fill="midnightblue" stroke="midnightblue" points="806.829,-93.3235 814.947,-86.5164 804.356,-86.7749 806.829,-93.3235"/>
</g>
<!-- Node14 -->
<g id="node14" class="node"><title>Node14</title>
<polygon fill="white" stroke="#bfbfbf" points="687,-67.5 687,-86.5 742,-86.5 742,-67.5 687,-67.5"/>
<text text-anchor="middle" x="714.5" y="-74.5" font-family="Helvetica,sans-Serif" font-size="10.00">optional</text>
</g>
<!-- Node12&#45;&gt;Node14 -->
<g id="edge16" class="edge"><title>Node12&#45;&gt;Node14</title>
<path fill="none" stroke="midnightblue" d="M697.803,-123.083C700.482,-115.849 704.349,-105.409 707.686,-96.3968"/>
<polygon fill="midnightblue" stroke="midnightblue" points="711.068,-97.3442 711.259,-86.7511 704.504,-94.9129 711.068,-97.3442"/>
</g>
<!-- Node15 -->
<g id="node15" class="node"><title>Node15</title>
<polygon fill="white" stroke="#bfbfbf" points="968.5,-6 968.5,-25 1010.5,-25 1010.5,-6 968.5,-6"/>
<text text-anchor="middle" x="989.5" y="-13" font-family="Helvetica,sans-Serif" font-size="10.00">utility</text>
</g>
<!-- Node12&#45;&gt;Node15 -->
<g id="edge18" class="edge"><title>Node12&#45;&gt;Node15</title>
<path fill="none" stroke="midnightblue" d="M721.268,-128.741C758.949,-123.477 829.208,-111.158 884.5,-87 917.625,-72.5268 951.571,-47.511 971.582,-31.4989"/>
<polygon fill="midnightblue" stroke="midnightblue" points="973.961,-34.0753 979.502,-25.0451 969.539,-28.6487 973.961,-34.0753"/>
</g>
<!-- Node16 -->
<g id="node16" class="node"><title>Node16</title>
<polygon fill="white" stroke="#bfbfbf" points="306.5,-67.5 306.5,-86.5 356.5,-86.5 356.5,-67.5 306.5,-67.5"/>
<text text-anchor="middle" x="331.5" y="-74.5" font-family="Helvetica,sans-Serif" font-size="10.00">variant</text>
</g>
<!-- Node12&#45;&gt;Node16 -->
<g id="edge19" class="edge"><title>Node12&#45;&gt;Node16</title>
<path fill="none" stroke="midnightblue" d="M667.913,-129.118C612.406,-122.922 480.241,-107.242 370.5,-87 369.232,-86.766 367.942,-86.5187 366.641,-86.2611"/>
<polygon fill="midnightblue" stroke="midnightblue" points="367.115,-82.7839 356.607,-84.1391 365.666,-89.6324 367.115,-82.7839"/>
</g>
<!-- Node17 -->
<g id="node17" class="node"><title>Node17</title>
<g id="a_node17"><a xlink:href="element_8h.xhtml" target="_top" xlink:title="Helper classes, structs, and properties common to all other classes. ">
<polygon fill="white" stroke="black" points="451,-67.5 451,-86.5 516,-86.5 516,-67.5 451,-67.5"/>
<text text-anchor="middle" x="483.5" y="-74.5" font-family="Helvetica,sans-Serif" font-size="10.00">element.h</text>
</a>
</g>
</g>
<!-- Node12&#45;&gt;Node17 -->
<g id="edge21" class="edge"><title>Node12&#45;&gt;Node17</title>
<path fill="none" stroke="midnightblue" d="M667.777,-125.161C632.05,-116.018 568.321,-99.7078 525.976,-88.8708"/>
<polygon fill="midnightblue" stroke="midnightblue" points="526.786,-85.4651 516.23,-86.3764 525.05,-92.2465 526.786,-85.4651"/>
</g>
<!-- Node12&#45;&gt;Node21 -->
<g id="edge29" class="edge"><title>Node12&#45;&gt;Node21</title>
<path fill="none" stroke="midnightblue" d="M721.068,-128.331C785.995,-119.364 953.487,-96.232 1036.86,-84.7174"/>
<polygon fill="midnightblue" stroke="midnightblue" points="1037.41,-88.1744 1046.84,-83.3391 1036.46,-81.2402 1037.41,-88.1744"/>
</g>
<!-- Node17&#45;&gt;Node3 -->
<g id="edge23" class="edge"><title>Node17&#45;&gt;Node3</title>
<path fill="none" stroke="midnightblue" d="M516.072,-69.5049C520.901,-68.6168 525.825,-67.753 530.5,-67 652.197,-47.4001 687.167,-65.5196 805.5,-31 807.382,-30.4509 809.294,-29.8024 811.197,-29.0893"/>
<polygon fill="midnightblue" stroke="midnightblue" points="812.627,-32.2847 820.456,-25.146 809.884,-25.8445 812.627,-32.2847"/>
</g>
<!-- Node17&#45;&gt;Node5 -->
<g id="edge24" class="edge"><title>Node17&#45;&gt;Node5</title>
<path fill="none" stroke="midnightblue" d="M516.152,-74.0045C582.758,-69.5331 738.876,-57.0005 867.5,-31 872.926,-29.9031 878.618,-28.5011 884.138,-27.0027"/>
<polygon fill="midnightblue" stroke="midnightblue" points="885.138,-30.3571 893.793,-24.2466 883.216,-23.626 885.138,-30.3571"/>
</g>
<!-- Node17&#45;&gt;Node8 -->
<g id="edge28" class="edge"><title>Node17&#45;&gt;Node8</title>
<path fill="none" stroke="midnightblue" d="M450.955,-68.1602C407.661,-57.7311 330.904,-39.2411 281.923,-27.442"/>
<polygon fill="midnightblue" stroke="midnightblue" points="282.456,-23.9704 271.915,-25.0311 280.817,-30.7757 282.456,-23.9704"/>
</g>
<!-- Node17&#45;&gt;Node10 -->
<g id="edge22" class="edge"><title>Node17&#45;&gt;Node10</title>
<path fill="none" stroke="midnightblue" d="M450.97,-72.5265C380.812,-64.8561 217.278,-45.9654 163.5,-31 161.205,-30.3613 158.86,-29.6029 156.529,-28.773"/>
<polygon fill="midnightblue" stroke="midnightblue" points="157.767,-25.4989 147.18,-25.0818 155.196,-32.0098 157.767,-25.4989"/>
</g>
<!-- Node18 -->
<g id="node18" class="node"><title>Node18</title>
<polygon fill="white" stroke="#bfbfbf" points="508.5,-0.5 508.5,-30.5 648.5,-30.5 648.5,-0.5 508.5,-0.5"/>
<text text-anchor="start" x="516.5" y="-18.5" font-family="Helvetica,sans-Serif" font-size="10.00">boost/multi_index/hashed</text>
<text text-anchor="middle" x="578.5" y="-7.5" font-family="Helvetica,sans-Serif" font-size="10.00">_index.hpp</text>
</g>
<!-- Node17&#45;&gt;Node18 -->
<g id="edge25" class="edge"><title>Node17&#45;&gt;Node18</title>
<path fill="none" stroke="midnightblue" d="M497.111,-67.4751C510.218,-59.266 530.508,-46.5581 547.55,-35.8845"/>
<polygon fill="midnightblue" stroke="midnightblue" points="549.493,-38.7973 556.11,-30.523 545.778,-32.8648 549.493,-38.7973"/>
</g>
<!-- Node19 -->
<g id="node19" class="node"><title>Node19</title>
<polygon fill="white" stroke="#bfbfbf" points="666.5,-0.5 666.5,-30.5 796.5,-30.5 796.5,-0.5 666.5,-0.5"/>
<text text-anchor="start" x="674.5" y="-18.5" font-family="Helvetica,sans-Serif" font-size="10.00">boost/multi_index/mem</text>
<text text-anchor="middle" x="731.5" y="-7.5" font-family="Helvetica,sans-Serif" font-size="10.00">_fun.hpp</text>
</g>
<!-- Node17&#45;&gt;Node19 -->
<g id="edge26" class="edge"><title>Node17&#45;&gt;Node19</title>
<path fill="none" stroke="midnightblue" d="M516.177,-68.1602C553.383,-59.2336 615.205,-44.4014 663.085,-32.9141"/>
<polygon fill="midnightblue" stroke="midnightblue" points="664.169,-36.2534 673.076,-30.5169 662.536,-29.4466 664.169,-36.2534"/>
</g>
<!-- Node20 -->
<g id="node20" class="node"><title>Node20</title>
<polygon fill="white" stroke="#bfbfbf" points="318.5,-6 318.5,-25 490.5,-25 490.5,-6 318.5,-6"/>
<text text-anchor="middle" x="404.5" y="-13" font-family="Helvetica,sans-Serif" font-size="10.00">boost/multi_index_container.hpp</text>
</g>
<!-- Node17&#45;&gt;Node20 -->
<g id="edge27" class="edge"><title>Node17&#45;&gt;Node20</title>
<path fill="none" stroke="midnightblue" d="M472.181,-67.4751C459.627,-58.0199 439.149,-42.5961 424.001,-31.1871"/>
<polygon fill="midnightblue" stroke="midnightblue" points="425.891,-28.2295 415.798,-25.0091 421.68,-33.821 425.891,-28.2295"/>
</g>
<!-- Node21&#45;&gt;Node3 -->
<g id="edge31" class="edge"><title>Node21&#45;&gt;Node3</title>
<path fill="none" stroke="midnightblue" d="M1046.76,-68.2055C1006.14,-59.826 940.531,-45.7141 884.5,-31 879.369,-29.6526 873.961,-28.1251 868.699,-26.5795"/>
<polygon fill="midnightblue" stroke="midnightblue" points="869.454,-23.1519 858.87,-23.6278 867.44,-29.8561 869.454,-23.1519"/>
</g>
<!-- Node21&#45;&gt;Node5 -->
<g id="edge33" class="edge"><title>Node21&#45;&gt;Node5</title>
<path fill="none" stroke="midnightblue" d="M1061.43,-67.4751C1032.4,-57.1954 983.461,-39.8611 950.82,-28.301"/>
<polygon fill="midnightblue" stroke="midnightblue" points="951.849,-24.9523 941.254,-24.913 949.512,-31.5507 951.849,-24.9523"/>
</g>
<!-- Node21&#45;&gt;Node8 -->
<g id="edge35" class="edge"><title>Node21&#45;&gt;Node8</title>
<path fill="none" stroke="midnightblue" d="M1046.9,-74.076C900.35,-66.7274 382.915,-40.3742 309.5,-31 301.299,-29.9528 292.637,-28.5233 284.257,-26.968"/>
<polygon fill="midnightblue" stroke="midnightblue" points="284.708,-23.4904 274.225,-25.0257 283.378,-30.3628 284.708,-23.4904"/>
</g>
<!-- Node21&#45;&gt;Node15 -->
<g id="edge32" class="edge"><title>Node21&#45;&gt;Node15</title>
<path fill="none" stroke="midnightblue" d="M1071.75,-67.4751C1056.13,-57.7989 1030.44,-41.8721 1011.92,-30.3941"/>
<polygon fill="midnightblue" stroke="midnightblue" points="1013.57,-27.3023 1003.23,-25.0091 1009.88,-33.2522 1013.57,-27.3023"/>
</g>
<!-- Node22 -->
<g id="node22" class="node"><title>Node22</title>
<polygon fill="white" stroke="#bfbfbf" points="1045.5,-6 1045.5,-25 1107.5,-25 1107.5,-6 1045.5,-6"/>
<text text-anchor="middle" x="1076.5" y="-13" font-family="Helvetica,sans-Serif" font-size="10.00">algorithm</text>
</g>
<!-- Node21&#45;&gt;Node22 -->
<g id="edge30" class="edge"><title>Node21&#45;&gt;Node22</title>
<path fill="none" stroke="midnightblue" d="M1084.21,-67.4751C1082.94,-59.0803 1080.96,-45.9806 1079.32,-35.1631"/>
<polygon fill="midnightblue" stroke="midnightblue" points="1082.74,-34.3731 1077.79,-25.0091 1075.82,-35.4201 1082.74,-34.3731"/>
</g>
<!-- Node23 -->
<g id="node23" class="node"><title>Node23</title>
<polygon fill="white" stroke="#bfbfbf" points="1125.5,-0.5 1125.5,-30.5 1237.5,-30.5 1237.5,-0.5 1125.5,-0.5"/>
<text text-anchor="start" x="1133.5" y="-18.5" font-family="Helvetica,sans-Serif" font-size="10.00">boost/icl/continuous</text>
<text text-anchor="middle" x="1181.5" y="-7.5" font-family="Helvetica,sans-Serif" font-size="10.00">_interval.hpp</text>
</g>
<!-- Node21&#45;&gt;Node23 -->
<g id="edge34" class="edge"><title>Node21&#45;&gt;Node23</title>
<path fill="none" stroke="midnightblue" d="M1099.25,-67.4751C1112.5,-59.266 1133,-46.5581 1150.22,-35.8845"/>
<polygon fill="midnightblue" stroke="midnightblue" points="1152.22,-38.7661 1158.87,-30.523 1148.53,-32.8162 1152.22,-38.7661"/>
</g>
<!-- Node24&#45;&gt;Node2 -->
<g id="edge37" class="edge"><title>Node24&#45;&gt;Node2</title>
<path fill="none" stroke="midnightblue" d="M413.954,-240.547C381.217,-235.862 334.571,-224.847 302.5,-199 271.211,-173.784 262.666,-124.09 260.348,-96.8897"/>
<polygon fill="midnightblue" stroke="midnightblue" points="263.83,-96.4979 259.688,-86.7463 256.845,-96.9525 263.83,-96.4979"/>
</g>
<!-- Node24&#45;&gt;Node3 -->
<g id="edge38" class="edge"><title>Node24&#45;&gt;Node3</title>
<path fill="none" stroke="midnightblue" d="M482.81,-235.4C505.163,-228.089 535.548,-216.045 558.5,-199 619.81,-153.47 604.063,-107.985 668.5,-67 721.621,-33.2121 746.301,-52.424 805.5,-31 807.113,-30.4162 808.757,-29.7796 810.404,-29.1095"/>
<polygon fill="midnightblue" stroke="midnightblue" points="811.927,-32.2635 819.678,-25.041 809.115,-25.8532 811.927,-32.2635"/>
</g>
<!-- Node24&#45;&gt;Node5 -->
<g id="edge40" class="edge"><title>Node24&#45;&gt;Node5</title>
<path fill="none" stroke="midnightblue" d="M491.101,-237.548C596.806,-219.015 886.732,-162.106 941.5,-87 953.345,-70.7569 941.948,-48.2381 931.173,-33.0587"/>
<polygon fill="midnightblue" stroke="midnightblue" points="933.928,-30.9003 925.08,-25.0723 928.363,-35.1459 933.928,-30.9003"/>
</g>
<!-- Node24&#45;&gt;Node16 -->
<g id="edge39" class="edge"><title>Node24&#45;&gt;Node16</title>
<path fill="none" stroke="midnightblue" d="M415.738,-235.427C372.962,-223.187 304.723,-196.058 277.5,-143 267.382,-123.28 288.012,-104.198 306.623,-91.869"/>
<polygon fill="midnightblue" stroke="midnightblue" points="308.541,-94.7978 315.183,-86.5435 304.843,-88.8542 308.541,-94.7978"/>
</g>
<!-- Node24&#45;&gt;Node17 -->
<g id="edge41" class="edge"><title>Node24&#45;&gt;Node17</title>
<path fill="none" stroke="midnightblue" d="M454.121,-235.167C456.418,-222.661 460.758,-199.08 464.5,-179 469.853,-150.274 476.133,-116.968 479.963,-96.6971"/>
<polygon fill="midnightblue" stroke="midnightblue" points="483.445,-97.121 481.864,-86.6448 476.567,-95.8206 483.445,-97.121"/>
</g>
<!-- Node25 -->
<g id="node25" class="node"><title>Node25</title>
<g id="a_node25"><a xlink:href="variant_8h.xhtml" target="_top" xlink:title="Extra helper functions for std::variant. ">
<polygon fill="white" stroke="black" points="287,-123.5 287,-142.5 364,-142.5 364,-123.5 287,-123.5"/>
<text text-anchor="middle" x="325.5" y="-130.5" font-family="Helvetica,sans-Serif" font-size="10.00">ext/variant.h</text>
</a>
</g>
</g>
<!-- Node24&#45;&gt;Node25 -->
<g id="edge42" class="edge"><title>Node24&#45;&gt;Node25</title>
<path fill="none" stroke="midnightblue" d="M434.627,-235.346C418.892,-227.232 395.848,-214.11 378.5,-199 362.108,-184.722 346.809,-164.991 336.904,-151.022"/>
<polygon fill="midnightblue" stroke="midnightblue" points="339.78,-149.028 331.216,-142.791 334.021,-153.008 339.78,-149.028"/>
</g>
<!-- Node26 -->
<g id="node26" class="node"><title>Node26</title>
<g id="a_node26"><a xlink:href="instruction_8h.xhtml" target="_top" xlink:title="Model and event tree modifier instructions. ">
<polygon fill="white" stroke="black" points="473.5,-179.5 473.5,-198.5 549.5,-198.5 549.5,-179.5 473.5,-179.5"/>
<text text-anchor="middle" x="511.5" y="-186.5" font-family="Helvetica,sans-Serif" font-size="10.00">instruction.h</text>
</a>
</g>
</g>
<!-- Node24&#45;&gt;Node26 -->
<g id="edge44" class="edge"><title>Node24&#45;&gt;Node26</title>
<path fill="none" stroke="midnightblue" d="M461.979,-235.324C470.701,-227.341 483.843,-215.313 494.398,-205.653"/>
<polygon fill="midnightblue" stroke="midnightblue" points="496.834,-208.167 501.848,-198.834 492.108,-203.004 496.834,-208.167"/>
</g>
<!-- Node25&#45;&gt;Node16 -->
<g id="edge43" class="edge"><title>Node25&#45;&gt;Node16</title>
<path fill="none" stroke="midnightblue" d="M326.491,-123.083C327.286,-115.927 328.429,-105.635 329.423,-96.6911"/>
<polygon fill="midnightblue" stroke="midnightblue" points="332.902,-97.0765 330.528,-86.7511 325.945,-96.3034 332.902,-97.0765"/>
</g>
<!-- Node26&#45;&gt;Node2 -->
<g id="edge45" class="edge"><title>Node26&#45;&gt;Node2</title>
<path fill="none" stroke="midnightblue" d="M494.095,-179.461C467.917,-166.708 416.757,-142.141 372.5,-123 345.487,-111.317 314.394,-99.0171 291.669,-90.2347"/>
<polygon fill="midnightblue" stroke="midnightblue" points="292.761,-86.9047 282.171,-86.5802 290.248,-93.4378 292.761,-86.9047"/>
</g>
<!-- Node26&#45;&gt;Node3 -->
<g id="edge46" class="edge"><title>Node26&#45;&gt;Node3</title>
<path fill="none" stroke="midnightblue" d="M512.785,-179.228C516.611,-156.519 530.15,-95.5921 568.5,-67 653.915,-3.31822 703.534,-61.887 805.5,-31 807.377,-30.4316 809.284,-29.7688 811.184,-29.0453"/>
<polygon fill="midnightblue" stroke="midnightblue" points="812.624,-32.2363 820.436,-25.0794 809.866,-25.8025 812.624,-32.2363"/>
</g>
<!-- Node26&#45;&gt;Node5 -->
<g id="edge47" class="edge"><title>Node26&#45;&gt;Node5</title>
<path fill="none" stroke="midnightblue" d="M520.308,-179.296C543.676,-156.751 610.081,-96.1873 677.5,-67 756.373,-32.8542 783.911,-50.9917 867.5,-31 872.939,-29.6992 878.67,-28.1801 884.233,-26.6243"/>
<polygon fill="midnightblue" stroke="midnightblue" points="885.326,-29.9519 893.969,-23.8233 883.391,-23.2248 885.326,-29.9519"/>
</g>
<!-- Node26&#45;&gt;Node8 -->
<g id="edge48" class="edge"><title>Node26&#45;&gt;Node8</title>
<path fill="none" stroke="midnightblue" d="M503.037,-179.272C481.716,-157.689 423.357,-101.1 365.5,-67 337.023,-50.2155 301.94,-36.8974 275.553,-28.1616"/>
<polygon fill="midnightblue" stroke="midnightblue" points="276.489,-24.786 265.898,-25.0402 274.336,-31.4466 276.489,-24.786"/>
</g>
<!-- Node26&#45;&gt;Node12 -->
<g id="edge50" class="edge"><title>Node26&#45;&gt;Node12</title>
<path fill="none" stroke="midnightblue" d="M540.497,-179.444C572.327,-170.051 623.486,-154.955 658.017,-144.765"/>
<polygon fill="midnightblue" stroke="midnightblue" points="659.122,-148.089 667.723,-141.902 657.141,-141.375 659.122,-148.089"/>
</g>
<!-- Node26&#45;&gt;Node17 -->
<g id="edge49" class="edge"><title>Node26&#45;&gt;Node17</title>
<path fill="none" stroke="midnightblue" d="M509.303,-179.368C504.784,-161.617 494.361,-120.666 488.234,-96.5974"/>
<polygon fill="midnightblue" stroke="midnightblue" points="491.546,-95.419 485.687,-86.5914 484.762,-97.1458 491.546,-95.419"/>
</g>
<!-- Node26&#45;&gt;Node21 -->
<g id="edge51" class="edge"><title>Node26&#45;&gt;Node21</title>
<path fill="none" stroke="midnightblue" d="M549.606,-180.697C650.494,-161.363 924.472,-108.859 1036.63,-87.365"/>
<polygon fill="midnightblue" stroke="midnightblue" points="1037.49,-90.7642 1046.65,-85.4446 1036.17,-83.8893 1037.49,-90.7642"/>
</g>
<!-- Node27&#45;&gt;Node3 -->
<g id="edge54" class="edge"><title>Node27&#45;&gt;Node3</title>
<path fill="none" stroke="midnightblue" d="M1015.4,-235.28C1005.25,-207.724 970.646,-121.151 918.5,-67 903.333,-51.2497 882.262,-38.4124 865.278,-29.6222"/>
<polygon fill="midnightblue" stroke="midnightblue" points="866.837,-26.4889 856.326,-25.1624 863.716,-32.7545 866.837,-26.4889"/>
</g>
<!-- Node27&#45;&gt;Node4 -->
<g id="edge55" class="edge"><title>Node27&#45;&gt;Node4</title>
<path fill="none" stroke="midnightblue" d="M1033.6,-235.324C1048.4,-226.822 1071.19,-213.729 1088.48,-203.797"/>
<polygon fill="midnightblue" stroke="midnightblue" points="1090.51,-206.671 1097.43,-198.655 1087.02,-200.601 1090.51,-206.671"/>
</g>
<!-- Node27&#45;&gt;Node21 -->
<g id="edge56" class="edge"><title>Node27&#45;&gt;Node21</title>
<path fill="none" stroke="midnightblue" d="M1022.1,-235.075C1032.69,-208.832 1063.89,-131.545 1078.19,-96.1165"/>
<polygon fill="midnightblue" stroke="midnightblue" points="1081.54,-97.1513 1082.04,-86.5681 1075.05,-94.5313 1081.54,-97.1513"/>
</g>
</g>
</svg>
        <g id="navigator" transform="translate(0 0)" fill="#404254">
                <rect fill="#f2f5e9" fill-opacity="0.5" stroke="#606060" stroke-width=".5" x="0" y="0" width="60" height="60"/>
                <use id="zoomplus" xlink:href="#zoomPlus" x="17" y="9" onmousedown="handleZoom(evt,'in')"/>
                <use id="zoomminus" xlink:href="#zoomMin" x="42" y="9" onmousedown="handleZoom(evt,'out')"/>
                <use id="reset" xlink:href="#resetDef" x="30" y="36" onmousedown="handleReset()"/>
                <g id="arrowUp" xlink:href="#dirArrow" transform="translate(30 24)" onmousedown="handlePan(0,-1)">
                  <use xlink:href="#rim" fill="#404040">
                        <set attributeName="fill" to="#808080" begin="arrowUp.mouseover" end="arrowUp.mouseout"/>
                  </use>
                  <path fill="none" stroke="white" stroke-width="1.5" d="M0,-3.0v7 M-2.5,-0.5L0,-3.0L2.5,-0.5"/>
                </g>
                <g id="arrowRight" xlink:href="#dirArrow" transform="rotate(90) translate(36 -43)" onmousedown="handlePan(1,0)">
                  <use xlink:href="#rim" fill="#404040">
                        <set attributeName="fill" to="#808080" begin="arrowRight.mouseover" end="arrowRight.mouseout"/>
                  </use>
                  <path fill="none" stroke="white" stroke-width="1.5" d="M0,-3.0v7 M-2.5,-0.5L0,-3.0L2.5,-0.5"/>
                </g>
                <g id="arrowDown" xlink:href="#dirArrow" transform="rotate(180) translate(-30 -48)" onmousedown="handlePan(0,1)">
                  <use xlink:href="#rim" fill="#404040">
                        <set attributeName="fill" to="#808080" begin="arrowDown.mouseover" end="arrowDown.mouseout"/>
                  </use>
                  <path fill="none" stroke="white" stroke-width="1.5" d="M0,-3.0v7 M-2.5,-0.5L0,-3.0L2.5,-0.5"/>
                </g>
                <g id="arrowLeft" xlink:href="#dirArrow" transform="rotate(270) translate(-36 17)" onmousedown="handlePan(-1,0)">
                  <use xlink:href="#rim" fill="#404040">
                        <set attributeName="fill" to="#808080" begin="arrowLeft.mouseover" end="arrowLeft.mouseout"/>
                  </use>
                  <path fill="none" stroke="white" stroke-width="1.5" d="M0,-3.0v7 M-2.5,-0.5L0,-3.0L2.5,-0.5"/>
                </g>
        </g>
        <svg viewBox="0 0 15 15" width="100%" height="30px" preserveAspectRatio="xMaxYMin meet">
         <g id="arrow_out" transform="scale(0.3 0.3)">
          <a xlink:href="event__tree__analysis_8h__incl_org.svg" target="_base">
           <rect id="button" ry="5" rx="5" y="6" x="6" height="38" width="38"
                fill="#f2f5e9" fill-opacity="0.5" stroke="#606060" stroke-width="1.0"/>
           <path id="arrow"
             d="M 11.500037,31.436501 C 11.940474,20.09759 22.043105,11.32322 32.158766,21.979434 L 37.068811,17.246167 C 37.068811,17.246167 37.088388,32 37.088388,32 L 22.160133,31.978069 C 22.160133,31.978069 26.997745,27.140456 26.997745,27.140456 C 18.528582,18.264221 13.291696,25.230495 11.500037,31.436501 z"
             style="fill:#404040;"/>
          </a>
         </g>
        </svg>
</svg>
