<?xml version="1.0" encoding="UTF-8" standalone="no"?>
<!DOCTYPE svg PUBLIC "-//W3C//DTD SVG 1.1//EN"
 "http://www.w3.org/Graphics/SVG/1.1/DTD/svg11.dtd">
<!-- Generated by graphviz version 2.38.0 (20140413.2041)
 -->
<!-- Title: event.cc Pages: 1 -->
<!--zoomable 207 -->
<svg id="main" version="1.1" xmlns="http://www.w3.org/2000/svg" xmlns:xlink="http://www.w3.org/1999/xlink" xml:space="preserve" onload="init(evt)">
<style type="text/css"><![CDATA[
.edge:hover path { stroke: red; }
.edge:hover polygon { stroke: red; fill: red; }
]]></style>
<script type="text/javascript"><![CDATA[
var edges = document.getElementsByTagName('g');
if (edges && edges.length) {
  for (var i=0;i<edges.length;i++) {
    if (edges[i].id.substr(0,4)=='edge') {
      edges[i].setAttribute('class','edge');
    }
  }
}
]]></script>
        <defs>
                <circle id="rim" cx="0" cy="0" r="7"/>
                <circle id="rim2" cx="0" cy="0" r="3.5"/>
                <g id="zoomPlus">
                        <use xlink:href="#rim" fill="#404040">
                                <set attributeName="fill" to="#808080" begin="zoomplus.mouseover" end="zoomplus.mouseout"/>
                        </use>
                        <path d="M-4,0h8M0,-4v8" fill="none" stroke="white" stroke-width="1.5" pointer-events="none"/>
                </g>
                <g id="zoomMin">
                        <use xlink:href="#rim" fill="#404040">
                                <set attributeName="fill" to="#808080" begin="zoomminus.mouseover" end="zoomminus.mouseout"/>
                        </use>
                        <path d="M-4,0h8" fill="none" stroke="white" stroke-width="1.5" pointer-events="none"/>
                </g>
                <g id="dirArrow">
                        <path fill="none" stroke="white" stroke-width="1.5" d="M0,-3.0v7 M-2.5,-0.5L0,-3.0L2.5,-0.5"/>
                </g>
               <g id="resetDef">
                       <use xlink:href="#rim2" fill="#404040">
                               <set attributeName="fill" to="#808080" begin="reset.mouseover" end="reset.mouseout"/>
                       </use>
               </g>
        </defs>

<script type="text/javascript">
var viewWidth = 1757;
var viewHeight = 207;
var sectionId = 'dynsection-0';
</script>
<script xlink:href="svgpan.js"/>
<svg id="graph" class="graph">
<g id="viewport">
<title>event.cc</title>
<polygon fill="white" stroke="none" points="-4,4 -4,-203 1752.94,-203 1752.94,4 -4,4"/>
<!-- Node1 -->
<g id="node1" class="node"><title>Node1</title>
<polygon fill="#bfbfbf" stroke="black" points="1208,-179.5 1208,-198.5 1265,-198.5 1265,-179.5 1208,-179.5"/>
<text text-anchor="middle" x="1236.5" y="-186.5" font-family="Helvetica,sans-Serif" font-size="10.00">event.cc</text>
</g>
<!-- Node2 -->
<g id="node2" class="node"><title>Node2</title>
<g id="a_node2"><a xlink:href="event_8h.xhtml" target="_top" xlink:title="Contains event classes for fault trees. ">
<polygon fill="white" stroke="black" points="562,-123.5 562,-142.5 615,-142.5 615,-123.5 562,-123.5"/>
<text text-anchor="middle" x="588.5" y="-130.5" font-family="Helvetica,sans-Serif" font-size="10.00">event.h</text>
</a>
</g>
</g>
<!-- Node1&#45;&gt;Node2 -->
<g id="edge1" class="edge"><title>Node1&#45;&gt;Node2</title>
<path fill="none" stroke="midnightblue" d="M1207.82,-185.61C1103.19,-176.891 742.06,-146.797 625.257,-137.063"/>
<polygon fill="midnightblue" stroke="midnightblue" points="625.304,-133.555 615.048,-136.212 624.722,-140.531 625.304,-133.555"/>
</g>
<!-- Node19 -->
<g id="node19" class="node"><title>Node19</title>
<polygon fill="white" stroke="#bfbfbf" points="1097.5,-123.5 1097.5,-142.5 1139.5,-142.5 1139.5,-123.5 1097.5,-123.5"/>
<text text-anchor="middle" x="1118.5" y="-130.5" font-family="Helvetica,sans-Serif" font-size="10.00">limits</text>
</g>
<!-- Node1&#45;&gt;Node19 -->
<g id="edge25" class="edge"><title>Node1&#45;&gt;Node19</title>
<path fill="none" stroke="midnightblue" d="M1217.8,-179.444C1198.56,-170.636 1168.35,-156.812 1146.3,-146.722"/>
<polygon fill="midnightblue" stroke="midnightblue" points="1147.66,-143.495 1137.11,-142.516 1144.75,-149.86 1147.66,-143.495"/>
</g>
<!-- Node20 -->
<g id="node20" class="node"><title>Node20</title>
<polygon fill="white" stroke="#bfbfbf" points="1590.5,-67.5 1590.5,-86.5 1734.5,-86.5 1734.5,-67.5 1590.5,-67.5"/>
<text text-anchor="middle" x="1662.5" y="-74.5" font-family="Helvetica,sans-Serif" font-size="10.00">boost/range/algorithm.hpp</text>
</g>
<!-- Node1&#45;&gt;Node20 -->
<g id="edge26" class="edge"><title>Node1&#45;&gt;Node20</title>
<path fill="none" stroke="midnightblue" d="M1265.11,-180.612C1338.33,-161.707 1532.79,-111.493 1619.6,-89.0768"/>
<polygon fill="midnightblue" stroke="midnightblue" points="1620.59,-92.4376 1629.39,-86.5485 1618.84,-85.6599 1620.59,-92.4376"/>
</g>
<!-- Node21 -->
<g id="node21" class="node"><title>Node21</title>
<g id="a_node21"><a xlink:href="error_8h.xhtml" target="_top" xlink:title="Exceptions for SCRAM. ">
<polygon fill="white" stroke="black" points="1253.5,-123.5 1253.5,-142.5 1301.5,-142.5 1301.5,-123.5 1253.5,-123.5"/>
<text text-anchor="middle" x="1277.5" y="-130.5" font-family="Helvetica,sans-Serif" font-size="10.00">error.h</text>
</a>
</g>
</g>
<!-- Node1&#45;&gt;Node21 -->
<g id="edge27" class="edge"><title>Node1&#45;&gt;Node21</title>
<path fill="none" stroke="midnightblue" d="M1243.27,-179.083C1249.06,-171.455 1257.56,-160.264 1264.64,-150.941"/>
<polygon fill="midnightblue" stroke="midnightblue" points="1267.6,-152.832 1270.86,-142.751 1262.02,-148.599 1267.6,-152.832"/>
</g>
<!-- Node27 -->
<g id="node27" class="node"><title>Node27</title>
<g id="a_node27"><a xlink:href="algorithm_8h.xhtml" target="_top" xlink:title="Helpful algorithm facilities as an extension to the STL or Boost. ">
<polygon fill="white" stroke="black" points="1618,-123.5 1618,-142.5 1707,-142.5 1707,-123.5 1618,-123.5"/>
<text text-anchor="middle" x="1662.5" y="-130.5" font-family="Helvetica,sans-Serif" font-size="10.00">ext/algorithm.h</text>
</a>
</g>
</g>
<!-- Node1&#45;&gt;Node27 -->
<g id="edge34" class="edge"><title>Node1&#45;&gt;Node27</title>
<path fill="none" stroke="midnightblue" d="M1265.11,-184.373C1335.17,-175.493 1516.23,-152.541 1607.78,-140.936"/>
<polygon fill="midnightblue" stroke="midnightblue" points="1608.48,-144.376 1617.96,-139.646 1607.6,-137.432 1608.48,-144.376"/>
</g>
<!-- Node28 -->
<g id="node28" class="node"><title>Node28</title>
<g id="a_node28"><a xlink:href="variant_8h.xhtml" target="_top" xlink:title="Extra helper functions for std::variant. ">
<polygon fill="white" stroke="black" points="1158,-123.5 1158,-142.5 1235,-142.5 1235,-123.5 1158,-123.5"/>
<text text-anchor="middle" x="1196.5" y="-130.5" font-family="Helvetica,sans-Serif" font-size="10.00">ext/variant.h</text>
</a>
</g>
</g>
<!-- Node1&#45;&gt;Node28 -->
<g id="edge37" class="edge"><title>Node1&#45;&gt;Node28</title>
<path fill="none" stroke="midnightblue" d="M1229.89,-179.083C1224.24,-171.455 1215.96,-160.264 1209.05,-150.941"/>
<polygon fill="midnightblue" stroke="midnightblue" points="1211.75,-148.703 1202.98,-142.751 1206.12,-152.87 1211.75,-148.703"/>
</g>
<!-- Node3 -->
<g id="node3" class="node"><title>Node3</title>
<polygon fill="white" stroke="#bfbfbf" points="0,-6 0,-25 49,-25 49,-6 0,-6"/>
<text text-anchor="middle" x="24.5" y="-13" font-family="Helvetica,sans-Serif" font-size="10.00">cstdint</text>
</g>
<!-- Node2&#45;&gt;Node3 -->
<g id="edge2" class="edge"><title>Node2&#45;&gt;Node3</title>
<path fill="none" stroke="midnightblue" d="M561.764,-130.045C503.327,-125.441 360.04,-112.346 242.5,-87 158.939,-68.9811 138.82,-60.2534 58.5,-31 56.8418,-30.3961 55.1476,-29.7546 53.4441,-29.0906"/>
<polygon fill="midnightblue" stroke="midnightblue" points="54.3556,-25.6824 43.7743,-25.1458 51.7114,-32.1638 54.3556,-25.6824"/>
</g>
<!-- Node4 -->
<g id="node4" class="node"><title>Node4</title>
<polygon fill="white" stroke="#bfbfbf" points="252,-67.5 252,-86.5 329,-86.5 329,-67.5 252,-67.5"/>
<text text-anchor="middle" x="290.5" y="-74.5" font-family="Helvetica,sans-Serif" font-size="10.00">initializer_list</text>
</g>
<!-- Node2&#45;&gt;Node4 -->
<g id="edge3" class="edge"><title>Node2&#45;&gt;Node4</title>
<path fill="none" stroke="midnightblue" d="M561.735,-127.308C517.529,-119.536 426.225,-103.387 339.255,-87.3103"/>
<polygon fill="midnightblue" stroke="midnightblue" points="339.692,-83.8318 329.222,-85.4523 338.417,-90.7148 339.692,-83.8318"/>
</g>
<!-- Node5 -->
<g id="node5" class="node"><title>Node5</title>
<polygon fill="white" stroke="#bfbfbf" points="347,-67.5 347,-86.5 404,-86.5 404,-67.5 347,-67.5"/>
<text text-anchor="middle" x="375.5" y="-74.5" font-family="Helvetica,sans-Serif" font-size="10.00">memory</text>
</g>
<!-- Node2&#45;&gt;Node5 -->
<g id="edge4" class="edge"><title>Node2&#45;&gt;Node5</title>
<path fill="none" stroke="midnightblue" d="M561.954,-125.27C524.683,-115.821 456.625,-98.5669 413.852,-87.7232"/>
<polygon fill="midnightblue" stroke="midnightblue" points="414.635,-84.311 404.082,-85.2461 412.915,-91.0963 414.635,-84.311"/>
</g>
<!-- Node6 -->
<g id="node6" class="node"><title>Node6</title>
<polygon fill="white" stroke="#bfbfbf" points="422,-67.5 422,-86.5 477,-86.5 477,-67.5 422,-67.5"/>
<text text-anchor="middle" x="449.5" y="-74.5" font-family="Helvetica,sans-Serif" font-size="10.00">optional</text>
</g>
<!-- Node2&#45;&gt;Node6 -->
<g id="edge5" class="edge"><title>Node2&#45;&gt;Node6</title>
<path fill="none" stroke="midnightblue" d="M566.475,-123.444C543.396,-114.478 506.938,-100.314 480.859,-90.1827"/>
<polygon fill="midnightblue" stroke="midnightblue" points="482.011,-86.8753 471.422,-86.5164 479.476,-93.4002 482.011,-86.8753"/>
</g>
<!-- Node7 -->
<g id="node7" class="node"><title>Node7</title>
<polygon fill="white" stroke="#bfbfbf" points="965.5,-6 965.5,-25 1009.5,-25 1009.5,-6 965.5,-6"/>
<text text-anchor="middle" x="987.5" y="-13" font-family="Helvetica,sans-Serif" font-size="10.00">string</text>
</g>
<!-- Node2&#45;&gt;Node7 -->
<g id="edge6" class="edge"><title>Node2&#45;&gt;Node7</title>
<path fill="none" stroke="midnightblue" d="M615.094,-125.728C645.839,-118.112 697.705,-104.135 740.5,-87 758.584,-79.7594 761.118,-73.4457 779.5,-67 855.255,-40.4366 880.275,-56.1825 956.5,-31 958.168,-30.449 959.864,-29.8319 961.559,-29.1713"/>
<polygon fill="midnightblue" stroke="midnightblue" points="963.269,-32.2456 971.064,-25.0698 960.495,-25.8186 963.269,-32.2456"/>
</g>
<!-- Node8 -->
<g id="node8" class="node"><title>Node8</title>
<polygon fill="white" stroke="#bfbfbf" points="775.5,-6 775.5,-25 817.5,-25 817.5,-6 775.5,-6"/>
<text text-anchor="middle" x="796.5" y="-13" font-family="Helvetica,sans-Serif" font-size="10.00">utility</text>
</g>
<!-- Node2&#45;&gt;Node8 -->
<g id="edge7" class="edge"><title>Node2&#45;&gt;Node8</title>
<path fill="none" stroke="midnightblue" d="M593.683,-123.457C602.557,-109.552 621.997,-82.0655 645.5,-67 692.736,-36.7212 714.183,-51.2738 766.5,-31 767.882,-30.4644 769.288,-29.8907 770.7,-29.2919"/>
<polygon fill="midnightblue" stroke="midnightblue" points="772.236,-32.4382 779.892,-25.1144 769.34,-26.0653 772.236,-32.4382"/>
</g>
<!-- Node9 -->
<g id="node9" class="node"><title>Node9</title>
<polygon fill="white" stroke="#bfbfbf" points="788.5,-67.5 788.5,-86.5 838.5,-86.5 838.5,-67.5 788.5,-67.5"/>
<text text-anchor="middle" x="813.5" y="-74.5" font-family="Helvetica,sans-Serif" font-size="10.00">variant</text>
</g>
<!-- Node2&#45;&gt;Node9 -->
<g id="edge8" class="edge"><title>Node2&#45;&gt;Node9</title>
<path fill="none" stroke="midnightblue" d="M615.194,-125.593C655.8,-115.848 733.125,-97.2901 778.287,-86.4512"/>
<polygon fill="midnightblue" stroke="midnightblue" points="779.315,-89.8038 788.222,-84.0667 777.682,-82.9971 779.315,-89.8038"/>
</g>
<!-- Node10 -->
<g id="node10" class="node"><title>Node10</title>
<polygon fill="white" stroke="#bfbfbf" points="564,-6 564,-25 611,-25 611,-6 564,-6"/>
<text text-anchor="middle" x="587.5" y="-13" font-family="Helvetica,sans-Serif" font-size="10.00">vector</text>
</g>
<!-- Node2&#45;&gt;Node10 -->
<g id="edge9" class="edge"><title>Node2&#45;&gt;Node10</title>
<path fill="none" stroke="midnightblue" d="M588.425,-123.319C588.264,-104.757 587.884,-60.8391 587.664,-35.4734"/>
<polygon fill="midnightblue" stroke="midnightblue" points="591.163,-35.2513 587.576,-25.282 584.163,-35.312 591.163,-35.2513"/>
</g>
<!-- Node11 -->
<g id="node11" class="node"><title>Node11</title>
<g id="a_node11"><a xlink:href="element_8h.xhtml" target="_top" xlink:title="Helper classes, structs, and properties common to all other classes. ">
<polygon fill="white" stroke="black" points="495,-67.5 495,-86.5 560,-86.5 560,-67.5 495,-67.5"/>
<text text-anchor="middle" x="527.5" y="-74.5" font-family="Helvetica,sans-Serif" font-size="10.00">element.h</text>
</a>
</g>
</g>
<!-- Node2&#45;&gt;Node11 -->
<g id="edge10" class="edge"><title>Node2&#45;&gt;Node11</title>
<path fill="none" stroke="midnightblue" d="M578.699,-123.324C569.682,-115.341 556.094,-103.313 545.182,-93.6529"/>
<polygon fill="midnightblue" stroke="midnightblue" points="547.287,-90.8416 537.479,-86.8339 542.647,-96.083 547.287,-90.8416"/>
</g>
<!-- Node16 -->
<g id="node16" class="node"><title>Node16</title>
<g id="a_node16"><a xlink:href="expression_8h.xhtml" target="_top" xlink:title="Provides the base class for all expressions and units for expression values. ">
<polygon fill="white" stroke="black" points="655,-67.5 655,-86.5 732,-86.5 732,-67.5 655,-67.5"/>
<text text-anchor="middle" x="693.5" y="-74.5" font-family="Helvetica,sans-Serif" font-size="10.00">expression.h</text>
</a>
</g>
</g>
<!-- Node2&#45;&gt;Node16 -->
<g id="edge18" class="edge"><title>Node2&#45;&gt;Node16</title>
<path fill="none" stroke="midnightblue" d="M605.37,-123.324C622.209,-114.664 648.307,-101.242 667.738,-91.249"/>
<polygon fill="midnightblue" stroke="midnightblue" points="669.38,-94.3405 676.672,-86.6545 666.178,-88.1155 669.38,-94.3405"/>
</g>
<!-- Node11&#45;&gt;Node3 -->
<g id="edge11" class="edge"><title>Node11&#45;&gt;Node3</title>
<path fill="none" stroke="midnightblue" d="M494.557,-68.5274C491.504,-67.96 488.45,-67.4387 485.5,-67 297.12,-38.991 243.328,-76.9388 58.5,-31 56.1354,-30.4123 53.7243,-29.6799 51.3326,-28.8588"/>
<polygon fill="midnightblue" stroke="midnightblue" points="52.3659,-25.5049 41.7778,-25.1264 49.8188,-32.0251 52.3659,-25.5049"/>
</g>
<!-- Node11&#45;&gt;Node7 -->
<g id="edge12" class="edge"><title>Node11&#45;&gt;Node7</title>
<path fill="none" stroke="midnightblue" d="M560.073,-73.2118C653.577,-65.1196 918.574,-41.5377 956.5,-31 958.432,-30.4632 960.394,-29.8159 962.343,-29.0966"/>
<polygon fill="midnightblue" stroke="midnightblue" points="963.965,-32.2103 971.8,-25.0779 961.227,-25.7679 963.965,-32.2103"/>
</g>
<!-- Node11&#45;&gt;Node10 -->
<g id="edge13" class="edge"><title>Node11&#45;&gt;Node10</title>
<path fill="none" stroke="midnightblue" d="M536.097,-67.4751C545.364,-58.285 560.317,-43.4563 571.712,-32.156"/>
<polygon fill="midnightblue" stroke="midnightblue" points="574.283,-34.5358 578.919,-25.0091 569.354,-29.5653 574.283,-34.5358"/>
</g>
<!-- Node12 -->
<g id="node12" class="node"><title>Node12</title>
<polygon fill="white" stroke="#bfbfbf" points="67.5,-0.5 67.5,-30.5 207.5,-30.5 207.5,-0.5 67.5,-0.5"/>
<text text-anchor="start" x="75.5" y="-18.5" font-family="Helvetica,sans-Serif" font-size="10.00">boost/multi_index/hashed</text>
<text text-anchor="middle" x="137.5" y="-7.5" font-family="Helvetica,sans-Serif" font-size="10.00">_index.hpp</text>
</g>
<!-- Node11&#45;&gt;Node12 -->
<g id="edge14" class="edge"><title>Node11&#45;&gt;Node12</title>
<path fill="none" stroke="midnightblue" d="M494.989,-68.7715C491.79,-68.1388 488.586,-67.5363 485.5,-67 369.793,-46.892 337.33,-49.7232 217.603,-31.123"/>
<polygon fill="midnightblue" stroke="midnightblue" points="218.103,-27.6586 207.681,-29.5638 217.016,-34.5738 218.103,-27.6586"/>
</g>
<!-- Node13 -->
<g id="node13" class="node"><title>Node13</title>
<polygon fill="white" stroke="#bfbfbf" points="225.5,-0.5 225.5,-30.5 355.5,-30.5 355.5,-0.5 225.5,-0.5"/>
<text text-anchor="start" x="233.5" y="-18.5" font-family="Helvetica,sans-Serif" font-size="10.00">boost/multi_index/mem</text>
<text text-anchor="middle" x="290.5" y="-7.5" font-family="Helvetica,sans-Serif" font-size="10.00">_fun.hpp</text>
</g>
<!-- Node11&#45;&gt;Node13 -->
<g id="edge15" class="edge"><title>Node11&#45;&gt;Node13</title>
<path fill="none" stroke="midnightblue" d="M494.546,-67.7268C458.954,-58.7912 401.315,-44.3206 356.361,-33.0346"/>
<polygon fill="midnightblue" stroke="midnightblue" points="356.945,-29.5728 346.394,-30.5324 355.24,-36.3621 356.945,-29.5728"/>
</g>
<!-- Node14 -->
<g id="node14" class="node"><title>Node14</title>
<polygon fill="white" stroke="#bfbfbf" points="373.5,-6 373.5,-25 545.5,-25 545.5,-6 373.5,-6"/>
<text text-anchor="middle" x="459.5" y="-13" font-family="Helvetica,sans-Serif" font-size="10.00">boost/multi_index_container.hpp</text>
</g>
<!-- Node11&#45;&gt;Node14 -->
<g id="edge16" class="edge"><title>Node11&#45;&gt;Node14</title>
<path fill="none" stroke="midnightblue" d="M517.757,-67.4751C507.153,-58.1966 489.981,-43.1706 477.021,-31.831"/>
<polygon fill="midnightblue" stroke="midnightblue" points="479.055,-28.9601 469.225,-25.0091 474.446,-34.2282 479.055,-28.9601"/>
</g>
<!-- Node15 -->
<g id="node15" class="node"><title>Node15</title>
<polygon fill="white" stroke="#bfbfbf" points="629.5,-6 629.5,-25 757.5,-25 757.5,-6 629.5,-6"/>
<text text-anchor="middle" x="693.5" y="-13" font-family="Helvetica,sans-Serif" font-size="10.00">boost/noncopyable.hpp</text>
</g>
<!-- Node11&#45;&gt;Node15 -->
<g id="edge17" class="edge"><title>Node11&#45;&gt;Node15</title>
<path fill="none" stroke="midnightblue" d="M551.284,-67.4751C579.882,-57.2246 628.051,-39.9593 660.302,-28.3994"/>
<polygon fill="midnightblue" stroke="midnightblue" points="661.528,-31.678 669.76,-25.0091 659.166,-25.0885 661.528,-31.678"/>
</g>
<!-- Node16&#45;&gt;Node7 -->
<g id="edge20" class="edge"><title>Node16&#45;&gt;Node7</title>
<path fill="none" stroke="midnightblue" d="M732.071,-69.4339C804.815,-57.0459 955.16,-31.4196 956.5,-31 958.371,-30.414 960.275,-29.7382 962.172,-29.0054"/>
<polygon fill="midnightblue" stroke="midnightblue" points="963.62,-32.1924 971.417,-25.019 960.849,-25.7645 963.62,-32.1924"/>
</g>
<!-- Node16&#45;&gt;Node8 -->
<g id="edge21" class="edge"><title>Node16&#45;&gt;Node8</title>
<path fill="none" stroke="midnightblue" d="M708.257,-67.4751C725.161,-57.7106 753.083,-41.5807 772.99,-30.0808"/>
<polygon fill="midnightblue" stroke="midnightblue" points="774.862,-33.0419 781.77,-25.0091 771.36,-26.9805 774.862,-33.0419"/>
</g>
<!-- Node16&#45;&gt;Node10 -->
<g id="edge22" class="edge"><title>Node16&#45;&gt;Node10</title>
<path fill="none" stroke="midnightblue" d="M678.313,-67.4751C660.838,-57.6664 631.921,-41.4346 611.417,-29.925"/>
<polygon fill="midnightblue" stroke="midnightblue" points="613.092,-26.8519 602.659,-25.0091 609.666,-32.956 613.092,-26.8519"/>
</g>
<!-- Node16&#45;&gt;Node15 -->
<g id="edge24" class="edge"><title>Node16&#45;&gt;Node15</title>
<path fill="none" stroke="midnightblue" d="M693.5,-67.4751C693.5,-59.0803 693.5,-45.9806 693.5,-35.1631"/>
<polygon fill="midnightblue" stroke="midnightblue" points="697,-35.0091 693.5,-25.0091 690,-35.0091 697,-35.0091"/>
</g>
<!-- Node17 -->
<g id="node17" class="node"><title>Node17</title>
<polygon fill="white" stroke="#bfbfbf" points="1379.5,-6 1379.5,-25 1441.5,-25 1441.5,-6 1379.5,-6"/>
<text text-anchor="middle" x="1410.5" y="-13" font-family="Helvetica,sans-Serif" font-size="10.00">algorithm</text>
</g>
<!-- Node16&#45;&gt;Node17 -->
<g id="edge19" class="edge"><title>Node16&#45;&gt;Node17</title>
<path fill="none" stroke="midnightblue" d="M732.01,-71.7673C746.845,-70.1898 763.954,-68.4354 779.5,-67 1001.72,-46.483 1268.42,-26.7406 1369.22,-19.4531"/>
<polygon fill="midnightblue" stroke="midnightblue" points="1369.57,-22.9373 1379.29,-18.7267 1369.06,-15.9554 1369.57,-22.9373"/>
</g>
<!-- Node18 -->
<g id="node18" class="node"><title>Node18</title>
<polygon fill="white" stroke="#bfbfbf" points="835.5,-0.5 835.5,-30.5 947.5,-30.5 947.5,-0.5 835.5,-0.5"/>
<text text-anchor="start" x="843.5" y="-18.5" font-family="Helvetica,sans-Serif" font-size="10.00">boost/icl/continuous</text>
<text text-anchor="middle" x="891.5" y="-7.5" font-family="Helvetica,sans-Serif" font-size="10.00">_interval.hpp</text>
</g>
<!-- Node16&#45;&gt;Node18 -->
<g id="edge23" class="edge"><title>Node16&#45;&gt;Node18</title>
<path fill="none" stroke="midnightblue" d="M721.869,-67.4751C751.316,-58.6259 798.161,-44.5487 835.169,-33.4277"/>
<polygon fill="midnightblue" stroke="midnightblue" points="836.266,-36.7529 844.835,-30.523 834.251,-30.049 836.266,-36.7529"/>
</g>
<!-- Node21&#45;&gt;Node7 -->
<g id="edge29" class="edge"><title>Node21&#45;&gt;Node7</title>
<path fill="none" stroke="midnightblue" d="M1284.7,-123.395C1295.08,-109.889 1311.57,-83.5505 1297.5,-67 1262.14,-25.412 1092.46,-17.9861 1020.2,-16.7245"/>
<polygon fill="midnightblue" stroke="midnightblue" points="1019.92,-13.2202 1009.87,-16.5752 1019.82,-20.2195 1019.92,-13.2202"/>
</g>
<!-- Node22 -->
<g id="node22" class="node"><title>Node22</title>
<polygon fill="white" stroke="#bfbfbf" points="1345,-67.5 1345,-86.5 1408,-86.5 1408,-67.5 1345,-67.5"/>
<text text-anchor="middle" x="1376.5" y="-74.5" font-family="Helvetica,sans-Serif" font-size="10.00">exception</text>
</g>
<!-- Node21&#45;&gt;Node22 -->
<g id="edge28" class="edge"><title>Node21&#45;&gt;Node22</title>
<path fill="none" stroke="midnightblue" d="M1293.41,-123.324C1309.14,-114.743 1333.44,-101.486 1351.71,-91.5224"/>
<polygon fill="midnightblue" stroke="midnightblue" points="1353.53,-94.5157 1360.63,-86.6545 1350.18,-88.3704 1353.53,-94.5157"/>
</g>
<!-- Node23 -->
<g id="node23" class="node"><title>Node23</title>
<polygon fill="white" stroke="#bfbfbf" points="1426.5,-67.5 1426.5,-86.5 1572.5,-86.5 1572.5,-67.5 1426.5,-67.5"/>
<text text-anchor="middle" x="1499.5" y="-74.5" font-family="Helvetica,sans-Serif" font-size="10.00">boost/current_function.hpp</text>
</g>
<!-- Node21&#45;&gt;Node23 -->
<g id="edge30" class="edge"><title>Node21&#45;&gt;Node23</title>
<path fill="none" stroke="midnightblue" d="M1301.68,-126.118C1338.32,-117.205 1408.53,-100.128 1454.68,-88.9012"/>
<polygon fill="midnightblue" stroke="midnightblue" points="1455.54,-92.2943 1464.43,-86.5299 1453.89,-85.4927 1455.54,-92.2943"/>
</g>
<!-- Node24 -->
<g id="node24" class="node"><title>Node24</title>
<polygon fill="white" stroke="#bfbfbf" points="856.5,-67.5 856.5,-86.5 1020.5,-86.5 1020.5,-67.5 856.5,-67.5"/>
<text text-anchor="middle" x="938.5" y="-74.5" font-family="Helvetica,sans-Serif" font-size="10.00">boost/exception/exception.hpp</text>
</g>
<!-- Node21&#45;&gt;Node24 -->
<g id="edge31" class="edge"><title>Node21&#45;&gt;Node24</title>
<path fill="none" stroke="midnightblue" d="M1253.43,-125.272C1250.11,-124.448 1246.73,-123.664 1243.5,-123 1169.25,-107.746 1083.81,-95.5977 1022.29,-87.7873"/>
<polygon fill="midnightblue" stroke="midnightblue" points="1022.6,-84.299 1012.24,-86.5234 1021.73,-91.2442 1022.6,-84.299"/>
</g>
<!-- Node25 -->
<g id="node25" class="node"><title>Node25</title>
<polygon fill="white" stroke="#bfbfbf" points="1038.5,-67.5 1038.5,-86.5 1172.5,-86.5 1172.5,-67.5 1038.5,-67.5"/>
<text text-anchor="middle" x="1105.5" y="-74.5" font-family="Helvetica,sans-Serif" font-size="10.00">boost/exception/info.hpp</text>
</g>
<!-- Node21&#45;&gt;Node25 -->
<g id="edge32" class="edge"><title>Node21&#45;&gt;Node25</title>
<path fill="none" stroke="midnightblue" d="M1253.22,-124.378C1224.44,-115.341 1176.15,-100.182 1142.66,-89.6663"/>
<polygon fill="midnightblue" stroke="midnightblue" points="1143.37,-86.2198 1132.78,-86.5637 1141.27,-92.8984 1143.37,-86.2198"/>
</g>
<!-- Node26 -->
<g id="node26" class="node"><title>Node26</title>
<g id="a_node26"><a xlink:href="source__info_8h.xhtml" target="_top" xlink:title="Helper facilities to get source file information. ">
<polygon fill="white" stroke="black" points="1190.5,-67.5 1190.5,-86.5 1288.5,-86.5 1288.5,-67.5 1190.5,-67.5"/>
<text text-anchor="middle" x="1239.5" y="-74.5" font-family="Helvetica,sans-Serif" font-size="10.00">ext/source_info.h</text>
</a>
</g>
</g>
<!-- Node21&#45;&gt;Node26 -->
<g id="edge33" class="edge"><title>Node21&#45;&gt;Node26</title>
<path fill="none" stroke="midnightblue" d="M1271.23,-123.083C1265.86,-115.455 1257.98,-104.264 1251.42,-94.9408"/>
<polygon fill="midnightblue" stroke="midnightblue" points="1254.28,-92.9149 1245.66,-86.7511 1248.55,-96.9434 1254.28,-92.9149"/>
</g>
<!-- Node27&#45;&gt;Node17 -->
<g id="edge35" class="edge"><title>Node27&#45;&gt;Node17</title>
<path fill="none" stroke="midnightblue" d="M1688.67,-123.49C1719.44,-112.145 1763.89,-90.7208 1743.5,-67 1706.33,-23.771 1532.58,-17.0976 1451.89,-16.3719"/>
<polygon fill="midnightblue" stroke="midnightblue" points="1451.62,-12.8703 1441.6,-16.3074 1451.58,-19.8702 1451.62,-12.8703"/>
</g>
<!-- Node27&#45;&gt;Node20 -->
<g id="edge36" class="edge"><title>Node27&#45;&gt;Node20</title>
<path fill="none" stroke="midnightblue" d="M1662.5,-123.083C1662.5,-116.006 1662.5,-105.861 1662.5,-96.9865"/>
<polygon fill="midnightblue" stroke="midnightblue" points="1666,-96.751 1662.5,-86.7511 1659,-96.7511 1666,-96.751"/>
</g>
<!-- Node28&#45;&gt;Node9 -->
<g id="edge38" class="edge"><title>Node28&#45;&gt;Node9</title>
<path fill="none" stroke="midnightblue" d="M1157.77,-124.509C1154.63,-123.973 1151.52,-123.463 1148.5,-123 1018.58,-103.073 981.626,-111.843 848.815,-87.008"/>
<polygon fill="midnightblue" stroke="midnightblue" points="849.138,-83.507 838.661,-85.0794 847.832,-90.3841 849.138,-83.507"/>
</g>
</g>
</svg>
        <g id="navigator" transform="translate(0 0)" fill="#404254">
                <rect fill="#f2f5e9" fill-opacity="0.5" stroke="#606060" stroke-width=".5" x="0" y="0" width="60" height="60"/>
                <use id="zoomplus" xlink:href="#zoomPlus" x="17" y="9" onmousedown="handleZoom(evt,'in')"/>
                <use id="zoomminus" xlink:href="#zoomMin" x="42" y="9" onmousedown="handleZoom(evt,'out')"/>
                <use id="reset" xlink:href="#resetDef" x="30" y="36" onmousedown="handleReset()"/>
                <g id="arrowUp" xlink:href="#dirArrow" transform="translate(30 24)" onmousedown="handlePan(0,-1)">
                  <use xlink:href="#rim" fill="#404040">
                        <set attributeName="fill" to="#808080" begin="arrowUp.mouseover" end="arrowUp.mouseout"/>
                  </use>
                  <path fill="none" stroke="white" stroke-width="1.5" d="M0,-3.0v7 M-2.5,-0.5L0,-3.0L2.5,-0.5"/>
                </g>
                <g id="arrowRight" xlink:href="#dirArrow" transform="rotate(90) translate(36 -43)" onmousedown="handlePan(1,0)">
                  <use xlink:href="#rim" fill="#404040">
                        <set attributeName="fill" to="#808080" begin="arrowRight.mouseover" end="arrowRight.mouseout"/>
                  </use>
                  <path fill="none" stroke="white" stroke-width="1.5" d="M0,-3.0v7 M-2.5,-0.5L0,-3.0L2.5,-0.5"/>
                </g>
                <g id="arrowDown" xlink:href="#dirArrow" transform="rotate(180) translate(-30 -48)" onmousedown="handlePan(0,1)">
                  <use xlink:href="#rim" fill="#404040">
                        <set attributeName="fill" to="#808080" begin="arrowDown.mouseover" end="arrowDown.mouseout"/>
                  </use>
                  <path fill="none" stroke="white" stroke-width="1.5" d="M0,-3.0v7 M-2.5,-0.5L0,-3.0L2.5,-0.5"/>
                </g>
                <g id="arrowLeft" xlink:href="#dirArrow" transform="rotate(270) translate(-36 17)" onmousedown="handlePan(-1,0)">
                  <use xlink:href="#rim" fill="#404040">
                        <set attributeName="fill" to="#808080" begin="arrowLeft.mouseover" end="arrowLeft.mouseout"/>
                  </use>
                  <path fill="none" stroke="white" stroke-width="1.5" d="M0,-3.0v7 M-2.5,-0.5L0,-3.0L2.5,-0.5"/>
                </g>
        </g>
        <svg viewBox="0 0 15 15" width="100%" height="30px" preserveAspectRatio="xMaxYMin meet">
         <g id="arrow_out" transform="scale(0.3 0.3)">
          <a xlink:href="event_8cc__incl_org.svg" target="_base">
           <rect id="button" ry="5" rx="5" y="6" x="6" height="38" width="38"
                fill="#f2f5e9" fill-opacity="0.5" stroke="#606060" stroke-width="1.0"/>
           <path id="arrow"
             d="M 11.500037,31.436501 C 11.940474,20.09759 22.043105,11.32322 32.158766,21.979434 L 37.068811,17.246167 C 37.068811,17.246167 37.088388,32 37.088388,32 L 22.160133,31.978069 C 22.160133,31.978069 26.997745,27.140456 26.997745,27.140456 C 18.528582,18.264221 13.291696,25.230495 11.500037,31.436501 z"
             style="fill:#404040;"/>
          </a>
         </g>
        </svg>
</svg>
