<?xml version="1.0" encoding="UTF-8" standalone="no"?>
<!DOCTYPE svg PUBLIC "-//W3C//DTD SVG 1.1//EN"
 "http://www.w3.org/Graphics/SVG/1.1/DTD/svg11.dtd">
<!-- Generated by graphviz version 2.38.0 (20140413.2041)
 -->
<!-- Title: event.h Pages: 1 -->
<svg width="1097pt" height="151pt"
 viewBox="0.00 0.00 1097.00 151.00" xmlns="http://www.w3.org/2000/svg" xmlns:xlink="http://www.w3.org/1999/xlink">
<g id="graph0" class="graph" transform="scale(1 1) rotate(0) translate(4 147)">
<title>event.h</title>
<polygon fill="white" stroke="none" points="-4,4 -4,-147 1093,-147 1093,4 -4,4"/>
<!-- Node1 -->
<g id="node1" class="node"><title>Node1</title>
<polygon fill="#bfbfbf" stroke="black" points="508.5,-123.5 508.5,-142.5 561.5,-142.5 561.5,-123.5 508.5,-123.5"/>
<text text-anchor="middle" x="535" y="-130.5" font-family="Helvetica,sans-Serif" font-size="10.00">event.h</text>
</g>
<!-- Node2 -->
<g id="node2" class="node"><title>Node2</title>
<polygon fill="white" stroke="#bfbfbf" points="478.5,-6 478.5,-25 527.5,-25 527.5,-6 478.5,-6"/>
<text text-anchor="middle" x="503" y="-13" font-family="Helvetica,sans-Serif" font-size="10.00">cstdint</text>
</g>
<!-- Node1&#45;&gt;Node2 -->
<g id="edge1" class="edge"><title>Node1&#45;&gt;Node2</title>
<path fill="none" stroke="midnightblue" d="M509.496,-123.472C493.013,-116.478 472.861,-104.792 463,-87 452.427,-67.924 469.317,-46.106 484.292,-31.8577"/>
<polygon fill="midnightblue" stroke="midnightblue" points="486.671,-34.4258 491.793,-25.1514 482.005,-29.2073 486.671,-34.4258"/>
</g>
<!-- Node3 -->
<g id="node3" class="node"><title>Node3</title>
<polygon fill="white" stroke="#bfbfbf" points="594.5,-67.5 594.5,-86.5 671.5,-86.5 671.5,-67.5 594.5,-67.5"/>
<text text-anchor="middle" x="633" y="-74.5" font-family="Helvetica,sans-Serif" font-size="10.00">initializer_list</text>
</g>
<!-- Node1&#45;&gt;Node3 -->
<g id="edge2" class="edge"><title>Node1&#45;&gt;Node3</title>
<path fill="none" stroke="midnightblue" d="M550.745,-123.324C566.319,-114.743 590.377,-101.486 608.459,-91.5224"/>
<polygon fill="midnightblue" stroke="midnightblue" points="610.224,-94.546 617.294,-86.6545 606.846,-88.4152 610.224,-94.546"/>
</g>
<!-- Node4 -->
<g id="node4" class="node"><title>Node4</title>
<polygon fill="white" stroke="#bfbfbf" points="689.5,-67.5 689.5,-86.5 746.5,-86.5 746.5,-67.5 689.5,-67.5"/>
<text text-anchor="middle" x="718" y="-74.5" font-family="Helvetica,sans-Serif" font-size="10.00">memory</text>
</g>
<!-- Node1&#45;&gt;Node4 -->
<g id="edge3" class="edge"><title>Node1&#45;&gt;Node4</title>
<path fill="none" stroke="midnightblue" d="M561.61,-124.148C592.557,-115.016 643.907,-99.8636 679.274,-89.4274"/>
<polygon fill="midnightblue" stroke="midnightblue" points="680.645,-92.6722 689.245,-86.4851 678.663,-85.9584 680.645,-92.6722"/>
</g>
<!-- Node5 -->
<g id="node5" class="node"><title>Node5</title>
<polygon fill="white" stroke="#bfbfbf" points="764.5,-67.5 764.5,-86.5 819.5,-86.5 819.5,-67.5 764.5,-67.5"/>
<text text-anchor="middle" x="792" y="-74.5" font-family="Helvetica,sans-Serif" font-size="10.00">optional</text>
</g>
<!-- Node1&#45;&gt;Node5 -->
<g id="edge4" class="edge"><title>Node1&#45;&gt;Node5</title>
<path fill="none" stroke="midnightblue" d="M561.616,-126.974C601.427,-119.371 679.07,-104.218 754.043,-87.3767"/>
<polygon fill="midnightblue" stroke="midnightblue" points="755.139,-90.7173 764.121,-85.0987 753.595,-83.8896 755.139,-90.7173"/>
</g>
<!-- Node6 -->
<g id="node6" class="node"><title>Node6</title>
<polygon fill="white" stroke="#bfbfbf" points="270,-6 270,-25 314,-25 314,-6 270,-6"/>
<text text-anchor="middle" x="292" y="-13" font-family="Helvetica,sans-Serif" font-size="10.00">string</text>
</g>
<!-- Node1&#45;&gt;Node6 -->
<g id="edge5" class="edge"><title>Node1&#45;&gt;Node6</title>
<path fill="none" stroke="midnightblue" d="M516.736,-123.319C474.413,-103.203 369.438,-53.3068 319.388,-29.5176"/>
<polygon fill="midnightblue" stroke="midnightblue" points="320.679,-26.2563 310.145,-25.1245 317.674,-32.5785 320.679,-26.2563"/>
</g>
<!-- Node7 -->
<g id="node7" class="node"><title>Node7</title>
<polygon fill="white" stroke="#bfbfbf" points="0,-6 0,-25 42,-25 42,-6 0,-6"/>
<text text-anchor="middle" x="21" y="-13" font-family="Helvetica,sans-Serif" font-size="10.00">utility</text>
</g>
<!-- Node1&#45;&gt;Node7 -->
<g id="edge6" class="edge"><title>Node1&#45;&gt;Node7</title>
<path fill="none" stroke="midnightblue" d="M508.453,-129.48C434.063,-121.785 218.098,-95.1034 51,-31 49.616,-30.4691 48.2085,-29.8991 46.796,-29.3033"/>
<polygon fill="midnightblue" stroke="midnightblue" points="48.1529,-26.0756 37.5998,-25.1352 45.2631,-32.4513 48.1529,-26.0756"/>
</g>
<!-- Node8 -->
<g id="node8" class="node"><title>Node8</title>
<polygon fill="white" stroke="#bfbfbf" points="838,-67.5 838,-86.5 888,-86.5 888,-67.5 838,-67.5"/>
<text text-anchor="middle" x="863" y="-74.5" font-family="Helvetica,sans-Serif" font-size="10.00">variant</text>
</g>
<!-- Node1&#45;&gt;Node8 -->
<g id="edge7" class="edge"><title>Node1&#45;&gt;Node8</title>
<path fill="none" stroke="midnightblue" d="M561.524,-128.906C611.652,-122.852 723.878,-108.318 827.792,-87.0637"/>
<polygon fill="midnightblue" stroke="midnightblue" points="828.738,-90.4421 837.82,-84.986 827.318,-83.5877 828.738,-90.4421"/>
</g>
<!-- Node9 -->
<g id="node9" class="node"><title>Node9</title>
<polygon fill="white" stroke="#bfbfbf" points="545.5,-6 545.5,-25 592.5,-25 592.5,-6 545.5,-6"/>
<text text-anchor="middle" x="569" y="-13" font-family="Helvetica,sans-Serif" font-size="10.00">vector</text>
</g>
<!-- Node1&#45;&gt;Node9 -->
<g id="edge8" class="edge"><title>Node1&#45;&gt;Node9</title>
<path fill="none" stroke="midnightblue" d="M537.556,-123.319C543.044,-104.673 556.064,-60.443 563.515,-35.1317"/>
<polygon fill="midnightblue" stroke="midnightblue" points="566.948,-35.8634 566.415,-25.282 560.233,-33.8866 566.948,-35.8634"/>
</g>
<!-- Node10 -->
<g id="node10" class="node"><title>Node10</title>
<g id="a_node10"><a xlink:href="element_8h.xhtml" target="_top" xlink:title="Helper classes, structs, and properties common to all other classes. ">
<polygon fill="white" stroke="black" points="472.5,-67.5 472.5,-86.5 537.5,-86.5 537.5,-67.5 472.5,-67.5"/>
<text text-anchor="middle" x="505" y="-74.5" font-family="Helvetica,sans-Serif" font-size="10.00">element.h</text>
</a>
</g>
</g>
<!-- Node1&#45;&gt;Node10 -->
<g id="edge9" class="edge"><title>Node1&#45;&gt;Node10</title>
<path fill="none" stroke="midnightblue" d="M530.046,-123.083C525.896,-115.613 519.847,-104.724 514.733,-95.5199"/>
<polygon fill="midnightblue" stroke="midnightblue" points="517.778,-93.7929 509.862,-86.7511 511.659,-97.1924 517.778,-93.7929"/>
</g>
<!-- Node15 -->
<g id="node15" class="node"><title>Node15</title>
<g id="a_node15"><a xlink:href="expression_8h.xhtml" target="_top" xlink:title="Provides the base class for all expressions and units for expression values. ">
<polygon fill="white" stroke="black" points="253.5,-67.5 253.5,-86.5 330.5,-86.5 330.5,-67.5 253.5,-67.5"/>
<text text-anchor="middle" x="292" y="-74.5" font-family="Helvetica,sans-Serif" font-size="10.00">expression.h</text>
</a>
</g>
</g>
<!-- Node1&#45;&gt;Node15 -->
<g id="edge17" class="edge"><title>Node1&#45;&gt;Node15</title>
<path fill="none" stroke="midnightblue" d="M508.066,-126.015C467.72,-117.049 390.964,-99.992 340.644,-88.8097"/>
<polygon fill="midnightblue" stroke="midnightblue" points="341.162,-85.3395 330.64,-86.5868 339.643,-92.1728 341.162,-85.3395"/>
</g>
<!-- Node10&#45;&gt;Node2 -->
<g id="edge10" class="edge"><title>Node10&#45;&gt;Node2</title>
<path fill="none" stroke="midnightblue" d="M504.713,-67.4751C504.431,-59.0803 503.991,-45.9806 503.627,-35.1631"/>
<polygon fill="midnightblue" stroke="midnightblue" points="507.12,-34.8858 503.286,-25.0091 500.124,-35.1211 507.12,-34.8858"/>
</g>
<!-- Node10&#45;&gt;Node6 -->
<g id="edge11" class="edge"><title>Node10&#45;&gt;Node6</title>
<path fill="none" stroke="midnightblue" d="M472.22,-69.9053C435.342,-62.5888 373.939,-49.0161 323,-31 321.383,-30.4279 319.736,-29.8005 318.086,-29.1373"/>
<polygon fill="midnightblue" stroke="midnightblue" points="319.37,-25.879 308.805,-25.0873 316.571,-32.2948 319.37,-25.879"/>
</g>
<!-- Node10&#45;&gt;Node9 -->
<g id="edge12" class="edge"><title>Node10&#45;&gt;Node9</title>
<path fill="none" stroke="midnightblue" d="M514.17,-67.4751C524.15,-58.1966 540.312,-43.1706 552.509,-31.831"/>
<polygon fill="midnightblue" stroke="midnightblue" points="554.907,-34.3814 559.847,-25.0091 550.14,-29.2547 554.907,-34.3814"/>
</g>
<!-- Node11 -->
<g id="node11" class="node"><title>Node11</title>
<polygon fill="white" stroke="#bfbfbf" points="611,-0.5 611,-30.5 751,-30.5 751,-0.5 611,-0.5"/>
<text text-anchor="start" x="619" y="-18.5" font-family="Helvetica,sans-Serif" font-size="10.00">boost/multi_index/hashed</text>
<text text-anchor="middle" x="681" y="-7.5" font-family="Helvetica,sans-Serif" font-size="10.00">_index.hpp</text>
</g>
<!-- Node10&#45;&gt;Node11 -->
<g id="edge13" class="edge"><title>Node10&#45;&gt;Node11</title>
<path fill="none" stroke="midnightblue" d="M530.217,-67.4751C556.058,-58.7388 596.972,-44.9073 629.664,-33.855"/>
<polygon fill="midnightblue" stroke="midnightblue" points="631.168,-37.0413 639.52,-30.523 628.926,-30.41 631.168,-37.0413"/>
</g>
<!-- Node12 -->
<g id="node12" class="node"><title>Node12</title>
<polygon fill="white" stroke="#bfbfbf" points="769,-0.5 769,-30.5 899,-30.5 899,-0.5 769,-0.5"/>
<text text-anchor="start" x="777" y="-18.5" font-family="Helvetica,sans-Serif" font-size="10.00">boost/multi_index/mem</text>
<text text-anchor="middle" x="834" y="-7.5" font-family="Helvetica,sans-Serif" font-size="10.00">_fun.hpp</text>
</g>
<!-- Node10&#45;&gt;Node12 -->
<g id="edge14" class="edge"><title>Node10&#45;&gt;Node12</title>
<path fill="none" stroke="midnightblue" d="M537.641,-70.4422C584.376,-62.4404 673.31,-47.0502 758.779,-31.2089"/>
<polygon fill="midnightblue" stroke="midnightblue" points="759.451,-34.6441 768.643,-29.3757 758.172,-27.7619 759.451,-34.6441"/>
</g>
<!-- Node13 -->
<g id="node13" class="node"><title>Node13</title>
<polygon fill="white" stroke="#bfbfbf" points="917,-6 917,-25 1089,-25 1089,-6 917,-6"/>
<text text-anchor="middle" x="1003" y="-13" font-family="Helvetica,sans-Serif" font-size="10.00">boost/multi_index_container.hpp</text>
</g>
<!-- Node10&#45;&gt;Node13 -->
<g id="edge15" class="edge"><title>Node10&#45;&gt;Node13</title>
<path fill="none" stroke="midnightblue" d="M537.796,-72.3557C632.259,-61.8566 898.818,-32.2129 908,-31 918.278,-29.6423 929.164,-28.0894 939.757,-26.516"/>
<polygon fill="midnightblue" stroke="midnightblue" points="940.426,-29.9549 949.794,-25.0069 939.385,-23.0327 940.426,-29.9549"/>
</g>
<!-- Node14 -->
<g id="node14" class="node"><title>Node14</title>
<polygon fill="white" stroke="#bfbfbf" points="332,-6 332,-25 460,-25 460,-6 332,-6"/>
<text text-anchor="middle" x="396" y="-13" font-family="Helvetica,sans-Serif" font-size="10.00">boost/noncopyable.hpp</text>
</g>
<!-- Node10&#45;&gt;Node14 -->
<g id="edge16" class="edge"><title>Node10&#45;&gt;Node14</title>
<path fill="none" stroke="midnightblue" d="M489.383,-67.4751C471.414,-57.6664 441.679,-41.4346 420.594,-29.925"/>
<polygon fill="midnightblue" stroke="midnightblue" points="422.042,-26.7284 411.588,-25.0091 418.689,-32.8726 422.042,-26.7284"/>
</g>
<!-- Node15&#45;&gt;Node6 -->
<g id="edge19" class="edge"><title>Node15&#45;&gt;Node6</title>
<path fill="none" stroke="midnightblue" d="M292,-67.4751C292,-59.0803 292,-45.9806 292,-35.1631"/>
<polygon fill="midnightblue" stroke="midnightblue" points="295.5,-35.0091 292,-25.0091 288.5,-35.0091 295.5,-35.0091"/>
</g>
<!-- Node15&#45;&gt;Node7 -->
<g id="edge20" class="edge"><title>Node15&#45;&gt;Node7</title>
<path fill="none" stroke="midnightblue" d="M253.229,-71.9748C204.941,-66.2359 120.35,-53.7827 51,-31 49.3753,-30.4663 47.7258,-29.8624 46.0788,-29.2118"/>
<polygon fill="midnightblue" stroke="midnightblue" points="47.4262,-25.9807 36.8651,-25.1362 44.5945,-32.3824 47.4262,-25.9807"/>
</g>
<!-- Node15&#45;&gt;Node9 -->
<g id="edge21" class="edge"><title>Node15&#45;&gt;Node9</title>
<path fill="none" stroke="midnightblue" d="M330.697,-71.6752C379.379,-65.5982 465.18,-52.7668 536,-31 537.929,-30.4071 539.896,-29.7334 541.86,-29.0088"/>
<polygon fill="midnightblue" stroke="midnightblue" points="543.531,-32.1078 551.476,-25.0986 540.894,-25.6234 543.531,-32.1078"/>
</g>
<!-- Node15&#45;&gt;Node14 -->
<g id="edge23" class="edge"><title>Node15&#45;&gt;Node14</title>
<path fill="none" stroke="midnightblue" d="M306.901,-67.4751C323.968,-57.7106 352.161,-41.5807 372.262,-30.0808"/>
<polygon fill="midnightblue" stroke="midnightblue" points="374.185,-33.013 381.127,-25.0091 370.709,-26.9371 374.185,-33.013"/>
</g>
<!-- Node16 -->
<g id="node16" class="node"><title>Node16</title>
<polygon fill="white" stroke="#bfbfbf" points="60,-6 60,-25 122,-25 122,-6 60,-6"/>
<text text-anchor="middle" x="91" y="-13" font-family="Helvetica,sans-Serif" font-size="10.00">algorithm</text>
</g>
<!-- Node15&#45;&gt;Node16 -->
<g id="edge18" class="edge"><title>Node15&#45;&gt;Node16</title>
<path fill="none" stroke="midnightblue" d="M258.791,-67.4994C226.085,-58.9445 174.806,-45.0399 131,-31 128.45,-30.1828 125.82,-29.3062 123.184,-28.4036"/>
<polygon fill="midnightblue" stroke="midnightblue" points="124.338,-25.0992 113.743,-25.0796 122.013,-31.7019 124.338,-25.0992"/>
</g>
<!-- Node17 -->
<g id="node17" class="node"><title>Node17</title>
<polygon fill="white" stroke="#bfbfbf" points="140,-0.5 140,-30.5 252,-30.5 252,-0.5 140,-0.5"/>
<text text-anchor="start" x="148" y="-18.5" font-family="Helvetica,sans-Serif" font-size="10.00">boost/icl/continuous</text>
<text text-anchor="middle" x="196" y="-7.5" font-family="Helvetica,sans-Serif" font-size="10.00">_interval.hpp</text>
</g>
<!-- Node15&#45;&gt;Node17 -->
<g id="edge22" class="edge"><title>Node15&#45;&gt;Node17</title>
<path fill="none" stroke="midnightblue" d="M278.246,-67.4751C265.001,-59.266 244.497,-46.5581 227.276,-35.8845"/>
<polygon fill="midnightblue" stroke="midnightblue" points="228.969,-32.8162 218.625,-30.523 225.281,-38.7661 228.969,-32.8162"/>
</g>
</g>
</svg>
