<?xml version="1.0" encoding="UTF-8" standalone="no"?>
<!DOCTYPE svg PUBLIC "-//W3C//DTD SVG 1.1//EN"
 "http://www.w3.org/Graphics/SVG/1.1/DTD/svg11.dtd">
<!-- Generated by graphviz version 2.38.0 (20140413.2041)
 -->
<!-- Title: event_tree.cc Pages: 1 -->
<!--zoomable 319 -->
<svg id="main" version="1.1" xmlns="http://www.w3.org/2000/svg" xmlns:xlink="http://www.w3.org/1999/xlink" xml:space="preserve" onload="init(evt)">
<style type="text/css"><![CDATA[
.edge:hover path { stroke: red; }
.edge:hover polygon { stroke: red; fill: red; }
]]></style>
<script type="text/javascript"><![CDATA[
var edges = document.getElementsByTagName('g');
if (edges && edges.length) {
  for (var i=0;i<edges.length;i++) {
    if (edges[i].id.substr(0,4)=='edge') {
      edges[i].setAttribute('class','edge');
    }
  }
}
]]></script>
        <defs>
                <circle id="rim" cx="0" cy="0" r="7"/>
                <circle id="rim2" cx="0" cy="0" r="3.5"/>
                <g id="zoomPlus">
                        <use xlink:href="#rim" fill="#404040">
                                <set attributeName="fill" to="#808080" begin="zoomplus.mouseover" end="zoomplus.mouseout"/>
                        </use>
                        <path d="M-4,0h8M0,-4v8" fill="none" stroke="white" stroke-width="1.5" pointer-events="none"/>
                </g>
                <g id="zoomMin">
                        <use xlink:href="#rim" fill="#404040">
                                <set attributeName="fill" to="#808080" begin="zoomminus.mouseover" end="zoomminus.mouseout"/>
                        </use>
                        <path d="M-4,0h8" fill="none" stroke="white" stroke-width="1.5" pointer-events="none"/>
                </g>
                <g id="dirArrow">
                        <path fill="none" stroke="white" stroke-width="1.5" d="M0,-3.0v7 M-2.5,-0.5L0,-3.0L2.5,-0.5"/>
                </g>
               <g id="resetDef">
                       <use xlink:href="#rim2" fill="#404040">
                               <set attributeName="fill" to="#808080" begin="reset.mouseover" end="reset.mouseout"/>
                       </use>
               </g>
        </defs>

<script type="text/javascript">
var viewWidth = 1631;
var viewHeight = 319;
var sectionId = 'dynsection-0';
</script>
<script xlink:href="svgpan.js"/>
<svg id="graph" class="graph">
<g id="viewport">
<title>event_tree.cc</title>
<polygon fill="white" stroke="none" points="-4,4 -4,-315 1626.5,-315 1626.5,4 -4,4"/>
<!-- Node1 -->
<g id="node1" class="node"><title>Node1</title>
<polygon fill="#bfbfbf" stroke="black" points="1125.5,-291.5 1125.5,-310.5 1207.5,-310.5 1207.5,-291.5 1125.5,-291.5"/>
<text text-anchor="middle" x="1166.5" y="-298.5" font-family="Helvetica,sans-Serif" font-size="10.00">event_tree.cc</text>
</g>
<!-- Node2 -->
<g id="node2" class="node"><title>Node2</title>
<g id="a_node2"><a xlink:href="event__tree_8h.xhtml" target="_top" xlink:title="Event Tree facilities. ">
<polygon fill="white" stroke="black" points="240,-235.5 240,-254.5 317,-254.5 317,-235.5 240,-235.5"/>
<text text-anchor="middle" x="278.5" y="-242.5" font-family="Helvetica,sans-Serif" font-size="10.00">event_tree.h</text>
</a>
</g>
</g>
<!-- Node1&#45;&gt;Node2 -->
<g id="edge1" class="edge"><title>Node1&#45;&gt;Node2</title>
<path fill="none" stroke="midnightblue" d="M1125.45,-297.504C979.405,-288.623 485.332,-258.578 327.442,-248.976"/>
<polygon fill="midnightblue" stroke="midnightblue" points="327.294,-245.461 317.1,-248.347 326.869,-252.448 327.294,-245.461"/>
</g>
<!-- Node20 -->
<g id="node20" class="node"><title>Node20</title>
<polygon fill="white" stroke="#bfbfbf" points="1309.5,-6 1309.5,-25 1371.5,-25 1371.5,-6 1309.5,-6"/>
<text text-anchor="middle" x="1340.5" y="-13" font-family="Helvetica,sans-Serif" font-size="10.00">algorithm</text>
</g>
<!-- Node1&#45;&gt;Node20 -->
<g id="edge40" class="edge"><title>Node1&#45;&gt;Node20</title>
<path fill="none" stroke="midnightblue" d="M1207.77,-298.813C1320.02,-294.472 1622.5,-274.899 1622.5,-190 1622.5,-190 1622.5,-190 1622.5,-132 1622.5,-80.6082 1460.09,-40.6993 1381.77,-24.4424"/>
<polygon fill="midnightblue" stroke="midnightblue" points="1382.25,-20.9684 1371.76,-22.3969 1380.85,-27.8268 1382.25,-20.9684"/>
</g>
<!-- Node22 -->
<g id="node22" class="node"><title>Node22</title>
<g id="a_node22"><a xlink:href="error_8h.xhtml" target="_top" xlink:title="Exceptions for SCRAM. ">
<polygon fill="white" stroke="black" points="1142.5,-235.5 1142.5,-254.5 1190.5,-254.5 1190.5,-235.5 1142.5,-235.5"/>
<text text-anchor="middle" x="1166.5" y="-242.5" font-family="Helvetica,sans-Serif" font-size="10.00">error.h</text>
</a>
</g>
</g>
<!-- Node1&#45;&gt;Node22 -->
<g id="edge41" class="edge"><title>Node1&#45;&gt;Node22</title>
<path fill="none" stroke="midnightblue" d="M1166.5,-291.083C1166.5,-284.006 1166.5,-273.861 1166.5,-264.986"/>
<polygon fill="midnightblue" stroke="midnightblue" points="1170,-264.751 1166.5,-254.751 1163,-264.751 1170,-264.751"/>
</g>
<!-- Node3 -->
<g id="node3" class="node"><title>Node3</title>
<polygon fill="white" stroke="#bfbfbf" points="803,-67.5 803,-86.5 860,-86.5 860,-67.5 803,-67.5"/>
<text text-anchor="middle" x="831.5" y="-74.5" font-family="Helvetica,sans-Serif" font-size="10.00">memory</text>
</g>
<!-- Node2&#45;&gt;Node3 -->
<g id="edge2" class="edge"><title>Node2&#45;&gt;Node3</title>
<path fill="none" stroke="midnightblue" d="M317.208,-241.604C399.645,-236.132 589.956,-221.432 650.5,-199 717.564,-174.152 784.369,-119.935 814.663,-93.3366"/>
<polygon fill="midnightblue" stroke="midnightblue" points="817.07,-95.8795 822.209,-86.6142 812.414,-90.6527 817.07,-95.8795"/>
</g>
<!-- Node4 -->
<g id="node4" class="node"><title>Node4</title>
<polygon fill="white" stroke="#bfbfbf" points="629.5,-6 629.5,-25 673.5,-25 673.5,-6 629.5,-6"/>
<text text-anchor="middle" x="651.5" y="-13" font-family="Helvetica,sans-Serif" font-size="10.00">string</text>
</g>
<!-- Node2&#45;&gt;Node4 -->
<g id="edge3" class="edge"><title>Node2&#45;&gt;Node4</title>
<path fill="none" stroke="midnightblue" d="M282.877,-235.136C299.904,-200.813 361.564,-78.0022 377.5,-67 466.984,-5.22033 515.195,-61.7359 619.5,-31 621.431,-30.4311 623.395,-29.7679 625.353,-29.0442"/>
<polygon fill="midnightblue" stroke="midnightblue" points="627.005,-32.1479 634.896,-25.0777 624.318,-25.684 627.005,-32.1479"/>
</g>
<!-- Node5 -->
<g id="node5" class="node"><title>Node5</title>
<polygon fill="white" stroke="#bfbfbf" points="82.5,-67.5 82.5,-86.5 132.5,-86.5 132.5,-67.5 82.5,-67.5"/>
<text text-anchor="middle" x="107.5" y="-74.5" font-family="Helvetica,sans-Serif" font-size="10.00">variant</text>
</g>
<!-- Node2&#45;&gt;Node5 -->
<g id="edge4" class="edge"><title>Node2&#45;&gt;Node5</title>
<path fill="none" stroke="midnightblue" d="M239.757,-240.125C210.464,-235.22 171.2,-224.118 146.5,-199 118.865,-170.898 110.807,-123.125 108.461,-96.7979"/>
<polygon fill="midnightblue" stroke="midnightblue" points="111.94,-96.383 107.75,-86.6523 104.958,-96.8726 111.94,-96.383"/>
</g>
<!-- Node6 -->
<g id="node6" class="node"><title>Node6</title>
<polygon fill="white" stroke="#bfbfbf" points="0,-6 0,-25 47,-25 47,-6 0,-6"/>
<text text-anchor="middle" x="23.5" y="-13" font-family="Helvetica,sans-Serif" font-size="10.00">vector</text>
</g>
<!-- Node2&#45;&gt;Node6 -->
<g id="edge5" class="edge"><title>Node2&#45;&gt;Node6</title>
<path fill="none" stroke="midnightblue" d="M273.967,-235.368C258.851,-207.337 207.379,-117.746 141.5,-67 108.998,-41.9641 94.1699,-47.2523 56.5,-31 55.1354,-30.4112 53.7399,-29.8069 52.3311,-29.195"/>
<polygon fill="midnightblue" stroke="midnightblue" points="53.5898,-25.9255 43.0248,-25.1306 50.7881,-32.3404 53.5898,-25.9255"/>
</g>
<!-- Node7 -->
<g id="node7" class="node"><title>Node7</title>
<g id="a_node7"><a xlink:href="element_8h.xhtml" target="_top" xlink:title="Helper classes, structs, and properties common to all other classes. ">
<polygon fill="white" stroke="black" points="265,-67.5 265,-86.5 330,-86.5 330,-67.5 265,-67.5"/>
<text text-anchor="middle" x="297.5" y="-74.5" font-family="Helvetica,sans-Serif" font-size="10.00">element.h</text>
</a>
</g>
</g>
<!-- Node2&#45;&gt;Node7 -->
<g id="edge6" class="edge"><title>Node2&#45;&gt;Node7</title>
<path fill="none" stroke="midnightblue" d="M279.522,-235.075C282.512,-208.945 291.295,-132.211 295.374,-96.577"/>
<polygon fill="midnightblue" stroke="midnightblue" points="298.859,-96.9013 296.519,-86.5681 291.905,-96.1052 298.859,-96.9013"/>
</g>
<!-- Node13 -->
<g id="node13" class="node"><title>Node13</title>
<g id="a_node13"><a xlink:href="variant_8h.xhtml" target="_top" xlink:title="Extra helper functions for std::variant. ">
<polygon fill="white" stroke="black" points="17,-123.5 17,-142.5 94,-142.5 94,-123.5 17,-123.5"/>
<text text-anchor="middle" x="55.5" y="-130.5" font-family="Helvetica,sans-Serif" font-size="10.00">ext/variant.h</text>
</a>
</g>
</g>
<!-- Node2&#45;&gt;Node13 -->
<g id="edge14" class="edge"><title>Node2&#45;&gt;Node13</title>
<path fill="none" stroke="midnightblue" d="M239.966,-240.67C203.596,-236.017 148.783,-224.977 108.5,-199 89.8292,-186.96 74.5874,-166.182 65.3194,-151.359"/>
<polygon fill="midnightblue" stroke="midnightblue" points="68.2426,-149.427 60.1157,-142.63 62.2298,-153.012 68.2426,-149.427"/>
</g>
<!-- Node14 -->
<g id="node14" class="node"><title>Node14</title>
<g id="a_node14"><a xlink:href="instruction_8h.xhtml" target="_top" xlink:title="Model and event tree modifier instructions. ">
<polygon fill="white" stroke="black" points="565.5,-179.5 565.5,-198.5 641.5,-198.5 641.5,-179.5 565.5,-179.5"/>
<text text-anchor="middle" x="603.5" y="-186.5" font-family="Helvetica,sans-Serif" font-size="10.00">instruction.h</text>
</a>
</g>
</g>
<!-- Node2&#45;&gt;Node14 -->
<g id="edge16" class="edge"><title>Node2&#45;&gt;Node14</title>
<path fill="none" stroke="midnightblue" d="M317.058,-237.593C376.59,-227.702 490.764,-208.732 555.539,-197.969"/>
<polygon fill="midnightblue" stroke="midnightblue" points="556.204,-201.406 565.495,-196.315 555.057,-194.501 556.204,-201.406"/>
</g>
<!-- Node7&#45;&gt;Node4 -->
<g id="edge8" class="edge"><title>Node7&#45;&gt;Node4</title>
<path fill="none" stroke="midnightblue" d="M330.072,-69.5049C334.901,-68.6168 339.825,-67.753 344.5,-67 466.197,-47.4001 500.961,-64.8054 619.5,-31 621.436,-30.448 623.404,-29.7974 625.364,-29.0827"/>
<polygon fill="midnightblue" stroke="midnightblue" points="627.008,-32.1905 634.913,-25.136 624.334,-25.7213 627.008,-32.1905"/>
</g>
<!-- Node7&#45;&gt;Node6 -->
<g id="edge9" class="edge"><title>Node7&#45;&gt;Node6</title>
<path fill="none" stroke="midnightblue" d="M264.889,-69.7303C260.065,-68.8101 255.154,-67.8773 250.5,-67 164.324,-50.7535 140.31,-56.8098 56.5,-31 54.5712,-30.406 52.6047,-29.7316 50.6406,-29.0064"/>
<polygon fill="midnightblue" stroke="midnightblue" points="51.6071,-25.6211 41.0253,-25.0949 48.9693,-32.1051 51.6071,-25.6211"/>
</g>
<!-- Node8 -->
<g id="node8" class="node"><title>Node8</title>
<polygon fill="white" stroke="#bfbfbf" points="562,-6 562,-25 611,-25 611,-6 562,-6"/>
<text text-anchor="middle" x="586.5" y="-13" font-family="Helvetica,sans-Serif" font-size="10.00">cstdint</text>
</g>
<!-- Node7&#45;&gt;Node8 -->
<g id="edge7" class="edge"><title>Node7&#45;&gt;Node8</title>
<path fill="none" stroke="midnightblue" d="M330.102,-69.6792C334.927,-68.7663 339.841,-67.8491 344.5,-67 436.798,-50.177 462.525,-57.5801 552.5,-31 554.65,-30.3648 556.847,-29.6329 559.037,-28.8426"/>
<polygon fill="midnightblue" stroke="midnightblue" points="560.425,-32.0572 568.435,-25.1218 557.849,-25.5487 560.425,-32.0572"/>
</g>
<!-- Node9 -->
<g id="node9" class="node"><title>Node9</title>
<polygon fill="white" stroke="#bfbfbf" points="65.5,-0.5 65.5,-30.5 205.5,-30.5 205.5,-0.5 65.5,-0.5"/>
<text text-anchor="start" x="73.5" y="-18.5" font-family="Helvetica,sans-Serif" font-size="10.00">boost/multi_index/hashed</text>
<text text-anchor="middle" x="135.5" y="-7.5" font-family="Helvetica,sans-Serif" font-size="10.00">_index.hpp</text>
</g>
<!-- Node7&#45;&gt;Node9 -->
<g id="edge10" class="edge"><title>Node7&#45;&gt;Node9</title>
<path fill="none" stroke="midnightblue" d="M274.289,-67.4751C250.606,-58.7765 213.169,-45.0264 183.142,-33.9981"/>
<polygon fill="midnightblue" stroke="midnightblue" points="184.274,-30.6853 173.68,-30.523 181.86,-37.2561 184.274,-30.6853"/>
</g>
<!-- Node10 -->
<g id="node10" class="node"><title>Node10</title>
<polygon fill="white" stroke="#bfbfbf" points="223.5,-0.5 223.5,-30.5 353.5,-30.5 353.5,-0.5 223.5,-0.5"/>
<text text-anchor="start" x="231.5" y="-18.5" font-family="Helvetica,sans-Serif" font-size="10.00">boost/multi_index/mem</text>
<text text-anchor="middle" x="288.5" y="-7.5" font-family="Helvetica,sans-Serif" font-size="10.00">_fun.hpp</text>
</g>
<!-- Node7&#45;&gt;Node10 -->
<g id="edge11" class="edge"><title>Node7&#45;&gt;Node10</title>
<path fill="none" stroke="midnightblue" d="M296.211,-67.4751C295.151,-60.471 293.596,-50.1919 292.16,-40.6956"/>
<polygon fill="midnightblue" stroke="midnightblue" points="295.577,-39.887 290.621,-30.523 288.656,-40.934 295.577,-39.887"/>
</g>
<!-- Node11 -->
<g id="node11" class="node"><title>Node11</title>
<polygon fill="white" stroke="#bfbfbf" points="371.5,-6 371.5,-25 543.5,-25 543.5,-6 371.5,-6"/>
<text text-anchor="middle" x="457.5" y="-13" font-family="Helvetica,sans-Serif" font-size="10.00">boost/multi_index_container.hpp</text>
</g>
<!-- Node7&#45;&gt;Node11 -->
<g id="edge12" class="edge"><title>Node7&#45;&gt;Node11</title>
<path fill="none" stroke="midnightblue" d="M320.424,-67.4751C347.87,-57.2687 394.016,-40.108 425.099,-28.5492"/>
<polygon fill="midnightblue" stroke="midnightblue" points="426.465,-31.7752 434.618,-25.0091 424.026,-25.2142 426.465,-31.7752"/>
</g>
<!-- Node12 -->
<g id="node12" class="node"><title>Node12</title>
<polygon fill="white" stroke="#bfbfbf" points="751.5,-6 751.5,-25 879.5,-25 879.5,-6 751.5,-6"/>
<text text-anchor="middle" x="815.5" y="-13" font-family="Helvetica,sans-Serif" font-size="10.00">boost/noncopyable.hpp</text>
</g>
<!-- Node7&#45;&gt;Node12 -->
<g id="edge13" class="edge"><title>Node7&#45;&gt;Node12</title>
<path fill="none" stroke="midnightblue" d="M330.184,-72.2205C344.674,-70.5713 361.933,-68.6433 377.5,-67 539.609,-49.8878 581.253,-54.9076 742.5,-31 750.229,-29.8541 758.379,-28.4405 766.321,-26.9496"/>
<polygon fill="midnightblue" stroke="midnightblue" points="767.069,-30.37 776.222,-25.0342 765.739,-23.4974 767.069,-30.37"/>
</g>
<!-- Node13&#45;&gt;Node5 -->
<g id="edge15" class="edge"><title>Node13&#45;&gt;Node5</title>
<path fill="none" stroke="midnightblue" d="M64.0867,-123.083C71.659,-115.22 82.8782,-103.569 92.0144,-94.0813"/>
<polygon fill="midnightblue" stroke="midnightblue" points="94.6577,-96.3821 99.073,-86.7511 89.6155,-91.5266 94.6577,-96.3821"/>
</g>
<!-- Node14&#45;&gt;Node3 -->
<g id="edge17" class="edge"><title>Node14&#45;&gt;Node3</title>
<path fill="none" stroke="midnightblue" d="M621.391,-179.368C661.182,-160.171 757.21,-113.842 804.401,-91.074"/>
<polygon fill="midnightblue" stroke="midnightblue" points="806.207,-94.0891 813.692,-86.5914 803.165,-87.7844 806.207,-94.0891"/>
</g>
<!-- Node14&#45;&gt;Node4 -->
<g id="edge18" class="edge"><title>Node14&#45;&gt;Node4</title>
<path fill="none" stroke="midnightblue" d="M605.946,-179.26C613.426,-152.536 636.102,-71.5174 646.361,-34.8618"/>
<polygon fill="midnightblue" stroke="midnightblue" points="649.791,-35.5927 649.116,-25.0194 643.05,-33.7059 649.791,-35.5927"/>
</g>
<!-- Node14&#45;&gt;Node6 -->
<g id="edge19" class="edge"><title>Node14&#45;&gt;Node6</title>
<path fill="none" stroke="midnightblue" d="M567.473,-179.463C530.331,-170.598 470.774,-156.203 419.5,-143 327.204,-119.233 301.207,-121.85 212.5,-87 194.736,-80.0213 192.15,-74.2612 174.5,-67 123.793,-46.1389 107.911,-50.0616 56.5,-31 54.8461,-30.3868 53.1563,-29.7328 51.4586,-29.0545"/>
<polygon fill="midnightblue" stroke="midnightblue" points="52.4187,-25.6617 41.8434,-25.0176 49.7089,-32.1159 52.4187,-25.6617"/>
</g>
<!-- Node14&#45;&gt;Node7 -->
<g id="edge21" class="edge"><title>Node14&#45;&gt;Node7</title>
<path fill="none" stroke="midnightblue" d="M579.743,-179.46C525.738,-160.047 393.615,-112.551 331.202,-90.1153"/>
<polygon fill="midnightblue" stroke="midnightblue" points="332.047,-86.6996 321.453,-86.6104 329.679,-93.2869 332.047,-86.6996"/>
</g>
<!-- Node14&#45;&gt;Node12 -->
<g id="edge20" class="edge"><title>Node14&#45;&gt;Node12</title>
<path fill="none" stroke="midnightblue" d="M641.626,-186.452C701.941,-181.689 817.719,-162.616 868.5,-87 881.96,-66.9572 858.736,-44.8606 838.909,-30.8427"/>
<polygon fill="midnightblue" stroke="midnightblue" points="840.716,-27.8406 830.46,-25.1831 836.821,-33.6564 840.716,-27.8406"/>
</g>
<!-- Node15 -->
<g id="node15" class="node"><title>Node15</title>
<g id="a_node15"><a xlink:href="event_8h.xhtml" target="_top" xlink:title="Contains event classes for fault trees. ">
<polygon fill="white" stroke="black" points="539,-123.5 539,-142.5 592,-142.5 592,-123.5 539,-123.5"/>
<text text-anchor="middle" x="565.5" y="-130.5" font-family="Helvetica,sans-Serif" font-size="10.00">event.h</text>
</a>
</g>
</g>
<!-- Node14&#45;&gt;Node15 -->
<g id="edge22" class="edge"><title>Node14&#45;&gt;Node15</title>
<path fill="none" stroke="midnightblue" d="M597.225,-179.083C591.858,-171.455 583.982,-160.264 577.421,-150.941"/>
<polygon fill="midnightblue" stroke="midnightblue" points="580.275,-148.915 571.658,-142.751 574.551,-152.943 580.275,-148.915"/>
</g>
<!-- Node19 -->
<g id="node19" class="node"><title>Node19</title>
<g id="a_node19"><a xlink:href="expression_8h.xhtml" target="_top" xlink:title="Provides the base class for all expressions and units for expression values. ">
<polygon fill="white" stroke="black" points="708,-67.5 708,-86.5 785,-86.5 785,-67.5 708,-67.5"/>
<text text-anchor="middle" x="746.5" y="-74.5" font-family="Helvetica,sans-Serif" font-size="10.00">expression.h</text>
</a>
</g>
</g>
<!-- Node14&#45;&gt;Node19 -->
<g id="edge39" class="edge"><title>Node14&#45;&gt;Node19</title>
<path fill="none" stroke="midnightblue" d="M614.721,-179.368C639.051,-160.653 696.904,-116.151 727.218,-92.8324"/>
<polygon fill="midnightblue" stroke="midnightblue" points="729.539,-95.4628 735.331,-86.5914 725.271,-89.9144 729.539,-95.4628"/>
</g>
<!-- Node15&#45;&gt;Node3 -->
<g id="edge25" class="edge"><title>Node15&#45;&gt;Node3</title>
<path fill="none" stroke="midnightblue" d="M592.244,-127.06C633.156,-119.43 713.965,-104.073 792.792,-87.0855"/>
<polygon fill="midnightblue" stroke="midnightblue" points="793.86,-90.4354 802.892,-84.8974 792.378,-83.5941 793.86,-90.4354"/>
</g>
<!-- Node15&#45;&gt;Node4 -->
<g id="edge27" class="edge"><title>Node15&#45;&gt;Node4</title>
<path fill="none" stroke="midnightblue" d="M571.964,-123.319C586.159,-104.255 620.267,-58.4467 638.873,-33.4582"/>
<polygon fill="midnightblue" stroke="midnightblue" points="641.796,-35.3931 644.961,-25.282 636.182,-31.2125 641.796,-35.3931"/>
</g>
<!-- Node15&#45;&gt;Node5 -->
<g id="edge29" class="edge"><title>Node15&#45;&gt;Node5</title>
<path fill="none" stroke="midnightblue" d="M538.896,-128.863C460.652,-119.638 231.255,-92.5912 142.826,-82.1651"/>
<polygon fill="midnightblue" stroke="midnightblue" points="143.102,-78.6734 132.76,-80.9783 142.282,-85.6252 143.102,-78.6734"/>
</g>
<!-- Node15&#45;&gt;Node6 -->
<g id="edge30" class="edge"><title>Node15&#45;&gt;Node6</title>
<path fill="none" stroke="midnightblue" d="M538.814,-130.738C484.448,-127.602 357.388,-117.377 255.5,-87 235.301,-80.9779 232.433,-73.8514 212.5,-67 145.209,-43.8701 124.034,-53.4101 56.5,-31 54.6291,-30.3792 52.719,-29.6916 50.8076,-28.9631"/>
<polygon fill="midnightblue" stroke="midnightblue" points="51.9959,-25.6674 41.4163,-25.099 49.3323,-32.1408 51.9959,-25.6674"/>
</g>
<!-- Node15&#45;&gt;Node7 -->
<g id="edge31" class="edge"><title>Node15&#45;&gt;Node7</title>
<path fill="none" stroke="midnightblue" d="M538.823,-126.625C492.333,-117.257 396.102,-97.8676 340.225,-86.6088"/>
<polygon fill="midnightblue" stroke="midnightblue" points="340.777,-83.1497 330.282,-84.6054 339.394,-90.0118 340.777,-83.1497"/>
</g>
<!-- Node15&#45;&gt;Node8 -->
<g id="edge23" class="edge"><title>Node15&#45;&gt;Node8</title>
<path fill="none" stroke="midnightblue" d="M567.078,-123.319C570.469,-104.673 578.51,-60.443 583.112,-35.1317"/>
<polygon fill="midnightblue" stroke="midnightblue" points="586.558,-35.7468 584.903,-25.282 579.671,-34.4946 586.558,-35.7468"/>
</g>
<!-- Node16 -->
<g id="node16" class="node"><title>Node16</title>
<polygon fill="white" stroke="#bfbfbf" points="387,-67.5 387,-86.5 464,-86.5 464,-67.5 387,-67.5"/>
<text text-anchor="middle" x="425.5" y="-74.5" font-family="Helvetica,sans-Serif" font-size="10.00">initializer_list</text>
</g>
<!-- Node15&#45;&gt;Node16 -->
<g id="edge24" class="edge"><title>Node15&#45;&gt;Node16</title>
<path fill="none" stroke="midnightblue" d="M543.317,-123.444C520.072,-114.478 483.351,-100.314 457.085,-90.1827"/>
<polygon fill="midnightblue" stroke="midnightblue" points="458.169,-86.8497 447.58,-86.5164 455.65,-93.3807 458.169,-86.8497"/>
</g>
<!-- Node17 -->
<g id="node17" class="node"><title>Node17</title>
<polygon fill="white" stroke="#bfbfbf" points="482,-67.5 482,-86.5 537,-86.5 537,-67.5 482,-67.5"/>
<text text-anchor="middle" x="509.5" y="-74.5" font-family="Helvetica,sans-Serif" font-size="10.00">optional</text>
</g>
<!-- Node15&#45;&gt;Node17 -->
<g id="edge26" class="edge"><title>Node15&#45;&gt;Node17</title>
<path fill="none" stroke="midnightblue" d="M556.503,-123.324C548.306,-115.42 535.994,-103.548 526.028,-93.9377"/>
<polygon fill="midnightblue" stroke="midnightblue" points="528.289,-91.2558 518.661,-86.8339 523.43,-96.2947 528.289,-91.2558"/>
</g>
<!-- Node18 -->
<g id="node18" class="node"><title>Node18</title>
<polygon fill="white" stroke="#bfbfbf" points="691.5,-6 691.5,-25 733.5,-25 733.5,-6 691.5,-6"/>
<text text-anchor="middle" x="712.5" y="-13" font-family="Helvetica,sans-Serif" font-size="10.00">utility</text>
</g>
<!-- Node15&#45;&gt;Node18 -->
<g id="edge28" class="edge"><title>Node15&#45;&gt;Node18</title>
<path fill="none" stroke="midnightblue" d="M576.549,-123.319C601.45,-103.753 662.205,-56.0172 693.371,-31.5295"/>
<polygon fill="midnightblue" stroke="midnightblue" points="695.622,-34.2124 701.323,-25.282 691.297,-28.7081 695.622,-34.2124"/>
</g>
<!-- Node15&#45;&gt;Node19 -->
<g id="edge32" class="edge"><title>Node15&#45;&gt;Node19</title>
<path fill="none" stroke="midnightblue" d="M592.207,-124.032C622.817,-114.9 673.236,-99.8578 708.064,-89.467"/>
<polygon fill="midnightblue" stroke="midnightblue" points="709.307,-92.7489 717.889,-86.536 707.305,-86.041 709.307,-92.7489"/>
</g>
<!-- Node19&#45;&gt;Node4 -->
<g id="edge34" class="edge"><title>Node19&#45;&gt;Node4</title>
<path fill="none" stroke="midnightblue" d="M732.889,-67.4751C717.439,-57.7989 692.01,-41.8721 673.684,-30.3941"/>
<polygon fill="midnightblue" stroke="midnightblue" points="675.419,-27.3509 665.086,-25.0091 671.703,-33.2834 675.419,-27.3509"/>
</g>
<!-- Node19&#45;&gt;Node6 -->
<g id="edge36" class="edge"><title>Node19&#45;&gt;Node6</title>
<path fill="none" stroke="midnightblue" d="M707.742,-74.261C571.556,-68.0417 119.765,-46.4527 56.5,-31 54.1405,-30.4237 51.738,-29.6888 49.3596,-28.8568"/>
<polygon fill="midnightblue" stroke="midnightblue" points="50.4752,-25.533 39.8915,-25.0461 47.8615,-32.0267 50.4752,-25.533"/>
</g>
<!-- Node19&#45;&gt;Node12 -->
<g id="edge38" class="edge"><title>Node19&#45;&gt;Node12</title>
<path fill="none" stroke="midnightblue" d="M756.386,-67.4751C767.146,-58.1966 784.571,-43.1706 797.721,-31.831"/>
<polygon fill="midnightblue" stroke="midnightblue" points="800.345,-34.1902 805.632,-25.0091 795.773,-28.889 800.345,-34.1902"/>
</g>
<!-- Node19&#45;&gt;Node18 -->
<g id="edge35" class="edge"><title>Node19&#45;&gt;Node18</title>
<path fill="none" stroke="midnightblue" d="M741.629,-67.4751C736.63,-58.7268 728.711,-44.8691 722.391,-33.8093"/>
<polygon fill="midnightblue" stroke="midnightblue" points="725.363,-31.955 717.362,-25.0091 719.285,-35.428 725.363,-31.955"/>
</g>
<!-- Node19&#45;&gt;Node20 -->
<g id="edge33" class="edge"><title>Node19&#45;&gt;Node20</title>
<path fill="none" stroke="midnightblue" d="M785.179,-68.2849C787.99,-67.819 790.785,-67.3843 793.5,-67 981.294,-40.4151 1207.43,-24.6584 1299,-18.9502"/>
<polygon fill="midnightblue" stroke="midnightblue" points="1299.47,-22.4281 1309.23,-18.3194 1299.03,-15.4414 1299.47,-22.4281"/>
</g>
<!-- Node21 -->
<g id="node21" class="node"><title>Node21</title>
<polygon fill="white" stroke="#bfbfbf" points="897.5,-0.5 897.5,-30.5 1009.5,-30.5 1009.5,-0.5 897.5,-0.5"/>
<text text-anchor="start" x="905.5" y="-18.5" font-family="Helvetica,sans-Serif" font-size="10.00">boost/icl/continuous</text>
<text text-anchor="middle" x="953.5" y="-7.5" font-family="Helvetica,sans-Serif" font-size="10.00">_interval.hpp</text>
</g>
<!-- Node19&#45;&gt;Node21 -->
<g id="edge37" class="edge"><title>Node19&#45;&gt;Node21</title>
<path fill="none" stroke="midnightblue" d="M776.158,-67.4751C807.075,-58.5882 856.336,-44.4288 895.102,-33.2859"/>
<polygon fill="midnightblue" stroke="midnightblue" points="896.07,-36.6494 904.714,-30.523 894.136,-29.9218 896.07,-36.6494"/>
</g>
<!-- Node22&#45;&gt;Node4 -->
<g id="edge43" class="edge"><title>Node22&#45;&gt;Node4</title>
<path fill="none" stroke="midnightblue" d="M1142.24,-242.975C1084.68,-240.055 942.088,-229.815 907.5,-199 861.824,-158.307 913.784,-108.129 868.5,-67 806.17,-10.3894 762.575,-57.0345 682.5,-31 680.83,-30.4569 679.132,-29.8459 677.435,-29.1899"/>
<polygon fill="midnightblue" stroke="midnightblue" points="678.496,-25.8363 667.926,-25.1002 675.73,-32.2667 678.496,-25.8363"/>
</g>
<!-- Node23 -->
<g id="node23" class="node"><title>Node23</title>
<polygon fill="white" stroke="#bfbfbf" points="1185,-179.5 1185,-198.5 1248,-198.5 1248,-179.5 1185,-179.5"/>
<text text-anchor="middle" x="1216.5" y="-186.5" font-family="Helvetica,sans-Serif" font-size="10.00">exception</text>
</g>
<!-- Node22&#45;&gt;Node23 -->
<g id="edge42" class="edge"><title>Node22&#45;&gt;Node23</title>
<path fill="none" stroke="midnightblue" d="M1174.76,-235.083C1181.96,-227.298 1192.61,-215.801 1201.35,-206.367"/>
<polygon fill="midnightblue" stroke="midnightblue" points="1204.17,-208.467 1208.4,-198.751 1199.03,-203.711 1204.17,-208.467"/>
</g>
<!-- Node24 -->
<g id="node24" class="node"><title>Node24</title>
<polygon fill="white" stroke="#bfbfbf" points="1266.5,-179.5 1266.5,-198.5 1412.5,-198.5 1412.5,-179.5 1266.5,-179.5"/>
<text text-anchor="middle" x="1339.5" y="-186.5" font-family="Helvetica,sans-Serif" font-size="10.00">boost/current_function.hpp</text>
</g>
<!-- Node22&#45;&gt;Node24 -->
<g id="edge44" class="edge"><title>Node22&#45;&gt;Node24</title>
<path fill="none" stroke="midnightblue" d="M1190.55,-236.492C1219.5,-227.457 1268.42,-212.188 1302.25,-201.626"/>
<polygon fill="midnightblue" stroke="midnightblue" points="1303.73,-204.832 1312.23,-198.512 1301.64,-198.15 1303.73,-204.832"/>
</g>
<!-- Node25 -->
<g id="node25" class="node"><title>Node25</title>
<polygon fill="white" stroke="#bfbfbf" points="1430.5,-179.5 1430.5,-198.5 1594.5,-198.5 1594.5,-179.5 1430.5,-179.5"/>
<text text-anchor="middle" x="1512.5" y="-186.5" font-family="Helvetica,sans-Serif" font-size="10.00">boost/exception/exception.hpp</text>
</g>
<!-- Node22&#45;&gt;Node25 -->
<g id="edge45" class="edge"><title>Node22&#45;&gt;Node25</title>
<path fill="none" stroke="midnightblue" d="M1190.56,-240.246C1243.14,-232.04 1369.81,-212.269 1447.67,-200.117"/>
<polygon fill="midnightblue" stroke="midnightblue" points="1448.51,-203.529 1457.85,-198.529 1447.43,-196.613 1448.51,-203.529"/>
</g>
<!-- Node26 -->
<g id="node26" class="node"><title>Node26</title>
<polygon fill="white" stroke="#bfbfbf" points="916.5,-179.5 916.5,-198.5 1050.5,-198.5 1050.5,-179.5 916.5,-179.5"/>
<text text-anchor="middle" x="983.5" y="-186.5" font-family="Helvetica,sans-Serif" font-size="10.00">boost/exception/info.hpp</text>
</g>
<!-- Node22&#45;&gt;Node26 -->
<g id="edge46" class="edge"><title>Node22&#45;&gt;Node26</title>
<path fill="none" stroke="midnightblue" d="M1142.2,-236.829C1111.54,-227.782 1058.44,-212.114 1022.18,-201.414"/>
<polygon fill="midnightblue" stroke="midnightblue" points="1023.01,-198.01 1012.43,-198.537 1021.03,-204.724 1023.01,-198.01"/>
</g>
<!-- Node27 -->
<g id="node27" class="node"><title>Node27</title>
<g id="a_node27"><a xlink:href="source__info_8h.xhtml" target="_top" xlink:title="Helper facilities to get source file information. ">
<polygon fill="white" stroke="black" points="1068.5,-179.5 1068.5,-198.5 1166.5,-198.5 1166.5,-179.5 1068.5,-179.5"/>
<text text-anchor="middle" x="1117.5" y="-186.5" font-family="Helvetica,sans-Serif" font-size="10.00">ext/source_info.h</text>
</a>
</g>
</g>
<!-- Node22&#45;&gt;Node27 -->
<g id="edge47" class="edge"><title>Node22&#45;&gt;Node27</title>
<path fill="none" stroke="midnightblue" d="M1158.41,-235.083C1151.34,-227.298 1140.91,-215.801 1132.35,-206.367"/>
<polygon fill="midnightblue" stroke="midnightblue" points="1134.75,-203.805 1125.44,-198.751 1129.57,-208.509 1134.75,-203.805"/>
</g>
</g>
</svg>
        <g id="navigator" transform="translate(0 0)" fill="#404254">
                <rect fill="#f2f5e9" fill-opacity="0.5" stroke="#606060" stroke-width=".5" x="0" y="0" width="60" height="60"/>
                <use id="zoomplus" xlink:href="#zoomPlus" x="17" y="9" onmousedown="handleZoom(evt,'in')"/>
                <use id="zoomminus" xlink:href="#zoomMin" x="42" y="9" onmousedown="handleZoom(evt,'out')"/>
                <use id="reset" xlink:href="#resetDef" x="30" y="36" onmousedown="handleReset()"/>
                <g id="arrowUp" xlink:href="#dirArrow" transform="translate(30 24)" onmousedown="handlePan(0,-1)">
                  <use xlink:href="#rim" fill="#404040">
                        <set attributeName="fill" to="#808080" begin="arrowUp.mouseover" end="arrowUp.mouseout"/>
                  </use>
                  <path fill="none" stroke="white" stroke-width="1.5" d="M0,-3.0v7 M-2.5,-0.5L0,-3.0L2.5,-0.5"/>
                </g>
                <g id="arrowRight" xlink:href="#dirArrow" transform="rotate(90) translate(36 -43)" onmousedown="handlePan(1,0)">
                  <use xlink:href="#rim" fill="#404040">
                        <set attributeName="fill" to="#808080" begin="arrowRight.mouseover" end="arrowRight.mouseout"/>
                  </use>
                  <path fill="none" stroke="white" stroke-width="1.5" d="M0,-3.0v7 M-2.5,-0.5L0,-3.0L2.5,-0.5"/>
                </g>
                <g id="arrowDown" xlink:href="#dirArrow" transform="rotate(180) translate(-30 -48)" onmousedown="handlePan(0,1)">
                  <use xlink:href="#rim" fill="#404040">
                        <set attributeName="fill" to="#808080" begin="arrowDown.mouseover" end="arrowDown.mouseout"/>
                  </use>
                  <path fill="none" stroke="white" stroke-width="1.5" d="M0,-3.0v7 M-2.5,-0.5L0,-3.0L2.5,-0.5"/>
                </g>
                <g id="arrowLeft" xlink:href="#dirArrow" transform="rotate(270) translate(-36 17)" onmousedown="handlePan(-1,0)">
                  <use xlink:href="#rim" fill="#404040">
                        <set attributeName="fill" to="#808080" begin="arrowLeft.mouseover" end="arrowLeft.mouseout"/>
                  </use>
                  <path fill="none" stroke="white" stroke-width="1.5" d="M0,-3.0v7 M-2.5,-0.5L0,-3.0L2.5,-0.5"/>
                </g>
        </g>
        <svg viewBox="0 0 15 15" width="100%" height="30px" preserveAspectRatio="xMaxYMin meet">
         <g id="arrow_out" transform="scale(0.3 0.3)">
          <a xlink:href="event__tree_8cc__incl_org.svg" target="_base">
           <rect id="button" ry="5" rx="5" y="6" x="6" height="38" width="38"
                fill="#f2f5e9" fill-opacity="0.5" stroke="#606060" stroke-width="1.0"/>
           <path id="arrow"
             d="M 11.500037,31.436501 C 11.940474,20.09759 22.043105,11.32322 32.158766,21.979434 L 37.068811,17.246167 C 37.068811,17.246167 37.088388,32 37.088388,32 L 22.160133,31.978069 C 22.160133,31.978069 26.997745,27.140456 26.997745,27.140456 C 18.528582,18.264221 13.291696,25.230495 11.500037,31.436501 z"
             style="fill:#404040;"/>
          </a>
         </g>
        </svg>
</svg>
