<?xml version="1.0" encoding="UTF-8" standalone="no"?>
<!DOCTYPE svg PUBLIC "-//W3C//DTD SVG 1.1//EN"
 "http://www.w3.org/Graphics/SVG/1.1/DTD/svg11.dtd">
<!-- Generated by graphviz version 2.38.0 (20140413.2041)
 -->
<!-- Title: event_tree_analysis.cc Pages: 1 -->
<svg width="1579pt" height="375pt"
 viewBox="0.00 0.00 1578.50 375.00" xmlns="http://www.w3.org/2000/svg" xmlns:xlink="http://www.w3.org/1999/xlink">
<g id="graph0" class="graph" transform="scale(1 1) rotate(0) translate(4 371)">
<title>event_tree_analysis.cc</title>
<polygon fill="white" stroke="none" points="-4,4 -4,-371 1574.5,-371 1574.5,4 -4,4"/>
<!-- Node1 -->
<g id="node1" class="node"><title>Node1</title>
<polygon fill="#bfbfbf" stroke="black" points="1116,-347.5 1116,-366.5 1241,-366.5 1241,-347.5 1116,-347.5"/>
<text text-anchor="middle" x="1178.5" y="-354.5" font-family="Helvetica,sans-Serif" font-size="10.00">event_tree_analysis.cc</text>
</g>
<!-- Node2 -->
<g id="node2" class="node"><title>Node2</title>
<g id="a_node2"><a xlink:href="event__tree__analysis_8h.xhtml" target="_top" xlink:title="Event tree analysis facilities. ">
<polygon fill="white" stroke="black" points="935,-291.5 935,-310.5 1056,-310.5 1056,-291.5 935,-291.5"/>
<text text-anchor="middle" x="995.5" y="-298.5" font-family="Helvetica,sans-Serif" font-size="10.00">event_tree_analysis.h</text>
</a>
</g>
</g>
<!-- Node1&#45;&gt;Node2 -->
<g id="edge1" class="edge"><title>Node1&#45;&gt;Node2</title>
<path fill="none" stroke="midnightblue" d="M1149.5,-347.444C1118.32,-338.241 1068.57,-323.562 1034.09,-313.388"/>
<polygon fill="midnightblue" stroke="midnightblue" points="1034.94,-309.99 1024.36,-310.516 1032.96,-316.704 1034.94,-309.99"/>
</g>
<!-- Node27 -->
<g id="node27" class="node"><title>Node27</title>
<g id="a_node27"><a xlink:href="instruction_8h.xhtml" target="_top" xlink:title="Model and event tree modifier instructions. ">
<polygon fill="white" stroke="black" points="492.5,-179.5 492.5,-198.5 568.5,-198.5 568.5,-179.5 492.5,-179.5"/>
<text text-anchor="middle" x="530.5" y="-186.5" font-family="Helvetica,sans-Serif" font-size="10.00">instruction.h</text>
</a>
</g>
</g>
<!-- Node1&#45;&gt;Node27 -->
<g id="edge68" class="edge"><title>Node1&#45;&gt;Node27</title>
<path fill="none" stroke="midnightblue" d="M1119.57,-347.483C1068.04,-339.57 991.363,-326.664 925.5,-311 841.097,-290.926 821.461,-280.384 738.5,-255 678.34,-236.593 608.573,-214.673 567.064,-201.571"/>
<polygon fill="midnightblue" stroke="midnightblue" points="567.983,-198.191 557.393,-198.517 565.875,-204.866 567.983,-198.191"/>
</g>
<!-- Node29 -->
<g id="node29" class="node"><title>Node29</title>
<g id="a_node29"><a xlink:href="numerical_8h.xhtml" target="_top" xlink:title="A collection of numerical expressions. ">
<polygon fill="white" stroke="black" points="1325.5,-179.5 1325.5,-198.5 1453.5,-198.5 1453.5,-179.5 1325.5,-179.5"/>
<text text-anchor="middle" x="1389.5" y="-186.5" font-family="Helvetica,sans-Serif" font-size="10.00">expression/numerical.h</text>
</a>
</g>
</g>
<!-- Node1&#45;&gt;Node29 -->
<g id="edge59" class="edge"><title>Node1&#45;&gt;Node29</title>
<path fill="none" stroke="midnightblue" d="M1190.38,-347.26C1213.8,-329.966 1267.49,-290.022 1311.5,-255 1332.45,-238.331 1355.99,-218.563 1371.68,-205.239"/>
<polygon fill="midnightblue" stroke="midnightblue" points="1374.18,-207.71 1379.52,-198.561 1369.64,-202.381 1374.18,-207.71"/>
</g>
<!-- Node33 -->
<g id="node33" class="node"><title>Node33</title>
<g id="a_node33"><a xlink:href="find__iterator_8h.xhtml" target="_top" xlink:title="Convenience iterator adaptor to wrap find calls and results. ">
<polygon fill="white" stroke="black" points="1455,-291.5 1455,-310.5 1556,-310.5 1556,-291.5 1455,-291.5"/>
<text text-anchor="middle" x="1505.5" y="-298.5" font-family="Helvetica,sans-Serif" font-size="10.00">ext/find_iterator.h</text>
</a>
</g>
</g>
<!-- Node1&#45;&gt;Node33 -->
<g id="edge66" class="edge"><title>Node1&#45;&gt;Node33</title>
<path fill="none" stroke="midnightblue" d="M1230.31,-347.444C1288.57,-337.823 1383.07,-322.219 1444.75,-312.032"/>
<polygon fill="midnightblue" stroke="midnightblue" points="1445.44,-315.466 1454.73,-310.383 1444.3,-308.559 1445.44,-315.466"/>
</g>
<!-- Node3 -->
<g id="node3" class="node"><title>Node3</title>
<polygon fill="white" stroke="#bfbfbf" points="910,-67.5 910,-86.5 967,-86.5 967,-67.5 910,-67.5"/>
<text text-anchor="middle" x="938.5" y="-74.5" font-family="Helvetica,sans-Serif" font-size="10.00">memory</text>
</g>
<!-- Node2&#45;&gt;Node3 -->
<g id="edge2" class="edge"><title>Node2&#45;&gt;Node3</title>
<path fill="none" stroke="midnightblue" d="M992.653,-291.421C989.702,-282.402 985.035,-267.775 981.5,-255 965.581,-197.475 949.761,-128.559 942.548,-96.3188"/>
<polygon fill="midnightblue" stroke="midnightblue" points="945.957,-95.5251 940.369,-86.5235 939.124,-97.0449 945.957,-95.5251"/>
</g>
<!-- Node4 -->
<g id="node4" class="node"><title>Node4</title>
<polygon fill="white" stroke="#bfbfbf" points="796.5,-6 796.5,-25 840.5,-25 840.5,-6 796.5,-6"/>
<text text-anchor="middle" x="818.5" y="-13" font-family="Helvetica,sans-Serif" font-size="10.00">string</text>
</g>
<!-- Node2&#45;&gt;Node4 -->
<g id="edge3" class="edge"><title>Node2&#45;&gt;Node4</title>
<path fill="none" stroke="midnightblue" d="M995.5,-291.442C995.5,-272.936 995.5,-227.812 995.5,-190 995.5,-190 995.5,-190 995.5,-132 995.5,-101.775 996.736,-88.508 975.5,-67 942.137,-33.2105 886.111,-22.0067 850.788,-18.3061"/>
<polygon fill="midnightblue" stroke="midnightblue" points="850.812,-14.7941 840.538,-17.3818 850.183,-21.7658 850.812,-14.7941"/>
</g>
<!-- Node5 -->
<g id="node5" class="node"><title>Node5</title>
<polygon fill="white" stroke="#bfbfbf" points="1138,-179.5 1138,-198.5 1231,-198.5 1231,-179.5 1138,-179.5"/>
<text text-anchor="middle" x="1184.5" y="-186.5" font-family="Helvetica,sans-Serif" font-size="10.00">unordered_map</text>
</g>
<!-- Node2&#45;&gt;Node5 -->
<g id="edge4" class="edge"><title>Node2&#45;&gt;Node5</title>
<path fill="none" stroke="midnightblue" d="M1056.12,-298.068C1091.93,-293.804 1135.73,-282.687 1164.5,-255 1176.99,-242.984 1181.73,-223.381 1183.5,-208.841"/>
<polygon fill="midnightblue" stroke="midnightblue" points="1187.02,-208.767 1184.38,-198.506 1180.05,-208.174 1187.02,-208.767"/>
</g>
<!-- Node6 -->
<g id="node6" class="node"><title>Node6</title>
<polygon fill="white" stroke="#bfbfbf" points="1010,-6 1010,-25 1057,-25 1057,-6 1010,-6"/>
<text text-anchor="middle" x="1033.5" y="-13" font-family="Helvetica,sans-Serif" font-size="10.00">vector</text>
</g>
<!-- Node2&#45;&gt;Node6 -->
<g id="edge5" class="edge"><title>Node2&#45;&gt;Node6</title>
<path fill="none" stroke="midnightblue" d="M1056.2,-297.288C1118.85,-290.631 1211.32,-268.83 1239.5,-199 1242.83,-190.757 1243.38,-186.998 1239.5,-179 1219.62,-137.991 1104.95,-61.8067 1055.83,-30.493"/>
<polygon fill="midnightblue" stroke="midnightblue" points="1057.51,-27.4153 1047.19,-25.0192 1053.77,-33.3281 1057.51,-27.4153"/>
</g>
<!-- Node7 -->
<g id="node7" class="node"><title>Node7</title>
<g id="a_node7"><a xlink:href="analysis_8h.xhtml" target="_top" xlink:title="Common facilities for all analysis classes. ">
<polygon fill="white" stroke="black" points="175.5,-123.5 175.5,-142.5 239.5,-142.5 239.5,-123.5 175.5,-123.5"/>
<text text-anchor="middle" x="207.5" y="-130.5" font-family="Helvetica,sans-Serif" font-size="10.00">analysis.h</text>
</a>
</g>
</g>
<!-- Node2&#45;&gt;Node7 -->
<g id="edge6" class="edge"><title>Node2&#45;&gt;Node7</title>
<path fill="none" stroke="midnightblue" d="M934.938,-292.266C828.395,-278.05 600.865,-244.955 412.5,-199 350.805,-183.949 280.598,-160.205 240.424,-145.963"/>
<polygon fill="midnightblue" stroke="midnightblue" points="241.475,-142.622 230.88,-142.558 239.122,-149.215 241.475,-142.622"/>
</g>
<!-- Node10 -->
<g id="node10" class="node"><title>Node10</title>
<g id="a_node10"><a xlink:href="settings_8h.xhtml" target="_top" xlink:title="Builder for settings. ">
<polygon fill="white" stroke="black" points="56.5,-67.5 56.5,-86.5 120.5,-86.5 120.5,-67.5 56.5,-67.5"/>
<text text-anchor="middle" x="88.5" y="-74.5" font-family="Helvetica,sans-Serif" font-size="10.00">settings.h</text>
</a>
</g>
</g>
<!-- Node2&#45;&gt;Node10 -->
<g id="edge58" class="edge"><title>Node2&#45;&gt;Node10</title>
<path fill="none" stroke="midnightblue" d="M934.754,-299.474C792.75,-295.98 431.074,-273.847 166.5,-143 141.703,-130.736 117.995,-109.081 103.361,-94.1576"/>
<polygon fill="midnightblue" stroke="midnightblue" points="105.648,-91.4845 96.2143,-86.6618 100.581,-96.3148 105.648,-91.4845"/>
</g>
<!-- Node13 -->
<g id="node13" class="node"><title>Node13</title>
<g id="a_node13"><a xlink:href="event_8h.xhtml" target="_top" xlink:title="Contains event classes for fault trees. ">
<polygon fill="white" stroke="black" points="666,-123.5 666,-142.5 719,-142.5 719,-123.5 666,-123.5"/>
<text text-anchor="middle" x="692.5" y="-130.5" font-family="Helvetica,sans-Serif" font-size="10.00">event.h</text>
</a>
</g>
</g>
<!-- Node2&#45;&gt;Node13 -->
<g id="edge13" class="edge"><title>Node2&#45;&gt;Node13</title>
<path fill="none" stroke="midnightblue" d="M934.765,-294.112C874.949,-287.304 788.706,-274.474 761.5,-255 725.898,-229.515 706.141,-179.555 697.625,-152.487"/>
<polygon fill="midnightblue" stroke="midnightblue" points="700.929,-151.32 694.733,-142.726 694.218,-153.308 700.929,-151.32"/>
</g>
<!-- Node22 -->
<g id="node22" class="node"><title>Node22</title>
<g id="a_node22"><a xlink:href="expression_8h.xhtml" target="_top" xlink:title="Provides the base class for all expressions and units for expression values. ">
<polygon fill="white" stroke="black" points="1162,-67.5 1162,-86.5 1239,-86.5 1239,-67.5 1162,-67.5"/>
<text text-anchor="middle" x="1200.5" y="-74.5" font-family="Helvetica,sans-Serif" font-size="10.00">expression.h</text>
</a>
</g>
</g>
<!-- Node2&#45;&gt;Node22 -->
<g id="edge53" class="edge"><title>Node2&#45;&gt;Node22</title>
<path fill="none" stroke="midnightblue" d="M1056.21,-299.01C1129.45,-296.38 1246.17,-287.112 1273.5,-255 1295.39,-229.278 1283.9,-211.137 1273.5,-179 1271.94,-174.192 1233.76,-122.583 1213.25,-95.0633"/>
<polygon fill="midnightblue" stroke="midnightblue" points="1215.84,-92.6778 1207.05,-86.7563 1210.23,-96.8641 1215.84,-92.6778"/>
</g>
<!-- Node25 -->
<g id="node25" class="node"><title>Node25</title>
<g id="a_node25"><a xlink:href="event__tree_8h.xhtml" target="_top" xlink:title="Event Tree facilities. ">
<polygon fill="white" stroke="black" points="771,-235.5 771,-254.5 848,-254.5 848,-235.5 771,-235.5"/>
<text text-anchor="middle" x="809.5" y="-242.5" font-family="Helvetica,sans-Serif" font-size="10.00">event_tree.h</text>
</a>
</g>
</g>
<!-- Node2&#45;&gt;Node25 -->
<g id="edge37" class="edge"><title>Node2&#45;&gt;Node25</title>
<path fill="none" stroke="midnightblue" d="M966.028,-291.444C934.329,-282.241 883.768,-267.562 848.725,-257.388"/>
<polygon fill="midnightblue" stroke="midnightblue" points="849.414,-253.943 838.834,-254.516 847.462,-260.666 849.414,-253.943"/>
</g>
<!-- Node28 -->
<g id="node28" class="node"><title>Node28</title>
<g id="a_node28"><a xlink:href="test__event_8h.xhtml" target="_top" xlink:title="Event tree analysis expressions to test functional and initiating events. ">
<polygon fill="white" stroke="black" points="1025,-235.5 1025,-254.5 1156,-254.5 1156,-235.5 1025,-235.5"/>
<text text-anchor="middle" x="1090.5" y="-242.5" font-family="Helvetica,sans-Serif" font-size="10.00">expression/test_event.h</text>
</a>
</g>
</g>
<!-- Node2&#45;&gt;Node28 -->
<g id="edge54" class="edge"><title>Node2&#45;&gt;Node28</title>
<path fill="none" stroke="midnightblue" d="M1010.76,-291.324C1025.72,-282.822 1048.75,-269.729 1066.23,-259.797"/>
<polygon fill="midnightblue" stroke="midnightblue" points="1068.31,-262.639 1075.27,-254.655 1064.85,-256.553 1068.31,-262.639"/>
</g>
<!-- Node7&#45;&gt;Node4 -->
<g id="edge8" class="edge"><title>Node7&#45;&gt;Node4</title>
<path fill="none" stroke="midnightblue" d="M239.803,-126.28C277.866,-119.092 342.735,-105.427 396.5,-87 416.821,-80.0355 419.769,-72.6261 440.5,-67 590.137,-26.3907 638.086,-72.4229 787.5,-31 789.432,-30.4643 791.394,-29.8178 793.344,-29.099"/>
<polygon fill="midnightblue" stroke="midnightblue" points="794.965,-32.213 802.801,-25.0816 792.228,-25.7703 794.965,-32.213"/>
</g>
<!-- Node8 -->
<g id="node8" class="node"><title>Node8</title>
<polygon fill="white" stroke="#bfbfbf" points="138.5,-67.5 138.5,-86.5 190.5,-86.5 190.5,-67.5 138.5,-67.5"/>
<text text-anchor="middle" x="164.5" y="-74.5" font-family="Helvetica,sans-Serif" font-size="10.00">cassert</text>
</g>
<!-- Node7&#45;&gt;Node8 -->
<g id="edge7" class="edge"><title>Node7&#45;&gt;Node8</title>
<path fill="none" stroke="midnightblue" d="M200.399,-123.083C194.263,-115.377 185.23,-104.033 177.761,-94.6531"/>
<polygon fill="midnightblue" stroke="midnightblue" points="180.436,-92.3936 171.468,-86.7511 174.96,-96.7542 180.436,-92.3936"/>
</g>
<!-- Node9 -->
<g id="node9" class="node"><title>Node9</title>
<polygon fill="white" stroke="#bfbfbf" points="154.5,-6 154.5,-25 282.5,-25 282.5,-6 154.5,-6"/>
<text text-anchor="middle" x="218.5" y="-13" font-family="Helvetica,sans-Serif" font-size="10.00">boost/noncopyable.hpp</text>
</g>
<!-- Node7&#45;&gt;Node9 -->
<g id="edge9" class="edge"><title>Node7&#45;&gt;Node9</title>
<path fill="none" stroke="midnightblue" d="M208.327,-123.319C210.095,-104.757 214.277,-60.8391 216.693,-35.4734"/>
<polygon fill="midnightblue" stroke="midnightblue" points="220.2,-35.5688 217.664,-25.282 213.231,-34.9051 220.2,-35.5688"/>
</g>
<!-- Node7&#45;&gt;Node10 -->
<g id="edge10" class="edge"><title>Node7&#45;&gt;Node10</title>
<path fill="none" stroke="midnightblue" d="M188.644,-123.444C169.234,-114.636 138.77,-100.812 116.535,-90.722"/>
<polygon fill="midnightblue" stroke="midnightblue" points="117.82,-87.4615 107.268,-86.5164 114.928,-93.836 117.82,-87.4615"/>
</g>
<!-- Node11 -->
<g id="node11" class="node"><title>Node11</title>
<polygon fill="white" stroke="#bfbfbf" points="87,-6 87,-25 136,-25 136,-6 87,-6"/>
<text text-anchor="middle" x="111.5" y="-13" font-family="Helvetica,sans-Serif" font-size="10.00">cstdint</text>
</g>
<!-- Node10&#45;&gt;Node11 -->
<g id="edge11" class="edge"><title>Node10&#45;&gt;Node11</title>
<path fill="none" stroke="midnightblue" d="M91.7953,-67.4751C95.1087,-58.9035 100.318,-45.4269 104.549,-34.483"/>
<polygon fill="midnightblue" stroke="midnightblue" points="107.87,-35.5984 108.211,-25.0091 101.341,-33.0745 107.87,-35.5984"/>
</g>
<!-- Node12 -->
<g id="node12" class="node"><title>Node12</title>
<polygon fill="white" stroke="#bfbfbf" points="0,-6 0,-25 69,-25 69,-6 0,-6"/>
<text text-anchor="middle" x="34.5" y="-13" font-family="Helvetica,sans-Serif" font-size="10.00">string_view</text>
</g>
<!-- Node10&#45;&gt;Node12 -->
<g id="edge12" class="edge"><title>Node10&#45;&gt;Node12</title>
<path fill="none" stroke="midnightblue" d="M80.7631,-67.4751C72.5027,-58.3733 59.2229,-43.741 49.0055,-32.483"/>
<polygon fill="midnightblue" stroke="midnightblue" points="51.5349,-30.0619 42.2225,-25.0091 46.3513,-34.7663 51.5349,-30.0619"/>
</g>
<!-- Node13&#45;&gt;Node3 -->
<g id="edge16" class="edge"><title>Node13&#45;&gt;Node3</title>
<path fill="none" stroke="midnightblue" d="M719.403,-126.079C724.101,-125.05 728.943,-123.991 733.5,-123 804.649,-107.522 824.812,-104.027 899.932,-87.0924"/>
<polygon fill="midnightblue" stroke="midnightblue" points="900.898,-90.4624 909.881,-84.8438 899.355,-83.6346 900.898,-90.4624"/>
</g>
<!-- Node13&#45;&gt;Node4 -->
<g id="edge18" class="edge"><title>Node13&#45;&gt;Node4</title>
<path fill="none" stroke="midnightblue" d="M701.351,-123.498C714.402,-110.999 739.63,-86.9808 761.5,-67 774.412,-55.2038 789.199,-42.1147 800.476,-32.2185"/>
<polygon fill="midnightblue" stroke="midnightblue" points="803.107,-34.5673 808.326,-25.3474 798.496,-29.2999 803.107,-34.5673"/>
</g>
<!-- Node13&#45;&gt;Node6 -->
<g id="edge21" class="edge"><title>Node13&#45;&gt;Node6</title>
<path fill="none" stroke="midnightblue" d="M705.584,-123.292C729.621,-107.425 780.117,-74.7246 799.5,-67 867.732,-39.8084 953.28,-26.0926 999.715,-20.2057"/>
<polygon fill="midnightblue" stroke="midnightblue" points="1000.33,-23.6572 1009.83,-18.9699 999.476,-16.7089 1000.33,-23.6572"/>
</g>
<!-- Node13&#45;&gt;Node11 -->
<g id="edge14" class="edge"><title>Node13&#45;&gt;Node11</title>
<path fill="none" stroke="midnightblue" d="M665.998,-130.711C603.785,-127.283 443.798,-116.133 313.5,-87 250.277,-72.8643 179.438,-45.2656 140.708,-29.1102"/>
<polygon fill="midnightblue" stroke="midnightblue" points="141.697,-25.7289 131.123,-25.0711 138.979,-32.1796 141.697,-25.7289"/>
</g>
<!-- Node14 -->
<g id="node14" class="node"><title>Node14</title>
<polygon fill="white" stroke="#bfbfbf" points="559,-67.5 559,-86.5 636,-86.5 636,-67.5 559,-67.5"/>
<text text-anchor="middle" x="597.5" y="-74.5" font-family="Helvetica,sans-Serif" font-size="10.00">initializer_list</text>
</g>
<!-- Node13&#45;&gt;Node14 -->
<g id="edge15" class="edge"><title>Node13&#45;&gt;Node14</title>
<path fill="none" stroke="midnightblue" d="M677.237,-123.324C662.279,-114.822 639.245,-101.729 621.773,-91.7975"/>
<polygon fill="midnightblue" stroke="midnightblue" points="623.149,-88.5534 612.726,-86.6545 619.69,-94.639 623.149,-88.5534"/>
</g>
<!-- Node15 -->
<g id="node15" class="node"><title>Node15</title>
<polygon fill="white" stroke="#bfbfbf" points="654,-67.5 654,-86.5 709,-86.5 709,-67.5 654,-67.5"/>
<text text-anchor="middle" x="681.5" y="-74.5" font-family="Helvetica,sans-Serif" font-size="10.00">optional</text>
</g>
<!-- Node13&#45;&gt;Node15 -->
<g id="edge17" class="edge"><title>Node13&#45;&gt;Node15</title>
<path fill="none" stroke="midnightblue" d="M690.684,-123.083C689.226,-115.927 687.129,-105.635 685.307,-96.6911"/>
<polygon fill="midnightblue" stroke="midnightblue" points="688.708,-95.8512 683.283,-86.7511 681.849,-97.2485 688.708,-95.8512"/>
</g>
<!-- Node16 -->
<g id="node16" class="node"><title>Node16</title>
<polygon fill="white" stroke="#bfbfbf" points="1109.5,-6 1109.5,-25 1151.5,-25 1151.5,-6 1109.5,-6"/>
<text text-anchor="middle" x="1130.5" y="-13" font-family="Helvetica,sans-Serif" font-size="10.00">utility</text>
</g>
<!-- Node13&#45;&gt;Node16 -->
<g id="edge19" class="edge"><title>Node13&#45;&gt;Node16</title>
<path fill="none" stroke="midnightblue" d="M713.893,-123.468C735.117,-114.835 768.44,-100.823 796.5,-87 812.919,-78.9115 815.185,-72.9345 832.5,-67 931.624,-33.0259 962.531,-50.4177 1065.5,-31 1076.69,-28.8892 1088.9,-26.2557 1099.68,-23.8143"/>
<polygon fill="midnightblue" stroke="midnightblue" points="1100.54,-27.2084 1109.5,-21.5558 1098.97,-20.3866 1100.54,-27.2084"/>
</g>
<!-- Node17 -->
<g id="node17" class="node"><title>Node17</title>
<polygon fill="white" stroke="#bfbfbf" points="841.5,-67.5 841.5,-86.5 891.5,-86.5 891.5,-67.5 841.5,-67.5"/>
<text text-anchor="middle" x="866.5" y="-74.5" font-family="Helvetica,sans-Serif" font-size="10.00">variant</text>
</g>
<!-- Node13&#45;&gt;Node17 -->
<g id="edge20" class="edge"><title>Node13&#45;&gt;Node17</title>
<path fill="none" stroke="midnightblue" d="M719.306,-123.681C749.457,-114.324 798.526,-99.0953 831.635,-88.8201"/>
<polygon fill="midnightblue" stroke="midnightblue" points="832.846,-92.1091 841.359,-85.8023 830.771,-85.4236 832.846,-92.1091"/>
</g>
<!-- Node18 -->
<g id="node18" class="node"><title>Node18</title>
<g id="a_node18"><a xlink:href="element_8h.xhtml" target="_top" xlink:title="Helper classes, structs, and properties common to all other classes. ">
<polygon fill="white" stroke="black" points="323,-67.5 323,-86.5 388,-86.5 388,-67.5 323,-67.5"/>
<text text-anchor="middle" x="355.5" y="-74.5" font-family="Helvetica,sans-Serif" font-size="10.00">element.h</text>
</a>
</g>
</g>
<!-- Node13&#45;&gt;Node18 -->
<g id="edge22" class="edge"><title>Node13&#45;&gt;Node18</title>
<path fill="none" stroke="midnightblue" d="M665.774,-127.718C607.461,-118.373 468.401,-96.091 397.955,-84.8028"/>
<polygon fill="midnightblue" stroke="midnightblue" points="398.504,-81.3464 388.077,-83.22 397.397,-88.2582 398.504,-81.3464"/>
</g>
<!-- Node13&#45;&gt;Node22 -->
<g id="edge30" class="edge"><title>Node13&#45;&gt;Node22</title>
<path fill="none" stroke="midnightblue" d="M719.097,-129.173C800.397,-120.531 1046.47,-94.3734 1151.8,-83.1764"/>
<polygon fill="midnightblue" stroke="midnightblue" points="1152.27,-86.6463 1161.85,-82.1087 1151.53,-79.6855 1152.27,-86.6463"/>
</g>
<!-- Node18&#45;&gt;Node4 -->
<g id="edge24" class="edge"><title>Node18&#45;&gt;Node4</title>
<path fill="none" stroke="midnightblue" d="M388.048,-69.3481C392.881,-68.4824 397.812,-67.6665 402.5,-67 572.647,-42.8113 621.658,-76.0729 787.5,-31 789.435,-30.4741 791.399,-29.8348 793.35,-29.1212"/>
<polygon fill="midnightblue" stroke="midnightblue" points="794.967,-32.2375 802.81,-25.1146 792.236,-25.7918 794.967,-32.2375"/>
</g>
<!-- Node18&#45;&gt;Node6 -->
<g id="edge25" class="edge"><title>Node18&#45;&gt;Node6</title>
<path fill="none" stroke="midnightblue" d="M388.201,-73.1302C502.605,-63.0904 884.187,-29.6034 999.931,-19.446"/>
<polygon fill="midnightblue" stroke="midnightblue" points="1000.32,-22.9252 1009.98,-18.5643 999.709,-15.952 1000.32,-22.9252"/>
</g>
<!-- Node18&#45;&gt;Node9 -->
<g id="edge29" class="edge"><title>Node18&#45;&gt;Node9</title>
<path fill="none" stroke="midnightblue" d="M335.871,-67.4751C312.676,-57.4013 273.881,-40.5525 247.287,-29.0023"/>
<polygon fill="midnightblue" stroke="midnightblue" points="248.659,-25.7824 238.092,-25.0091 245.87,-32.203 248.659,-25.7824"/>
</g>
<!-- Node18&#45;&gt;Node11 -->
<g id="edge23" class="edge"><title>Node18&#45;&gt;Node11</title>
<path fill="none" stroke="midnightblue" d="M322.893,-69.3721C268.19,-58.1992 162.249,-36.3117 145.5,-31 143.573,-30.3889 141.606,-29.7087 139.637,-28.9856"/>
<polygon fill="midnightblue" stroke="midnightblue" points="140.547,-25.581 129.962,-25.1343 137.958,-32.0846 140.547,-25.581"/>
</g>
<!-- Node19 -->
<g id="node19" class="node"><title>Node19</title>
<polygon fill="white" stroke="#bfbfbf" points="638.5,-0.5 638.5,-30.5 778.5,-30.5 778.5,-0.5 638.5,-0.5"/>
<text text-anchor="start" x="646.5" y="-18.5" font-family="Helvetica,sans-Serif" font-size="10.00">boost/multi_index/hashed</text>
<text text-anchor="middle" x="708.5" y="-7.5" font-family="Helvetica,sans-Serif" font-size="10.00">_index.hpp</text>
</g>
<!-- Node18&#45;&gt;Node19 -->
<g id="edge26" class="edge"><title>Node18&#45;&gt;Node19</title>
<path fill="none" stroke="midnightblue" d="M388.091,-69.6196C392.918,-68.7153 397.835,-67.8163 402.5,-67 499.976,-49.9422 527.134,-48.3109 628.28,-31.1823"/>
<polygon fill="midnightblue" stroke="midnightblue" points="629.034,-34.6044 638.304,-29.4752 627.859,-27.7037 629.034,-34.6044"/>
</g>
<!-- Node20 -->
<g id="node20" class="node"><title>Node20</title>
<polygon fill="white" stroke="#bfbfbf" points="300.5,-0.5 300.5,-30.5 430.5,-30.5 430.5,-0.5 300.5,-0.5"/>
<text text-anchor="start" x="308.5" y="-18.5" font-family="Helvetica,sans-Serif" font-size="10.00">boost/multi_index/mem</text>
<text text-anchor="middle" x="365.5" y="-7.5" font-family="Helvetica,sans-Serif" font-size="10.00">_fun.hpp</text>
</g>
<!-- Node18&#45;&gt;Node20 -->
<g id="edge27" class="edge"><title>Node18&#45;&gt;Node20</title>
<path fill="none" stroke="midnightblue" d="M356.933,-67.4751C358.123,-60.3957 359.875,-49.9705 361.485,-40.3896"/>
<polygon fill="midnightblue" stroke="midnightblue" points="364.937,-40.9648 363.143,-30.523 358.034,-39.8045 364.937,-40.9648"/>
</g>
<!-- Node21 -->
<g id="node21" class="node"><title>Node21</title>
<polygon fill="white" stroke="#bfbfbf" points="448.5,-6 448.5,-25 620.5,-25 620.5,-6 448.5,-6"/>
<text text-anchor="middle" x="534.5" y="-13" font-family="Helvetica,sans-Serif" font-size="10.00">boost/multi_index_container.hpp</text>
</g>
<!-- Node18&#45;&gt;Node21 -->
<g id="edge28" class="edge"><title>Node18&#45;&gt;Node21</title>
<path fill="none" stroke="midnightblue" d="M381.146,-67.4751C412.117,-57.1804 464.373,-39.8103 499.151,-28.2502"/>
<polygon fill="midnightblue" stroke="midnightblue" points="500.516,-31.4848 508.901,-25.0091 498.308,-24.8422 500.516,-31.4848"/>
</g>
<!-- Node22&#45;&gt;Node4 -->
<g id="edge32" class="edge"><title>Node22&#45;&gt;Node4</title>
<path fill="none" stroke="midnightblue" d="M1161.77,-69.9674C1086.36,-58.2209 921.068,-32.4759 850.964,-21.5566"/>
<polygon fill="midnightblue" stroke="midnightblue" points="851.365,-18.0769 840.946,-19.9961 850.288,-24.9935 851.365,-18.0769"/>
</g>
<!-- Node22&#45;&gt;Node6 -->
<g id="edge34" class="edge"><title>Node22&#45;&gt;Node6</title>
<path fill="none" stroke="midnightblue" d="M1176.57,-67.4751C1147.72,-57.1954 1099.07,-39.8611 1066.62,-28.301"/>
<polygon fill="midnightblue" stroke="midnightblue" points="1067.71,-24.9723 1057.11,-24.913 1065.36,-31.5662 1067.71,-24.9723"/>
</g>
<!-- Node22&#45;&gt;Node9 -->
<g id="edge36" class="edge"><title>Node22&#45;&gt;Node9</title>
<path fill="none" stroke="midnightblue" d="M1161.81,-74.4204C999.595,-67.7517 378.631,-41.7513 291.5,-31 283.112,-29.965 274.245,-28.5124 265.692,-26.9231"/>
<polygon fill="midnightblue" stroke="midnightblue" points="266.325,-23.4809 255.842,-25.0114 264.992,-30.3526 266.325,-23.4809"/>
</g>
<!-- Node22&#45;&gt;Node16 -->
<g id="edge33" class="edge"><title>Node22&#45;&gt;Node16</title>
<path fill="none" stroke="midnightblue" d="M1190.47,-67.4751C1179.45,-58.1082 1161.54,-42.8839 1148.16,-31.5081"/>
<polygon fill="midnightblue" stroke="midnightblue" points="1150.4,-28.8188 1140.51,-25.0091 1145.86,-34.1524 1150.4,-28.8188"/>
</g>
<!-- Node23 -->
<g id="node23" class="node"><title>Node23</title>
<polygon fill="white" stroke="#bfbfbf" points="1169.5,-6 1169.5,-25 1231.5,-25 1231.5,-6 1169.5,-6"/>
<text text-anchor="middle" x="1200.5" y="-13" font-family="Helvetica,sans-Serif" font-size="10.00">algorithm</text>
</g>
<!-- Node22&#45;&gt;Node23 -->
<g id="edge31" class="edge"><title>Node22&#45;&gt;Node23</title>
<path fill="none" stroke="midnightblue" d="M1200.5,-67.4751C1200.5,-59.0803 1200.5,-45.9806 1200.5,-35.1631"/>
<polygon fill="midnightblue" stroke="midnightblue" points="1204,-35.0091 1200.5,-25.0091 1197,-35.0091 1204,-35.0091"/>
</g>
<!-- Node24 -->
<g id="node24" class="node"><title>Node24</title>
<polygon fill="white" stroke="#bfbfbf" points="1249.5,-0.5 1249.5,-30.5 1361.5,-30.5 1361.5,-0.5 1249.5,-0.5"/>
<text text-anchor="start" x="1257.5" y="-18.5" font-family="Helvetica,sans-Serif" font-size="10.00">boost/icl/continuous</text>
<text text-anchor="middle" x="1305.5" y="-7.5" font-family="Helvetica,sans-Serif" font-size="10.00">_interval.hpp</text>
</g>
<!-- Node22&#45;&gt;Node24 -->
<g id="edge35" class="edge"><title>Node22&#45;&gt;Node24</title>
<path fill="none" stroke="midnightblue" d="M1215.54,-67.4751C1230.16,-59.1907 1252.87,-46.3245 1271.81,-35.5913"/>
<polygon fill="midnightblue" stroke="midnightblue" points="1273.78,-38.4982 1280.75,-30.523 1270.33,-32.4081 1273.78,-38.4982"/>
</g>
<!-- Node25&#45;&gt;Node3 -->
<g id="edge38" class="edge"><title>Node25&#45;&gt;Node3</title>
<path fill="none" stroke="midnightblue" d="M840.085,-235.489C859.59,-228.599 884.023,-217.025 899.5,-199 925.05,-169.243 933.921,-122.494 936.957,-96.6817"/>
<polygon fill="midnightblue" stroke="midnightblue" points="940.441,-97.0203 937.957,-86.7207 933.476,-96.3212 940.441,-97.0203"/>
</g>
<!-- Node25&#45;&gt;Node4 -->
<g id="edge39" class="edge"><title>Node25&#45;&gt;Node4</title>
<path fill="none" stroke="midnightblue" d="M770.831,-244.696C692.715,-245.185 520.379,-241.32 483.5,-199 457.931,-169.66 384.09,-180.494 502.5,-67 548.586,-22.8276 726.177,-48.7385 787.5,-31 789.426,-30.4428 791.384,-29.7805 793.33,-29.0505"/>
<polygon fill="midnightblue" stroke="midnightblue" points="794.962,-32.1593 802.78,-25.0093 792.209,-25.7231 794.962,-32.1593"/>
</g>
<!-- Node25&#45;&gt;Node6 -->
<g id="edge41" class="edge"><title>Node25&#45;&gt;Node6</title>
<path fill="none" stroke="midnightblue" d="M842.859,-235.396C866.177,-228.261 897.189,-216.438 920.5,-199 971.412,-160.916 979.029,-142.803 1009.5,-87 1018.59,-70.3612 1025.14,-49.6549 1029.08,-34.9989"/>
<polygon fill="midnightblue" stroke="midnightblue" points="1032.51,-35.6919 1031.58,-25.1382 1025.73,-33.9701 1032.51,-35.6919"/>
</g>
<!-- Node25&#45;&gt;Node17 -->
<g id="edge40" class="edge"><title>Node25&#45;&gt;Node17</title>
<path fill="none" stroke="midnightblue" d="M806.975,-235.399C803.684,-222.776 798.963,-198.605 804.5,-179 813.77,-146.181 837.027,-113.52 852.272,-94.5708"/>
<polygon fill="midnightblue" stroke="midnightblue" points="855.146,-96.5884 858.826,-86.6531 849.753,-92.125 855.146,-96.5884"/>
</g>
<!-- Node25&#45;&gt;Node18 -->
<g id="edge42" class="edge"><title>Node25&#45;&gt;Node18</title>
<path fill="none" stroke="midnightblue" d="M770.958,-243.21C688.002,-240.891 495.581,-232.008 440.5,-199 400.259,-174.885 374.156,-123.541 362.512,-96.1305"/>
<polygon fill="midnightblue" stroke="midnightblue" points="365.647,-94.547 358.64,-86.5997 359.161,-97.1817 365.647,-94.547"/>
</g>
<!-- Node26 -->
<g id="node26" class="node"><title>Node26</title>
<g id="a_node26"><a xlink:href="variant_8h.xhtml" target="_top" xlink:title="Extra helper functions for std::variant. ">
<polygon fill="white" stroke="black" points="814,-179.5 814,-198.5 891,-198.5 891,-179.5 814,-179.5"/>
<text text-anchor="middle" x="852.5" y="-186.5" font-family="Helvetica,sans-Serif" font-size="10.00">ext/variant.h</text>
</a>
</g>
</g>
<!-- Node25&#45;&gt;Node26 -->
<g id="edge43" class="edge"><title>Node25&#45;&gt;Node26</title>
<path fill="none" stroke="midnightblue" d="M816.601,-235.083C822.737,-227.377 831.77,-216.033 839.239,-206.653"/>
<polygon fill="midnightblue" stroke="midnightblue" points="842.04,-208.754 845.532,-198.751 836.564,-204.394 842.04,-208.754"/>
</g>
<!-- Node25&#45;&gt;Node27 -->
<g id="edge45" class="edge"><title>Node25&#45;&gt;Node27</title>
<path fill="none" stroke="midnightblue" d="M770.999,-236.548C720.864,-226.845 633.215,-209.88 578.712,-199.331"/>
<polygon fill="midnightblue" stroke="midnightblue" points="579.089,-195.839 568.606,-197.375 577.758,-202.712 579.089,-195.839"/>
</g>
<!-- Node26&#45;&gt;Node17 -->
<g id="edge44" class="edge"><title>Node26&#45;&gt;Node17</title>
<path fill="none" stroke="midnightblue" d="M853.599,-179.368C855.858,-161.617 861.07,-120.666 864.133,-96.5974"/>
<polygon fill="midnightblue" stroke="midnightblue" points="867.616,-96.9533 865.407,-86.5914 860.672,-96.0695 867.616,-96.9533"/>
</g>
<!-- Node27&#45;&gt;Node3 -->
<g id="edge46" class="edge"><title>Node27&#45;&gt;Node3</title>
<path fill="none" stroke="midnightblue" d="M568.841,-180.124C608.692,-171.732 672.771,-157.659 727.5,-143 789.925,-126.28 861.644,-103.39 903.339,-89.7093"/>
<polygon fill="midnightblue" stroke="midnightblue" points="904.615,-92.9742 913.018,-86.5218 902.425,-86.3254 904.615,-92.9742"/>
</g>
<!-- Node27&#45;&gt;Node4 -->
<g id="edge47" class="edge"><title>Node27&#45;&gt;Node4</title>
<path fill="none" stroke="midnightblue" d="M525.653,-179.389C514.096,-157.584 487.935,-99.6101 516.5,-67 556.529,-21.3014 729.196,-48.0684 787.5,-31 789.382,-30.4491 791.293,-29.7993 793.196,-29.0853"/>
<polygon fill="midnightblue" stroke="midnightblue" points="794.627,-32.2802 802.454,-25.1399 791.882,-25.8406 794.627,-32.2802"/>
</g>
<!-- Node27&#45;&gt;Node6 -->
<g id="edge48" class="edge"><title>Node27&#45;&gt;Node6</title>
<path fill="none" stroke="midnightblue" d="M528.756,-179.407C524.788,-157.132 517.734,-97.1621 549.5,-67 557.708,-59.2063 891.53,-29.0563 999.904,-19.4548"/>
<polygon fill="midnightblue" stroke="midnightblue" points="1000.31,-22.9328 1009.96,-18.5655 999.691,-15.9601 1000.31,-22.9328"/>
</g>
<!-- Node27&#45;&gt;Node9 -->
<g id="edge49" class="edge"><title>Node27&#45;&gt;Node9</title>
<path fill="none" stroke="midnightblue" d="M507.73,-179.49C467.182,-163.889 380.44,-128.472 313.5,-87 285.616,-69.725 255.55,-46.5659 236.876,-31.5877"/>
<polygon fill="midnightblue" stroke="midnightblue" points="238.89,-28.7148 228.915,-25.1428 234.485,-34.1554 238.89,-28.7148"/>
</g>
<!-- Node27&#45;&gt;Node13 -->
<g id="edge51" class="edge"><title>Node27&#45;&gt;Node13</title>
<path fill="none" stroke="midnightblue" d="M556.169,-179.444C583.423,-170.359 626.684,-155.939 657.151,-145.783"/>
<polygon fill="midnightblue" stroke="midnightblue" points="658.571,-148.999 666.951,-142.516 656.357,-142.358 658.571,-148.999"/>
</g>
<!-- Node27&#45;&gt;Node18 -->
<g id="edge50" class="edge"><title>Node27&#45;&gt;Node18</title>
<path fill="none" stroke="midnightblue" d="M516.768,-179.368C486.61,-160.412 414.365,-115.001 377.681,-91.9424"/>
<polygon fill="midnightblue" stroke="midnightblue" points="379.497,-88.9499 369.168,-86.5914 375.772,-94.8764 379.497,-88.9499"/>
</g>
<!-- Node27&#45;&gt;Node22 -->
<g id="edge52" class="edge"><title>Node27&#45;&gt;Node22</title>
<path fill="none" stroke="midnightblue" d="M568.929,-181.691C683.737,-162.842 1024.11,-106.96 1151.57,-86.0327"/>
<polygon fill="midnightblue" stroke="midnightblue" points="1152.51,-89.4261 1161.81,-84.3522 1151.37,-82.5186 1152.51,-89.4261"/>
</g>
<!-- Node28&#45;&gt;Node4 -->
<g id="edge55" class="edge"><title>Node28&#45;&gt;Node4</title>
<path fill="none" stroke="midnightblue" d="M1089.21,-235.436C1084.43,-206.839 1065.07,-113.81 1009.5,-67 963.891,-28.5802 892.133,-19.0532 850.783,-16.8949"/>
<polygon fill="midnightblue" stroke="midnightblue" points="850.847,-13.3947 840.713,-16.4845 850.562,-20.3889 850.847,-13.3947"/>
</g>
<!-- Node28&#45;&gt;Node5 -->
<g id="edge56" class="edge"><title>Node28&#45;&gt;Node5</title>
<path fill="none" stroke="midnightblue" d="M1105.6,-235.324C1120.4,-226.822 1143.19,-213.729 1160.48,-203.797"/>
<polygon fill="midnightblue" stroke="midnightblue" points="1162.51,-206.671 1169.43,-198.655 1159.02,-200.601 1162.51,-206.671"/>
</g>
<!-- Node28&#45;&gt;Node22 -->
<g id="edge57" class="edge"><title>Node28&#45;&gt;Node22</title>
<path fill="none" stroke="midnightblue" d="M1095.18,-235.439C1102.13,-222.865 1115.72,-198.756 1128.5,-179 1148.18,-148.582 1173.09,-114.525 1187.85,-94.7479"/>
<polygon fill="midnightblue" stroke="midnightblue" points="1190.67,-96.8299 1193.87,-86.7306 1185.07,-92.6286 1190.67,-96.8299"/>
</g>
<!-- Node29&#45;&gt;Node6 -->
<g id="edge62" class="edge"><title>Node29&#45;&gt;Node6</title>
<path fill="none" stroke="midnightblue" d="M1388.57,-179.343C1386.69,-165.766 1381.28,-139.331 1366.5,-123 1327.28,-79.6588 1302.69,-86.2611 1247.5,-67 1230.54,-61.0792 1122.77,-36.551 1066.94,-23.9887"/>
<polygon fill="midnightblue" stroke="midnightblue" points="1067.68,-20.5673 1057.15,-21.7894 1066.14,-27.3969 1067.68,-20.5673"/>
</g>
<!-- Node29&#45;&gt;Node22 -->
<g id="edge65" class="edge"><title>Node29&#45;&gt;Node22</title>
<path fill="none" stroke="midnightblue" d="M1362.94,-179.479C1340.21,-171.627 1307.06,-158.812 1280.5,-143 1256.63,-128.789 1232.29,-107.909 1216.83,-93.6753"/>
<polygon fill="midnightblue" stroke="midnightblue" points="1218.9,-90.8214 1209.21,-86.5359 1214.11,-95.9285 1218.9,-90.8214"/>
</g>
<!-- Node30 -->
<g id="node30" class="node"><title>Node30</title>
<polygon fill="white" stroke="#bfbfbf" points="1414,-123.5 1414,-142.5 1461,-142.5 1461,-123.5 1414,-123.5"/>
<text text-anchor="middle" x="1437.5" y="-130.5" font-family="Helvetica,sans-Serif" font-size="10.00">cmath</text>
</g>
<!-- Node29&#45;&gt;Node30 -->
<g id="edge60" class="edge"><title>Node29&#45;&gt;Node30</title>
<path fill="none" stroke="midnightblue" d="M1397.43,-179.083C1404.35,-171.298 1414.57,-159.801 1422.95,-150.367"/>
<polygon fill="midnightblue" stroke="midnightblue" points="1425.69,-152.55 1429.72,-142.751 1420.46,-147.9 1425.69,-152.55"/>
</g>
<!-- Node31 -->
<g id="node31" class="node"><title>Node31</title>
<polygon fill="white" stroke="#bfbfbf" points="1479,-123.5 1479,-142.5 1542,-142.5 1542,-123.5 1479,-123.5"/>
<text text-anchor="middle" x="1510.5" y="-130.5" font-family="Helvetica,sans-Serif" font-size="10.00">functional</text>
</g>
<!-- Node29&#45;&gt;Node31 -->
<g id="edge61" class="edge"><title>Node29&#45;&gt;Node31</title>
<path fill="none" stroke="midnightblue" d="M1408.67,-179.444C1428.41,-170.636 1459.39,-156.812 1481.99,-146.722"/>
<polygon fill="midnightblue" stroke="midnightblue" points="1483.71,-149.788 1491.42,-142.516 1480.86,-143.396 1483.71,-149.788"/>
</g>
<!-- Node32 -->
<g id="node32" class="node"><title>Node32</title>
<g id="a_node32"><a xlink:href="constant_8h.xhtml" target="_top" xlink:title="Constant expressions that cannot have uncertainties. ">
<polygon fill="white" stroke="black" points="1289.5,-123.5 1289.5,-142.5 1357.5,-142.5 1357.5,-123.5 1289.5,-123.5"/>
<text text-anchor="middle" x="1323.5" y="-130.5" font-family="Helvetica,sans-Serif" font-size="10.00">constant.h</text>
</a>
</g>
</g>
<!-- Node29&#45;&gt;Node32 -->
<g id="edge63" class="edge"><title>Node29&#45;&gt;Node32</title>
<path fill="none" stroke="midnightblue" d="M1378.9,-179.324C1369.04,-171.263 1354.15,-159.077 1342.28,-149.369"/>
<polygon fill="midnightblue" stroke="midnightblue" points="1344.25,-146.457 1334.3,-142.834 1339.82,-151.875 1344.25,-146.457"/>
</g>
<!-- Node32&#45;&gt;Node22 -->
<g id="edge64" class="edge"><title>Node32&#45;&gt;Node22</title>
<path fill="none" stroke="midnightblue" d="M1304.01,-123.444C1283.86,-114.596 1252.18,-100.687 1229.17,-90.5865"/>
<polygon fill="midnightblue" stroke="midnightblue" points="1230.46,-87.3316 1219.9,-86.5164 1227.65,-93.7411 1230.46,-87.3316"/>
</g>
<!-- Node33&#45;&gt;Node16 -->
<g id="edge67" class="edge"><title>Node33&#45;&gt;Node16</title>
<path fill="none" stroke="midnightblue" d="M1515.09,-291.341C1533.17,-274.015 1570.5,-233.033 1570.5,-190 1570.5,-190 1570.5,-190 1570.5,-132 1570.5,-122.253 1559.73,-126.133 1550.5,-123 1466.18,-94.3765 1244.42,-60.7747 1160.5,-31 1159.07,-30.4922 1157.62,-29.9362 1156.16,-29.347"/>
<polygon fill="midnightblue" stroke="midnightblue" points="1157.29,-26.017 1146.73,-25.1406 1154.44,-32.4101 1157.29,-26.017"/>
</g>
</g>
</svg>
