<?xml version="1.0" encoding="UTF-8" standalone="no"?>
<!DOCTYPE svg PUBLIC "-//W3C//DTD SVG 1.1//EN"
 "http://www.w3.org/Graphics/SVG/1.1/DTD/svg11.dtd">
<!-- Generated by graphviz version 2.38.0 (20140413.2041)
 -->
<!-- Title: event_tree.h Pages: 1 -->
<svg width="1350pt" height="263pt"
 viewBox="0.00 0.00 1349.50 263.00" xmlns="http://www.w3.org/2000/svg" xmlns:xlink="http://www.w3.org/1999/xlink">
<g id="graph0" class="graph" transform="scale(1 1) rotate(0) translate(4 259)">
<title>event_tree.h</title>
<polygon fill="white" stroke="none" points="-4,4 -4,-259 1345.5,-259 1345.5,4 -4,4"/>
<!-- Node1 -->
<g id="node1" class="node"><title>Node1</title>
<polygon fill="#bfbfbf" stroke="black" points="200,-235.5 200,-254.5 277,-254.5 277,-235.5 200,-235.5"/>
<text text-anchor="middle" x="238.5" y="-242.5" font-family="Helvetica,sans-Serif" font-size="10.00">event_tree.h</text>
</g>
<!-- Node2 -->
<g id="node2" class="node"><title>Node2</title>
<polygon fill="white" stroke="#bfbfbf" points="210,-67.5 210,-86.5 267,-86.5 267,-67.5 210,-67.5"/>
<text text-anchor="middle" x="238.5" y="-74.5" font-family="Helvetica,sans-Serif" font-size="10.00">memory</text>
</g>
<!-- Node1&#45;&gt;Node2 -->
<g id="edge1" class="edge"><title>Node1&#45;&gt;Node2</title>
<path fill="none" stroke="midnightblue" d="M238.5,-235.075C238.5,-208.945 238.5,-132.211 238.5,-96.577"/>
<polygon fill="midnightblue" stroke="midnightblue" points="242,-96.5681 238.5,-86.5681 235,-96.5681 242,-96.5681"/>
</g>
<!-- Node3 -->
<g id="node3" class="node"><title>Node3</title>
<polygon fill="white" stroke="#bfbfbf" points="164.5,-6 164.5,-25 208.5,-25 208.5,-6 164.5,-6"/>
<text text-anchor="middle" x="186.5" y="-13" font-family="Helvetica,sans-Serif" font-size="10.00">string</text>
</g>
<!-- Node1&#45;&gt;Node3 -->
<g id="edge2" class="edge"><title>Node1&#45;&gt;Node3</title>
<path fill="none" stroke="midnightblue" d="M234.675,-235.379C224.556,-212.055 197.194,-145.527 187.5,-87 184.628,-69.6573 184.663,-49.5864 185.248,-35.3059"/>
<polygon fill="midnightblue" stroke="midnightblue" points="188.746,-35.4312 185.79,-25.2573 181.756,-35.0543 188.746,-35.4312"/>
</g>
<!-- Node4 -->
<g id="node4" class="node"><title>Node4</title>
<polygon fill="white" stroke="#bfbfbf" points="65.5,-67.5 65.5,-86.5 115.5,-86.5 115.5,-67.5 65.5,-67.5"/>
<text text-anchor="middle" x="90.5" y="-74.5" font-family="Helvetica,sans-Serif" font-size="10.00">variant</text>
</g>
<!-- Node1&#45;&gt;Node4 -->
<g id="edge3" class="edge"><title>Node1&#45;&gt;Node4</title>
<path fill="none" stroke="midnightblue" d="M199.984,-236.673C176.67,-230.37 147.971,-219.006 129.5,-199 102.763,-170.042 94.3505,-122.607 91.7074,-96.5629"/>
<polygon fill="midnightblue" stroke="midnightblue" points="95.1902,-96.2103 90.8723,-86.5353 88.2144,-96.7913 95.1902,-96.2103"/>
</g>
<!-- Node5 -->
<g id="node5" class="node"><title>Node5</title>
<polygon fill="white" stroke="#bfbfbf" points="585,-6 585,-25 632,-25 632,-6 585,-6"/>
<text text-anchor="middle" x="608.5" y="-13" font-family="Helvetica,sans-Serif" font-size="10.00">vector</text>
</g>
<!-- Node1&#45;&gt;Node5 -->
<g id="edge4" class="edge"><title>Node1&#45;&gt;Node5</title>
<path fill="none" stroke="midnightblue" d="M277.175,-241.117C347.171,-234.284 497.175,-212.091 600.5,-143 634.315,-120.389 665.551,-105.175 651.5,-67 646.528,-53.4921 636.16,-41.1353 626.85,-32.0261"/>
<polygon fill="midnightblue" stroke="midnightblue" points="629.148,-29.384 619.421,-25.1842 624.406,-34.5331 629.148,-29.384"/>
</g>
<!-- Node6 -->
<g id="node6" class="node"><title>Node6</title>
<g id="a_node6"><a xlink:href="element_8h.xhtml" target="_top" xlink:title="Helper classes, structs, and properties common to all other classes. ">
<polygon fill="white" stroke="black" points="779,-67.5 779,-86.5 844,-86.5 844,-67.5 779,-67.5"/>
<text text-anchor="middle" x="811.5" y="-74.5" font-family="Helvetica,sans-Serif" font-size="10.00">element.h</text>
</a>
</g>
</g>
<!-- Node1&#45;&gt;Node6 -->
<g id="edge5" class="edge"><title>Node1&#45;&gt;Node6</title>
<path fill="none" stroke="midnightblue" d="M277.139,-243.027C391.988,-239.815 725.711,-228.051 764.5,-199 797.171,-174.531 807.139,-124.116 810.175,-96.7183"/>
<polygon fill="midnightblue" stroke="midnightblue" points="813.681,-96.8033 811.097,-86.5284 806.71,-96.1721 813.681,-96.8033"/>
</g>
<!-- Node12 -->
<g id="node12" class="node"><title>Node12</title>
<g id="a_node12"><a xlink:href="variant_8h.xhtml" target="_top" xlink:title="Extra helper functions for std::variant. ">
<polygon fill="white" stroke="black" points="0,-123.5 0,-142.5 77,-142.5 77,-123.5 0,-123.5"/>
<text text-anchor="middle" x="38.5" y="-130.5" font-family="Helvetica,sans-Serif" font-size="10.00">ext/variant.h</text>
</a>
</g>
</g>
<!-- Node1&#45;&gt;Node12 -->
<g id="edge13" class="edge"><title>Node1&#45;&gt;Node12</title>
<path fill="none" stroke="midnightblue" d="M199.906,-238.557C168.588,-232.714 124.392,-221.114 91.5,-199 73.0632,-186.605 57.7764,-165.895 48.434,-151.185"/>
<polygon fill="midnightblue" stroke="midnightblue" points="51.3618,-149.263 43.1797,-142.533 45.3786,-152.897 51.3618,-149.263"/>
</g>
<!-- Node13 -->
<g id="node13" class="node"><title>Node13</title>
<g id="a_node13"><a xlink:href="instruction_8h.xhtml" target="_top" xlink:title="Model and event tree modifier instructions. ">
<polygon fill="white" stroke="black" points="360.5,-179.5 360.5,-198.5 436.5,-198.5 436.5,-179.5 360.5,-179.5"/>
<text text-anchor="middle" x="398.5" y="-186.5" font-family="Helvetica,sans-Serif" font-size="10.00">instruction.h</text>
</a>
</g>
</g>
<!-- Node1&#45;&gt;Node13 -->
<g id="edge15" class="edge"><title>Node1&#45;&gt;Node13</title>
<path fill="none" stroke="midnightblue" d="M263.852,-235.444C290.769,-226.359 333.496,-211.939 363.587,-201.783"/>
<polygon fill="midnightblue" stroke="midnightblue" points="364.91,-205.031 373.266,-198.516 362.672,-198.398 364.91,-205.031"/>
</g>
<!-- Node6&#45;&gt;Node3 -->
<g id="edge7" class="edge"><title>Node6&#45;&gt;Node3</title>
<path fill="none" stroke="midnightblue" d="M778.928,-74.221C662.631,-67.7748 271.894,-45.2699 217.5,-31 215.517,-30.4798 213.506,-29.8365 211.51,-29.1127"/>
<polygon fill="midnightblue" stroke="midnightblue" points="212.43,-25.7013 201.857,-25.0202 209.697,-32.146 212.43,-25.7013"/>
</g>
<!-- Node6&#45;&gt;Node5 -->
<g id="edge8" class="edge"><title>Node6&#45;&gt;Node5</title>
<path fill="none" stroke="midnightblue" d="M778.862,-69.1312C744.083,-61.4152 687.651,-47.7525 640.5,-31 638.84,-30.4104 637.148,-29.7693 635.452,-29.0958"/>
<polygon fill="midnightblue" stroke="midnightblue" points="636.459,-25.7204 625.887,-25.0181 633.713,-32.1596 636.459,-25.7204"/>
</g>
<!-- Node7 -->
<g id="node7" class="node"><title>Node7</title>
<polygon fill="white" stroke="#bfbfbf" points="650,-6 650,-25 699,-25 699,-6 650,-6"/>
<text text-anchor="middle" x="674.5" y="-13" font-family="Helvetica,sans-Serif" font-size="10.00">cstdint</text>
</g>
<!-- Node6&#45;&gt;Node7 -->
<g id="edge6" class="edge"><title>Node6&#45;&gt;Node7</title>
<path fill="none" stroke="midnightblue" d="M791.871,-67.4751C768.676,-57.4013 729.881,-40.5525 703.287,-29.0023"/>
<polygon fill="midnightblue" stroke="midnightblue" points="704.659,-25.7824 694.092,-25.0091 701.87,-32.203 704.659,-25.7824"/>
</g>
<!-- Node8 -->
<g id="node8" class="node"><title>Node8</title>
<polygon fill="white" stroke="#bfbfbf" points="907.5,-0.5 907.5,-30.5 1047.5,-30.5 1047.5,-0.5 907.5,-0.5"/>
<text text-anchor="start" x="915.5" y="-18.5" font-family="Helvetica,sans-Serif" font-size="10.00">boost/multi_index/hashed</text>
<text text-anchor="middle" x="977.5" y="-7.5" font-family="Helvetica,sans-Serif" font-size="10.00">_index.hpp</text>
</g>
<!-- Node6&#45;&gt;Node8 -->
<g id="edge9" class="edge"><title>Node6&#45;&gt;Node8</title>
<path fill="none" stroke="midnightblue" d="M835.284,-67.4751C859.552,-58.7765 897.914,-45.0264 928.682,-33.9981"/>
<polygon fill="midnightblue" stroke="midnightblue" points="930.144,-37.1919 938.377,-30.523 927.783,-30.6024 930.144,-37.1919"/>
</g>
<!-- Node9 -->
<g id="node9" class="node"><title>Node9</title>
<polygon fill="white" stroke="#bfbfbf" points="1065.5,-0.5 1065.5,-30.5 1195.5,-30.5 1195.5,-0.5 1065.5,-0.5"/>
<text text-anchor="start" x="1073.5" y="-18.5" font-family="Helvetica,sans-Serif" font-size="10.00">boost/multi_index/mem</text>
<text text-anchor="middle" x="1130.5" y="-7.5" font-family="Helvetica,sans-Serif" font-size="10.00">_fun.hpp</text>
</g>
<!-- Node6&#45;&gt;Node9 -->
<g id="edge10" class="edge"><title>Node6&#45;&gt;Node9</title>
<path fill="none" stroke="midnightblue" d="M844.02,-70.1535C889.133,-62.0152 973.521,-46.6927 1055.19,-31.2361"/>
<polygon fill="midnightblue" stroke="midnightblue" points="1055.97,-34.6524 1065.14,-29.351 1054.66,-27.7749 1055.97,-34.6524"/>
</g>
<!-- Node10 -->
<g id="node10" class="node"><title>Node10</title>
<polygon fill="white" stroke="#bfbfbf" points="717.5,-6 717.5,-25 889.5,-25 889.5,-6 717.5,-6"/>
<text text-anchor="middle" x="803.5" y="-13" font-family="Helvetica,sans-Serif" font-size="10.00">boost/multi_index_container.hpp</text>
</g>
<!-- Node6&#45;&gt;Node10 -->
<g id="edge11" class="edge"><title>Node6&#45;&gt;Node10</title>
<path fill="none" stroke="midnightblue" d="M810.354,-67.4751C809.225,-59.0803 807.464,-45.9806 806.009,-35.1631"/>
<polygon fill="midnightblue" stroke="midnightblue" points="809.445,-34.4535 804.644,-25.0091 802.508,-35.3863 809.445,-34.4535"/>
</g>
<!-- Node11 -->
<g id="node11" class="node"><title>Node11</title>
<polygon fill="white" stroke="#bfbfbf" points="1213.5,-6 1213.5,-25 1341.5,-25 1341.5,-6 1213.5,-6"/>
<text text-anchor="middle" x="1277.5" y="-13" font-family="Helvetica,sans-Serif" font-size="10.00">boost/noncopyable.hpp</text>
</g>
<!-- Node6&#45;&gt;Node11 -->
<g id="edge12" class="edge"><title>Node6&#45;&gt;Node11</title>
<path fill="none" stroke="midnightblue" d="M844.229,-73.1683C911.792,-67.1215 1071.51,-51.7857 1204.5,-31 1211.96,-29.8346 1219.81,-28.4462 1227.49,-26.9973"/>
<polygon fill="midnightblue" stroke="midnightblue" points="1228.29,-30.4077 1237.44,-25.0712 1226.96,-23.5352 1228.29,-30.4077"/>
</g>
<!-- Node12&#45;&gt;Node4 -->
<g id="edge14" class="edge"><title>Node12&#45;&gt;Node4</title>
<path fill="none" stroke="midnightblue" d="M47.0867,-123.083C54.659,-115.22 65.8782,-103.569 75.0144,-94.0813"/>
<polygon fill="midnightblue" stroke="midnightblue" points="77.6577,-96.3821 82.073,-86.7511 72.6155,-91.5266 77.6577,-96.3821"/>
</g>
<!-- Node13&#45;&gt;Node2 -->
<g id="edge16" class="edge"><title>Node13&#45;&gt;Node2</title>
<path fill="none" stroke="midnightblue" d="M385.945,-179.368C358.606,-160.573 293.436,-115.768 259.639,-92.5334"/>
<polygon fill="midnightblue" stroke="midnightblue" points="261.22,-89.3726 250.997,-86.5914 257.254,-95.1409 261.22,-89.3726"/>
</g>
<!-- Node13&#45;&gt;Node3 -->
<g id="edge17" class="edge"><title>Node13&#45;&gt;Node3</title>
<path fill="none" stroke="midnightblue" d="M360.335,-179.648C314.595,-167.519 239.278,-140.39 200.5,-87 189.631,-72.0351 186.655,-50.7661 186.075,-35.5094"/>
<polygon fill="midnightblue" stroke="midnightblue" points="189.573,-35.1955 186.008,-25.2185 182.574,-35.2411 189.573,-35.1955"/>
</g>
<!-- Node13&#45;&gt;Node5 -->
<g id="edge18" class="edge"><title>Node13&#45;&gt;Node5</title>
<path fill="none" stroke="midnightblue" d="M436.869,-184.285C491.595,-176.69 590.322,-153.96 634.5,-87 645.55,-70.2514 633.936,-48.1786 622.903,-33.2257"/>
<polygon fill="midnightblue" stroke="midnightblue" points="625.605,-31.0003 616.65,-25.3385 620.12,-35.349 625.605,-31.0003"/>
</g>
<!-- Node13&#45;&gt;Node6 -->
<g id="edge20" class="edge"><title>Node13&#45;&gt;Node6</title>
<path fill="none" stroke="midnightblue" d="M436.523,-188.965C499.378,-189.231 627.807,-184.099 726.5,-143 753.663,-131.688 779.753,-109.492 795.699,-94.2094"/>
<polygon fill="midnightblue" stroke="midnightblue" points="798.404,-96.4571 803.065,-86.9424 793.488,-91.4739 798.404,-96.4571"/>
</g>
<!-- Node13&#45;&gt;Node11 -->
<g id="edge19" class="edge"><title>Node13&#45;&gt;Node11</title>
<path fill="none" stroke="midnightblue" d="M436.711,-184.653C502.556,-178.565 641.507,-164.307 757.5,-143 938.797,-109.697 1151.4,-52.0374 1237.9,-27.7743"/>
<polygon fill="midnightblue" stroke="midnightblue" points="1238.89,-31.1307 1247.57,-25.053 1237,-24.3924 1238.89,-31.1307"/>
</g>
<!-- Node14 -->
<g id="node14" class="node"><title>Node14</title>
<g id="a_node14"><a xlink:href="event_8h.xhtml" target="_top" xlink:title="Contains event classes for fault trees. ">
<polygon fill="white" stroke="black" points="403,-123.5 403,-142.5 456,-142.5 456,-123.5 403,-123.5"/>
<text text-anchor="middle" x="429.5" y="-130.5" font-family="Helvetica,sans-Serif" font-size="10.00">event.h</text>
</a>
</g>
</g>
<!-- Node13&#45;&gt;Node14 -->
<g id="edge21" class="edge"><title>Node13&#45;&gt;Node14</title>
<path fill="none" stroke="midnightblue" d="M403.619,-179.083C407.908,-171.613 414.158,-160.724 419.442,-151.52"/>
<polygon fill="midnightblue" stroke="midnightblue" points="422.533,-153.166 424.476,-142.751 416.462,-149.681 422.533,-153.166"/>
</g>
<!-- Node18 -->
<g id="node18" class="node"><title>Node18</title>
<g id="a_node18"><a xlink:href="expression_8h.xhtml" target="_top" xlink:title="Provides the base class for all expressions and units for expression values. ">
<polygon fill="white" stroke="black" points="324,-67.5 324,-86.5 401,-86.5 401,-67.5 324,-67.5"/>
<text text-anchor="middle" x="362.5" y="-74.5" font-family="Helvetica,sans-Serif" font-size="10.00">expression.h</text>
</a>
</g>
</g>
<!-- Node13&#45;&gt;Node18 -->
<g id="edge38" class="edge"><title>Node13&#45;&gt;Node18</title>
<path fill="none" stroke="midnightblue" d="M395.675,-179.368C389.839,-161.537 376.342,-120.295 368.48,-96.2717"/>
<polygon fill="midnightblue" stroke="midnightblue" points="371.749,-95.0067 365.312,-86.5914 365.096,-97.1841 371.749,-95.0067"/>
</g>
<!-- Node14&#45;&gt;Node2 -->
<g id="edge24" class="edge"><title>Node14&#45;&gt;Node2</title>
<path fill="none" stroke="midnightblue" d="M402.942,-124.492C370.243,-115.247 314.454,-99.4738 277.041,-88.8965"/>
<polygon fill="midnightblue" stroke="midnightblue" points="277.586,-85.4133 267.011,-86.0606 275.681,-92.1493 277.586,-85.4133"/>
</g>
<!-- Node14&#45;&gt;Node3 -->
<g id="edge26" class="edge"><title>Node14&#45;&gt;Node3</title>
<path fill="none" stroke="midnightblue" d="M404.881,-123.424C381.327,-114.972 344.979,-101.283 314.5,-87 294.306,-77.5368 241.478,-47.8203 210.364,-30.1325"/>
<polygon fill="midnightblue" stroke="midnightblue" points="211.888,-26.9722 201.466,-25.0651 208.424,-33.0551 211.888,-26.9722"/>
</g>
<!-- Node14&#45;&gt;Node4 -->
<g id="edge28" class="edge"><title>Node14&#45;&gt;Node4</title>
<path fill="none" stroke="midnightblue" d="M402.899,-127.763C342.302,-118.11 193.984,-94.4842 125.817,-83.6258"/>
<polygon fill="midnightblue" stroke="midnightblue" points="126.017,-80.1135 115.591,-81.9968 124.916,-87.0264 126.017,-80.1135"/>
</g>
<!-- Node14&#45;&gt;Node5 -->
<g id="edge29" class="edge"><title>Node14&#45;&gt;Node5</title>
<path fill="none" stroke="midnightblue" d="M456.095,-129.576C502.877,-124.703 596.816,-111.983 616.5,-87 628.021,-72.3776 623.152,-50.4507 617.228,-34.9392"/>
<polygon fill="midnightblue" stroke="midnightblue" points="620.297,-33.2132 613.148,-25.394 613.861,-35.9649 620.297,-33.2132"/>
</g>
<!-- Node14&#45;&gt;Node6 -->
<g id="edge30" class="edge"><title>Node14&#45;&gt;Node6</title>
<path fill="none" stroke="midnightblue" d="M456.058,-128.246C521.153,-119.044 689.114,-95.3006 768.596,-84.065"/>
<polygon fill="midnightblue" stroke="midnightblue" points="769.337,-87.4951 778.749,-82.6297 768.357,-80.564 769.337,-87.4951"/>
</g>
<!-- Node14&#45;&gt;Node7 -->
<g id="edge22" class="edge"><title>Node14&#45;&gt;Node7</title>
<path fill="none" stroke="midnightblue" d="M456.221,-132.766C498.244,-132.63 580.54,-126.791 634.5,-87 651.967,-74.1197 662.905,-51.1732 668.842,-34.9628"/>
<polygon fill="midnightblue" stroke="midnightblue" points="672.169,-36.0506 672.04,-25.4566 665.534,-33.819 672.169,-36.0506"/>
</g>
<!-- Node15 -->
<g id="node15" class="node"><title>Node15</title>
<polygon fill="white" stroke="#bfbfbf" points="458,-67.5 458,-86.5 535,-86.5 535,-67.5 458,-67.5"/>
<text text-anchor="middle" x="496.5" y="-74.5" font-family="Helvetica,sans-Serif" font-size="10.00">initializer_list</text>
</g>
<!-- Node14&#45;&gt;Node15 -->
<g id="edge23" class="edge"><title>Node14&#45;&gt;Node15</title>
<path fill="none" stroke="midnightblue" d="M440.265,-123.324C450.266,-115.263 465.387,-103.077 477.43,-93.3695"/>
<polygon fill="midnightblue" stroke="midnightblue" points="479.95,-95.8343 485.539,-86.8339 475.557,-90.3841 479.95,-95.8343"/>
</g>
<!-- Node16 -->
<g id="node16" class="node"><title>Node16</title>
<polygon fill="white" stroke="#bfbfbf" points="553,-67.5 553,-86.5 608,-86.5 608,-67.5 553,-67.5"/>
<text text-anchor="middle" x="580.5" y="-74.5" font-family="Helvetica,sans-Serif" font-size="10.00">optional</text>
</g>
<!-- Node14&#45;&gt;Node16 -->
<g id="edge25" class="edge"><title>Node14&#45;&gt;Node16</title>
<path fill="none" stroke="midnightblue" d="M453.426,-123.444C478.719,-114.399 518.802,-100.064 547.18,-89.9158"/>
<polygon fill="midnightblue" stroke="midnightblue" points="548.448,-93.1794 556.686,-86.5164 546.091,-86.5882 548.448,-93.1794"/>
</g>
<!-- Node17 -->
<g id="node17" class="node"><title>Node17</title>
<polygon fill="white" stroke="#bfbfbf" points="436.5,-6 436.5,-25 478.5,-25 478.5,-6 436.5,-6"/>
<text text-anchor="middle" x="457.5" y="-13" font-family="Helvetica,sans-Serif" font-size="10.00">utility</text>
</g>
<!-- Node14&#45;&gt;Node17 -->
<g id="edge27" class="edge"><title>Node14&#45;&gt;Node17</title>
<path fill="none" stroke="midnightblue" d="M431.605,-123.319C436.125,-104.673 446.847,-60.443 452.983,-35.1317"/>
<polygon fill="midnightblue" stroke="midnightblue" points="456.416,-35.8251 455.371,-25.282 449.613,-34.1759 456.416,-35.8251"/>
</g>
<!-- Node14&#45;&gt;Node18 -->
<g id="edge31" class="edge"><title>Node14&#45;&gt;Node18</title>
<path fill="none" stroke="midnightblue" d="M418.735,-123.324C408.734,-115.263 393.613,-103.077 381.57,-93.3695"/>
<polygon fill="midnightblue" stroke="midnightblue" points="383.443,-90.3841 373.461,-86.8339 379.05,-95.8343 383.443,-90.3841"/>
</g>
<!-- Node18&#45;&gt;Node3 -->
<g id="edge33" class="edge"><title>Node18&#45;&gt;Node3</title>
<path fill="none" stroke="midnightblue" d="M330.678,-67.4783C301.012,-59.2168 255.725,-45.7914 217.5,-31 216.08,-30.4505 214.634,-29.8658 213.181,-29.2583"/>
<polygon fill="midnightblue" stroke="midnightblue" points="214.259,-25.9077 203.698,-25.0531 211.421,-32.3067 214.259,-25.9077"/>
</g>
<!-- Node18&#45;&gt;Node5 -->
<g id="edge35" class="edge"><title>Node18&#45;&gt;Node5</title>
<path fill="none" stroke="midnightblue" d="M397.746,-67.4751C445.051,-56.0334 528.491,-35.8518 574.926,-24.6204"/>
<polygon fill="midnightblue" stroke="midnightblue" points="575.899,-27.9863 584.796,-22.2334 574.253,-21.1825 575.899,-27.9863"/>
</g>
<!-- Node18&#45;&gt;Node11 -->
<g id="edge37" class="edge"><title>Node18&#45;&gt;Node11</title>
<path fill="none" stroke="midnightblue" d="M401.416,-71.4553C416.149,-69.8589 433.082,-68.1729 448.5,-67 783.912,-41.484 870.613,-71.8802 1204.5,-31 1212.89,-29.9729 1221.76,-28.5242 1230.31,-26.9362"/>
<polygon fill="midnightblue" stroke="midnightblue" points="1231.01,-30.3658 1240.16,-25.0251 1229.68,-23.4939 1231.01,-30.3658"/>
</g>
<!-- Node18&#45;&gt;Node17 -->
<g id="edge34" class="edge"><title>Node18&#45;&gt;Node17</title>
<path fill="none" stroke="midnightblue" d="M376.111,-67.4751C391.561,-57.7989 416.99,-41.8721 435.316,-30.3941"/>
<polygon fill="midnightblue" stroke="midnightblue" points="437.297,-33.2834 443.914,-25.0091 433.581,-27.3509 437.297,-33.2834"/>
</g>
<!-- Node19 -->
<g id="node19" class="node"><title>Node19</title>
<polygon fill="white" stroke="#bfbfbf" points="226.5,-6 226.5,-25 288.5,-25 288.5,-6 226.5,-6"/>
<text text-anchor="middle" x="257.5" y="-13" font-family="Helvetica,sans-Serif" font-size="10.00">algorithm</text>
</g>
<!-- Node18&#45;&gt;Node19 -->
<g id="edge32" class="edge"><title>Node18&#45;&gt;Node19</title>
<path fill="none" stroke="midnightblue" d="M347.456,-67.4751C330.225,-57.7106 301.76,-41.5807 281.466,-30.0808"/>
<polygon fill="midnightblue" stroke="midnightblue" points="282.942,-26.8942 272.516,-25.0091 279.491,-32.9843 282.942,-26.8942"/>
</g>
<!-- Node20 -->
<g id="node20" class="node"><title>Node20</title>
<polygon fill="white" stroke="#bfbfbf" points="306.5,-0.5 306.5,-30.5 418.5,-30.5 418.5,-0.5 306.5,-0.5"/>
<text text-anchor="start" x="314.5" y="-18.5" font-family="Helvetica,sans-Serif" font-size="10.00">boost/icl/continuous</text>
<text text-anchor="middle" x="362.5" y="-7.5" font-family="Helvetica,sans-Serif" font-size="10.00">_interval.hpp</text>
</g>
<!-- Node18&#45;&gt;Node20 -->
<g id="edge36" class="edge"><title>Node18&#45;&gt;Node20</title>
<path fill="none" stroke="midnightblue" d="M362.5,-67.4751C362.5,-60.471 362.5,-50.1919 362.5,-40.6956"/>
<polygon fill="midnightblue" stroke="midnightblue" points="366,-40.5229 362.5,-30.523 359,-40.523 366,-40.5229"/>
</g>
</g>
</svg>
