<?xml version="1.0" encoding="UTF-8" standalone="no"?>
<!DOCTYPE svg PUBLIC "-//W3C//DTD SVG 1.1//EN"
 "http://www.w3.org/Graphics/SVG/1.1/DTD/svg11.dtd">
<!-- Generated by graphviz version 2.38.0 (20140413.2041)
 -->
<!-- Title: fault_tree.h Pages: 1 -->
<svg width="1245pt" height="263pt"
 viewBox="0.00 0.00 1244.50 263.00" xmlns="http://www.w3.org/2000/svg" xmlns:xlink="http://www.w3.org/1999/xlink">
<g id="graph0" class="graph" transform="scale(1 1) rotate(0) translate(4 259)">
<title>fault_tree.h</title>
<polygon fill="white" stroke="none" points="-4,4 -4,-259 1240.5,-259 1240.5,4 -4,4"/>
<!-- Node1 -->
<g id="node1" class="node"><title>Node1</title>
<polygon fill="#bfbfbf" stroke="black" points="523,-235.5 523,-254.5 594,-254.5 594,-235.5 523,-235.5"/>
<text text-anchor="middle" x="558.5" y="-242.5" font-family="Helvetica,sans-Serif" font-size="10.00">fault_tree.h</text>
</g>
<!-- Node2 -->
<g id="node2" class="node"><title>Node2</title>
<polygon fill="white" stroke="#bfbfbf" points="239,-67.5 239,-86.5 296,-86.5 296,-67.5 239,-67.5"/>
<text text-anchor="middle" x="267.5" y="-74.5" font-family="Helvetica,sans-Serif" font-size="10.00">memory</text>
</g>
<!-- Node1&#45;&gt;Node2 -->
<g id="edge1" class="edge"><title>Node1&#45;&gt;Node2</title>
<path fill="none" stroke="midnightblue" d="M522.617,-238.991C468.147,-229.594 364.4,-204.412 302.5,-143 289.159,-129.764 279.619,-110.367 273.902,-96.2085"/>
<polygon fill="midnightblue" stroke="midnightblue" points="277.079,-94.7133 270.276,-86.5912 270.529,-97.183 277.079,-94.7133"/>
</g>
<!-- Node3 -->
<g id="node3" class="node"><title>Node3</title>
<polygon fill="white" stroke="#bfbfbf" points="563.5,-6 563.5,-25 607.5,-25 607.5,-6 563.5,-6"/>
<text text-anchor="middle" x="585.5" y="-13" font-family="Helvetica,sans-Serif" font-size="10.00">string</text>
</g>
<!-- Node1&#45;&gt;Node3 -->
<g id="edge2" class="edge"><title>Node1&#45;&gt;Node3</title>
<path fill="none" stroke="midnightblue" d="M558.414,-235.444C558.298,-209.728 558.98,-130.958 570.5,-67 572.455,-56.1438 575.898,-44.3078 578.992,-34.8249"/>
<polygon fill="midnightblue" stroke="midnightblue" points="582.326,-35.8904 582.24,-25.2959 575.701,-33.6322 582.326,-35.8904"/>
</g>
<!-- Node4 -->
<g id="node4" class="node"><title>Node4</title>
<polygon fill="white" stroke="#bfbfbf" points="1150.5,-179.5 1150.5,-198.5 1236.5,-198.5 1236.5,-179.5 1150.5,-179.5"/>
<text text-anchor="middle" x="1193.5" y="-186.5" font-family="Helvetica,sans-Serif" font-size="10.00">unordered_set</text>
</g>
<!-- Node1&#45;&gt;Node4 -->
<g id="edge3" class="edge"><title>Node1&#45;&gt;Node4</title>
<path fill="none" stroke="midnightblue" d="M594.112,-242.208C684.813,-237.43 931.83,-223.087 1136.5,-199 1137.76,-198.852 1139.03,-198.696 1140.32,-198.534"/>
<polygon fill="midnightblue" stroke="midnightblue" points="1140.85,-201.995 1150.29,-197.19 1139.91,-195.058 1140.85,-201.995"/>
</g>
<!-- Node5 -->
<g id="node5" class="node"><title>Node5</title>
<polygon fill="white" stroke="#bfbfbf" points="1042,-6 1042,-25 1089,-25 1089,-6 1042,-6"/>
<text text-anchor="middle" x="1065.5" y="-13" font-family="Helvetica,sans-Serif" font-size="10.00">vector</text>
</g>
<!-- Node1&#45;&gt;Node5 -->
<g id="edge4" class="edge"><title>Node1&#45;&gt;Node5</title>
<path fill="none" stroke="midnightblue" d="M594.175,-242.371C701.341,-236.712 1017.24,-214.191 1085.5,-143 1109.08,-118.41 1104.52,-99.8526 1095.5,-67 1092.18,-54.9046 1085.12,-42.7742 1078.69,-33.4347"/>
<polygon fill="midnightblue" stroke="midnightblue" points="1081.35,-31.1408 1072.62,-25.13 1075.69,-35.2697 1081.35,-31.1408"/>
</g>
<!-- Node6 -->
<g id="node6" class="node"><title>Node6</title>
<g id="a_node6"><a xlink:href="ccf__group_8h.xhtml" target="_top" xlink:title="Functional containers for basic events grouped by common cause failure. ">
<polygon fill="white" stroke="black" points="752.5,-179.5 752.5,-198.5 824.5,-198.5 824.5,-179.5 752.5,-179.5"/>
<text text-anchor="middle" x="788.5" y="-186.5" font-family="Helvetica,sans-Serif" font-size="10.00">ccf_group.h</text>
</a>
</g>
</g>
<!-- Node1&#45;&gt;Node6 -->
<g id="edge5" class="edge"><title>Node1&#45;&gt;Node6</title>
<path fill="none" stroke="midnightblue" d="M594.185,-235.622C634.102,-226.25 698.877,-211.042 742.551,-200.788"/>
<polygon fill="midnightblue" stroke="midnightblue" points="743.416,-204.18 752.352,-198.487 741.816,-197.365 743.416,-204.18"/>
</g>
<!-- Node10 -->
<g id="node10" class="node"><title>Node10</title>
<g id="a_node10"><a xlink:href="element_8h.xhtml" target="_top" xlink:title="Helper classes, structs, and properties common to all other classes. ">
<polygon fill="white" stroke="black" points="429,-67.5 429,-86.5 494,-86.5 494,-67.5 429,-67.5"/>
<text text-anchor="middle" x="461.5" y="-74.5" font-family="Helvetica,sans-Serif" font-size="10.00">element.h</text>
</a>
</g>
</g>
<!-- Node1&#45;&gt;Node10 -->
<g id="edge38" class="edge"><title>Node1&#45;&gt;Node10</title>
<path fill="none" stroke="midnightblue" d="M545.879,-235.31C534.736,-227.079 518.718,-213.8 508.5,-199 485.961,-166.352 472.195,-121.388 465.795,-96.4848"/>
<polygon fill="midnightblue" stroke="midnightblue" points="469.145,-95.4511 463.367,-86.5705 462.346,-97.116 469.145,-95.4511"/>
</g>
<!-- Node16 -->
<g id="node16" class="node"><title>Node16</title>
<g id="a_node16"><a xlink:href="event_8h.xhtml" target="_top" xlink:title="Contains event classes for fault trees. ">
<polygon fill="white" stroke="black" points="635,-123.5 635,-142.5 688,-142.5 688,-123.5 635,-123.5"/>
<text text-anchor="middle" x="661.5" y="-130.5" font-family="Helvetica,sans-Serif" font-size="10.00">event.h</text>
</a>
</g>
</g>
<!-- Node1&#45;&gt;Node16 -->
<g id="edge39" class="edge"><title>Node1&#45;&gt;Node16</title>
<path fill="none" stroke="midnightblue" d="M566.582,-235.368C583.806,-216.974 624.353,-173.671 646.47,-150.052"/>
<polygon fill="midnightblue" stroke="midnightblue" points="649.175,-152.283 653.455,-142.591 644.065,-147.499 649.175,-152.283"/>
</g>
<!-- Node22 -->
<g id="node22" class="node"><title>Node22</title>
<g id="a_node22"><a xlink:href="parameter_8h.xhtml" target="_top" xlink:title="Parameter expressions that act like a shareable variable. ">
<polygon fill="white" stroke="black" points="341.5,-123.5 341.5,-142.5 417.5,-142.5 417.5,-123.5 341.5,-123.5"/>
<text text-anchor="middle" x="379.5" y="-130.5" font-family="Helvetica,sans-Serif" font-size="10.00">parameter.h</text>
</a>
</g>
</g>
<!-- Node1&#45;&gt;Node22 -->
<g id="edge40" class="edge"><title>Node1&#45;&gt;Node22</title>
<path fill="none" stroke="midnightblue" d="M522.94,-236.777C496.274,-230.122 459.822,-218.295 432.5,-199 414.548,-186.322 399.341,-165.998 389.882,-151.452"/>
<polygon fill="midnightblue" stroke="midnightblue" points="392.788,-149.497 384.526,-142.865 386.849,-153.202 392.788,-149.497"/>
</g>
<!-- Node6&#45;&gt;Node2 -->
<g id="edge6" class="edge"><title>Node6&#45;&gt;Node2</title>
<path fill="none" stroke="midnightblue" d="M752.274,-187.543C657.918,-185.864 406.747,-178.125 332.5,-143 309.828,-132.275 290.497,-110.222 278.948,-94.7908"/>
<polygon fill="midnightblue" stroke="midnightblue" points="281.752,-92.6949 273.081,-86.6063 276.063,-96.7731 281.752,-92.6949"/>
</g>
<!-- Node6&#45;&gt;Node3 -->
<g id="edge8" class="edge"><title>Node6&#45;&gt;Node3</title>
<path fill="none" stroke="midnightblue" d="M787.791,-179.217C785.517,-157.008 776.432,-98.1639 742.5,-67 699.605,-27.6042 671.05,-51.4025 616.5,-31 615.074,-30.4666 613.623,-29.8948 612.166,-29.2974"/>
<polygon fill="midnightblue" stroke="midnightblue" points="613.234,-25.944 602.671,-25.1245 610.418,-32.3524 613.234,-25.944"/>
</g>
<!-- Node6&#45;&gt;Node5 -->
<g id="edge11" class="edge"><title>Node6&#45;&gt;Node5</title>
<path fill="none" stroke="midnightblue" d="M824.508,-187.683C892.33,-186.241 1034.96,-178.904 1065.5,-143 1091.26,-112.713 1080.59,-61.9919 1072.12,-34.89"/>
<polygon fill="midnightblue" stroke="midnightblue" points="1075.35,-33.5148 1068.85,-25.1481 1068.72,-35.7421 1075.35,-33.5148"/>
</g>
<!-- Node7 -->
<g id="node7" class="node"><title>Node7</title>
<polygon fill="white" stroke="#bfbfbf" points="963,-67.5 963,-86.5 1018,-86.5 1018,-67.5 963,-67.5"/>
<text text-anchor="middle" x="990.5" y="-74.5" font-family="Helvetica,sans-Serif" font-size="10.00">optional</text>
</g>
<!-- Node6&#45;&gt;Node7 -->
<g id="edge7" class="edge"><title>Node6&#45;&gt;Node7</title>
<path fill="none" stroke="midnightblue" d="M804.351,-179.368C839.383,-160.292 923.615,-114.422 965.699,-91.5054"/>
<polygon fill="midnightblue" stroke="midnightblue" points="967.615,-94.4477 974.723,-86.5914 964.267,-88.3001 967.615,-94.4477"/>
</g>
<!-- Node8 -->
<g id="node8" class="node"><title>Node8</title>
<polygon fill="white" stroke="#bfbfbf" points="988.5,-123.5 988.5,-142.5 1056.5,-142.5 1056.5,-123.5 988.5,-123.5"/>
<text text-anchor="middle" x="1022.5" y="-130.5" font-family="Helvetica,sans-Serif" font-size="10.00">type_traits</text>
</g>
<!-- Node6&#45;&gt;Node8 -->
<g id="edge9" class="edge"><title>Node6&#45;&gt;Node8</title>
<path fill="none" stroke="midnightblue" d="M824.55,-179.681C865.94,-170.129 933.84,-154.46 978.36,-144.186"/>
<polygon fill="midnightblue" stroke="midnightblue" points="979.357,-147.548 988.314,-141.889 977.783,-140.727 979.357,-147.548"/>
</g>
<!-- Node9 -->
<g id="node9" class="node"><title>Node9</title>
<polygon fill="white" stroke="#bfbfbf" points="981.5,-6 981.5,-25 1023.5,-25 1023.5,-6 981.5,-6"/>
<text text-anchor="middle" x="1002.5" y="-13" font-family="Helvetica,sans-Serif" font-size="10.00">utility</text>
</g>
<!-- Node6&#45;&gt;Node9 -->
<g id="edge10" class="edge"><title>Node6&#45;&gt;Node9</title>
<path fill="none" stroke="midnightblue" d="M819.929,-179.41C879.051,-162.536 1003,-123.52 1026.5,-87 1037.16,-70.4325 1026.63,-48.6107 1016.35,-33.659"/>
<polygon fill="midnightblue" stroke="midnightblue" points="1018.95,-31.2886 1010.18,-25.3456 1013.33,-35.4612 1018.95,-31.2886"/>
</g>
<!-- Node6&#45;&gt;Node10 -->
<g id="edge12" class="edge"><title>Node6&#45;&gt;Node10</title>
<path fill="none" stroke="midnightblue" d="M753.193,-179.426C719.953,-171.079 668.924,-157.552 625.5,-143 577.471,-126.905 523.049,-104.476 490.541,-90.6154"/>
<polygon fill="midnightblue" stroke="midnightblue" points="491.758,-87.3289 481.188,-86.6054 489,-93.7626 491.758,-87.3289"/>
</g>
<!-- Node6&#45;&gt;Node16 -->
<g id="edge20" class="edge"><title>Node6&#45;&gt;Node16</title>
<path fill="none" stroke="midnightblue" d="M768.376,-179.444C747.476,-170.557 714.565,-156.563 690.784,-146.451"/>
<polygon fill="midnightblue" stroke="midnightblue" points="692.102,-143.208 681.529,-142.516 689.362,-149.65 692.102,-143.208"/>
</g>
<!-- Node19 -->
<g id="node19" class="node"><title>Node19</title>
<g id="a_node19"><a xlink:href="expression_8h.xhtml" target="_top" xlink:title="Provides the base class for all expressions and units for expression values. ">
<polygon fill="white" stroke="black" points="791,-67.5 791,-86.5 868,-86.5 868,-67.5 791,-67.5"/>
<text text-anchor="middle" x="829.5" y="-74.5" font-family="Helvetica,sans-Serif" font-size="10.00">expression.h</text>
</a>
</g>
</g>
<!-- Node6&#45;&gt;Node19 -->
<g id="edge37" class="edge"><title>Node6&#45;&gt;Node19</title>
<path fill="none" stroke="midnightblue" d="M791.717,-179.368C798.364,-161.537 813.735,-120.295 822.69,-96.2717"/>
<polygon fill="midnightblue" stroke="midnightblue" points="826.085,-97.1841 826.298,-86.5914 819.526,-94.7393 826.085,-97.1841"/>
</g>
<!-- Node10&#45;&gt;Node3 -->
<g id="edge14" class="edge"><title>Node10&#45;&gt;Node3</title>
<path fill="none" stroke="midnightblue" d="M479.266,-67.4751C499.984,-57.5338 534.452,-40.9947 558.489,-29.461"/>
<polygon fill="midnightblue" stroke="midnightblue" points="560.265,-32.4908 567.767,-25.0091 557.237,-26.1797 560.265,-32.4908"/>
</g>
<!-- Node10&#45;&gt;Node5 -->
<g id="edge15" class="edge"><title>Node10&#45;&gt;Node5</title>
<path fill="none" stroke="midnightblue" d="M494.244,-73.4927C614.604,-64.267 1025.92,-32.6556 1032.5,-31 1034.8,-30.4206 1037.15,-29.6942 1039.48,-28.877"/>
<polygon fill="midnightblue" stroke="midnightblue" points="1040.78,-32.1247 1048.76,-25.1513 1038.17,-25.6285 1040.78,-32.1247"/>
</g>
<!-- Node11 -->
<g id="node11" class="node"><title>Node11</title>
<polygon fill="white" stroke="#bfbfbf" points="0,-6 0,-25 49,-25 49,-6 0,-6"/>
<text text-anchor="middle" x="24.5" y="-13" font-family="Helvetica,sans-Serif" font-size="10.00">cstdint</text>
</g>
<!-- Node10&#45;&gt;Node11 -->
<g id="edge13" class="edge"><title>Node10&#45;&gt;Node11</title>
<path fill="none" stroke="midnightblue" d="M428.947,-69.3802C424.115,-68.5099 419.186,-67.6842 414.5,-67 257.139,-44.0231 212.508,-70.6446 58.5,-31 56.1404,-30.3926 53.7328,-29.6464 51.3434,-28.816"/>
<polygon fill="midnightblue" stroke="midnightblue" points="52.3802,-25.463 41.7927,-25.0675 49.8227,-31.9791 52.3802,-25.463"/>
</g>
<!-- Node12 -->
<g id="node12" class="node"><title>Node12</title>
<polygon fill="white" stroke="#bfbfbf" points="257.5,-0.5 257.5,-30.5 397.5,-30.5 397.5,-0.5 257.5,-0.5"/>
<text text-anchor="start" x="265.5" y="-18.5" font-family="Helvetica,sans-Serif" font-size="10.00">boost/multi_index/hashed</text>
<text text-anchor="middle" x="327.5" y="-7.5" font-family="Helvetica,sans-Serif" font-size="10.00">_index.hpp</text>
</g>
<!-- Node10&#45;&gt;Node12 -->
<g id="edge16" class="edge"><title>Node10&#45;&gt;Node12</title>
<path fill="none" stroke="midnightblue" d="M442.301,-67.4751C423.135,-58.9648 393.08,-45.6193 368.529,-34.718"/>
<polygon fill="midnightblue" stroke="midnightblue" points="369.641,-31.3824 359.081,-30.523 366.8,-37.7801 369.641,-31.3824"/>
</g>
<!-- Node13 -->
<g id="node13" class="node"><title>Node13</title>
<polygon fill="white" stroke="#bfbfbf" points="415.5,-0.5 415.5,-30.5 545.5,-30.5 545.5,-0.5 415.5,-0.5"/>
<text text-anchor="start" x="423.5" y="-18.5" font-family="Helvetica,sans-Serif" font-size="10.00">boost/multi_index/mem</text>
<text text-anchor="middle" x="480.5" y="-7.5" font-family="Helvetica,sans-Serif" font-size="10.00">_fun.hpp</text>
</g>
<!-- Node10&#45;&gt;Node13 -->
<g id="edge17" class="edge"><title>Node10&#45;&gt;Node13</title>
<path fill="none" stroke="midnightblue" d="M464.222,-67.4751C466.507,-60.3204 469.883,-49.7483 472.969,-40.0841"/>
<polygon fill="midnightblue" stroke="midnightblue" points="476.314,-41.1138 476.022,-30.523 469.646,-38.9844 476.314,-41.1138"/>
</g>
<!-- Node14 -->
<g id="node14" class="node"><title>Node14</title>
<polygon fill="white" stroke="#bfbfbf" points="67.5,-6 67.5,-25 239.5,-25 239.5,-6 67.5,-6"/>
<text text-anchor="middle" x="153.5" y="-13" font-family="Helvetica,sans-Serif" font-size="10.00">boost/multi_index_container.hpp</text>
</g>
<!-- Node10&#45;&gt;Node14 -->
<g id="edge18" class="edge"><title>Node10&#45;&gt;Node14</title>
<path fill="none" stroke="midnightblue" d="M428.83,-69.6888C376.072,-59.497 271.577,-39.3104 207.584,-26.9481"/>
<polygon fill="midnightblue" stroke="midnightblue" points="208.158,-23.4943 197.676,-25.0339 206.83,-30.3672 208.158,-23.4943"/>
</g>
<!-- Node15 -->
<g id="node15" class="node"><title>Node15</title>
<polygon fill="white" stroke="#bfbfbf" points="625.5,-6 625.5,-25 753.5,-25 753.5,-6 625.5,-6"/>
<text text-anchor="middle" x="689.5" y="-13" font-family="Helvetica,sans-Serif" font-size="10.00">boost/noncopyable.hpp</text>
</g>
<!-- Node10&#45;&gt;Node15 -->
<g id="edge19" class="edge"><title>Node10&#45;&gt;Node15</title>
<path fill="none" stroke="midnightblue" d="M494.167,-67.4751C534.377,-56.9815 602.758,-39.1367 647.015,-27.587"/>
<polygon fill="midnightblue" stroke="midnightblue" points="648.102,-30.9208 656.894,-25.0091 646.334,-24.1477 648.102,-30.9208"/>
</g>
<!-- Node16&#45;&gt;Node2 -->
<g id="edge23" class="edge"><title>Node16&#45;&gt;Node2</title>
<path fill="none" stroke="midnightblue" d="M634.729,-128.331C566.519,-118.982 385.975,-94.2377 306.262,-83.3126"/>
<polygon fill="midnightblue" stroke="midnightblue" points="306.537,-79.8176 296.154,-81.9273 305.587,-86.7528 306.537,-79.8176"/>
</g>
<!-- Node16&#45;&gt;Node3 -->
<g id="edge25" class="edge"><title>Node16&#45;&gt;Node3</title>
<path fill="none" stroke="midnightblue" d="M634.987,-125.252C615.867,-118.846 591.411,-107.123 579.5,-87 570.135,-71.1784 573.772,-49.7587 578.408,-34.695"/>
<polygon fill="midnightblue" stroke="midnightblue" points="581.794,-35.6154 581.789,-25.0206 575.186,-33.3059 581.794,-35.6154"/>
</g>
<!-- Node16&#45;&gt;Node5 -->
<g id="edge28" class="edge"><title>Node16&#45;&gt;Node5</title>
<path fill="none" stroke="midnightblue" d="M688.079,-129.359C734.04,-124.312 830.983,-111.552 909.5,-87 930.002,-80.5891 933.931,-75.8592 953.5,-67 981.936,-54.1264 1014.46,-39.4684 1037.11,-29.2732"/>
<polygon fill="midnightblue" stroke="midnightblue" points="1038.79,-32.3565 1046.47,-25.0604 1035.91,-25.9733 1038.79,-32.3565"/>
</g>
<!-- Node16&#45;&gt;Node7 -->
<g id="edge24" class="edge"><title>Node16&#45;&gt;Node7</title>
<path fill="none" stroke="midnightblue" d="M688.094,-128.334C738.863,-121.224 853.039,-104.698 948.5,-87 949.966,-86.7281 951.46,-86.4438 952.968,-86.1506"/>
<polygon fill="midnightblue" stroke="midnightblue" points="953.874,-89.5384 962.981,-84.1257 952.486,-82.6773 953.874,-89.5384"/>
</g>
<!-- Node16&#45;&gt;Node9 -->
<g id="edge26" class="edge"><title>Node16&#45;&gt;Node9</title>
<path fill="none" stroke="midnightblue" d="M688.034,-129.078C729.361,-123.95 811.143,-111.468 876.5,-87 897.243,-79.2345 949.39,-48.5952 979.699,-30.3624"/>
<polygon fill="midnightblue" stroke="midnightblue" points="981.595,-33.3067 988.346,-25.1414 977.976,-27.3144 981.595,-33.3067"/>
</g>
<!-- Node16&#45;&gt;Node10 -->
<g id="edge29" class="edge"><title>Node16&#45;&gt;Node10</title>
<path fill="none" stroke="midnightblue" d="M634.942,-124.829C601.218,-115.724 542.66,-99.9133 503.014,-89.2087"/>
<polygon fill="midnightblue" stroke="midnightblue" points="503.686,-85.7649 493.119,-86.5371 501.861,-92.5229 503.686,-85.7649"/>
</g>
<!-- Node16&#45;&gt;Node11 -->
<g id="edge21" class="edge"><title>Node16&#45;&gt;Node11</title>
<path fill="none" stroke="midnightblue" d="M634.925,-127.458C590.295,-119.742 497.511,-103.316 419.5,-87 381.089,-78.9665 372.113,-73.9998 333.5,-67 212.212,-45.0128 177.409,-63.4796 58.5,-31 56.2018,-30.3723 53.8552,-29.6216 51.5224,-28.797"/>
<polygon fill="midnightblue" stroke="midnightblue" points="52.7582,-25.5221 42.1712,-25.1154 50.1938,-32.0355 52.7582,-25.5221"/>
</g>
<!-- Node17 -->
<g id="node17" class="node"><title>Node17</title>
<polygon fill="white" stroke="#bfbfbf" points="657,-67.5 657,-86.5 734,-86.5 734,-67.5 657,-67.5"/>
<text text-anchor="middle" x="695.5" y="-74.5" font-family="Helvetica,sans-Serif" font-size="10.00">initializer_list</text>
</g>
<!-- Node16&#45;&gt;Node17 -->
<g id="edge22" class="edge"><title>Node16&#45;&gt;Node17</title>
<path fill="none" stroke="midnightblue" d="M667.114,-123.083C671.867,-115.534 678.818,-104.495 684.652,-95.2298"/>
<polygon fill="midnightblue" stroke="midnightblue" points="687.624,-97.0783 689.99,-86.7511 681.7,-93.3486 687.624,-97.0783"/>
</g>
<!-- Node18 -->
<g id="node18" class="node"><title>Node18</title>
<polygon fill="white" stroke="#bfbfbf" points="588.5,-67.5 588.5,-86.5 638.5,-86.5 638.5,-67.5 588.5,-67.5"/>
<text text-anchor="middle" x="613.5" y="-74.5" font-family="Helvetica,sans-Serif" font-size="10.00">variant</text>
</g>
<!-- Node16&#45;&gt;Node18 -->
<g id="edge27" class="edge"><title>Node16&#45;&gt;Node18</title>
<path fill="none" stroke="midnightblue" d="M653.574,-123.083C646.654,-115.298 636.435,-103.801 628.048,-94.3665"/>
<polygon fill="midnightblue" stroke="midnightblue" points="630.538,-91.8999 621.279,-86.7511 625.306,-96.5505 630.538,-91.8999"/>
</g>
<!-- Node16&#45;&gt;Node19 -->
<g id="edge30" class="edge"><title>Node16&#45;&gt;Node19</title>
<path fill="none" stroke="midnightblue" d="M688.12,-123.444C716.506,-114.32 761.637,-99.8133 793.253,-89.6509"/>
<polygon fill="midnightblue" stroke="midnightblue" points="794.555,-92.9087 803.004,-86.5164 792.413,-86.2445 794.555,-92.9087"/>
</g>
<!-- Node19&#45;&gt;Node3 -->
<g id="edge32" class="edge"><title>Node19&#45;&gt;Node3</title>
<path fill="none" stroke="midnightblue" d="M790.672,-68.9032C738.408,-59.1605 648.31,-41.6426 616.5,-31 614.834,-30.4427 613.14,-29.8208 611.446,-29.1565"/>
<polygon fill="midnightblue" stroke="midnightblue" points="612.512,-25.8045 601.944,-25.0455 609.732,-32.2289 612.512,-25.8045"/>
</g>
<!-- Node19&#45;&gt;Node5 -->
<g id="edge34" class="edge"><title>Node19&#45;&gt;Node5</title>
<path fill="none" stroke="midnightblue" d="M868.265,-69.7398C909.568,-62.5322 976.574,-49.2898 1032.5,-31 1034.37,-30.3873 1036.29,-29.7058 1038.2,-28.9818"/>
<polygon fill="midnightblue" stroke="midnightblue" points="1039.67,-32.1614 1047.59,-25.1283 1037.01,-25.685 1039.67,-32.1614"/>
</g>
<!-- Node19&#45;&gt;Node9 -->
<g id="edge33" class="edge"><title>Node19&#45;&gt;Node9</title>
<path fill="none" stroke="midnightblue" d="M861.201,-67.4581C890.487,-59.2313 935,-45.8716 972.5,-31 973.878,-30.4535 975.281,-29.8712 976.689,-29.2656"/>
<polygon fill="midnightblue" stroke="midnightblue" points="978.234,-32.4078 985.873,-25.0664 975.323,-26.0417 978.234,-32.4078"/>
</g>
<!-- Node19&#45;&gt;Node15 -->
<g id="edge36" class="edge"><title>Node19&#45;&gt;Node15</title>
<path fill="none" stroke="midnightblue" d="M809.441,-67.4751C785.738,-57.4013 746.094,-40.5525 718.917,-29.0023"/>
<polygon fill="midnightblue" stroke="midnightblue" points="720.094,-25.6994 709.521,-25.0091 717.356,-32.1417 720.094,-25.6994"/>
</g>
<!-- Node20 -->
<g id="node20" class="node"><title>Node20</title>
<polygon fill="white" stroke="#bfbfbf" points="771.5,-6 771.5,-25 833.5,-25 833.5,-6 771.5,-6"/>
<text text-anchor="middle" x="802.5" y="-13" font-family="Helvetica,sans-Serif" font-size="10.00">algorithm</text>
</g>
<!-- Node19&#45;&gt;Node20 -->
<g id="edge31" class="edge"><title>Node19&#45;&gt;Node20</title>
<path fill="none" stroke="midnightblue" d="M825.632,-67.4751C821.702,-58.8152 815.5,-45.1486 810.507,-34.1453"/>
<polygon fill="midnightblue" stroke="midnightblue" points="813.681,-32.6691 806.361,-25.0091 807.306,-35.5617 813.681,-32.6691"/>
</g>
<!-- Node21 -->
<g id="node21" class="node"><title>Node21</title>
<polygon fill="white" stroke="#bfbfbf" points="851.5,-0.5 851.5,-30.5 963.5,-30.5 963.5,-0.5 851.5,-0.5"/>
<text text-anchor="start" x="859.5" y="-18.5" font-family="Helvetica,sans-Serif" font-size="10.00">boost/icl/continuous</text>
<text text-anchor="middle" x="907.5" y="-7.5" font-family="Helvetica,sans-Serif" font-size="10.00">_interval.hpp</text>
</g>
<!-- Node19&#45;&gt;Node21 -->
<g id="edge35" class="edge"><title>Node19&#45;&gt;Node21</title>
<path fill="none" stroke="midnightblue" d="M840.675,-67.4751C851.141,-59.492 867.184,-47.2542 880.927,-36.7703"/>
<polygon fill="midnightblue" stroke="midnightblue" points="883.289,-39.3708 889.117,-30.523 879.043,-33.8053 883.289,-39.3708"/>
</g>
<!-- Node22&#45;&gt;Node2 -->
<g id="edge42" class="edge"><title>Node22&#45;&gt;Node2</title>
<path fill="none" stroke="midnightblue" d="M361.505,-123.324C343.462,-114.625 315.453,-101.12 294.697,-91.113"/>
<polygon fill="midnightblue" stroke="midnightblue" points="295.978,-87.8449 285.45,-86.6545 292.938,-94.1502 295.978,-87.8449"/>
</g>
<!-- Node22&#45;&gt;Node3 -->
<g id="edge43" class="edge"><title>Node22&#45;&gt;Node3</title>
<path fill="none" stroke="midnightblue" d="M382.402,-123.379C387.573,-109.361 399.73,-81.7157 419.5,-67 469.312,-29.9225 496.148,-52.2378 554.5,-31 556.112,-30.4132 557.755,-29.7744 559.401,-29.1026"/>
<polygon fill="midnightblue" stroke="midnightblue" points="560.926,-32.2557 568.674,-25.0294 558.111,-25.8467 560.926,-32.2557"/>
</g>
<!-- Node22&#45;&gt;Node10 -->
<g id="edge44" class="edge"><title>Node22&#45;&gt;Node10</title>
<path fill="none" stroke="midnightblue" d="M392.675,-123.324C405.347,-114.979 424.733,-102.212 439.706,-92.3524"/>
<polygon fill="midnightblue" stroke="midnightblue" points="441.931,-95.0776 448.358,-86.6545 438.081,-89.2313 441.931,-95.0776"/>
</g>
<!-- Node22&#45;&gt;Node11 -->
<g id="edge41" class="edge"><title>Node22&#45;&gt;Node11</title>
<path fill="none" stroke="midnightblue" d="M372.279,-123.073C360.025,-108.615 333.635,-80.3514 304.5,-67 204.047,-20.9668 164.87,-60.9216 58.5,-31 56.2066,-30.3549 53.8634,-29.5919 51.533,-28.7589"/>
<polygon fill="midnightblue" stroke="midnightblue" points="52.7723,-25.4853 42.1859,-25.0621 50.1978,-31.9947 52.7723,-25.4853"/>
</g>
<!-- Node22&#45;&gt;Node19 -->
<g id="edge45" class="edge"><title>Node22&#45;&gt;Node19</title>
<path fill="none" stroke="midnightblue" d="M417.867,-127.396C499.627,-117.585 690.89,-94.6332 780.96,-83.8247"/>
<polygon fill="midnightblue" stroke="midnightblue" points="781.4,-87.2972 790.911,-82.6306 780.566,-80.3471 781.4,-87.2972"/>
</g>
</g>
</svg>
