<?xml version="1.0" encoding="UTF-8" standalone="no"?>
<!DOCTYPE svg PUBLIC "-//W3C//DTD SVG 1.1//EN"
 "http://www.w3.org/Graphics/SVG/1.1/DTD/svg11.dtd">
<!-- Generated by graphviz version 2.38.0 (20140413.2041)
 -->
<!-- Title: fault_tree.cc Pages: 1 -->
<!--zoomable 319 -->
<svg id="main" version="1.1" xmlns="http://www.w3.org/2000/svg" xmlns:xlink="http://www.w3.org/1999/xlink" xml:space="preserve" onload="init(evt)">
<style type="text/css"><![CDATA[
.edge:hover path { stroke: red; }
.edge:hover polygon { stroke: red; fill: red; }
]]></style>
<script type="text/javascript"><![CDATA[
var edges = document.getElementsByTagName('g');
if (edges && edges.length) {
  for (var i=0;i<edges.length;i++) {
    if (edges[i].id.substr(0,4)=='edge') {
      edges[i].setAttribute('class','edge');
    }
  }
}
]]></script>
        <defs>
                <circle id="rim" cx="0" cy="0" r="7"/>
                <circle id="rim2" cx="0" cy="0" r="3.5"/>
                <g id="zoomPlus">
                        <use xlink:href="#rim" fill="#404040">
                                <set attributeName="fill" to="#808080" begin="zoomplus.mouseover" end="zoomplus.mouseout"/>
                        </use>
                        <path d="M-4,0h8M0,-4v8" fill="none" stroke="white" stroke-width="1.5" pointer-events="none"/>
                </g>
                <g id="zoomMin">
                        <use xlink:href="#rim" fill="#404040">
                                <set attributeName="fill" to="#808080" begin="zoomminus.mouseover" end="zoomminus.mouseout"/>
                        </use>
                        <path d="M-4,0h8" fill="none" stroke="white" stroke-width="1.5" pointer-events="none"/>
                </g>
                <g id="dirArrow">
                        <path fill="none" stroke="white" stroke-width="1.5" d="M0,-3.0v7 M-2.5,-0.5L0,-3.0L2.5,-0.5"/>
                </g>
               <g id="resetDef">
                       <use xlink:href="#rim2" fill="#404040">
                               <set attributeName="fill" to="#808080" begin="reset.mouseover" end="reset.mouseout"/>
                       </use>
               </g>
        </defs>

<script type="text/javascript">
var viewWidth = 1945;
var viewHeight = 319;
var sectionId = 'dynsection-0';
</script>
<script xlink:href="svgpan.js"/>
<svg id="graph" class="graph">
<g id="viewport">
<title>fault_tree.cc</title>
<polygon fill="white" stroke="none" points="-4,4 -4,-315 1940.5,-315 1940.5,4 -4,4"/>
<!-- Node1 -->
<g id="node1" class="node"><title>Node1</title>
<polygon fill="#bfbfbf" stroke="black" points="1169.5,-291.5 1169.5,-310.5 1245.5,-310.5 1245.5,-291.5 1169.5,-291.5"/>
<text text-anchor="middle" x="1207.5" y="-298.5" font-family="Helvetica,sans-Serif" font-size="10.00">fault_tree.cc</text>
</g>
<!-- Node2 -->
<g id="node2" class="node"><title>Node2</title>
<g id="a_node2"><a xlink:href="fault__tree_8h.xhtml" target="_top" xlink:title="Fault Tree and Component containers. ">
<polygon fill="white" stroke="black" points="920,-235.5 920,-254.5 991,-254.5 991,-235.5 920,-235.5"/>
<text text-anchor="middle" x="955.5" y="-242.5" font-family="Helvetica,sans-Serif" font-size="10.00">fault_tree.h</text>
</a>
</g>
</g>
<!-- Node1&#45;&gt;Node2 -->
<g id="edge1" class="edge"><title>Node1&#45;&gt;Node2</title>
<path fill="none" stroke="midnightblue" d="M1169.23,-291.799C1124.11,-282.13 1049.19,-266.077 1001.11,-255.773"/>
<polygon fill="midnightblue" stroke="midnightblue" points="1001.78,-252.339 991.273,-253.666 1000.32,-259.183 1001.78,-252.339"/>
</g>
<!-- Node24 -->
<g id="node24" class="node"><title>Node24</title>
<g id="a_node24"><a xlink:href="error_8h.xhtml" target="_top" xlink:title="Exceptions for SCRAM. ">
<polygon fill="white" stroke="black" points="1435.5,-235.5 1435.5,-254.5 1483.5,-254.5 1483.5,-235.5 1435.5,-235.5"/>
<text text-anchor="middle" x="1459.5" y="-242.5" font-family="Helvetica,sans-Serif" font-size="10.00">error.h</text>
</a>
</g>
</g>
<!-- Node1&#45;&gt;Node24 -->
<g id="edge47" class="edge"><title>Node1&#45;&gt;Node24</title>
<path fill="none" stroke="midnightblue" d="M1245.77,-291.799C1294.67,-281.32 1378.56,-263.343 1425.38,-253.312"/>
<polygon fill="midnightblue" stroke="midnightblue" points="1426.29,-256.696 1435.33,-251.179 1424.82,-249.852 1426.29,-256.696"/>
</g>
<!-- Node3 -->
<g id="node3" class="node"><title>Node3</title>
<polygon fill="white" stroke="#bfbfbf" points="1069,-67.5 1069,-86.5 1126,-86.5 1126,-67.5 1069,-67.5"/>
<text text-anchor="middle" x="1097.5" y="-74.5" font-family="Helvetica,sans-Serif" font-size="10.00">memory</text>
</g>
<!-- Node2&#45;&gt;Node3 -->
<g id="edge2" class="edge"><title>Node2&#45;&gt;Node3</title>
<path fill="none" stroke="midnightblue" d="M963.135,-235.075C985.97,-208.38 1053.99,-128.865 1083.54,-94.3218"/>
<polygon fill="midnightblue" stroke="midnightblue" points="1086.33,-96.4423 1090.17,-86.5681 1081.01,-91.892 1086.33,-96.4423"/>
</g>
<!-- Node4 -->
<g id="node4" class="node"><title>Node4</title>
<polygon fill="white" stroke="#bfbfbf" points="1045.5,-6 1045.5,-25 1089.5,-25 1089.5,-6 1045.5,-6"/>
<text text-anchor="middle" x="1067.5" y="-13" font-family="Helvetica,sans-Serif" font-size="10.00">string</text>
</g>
<!-- Node2&#45;&gt;Node4 -->
<g id="edge3" class="edge"><title>Node2&#45;&gt;Node4</title>
<path fill="none" stroke="midnightblue" d="M991.294,-241.931C1047.13,-237.873 1150.92,-226.714 1173.5,-199 1195.37,-172.159 1243.05,-198.475 1150.5,-67 1137.97,-49.1946 1116.97,-36.505 1099.23,-28.2995"/>
<polygon fill="midnightblue" stroke="midnightblue" points="1100.35,-24.9707 1089.78,-24.1982 1097.56,-31.3916 1100.35,-24.9707"/>
</g>
<!-- Node5 -->
<g id="node5" class="node"><title>Node5</title>
<polygon fill="white" stroke="#bfbfbf" points="1078.5,-179.5 1078.5,-198.5 1164.5,-198.5 1164.5,-179.5 1078.5,-179.5"/>
<text text-anchor="middle" x="1121.5" y="-186.5" font-family="Helvetica,sans-Serif" font-size="10.00">unordered_set</text>
</g>
<!-- Node2&#45;&gt;Node5 -->
<g id="edge4" class="edge"><title>Node2&#45;&gt;Node5</title>
<path fill="none" stroke="midnightblue" d="M981.803,-235.444C1009.85,-226.32 1054.44,-211.813 1085.68,-201.651"/>
<polygon fill="midnightblue" stroke="midnightblue" points="1086.89,-204.938 1095.32,-198.516 1084.73,-198.282 1086.89,-204.938"/>
</g>
<!-- Node6 -->
<g id="node6" class="node"><title>Node6</title>
<polygon fill="white" stroke="#bfbfbf" points="0,-6 0,-25 47,-25 47,-6 0,-6"/>
<text text-anchor="middle" x="23.5" y="-13" font-family="Helvetica,sans-Serif" font-size="10.00">vector</text>
</g>
<!-- Node2&#45;&gt;Node6 -->
<g id="edge5" class="edge"><title>Node2&#45;&gt;Node6</title>
<path fill="none" stroke="midnightblue" d="M919.84,-243.409C841.459,-241.489 648.644,-233.354 491.5,-199 343.065,-166.55 308.848,-145.211 168.5,-87 125.525,-69.1758 77.2307,-44.7781 48.64,-29.8564"/>
<polygon fill="midnightblue" stroke="midnightblue" points="50.2166,-26.7311 39.7355,-25.1825 46.9632,-32.9292 50.2166,-26.7311"/>
</g>
<!-- Node7 -->
<g id="node7" class="node"><title>Node7</title>
<g id="a_node7"><a xlink:href="ccf__group_8h.xhtml" target="_top" xlink:title="Functional containers for basic events grouped by common cause failure. ">
<polygon fill="white" stroke="black" points="579.5,-179.5 579.5,-198.5 651.5,-198.5 651.5,-179.5 579.5,-179.5"/>
<text text-anchor="middle" x="615.5" y="-186.5" font-family="Helvetica,sans-Serif" font-size="10.00">ccf_group.h</text>
</a>
</g>
</g>
<!-- Node2&#45;&gt;Node7 -->
<g id="edge6" class="edge"><title>Node2&#45;&gt;Node7</title>
<path fill="none" stroke="midnightblue" d="M919.757,-238.323C857.726,-228.471 730.221,-208.22 661.614,-197.324"/>
<polygon fill="midnightblue" stroke="midnightblue" points="661.956,-193.835 651.531,-195.723 660.858,-200.748 661.956,-193.835"/>
</g>
<!-- Node11 -->
<g id="node11" class="node"><title>Node11</title>
<g id="a_node11"><a xlink:href="element_8h.xhtml" target="_top" xlink:title="Helper classes, structs, and properties common to all other classes. ">
<polygon fill="white" stroke="black" points="497,-67.5 497,-86.5 562,-86.5 562,-67.5 497,-67.5"/>
<text text-anchor="middle" x="529.5" y="-74.5" font-family="Helvetica,sans-Serif" font-size="10.00">element.h</text>
</a>
</g>
</g>
<!-- Node2&#45;&gt;Node11 -->
<g id="edge39" class="edge"><title>Node2&#45;&gt;Node11</title>
<path fill="none" stroke="midnightblue" d="M919.831,-243.166C812.87,-239.779 499.017,-223.06 447.5,-143 432.683,-119.974 463.741,-101.529 491.789,-90.2534"/>
<polygon fill="midnightblue" stroke="midnightblue" points="493.396,-93.3873 501.504,-86.5683 490.913,-86.8424 493.396,-93.3873"/>
</g>
<!-- Node17 -->
<g id="node17" class="node"><title>Node17</title>
<g id="a_node17"><a xlink:href="event_8h.xhtml" target="_top" xlink:title="Contains event classes for fault trees. ">
<polygon fill="white" stroke="black" points="699,-123.5 699,-142.5 752,-142.5 752,-123.5 699,-123.5"/>
<text text-anchor="middle" x="725.5" y="-130.5" font-family="Helvetica,sans-Serif" font-size="10.00">event.h</text>
</a>
</g>
</g>
<!-- Node2&#45;&gt;Node17 -->
<g id="edge40" class="edge"><title>Node2&#45;&gt;Node17</title>
<path fill="none" stroke="midnightblue" d="M937.452,-235.368C897.228,-216.131 800.036,-169.648 752.538,-146.931"/>
<polygon fill="midnightblue" stroke="midnightblue" points="753.995,-143.749 743.464,-142.591 750.975,-150.064 753.995,-143.749"/>
</g>
<!-- Node23 -->
<g id="node23" class="node"><title>Node23</title>
<g id="a_node23"><a xlink:href="parameter_8h.xhtml" target="_top" xlink:title="Parameter expressions that act like a shareable variable. ">
<polygon fill="white" stroke="black" points="917.5,-123.5 917.5,-142.5 993.5,-142.5 993.5,-123.5 917.5,-123.5"/>
<text text-anchor="middle" x="955.5" y="-130.5" font-family="Helvetica,sans-Serif" font-size="10.00">parameter.h</text>
</a>
</g>
</g>
<!-- Node2&#45;&gt;Node23 -->
<g id="edge41" class="edge"><title>Node2&#45;&gt;Node23</title>
<path fill="none" stroke="midnightblue" d="M955.5,-235.368C955.5,-217.617 955.5,-176.666 955.5,-152.597"/>
<polygon fill="midnightblue" stroke="midnightblue" points="959,-152.591 955.5,-142.591 952,-152.591 959,-152.591"/>
</g>
<!-- Node7&#45;&gt;Node3 -->
<g id="edge7" class="edge"><title>Node7&#45;&gt;Node3</title>
<path fill="none" stroke="midnightblue" d="M651.662,-186.014C735.056,-181.079 938.592,-166.903 1002.5,-143 1032.74,-131.69 1062.65,-108.766 1080.6,-93.3928"/>
<polygon fill="midnightblue" stroke="midnightblue" points="1083.2,-95.767 1088.4,-86.5363 1078.58,-90.5093 1083.2,-95.767"/>
</g>
<!-- Node7&#45;&gt;Node4 -->
<g id="edge9" class="edge"><title>Node7&#45;&gt;Node4</title>
<path fill="none" stroke="midnightblue" d="M651.632,-186.015C739.864,-180.867 964.282,-165.873 1035.5,-143 1083.63,-127.542 1109.03,-130.667 1134.5,-87 1147.79,-64.2088 1119.9,-42.9743 1096.14,-29.8875"/>
<polygon fill="midnightblue" stroke="midnightblue" points="1097.49,-26.6439 1087.01,-25.122 1094.25,-32.8502 1097.49,-26.6439"/>
</g>
<!-- Node7&#45;&gt;Node6 -->
<g id="edge12" class="edge"><title>Node7&#45;&gt;Node6</title>
<path fill="none" stroke="midnightblue" d="M579.301,-179.994C541.328,-171.441 479.984,-157.191 427.5,-143 385.933,-131.761 96.8958,-45.9103 56.5,-31 54.8452,-30.3892 53.1547,-29.7371 51.4565,-29.0602"/>
<polygon fill="midnightblue" stroke="midnightblue" points="52.4153,-25.6671 41.8398,-25.0274 49.7082,-32.1224 52.4153,-25.6671"/>
</g>
<!-- Node8 -->
<g id="node8" class="node"><title>Node8</title>
<polygon fill="white" stroke="#bfbfbf" points="385,-67.5 385,-86.5 440,-86.5 440,-67.5 385,-67.5"/>
<text text-anchor="middle" x="412.5" y="-74.5" font-family="Helvetica,sans-Serif" font-size="10.00">optional</text>
</g>
<!-- Node7&#45;&gt;Node8 -->
<g id="edge8" class="edge"><title>Node7&#45;&gt;Node8</title>
<path fill="none" stroke="midnightblue" d="M579.358,-186.499C542.596,-183.246 485.744,-173.255 447.5,-143 432.455,-131.098 423.039,-110.895 417.812,-96.1655"/>
<polygon fill="midnightblue" stroke="midnightblue" points="421.129,-95.0459 414.726,-86.6045 414.467,-97.1961 421.129,-95.0459"/>
</g>
<!-- Node9 -->
<g id="node9" class="node"><title>Node9</title>
<polygon fill="white" stroke="#bfbfbf" points="456.5,-123.5 456.5,-142.5 524.5,-142.5 524.5,-123.5 456.5,-123.5"/>
<text text-anchor="middle" x="490.5" y="-130.5" font-family="Helvetica,sans-Serif" font-size="10.00">type_traits</text>
</g>
<!-- Node7&#45;&gt;Node9 -->
<g id="edge10" class="edge"><title>Node7&#45;&gt;Node9</title>
<path fill="none" stroke="midnightblue" d="M595.693,-179.444C575.213,-170.596 543.017,-156.687 519.635,-146.586"/>
<polygon fill="midnightblue" stroke="midnightblue" points="520.782,-143.269 510.214,-142.516 518.006,-149.695 520.782,-143.269"/>
</g>
<!-- Node10 -->
<g id="node10" class="node"><title>Node10</title>
<polygon fill="white" stroke="#bfbfbf" points="707.5,-6 707.5,-25 749.5,-25 749.5,-6 707.5,-6"/>
<text text-anchor="middle" x="728.5" y="-13" font-family="Helvetica,sans-Serif" font-size="10.00">utility</text>
</g>
<!-- Node7&#45;&gt;Node10 -->
<g id="edge11" class="edge"><title>Node7&#45;&gt;Node10</title>
<path fill="none" stroke="midnightblue" d="M614.998,-179.438C614.198,-158.234 614.833,-102.442 640.5,-67 644.65,-61.2694 678.255,-42.8396 702.707,-29.9085"/>
<polygon fill="midnightblue" stroke="midnightblue" points="704.647,-32.843 711.87,-25.0923 701.39,-26.6467 704.647,-32.843"/>
</g>
<!-- Node7&#45;&gt;Node11 -->
<g id="edge13" class="edge"><title>Node7&#45;&gt;Node11</title>
<path fill="none" stroke="midnightblue" d="M607.494,-179.231C599.439,-170.302 586.773,-155.965 576.5,-143 563.973,-127.191 550.576,-108.463 541.303,-95.1802"/>
<polygon fill="midnightblue" stroke="midnightblue" points="543.924,-92.8168 535.351,-86.5902 538.17,-96.8034 543.924,-92.8168"/>
</g>
<!-- Node7&#45;&gt;Node17 -->
<g id="edge21" class="edge"><title>Node7&#45;&gt;Node17</title>
<path fill="none" stroke="midnightblue" d="M633.173,-179.324C650.894,-170.625 678.403,-157.12 698.788,-147.113"/>
<polygon fill="midnightblue" stroke="midnightblue" points="700.436,-150.203 707.87,-142.655 697.351,-143.919 700.436,-150.203"/>
</g>
<!-- Node20 -->
<g id="node20" class="node"><title>Node20</title>
<g id="a_node20"><a xlink:href="expression_8h.xhtml" target="_top" xlink:title="Provides the base class for all expressions and units for expression values. ">
<polygon fill="white" stroke="black" points="657,-67.5 657,-86.5 734,-86.5 734,-67.5 657,-67.5"/>
<text text-anchor="middle" x="695.5" y="-74.5" font-family="Helvetica,sans-Serif" font-size="10.00">expression.h</text>
</a>
</g>
</g>
<!-- Node7&#45;&gt;Node20 -->
<g id="edge38" class="edge"><title>Node7&#45;&gt;Node20</title>
<path fill="none" stroke="midnightblue" d="M621.777,-179.368C634.98,-161.215 665.826,-118.802 683.144,-94.9902"/>
<polygon fill="midnightblue" stroke="midnightblue" points="686.201,-96.7374 689.252,-86.5914 680.539,-92.6202 686.201,-96.7374"/>
</g>
<!-- Node11&#45;&gt;Node4 -->
<g id="edge15" class="edge"><title>Node11&#45;&gt;Node4</title>
<path fill="none" stroke="midnightblue" d="M562.137,-73.401C670.462,-64.7348 1012.55,-37.0333 1035.5,-31 1037.66,-30.433 1039.85,-29.7322 1042.03,-28.9474"/>
<polygon fill="midnightblue" stroke="midnightblue" points="1043.38,-32.1767 1051.28,-25.1231 1040.7,-25.7072 1043.38,-32.1767"/>
</g>
<!-- Node11&#45;&gt;Node6 -->
<g id="edge16" class="edge"><title>Node11&#45;&gt;Node6</title>
<path fill="none" stroke="midnightblue" d="M496.957,-69.3102C492.124,-68.4499 487.191,-67.6456 482.5,-67 294.266,-41.0967 240.641,-77.8528 56.5,-31 54.1973,-30.4141 51.8518,-29.6831 49.5268,-28.8628"/>
<polygon fill="midnightblue" stroke="midnightblue" points="50.8307,-25.6148 40.2468,-25.1319 48.2195,-32.1095 50.8307,-25.6148"/>
</g>
<!-- Node12 -->
<g id="node12" class="node"><title>Node12</title>
<polygon fill="white" stroke="#bfbfbf" points="978,-6 978,-25 1027,-25 1027,-6 978,-6"/>
<text text-anchor="middle" x="1002.5" y="-13" font-family="Helvetica,sans-Serif" font-size="10.00">cstdint</text>
</g>
<!-- Node11&#45;&gt;Node12 -->
<g id="edge14" class="edge"><title>Node11&#45;&gt;Node12</title>
<path fill="none" stroke="midnightblue" d="M562.135,-73.2249C657.16,-65.0646 929.415,-41.0897 968.5,-31 970.859,-30.391 973.266,-29.6437 975.656,-28.8124"/>
<polygon fill="midnightblue" stroke="midnightblue" points="977.177,-31.9753 985.206,-25.0627 974.619,-25.4596 977.177,-31.9753"/>
</g>
<!-- Node13 -->
<g id="node13" class="node"><title>Node13</title>
<polygon fill="white" stroke="#bfbfbf" points="403.5,-0.5 403.5,-30.5 543.5,-30.5 543.5,-0.5 403.5,-0.5"/>
<text text-anchor="start" x="411.5" y="-18.5" font-family="Helvetica,sans-Serif" font-size="10.00">boost/multi_index/hashed</text>
<text text-anchor="middle" x="473.5" y="-7.5" font-family="Helvetica,sans-Serif" font-size="10.00">_index.hpp</text>
</g>
<!-- Node11&#45;&gt;Node13 -->
<g id="edge17" class="edge"><title>Node11&#45;&gt;Node13</title>
<path fill="none" stroke="midnightblue" d="M521.477,-67.4751C514.247,-59.7932 503.309,-48.1717 493.702,-37.9643"/>
<polygon fill="midnightblue" stroke="midnightblue" points="496.1,-35.4062 486.698,-30.523 491.003,-40.2038 496.1,-35.4062"/>
</g>
<!-- Node14 -->
<g id="node14" class="node"><title>Node14</title>
<polygon fill="white" stroke="#bfbfbf" points="65.5,-0.5 65.5,-30.5 195.5,-30.5 195.5,-0.5 65.5,-0.5"/>
<text text-anchor="start" x="73.5" y="-18.5" font-family="Helvetica,sans-Serif" font-size="10.00">boost/multi_index/mem</text>
<text text-anchor="middle" x="130.5" y="-7.5" font-family="Helvetica,sans-Serif" font-size="10.00">_fun.hpp</text>
</g>
<!-- Node11&#45;&gt;Node14 -->
<g id="edge18" class="edge"><title>Node11&#45;&gt;Node14</title>
<path fill="none" stroke="midnightblue" d="M496.929,-69.499C492.1,-68.6118 487.176,-67.7497 482.5,-67 362.728,-47.7954 329.225,-50.8093 206.038,-31.184"/>
<polygon fill="midnightblue" stroke="midnightblue" points="206.258,-27.6745 195.829,-29.5389 205.145,-34.5853 206.258,-27.6745"/>
</g>
<!-- Node15 -->
<g id="node15" class="node"><title>Node15</title>
<polygon fill="white" stroke="#bfbfbf" points="213.5,-6 213.5,-25 385.5,-25 385.5,-6 213.5,-6"/>
<text text-anchor="middle" x="299.5" y="-13" font-family="Helvetica,sans-Serif" font-size="10.00">boost/multi_index_container.hpp</text>
</g>
<!-- Node11&#45;&gt;Node15 -->
<g id="edge19" class="edge"><title>Node11&#45;&gt;Node15</title>
<path fill="none" stroke="midnightblue" d="M496.547,-67.4751C455.898,-56.9595 386.713,-39.0615 342.076,-27.5142"/>
<polygon fill="midnightblue" stroke="midnightblue" points="342.95,-24.1252 332.392,-25.0091 341.197,-30.9021 342.95,-24.1252"/>
</g>
<!-- Node16 -->
<g id="node16" class="node"><title>Node16</title>
<polygon fill="white" stroke="#bfbfbf" points="561.5,-6 561.5,-25 689.5,-25 689.5,-6 561.5,-6"/>
<text text-anchor="middle" x="625.5" y="-13" font-family="Helvetica,sans-Serif" font-size="10.00">boost/noncopyable.hpp</text>
</g>
<!-- Node11&#45;&gt;Node16 -->
<g id="edge20" class="edge"><title>Node11&#45;&gt;Node16</title>
<path fill="none" stroke="midnightblue" d="M543.254,-67.4751C558.866,-57.7989 584.563,-41.8721 603.083,-30.3941"/>
<polygon fill="midnightblue" stroke="midnightblue" points="605.115,-33.2522 611.771,-25.0091 601.427,-27.3023 605.115,-33.2522"/>
</g>
<!-- Node17&#45;&gt;Node3 -->
<g id="edge24" class="edge"><title>Node17&#45;&gt;Node3</title>
<path fill="none" stroke="midnightblue" d="M752.253,-128.116C817.17,-118.693 983.254,-94.5841 1058.91,-83.6017"/>
<polygon fill="midnightblue" stroke="midnightblue" points="1059.57,-87.0424 1068.97,-82.142 1058.57,-80.115 1059.57,-87.0424"/>
</g>
<!-- Node17&#45;&gt;Node4 -->
<g id="edge26" class="edge"><title>Node17&#45;&gt;Node4</title>
<path fill="none" stroke="midnightblue" d="M752.004,-129.366C794.125,-124.57 878.438,-112.463 945.5,-87 983.658,-72.5117 1023.9,-46.9612 1047.3,-30.9229"/>
<polygon fill="midnightblue" stroke="midnightblue" points="1049.48,-33.6725 1055.69,-25.087 1045.48,-27.9273 1049.48,-33.6725"/>
</g>
<!-- Node17&#45;&gt;Node6 -->
<g id="edge29" class="edge"><title>Node17&#45;&gt;Node6</title>
<path fill="none" stroke="midnightblue" d="M698.803,-129.476C654.095,-124.696 561.685,-112.44 487.5,-87 469.074,-80.6811 467.206,-72.4341 448.5,-67 280.49,-18.1937 225.895,-74.7573 56.5,-31 54.1995,-30.4057 51.8555,-29.6688 49.5314,-28.8446"/>
<polygon fill="midnightblue" stroke="midnightblue" points="50.8367,-25.5971 40.2532,-25.1068 48.221,-32.0901 50.8367,-25.5971"/>
</g>
<!-- Node17&#45;&gt;Node8 -->
<g id="edge25" class="edge"><title>Node17&#45;&gt;Node8</title>
<path fill="none" stroke="midnightblue" d="M698.885,-128.001C650.239,-120.6 543.757,-103.964 454.5,-87 453.035,-86.7215 451.542,-86.4316 450.035,-86.1338"/>
<polygon fill="midnightblue" stroke="midnightblue" points="450.523,-82.6613 440.025,-84.09 449.123,-89.5198 450.523,-82.6613"/>
</g>
<!-- Node17&#45;&gt;Node10 -->
<g id="edge27" class="edge"><title>Node17&#45;&gt;Node10</title>
<path fill="none" stroke="midnightblue" d="M699.092,-123.418C671.212,-112.795 633.13,-92.8936 647.5,-67 653.559,-56.082 680.554,-40.5183 701.736,-29.562"/>
<polygon fill="midnightblue" stroke="midnightblue" points="703.335,-32.6752 710.671,-25.0306 700.169,-26.4321 703.335,-32.6752"/>
</g>
<!-- Node17&#45;&gt;Node11 -->
<g id="edge30" class="edge"><title>Node17&#45;&gt;Node11</title>
<path fill="none" stroke="midnightblue" d="M698.658,-124.605C665.551,-115.483 608.935,-99.8852 570.403,-89.2693"/>
<polygon fill="midnightblue" stroke="midnightblue" points="571.107,-85.8328 560.536,-86.5509 569.248,-92.5814 571.107,-85.8328"/>
</g>
<!-- Node17&#45;&gt;Node12 -->
<g id="edge22" class="edge"><title>Node17&#45;&gt;Node12</title>
<path fill="none" stroke="midnightblue" d="M730.394,-123.192C738.827,-108.906 757.525,-80.8841 781.5,-67 854.742,-24.585 887.56,-55.7411 968.5,-31 970.644,-30.3446 972.836,-29.5981 975.023,-28.7974"/>
<polygon fill="midnightblue" stroke="midnightblue" points="976.42,-32.0084 984.415,-25.0561 973.83,-25.5054 976.42,-32.0084"/>
</g>
<!-- Node18 -->
<g id="node18" class="node"><title>Node18</title>
<polygon fill="white" stroke="#bfbfbf" points="791,-67.5 791,-86.5 868,-86.5 868,-67.5 791,-67.5"/>
<text text-anchor="middle" x="829.5" y="-74.5" font-family="Helvetica,sans-Serif" font-size="10.00">initializer_list</text>
</g>
<!-- Node17&#45;&gt;Node18 -->
<g id="edge23" class="edge"><title>Node17&#45;&gt;Node18</title>
<path fill="none" stroke="midnightblue" d="M742.209,-123.324C758.812,-114.703 784.502,-101.364 803.72,-91.3855"/>
<polygon fill="midnightblue" stroke="midnightblue" points="805.57,-94.3689 812.832,-86.6545 802.344,-88.1565 805.57,-94.3689"/>
</g>
<!-- Node19 -->
<g id="node19" class="node"><title>Node19</title>
<polygon fill="white" stroke="#bfbfbf" points="886.5,-67.5 886.5,-86.5 936.5,-86.5 936.5,-67.5 886.5,-67.5"/>
<text text-anchor="middle" x="911.5" y="-74.5" font-family="Helvetica,sans-Serif" font-size="10.00">variant</text>
</g>
<!-- Node17&#45;&gt;Node19 -->
<g id="edge28" class="edge"><title>Node17&#45;&gt;Node19</title>
<path fill="none" stroke="midnightblue" d="M752.149,-124.263C784.928,-114.747 840.654,-98.5683 876.761,-88.0855"/>
<polygon fill="midnightblue" stroke="midnightblue" points="877.762,-91.4395 886.39,-85.2901 875.81,-84.7171 877.762,-91.4395"/>
</g>
<!-- Node17&#45;&gt;Node20 -->
<g id="edge31" class="edge"><title>Node17&#45;&gt;Node20</title>
<path fill="none" stroke="midnightblue" d="M720.546,-123.083C716.396,-115.613 710.347,-104.724 705.233,-95.5199"/>
<polygon fill="midnightblue" stroke="midnightblue" points="708.278,-93.7929 700.362,-86.7511 702.159,-97.1924 708.278,-93.7929"/>
</g>
<!-- Node20&#45;&gt;Node4 -->
<g id="edge33" class="edge"><title>Node20&#45;&gt;Node4</title>
<path fill="none" stroke="midnightblue" d="M734.013,-71.5484C816.891,-61.8755 1006.98,-39.1544 1035.5,-31 1037.44,-30.4466 1039.4,-29.795 1041.36,-29.0796"/>
<polygon fill="midnightblue" stroke="midnightblue" points="1043.01,-32.1871 1050.91,-25.1313 1040.33,-25.7183 1043.01,-32.1871"/>
</g>
<!-- Node20&#45;&gt;Node6 -->
<g id="edge35" class="edge"><title>Node20&#45;&gt;Node6</title>
<path fill="none" stroke="midnightblue" d="M656.929,-73.2033C632.222,-71.4168 599.473,-69.0577 570.5,-67 342.071,-50.7771 278.833,-85.8712 56.5,-31 54.1419,-30.418 51.7403,-29.6792 49.3626,-28.8445"/>
<polygon fill="midnightblue" stroke="midnightblue" points="50.479,-25.521 39.8956,-25.0295 47.8626,-32.0136 50.479,-25.521"/>
</g>
<!-- Node20&#45;&gt;Node10 -->
<g id="edge34" class="edge"><title>Node20&#45;&gt;Node10</title>
<path fill="none" stroke="midnightblue" d="M700.228,-67.4751C705.08,-58.7268 712.766,-44.8691 718.9,-33.8093"/>
<polygon fill="midnightblue" stroke="midnightblue" points="721.991,-35.4517 723.781,-25.0091 715.87,-32.0566 721.991,-35.4517"/>
</g>
<!-- Node20&#45;&gt;Node16 -->
<g id="edge37" class="edge"><title>Node20&#45;&gt;Node16</title>
<path fill="none" stroke="midnightblue" d="M685.471,-67.4751C674.451,-58.1082 656.54,-42.8839 643.157,-31.5081"/>
<polygon fill="midnightblue" stroke="midnightblue" points="645.397,-28.8188 635.511,-25.0091 640.863,-34.1524 645.397,-28.8188"/>
</g>
<!-- Node21 -->
<g id="node21" class="node"><title>Node21</title>
<polygon fill="white" stroke="#bfbfbf" points="897.5,-6 897.5,-25 959.5,-25 959.5,-6 897.5,-6"/>
<text text-anchor="middle" x="928.5" y="-13" font-family="Helvetica,sans-Serif" font-size="10.00">algorithm</text>
</g>
<!-- Node20&#45;&gt;Node21 -->
<g id="edge32" class="edge"><title>Node20&#45;&gt;Node21</title>
<path fill="none" stroke="midnightblue" d="M734.302,-68.3674C773.528,-60.3216 835.725,-46.6579 888.5,-31 891.131,-30.2193 893.841,-29.3598 896.552,-28.4608"/>
<polygon fill="midnightblue" stroke="midnightblue" points="897.931,-31.6871 906.231,-25.1022 895.636,-25.074 897.931,-31.6871"/>
</g>
<!-- Node22 -->
<g id="node22" class="node"><title>Node22</title>
<polygon fill="white" stroke="#bfbfbf" points="767.5,-0.5 767.5,-30.5 879.5,-30.5 879.5,-0.5 767.5,-0.5"/>
<text text-anchor="start" x="775.5" y="-18.5" font-family="Helvetica,sans-Serif" font-size="10.00">boost/icl/continuous</text>
<text text-anchor="middle" x="823.5" y="-7.5" font-family="Helvetica,sans-Serif" font-size="10.00">_interval.hpp</text>
</g>
<!-- Node20&#45;&gt;Node22 -->
<g id="edge36" class="edge"><title>Node20&#45;&gt;Node22</title>
<path fill="none" stroke="midnightblue" d="M713.839,-67.4751C732.066,-59.0024 760.603,-45.7373 783.997,-34.8628"/>
<polygon fill="midnightblue" stroke="midnightblue" points="785.74,-37.9122 793.333,-30.523 782.789,-31.5644 785.74,-37.9122"/>
</g>
<!-- Node23&#45;&gt;Node3 -->
<g id="edge43" class="edge"><title>Node23&#45;&gt;Node3</title>
<path fill="none" stroke="midnightblue" d="M978,-123.444C1001.58,-114.478 1038.82,-100.314 1065.46,-90.1827"/>
<polygon fill="midnightblue" stroke="midnightblue" points="1067,-93.3424 1075.1,-86.5164 1064.51,-86.7995 1067,-93.3424"/>
</g>
<!-- Node23&#45;&gt;Node4 -->
<g id="edge44" class="edge"><title>Node23&#45;&gt;Node4</title>
<path fill="none" stroke="midnightblue" d="M963.918,-123.319C982.647,-104.004 1028,-57.2366 1052,-32.4827"/>
<polygon fill="midnightblue" stroke="midnightblue" points="1054.54,-34.8976 1058.98,-25.282 1049.51,-30.0245 1054.54,-34.8976"/>
</g>
<!-- Node23&#45;&gt;Node11 -->
<g id="edge45" class="edge"><title>Node23&#45;&gt;Node11</title>
<path fill="none" stroke="midnightblue" d="M917.32,-127.16C837.905,-117.094 655.408,-93.9601 572.222,-83.4155"/>
<polygon fill="midnightblue" stroke="midnightblue" points="572.471,-79.9191 562.11,-82.1336 571.59,-86.8635 572.471,-79.9191"/>
</g>
<!-- Node23&#45;&gt;Node12 -->
<g id="edge42" class="edge"><title>Node23&#45;&gt;Node12</title>
<path fill="none" stroke="midnightblue" d="M959.033,-123.319C966.654,-104.59 984.78,-60.0458 995.056,-34.7924"/>
<polygon fill="midnightblue" stroke="midnightblue" points="998.399,-35.8637 998.926,-25.282 991.915,-33.2253 998.399,-35.8637"/>
</g>
<!-- Node23&#45;&gt;Node20 -->
<g id="edge46" class="edge"><title>Node23&#45;&gt;Node20</title>
<path fill="none" stroke="midnightblue" d="M917.415,-124.09C871.494,-114.553 794.243,-98.5083 744.075,-88.0887"/>
<polygon fill="midnightblue" stroke="midnightblue" points="744.614,-84.6259 734.111,-86.0192 743.19,-91.4797 744.614,-84.6259"/>
</g>
<!-- Node24&#45;&gt;Node4 -->
<g id="edge49" class="edge"><title>Node24&#45;&gt;Node4</title>
<path fill="none" stroke="midnightblue" d="M1435.14,-241.332C1386.35,-235.587 1278.84,-220.778 1249.5,-199 1218.51,-175.999 1227.49,-156.014 1207.5,-123 1192.05,-97.4811 1192.9,-86.7011 1170.5,-67 1149.62,-48.6364 1120.88,-35.2824 1099.06,-26.9358"/>
<polygon fill="midnightblue" stroke="midnightblue" points="1100.17,-23.6148 1089.58,-23.4532 1097.76,-30.1858 1100.17,-23.6148"/>
</g>
<!-- Node25 -->
<g id="node25" class="node"><title>Node25</title>
<polygon fill="white" stroke="#bfbfbf" points="1527,-179.5 1527,-198.5 1590,-198.5 1590,-179.5 1527,-179.5"/>
<text text-anchor="middle" x="1558.5" y="-186.5" font-family="Helvetica,sans-Serif" font-size="10.00">exception</text>
</g>
<!-- Node24&#45;&gt;Node25 -->
<g id="edge48" class="edge"><title>Node24&#45;&gt;Node25</title>
<path fill="none" stroke="midnightblue" d="M1475.41,-235.324C1491.14,-226.743 1515.44,-213.486 1533.71,-203.522"/>
<polygon fill="midnightblue" stroke="midnightblue" points="1535.53,-206.516 1542.63,-198.655 1532.18,-200.37 1535.53,-206.516"/>
</g>
<!-- Node26 -->
<g id="node26" class="node"><title>Node26</title>
<polygon fill="white" stroke="#bfbfbf" points="1608.5,-179.5 1608.5,-198.5 1754.5,-198.5 1754.5,-179.5 1608.5,-179.5"/>
<text text-anchor="middle" x="1681.5" y="-186.5" font-family="Helvetica,sans-Serif" font-size="10.00">boost/current_function.hpp</text>
</g>
<!-- Node24&#45;&gt;Node26 -->
<g id="edge50" class="edge"><title>Node24&#45;&gt;Node26</title>
<path fill="none" stroke="midnightblue" d="M1483.68,-238.118C1520.32,-229.205 1590.53,-212.128 1636.68,-200.901"/>
<polygon fill="midnightblue" stroke="midnightblue" points="1637.54,-204.294 1646.43,-198.53 1635.89,-197.493 1637.54,-204.294"/>
</g>
<!-- Node27 -->
<g id="node27" class="node"><title>Node27</title>
<polygon fill="white" stroke="#bfbfbf" points="1772.5,-179.5 1772.5,-198.5 1936.5,-198.5 1936.5,-179.5 1772.5,-179.5"/>
<text text-anchor="middle" x="1854.5" y="-186.5" font-family="Helvetica,sans-Serif" font-size="10.00">boost/exception/exception.hpp</text>
</g>
<!-- Node24&#45;&gt;Node27 -->
<g id="edge51" class="edge"><title>Node24&#45;&gt;Node27</title>
<path fill="none" stroke="midnightblue" d="M1483.61,-240.703C1541.82,-232.747 1691.84,-212.237 1782.25,-199.877"/>
<polygon fill="midnightblue" stroke="midnightblue" points="1782.73,-203.345 1792.16,-198.523 1781.78,-196.409 1782.73,-203.345"/>
</g>
<!-- Node28 -->
<g id="node28" class="node"><title>Node28</title>
<polygon fill="white" stroke="#bfbfbf" points="1258.5,-179.5 1258.5,-198.5 1392.5,-198.5 1392.5,-179.5 1258.5,-179.5"/>
<text text-anchor="middle" x="1325.5" y="-186.5" font-family="Helvetica,sans-Serif" font-size="10.00">boost/exception/info.hpp</text>
</g>
<!-- Node24&#45;&gt;Node28 -->
<g id="edge52" class="edge"><title>Node24&#45;&gt;Node28</title>
<path fill="none" stroke="midnightblue" d="M1438.27,-235.444C1416.12,-226.517 1381.18,-212.439 1356.06,-202.317"/>
<polygon fill="midnightblue" stroke="midnightblue" points="1357.22,-199.008 1346.63,-198.516 1354.6,-205.501 1357.22,-199.008"/>
</g>
<!-- Node29 -->
<g id="node29" class="node"><title>Node29</title>
<g id="a_node29"><a xlink:href="source__info_8h.xhtml" target="_top" xlink:title="Helper facilities to get source file information. ">
<polygon fill="white" stroke="black" points="1410.5,-179.5 1410.5,-198.5 1508.5,-198.5 1508.5,-179.5 1410.5,-179.5"/>
<text text-anchor="middle" x="1459.5" y="-186.5" font-family="Helvetica,sans-Serif" font-size="10.00">ext/source_info.h</text>
</a>
</g>
</g>
<!-- Node24&#45;&gt;Node29 -->
<g id="edge53" class="edge"><title>Node24&#45;&gt;Node29</title>
<path fill="none" stroke="midnightblue" d="M1459.5,-235.083C1459.5,-228.006 1459.5,-217.861 1459.5,-208.986"/>
<polygon fill="midnightblue" stroke="midnightblue" points="1463,-208.751 1459.5,-198.751 1456,-208.751 1463,-208.751"/>
</g>
</g>
</svg>
        <g id="navigator" transform="translate(0 0)" fill="#404254">
                <rect fill="#f2f5e9" fill-opacity="0.5" stroke="#606060" stroke-width=".5" x="0" y="0" width="60" height="60"/>
                <use id="zoomplus" xlink:href="#zoomPlus" x="17" y="9" onmousedown="handleZoom(evt,'in')"/>
                <use id="zoomminus" xlink:href="#zoomMin" x="42" y="9" onmousedown="handleZoom(evt,'out')"/>
                <use id="reset" xlink:href="#resetDef" x="30" y="36" onmousedown="handleReset()"/>
                <g id="arrowUp" xlink:href="#dirArrow" transform="translate(30 24)" onmousedown="handlePan(0,-1)">
                  <use xlink:href="#rim" fill="#404040">
                        <set attributeName="fill" to="#808080" begin="arrowUp.mouseover" end="arrowUp.mouseout"/>
                  </use>
                  <path fill="none" stroke="white" stroke-width="1.5" d="M0,-3.0v7 M-2.5,-0.5L0,-3.0L2.5,-0.5"/>
                </g>
                <g id="arrowRight" xlink:href="#dirArrow" transform="rotate(90) translate(36 -43)" onmousedown="handlePan(1,0)">
                  <use xlink:href="#rim" fill="#404040">
                        <set attributeName="fill" to="#808080" begin="arrowRight.mouseover" end="arrowRight.mouseout"/>
                  </use>
                  <path fill="none" stroke="white" stroke-width="1.5" d="M0,-3.0v7 M-2.5,-0.5L0,-3.0L2.5,-0.5"/>
                </g>
                <g id="arrowDown" xlink:href="#dirArrow" transform="rotate(180) translate(-30 -48)" onmousedown="handlePan(0,1)">
                  <use xlink:href="#rim" fill="#404040">
                        <set attributeName="fill" to="#808080" begin="arrowDown.mouseover" end="arrowDown.mouseout"/>
                  </use>
                  <path fill="none" stroke="white" stroke-width="1.5" d="M0,-3.0v7 M-2.5,-0.5L0,-3.0L2.5,-0.5"/>
                </g>
                <g id="arrowLeft" xlink:href="#dirArrow" transform="rotate(270) translate(-36 17)" onmousedown="handlePan(-1,0)">
                  <use xlink:href="#rim" fill="#404040">
                        <set attributeName="fill" to="#808080" begin="arrowLeft.mouseover" end="arrowLeft.mouseout"/>
                  </use>
                  <path fill="none" stroke="white" stroke-width="1.5" d="M0,-3.0v7 M-2.5,-0.5L0,-3.0L2.5,-0.5"/>
                </g>
        </g>
        <svg viewBox="0 0 15 15" width="100%" height="30px" preserveAspectRatio="xMaxYMin meet">
         <g id="arrow_out" transform="scale(0.3 0.3)">
          <a xlink:href="fault__tree_8cc__incl_org.svg" target="_base">
           <rect id="button" ry="5" rx="5" y="6" x="6" height="38" width="38"
                fill="#f2f5e9" fill-opacity="0.5" stroke="#606060" stroke-width="1.0"/>
           <path id="arrow"
             d="M 11.500037,31.436501 C 11.940474,20.09759 22.043105,11.32322 32.158766,21.979434 L 37.068811,17.246167 C 37.068811,17.246167 37.088388,32 37.088388,32 L 22.160133,31.978069 C 22.160133,31.978069 26.997745,27.140456 26.997745,27.140456 C 18.528582,18.264221 13.291696,25.230495 11.500037,31.436501 z"
             style="fill:#404040;"/>
          </a>
         </g>
        </svg>
</svg>
