<?xml version="1.0" encoding="UTF-8" standalone="no"?>
<!DOCTYPE svg PUBLIC "-//W3C//DTD SVG 1.1//EN"
 "http://www.w3.org/Graphics/SVG/1.1/DTD/svg11.dtd">
<!-- Generated by graphviz version 2.38.0 (20140413.2041)
 -->
<!-- Title: Graphical Class Hierarchy Pages: 1 -->
<svg width="249pt" height="88pt"
 viewBox="0.00 0.00 249.00 88.00" xmlns="http://www.w3.org/2000/svg" xmlns:xlink="http://www.w3.org/1999/xlink">
<g id="graph0" class="graph" transform="scale(1 1) rotate(0) translate(4 84)">
<title>Graphical Class Hierarchy</title>
<polygon fill="white" stroke="none" points="-4,4 -4,-84 245,-84 245,4 -4,4"/>
<!-- Node1 -->
<g id="node1" class="node"><title>Node1</title>
<polygon fill="white" stroke="#bfbfbf" points="0,-30 0,-49 89,-49 89,-30 0,-30"/>
<text text-anchor="middle" x="44.5" y="-37" font-family="Helvetica,sans-Serif" font-size="10.00">iterator_facade</text>
</g>
<!-- Node2 -->
<g id="node2" class="node"><title>Node2</title>
<g id="a_node2"><a xlink:href="classscram_1_1core_1_1Zbdd_1_1const__iterator.xhtml" target="_top" xlink:title="Iterator over products in a ZBDD container. ">
<polygon fill="white" stroke="black" points="127.5,-49.5 127.5,-79.5 238.5,-79.5 238.5,-49.5 127.5,-49.5"/>
<text text-anchor="start" x="135.5" y="-67.5" font-family="Helvetica,sans-Serif" font-size="10.00">scram::core::Zbdd::</text>
<text text-anchor="middle" x="183" y="-56.5" font-family="Helvetica,sans-Serif" font-size="10.00">const_iterator</text>
</a>
</g>
</g>
<!-- Node1&#45;&gt;Node2 -->
<g id="edge1" class="edge"><title>Node1&#45;&gt;Node2</title>
<path fill="none" stroke="midnightblue" d="M98.9852,-49.2958C108.299,-51.0017 117.999,-52.7781 127.343,-54.4896"/>
<polygon fill="midnightblue" stroke="midnightblue" points="99.5317,-45.8378 89.0648,-47.4789 98.2706,-52.7232 99.5317,-45.8378"/>
</g>
<!-- Node3 -->
<g id="node3" class="node"><title>Node3</title>
<g id="a_node3"><a xlink:href="classscram_1_1xml_1_1Element_1_1Range_1_1iterator.xhtml" target="_top" xlink:title="Iterator over range elements. ">
<polygon fill="white" stroke="black" points="125,-0.5 125,-30.5 241,-30.5 241,-0.5 125,-0.5"/>
<text text-anchor="start" x="133" y="-18.5" font-family="Helvetica,sans-Serif" font-size="10.00">scram::xml::Element</text>
<text text-anchor="middle" x="183" y="-7.5" font-family="Helvetica,sans-Serif" font-size="10.00">::Range::iterator</text>
</a>
</g>
</g>
<!-- Node1&#45;&gt;Node3 -->
<g id="edge2" class="edge"><title>Node1&#45;&gt;Node3</title>
<path fill="none" stroke="midnightblue" d="M99.172,-30.0632C107.615,-28.5786 116.371,-27.0392 124.889,-25.5415"/>
<polygon fill="midnightblue" stroke="midnightblue" points="98.3076,-26.6614 89.0648,-31.8403 99.5198,-33.5556 98.3076,-26.6614"/>
</g>
</g>
</svg>
