<?xml version="1.0" encoding="UTF-8" standalone="no"?>
<!DOCTYPE svg PUBLIC "-//W3C//DTD SVG 1.1//EN"
 "http://www.w3.org/Graphics/SVG/1.1/DTD/svg11.dtd">
<!-- Generated by graphviz version 2.38.0 (20140413.2041)
 -->
<!-- Title: instruction.h Pages: 1 -->
<!--zoomable 207 -->
<svg id="main" version="1.1" xmlns="http://www.w3.org/2000/svg" xmlns:xlink="http://www.w3.org/1999/xlink" xml:space="preserve" onload="init(evt)">
<style type="text/css"><![CDATA[
.edge:hover path { stroke: red; }
.edge:hover polygon { stroke: red; fill: red; }
]]></style>
<script type="text/javascript"><![CDATA[
var edges = document.getElementsByTagName('g');
if (edges && edges.length) {
  for (var i=0;i<edges.length;i++) {
    if (edges[i].id.substr(0,4)=='edge') {
      edges[i].setAttribute('class','edge');
    }
  }
}
]]></script>
        <defs>
                <circle id="rim" cx="0" cy="0" r="7"/>
                <circle id="rim2" cx="0" cy="0" r="3.5"/>
                <g id="zoomPlus">
                        <use xlink:href="#rim" fill="#404040">
                                <set attributeName="fill" to="#808080" begin="zoomplus.mouseover" end="zoomplus.mouseout"/>
                        </use>
                        <path d="M-4,0h8M0,-4v8" fill="none" stroke="white" stroke-width="1.5" pointer-events="none"/>
                </g>
                <g id="zoomMin">
                        <use xlink:href="#rim" fill="#404040">
                                <set attributeName="fill" to="#808080" begin="zoomminus.mouseover" end="zoomminus.mouseout"/>
                        </use>
                        <path d="M-4,0h8" fill="none" stroke="white" stroke-width="1.5" pointer-events="none"/>
                </g>
                <g id="dirArrow">
                        <path fill="none" stroke="white" stroke-width="1.5" d="M0,-3.0v7 M-2.5,-0.5L0,-3.0L2.5,-0.5"/>
                </g>
               <g id="resetDef">
                       <use xlink:href="#rim2" fill="#404040">
                               <set attributeName="fill" to="#808080" begin="reset.mouseover" end="reset.mouseout"/>
                       </use>
               </g>
        </defs>

<script type="text/javascript">
var viewWidth = 1098;
var viewHeight = 207;
var sectionId = 'dynsection-0';
</script>
<script xlink:href="svgpan.js"/>
<svg id="graph" class="graph">
<g id="viewport">
<title>instruction.h</title>
<polygon fill="white" stroke="none" points="-4,4 -4,-203 1093.5,-203 1093.5,4 -4,4"/>
<!-- Node1 -->
<g id="node1" class="node"><title>Node1</title>
<polygon fill="#bfbfbf" stroke="black" points="289.5,-179.5 289.5,-198.5 365.5,-198.5 365.5,-179.5 289.5,-179.5"/>
<text text-anchor="middle" x="327.5" y="-186.5" font-family="Helvetica,sans-Serif" font-size="10.00">instruction.h</text>
</g>
<!-- Node2 -->
<g id="node2" class="node"><title>Node2</title>
<polygon fill="white" stroke="#bfbfbf" points="51,-67.5 51,-86.5 108,-86.5 108,-67.5 51,-67.5"/>
<text text-anchor="middle" x="79.5" y="-74.5" font-family="Helvetica,sans-Serif" font-size="10.00">memory</text>
</g>
<!-- Node1&#45;&gt;Node2 -->
<g id="edge1" class="edge"><title>Node1&#45;&gt;Node2</title>
<path fill="none" stroke="midnightblue" d="M308.04,-179.368C264.487,-160.051 158.993,-113.259 108.016,-90.6481"/>
<polygon fill="midnightblue" stroke="midnightblue" points="109.43,-87.4466 98.8697,-86.5914 106.592,-93.8454 109.43,-87.4466"/>
</g>
<!-- Node3 -->
<g id="node3" class="node"><title>Node3</title>
<polygon fill="white" stroke="#bfbfbf" points="335.5,-6 335.5,-25 379.5,-25 379.5,-6 335.5,-6"/>
<text text-anchor="middle" x="357.5" y="-13" font-family="Helvetica,sans-Serif" font-size="10.00">string</text>
</g>
<!-- Node1&#45;&gt;Node3 -->
<g id="edge2" class="edge"><title>Node1&#45;&gt;Node3</title>
<path fill="none" stroke="midnightblue" d="M365.794,-186.875C427.717,-182.74 548.352,-164.572 602.5,-87 607.588,-79.7112 608.24,-73.7868 602.5,-67 571.357,-30.1807 434.54,-45.3472 388.5,-31 386.628,-30.4167 384.724,-29.7428 382.826,-29.0114"/>
<polygon fill="midnightblue" stroke="midnightblue" points="384.149,-25.7701 373.58,-25.028 381.379,-32.199 384.149,-25.7701"/>
</g>
<!-- Node4 -->
<g id="node4" class="node"><title>Node4</title>
<polygon fill="white" stroke="#bfbfbf" points="0,-6 0,-25 47,-25 47,-6 0,-6"/>
<text text-anchor="middle" x="23.5" y="-13" font-family="Helvetica,sans-Serif" font-size="10.00">vector</text>
</g>
<!-- Node1&#45;&gt;Node4 -->
<g id="edge3" class="edge"><title>Node1&#45;&gt;Node4</title>
<path fill="none" stroke="midnightblue" d="M289.448,-186.063C227.598,-180.759 105.72,-160.951 41.5,-87 29.1031,-72.7246 25.0493,-51.0431 23.8203,-35.4952"/>
<polygon fill="midnightblue" stroke="midnightblue" points="27.314,-35.2752 23.3459,-25.4516 20.3218,-35.6056 27.314,-35.2752"/>
</g>
<!-- Node5 -->
<g id="node5" class="node"><title>Node5</title>
<polygon fill="white" stroke="#bfbfbf" points="623.5,-6 623.5,-25 751.5,-25 751.5,-6 623.5,-6"/>
<text text-anchor="middle" x="687.5" y="-13" font-family="Helvetica,sans-Serif" font-size="10.00">boost/noncopyable.hpp</text>
</g>
<!-- Node1&#45;&gt;Node5 -->
<g id="edge4" class="edge"><title>Node1&#45;&gt;Node5</title>
<path fill="none" stroke="midnightblue" d="M365.644,-185.665C441.716,-180.555 609.453,-166.888 661.5,-143 695.548,-127.373 709.153,-121.175 724.5,-87 733.196,-67.6362 718.146,-46.1357 704.709,-32.0294"/>
<polygon fill="midnightblue" stroke="midnightblue" points="707.156,-29.5274 697.571,-25.0139 702.249,-34.5198 707.156,-29.5274"/>
</g>
<!-- Node6 -->
<g id="node6" class="node"><title>Node6</title>
<g id="a_node6"><a xlink:href="element_8h.xhtml" target="_top" xlink:title="Helper classes, structs, and properties common to all other classes. ">
<polygon fill="white" stroke="black" points="651,-67.5 651,-86.5 716,-86.5 716,-67.5 651,-67.5"/>
<text text-anchor="middle" x="683.5" y="-74.5" font-family="Helvetica,sans-Serif" font-size="10.00">element.h</text>
</a>
</g>
</g>
<!-- Node1&#45;&gt;Node6 -->
<g id="edge5" class="edge"><title>Node1&#45;&gt;Node6</title>
<path fill="none" stroke="midnightblue" d="M365.739,-186.123C438.057,-181.979 591.64,-170.177 636.5,-143 654.5,-132.095 667.627,-111.414 675.362,-96.2982"/>
<polygon fill="midnightblue" stroke="midnightblue" points="678.694,-97.4433 679.849,-86.9116 672.378,-94.4244 678.694,-97.4433"/>
</g>
<!-- Node11 -->
<g id="node11" class="node"><title>Node11</title>
<g id="a_node11"><a xlink:href="event_8h.xhtml" target="_top" xlink:title="Contains event classes for fault trees. ">
<polygon fill="white" stroke="black" points="301,-123.5 301,-142.5 354,-142.5 354,-123.5 301,-123.5"/>
<text text-anchor="middle" x="327.5" y="-130.5" font-family="Helvetica,sans-Serif" font-size="10.00">event.h</text>
</a>
</g>
</g>
<!-- Node1&#45;&gt;Node11 -->
<g id="edge13" class="edge"><title>Node1&#45;&gt;Node11</title>
<path fill="none" stroke="midnightblue" d="M327.5,-179.083C327.5,-172.006 327.5,-161.861 327.5,-152.986"/>
<polygon fill="midnightblue" stroke="midnightblue" points="331,-152.751 327.5,-142.751 324,-152.751 331,-152.751"/>
</g>
<!-- Node16 -->
<g id="node16" class="node"><title>Node16</title>
<g id="a_node16"><a xlink:href="expression_8h.xhtml" target="_top" xlink:title="Provides the base class for all expressions and units for expression values. ">
<polygon fill="white" stroke="black" points="165,-67.5 165,-86.5 242,-86.5 242,-67.5 165,-67.5"/>
<text text-anchor="middle" x="203.5" y="-74.5" font-family="Helvetica,sans-Serif" font-size="10.00">expression.h</text>
</a>
</g>
</g>
<!-- Node1&#45;&gt;Node16 -->
<g id="edge30" class="edge"><title>Node1&#45;&gt;Node16</title>
<path fill="none" stroke="midnightblue" d="M317.77,-179.368C296.854,-160.814 247.365,-116.913 220.902,-93.4376"/>
<polygon fill="midnightblue" stroke="midnightblue" points="222.988,-90.6093 213.185,-86.5914 218.343,-95.8459 222.988,-90.6093"/>
</g>
<!-- Node6&#45;&gt;Node3 -->
<g id="edge7" class="edge"><title>Node6&#45;&gt;Node3</title>
<path fill="none" stroke="midnightblue" d="M650.918,-69.5641C646.09,-68.6676 641.17,-67.7857 636.5,-67 526.666,-48.5218 495.2,-62.9374 388.5,-31 386.622,-30.4378 384.712,-29.7795 382.811,-29.0594"/>
<polygon fill="midnightblue" stroke="midnightblue" points="384.128,-25.8159 373.557,-25.1007 381.375,-32.2518 384.128,-25.8159"/>
</g>
<!-- Node6&#45;&gt;Node4 -->
<g id="edge8" class="edge"><title>Node6&#45;&gt;Node4</title>
<path fill="none" stroke="midnightblue" d="M650.822,-72.0317C636.075,-70.3278 618.426,-68.4091 602.5,-67 360.253,-45.5665 292.728,-88.7886 56.5,-31 54.1407,-30.4229 51.7383,-29.6874 49.3601,-28.8549"/>
<polygon fill="midnightblue" stroke="midnightblue" points="50.4758,-25.5312 39.8921,-25.0436 47.8617,-32.0248 50.4758,-25.5312"/>
</g>
<!-- Node6&#45;&gt;Node5 -->
<g id="edge12" class="edge"><title>Node6&#45;&gt;Node5</title>
<path fill="none" stroke="midnightblue" d="M684.073,-67.4751C684.637,-59.0803 685.518,-45.9806 686.245,-35.1631"/>
<polygon fill="midnightblue" stroke="midnightblue" points="689.749,-35.2214 686.928,-25.0091 682.765,-34.7518 689.749,-35.2214"/>
</g>
<!-- Node7 -->
<g id="node7" class="node"><title>Node7</title>
<polygon fill="white" stroke="#bfbfbf" points="398,-6 398,-25 447,-25 447,-6 398,-6"/>
<text text-anchor="middle" x="422.5" y="-13" font-family="Helvetica,sans-Serif" font-size="10.00">cstdint</text>
</g>
<!-- Node6&#45;&gt;Node7 -->
<g id="edge6" class="edge"><title>Node6&#45;&gt;Node7</title>
<path fill="none" stroke="midnightblue" d="M650.706,-69.6849C590.079,-57.984 465.761,-33.8589 456.5,-31 454.358,-30.3387 452.167,-29.5879 449.981,-28.7842"/>
<polygon fill="midnightblue" stroke="midnightblue" points="451.176,-25.4927 440.591,-25.0368 448.581,-31.9941 451.176,-25.4927"/>
</g>
<!-- Node8 -->
<g id="node8" class="node"><title>Node8</title>
<polygon fill="white" stroke="#bfbfbf" points="465.5,-0.5 465.5,-30.5 605.5,-30.5 605.5,-0.5 465.5,-0.5"/>
<text text-anchor="start" x="473.5" y="-18.5" font-family="Helvetica,sans-Serif" font-size="10.00">boost/multi_index/hashed</text>
<text text-anchor="middle" x="535.5" y="-7.5" font-family="Helvetica,sans-Serif" font-size="10.00">_index.hpp</text>
</g>
<!-- Node6&#45;&gt;Node8 -->
<g id="edge9" class="edge"><title>Node6&#45;&gt;Node8</title>
<path fill="none" stroke="midnightblue" d="M662.295,-67.4751C640.846,-58.8518 607.048,-45.2641 579.739,-34.2852"/>
<polygon fill="midnightblue" stroke="midnightblue" points="580.965,-31.0058 570.381,-30.523 578.353,-37.5005 580.965,-31.0058"/>
</g>
<!-- Node9 -->
<g id="node9" class="node"><title>Node9</title>
<polygon fill="white" stroke="#bfbfbf" points="769.5,-0.5 769.5,-30.5 899.5,-30.5 899.5,-0.5 769.5,-0.5"/>
<text text-anchor="start" x="777.5" y="-18.5" font-family="Helvetica,sans-Serif" font-size="10.00">boost/multi_index/mem</text>
<text text-anchor="middle" x="834.5" y="-7.5" font-family="Helvetica,sans-Serif" font-size="10.00">_fun.hpp</text>
</g>
<!-- Node6&#45;&gt;Node9 -->
<g id="edge10" class="edge"><title>Node6&#45;&gt;Node9</title>
<path fill="none" stroke="midnightblue" d="M705.135,-67.4751C727.019,-58.8518 761.502,-45.2641 789.365,-34.2852"/>
<polygon fill="midnightblue" stroke="midnightblue" points="790.892,-37.4454 798.912,-30.523 788.325,-30.9328 790.892,-37.4454"/>
</g>
<!-- Node10 -->
<g id="node10" class="node"><title>Node10</title>
<polygon fill="white" stroke="#bfbfbf" points="917.5,-6 917.5,-25 1089.5,-25 1089.5,-6 917.5,-6"/>
<text text-anchor="middle" x="1003.5" y="-13" font-family="Helvetica,sans-Serif" font-size="10.00">boost/multi_index_container.hpp</text>
</g>
<!-- Node6&#45;&gt;Node10 -->
<g id="edge11" class="edge"><title>Node6&#45;&gt;Node10</title>
<path fill="none" stroke="midnightblue" d="M716.242,-69.9121C770.787,-59.7701 880.859,-39.3036 947.789,-26.8587"/>
<polygon fill="midnightblue" stroke="midnightblue" points="948.551,-30.2772 957.742,-25.0081 947.271,-23.3952 948.551,-30.2772"/>
</g>
<!-- Node11&#45;&gt;Node2 -->
<g id="edge16" class="edge"><title>Node11&#45;&gt;Node2</title>
<path fill="none" stroke="midnightblue" d="M300.96,-126.221C257.005,-116.65 168.913,-97.4689 118.079,-86.4004"/>
<polygon fill="midnightblue" stroke="midnightblue" points="118.646,-82.9418 108.13,-84.234 117.157,-89.7815 118.646,-82.9418"/>
</g>
<!-- Node11&#45;&gt;Node3 -->
<g id="edge18" class="edge"><title>Node11&#45;&gt;Node3</title>
<path fill="none" stroke="midnightblue" d="M327.133,-123.409C326.822,-110.799 327.101,-86.644 332.5,-67 335.694,-55.3782 341.604,-43.2462 346.876,-33.7868"/>
<polygon fill="midnightblue" stroke="midnightblue" points="349.97,-35.429 351.999,-25.0301 343.928,-31.8945 349.97,-35.429"/>
</g>
<!-- Node11&#45;&gt;Node4 -->
<g id="edge21" class="edge"><title>Node11&#45;&gt;Node4</title>
<path fill="none" stroke="midnightblue" d="M300.961,-127.075C266.644,-120.255 205.366,-106.526 155.5,-87 149.976,-84.8369 85.1221,-49.8628 48.4241,-30.0055"/>
<polygon fill="midnightblue" stroke="midnightblue" points="49.7832,-26.7613 39.3229,-25.0784 46.4506,-32.9172 49.7832,-26.7613"/>
</g>
<!-- Node11&#45;&gt;Node6 -->
<g id="edge22" class="edge"><title>Node11&#45;&gt;Node6</title>
<path fill="none" stroke="midnightblue" d="M354.258,-127.941C415.57,-118.641 566.637,-95.7264 640.896,-84.4624"/>
<polygon fill="midnightblue" stroke="midnightblue" points="641.485,-87.9131 650.847,-82.9529 640.435,-80.9923 641.485,-87.9131"/>
</g>
<!-- Node11&#45;&gt;Node7 -->
<g id="edge14" class="edge"><title>Node11&#45;&gt;Node7</title>
<path fill="none" stroke="midnightblue" d="M331.406,-123.455C337.566,-110.483 350.404,-85.3874 365.5,-67 376.436,-53.6794 391.015,-40.8302 402.69,-31.4264"/>
<polygon fill="midnightblue" stroke="midnightblue" points="404.88,-34.1575 410.585,-25.2304 400.558,-28.6508 404.88,-34.1575"/>
</g>
<!-- Node12 -->
<g id="node12" class="node"><title>Node12</title>
<polygon fill="white" stroke="#bfbfbf" points="517,-67.5 517,-86.5 594,-86.5 594,-67.5 517,-67.5"/>
<text text-anchor="middle" x="555.5" y="-74.5" font-family="Helvetica,sans-Serif" font-size="10.00">initializer_list</text>
</g>
<!-- Node11&#45;&gt;Node12 -->
<g id="edge15" class="edge"><title>Node11&#45;&gt;Node12</title>
<path fill="none" stroke="midnightblue" d="M354.101,-125.7C392.185,-116.68 462.793,-99.9568 509.465,-88.9031"/>
<polygon fill="midnightblue" stroke="midnightblue" points="510.405,-92.2772 519.329,-86.5667 508.792,-85.4657 510.405,-92.2772"/>
</g>
<!-- Node13 -->
<g id="node13" class="node"><title>Node13</title>
<polygon fill="white" stroke="#bfbfbf" points="375,-67.5 375,-86.5 430,-86.5 430,-67.5 375,-67.5"/>
<text text-anchor="middle" x="402.5" y="-74.5" font-family="Helvetica,sans-Serif" font-size="10.00">optional</text>
</g>
<!-- Node11&#45;&gt;Node13 -->
<g id="edge17" class="edge"><title>Node11&#45;&gt;Node13</title>
<path fill="none" stroke="midnightblue" d="M339.55,-123.324C350.963,-115.107 368.331,-102.602 381.935,-92.8069"/>
<polygon fill="midnightblue" stroke="midnightblue" points="384.16,-95.5174 390.231,-86.8339 380.07,-89.8366 384.16,-95.5174"/>
</g>
<!-- Node14 -->
<g id="node14" class="node"><title>Node14</title>
<polygon fill="white" stroke="#bfbfbf" points="275.5,-6 275.5,-25 317.5,-25 317.5,-6 275.5,-6"/>
<text text-anchor="middle" x="296.5" y="-13" font-family="Helvetica,sans-Serif" font-size="10.00">utility</text>
</g>
<!-- Node11&#45;&gt;Node14 -->
<g id="edge19" class="edge"><title>Node11&#45;&gt;Node14</title>
<path fill="none" stroke="midnightblue" d="M325.17,-123.319C320.166,-104.673 308.294,-60.443 301.501,-35.1317"/>
<polygon fill="midnightblue" stroke="midnightblue" points="304.83,-34.0329 298.857,-25.282 298.069,-35.8475 304.83,-34.0329"/>
</g>
<!-- Node15 -->
<g id="node15" class="node"><title>Node15</title>
<polygon fill="white" stroke="#bfbfbf" points="448.5,-67.5 448.5,-86.5 498.5,-86.5 498.5,-67.5 448.5,-67.5"/>
<text text-anchor="middle" x="473.5" y="-74.5" font-family="Helvetica,sans-Serif" font-size="10.00">variant</text>
</g>
<!-- Node11&#45;&gt;Node15 -->
<g id="edge20" class="edge"><title>Node11&#45;&gt;Node15</title>
<path fill="none" stroke="midnightblue" d="M350.634,-123.444C374.982,-114.438 413.507,-100.189 440.923,-90.049"/>
<polygon fill="midnightblue" stroke="midnightblue" points="442.309,-93.2681 450.474,-86.5164 439.881,-86.7028 442.309,-93.2681"/>
</g>
<!-- Node11&#45;&gt;Node16 -->
<g id="edge23" class="edge"><title>Node11&#45;&gt;Node16</title>
<path fill="none" stroke="midnightblue" d="M307.852,-123.444C287.535,-114.596 255.597,-100.687 232.402,-90.5865"/>
<polygon fill="midnightblue" stroke="midnightblue" points="233.622,-87.3002 223.056,-86.5164 230.827,-93.7181 233.622,-87.3002"/>
</g>
<!-- Node16&#45;&gt;Node3 -->
<g id="edge25" class="edge"><title>Node16&#45;&gt;Node3</title>
<path fill="none" stroke="midnightblue" d="M228.717,-67.4936C253.754,-58.8798 293.118,-44.883 326.5,-31 327.872,-30.4296 329.271,-29.8324 330.679,-29.2189"/>
<polygon fill="midnightblue" stroke="midnightblue" points="332.24,-32.3545 339.913,-25.0488 329.359,-25.9749 332.24,-32.3545"/>
</g>
<!-- Node16&#45;&gt;Node4 -->
<g id="edge27" class="edge"><title>Node16&#45;&gt;Node4</title>
<path fill="none" stroke="midnightblue" d="M171.888,-67.4797C141.876,-59.1197 95.6574,-45.5395 56.5,-31 54.8464,-30.386 53.1568,-29.7314 51.4593,-29.0526"/>
<polygon fill="midnightblue" stroke="midnightblue" points="52.4198,-25.6599 41.8446,-25.0144 49.7091,-32.1138 52.4198,-25.6599"/>
</g>
<!-- Node16&#45;&gt;Node5 -->
<g id="edge29" class="edge"><title>Node16&#45;&gt;Node5</title>
<path fill="none" stroke="midnightblue" d="M242.178,-72.8959C315.204,-66.785 478.282,-51.945 614.5,-31 622.048,-29.8394 630.002,-28.4419 637.771,-26.9787"/>
<polygon fill="midnightblue" stroke="midnightblue" points="638.677,-30.3683 647.83,-25.0317 637.347,-23.4959 638.677,-30.3683"/>
</g>
<!-- Node16&#45;&gt;Node14 -->
<g id="edge26" class="edge"><title>Node16&#45;&gt;Node14</title>
<path fill="none" stroke="midnightblue" d="M216.825,-67.4751C231.88,-57.8431 256.616,-42.0175 274.537,-30.5517"/>
<polygon fill="midnightblue" stroke="midnightblue" points="276.663,-33.3466 283.2,-25.0091 272.89,-27.4501 276.663,-33.3466"/>
</g>
<!-- Node17 -->
<g id="node17" class="node"><title>Node17</title>
<polygon fill="white" stroke="#bfbfbf" points="65.5,-6 65.5,-25 127.5,-25 127.5,-6 65.5,-6"/>
<text text-anchor="middle" x="96.5" y="-13" font-family="Helvetica,sans-Serif" font-size="10.00">algorithm</text>
</g>
<!-- Node16&#45;&gt;Node17 -->
<g id="edge24" class="edge"><title>Node16&#45;&gt;Node17</title>
<path fill="none" stroke="midnightblue" d="M188.17,-67.4751C170.53,-57.6664 141.34,-41.4346 120.642,-29.925"/>
<polygon fill="midnightblue" stroke="midnightblue" points="122.243,-26.8102 111.802,-25.0091 118.841,-32.9279 122.243,-26.8102"/>
</g>
<!-- Node18 -->
<g id="node18" class="node"><title>Node18</title>
<polygon fill="white" stroke="#bfbfbf" points="145.5,-0.5 145.5,-30.5 257.5,-30.5 257.5,-0.5 145.5,-0.5"/>
<text text-anchor="start" x="153.5" y="-18.5" font-family="Helvetica,sans-Serif" font-size="10.00">boost/icl/continuous</text>
<text text-anchor="middle" x="201.5" y="-7.5" font-family="Helvetica,sans-Serif" font-size="10.00">_interval.hpp</text>
</g>
<!-- Node16&#45;&gt;Node18 -->
<g id="edge28" class="edge"><title>Node16&#45;&gt;Node18</title>
<path fill="none" stroke="midnightblue" d="M203.213,-67.4751C202.978,-60.471 202.633,-50.1919 202.313,-40.6956"/>
<polygon fill="midnightblue" stroke="midnightblue" points="205.805,-40.3997 201.971,-30.523 198.809,-40.6349 205.805,-40.3997"/>
</g>
</g>
</svg>
        <g id="navigator" transform="translate(0 0)" fill="#404254">
                <rect fill="#f2f5e9" fill-opacity="0.5" stroke="#606060" stroke-width=".5" x="0" y="0" width="60" height="60"/>
                <use id="zoomplus" xlink:href="#zoomPlus" x="17" y="9" onmousedown="handleZoom(evt,'in')"/>
                <use id="zoomminus" xlink:href="#zoomMin" x="42" y="9" onmousedown="handleZoom(evt,'out')"/>
                <use id="reset" xlink:href="#resetDef" x="30" y="36" onmousedown="handleReset()"/>
                <g id="arrowUp" xlink:href="#dirArrow" transform="translate(30 24)" onmousedown="handlePan(0,-1)">
                  <use xlink:href="#rim" fill="#404040">
                        <set attributeName="fill" to="#808080" begin="arrowUp.mouseover" end="arrowUp.mouseout"/>
                  </use>
                  <path fill="none" stroke="white" stroke-width="1.5" d="M0,-3.0v7 M-2.5,-0.5L0,-3.0L2.5,-0.5"/>
                </g>
                <g id="arrowRight" xlink:href="#dirArrow" transform="rotate(90) translate(36 -43)" onmousedown="handlePan(1,0)">
                  <use xlink:href="#rim" fill="#404040">
                        <set attributeName="fill" to="#808080" begin="arrowRight.mouseover" end="arrowRight.mouseout"/>
                  </use>
                  <path fill="none" stroke="white" stroke-width="1.5" d="M0,-3.0v7 M-2.5,-0.5L0,-3.0L2.5,-0.5"/>
                </g>
                <g id="arrowDown" xlink:href="#dirArrow" transform="rotate(180) translate(-30 -48)" onmousedown="handlePan(0,1)">
                  <use xlink:href="#rim" fill="#404040">
                        <set attributeName="fill" to="#808080" begin="arrowDown.mouseover" end="arrowDown.mouseout"/>
                  </use>
                  <path fill="none" stroke="white" stroke-width="1.5" d="M0,-3.0v7 M-2.5,-0.5L0,-3.0L2.5,-0.5"/>
                </g>
                <g id="arrowLeft" xlink:href="#dirArrow" transform="rotate(270) translate(-36 17)" onmousedown="handlePan(-1,0)">
                  <use xlink:href="#rim" fill="#404040">
                        <set attributeName="fill" to="#808080" begin="arrowLeft.mouseover" end="arrowLeft.mouseout"/>
                  </use>
                  <path fill="none" stroke="white" stroke-width="1.5" d="M0,-3.0v7 M-2.5,-0.5L0,-3.0L2.5,-0.5"/>
                </g>
        </g>
        <svg viewBox="0 0 15 15" width="100%" height="30px" preserveAspectRatio="xMaxYMin meet">
         <g id="arrow_out" transform="scale(0.3 0.3)">
          <a xlink:href="instruction_8h__incl_org.svg" target="_base">
           <rect id="button" ry="5" rx="5" y="6" x="6" height="38" width="38"
                fill="#f2f5e9" fill-opacity="0.5" stroke="#606060" stroke-width="1.0"/>
           <path id="arrow"
             d="M 11.500037,31.436501 C 11.940474,20.09759 22.043105,11.32322 32.158766,21.979434 L 37.068811,17.246167 C 37.068811,17.246167 37.088388,32 37.088388,32 L 22.160133,31.978069 C 22.160133,31.978069 26.997745,27.140456 26.997745,27.140456 C 18.528582,18.264221 13.291696,25.230495 11.500037,31.436501 z"
             style="fill:#404040;"/>
          </a>
         </g>
        </svg>
</svg>
