<?xml version="1.0" encoding="UTF-8" standalone="no"?>
<!DOCTYPE svg PUBLIC "-//W3C//DTD SVG 1.1//EN"
 "http://www.w3.org/Graphics/SVG/1.1/DTD/svg11.dtd">
<!-- Generated by graphviz version 2.38.0 (20140413.2041)
 -->
<!-- Title: %3 Pages: 1 -->
<svg width="1518pt" height="1196pt"
 viewBox="0.00 0.00 1517.94 1196.00" xmlns="http://www.w3.org/2000/svg" xmlns:xlink="http://www.w3.org/1999/xlink">
<g id="graph0" class="graph" transform="scale(1 1) rotate(0) translate(4 1192)">
<title>%3</title>
<polygon fill="white" stroke="none" points="-4,4 -4,-1192 1513.94,-1192 1513.94,4 -4,4"/>
<!-- xml -->
<g id="node1" class="node"><title>xml</title>
<ellipse fill="none" stroke="black" cx="1326.64" cy="-522" rx="27.8951" ry="18"/>
<text text-anchor="middle" x="1326.64" y="-518.3" font-family="Times,serif" font-size="14.00">xml</text>
</g>
<!-- error -->
<g id="node12" class="node"><title>error</title>
<ellipse fill="none" stroke="black" cx="1191.64" cy="-90" rx="34.394" ry="18"/>
<text text-anchor="middle" x="1191.64" y="-86.3" font-family="Times,serif" font-size="14.00">error</text>
</g>
<!-- xml&#45;&gt;error -->
<g id="edge1" class="edge"><title>xml&#45;&gt;error</title>
<path fill="none" stroke="black" d="M1330.4,-504.049C1335.94,-477.521 1345.64,-424.517 1345.64,-379 1345.64,-379 1345.64,-379 1345.64,-233 1345.64,-169.34 1273.64,-126.345 1228.1,-105.52"/>
<polygon fill="black" stroke="black" points="1229.38,-102.26 1218.82,-101.413 1226.55,-108.661 1229.38,-102.26"/>
</g>
<!-- LibXML -->
<g id="node47" class="node"><title>LibXML</title>
<ellipse fill="none" stroke="black" cx="1268.64" cy="-450" rx="48.9926" ry="18"/>
<text text-anchor="middle" x="1268.64" y="-446.3" font-family="Times,serif" font-size="14.00">LibXML</text>
</g>
<!-- xml&#45;&gt;LibXML -->
<g id="edge2" class="edge"><title>xml&#45;&gt;LibXML</title>
<path fill="none" stroke="black" d="M1314.06,-505.811C1306.7,-496.927 1297.23,-485.504 1288.85,-475.388"/>
<polygon fill="black" stroke="black" points="1291.5,-473.095 1282.42,-467.628 1286.11,-477.561 1291.5,-473.095"/>
</g>
<!-- expression/conditional -->
<g id="node2" class="node"><title>expression/conditional</title>
<ellipse fill="none" stroke="black" cx="1046.64" cy="-234" rx="115.88" ry="18"/>
<text text-anchor="middle" x="1046.64" y="-230.3" font-family="Times,serif" font-size="14.00">expression/conditional</text>
</g>
<!-- expression -->
<g id="node36" class="node"><title>expression</title>
<ellipse fill="none" stroke="black" cx="638.644" cy="-162" rx="61.1893" ry="18"/>
<text text-anchor="middle" x="638.644" y="-158.3" font-family="Times,serif" font-size="14.00">expression</text>
</g>
<!-- expression/conditional&#45;&gt;expression -->
<g id="edge3" class="edge"><title>expression/conditional&#45;&gt;expression</title>
<path fill="none" stroke="black" d="M971.811,-220.161C893.701,-206.76 772.674,-185.995 700,-173.527"/>
<polygon fill="black" stroke="black" points="700.523,-170.065 690.075,-171.824 699.34,-176.965 700.523,-170.065"/>
</g>
<!-- scram -->
<g id="node3" class="node"><title>scram</title>
<ellipse fill="none" stroke="black" cx="942.644" cy="-1170" rx="39.7935" ry="18"/>
<text text-anchor="middle" x="942.644" y="-1166.3" font-family="Times,serif" font-size="14.00">scram</text>
</g>
<!-- serialization -->
<g id="node11" class="node"><title>serialization</title>
<ellipse fill="none" stroke="black" cx="161.644" cy="-594" rx="67.6881" ry="18"/>
<text text-anchor="middle" x="161.644" y="-590.3" font-family="Times,serif" font-size="14.00">serialization</text>
</g>
<!-- scram&#45;&gt;serialization -->
<g id="edge5" class="edge"><title>scram&#45;&gt;serialization</title>
<path fill="none" stroke="black" d="M903.582,-1166.58C738.142,-1155.83 103.644,-1109.22 103.644,-1027 103.644,-1027 103.644,-1027 103.644,-737 103.644,-693.695 127.048,-648.109 144.122,-620.613"/>
<polygon fill="black" stroke="black" points="147.184,-622.321 149.627,-612.011 141.288,-618.548 147.184,-622.321"/>
</g>
<!-- config -->
<g id="node15" class="node"><title>config</title>
<ellipse fill="none" stroke="black" cx="1459.64" cy="-594" rx="38.9931" ry="18"/>
<text text-anchor="middle" x="1459.64" y="-590.3" font-family="Times,serif" font-size="14.00">config</text>
</g>
<!-- scram&#45;&gt;config -->
<g id="edge4" class="edge"><title>scram&#45;&gt;config</title>
<path fill="none" stroke="black" d="M981.852,-1166.67C1102.27,-1158.47 1458.64,-1125.84 1458.64,-1027 1458.64,-1027 1458.64,-1027 1458.64,-737 1458.64,-696.995 1459.05,-650.652 1459.34,-622.079"/>
<polygon fill="black" stroke="black" points="1462.84,-622.086 1459.45,-612.049 1455.84,-622.011 1462.84,-622.086"/>
</g>
<!-- initializer -->
<g id="node24" class="node"><title>initializer</title>
<ellipse fill="none" stroke="black" cx="1109.64" cy="-594" rx="55.4913" ry="18"/>
<text text-anchor="middle" x="1109.64" y="-590.3" font-family="Times,serif" font-size="14.00">initializer</text>
</g>
<!-- scram&#45;&gt;initializer -->
<g id="edge7" class="edge"><title>scram&#45;&gt;initializer</title>
<path fill="none" stroke="black" d="M963.37,-1154.65C1003.19,-1125.64 1089.33,-1055.62 1121.64,-972 1169.29,-848.722 1134.35,-685.504 1117.43,-621.943"/>
<polygon fill="black" stroke="black" points="1120.71,-620.661 1114.69,-611.939 1113.96,-622.508 1120.71,-620.661"/>
</g>
<!-- reporter -->
<g id="node42" class="node"><title>reporter</title>
<ellipse fill="none" stroke="black" cx="706.644" cy="-1098" rx="50.0912" ry="18"/>
<text text-anchor="middle" x="706.644" y="-1094.3" font-family="Times,serif" font-size="14.00">reporter</text>
</g>
<!-- scram&#45;&gt;reporter -->
<g id="edge6" class="edge"><title>scram&#45;&gt;reporter</title>
<path fill="none" stroke="black" d="M910.324,-1159.41C869.867,-1147.41 800.254,-1126.77 753.837,-1113"/>
<polygon fill="black" stroke="black" points="754.597,-1109.57 744.015,-1110.08 752.607,-1116.28 754.597,-1109.57"/>
</g>
<!-- substitution -->
<g id="node4" class="node"><title>substitution</title>
<ellipse fill="none" stroke="black" cx="740.644" cy="-378" rx="66.8882" ry="18"/>
<text text-anchor="middle" x="740.644" y="-374.3" font-family="Times,serif" font-size="14.00">substitution</text>
</g>
<!-- event -->
<g id="node33" class="node"><title>event</title>
<ellipse fill="none" stroke="black" cx="754.644" cy="-306" rx="36.2938" ry="18"/>
<text text-anchor="middle" x="754.644" y="-302.3" font-family="Times,serif" font-size="14.00">event</text>
</g>
<!-- substitution&#45;&gt;event -->
<g id="edge8" class="edge"><title>substitution&#45;&gt;event</title>
<path fill="none" stroke="black" d="M744.105,-359.697C745.648,-351.983 747.502,-342.712 749.222,-334.112"/>
<polygon fill="black" stroke="black" points="752.694,-334.597 751.223,-324.104 745.83,-333.224 752.694,-334.597"/>
</g>
<!-- expression/extern -->
<g id="node5" class="node"><title>expression/extern</title>
<ellipse fill="none" stroke="black" cx="605.644" cy="-306" rx="94.4839" ry="18"/>
<text text-anchor="middle" x="605.644" y="-302.3" font-family="Times,serif" font-size="14.00">expression/extern</text>
</g>
<!-- element -->
<g id="node22" class="node"><title>element</title>
<ellipse fill="none" stroke="black" cx="769.644" cy="-234" rx="48.1917" ry="18"/>
<text text-anchor="middle" x="769.644" y="-230.3" font-family="Times,serif" font-size="14.00">element</text>
</g>
<!-- expression/extern&#45;&gt;element -->
<g id="edge10" class="edge"><title>expression/extern&#45;&gt;element</title>
<path fill="none" stroke="black" d="M642.449,-289.291C668.439,-278.197 703.238,-263.344 729.867,-251.978"/>
<polygon fill="black" stroke="black" points="731.453,-255.107 739.276,-247.962 728.705,-248.669 731.453,-255.107"/>
</g>
<!-- expression/extern&#45;&gt;expression -->
<g id="edge9" class="edge"><title>expression/extern&#45;&gt;expression</title>
<path fill="none" stroke="black" d="M609.625,-287.871C615.274,-263.564 625.672,-218.819 632.366,-190.013"/>
<polygon fill="black" stroke="black" points="635.795,-190.722 634.649,-180.189 628.977,-189.137 635.795,-190.722"/>
</g>
<!-- version -->
<g id="node6" class="node"><title>version</title>
<ellipse fill="none" stroke="black" cx="639.644" cy="-1026" rx="44.6926" ry="18"/>
<text text-anchor="middle" x="639.644" y="-1022.3" font-family="Times,serif" font-size="14.00">version</text>
</g>
<!-- Boost -->
<g id="node7" class="node"><title>Boost</title>
<ellipse fill="none" stroke="black" cx="1421.64" cy="-18" rx="37.0935" ry="18"/>
<text text-anchor="middle" x="1421.64" y="-14.3" font-family="Times,serif" font-size="14.00">Boost</text>
</g>
<!-- instruction -->
<g id="node8" class="node"><title>instruction</title>
<ellipse fill="none" stroke="black" cx="887.644" cy="-378" rx="61.99" ry="18"/>
<text text-anchor="middle" x="887.644" y="-374.3" font-family="Times,serif" font-size="14.00">instruction</text>
</g>
<!-- instruction&#45;&gt;event -->
<g id="edge11" class="edge"><title>instruction&#45;&gt;event</title>
<path fill="none" stroke="black" d="M859.112,-361.983C838.141,-350.946 809.594,-335.921 787.641,-324.367"/>
<polygon fill="black" stroke="black" points="789.157,-321.21 778.678,-319.649 785.897,-327.404 789.157,-321.21"/>
</g>
<!-- ccf_group -->
<g id="node9" class="node"><title>ccf_group</title>
<ellipse fill="none" stroke="black" cx="598.644" cy="-378" rx="57.3905" ry="18"/>
<text text-anchor="middle" x="598.644" y="-374.3" font-family="Times,serif" font-size="14.00">ccf_group</text>
</g>
<!-- ccf_group&#45;&gt;event -->
<g id="edge13" class="edge"><title>ccf_group&#45;&gt;event</title>
<path fill="none" stroke="black" d="M630.213,-362.834C655.904,-351.306 692.161,-335.037 718.913,-323.033"/>
<polygon fill="black" stroke="black" points="720.612,-326.107 728.302,-318.82 717.746,-319.721 720.612,-326.107"/>
</g>
<!-- expression/numerical -->
<g id="node40" class="node"><title>expression/numerical</title>
<ellipse fill="none" stroke="black" cx="299.644" cy="-306" rx="110.48" ry="18"/>
<text text-anchor="middle" x="299.644" y="-302.3" font-family="Times,serif" font-size="14.00">expression/numerical</text>
</g>
<!-- ccf_group&#45;&gt;expression/numerical -->
<g id="edge12" class="edge"><title>ccf_group&#45;&gt;expression/numerical</title>
<path fill="none" stroke="black" d="M554.204,-366.596C505.555,-355.207 426.895,-336.791 369.876,-323.442"/>
<polygon fill="black" stroke="black" points="370.386,-319.967 359.851,-321.095 368.79,-326.783 370.386,-319.967"/>
</g>
<!-- xml_stream -->
<g id="node10" class="node"><title>xml_stream</title>
<ellipse fill="none" stroke="black" cx="65.6442" cy="-522" rx="65.7887" ry="18"/>
<text text-anchor="middle" x="65.6442" y="-518.3" font-family="Times,serif" font-size="14.00">xml_stream</text>
</g>
<!-- xml_stream&#45;&gt;error -->
<g id="edge14" class="edge"><title>xml_stream&#45;&gt;error</title>
<path fill="none" stroke="black" d="M55.4572,-503.844C49.8115,-493.708 43.0615,-480.458 38.6442,-468 25.1272,-429.879 19.6442,-419.447 19.6442,-379 19.6442,-379 19.6442,-379 19.6442,-233 19.6442,-117.23 932.533,-95.2025 1146.95,-91.6253"/>
<polygon fill="black" stroke="black" points="1147.26,-95.1208 1157.2,-91.4595 1147.15,-88.1217 1147.26,-95.1208"/>
</g>
<!-- serialization&#45;&gt;xml_stream -->
<g id="edge17" class="edge"><title>serialization&#45;&gt;xml_stream</title>
<path fill="none" stroke="black" d="M139.379,-576.765C126.535,-567.4 110.202,-555.49 96.1738,-545.261"/>
<polygon fill="black" stroke="black" points="97.9313,-542.211 87.7891,-539.147 93.807,-547.867 97.9313,-542.211"/>
</g>
<!-- model -->
<g id="node27" class="node"><title>model</title>
<ellipse fill="none" stroke="black" cx="911.644" cy="-522" rx="38.9931" ry="18"/>
<text text-anchor="middle" x="911.644" y="-518.3" font-family="Times,serif" font-size="14.00">model</text>
</g>
<!-- serialization&#45;&gt;model -->
<g id="edge15" class="edge"><title>serialization&#45;&gt;model</title>
<path fill="none" stroke="black" d="M229.264,-593.801C355.42,-593.998 634.628,-588.303 863.644,-540 866.888,-539.316 870.211,-538.467 873.522,-537.517"/>
<polygon fill="black" stroke="black" points="874.836,-540.773 883.319,-534.426 872.729,-534.097 874.836,-540.773"/>
</g>
<!-- expression/exponential -->
<g id="node30" class="node"><title>expression/exponential</title>
<ellipse fill="none" stroke="black" cx="441.644" cy="-522" rx="118.079" ry="18"/>
<text text-anchor="middle" x="441.644" y="-518.3" font-family="Times,serif" font-size="14.00">expression/exponential</text>
</g>
<!-- serialization&#45;&gt;expression/exponential -->
<g id="edge16" class="edge"><title>serialization&#45;&gt;expression/exponential</title>
<path fill="none" stroke="black" d="M209.142,-581.125C254.122,-569.881 322.159,-552.871 373.028,-540.154"/>
<polygon fill="black" stroke="black" points="374.109,-543.492 382.962,-537.671 372.411,-536.701 374.109,-543.492"/>
</g>
<!-- error&#45;&gt;Boost -->
<g id="edge18" class="edge"><title>error&#45;&gt;Boost</title>
<path fill="none" stroke="black" d="M1221.81,-81.0431C1258.43,-71.2159 1321.95,-53.6283 1375.64,-36 1378.37,-35.1037 1381.18,-34.1482 1384.01,-33.1648"/>
<polygon fill="black" stroke="black" points="1385.3,-36.4188 1393.54,-29.7587 1382.95,-29.8268 1385.3,-36.4188"/>
</g>
<!-- STL -->
<g id="node13" class="node"><title>STL</title>
<ellipse fill="none" stroke="black" cx="1337.64" cy="-18" rx="28.6953" ry="18"/>
<text text-anchor="middle" x="1337.64" y="-14.3" font-family="Times,serif" font-size="14.00">STL</text>
</g>
<!-- error&#45;&gt;STL -->
<g id="edge19" class="edge"><title>error&#45;&gt;STL</title>
<path fill="none" stroke="black" d="M1216.08,-77.2836C1240.92,-65.3766 1279.47,-46.89 1306.49,-33.9378"/>
<polygon fill="black" stroke="black" points="1308.02,-37.0865 1315.52,-29.6071 1304.99,-30.7745 1308.02,-37.0865"/>
</g>
<!-- ext -->
<g id="node43" class="node"><title>ext</title>
<ellipse fill="none" stroke="black" cx="1191.64" cy="-18" rx="27" ry="18"/>
<text text-anchor="middle" x="1191.64" y="-14.3" font-family="Times,serif" font-size="14.00">ext</text>
</g>
<!-- error&#45;&gt;ext -->
<g id="edge20" class="edge"><title>error&#45;&gt;ext</title>
<path fill="none" stroke="black" d="M1191.64,-71.6966C1191.64,-63.9827 1191.64,-54.7125 1191.64,-46.1124"/>
<polygon fill="black" stroke="black" points="1195.14,-46.1043 1191.64,-36.1043 1188.14,-46.1044 1195.14,-46.1043"/>
</g>
<!-- event_tree_analysis -->
<g id="node14" class="node"><title>event_tree_analysis</title>
<ellipse fill="none" stroke="black" cx="585.644" cy="-666" rx="102.882" ry="18"/>
<text text-anchor="middle" x="585.644" y="-662.3" font-family="Times,serif" font-size="14.00">event_tree_analysis</text>
</g>
<!-- expression/test_event -->
<g id="node26" class="node"><title>expression/test_event</title>
<ellipse fill="none" stroke="black" cx="159.644" cy="-450" rx="112.38" ry="18"/>
<text text-anchor="middle" x="159.644" y="-446.3" font-family="Times,serif" font-size="14.00">expression/test_event</text>
</g>
<!-- event_tree_analysis&#45;&gt;expression/test_event -->
<g id="edge21" class="edge"><title>event_tree_analysis&#45;&gt;expression/test_event</title>
<path fill="none" stroke="black" d="M497.209,-656.812C420.726,-648.435 317.038,-633.578 281.644,-612 253.806,-595.029 202.047,-517.777 175.801,-476.763"/>
<polygon fill="black" stroke="black" points="178.625,-474.681 170.305,-468.121 172.718,-478.438 178.625,-474.681"/>
</g>
<!-- analysis -->
<g id="node34" class="node"><title>analysis</title>
<ellipse fill="none" stroke="black" cx="1230.64" cy="-594" rx="48.1917" ry="18"/>
<text text-anchor="middle" x="1230.64" y="-590.3" font-family="Times,serif" font-size="14.00">analysis</text>
</g>
<!-- event_tree_analysis&#45;&gt;analysis -->
<g id="edge23" class="edge"><title>event_tree_analysis&#45;&gt;analysis</title>
<path fill="none" stroke="black" d="M685.848,-662.06C803.561,-657.206 1004.29,-644.547 1173.64,-612 1177.75,-611.211 1181.99,-610.246 1186.2,-609.18"/>
<polygon fill="black" stroke="black" points="1187.21,-612.534 1195.95,-606.547 1185.38,-605.776 1187.21,-612.534"/>
</g>
<!-- event_tree_analysis&#45;&gt;expression/numerical -->
<g id="edge22" class="edge"><title>event_tree_analysis&#45;&gt;expression/numerical</title>
<path fill="none" stroke="black" d="M514.218,-653.046C450.427,-638.278 360.233,-606.43 314.644,-540 271.448,-477.057 283.689,-380.624 293.18,-334.04"/>
<polygon fill="black" stroke="black" points="296.636,-334.614 295.32,-324.101 289.793,-333.14 296.636,-334.614"/>
</g>
<!-- event_tree -->
<g id="node46" class="node"><title>event_tree</title>
<ellipse fill="none" stroke="black" cx="978.644" cy="-450" rx="60.3893" ry="18"/>
<text text-anchor="middle" x="978.644" y="-446.3" font-family="Times,serif" font-size="14.00">event_tree</text>
</g>
<!-- event_tree_analysis&#45;&gt;event_tree -->
<g id="edge24" class="edge"><title>event_tree_analysis&#45;&gt;event_tree</title>
<path fill="none" stroke="black" d="M680.51,-659.033C765.957,-648.446 888.708,-619.38 959.644,-540 974.567,-523.3 978.79,-497.807 979.586,-478.379"/>
<polygon fill="black" stroke="black" points="983.087,-478.35 979.722,-468.304 976.087,-478.255 983.087,-478.35"/>
</g>
<!-- config&#45;&gt;xml -->
<g id="edge27" class="edge"><title>config&#45;&gt;xml</title>
<path fill="none" stroke="black" d="M1434.94,-579.998C1412.79,-568.339 1380.23,-551.205 1356.61,-538.769"/>
<polygon fill="black" stroke="black" points="1358.19,-535.649 1347.71,-534.089 1354.93,-541.843 1358.19,-535.649"/>
</g>
<!-- env -->
<g id="node16" class="node"><title>env</title>
<ellipse fill="none" stroke="black" cx="1482.64" cy="-162" rx="27.0966" ry="18"/>
<text text-anchor="middle" x="1482.64" y="-158.3" font-family="Times,serif" font-size="14.00">env</text>
</g>
<!-- config&#45;&gt;env -->
<g id="edge26" class="edge"><title>config&#45;&gt;env</title>
<path fill="none" stroke="black" d="M1467.33,-575.907C1478.44,-549.623 1497.64,-497.447 1497.64,-451 1497.64,-451 1497.64,-451 1497.64,-305 1497.64,-264.773 1491.62,-218.49 1487.2,-189.99"/>
<polygon fill="black" stroke="black" points="1490.64,-189.311 1485.61,-179.988 1483.73,-190.415 1490.64,-189.311"/>
</g>
<!-- settings -->
<g id="node25" class="node"><title>settings</title>
<ellipse fill="none" stroke="black" cx="1230.64" cy="-522" rx="48.1917" ry="18"/>
<text text-anchor="middle" x="1230.64" y="-518.3" font-family="Times,serif" font-size="14.00">settings</text>
</g>
<!-- config&#45;&gt;settings -->
<g id="edge25" class="edge"><title>config&#45;&gt;settings</title>
<path fill="none" stroke="black" d="M1428.57,-582.929C1421.38,-580.627 1413.75,-578.209 1406.64,-576 1362.64,-562.317 1312.27,-547.205 1276.72,-536.63"/>
<polygon fill="black" stroke="black" points="1277.69,-533.267 1267.11,-533.773 1275.7,-539.977 1277.69,-533.267"/>
</g>
<!-- env&#45;&gt;Boost -->
<g id="edge28" class="edge"><title>env&#45;&gt;Boost</title>
<path fill="none" stroke="black" d="M1480.75,-143.909C1478.22,-125.464 1472.71,-95.566 1461.64,-72 1456.74,-61.5626 1449.56,-51.1897 1442.64,-42.4246"/>
<polygon fill="black" stroke="black" points="1445.22,-40.0523 1436.15,-34.5639 1439.82,-44.5058 1445.22,-40.0523"/>
</g>
<!-- env&#45;&gt;STL -->
<g id="edge29" class="edge"><title>env&#45;&gt;STL</title>
<path fill="none" stroke="black" d="M1475.72,-144.565C1466.99,-125.334 1450.43,-93.4026 1428.64,-72 1419.13,-62.6543 1390.9,-46.7465 1368.38,-34.7918"/>
<polygon fill="black" stroke="black" points="1369.94,-31.6583 1359.46,-30.1032 1366.69,-37.8543 1369.94,-31.6583"/>
</g>
<!-- expression/boolean -->
<g id="node17" class="node"><title>expression/boolean</title>
<ellipse fill="none" stroke="black" cx="1009.64" cy="-306" rx="100.182" ry="18"/>
<text text-anchor="middle" x="1009.64" y="-302.3" font-family="Times,serif" font-size="14.00">expression/boolean</text>
</g>
<!-- expression/boolean&#45;&gt;expression -->
<g id="edge30" class="edge"><title>expression/boolean&#45;&gt;expression</title>
<path fill="none" stroke="black" d="M980.553,-288.678C963.134,-278.612 940.739,-265.15 921.644,-252 900.263,-237.276 899.11,-227.105 875.644,-216 821.742,-190.49 755.056,-176.99 706.167,-170.016"/>
<polygon fill="black" stroke="black" points="706.398,-166.515 696.015,-168.625 705.447,-173.45 706.398,-166.515"/>
</g>
<!-- pdag -->
<g id="node18" class="node"><title>pdag</title>
<ellipse fill="none" stroke="black" cx="1330.64" cy="-594" rx="33.5952" ry="18"/>
<text text-anchor="middle" x="1330.64" y="-590.3" font-family="Times,serif" font-size="14.00">pdag</text>
</g>
<!-- pdag&#45;&gt;model -->
<g id="edge31" class="edge"><title>pdag&#45;&gt;model</title>
<path fill="none" stroke="black" d="M1305.53,-581.865C1299.74,-579.641 1293.55,-577.524 1287.64,-576 1166.58,-544.776 1132.25,-558.796 1008.64,-540 991.867,-537.449 973.518,-534.32 957.337,-531.446"/>
<polygon fill="black" stroke="black" points="957.517,-527.922 947.056,-529.602 956.281,-534.812 957.517,-527.922"/>
</g>
<!-- logger -->
<g id="node44" class="node"><title>logger</title>
<ellipse fill="none" stroke="black" cx="1379.64" cy="-90" rx="40.0939" ry="18"/>
<text text-anchor="middle" x="1379.64" y="-86.3" font-family="Times,serif" font-size="14.00">logger</text>
</g>
<!-- pdag&#45;&gt;logger -->
<g id="edge32" class="edge"><title>pdag&#45;&gt;logger</title>
<path fill="none" stroke="black" d="M1354.28,-580.836C1369.36,-571.738 1387.87,-557.811 1397.64,-540 1447.74,-448.745 1421.64,-411.103 1421.64,-307 1421.64,-307 1421.64,-307 1421.64,-233 1421.64,-191.145 1404.66,-145.096 1392.29,-117.114"/>
<polygon fill="black" stroke="black" points="1395.47,-115.658 1388.14,-108.007 1389.1,-118.558 1395.47,-115.658"/>
</g>
<!-- fault_tree -->
<g id="node19" class="node"><title>fault_tree</title>
<ellipse fill="none" stroke="black" cx="672.644" cy="-450" rx="55.7903" ry="18"/>
<text text-anchor="middle" x="672.644" y="-446.3" font-family="Times,serif" font-size="14.00">fault_tree</text>
</g>
<!-- fault_tree&#45;&gt;ccf_group -->
<g id="edge33" class="edge"><title>fault_tree&#45;&gt;ccf_group</title>
<path fill="none" stroke="black" d="M655.481,-432.765C645.93,-423.73 633.875,-412.326 623.327,-402.349"/>
<polygon fill="black" stroke="black" points="625.64,-399.719 615.971,-395.39 620.83,-404.804 625.64,-399.719"/>
</g>
<!-- parameter -->
<g id="node35" class="node"><title>parameter</title>
<ellipse fill="none" stroke="black" cx="1027.64" cy="-378" rx="59.5901" ry="18"/>
<text text-anchor="middle" x="1027.64" y="-374.3" font-family="Times,serif" font-size="14.00">parameter</text>
</g>
<!-- fault_tree&#45;&gt;parameter -->
<g id="edge34" class="edge"><title>fault_tree&#45;&gt;parameter</title>
<path fill="none" stroke="black" d="M721.142,-440.901C778.17,-431.172 875.59,-413.911 958.644,-396 963.568,-394.938 968.676,-393.783 973.785,-392.59"/>
<polygon fill="black" stroke="black" points="974.642,-395.984 983.562,-390.267 973.023,-389.174 974.642,-395.984"/>
</g>
<!-- alignment -->
<g id="node20" class="node"><title>alignment</title>
<ellipse fill="none" stroke="black" cx="842.644" cy="-450" rx="57.6901" ry="18"/>
<text text-anchor="middle" x="842.644" y="-446.3" font-family="Times,serif" font-size="14.00">alignment</text>
</g>
<!-- alignment&#45;&gt;instruction -->
<g id="edge35" class="edge"><title>alignment&#45;&gt;instruction</title>
<path fill="none" stroke="black" d="M853.537,-432.055C858.899,-423.715 865.472,-413.491 871.411,-404.252"/>
<polygon fill="black" stroke="black" points="874.388,-406.093 876.851,-395.789 868.499,-402.308 874.388,-406.093"/>
</g>
<!-- probability_analysis -->
<g id="node21" class="node"><title>probability_analysis</title>
<ellipse fill="none" stroke="black" cx="1005.64" cy="-882" rx="103.982" ry="18"/>
<text text-anchor="middle" x="1005.64" y="-878.3" font-family="Times,serif" font-size="14.00">probability_analysis</text>
</g>
<!-- fault_tree_analysis -->
<g id="node41" class="node"><title>fault_tree_analysis</title>
<ellipse fill="none" stroke="black" cx="1264.64" cy="-810" rx="98.5829" ry="18"/>
<text text-anchor="middle" x="1264.64" y="-806.3" font-family="Times,serif" font-size="14.00">fault_tree_analysis</text>
</g>
<!-- probability_analysis&#45;&gt;fault_tree_analysis -->
<g id="edge36" class="edge"><title>probability_analysis&#45;&gt;fault_tree_analysis</title>
<path fill="none" stroke="black" d="M1059.31,-866.496C1100.82,-855.276 1158.39,-839.718 1202.01,-827.928"/>
<polygon fill="black" stroke="black" points="1203.19,-831.234 1211.93,-825.246 1201.37,-824.476 1203.19,-831.234"/>
</g>
<!-- element&#45;&gt;error -->
<g id="edge37" class="edge"><title>element&#45;&gt;error</title>
<path fill="none" stroke="black" d="M804.178,-221.38C882.331,-195.082 1072.26,-131.172 1153.62,-103.794"/>
<polygon fill="black" stroke="black" points="1155.09,-106.994 1163.45,-100.487 1152.86,-100.359 1155.09,-106.994"/>
</g>
<!-- cycle -->
<g id="node23" class="node"><title>cycle</title>
<ellipse fill="none" stroke="black" cx="1052.64" cy="-522" rx="35.194" ry="18"/>
<text text-anchor="middle" x="1052.64" y="-518.3" font-family="Times,serif" font-size="14.00">cycle</text>
</g>
<!-- cycle&#45;&gt;parameter -->
<g id="edge39" class="edge"><title>cycle&#45;&gt;parameter</title>
<path fill="none" stroke="black" d="M1053.22,-503.734C1053.46,-485.653 1052.83,-456.528 1047.64,-432 1045.79,-423.244 1042.73,-414.016 1039.55,-405.758"/>
<polygon fill="black" stroke="black" points="1042.7,-404.208 1035.69,-396.263 1036.21,-406.845 1042.7,-404.208"/>
</g>
<!-- cycle&#45;&gt;event_tree -->
<g id="edge38" class="edge"><title>cycle&#45;&gt;event_tree</title>
<path fill="none" stroke="black" d="M1036.59,-505.811C1026.85,-496.598 1014.22,-484.654 1003.24,-474.268"/>
<polygon fill="black" stroke="black" points="1005.63,-471.71 995.96,-467.38 1000.82,-476.795 1005.63,-471.71"/>
</g>
<!-- initializer&#45;&gt;xml -->
<g id="edge40" class="edge"><title>initializer&#45;&gt;xml</title>
<path fill="none" stroke="black" d="M1151.47,-582.094C1187.84,-572.245 1241.76,-556.761 1287.64,-540 1290.16,-539.081 1292.74,-538.082 1295.33,-537.043"/>
<polygon fill="black" stroke="black" points="1296.68,-540.27 1304.56,-533.182 1293.98,-533.812 1296.68,-540.27"/>
</g>
<!-- initializer&#45;&gt;expression/conditional -->
<g id="edge41" class="edge"><title>initializer&#45;&gt;expression/conditional</title>
<path fill="none" stroke="black" d="M1119.93,-575.879C1125.61,-565.755 1132.36,-552.505 1136.64,-540 1149.69,-501.902 1153.64,-491.271 1153.64,-451 1153.64,-451 1153.64,-451 1153.64,-377 1153.64,-334.496 1144.55,-321.696 1118.64,-288 1109.51,-276.118 1097.02,-265.659 1085.01,-257.24"/>
<polygon fill="black" stroke="black" points="1086.66,-254.133 1076.4,-251.479 1082.77,-259.95 1086.66,-254.133"/>
</g>
<!-- initializer&#45;&gt;env -->
<g id="edge42" class="edge"><title>initializer&#45;&gt;env</title>
<path fill="none" stroke="black" d="M1150.12,-581.592C1157.9,-579.587 1166,-577.626 1173.64,-576 1222.96,-565.515 1360.9,-574.52 1397.64,-540 1449.02,-491.736 1473.32,-268.728 1480.38,-190.339"/>
<polygon fill="black" stroke="black" points="1483.88,-190.539 1481.27,-180.271 1476.9,-189.927 1483.88,-190.539"/>
</g>
<!-- initializer&#45;&gt;expression/boolean -->
<g id="edge43" class="edge"><title>initializer&#45;&gt;expression/boolean</title>
<path fill="none" stroke="black" d="M1113.7,-575.946C1122.4,-535.206 1138.8,-430.381 1096.64,-360 1088.37,-346.185 1074.97,-335.492 1061.15,-327.449"/>
<polygon fill="black" stroke="black" points="1062.51,-324.208 1052.05,-322.539 1059.19,-330.368 1062.51,-324.208"/>
</g>
<!-- initializer&#45;&gt;cycle -->
<g id="edge44" class="edge"><title>initializer&#45;&gt;cycle</title>
<path fill="none" stroke="black" d="M1096.14,-576.411C1088.93,-567.567 1079.95,-556.531 1072.02,-546.789"/>
<polygon fill="black" stroke="black" points="1074.69,-544.532 1065.66,-538.988 1069.26,-548.952 1074.69,-544.532"/>
</g>
<!-- initializer&#45;&gt;settings -->
<g id="edge46" class="edge"><title>initializer&#45;&gt;settings</title>
<path fill="none" stroke="black" d="M1135.6,-577.983C1153.47,-567.649 1177.37,-553.818 1196.74,-542.614"/>
<polygon fill="black" stroke="black" points="1198.65,-545.55 1205.56,-537.513 1195.15,-539.491 1198.65,-545.55"/>
</g>
<!-- initializer&#45;&gt;model -->
<g id="edge47" class="edge"><title>initializer&#45;&gt;model</title>
<path fill="none" stroke="black" d="M1073.33,-580.161C1038.73,-567.931 986.792,-549.567 951.171,-536.974"/>
<polygon fill="black" stroke="black" points="952.18,-533.619 941.585,-533.585 949.847,-540.218 952.18,-533.619"/>
</g>
<!-- initializer&#45;&gt;expression/exponential -->
<g id="edge45" class="edge"><title>initializer&#45;&gt;expression/exponential</title>
<path fill="none" stroke="black" d="M1057.07,-588.442C960.446,-579.93 748.146,-560.607 569.644,-540 558.903,-538.76 547.665,-537.384 536.499,-535.967"/>
<polygon fill="black" stroke="black" points="536.645,-532.457 526.281,-534.656 535.755,-539.4 536.645,-532.457"/>
</g>
<!-- expression/random_deviate -->
<g id="node31" class="node"><title>expression/random_deviate</title>
<ellipse fill="none" stroke="black" cx="716.644" cy="-522" rx="138.375" ry="18"/>
<text text-anchor="middle" x="716.644" y="-518.3" font-family="Times,serif" font-size="14.00">expression/random_deviate</text>
</g>
<!-- initializer&#45;&gt;expression/random_deviate -->
<g id="edge48" class="edge"><title>initializer&#45;&gt;expression/random_deviate</title>
<path fill="none" stroke="black" d="M1062.24,-584.556C998.611,-573.223 884.387,-552.878 804.742,-538.692"/>
<polygon fill="black" stroke="black" points="805.178,-535.214 794.72,-536.907 803.951,-542.106 805.178,-535.214"/>
</g>
<!-- initializer&#45;&gt;logger -->
<g id="edge49" class="edge"><title>initializer&#45;&gt;logger</title>
<path fill="none" stroke="black" d="M1150.16,-581.764C1157.93,-579.744 1166.02,-577.732 1173.64,-576 1257.45,-556.955 1301.85,-599.738 1363.64,-540 1392.79,-511.821 1383.64,-491.542 1383.64,-451 1383.64,-451 1383.64,-451 1383.64,-233 1383.64,-192.98 1382.04,-146.641 1380.86,-118.073"/>
<polygon fill="black" stroke="black" points="1384.36,-117.887 1380.43,-108.045 1377.36,-118.184 1384.36,-117.887"/>
</g>
<!-- settings&#45;&gt;error -->
<g id="edge50" class="edge"><title>settings&#45;&gt;error</title>
<path fill="none" stroke="black" d="M1222.75,-503.928C1211.36,-477.671 1191.64,-425.53 1191.64,-379 1191.64,-379 1191.64,-379 1191.64,-233 1191.64,-192.996 1191.64,-146.653 1191.64,-118.08"/>
<polygon fill="black" stroke="black" points="1195.14,-118.049 1191.64,-108.049 1188.14,-118.049 1195.14,-118.049"/>
</g>
<!-- expression/test_event&#45;&gt;expression -->
<g id="edge51" class="edge"><title>expression/test_event&#45;&gt;expression</title>
<path fill="none" stroke="black" d="M155.494,-431.965C146.127,-388.912 128.508,-274.982 187.644,-216 214.085,-189.628 448.451,-173.26 568.468,-166.534"/>
<polygon fill="black" stroke="black" points="568.87,-170.017 578.662,-165.971 568.484,-163.028 568.87,-170.017"/>
</g>
<!-- model&#45;&gt;substitution -->
<g id="edge53" class="edge"><title>model&#45;&gt;substitution</title>
<path fill="none" stroke="black" d="M881.918,-510.104C843.109,-495.779 779.615,-471.958 775.644,-468 758.9,-451.307 749.954,-425.645 745.312,-406.159"/>
<polygon fill="black" stroke="black" points="748.725,-405.382 743.205,-396.339 741.88,-406.85 748.725,-405.382"/>
</g>
<!-- model&#45;&gt;expression/extern -->
<g id="edge55" class="edge"><title>model&#45;&gt;expression/extern</title>
<path fill="none" stroke="black" d="M882.737,-509.711C876.509,-507.576 869.913,-505.534 863.644,-504 752.041,-476.684 710.985,-518.219 607.644,-468 555.083,-442.457 506.105,-412.065 532.644,-360 539.226,-347.088 550.588,-336.585 562.415,-328.437"/>
<polygon fill="black" stroke="black" points="564.506,-331.255 571.047,-322.92 560.736,-325.356 564.506,-331.255"/>
</g>
<!-- model&#45;&gt;fault_tree -->
<g id="edge57" class="edge"><title>model&#45;&gt;fault_tree</title>
<path fill="none" stroke="black" d="M882.051,-510.156C875.988,-508.036 869.63,-505.888 863.644,-504 817.098,-489.319 763.503,-474.638 724.956,-464.463"/>
<polygon fill="black" stroke="black" points="725.559,-461.002 714.998,-461.846 723.78,-467.773 725.559,-461.002"/>
</g>
<!-- model&#45;&gt;alignment -->
<g id="edge52" class="edge"><title>model&#45;&gt;alignment</title>
<path fill="none" stroke="black" d="M895.987,-505.116C887.115,-496.116 875.845,-484.682 865.952,-474.646"/>
<polygon fill="black" stroke="black" points="868.231,-471.972 858.718,-467.307 863.246,-476.886 868.231,-471.972"/>
</g>
<!-- model&#45;&gt;expression/test_event -->
<g id="edge54" class="edge"><title>model&#45;&gt;expression/test_event</title>
<path fill="none" stroke="black" d="M883.319,-509.573C876.938,-507.393 870.132,-505.368 863.644,-504 754.947,-481.086 447.226,-464.05 276.82,-456.055"/>
<polygon fill="black" stroke="black" points="276.954,-452.558 266.802,-455.588 276.628,-459.55 276.954,-452.558"/>
</g>
<!-- model&#45;&gt;event_tree -->
<g id="edge56" class="edge"><title>model&#45;&gt;event_tree</title>
<path fill="none" stroke="black" d="M926.848,-505.116C935.339,-496.244 946.093,-485.009 955.599,-475.077"/>
<polygon fill="black" stroke="black" points="958.181,-477.442 962.567,-467.797 953.124,-472.601 958.181,-477.442"/>
</g>
<!-- risk_analysis -->
<g id="node28" class="node"><title>risk_analysis</title>
<ellipse fill="none" stroke="black" cx="773.644" cy="-1026" rx="71.4873" ry="18"/>
<text text-anchor="middle" x="773.644" y="-1022.3" font-family="Times,serif" font-size="14.00">risk_analysis</text>
</g>
<!-- risk_analysis&#45;&gt;event_tree_analysis -->
<g id="edge59" class="edge"><title>risk_analysis&#45;&gt;event_tree_analysis</title>
<path fill="none" stroke="black" d="M724.713,-1012.72C686.921,-1002.33 638.762,-986.801 624.644,-972 596.113,-942.09 597.644,-924.336 597.644,-883 597.644,-883 597.644,-883 597.644,-809 597.644,-768.853 592.823,-722.548 589.292,-694.022"/>
<polygon fill="black" stroke="black" points="592.752,-693.487 588.015,-684.01 585.809,-694.373 592.752,-693.487"/>
</g>
<!-- mocus -->
<g id="node29" class="node"><title>mocus</title>
<ellipse fill="none" stroke="black" cx="1307.64" cy="-882" rx="40.8928" ry="18"/>
<text text-anchor="middle" x="1307.64" y="-878.3" font-family="Times,serif" font-size="14.00">mocus</text>
</g>
<!-- risk_analysis&#45;&gt;mocus -->
<g id="edge62" class="edge"><title>risk_analysis&#45;&gt;mocus</title>
<path fill="none" stroke="black" d="M842.005,-1020.57C913.154,-1014.58 1027.17,-1001.09 1121.64,-972 1178.18,-954.592 1239.22,-922.579 1275.4,-902.066"/>
<polygon fill="black" stroke="black" points="1277.55,-904.87 1284.48,-896.861 1274.06,-898.796 1277.55,-904.87"/>
</g>
<!-- risk_analysis&#45;&gt;expression/random_deviate -->
<g id="edge58" class="edge"><title>risk_analysis&#45;&gt;expression/random_deviate</title>
<path fill="none" stroke="black" d="M719.667,-1014.07C696.431,-1006.4 671.468,-993.515 657.644,-972 648.995,-958.539 656.386,-951.95 657.644,-936 666.561,-822.949 682.107,-796.333 697.644,-684 704.123,-637.16 710.281,-582.457 713.749,-550.386"/>
<polygon fill="black" stroke="black" points="717.232,-550.738 714.819,-540.421 710.272,-549.99 717.232,-550.738"/>
</g>
<!-- uncertainty_analysis -->
<g id="node45" class="node"><title>uncertainty_analysis</title>
<ellipse fill="none" stroke="black" cx="773.644" cy="-954" rx="107.482" ry="18"/>
<text text-anchor="middle" x="773.644" y="-950.3" font-family="Times,serif" font-size="14.00">uncertainty_analysis</text>
</g>
<!-- risk_analysis&#45;&gt;uncertainty_analysis -->
<g id="edge60" class="edge"><title>risk_analysis&#45;&gt;uncertainty_analysis</title>
<path fill="none" stroke="black" d="M773.644,-1007.7C773.644,-999.983 773.644,-990.712 773.644,-982.112"/>
<polygon fill="black" stroke="black" points="777.144,-982.104 773.644,-972.104 770.144,-982.104 777.144,-982.104"/>
</g>
<!-- importance_analysis -->
<g id="node48" class="node"><title>importance_analysis</title>
<ellipse fill="none" stroke="black" cx="1005.64" cy="-954" rx="106.681" ry="18"/>
<text text-anchor="middle" x="1005.64" y="-950.3" font-family="Times,serif" font-size="14.00">importance_analysis</text>
</g>
<!-- risk_analysis&#45;&gt;importance_analysis -->
<g id="edge61" class="edge"><title>risk_analysis&#45;&gt;importance_analysis</title>
<path fill="none" stroke="black" d="M817.554,-1011.75C853.962,-1000.77 906.067,-985.045 946.207,-972.934"/>
<polygon fill="black" stroke="black" points="947.314,-976.256 955.877,-970.016 945.292,-969.554 947.314,-976.256"/>
</g>
<!-- zbdd -->
<g id="node32" class="node"><title>zbdd</title>
<ellipse fill="none" stroke="black" cx="1396.64" cy="-738" rx="33.2948" ry="18"/>
<text text-anchor="middle" x="1396.64" y="-734.3" font-family="Times,serif" font-size="14.00">zbdd</text>
</g>
<!-- mocus&#45;&gt;zbdd -->
<g id="edge63" class="edge"><title>mocus&#45;&gt;zbdd</title>
<path fill="none" stroke="black" d="M1331.26,-867.094C1345.24,-857.716 1362.19,-844.129 1372.64,-828 1384.78,-809.278 1390.81,-784.552 1393.8,-765.914"/>
<polygon fill="black" stroke="black" points="1397.26,-766.39 1395.19,-756 1390.33,-765.416 1397.26,-766.39"/>
</g>
<!-- expression/exponential&#45;&gt;expression -->
<g id="edge64" class="edge"><title>expression/exponential&#45;&gt;expression</title>
<path fill="none" stroke="black" d="M440.854,-503.955C439.688,-477.302 437.644,-424.132 437.644,-379 437.644,-379 437.644,-379 437.644,-305 437.644,-258.501 456.568,-245.337 492.644,-216 517.348,-195.911 550.323,-183.078 578.684,-175.082"/>
<polygon fill="black" stroke="black" points="579.749,-178.42 588.503,-172.451 577.938,-171.659 579.749,-178.42"/>
</g>
<!-- expression/random_deviate&#45;&gt;expression -->
<g id="edge65" class="edge"><title>expression/random_deviate&#45;&gt;expression</title>
<path fill="none" stroke="black" d="M634.38,-507.444C564.564,-490.684 475.644,-454.516 475.644,-379 475.644,-379 475.644,-379 475.644,-305 475.644,-242.898 543.743,-201.751 591.908,-180.416"/>
<polygon fill="black" stroke="black" points="593.436,-183.569 601.249,-176.413 590.678,-177.135 593.436,-183.569"/>
</g>
<!-- zbdd&#45;&gt;pdag -->
<g id="edge66" class="edge"><title>zbdd&#45;&gt;pdag</title>
<path fill="none" stroke="black" d="M1382.81,-721.231C1374.56,-711.152 1364.4,-697.482 1357.64,-684 1347.73,-664.209 1340.69,-640.091 1336.29,-621.957"/>
<polygon fill="black" stroke="black" points="1339.66,-621.005 1334,-612.049 1332.84,-622.58 1339.66,-621.005"/>
</g>
<!-- bdd -->
<g id="node38" class="node"><title>bdd</title>
<ellipse fill="none" stroke="black" cx="1395.64" cy="-666" rx="28.6953" ry="18"/>
<text text-anchor="middle" x="1395.64" y="-662.3" font-family="Times,serif" font-size="14.00">bdd</text>
</g>
<!-- zbdd&#45;&gt;bdd -->
<g id="edge67" class="edge"><title>zbdd&#45;&gt;bdd</title>
<path fill="none" stroke="black" d="M1390.52,-720.055C1389.58,-712.231 1389.21,-702.748 1389.44,-693.977"/>
<polygon fill="black" stroke="black" points="1392.95,-693.973 1390.02,-683.789 1385.96,-693.573 1392.95,-693.973"/>
</g>
<!-- event&#45;&gt;element -->
<g id="edge69" class="edge"><title>event&#45;&gt;element</title>
<path fill="none" stroke="black" d="M758.275,-288.055C759.945,-280.261 761.968,-270.822 763.842,-262.079"/>
<polygon fill="black" stroke="black" points="767.269,-262.787 765.942,-252.275 760.425,-261.32 767.269,-262.787"/>
</g>
<!-- event&#45;&gt;expression -->
<g id="edge68" class="edge"><title>event&#45;&gt;expression</title>
<path fill="none" stroke="black" d="M741.563,-288.987C721.394,-264.297 682.552,-216.749 658.781,-187.65"/>
<polygon fill="black" stroke="black" points="661.251,-185.142 652.214,-179.612 655.83,-189.571 661.251,-185.142"/>
</g>
<!-- analysis&#45;&gt;settings -->
<g id="edge70" class="edge"><title>analysis&#45;&gt;settings</title>
<path fill="none" stroke="black" d="M1230.64,-575.697C1230.64,-567.983 1230.64,-558.712 1230.64,-550.112"/>
<polygon fill="black" stroke="black" points="1234.14,-550.104 1230.64,-540.104 1227.14,-550.104 1234.14,-550.104"/>
</g>
<!-- parameter&#45;&gt;element -->
<g id="edge72" class="edge"><title>parameter&#45;&gt;element</title>
<path fill="none" stroke="black" d="M984.301,-365.599C934.858,-352.382 859.31,-331.457 847.644,-324 821.858,-307.517 799.672,-280.083 785.627,-260.023"/>
<polygon fill="black" stroke="black" points="788.458,-257.963 779.941,-251.661 782.669,-261.899 788.458,-257.963"/>
</g>
<!-- parameter&#45;&gt;expression -->
<g id="edge71" class="edge"><title>parameter&#45;&gt;expression</title>
<path fill="none" stroke="black" d="M984.044,-365.651C957.863,-357.264 925.02,-343.821 900.644,-324 855.499,-287.29 873.919,-249.924 826.644,-216 791.236,-190.592 743.999,-177.337 705.734,-170.437"/>
<polygon fill="black" stroke="black" points="706.15,-166.957 695.705,-168.735 704.979,-173.859 706.15,-166.957"/>
</g>
<!-- expression&#45;&gt;error -->
<g id="edge73" class="edge"><title>expression&#45;&gt;error</title>
<path fill="none" stroke="black" d="M693.69,-154.032C803.717,-140.105 1048.76,-109.086 1148.33,-96.4828"/>
<polygon fill="black" stroke="black" points="1148.86,-99.9437 1158.34,-95.2155 1147.98,-92.9991 1148.86,-99.9437"/>
</g>
<!-- preprocessor -->
<g id="node37" class="node"><title>preprocessor</title>
<ellipse fill="none" stroke="black" cx="1273.64" cy="-738" rx="72.2875" ry="18"/>
<text text-anchor="middle" x="1273.64" y="-734.3" font-family="Times,serif" font-size="14.00">preprocessor</text>
</g>
<!-- preprocessor&#45;&gt;pdag -->
<g id="edge74" class="edge"><title>preprocessor&#45;&gt;pdag</title>
<path fill="none" stroke="black" d="M1280.52,-719.871C1290.37,-695.325 1308.59,-649.938 1320.14,-621.17"/>
<polygon fill="black" stroke="black" points="1323.44,-622.332 1323.92,-611.748 1316.95,-619.725 1323.44,-622.332"/>
</g>
<!-- bdd&#45;&gt;pdag -->
<g id="edge77" class="edge"><title>bdd&#45;&gt;pdag</title>
<path fill="none" stroke="black" d="M1381.86,-650.155C1373.31,-640.944 1362.13,-628.909 1352.4,-618.432"/>
<polygon fill="black" stroke="black" points="1354.68,-615.743 1345.31,-610.797 1349.55,-620.506 1354.68,-615.743"/>
</g>
<!-- bdd&#45;&gt;settings -->
<g id="edge75" class="edge"><title>bdd&#45;&gt;settings</title>
<path fill="none" stroke="black" d="M1395.95,-647.75C1395.37,-628.039 1391.46,-595.942 1373.64,-576 1366.75,-568.286 1315,-550.243 1275.71,-537.354"/>
<polygon fill="black" stroke="black" points="1276.62,-533.969 1266.03,-534.198 1274.45,-540.625 1276.62,-533.969"/>
</g>
<!-- bdd&#45;&gt;zbdd -->
<g id="edge76" class="edge"><title>bdd&#45;&gt;zbdd</title>
<path fill="none" stroke="black" d="M1401.75,-683.789C1402.7,-691.591 1403.08,-701.067 1402.85,-709.848"/>
<polygon fill="black" stroke="black" points="1399.35,-709.875 1402.28,-720.055 1406.34,-710.267 1399.35,-709.875"/>
</g>
<!-- expression/constant -->
<g id="node39" class="node"><title>expression/constant</title>
<ellipse fill="none" stroke="black" cx="301.644" cy="-234" rx="104.782" ry="18"/>
<text text-anchor="middle" x="301.644" y="-230.3" font-family="Times,serif" font-size="14.00">expression/constant</text>
</g>
<!-- expression/constant&#45;&gt;expression -->
<g id="edge78" class="edge"><title>expression/constant&#45;&gt;expression</title>
<path fill="none" stroke="black" d="M365.825,-219.669C427.655,-206.826 520.383,-187.565 580.206,-175.138"/>
<polygon fill="black" stroke="black" points="581.167,-178.514 590.246,-173.053 579.743,-171.66 581.167,-178.514"/>
</g>
<!-- expression/numerical&#45;&gt;expression/constant -->
<g id="edge79" class="edge"><title>expression/numerical&#45;&gt;expression/constant</title>
<path fill="none" stroke="black" d="M300.139,-287.697C300.359,-279.983 300.624,-270.712 300.87,-262.112"/>
<polygon fill="black" stroke="black" points="304.368,-262.2 301.155,-252.104 297.371,-262 304.368,-262.2"/>
</g>
<!-- fault_tree_analysis&#45;&gt;zbdd -->
<g id="edge81" class="edge"><title>fault_tree_analysis&#45;&gt;zbdd</title>
<path fill="none" stroke="black" d="M1295.26,-792.765C1316.09,-781.718 1343.6,-767.129 1364.71,-755.937"/>
<polygon fill="black" stroke="black" points="1366.42,-758.99 1373.61,-751.213 1363.14,-752.806 1366.42,-758.99"/>
</g>
<!-- fault_tree_analysis&#45;&gt;analysis -->
<g id="edge82" class="edge"><title>fault_tree_analysis&#45;&gt;analysis</title>
<path fill="none" stroke="black" d="M1230.51,-792.974C1216.05,-784.242 1200.7,-771.929 1192.64,-756 1170.24,-711.679 1195.44,-653.77 1214.16,-620.855"/>
<polygon fill="black" stroke="black" points="1217.39,-622.266 1219.46,-611.876 1211.36,-618.708 1217.39,-622.266"/>
</g>
<!-- fault_tree_analysis&#45;&gt;preprocessor -->
<g id="edge80" class="edge"><title>fault_tree_analysis&#45;&gt;preprocessor</title>
<path fill="none" stroke="black" d="M1266.87,-791.697C1267.86,-783.983 1269.05,-774.712 1270.16,-766.112"/>
<polygon fill="black" stroke="black" points="1273.64,-766.469 1271.45,-756.104 1266.7,-765.576 1273.64,-766.469"/>
</g>
<!-- reporter&#45;&gt;version -->
<g id="edge85" class="edge"><title>reporter&#45;&gt;version</title>
<path fill="none" stroke="black" d="M691.105,-1080.76C682.479,-1071.75 671.599,-1060.39 662.066,-1050.43"/>
<polygon fill="black" stroke="black" points="664.543,-1047.95 655.099,-1043.15 659.486,-1052.79 664.543,-1047.95"/>
</g>
<!-- reporter&#45;&gt;xml_stream -->
<g id="edge83" class="edge"><title>reporter&#45;&gt;xml_stream</title>
<path fill="none" stroke="black" d="M656.999,-1095.11C519.129,-1088.52 141.644,-1060.82 141.644,-955 141.644,-955 141.644,-955 141.644,-881 141.644,-879.944 89.1903,-633.557 71.437,-550.197"/>
<polygon fill="black" stroke="black" points="74.8162,-549.26 69.3098,-540.209 67.9697,-550.719 74.8162,-549.26"/>
</g>
<!-- reporter&#45;&gt;risk_analysis -->
<g id="edge84" class="edge"><title>reporter&#45;&gt;risk_analysis</title>
<path fill="none" stroke="black" d="M722.184,-1080.76C730.603,-1071.97 741.17,-1060.93 750.535,-1051.14"/>
<polygon fill="black" stroke="black" points="753.338,-1053.28 757.724,-1043.63 748.281,-1048.44 753.338,-1053.28"/>
</g>
<!-- logger&#45;&gt;Boost -->
<g id="edge86" class="edge"><title>logger&#45;&gt;Boost</title>
<path fill="none" stroke="black" d="M1389.6,-72.411C1394.67,-63.9549 1400.95,-53.4944 1406.6,-44.0783"/>
<polygon fill="black" stroke="black" points="1409.62,-45.8456 1411.76,-35.4699 1403.62,-42.2441 1409.62,-45.8456"/>
</g>
<!-- logger&#45;&gt;STL -->
<g id="edge87" class="edge"><title>logger&#45;&gt;STL</title>
<path fill="none" stroke="black" d="M1369.69,-72.411C1364.54,-63.8323 1358.16,-53.1908 1352.45,-43.6695"/>
<polygon fill="black" stroke="black" points="1355.38,-41.7623 1347.24,-34.9881 1349.38,-45.3638 1355.38,-41.7623"/>
</g>
<!-- uncertainty_analysis&#45;&gt;probability_analysis -->
<g id="edge88" class="edge"><title>uncertainty_analysis&#45;&gt;probability_analysis</title>
<path fill="none" stroke="black" d="M823.414,-937.983C859.469,-927.105 908.362,-912.352 946.427,-900.867"/>
<polygon fill="black" stroke="black" points="947.793,-904.111 956.355,-897.872 945.771,-897.41 947.793,-904.111"/>
</g>
<!-- event_tree&#45;&gt;instruction -->
<g id="edge89" class="edge"><title>event_tree&#45;&gt;instruction</title>
<path fill="none" stroke="black" d="M957.538,-432.765C945.364,-423.4 929.881,-411.49 916.584,-401.261"/>
<polygon fill="black" stroke="black" points="918.696,-398.47 908.636,-395.147 914.428,-404.019 918.696,-398.47"/>
</g>
<!-- importance_analysis&#45;&gt;probability_analysis -->
<g id="edge90" class="edge"><title>importance_analysis&#45;&gt;probability_analysis</title>
<path fill="none" stroke="black" d="M1005.64,-935.697C1005.64,-927.983 1005.64,-918.712 1005.64,-910.112"/>
<polygon fill="black" stroke="black" points="1009.14,-910.104 1005.64,-900.104 1002.14,-910.104 1009.14,-910.104"/>
</g>
</g>
</svg>
