<?xml version="1.0" encoding="UTF-8" standalone="no"?>
<!DOCTYPE svg PUBLIC "-//W3C//DTD SVG 1.1//EN"
 "http://www.w3.org/Graphics/SVG/1.1/DTD/svg11.dtd">
<!-- Generated by graphviz version 2.38.0 (20140413.2041)
 -->
<!-- Title: scram::mef::Serialize Pages: 1 -->
<!--zoomable 800 -->
<svg id="main" version="1.1" xmlns="http://www.w3.org/2000/svg" xmlns:xlink="http://www.w3.org/1999/xlink" xml:space="preserve" onload="init(evt)">
<style type="text/css"><![CDATA[
.edge:hover path { stroke: red; }
.edge:hover polygon { stroke: red; fill: red; }
]]></style>
<script type="text/javascript"><![CDATA[
var edges = document.getElementsByTagName('g');
if (edges && edges.length) {
  for (var i=0;i<edges.length;i++) {
    if (edges[i].id.substr(0,4)=='edge') {
      edges[i].setAttribute('class','edge');
    }
  }
}
]]></script>
        <defs>
                <circle id="rim" cx="0" cy="0" r="7"/>
                <circle id="rim2" cx="0" cy="0" r="3.5"/>
                <g id="zoomPlus">
                        <use xlink:href="#rim" fill="#404040">
                                <set attributeName="fill" to="#808080" begin="zoomplus.mouseover" end="zoomplus.mouseout"/>
                        </use>
                        <path d="M-4,0h8M0,-4v8" fill="none" stroke="white" stroke-width="1.5" pointer-events="none"/>
                </g>
                <g id="zoomMin">
                        <use xlink:href="#rim" fill="#404040">
                                <set attributeName="fill" to="#808080" begin="zoomminus.mouseover" end="zoomminus.mouseout"/>
                        </use>
                        <path d="M-4,0h8" fill="none" stroke="white" stroke-width="1.5" pointer-events="none"/>
                </g>
                <g id="dirArrow">
                        <path fill="none" stroke="white" stroke-width="1.5" d="M0,-3.0v7 M-2.5,-0.5L0,-3.0L2.5,-0.5"/>
                </g>
               <g id="resetDef">
                       <use xlink:href="#rim2" fill="#404040">
                               <set attributeName="fill" to="#808080" begin="reset.mouseover" end="reset.mouseout"/>
                       </use>
               </g>
        </defs>

<script type="text/javascript">
var viewWidth = 661;
var viewHeight = 800;
var sectionId = 'dynsection-1';
</script>
<script xlink:href="svgpan.js"/>
<svg id="graph" class="graph">
<g id="viewport">
<title>scram::mef::Serialize</title>
<polygon fill="white" stroke="none" points="-4,4 -4,-796 657,-796 657,4 -4,4"/>
<!-- Node1 -->
<g id="node1" class="node"><title>Node1</title>
<polygon fill="#bfbfbf" stroke="black" points="0,-396 0,-415 118,-415 118,-396 0,-396"/>
<text text-anchor="middle" x="59" y="-403" font-family="Helvetica,sans-Serif" font-size="10.00">scram::mef::Serialize</text>
</g>
<!-- Node1&#45;&gt;Node1 -->
<g id="edge22" class="edge"><title>Node1&#45;&gt;Node1</title>
<path fill="none" stroke="midnightblue" d="M32.7981,-415.257C20.0512,-424.065 28.7852,-433.5 59,-433.5 79.3006,-433.5 89.9044,-429.241 90.8114,-423.775"/>
<polygon fill="midnightblue" stroke="midnightblue" points="93.6252,-421.684 85.2019,-415.257 87.7791,-425.534 93.6252,-421.684"/>
</g>
<!-- Node2 -->
<g id="node2" class="node"><title>Node2</title>
<g id="a_node2"><a xlink:href="classscram_1_1xml_1_1StreamElement.xhtml#a12256127d75537b64e53ccc1d7c0e07c" target="_top" xlink:title="Adds a child element to the element. ">
<polygon fill="white" stroke="black" points="154,-761.5 154,-791.5 306,-791.5 306,-761.5 154,-761.5"/>
<text text-anchor="start" x="162" y="-779.5" font-family="Helvetica,sans-Serif" font-size="10.00">scram::xml::StreamElement</text>
<text text-anchor="middle" x="230" y="-768.5" font-family="Helvetica,sans-Serif" font-size="10.00">::AddChild</text>
</a>
</g>
</g>
<!-- Node1&#45;&gt;Node2 -->
<g id="edge1" class="edge"><title>Node1&#45;&gt;Node2</title>
<path fill="none" stroke="midnightblue" d="M59.5327,-415.067C57.887,-459.865 56.9667,-650.983 154,-752.5 154.93,-753.473 155.899,-754.406 156.903,-755.302"/>
<polygon fill="midnightblue" stroke="midnightblue" points="155.095,-758.318 165.214,-761.457 159.261,-752.693 155.095,-758.318"/>
</g>
<!-- Node3 -->
<g id="node3" class="node"><title>Node3</title>
<g id="a_node3"><a xlink:href="classscram_1_1xml_1_1StreamElement.xhtml#ac450b33563800cd2f1ae0bc39a1df54a" target="_top" xlink:title="Adds text to the element. ">
<polygon fill="white" stroke="black" points="154,-712.5 154,-742.5 306,-742.5 306,-712.5 154,-712.5"/>
<text text-anchor="start" x="162" y="-730.5" font-family="Helvetica,sans-Serif" font-size="10.00">scram::xml::StreamElement</text>
<text text-anchor="middle" x="230" y="-719.5" font-family="Helvetica,sans-Serif" font-size="10.00">::AddText</text>
</a>
</g>
</g>
<!-- Node1&#45;&gt;Node3 -->
<g id="edge2" class="edge"><title>Node1&#45;&gt;Node3</title>
<path fill="none" stroke="midnightblue" d="M60.0322,-415.08C60.7004,-456.005 68.8265,-617.973 154,-703.5 154.95,-704.454 155.937,-705.369 156.958,-706.249"/>
<polygon fill="midnightblue" stroke="midnightblue" points="155.21,-709.303 165.371,-712.303 159.299,-703.621 155.21,-709.303"/>
</g>
<!-- Node4 -->
<g id="node4" class="node"><title>Node4</title>
<g id="a_node4"><a xlink:href="classscram_1_1mef_1_1Expression.xhtml#ac22fdb9ced7ef6942f666337b6a34110" target="_top" xlink:title="scram::mef::Expression\l::args">
<polygon fill="white" stroke="black" points="165.5,-663.5 165.5,-693.5 294.5,-693.5 294.5,-663.5 165.5,-663.5"/>
<text text-anchor="start" x="173.5" y="-681.5" font-family="Helvetica,sans-Serif" font-size="10.00">scram::mef::Expression</text>
<text text-anchor="middle" x="230" y="-670.5" font-family="Helvetica,sans-Serif" font-size="10.00">::args</text>
</a>
</g>
</g>
<!-- Node1&#45;&gt;Node4 -->
<g id="edge3" class="edge"><title>Node1&#45;&gt;Node4</title>
<path fill="none" stroke="midnightblue" d="M60.7256,-415.233C64.0012,-452.128 80.6351,-584.803 154,-654.5 155.115,-655.559 156.277,-656.572 157.479,-657.54"/>
<polygon fill="midnightblue" stroke="midnightblue" points="155.703,-660.564 165.938,-663.301 159.643,-654.779 155.703,-660.564"/>
</g>
<!-- Node5 -->
<g id="node5" class="node"><title>Node5</title>
<g id="a_node5"><a xlink:href="classscram_1_1mef_1_1Formula.xhtml#ac850fff7d56305c9cf3a29c5381b502a" target="_top" xlink:title="scram::mef::Formula\l::args">
<polygon fill="white" stroke="black" points="172,-614.5 172,-644.5 288,-644.5 288,-614.5 172,-614.5"/>
<text text-anchor="start" x="180" y="-632.5" font-family="Helvetica,sans-Serif" font-size="10.00">scram::mef::Formula</text>
<text text-anchor="middle" x="230" y="-621.5" font-family="Helvetica,sans-Serif" font-size="10.00">::args</text>
</a>
</g>
</g>
<!-- Node1&#45;&gt;Node5 -->
<g id="edge4" class="edge"><title>Node1&#45;&gt;Node5</title>
<path fill="none" stroke="midnightblue" d="M61.6914,-415.059C67.8442,-446.999 92.0167,-551.074 154,-605.5 156.701,-607.872 159.639,-610.01 162.737,-611.937"/>
<polygon fill="midnightblue" stroke="midnightblue" points="161.358,-615.17 171.823,-616.828 164.676,-609.006 161.358,-615.17"/>
</g>
<!-- Node6 -->
<g id="node6" class="node"><title>Node6</title>
<g id="a_node6"><a xlink:href="classscram_1_1mef_1_1Element.xhtml#a25474d50f8cc2c6a728c88e4c7d1b9f1" target="_top" xlink:title="scram::mef::Element\l::attributes">
<polygon fill="white" stroke="black" points="171.5,-565.5 171.5,-595.5 288.5,-595.5 288.5,-565.5 171.5,-565.5"/>
<text text-anchor="start" x="179.5" y="-583.5" font-family="Helvetica,sans-Serif" font-size="10.00">scram::mef::Element</text>
<text text-anchor="middle" x="230" y="-572.5" font-family="Helvetica,sans-Serif" font-size="10.00">::attributes</text>
</a>
</g>
</g>
<!-- Node1&#45;&gt;Node6 -->
<g id="edge5" class="edge"><title>Node1&#45;&gt;Node6</title>
<path fill="none" stroke="midnightblue" d="M63.3309,-415.272C72.9446,-442.014 103.331,-517.026 154,-556.5 156.588,-558.516 159.351,-560.366 162.231,-562.062"/>
<polygon fill="midnightblue" stroke="midnightblue" points="160.685,-565.203 171.174,-566.702 163.91,-558.989 160.685,-565.203"/>
</g>
<!-- Node7 -->
<g id="node7" class="node"><title>Node7</title>
<g id="a_node7"><a xlink:href="classscram_1_1mef_1_1Component.xhtml#a483f7a67e2197449902bddc48756e2cd" target="_top" xlink:title="scram::mef::Component\l::components">
<polygon fill="white" stroke="black" points="163,-516.5 163,-546.5 297,-546.5 297,-516.5 163,-516.5"/>
<text text-anchor="start" x="171" y="-534.5" font-family="Helvetica,sans-Serif" font-size="10.00">scram::mef::Component</text>
<text text-anchor="middle" x="230" y="-523.5" font-family="Helvetica,sans-Serif" font-size="10.00">::components</text>
</a>
</g>
</g>
<!-- Node1&#45;&gt;Node7 -->
<g id="edge6" class="edge"><title>Node1&#45;&gt;Node7</title>
<path fill="none" stroke="midnightblue" d="M67.2455,-415.247C81.7825,-434.207 116.353,-476.39 154,-501.5 160.016,-505.512 166.651,-509.125 173.412,-512.337"/>
<polygon fill="midnightblue" stroke="midnightblue" points="172.104,-515.587 182.663,-516.468 174.959,-509.195 172.104,-515.587"/>
</g>
<!-- Node11 -->
<g id="node11" class="node"><title>Node11</title>
<g id="a_node11"><a xlink:href="classscram_1_1mef_1_1Element.xhtml#adb401e2ca84aa98cb60797bec2500a81" target="_top" xlink:title="scram::mef::Element\l::name">
<polygon fill="white" stroke="black" points="536,-480.5 536,-510.5 653,-510.5 653,-480.5 536,-480.5"/>
<text text-anchor="start" x="544" y="-498.5" font-family="Helvetica,sans-Serif" font-size="10.00">scram::mef::Element</text>
<text text-anchor="middle" x="594.5" y="-487.5" font-family="Helvetica,sans-Serif" font-size="10.00">::name</text>
</a>
</g>
</g>
<!-- Node1&#45;&gt;Node11 -->
<g id="edge20" class="edge"><title>Node1&#45;&gt;Node11</title>
<path fill="none" stroke="midnightblue" d="M91.0686,-415.001C109.258,-420.251 132.758,-426.501 154,-430.5 306.08,-459.132 348.084,-440.011 500,-469.5 511.385,-471.71 523.408,-474.611 534.902,-477.673"/>
<polygon fill="midnightblue" stroke="midnightblue" points="534.269,-481.128 544.838,-480.39 536.116,-474.376 534.269,-481.128"/>
</g>
<!-- Node12 -->
<g id="node12" class="node"><title>Node12</title>
<g id="a_node12"><a xlink:href="classscram_1_1mef_1_1Component.xhtml#ad246305a79904f65b36157096464703b" target="_top" xlink:title="scram::mef::Component\l::gates">
<polygon fill="white" stroke="black" points="354,-478.5 354,-508.5 488,-508.5 488,-478.5 354,-478.5"/>
<text text-anchor="start" x="362" y="-496.5" font-family="Helvetica,sans-Serif" font-size="10.00">scram::mef::Component</text>
<text text-anchor="middle" x="421" y="-485.5" font-family="Helvetica,sans-Serif" font-size="10.00">::gates</text>
</a>
</g>
</g>
<!-- Node1&#45;&gt;Node12 -->
<g id="edge16" class="edge"><title>Node1&#45;&gt;Node12</title>
<path fill="none" stroke="midnightblue" d="M71.591,-415.044C88.5256,-428.402 121.556,-452.294 154,-463.5 215.488,-484.738 289.263,-491.72 343.504,-493.686"/>
<polygon fill="midnightblue" stroke="midnightblue" points="343.635,-497.192 353.739,-494.006 343.854,-490.195 343.635,-497.192"/>
</g>
<!-- Node13 -->
<g id="node13" class="node"><title>Node13</title>
<g id="a_node13"><a xlink:href="classscram_1_1mef_1_1Formula.xhtml#a21af442c226b3d6cb9eddcf190583453" target="_top" xlink:title="scram::mef::Formula\l::connective">
<polygon fill="white" stroke="black" points="172,-390.5 172,-420.5 288,-420.5 288,-390.5 172,-390.5"/>
<text text-anchor="start" x="180" y="-408.5" font-family="Helvetica,sans-Serif" font-size="10.00">scram::mef::Formula</text>
<text text-anchor="middle" x="230" y="-397.5" font-family="Helvetica,sans-Serif" font-size="10.00">::connective</text>
</a>
</g>
</g>
<!-- Node1&#45;&gt;Node13 -->
<g id="edge12" class="edge"><title>Node1&#45;&gt;Node13</title>
<path fill="none" stroke="midnightblue" d="M118.16,-405.5C132.144,-405.5 147.196,-405.5 161.562,-405.5"/>
<polygon fill="midnightblue" stroke="midnightblue" points="161.876,-409 171.876,-405.5 161.876,-402 161.876,-409"/>
</g>
<!-- Node14 -->
<g id="node14" class="node"><title>Node14</title>
<g id="a_node14"><a xlink:href="classscram_1_1mef_1_1BasicEvent.xhtml#ab9764640b00bcc3f7241c5bf185d8f2a" target="_top" xlink:title="Sets the expression of this basic event. ">
<polygon fill="white" stroke="black" points="165,-323.5 165,-353.5 295,-353.5 295,-323.5 165,-323.5"/>
<text text-anchor="start" x="173" y="-341.5" font-family="Helvetica,sans-Serif" font-size="10.00">scram::mef::BasicEvent</text>
<text text-anchor="middle" x="230" y="-330.5" font-family="Helvetica,sans-Serif" font-size="10.00">::expression</text>
</a>
</g>
</g>
<!-- Node1&#45;&gt;Node14 -->
<g id="edge13" class="edge"><title>Node1&#45;&gt;Node14</title>
<path fill="none" stroke="midnightblue" d="M84.2136,-395.901C109.524,-385.866 149.891,-369.863 181.58,-357.3"/>
<polygon fill="midnightblue" stroke="midnightblue" points="183.103,-360.461 191.109,-353.522 180.523,-353.954 183.103,-360.461"/>
</g>
<!-- Node15 -->
<g id="node15" class="node"><title>Node15</title>
<g id="a_node15"><a xlink:href="classscram_1_1mef_1_1Gate.xhtml#abde84a63a060e2424ab92431634f21d9" target="_top" xlink:title="scram::mef::Gate::formula">
<polygon fill="white" stroke="black" points="158.5,-285 158.5,-304 301.5,-304 301.5,-285 158.5,-285"/>
<text text-anchor="middle" x="230" y="-292" font-family="Helvetica,sans-Serif" font-size="10.00">scram::mef::Gate::formula</text>
</a>
</g>
</g>
<!-- Node1&#45;&gt;Node15 -->
<g id="edge15" class="edge"><title>Node1&#45;&gt;Node15</title>
<path fill="none" stroke="midnightblue" d="M67.1215,-395.891C81.4411,-377.27 115.648,-336.199 154,-314.5 158.765,-311.804 163.906,-309.46 169.184,-307.424"/>
<polygon fill="midnightblue" stroke="midnightblue" points="170.488,-310.677 178.781,-304.083 168.186,-304.066 170.488,-310.677"/>
</g>
<!-- Node16 -->
<g id="node16" class="node"><title>Node16</title>
<g id="a_node16"><a xlink:href="classscram_1_1mef_1_1BasicEvent.xhtml#ab6b4e5fd2ce8a81ae887902be30c2b29" target="_top" xlink:title="scram::mef::BasicEvent\l::HasExpression">
<polygon fill="white" stroke="black" points="165,-235.5 165,-265.5 295,-265.5 295,-235.5 165,-235.5"/>
<text text-anchor="start" x="173" y="-253.5" font-family="Helvetica,sans-Serif" font-size="10.00">scram::mef::BasicEvent</text>
<text text-anchor="middle" x="230" y="-242.5" font-family="Helvetica,sans-Serif" font-size="10.00">::HasExpression</text>
</a>
</g>
</g>
<!-- Node1&#45;&gt;Node16 -->
<g id="edge17" class="edge"><title>Node1&#45;&gt;Node16</title>
<path fill="none" stroke="midnightblue" d="M64.3905,-395.749C75.7026,-371.71 108.199,-309.122 154,-275.5 156.519,-273.651 159.183,-271.933 161.946,-270.338"/>
<polygon fill="midnightblue" stroke="midnightblue" points="163.765,-273.338 171.054,-265.648 160.561,-267.114 163.765,-273.338"/>
</g>
<!-- Node17 -->
<g id="node17" class="node"><title>Node17</title>
<g id="a_node17"><a xlink:href="classscram_1_1mef_1_1Element.xhtml#a87e90b86d7599c2f60d7a7b99ab52d20" target="_top" xlink:title="scram::mef::Element\l::label">
<polygon fill="white" stroke="black" points="171.5,-186.5 171.5,-216.5 288.5,-216.5 288.5,-186.5 171.5,-186.5"/>
<text text-anchor="start" x="179.5" y="-204.5" font-family="Helvetica,sans-Serif" font-size="10.00">scram::mef::Element</text>
<text text-anchor="middle" x="230" y="-193.5" font-family="Helvetica,sans-Serif" font-size="10.00">::label</text>
</a>
</g>
</g>
<!-- Node1&#45;&gt;Node17 -->
<g id="edge18" class="edge"><title>Node1&#45;&gt;Node17</title>
<path fill="none" stroke="midnightblue" d="M62.3512,-395.725C70.0455,-365.823 97.3013,-274.694 154,-226.5 156.562,-224.322 159.321,-222.332 162.215,-220.514"/>
<polygon fill="midnightblue" stroke="midnightblue" points="164.16,-223.439 171.242,-215.559 160.792,-217.303 164.16,-223.439"/>
</g>
<!-- Node18 -->
<g id="node18" class="node"><title>Node18</title>
<g id="a_node18"><a xlink:href="classscram_1_1mef_1_1Formula.xhtml#a7a1e721a74179b966543929fcaabd6af" target="_top" xlink:title="scram::mef::Formula\l::min_number">
<polygon fill="white" stroke="black" points="172,-137.5 172,-167.5 288,-167.5 288,-137.5 172,-137.5"/>
<text text-anchor="start" x="180" y="-155.5" font-family="Helvetica,sans-Serif" font-size="10.00">scram::mef::Formula</text>
<text text-anchor="middle" x="230" y="-144.5" font-family="Helvetica,sans-Serif" font-size="10.00">::min_number</text>
</a>
</g>
</g>
<!-- Node1&#45;&gt;Node18 -->
<g id="edge19" class="edge"><title>Node1&#45;&gt;Node18</title>
<path fill="none" stroke="midnightblue" d="M61.1502,-395.651C65.7606,-360.634 86.0666,-240.882 154,-177.5 156.772,-174.913 159.82,-172.594 163.05,-170.514"/>
<polygon fill="midnightblue" stroke="midnightblue" points="164.933,-173.472 171.968,-165.549 161.528,-167.356 164.933,-173.472"/>
</g>
<!-- Node19 -->
<g id="node19" class="node"><title>Node19</title>
<g id="a_node19"><a xlink:href="classscram_1_1mef_1_1Role.xhtml#aa1843c29411c29b27d79414d34525bbc" target="_top" xlink:title="scram::mef::Role::role">
<polygon fill="white" stroke="black" points="169.5,-99 169.5,-118 290.5,-118 290.5,-99 169.5,-99"/>
<text text-anchor="middle" x="230" y="-106" font-family="Helvetica,sans-Serif" font-size="10.00">scram::mef::Role::role</text>
</a>
</g>
</g>
<!-- Node1&#45;&gt;Node19 -->
<g id="edge21" class="edge"><title>Node1&#45;&gt;Node19</title>
<path fill="none" stroke="midnightblue" d="M60.1859,-395.951C61.4889,-356.584 71.8579,-205.349 154,-128.5 156.168,-126.472 158.518,-124.644 161.004,-122.998"/>
<polygon fill="midnightblue" stroke="midnightblue" points="162.849,-125.977 169.904,-118.073 159.46,-119.853 162.849,-125.977"/>
</g>
<!-- Node20 -->
<g id="node20" class="node"><title>Node20</title>
<g id="a_node20"><a xlink:href="classscram_1_1xml_1_1StreamElement.xhtml#a42273d1e66d736a9c2810fbee7dc4cb9" target="_top" xlink:title="Sets the attributes for the element. ">
<polygon fill="white" stroke="black" points="154,-49.5 154,-79.5 306,-79.5 306,-49.5 154,-49.5"/>
<text text-anchor="start" x="162" y="-67.5" font-family="Helvetica,sans-Serif" font-size="10.00">scram::xml::StreamElement</text>
<text text-anchor="middle" x="230" y="-56.5" font-family="Helvetica,sans-Serif" font-size="10.00">::SetAttribute</text>
</a>
</g>
</g>
<!-- Node1&#45;&gt;Node20 -->
<g id="edge23" class="edge"><title>Node1&#45;&gt;Node20</title>
<path fill="none" stroke="midnightblue" d="M59.8586,-395.959C59.7624,-353.698 65.0309,-181.419 154,-89.5 155.396,-88.0577 156.877,-86.6985 158.43,-85.4178"/>
<polygon fill="midnightblue" stroke="midnightblue" points="160.511,-88.2332 166.716,-79.6453 156.51,-82.4894 160.511,-88.2332"/>
</g>
<!-- Node21 -->
<g id="node21" class="node"><title>Node21</title>
<g id="a_node21"><a xlink:href="classscram_1_1mef_1_1HouseEvent.xhtml#a15ab4daf36b62127703cf610bdc80183" target="_top" xlink:title="Sets the state for House event. ">
<polygon fill="white" stroke="black" points="162.5,-0.5 162.5,-30.5 297.5,-30.5 297.5,-0.5 162.5,-0.5"/>
<text text-anchor="start" x="170.5" y="-18.5" font-family="Helvetica,sans-Serif" font-size="10.00">scram::mef::HouseEvent</text>
<text text-anchor="middle" x="230" y="-7.5" font-family="Helvetica,sans-Serif" font-size="10.00">::state</text>
</a>
</g>
</g>
<!-- Node1&#45;&gt;Node21 -->
<g id="edge24" class="edge"><title>Node1&#45;&gt;Node21</title>
<path fill="none" stroke="midnightblue" d="M61.1962,-395.968C67.9098,-343.894 102.455,-94.141 154,-39.5 154.897,-38.549 155.832,-37.6356 156.8,-36.7583"/>
<polygon fill="midnightblue" stroke="midnightblue" points="158.937,-39.5303 164.813,-30.7143 154.722,-33.9418 158.937,-39.5303"/>
</g>
<!-- Node8 -->
<g id="node8" class="node"><title>Node8</title>
<g id="a_node8"><a xlink:href="classscram_1_1mef_1_1Component.xhtml#a29871b1caf2fb961509b42872e6b5213" target="_top" xlink:title="Adds MEF constructs into this component container. ">
<polygon fill="white" stroke="black" points="342,-626 342,-645 500,-645 500,-626 342,-626"/>
<text text-anchor="middle" x="421" y="-633" font-family="Helvetica,sans-Serif" font-size="10.00">scram::mef::Component::Add</text>
</a>
</g>
</g>
<!-- Node7&#45;&gt;Node8 -->
<g id="edge7" class="edge"><title>Node7&#45;&gt;Node8</title>
<path fill="none" stroke="midnightblue" d="M290.044,-546.578C295.741,-549.357 301.182,-552.635 306,-556.5 330.258,-575.959 316.957,-598.062 342,-616.5 344.638,-618.442 347.448,-620.187 350.378,-621.756"/>
<polygon fill="midnightblue" stroke="midnightblue" points="348.923,-624.94 359.47,-625.952 351.857,-618.584 348.923,-624.94"/>
</g>
<!-- Node9 -->
<g id="node9" class="node"><title>Node9</title>
<g id="a_node9"><a xlink:href="classscram_1_1mef_1_1Component.xhtml#ab9230b43d6903a2e26bf55f7584a1f56" target="_top" xlink:title="Removes Event from the component container. ">
<polygon fill="white" stroke="black" points="354,-576.5 354,-606.5 488,-606.5 488,-576.5 354,-576.5"/>
<text text-anchor="start" x="362" y="-594.5" font-family="Helvetica,sans-Serif" font-size="10.00">scram::mef::Component</text>
<text text-anchor="middle" x="421" y="-583.5" font-family="Helvetica,sans-Serif" font-size="10.00">::Remove</text>
</a>
</g>
</g>
<!-- Node7&#45;&gt;Node9 -->
<g id="edge8" class="edge"><title>Node7&#45;&gt;Node9</title>
<path fill="none" stroke="midnightblue" d="M276.854,-546.544C296.841,-553.056 320.558,-560.724 342,-567.5 348.029,-569.405 354.326,-571.375 360.614,-573.33"/>
<polygon fill="midnightblue" stroke="midnightblue" points="359.862,-576.761 370.45,-576.377 361.934,-570.074 359.862,-576.761"/>
</g>
<!-- Node10 -->
<g id="node10" class="node"><title>Node10</title>
<g id="a_node10"><a xlink:href="classscram_1_1mef_1_1Component.xhtml#a63441da08667fe6826f3ae0c0a5a94fe" target="_top" xlink:title="Recursively traverses components to gather gates relevant to the whole component. ...">
<polygon fill="white" stroke="black" points="354,-527.5 354,-557.5 488,-557.5 488,-527.5 354,-527.5"/>
<text text-anchor="start" x="362" y="-545.5" font-family="Helvetica,sans-Serif" font-size="10.00">scram::mef::Component</text>
<text text-anchor="middle" x="421" y="-534.5" font-family="Helvetica,sans-Serif" font-size="10.00">::GatherGates</text>
</a>
</g>
</g>
<!-- Node7&#45;&gt;Node10 -->
<g id="edge9" class="edge"><title>Node7&#45;&gt;Node10</title>
<path fill="none" stroke="midnightblue" d="M297.103,-535.347C312.21,-536.226 328.384,-537.168 343.873,-538.069"/>
<polygon fill="midnightblue" stroke="midnightblue" points="343.748,-541.568 353.934,-538.655 344.155,-534.58 343.748,-541.568"/>
</g>
<!-- Node7&#45;&gt;Node12 -->
<g id="edge11" class="edge"><title>Node7&#45;&gt;Node12</title>
<path fill="none" stroke="midnightblue" d="M297.103,-518.209C312.21,-515.172 328.384,-511.92 343.873,-508.806"/>
<polygon fill="midnightblue" stroke="midnightblue" points="344.82,-512.186 353.934,-506.783 343.441,-505.323 344.82,-512.186"/>
</g>
<!-- Node10&#45;&gt;Node11 -->
<g id="edge10" class="edge"><title>Node10&#45;&gt;Node11</title>
<path fill="none" stroke="midnightblue" d="M476.735,-527.5C493.288,-522.963 511.623,-517.939 528.765,-513.241"/>
<polygon fill="midnightblue" stroke="midnightblue" points="529.977,-516.538 538.697,-510.519 528.127,-509.787 529.977,-516.538"/>
</g>
<!-- Node14&#45;&gt;Node14 -->
<g id="edge14" class="edge"><title>Node14&#45;&gt;Node14</title>
<path fill="none" stroke="midnightblue" d="M200.374,-353.659C193.23,-363.057 203.105,-372 230,-372 246.389,-372 256.458,-368.679 260.207,-363.958"/>
<polygon fill="midnightblue" stroke="midnightblue" points="263.684,-363.446 259.626,-353.659 256.695,-363.84 263.684,-363.446"/>
</g>
</g>
</svg>
        <g id="navigator" transform="translate(0 0)" fill="#404254">
                <rect fill="#f2f5e9" fill-opacity="0.5" stroke="#606060" stroke-width=".5" x="0" y="0" width="60" height="60"/>
                <use id="zoomplus" xlink:href="#zoomPlus" x="17" y="9" onmousedown="handleZoom(evt,'in')"/>
                <use id="zoomminus" xlink:href="#zoomMin" x="42" y="9" onmousedown="handleZoom(evt,'out')"/>
                <use id="reset" xlink:href="#resetDef" x="30" y="36" onmousedown="handleReset()"/>
                <g id="arrowUp" xlink:href="#dirArrow" transform="translate(30 24)" onmousedown="handlePan(0,-1)">
                  <use xlink:href="#rim" fill="#404040">
                        <set attributeName="fill" to="#808080" begin="arrowUp.mouseover" end="arrowUp.mouseout"/>
                  </use>
                  <path fill="none" stroke="white" stroke-width="1.5" d="M0,-3.0v7 M-2.5,-0.5L0,-3.0L2.5,-0.5"/>
                </g>
                <g id="arrowRight" xlink:href="#dirArrow" transform="rotate(90) translate(36 -43)" onmousedown="handlePan(1,0)">
                  <use xlink:href="#rim" fill="#404040">
                        <set attributeName="fill" to="#808080" begin="arrowRight.mouseover" end="arrowRight.mouseout"/>
                  </use>
                  <path fill="none" stroke="white" stroke-width="1.5" d="M0,-3.0v7 M-2.5,-0.5L0,-3.0L2.5,-0.5"/>
                </g>
                <g id="arrowDown" xlink:href="#dirArrow" transform="rotate(180) translate(-30 -48)" onmousedown="handlePan(0,1)">
                  <use xlink:href="#rim" fill="#404040">
                        <set attributeName="fill" to="#808080" begin="arrowDown.mouseover" end="arrowDown.mouseout"/>
                  </use>
                  <path fill="none" stroke="white" stroke-width="1.5" d="M0,-3.0v7 M-2.5,-0.5L0,-3.0L2.5,-0.5"/>
                </g>
                <g id="arrowLeft" xlink:href="#dirArrow" transform="rotate(270) translate(-36 17)" onmousedown="handlePan(-1,0)">
                  <use xlink:href="#rim" fill="#404040">
                        <set attributeName="fill" to="#808080" begin="arrowLeft.mouseover" end="arrowLeft.mouseout"/>
                  </use>
                  <path fill="none" stroke="white" stroke-width="1.5" d="M0,-3.0v7 M-2.5,-0.5L0,-3.0L2.5,-0.5"/>
                </g>
        </g>
        <svg viewBox="0 0 15 15" width="100%" height="30px" preserveAspectRatio="xMaxYMin meet">
         <g id="arrow_out" transform="scale(0.3 0.3)">
          <a xlink:href="serialization_8cc_a83f7058a5caad9ec3ffb5fd6c7d7b8f6_cgraph_org.svg" target="_base">
           <rect id="button" ry="5" rx="5" y="6" x="6" height="38" width="38"
                fill="#f2f5e9" fill-opacity="0.5" stroke="#606060" stroke-width="1.0"/>
           <path id="arrow"
             d="M 11.500037,31.436501 C 11.940474,20.09759 22.043105,11.32322 32.158766,21.979434 L 37.068811,17.246167 C 37.068811,17.246167 37.088388,32 37.088388,32 L 22.160133,31.978069 C 22.160133,31.978069 26.997745,27.140456 26.997745,27.140456 C 18.528582,18.264221 13.291696,25.230495 11.500037,31.436501 z"
             style="fill:#404040;"/>
          </a>
         </g>
        </svg>
</svg>
