<?xml version="1.0" encoding="UTF-8" standalone="no"?>
<!DOCTYPE svg PUBLIC "-//W3C//DTD SVG 1.1//EN"
 "http://www.w3.org/Graphics/SVG/1.1/DTD/svg11.dtd">
<!-- Generated by graphviz version 2.38.0 (20140413.2041)
 -->
<!-- Title: scram::mef::Serialize Pages: 1 -->
<!--zoomable 1082 -->
<svg id="main" version="1.1" xmlns="http://www.w3.org/2000/svg" xmlns:xlink="http://www.w3.org/1999/xlink" xml:space="preserve" onload="init(evt)">
<style type="text/css"><![CDATA[
.edge:hover path { stroke: red; }
.edge:hover polygon { stroke: red; fill: red; }
]]></style>
<script type="text/javascript"><![CDATA[
var edges = document.getElementsByTagName('g');
if (edges && edges.length) {
  for (var i=0;i<edges.length;i++) {
    if (edges[i].id.substr(0,4)=='edge') {
      edges[i].setAttribute('class','edge');
    }
  }
}
]]></script>
        <defs>
                <circle id="rim" cx="0" cy="0" r="7"/>
                <circle id="rim2" cx="0" cy="0" r="3.5"/>
                <g id="zoomPlus">
                        <use xlink:href="#rim" fill="#404040">
                                <set attributeName="fill" to="#808080" begin="zoomplus.mouseover" end="zoomplus.mouseout"/>
                        </use>
                        <path d="M-4,0h8M0,-4v8" fill="none" stroke="white" stroke-width="1.5" pointer-events="none"/>
                </g>
                <g id="zoomMin">
                        <use xlink:href="#rim" fill="#404040">
                                <set attributeName="fill" to="#808080" begin="zoomminus.mouseover" end="zoomminus.mouseout"/>
                        </use>
                        <path d="M-4,0h8" fill="none" stroke="white" stroke-width="1.5" pointer-events="none"/>
                </g>
                <g id="dirArrow">
                        <path fill="none" stroke="white" stroke-width="1.5" d="M0,-3.0v7 M-2.5,-0.5L0,-3.0L2.5,-0.5"/>
                </g>
               <g id="resetDef">
                       <use xlink:href="#rim2" fill="#404040">
                               <set attributeName="fill" to="#808080" begin="reset.mouseover" end="reset.mouseout"/>
                       </use>
               </g>
        </defs>

<script type="text/javascript">
var viewWidth = 815;
var viewHeight = 1082;
var sectionId = 'dynsection-3';
</script>
<script xlink:href="svgpan.js"/>
<svg id="graph" class="graph">
<g id="viewport">
<title>scram::mef::Serialize</title>
<polygon fill="white" stroke="none" points="-4,4 -4,-1078.16 811,-1078.16 811,4 -4,4"/>
<!-- Node1 -->
<g id="node1" class="node"><title>Node1</title>
<polygon fill="#bfbfbf" stroke="black" points="0,-727 0,-746 118,-746 118,-727 0,-727"/>
<text text-anchor="middle" x="59" y="-734" font-family="Helvetica,sans-Serif" font-size="10.00">scram::mef::Serialize</text>
</g>
<!-- Node2 -->
<g id="node2" class="node"><title>Node2</title>
<g id="a_node2"><a xlink:href="classscram_1_1xml_1_1StreamElement.xhtml#a12256127d75537b64e53ccc1d7c0e07c" target="_top" xlink:title="Adds a child element to the element. ">
<polygon fill="white" stroke="black" points="308,-762.5 308,-792.5 460,-792.5 460,-762.5 308,-762.5"/>
<text text-anchor="start" x="316" y="-780.5" font-family="Helvetica,sans-Serif" font-size="10.00">scram::xml::StreamElement</text>
<text text-anchor="middle" x="384" y="-769.5" font-family="Helvetica,sans-Serif" font-size="10.00">::AddChild</text>
</a>
</g>
</g>
<!-- Node1&#45;&gt;Node2 -->
<g id="edge1" class="edge"><title>Node1&#45;&gt;Node2</title>
<path fill="none" stroke="midnightblue" d="M90.1607,-746.089C108.443,-751.507 132.345,-757.897 154,-761.5 201.133,-769.341 254.343,-773.347 297.602,-775.39"/>
<polygon fill="midnightblue" stroke="midnightblue" points="297.66,-778.896 307.806,-775.845 297.972,-771.903 297.66,-778.896"/>
</g>
<!-- Node3 -->
<g id="node3" class="node"><title>Node3</title>
<g id="a_node3"><a xlink:href="classscram_1_1mef_1_1Model.xhtml#ada7804d62fc594bff7b080c680586209" target="_top" xlink:title="scram::mef::Model::\lbasic_events">
<polygon fill="white" stroke="black" points="157,-994.5 157,-1024.5 269,-1024.5 269,-994.5 157,-994.5"/>
<text text-anchor="start" x="165" y="-1012.5" font-family="Helvetica,sans-Serif" font-size="10.00">scram::mef::Model::</text>
<text text-anchor="middle" x="213" y="-1001.5" font-family="Helvetica,sans-Serif" font-size="10.00">basic_events</text>
</a>
</g>
</g>
<!-- Node1&#45;&gt;Node3 -->
<g id="edge2" class="edge"><title>Node1&#45;&gt;Node3</title>
<path fill="none" stroke="midnightblue" d="M60.9099,-746.047C64.8515,-782.27 83.5767,-912.832 154,-985.5 155.043,-986.576 156.141,-987.606 157.285,-988.591"/>
<polygon fill="midnightblue" stroke="midnightblue" points="155.261,-991.446 165.416,-994.467 159.362,-985.773 155.261,-991.446"/>
</g>
<!-- Node4 -->
<g id="node4" class="node"><title>Node4</title>
<g id="a_node4"><a xlink:href="classscram_1_1mef_1_1Model.xhtml#a5c8b03561207b374fc06dd61c0cf3ace" target="_top" xlink:title="scram::mef::Model::\lccf_groups">
<polygon fill="white" stroke="black" points="157,-945.5 157,-975.5 269,-975.5 269,-945.5 157,-945.5"/>
<text text-anchor="start" x="165" y="-963.5" font-family="Helvetica,sans-Serif" font-size="10.00">scram::mef::Model::</text>
<text text-anchor="middle" x="213" y="-952.5" font-family="Helvetica,sans-Serif" font-size="10.00">ccf_groups</text>
</a>
</g>
</g>
<!-- Node1&#45;&gt;Node4 -->
<g id="edge3" class="edge"><title>Node1&#45;&gt;Node4</title>
<path fill="none" stroke="midnightblue" d="M61.9634,-746.307C68.8215,-778.145 94.5954,-879.825 154,-936.5 155.109,-937.558 156.271,-938.572 157.477,-939.544"/>
<polygon fill="midnightblue" stroke="midnightblue" points="155.749,-942.602 165.977,-945.363 159.703,-936.826 155.749,-942.602"/>
</g>
<!-- Node5 -->
<g id="node5" class="node"><title>Node5</title>
<g id="a_node5"><a xlink:href="classscram_1_1mef_1_1Model.xhtml#a97786aaa61d59617a0b08dcd518d0d68" target="_top" xlink:title="scram::mef::Model::\levent_trees">
<polygon fill="white" stroke="black" points="157,-896.5 157,-926.5 269,-926.5 269,-896.5 157,-896.5"/>
<text text-anchor="start" x="165" y="-914.5" font-family="Helvetica,sans-Serif" font-size="10.00">scram::mef::Model::</text>
<text text-anchor="middle" x="213" y="-903.5" font-family="Helvetica,sans-Serif" font-size="10.00">event_trees</text>
</a>
</g>
</g>
<!-- Node1&#45;&gt;Node5 -->
<g id="edge4" class="edge"><title>Node1&#45;&gt;Node5</title>
<path fill="none" stroke="midnightblue" d="M63.5074,-746.055C73.5723,-772.241 105.005,-845.967 154,-887.5 155.496,-888.768 157.069,-889.977 158.7,-891.128"/>
<polygon fill="midnightblue" stroke="midnightblue" points="156.908,-894.135 167.255,-896.414 160.587,-888.18 156.908,-894.135"/>
</g>
<!-- Node6 -->
<g id="node6" class="node"><title>Node6</title>
<g id="a_node6"><a xlink:href="classscram_1_1mef_1_1Model.xhtml#a9bac9a7746026484f3dc69a3ccb2ac4a" target="_top" xlink:title="scram::mef::Model::\lfault_trees">
<polygon fill="white" stroke="black" points="157,-847.5 157,-877.5 269,-877.5 269,-847.5 157,-847.5"/>
<text text-anchor="start" x="165" y="-865.5" font-family="Helvetica,sans-Serif" font-size="10.00">scram::mef::Model::</text>
<text text-anchor="middle" x="213" y="-854.5" font-family="Helvetica,sans-Serif" font-size="10.00">fault_trees</text>
</a>
</g>
</g>
<!-- Node1&#45;&gt;Node6 -->
<g id="edge5" class="edge"><title>Node1&#45;&gt;Node6</title>
<path fill="none" stroke="midnightblue" d="M67.6995,-746.218C82.7556,-764.763 117.8,-805.736 154,-832.5 158.789,-836.04 164.054,-839.391 169.399,-842.481"/>
<polygon fill="midnightblue" stroke="midnightblue" points="167.95,-845.677 178.4,-847.421 171.318,-839.541 167.95,-845.677"/>
</g>
<!-- Node7 -->
<g id="node7" class="node"><title>Node7</title>
<g id="a_node7"><a xlink:href="classscram_1_1mef_1_1Model.xhtml#a742b8f5f989b633eeeeb192d2e793181" target="_top" xlink:title="scram::mef::Model::\lHasDefaultName">
<polygon fill="white" stroke="black" points="519,-784.5 519,-814.5 631,-814.5 631,-784.5 519,-784.5"/>
<text text-anchor="start" x="527" y="-802.5" font-family="Helvetica,sans-Serif" font-size="10.00">scram::mef::Model::</text>
<text text-anchor="middle" x="575" y="-791.5" font-family="Helvetica,sans-Serif" font-size="10.00">HasDefaultName</text>
</a>
</g>
</g>
<!-- Node1&#45;&gt;Node7 -->
<g id="edge6" class="edge"><title>Node1&#45;&gt;Node7</title>
<path fill="none" stroke="midnightblue" d="M76.017,-746.08C94.2456,-756.52 125.228,-772.883 154,-781.5 275.144,-817.784 424.707,-813.196 508.72,-806.443"/>
<polygon fill="midnightblue" stroke="midnightblue" points="509.212,-809.914 518.884,-805.589 508.626,-802.938 509.212,-809.914"/>
</g>
<!-- Node8 -->
<g id="node8" class="node"><title>Node8</title>
<g id="a_node8"><a xlink:href="classscram_1_1mef_1_1Element.xhtml#adb401e2ca84aa98cb60797bec2500a81" target="_top" xlink:title="scram::mef::Element\l::name">
<polygon fill="white" stroke="black" points="690,-751.5 690,-781.5 807,-781.5 807,-751.5 690,-751.5"/>
<text text-anchor="start" x="698" y="-769.5" font-family="Helvetica,sans-Serif" font-size="10.00">scram::mef::Element</text>
<text text-anchor="middle" x="748.5" y="-758.5" font-family="Helvetica,sans-Serif" font-size="10.00">::name</text>
</a>
</g>
</g>
<!-- Node1&#45;&gt;Node8 -->
<g id="edge10" class="edge"><title>Node1&#45;&gt;Node8</title>
<path fill="none" stroke="midnightblue" d="M61.4832,-746.012C68.9966,-792.851 104.452,-998.175 154,-1034.5 354.929,-1181.81 649.722,-876.912 727.887,-789.189"/>
<polygon fill="midnightblue" stroke="midnightblue" points="730.568,-791.441 734.565,-781.629 725.322,-786.807 730.568,-791.441"/>
</g>
<!-- Node9 -->
<g id="node9" class="node"><title>Node9</title>
<g id="a_node9"><a xlink:href="classscram_1_1mef_1_1Model.xhtml#a2ddd6d121e1ab6fbe140fc3fb449cd96" target="_top" xlink:title="scram::mef::Model::\lhouse_events">
<polygon fill="white" stroke="black" points="157,-721.5 157,-751.5 269,-751.5 269,-721.5 157,-721.5"/>
<text text-anchor="start" x="165" y="-739.5" font-family="Helvetica,sans-Serif" font-size="10.00">scram::mef::Model::</text>
<text text-anchor="middle" x="213" y="-728.5" font-family="Helvetica,sans-Serif" font-size="10.00">house_events</text>
</a>
</g>
</g>
<!-- Node1&#45;&gt;Node9 -->
<g id="edge8" class="edge"><title>Node1&#45;&gt;Node9</title>
<path fill="none" stroke="midnightblue" d="M118.332,-736.5C127.555,-736.5 137.145,-736.5 146.517,-736.5"/>
<polygon fill="midnightblue" stroke="midnightblue" points="146.574,-740 156.573,-736.5 146.573,-733 146.574,-740"/>
</g>
<!-- Node10 -->
<g id="node10" class="node"><title>Node10</title>
<g id="a_node10"><a xlink:href="classscram_1_1mef_1_1Model.xhtml#a04f7628e1d3a27295d2ac7bbdc7ab26b" target="_top" xlink:title="scram::mef::Model::\linitiating_events">
<polygon fill="white" stroke="black" points="157,-672.5 157,-702.5 269,-702.5 269,-672.5 157,-672.5"/>
<text text-anchor="start" x="165" y="-690.5" font-family="Helvetica,sans-Serif" font-size="10.00">scram::mef::Model::</text>
<text text-anchor="middle" x="213" y="-679.5" font-family="Helvetica,sans-Serif" font-size="10.00">initiating_events</text>
</a>
</g>
</g>
<!-- Node1&#45;&gt;Node10 -->
<g id="edge9" class="edge"><title>Node1&#45;&gt;Node10</title>
<path fill="none" stroke="midnightblue" d="M89.668,-726.936C108.407,-720.895 133.224,-712.895 155.606,-705.68"/>
<polygon fill="midnightblue" stroke="midnightblue" points="156.911,-708.936 165.355,-702.537 154.763,-702.274 156.911,-708.936"/>
</g>
<!-- Node11 -->
<g id="node11" class="node"><title>Node11</title>
<g id="a_node11"><a xlink:href="classscram_1_1mef_1_1Model.xhtml#a698156baa445c530089d57601e19bb35" target="_top" xlink:title="scram::mef::Model::\lparameters">
<polygon fill="white" stroke="black" points="157,-623.5 157,-653.5 269,-653.5 269,-623.5 157,-623.5"/>
<text text-anchor="start" x="165" y="-641.5" font-family="Helvetica,sans-Serif" font-size="10.00">scram::mef::Model::</text>
<text text-anchor="middle" x="213" y="-630.5" font-family="Helvetica,sans-Serif" font-size="10.00">parameters</text>
</a>
</g>
</g>
<!-- Node1&#45;&gt;Node11 -->
<g id="edge11" class="edge"><title>Node1&#45;&gt;Node11</title>
<path fill="none" stroke="midnightblue" d="M70.6298,-726.77C87.3992,-711.773 121.445,-682.734 154,-663.5 157.21,-661.604 160.59,-659.77 164.039,-658.016"/>
<polygon fill="midnightblue" stroke="midnightblue" points="165.771,-661.066 173.258,-653.57 162.731,-654.761 165.771,-661.066"/>
</g>
<!-- Node12 -->
<g id="node12" class="node"><title>Node12</title>
<g id="a_node12"><a xlink:href="classscram_1_1xml_1_1Stream.xhtml#aef4e5bae1f92709e708c515a255fb5e4" target="_top" xlink:title="Creates a root element for the document. ">
<polygon fill="white" stroke="black" points="157,-574.5 157,-604.5 269,-604.5 269,-574.5 157,-574.5"/>
<text text-anchor="start" x="165" y="-592.5" font-family="Helvetica,sans-Serif" font-size="10.00">scram::xml::Stream</text>
<text text-anchor="middle" x="213" y="-581.5" font-family="Helvetica,sans-Serif" font-size="10.00">::root</text>
</a>
</g>
</g>
<!-- Node1&#45;&gt;Node12 -->
<g id="edge12" class="edge"><title>Node1&#45;&gt;Node12</title>
<path fill="none" stroke="midnightblue" d="M65.0372,-726.806C77.3143,-704.039 110.955,-646.584 154,-613.5 155.79,-612.124 157.67,-610.814 159.615,-609.567"/>
<polygon fill="midnightblue" stroke="midnightblue" points="161.522,-612.509 168.466,-604.507 158.047,-606.432 161.522,-612.509"/>
</g>
<!-- Node13 -->
<g id="node13" class="node"><title>Node13</title>
<g id="a_node13"><a xlink:href="classscram_1_1mef_1_1Model.xhtml#a52198e362df1827d583eceed7306eb6f" target="_top" xlink:title="scram::mef::Model::\lrules">
<polygon fill="white" stroke="black" points="157,-525.5 157,-555.5 269,-555.5 269,-525.5 157,-525.5"/>
<text text-anchor="start" x="165" y="-543.5" font-family="Helvetica,sans-Serif" font-size="10.00">scram::mef::Model::</text>
<text text-anchor="middle" x="213" y="-532.5" font-family="Helvetica,sans-Serif" font-size="10.00">rules</text>
</a>
</g>
</g>
<!-- Node1&#45;&gt;Node13 -->
<g id="edge13" class="edge"><title>Node1&#45;&gt;Node13</title>
<path fill="none" stroke="midnightblue" d="M62.7392,-726.87C71.357,-698.208 100.566,-612.462 154,-564.5 155.31,-563.324 156.686,-562.201 158.114,-561.128"/>
<polygon fill="midnightblue" stroke="midnightblue" points="160.274,-563.9 166.769,-555.529 156.471,-558.023 160.274,-563.9"/>
</g>
<!-- Node14 -->
<g id="node14" class="node"><title>Node14</title>
<g id="a_node14"><a xlink:href="classscram_1_1mef_1_1Model.xhtml#afbb8bfee9de066a3341d34ef5ce885e4" target="_top" xlink:title="scram::mef::Model::\lsequences">
<polygon fill="white" stroke="black" points="157,-476.5 157,-506.5 269,-506.5 269,-476.5 157,-476.5"/>
<text text-anchor="start" x="165" y="-494.5" font-family="Helvetica,sans-Serif" font-size="10.00">scram::mef::Model::</text>
<text text-anchor="middle" x="213" y="-483.5" font-family="Helvetica,sans-Serif" font-size="10.00">sequences</text>
</a>
</g>
</g>
<!-- Node1&#45;&gt;Node14 -->
<g id="edge14" class="edge"><title>Node1&#45;&gt;Node14</title>
<path fill="none" stroke="midnightblue" d="M61.4805,-726.641C67.082,-692.636 90.006,-578.869 154,-515.5 155.089,-514.422 156.233,-513.389 157.424,-512.401"/>
<polygon fill="midnightblue" stroke="midnightblue" points="159.663,-515.106 165.848,-506.504 155.649,-509.372 159.663,-515.106"/>
</g>
<!-- Node15 -->
<g id="node15" class="node"><title>Node15</title>
<g id="a_node15"><a xlink:href="serialization_8cc.xhtml#a83f7058a5caad9ec3ffb5fd6c7d7b8f6" target="_top" xlink:title="Convenience function for serialization into a file. ">
<polygon fill="white" stroke="black" points="154,-408 154,-427 272,-427 272,-408 154,-408"/>
<text text-anchor="middle" x="213" y="-415" font-family="Helvetica,sans-Serif" font-size="10.00">scram::mef::Serialize</text>
</a>
</g>
</g>
<!-- Node1&#45;&gt;Node15 -->
<g id="edge15" class="edge"><title>Node1&#45;&gt;Node15</title>
<path fill="none" stroke="midnightblue" d="M61.4647,-726.824C67.4105,-689.988 92.4291,-556.08 154,-466.5 163.044,-453.342 176.514,-441.666 188.197,-433.015"/>
<polygon fill="midnightblue" stroke="midnightblue" points="190.537,-435.647 196.68,-427.015 186.495,-429.932 190.537,-435.647"/>
</g>
<!-- Node32 -->
<g id="node32" class="node"><title>Node32</title>
<g id="a_node32"><a xlink:href="classscram_1_1xml_1_1StreamElement.xhtml#a42273d1e66d736a9c2810fbee7dc4cb9" target="_top" xlink:title="Sets the attributes for the element. ">
<polygon fill="white" stroke="black" points="308,-0.5 308,-30.5 460,-30.5 460,-0.5 308,-0.5"/>
<text text-anchor="start" x="316" y="-18.5" font-family="Helvetica,sans-Serif" font-size="10.00">scram::xml::StreamElement</text>
<text text-anchor="middle" x="384" y="-7.5" font-family="Helvetica,sans-Serif" font-size="10.00">::SetAttribute</text>
</a>
</g>
</g>
<!-- Node1&#45;&gt;Node32 -->
<g id="edge40" class="edge"><title>Node1&#45;&gt;Node32</title>
<path fill="none" stroke="midnightblue" d="M60.2374,-726.863C62.4672,-658.366 85.1023,-242.061 308,-39.5 309.287,-38.3306 310.631,-37.2181 312.023,-36.1598"/>
<polygon fill="midnightblue" stroke="midnightblue" points="313.989,-39.0566 320.466,-30.672 310.174,-33.1875 313.989,-39.0566"/>
</g>
<!-- Node7&#45;&gt;Node8 -->
<g id="edge7" class="edge"><title>Node7&#45;&gt;Node8</title>
<path fill="none" stroke="midnightblue" d="M631.208,-788.877C646.696,-785.897 663.713,-782.622 679.837,-779.52"/>
<polygon fill="midnightblue" stroke="midnightblue" points="680.58,-782.941 689.739,-777.614 679.257,-776.067 680.58,-782.941"/>
</g>
<!-- Node15&#45;&gt;Node2 -->
<g id="edge16" class="edge"><title>Node15&#45;&gt;Node2</title>
<path fill="none" stroke="midnightblue" d="M231.279,-427.155C244.747,-435.664 262.675,-449.364 272,-466.5 332.184,-577.095 230.917,-647.944 308,-747.5 310.656,-750.931 313.766,-753.97 317.18,-756.663"/>
<polygon fill="midnightblue" stroke="midnightblue" points="315.378,-759.669 325.631,-762.338 319.281,-753.857 315.378,-759.669"/>
</g>
<!-- Node15&#45;&gt;Node8 -->
<g id="edge35" class="edge"><title>Node15&#45;&gt;Node8</title>
<path fill="none" stroke="midnightblue" d="M230.932,-427.025C244.384,-435.545 262.468,-449.327 272,-466.5 326.054,-563.881 228.212,-636.79 308,-714.5 334.114,-739.934 563.027,-756.235 679.72,-762.967"/>
<polygon fill="midnightblue" stroke="midnightblue" points="679.787,-766.476 689.97,-763.55 680.185,-759.487 679.787,-766.476"/>
</g>
<!-- Node15&#45;&gt;Node15 -->
<g id="edge37" class="edge"><title>Node15&#45;&gt;Node15</title>
<path fill="none" stroke="midnightblue" d="M189.264,-427.257C177.717,-436.065 185.629,-445.5 213,-445.5 230.962,-445.5 240.544,-441.437 241.746,-436.154"/>
<polygon fill="midnightblue" stroke="midnightblue" points="244.692,-434.253 236.736,-427.257 238.593,-437.688 244.692,-434.253"/>
</g>
<!-- Node16 -->
<g id="node16" class="node"><title>Node16</title>
<g id="a_node16"><a xlink:href="classscram_1_1xml_1_1StreamElement.xhtml#ac450b33563800cd2f1ae0bc39a1df54a" target="_top" xlink:title="Adds text to the element. ">
<polygon fill="white" stroke="black" points="308,-488.5 308,-518.5 460,-518.5 460,-488.5 308,-488.5"/>
<text text-anchor="start" x="316" y="-506.5" font-family="Helvetica,sans-Serif" font-size="10.00">scram::xml::StreamElement</text>
<text text-anchor="middle" x="384" y="-495.5" font-family="Helvetica,sans-Serif" font-size="10.00">::AddText</text>
</a>
</g>
</g>
<!-- Node15&#45;&gt;Node16 -->
<g id="edge17" class="edge"><title>Node15&#45;&gt;Node16</title>
<path fill="none" stroke="midnightblue" d="M226.466,-427.074C243.915,-440.12 276.974,-463.563 308,-478.5 312.597,-480.713 317.44,-482.811 322.361,-484.779"/>
<polygon fill="midnightblue" stroke="midnightblue" points="321.286,-488.115 331.876,-488.404 323.777,-481.573 321.286,-488.115"/>
</g>
<!-- Node17 -->
<g id="node17" class="node"><title>Node17</title>
<g id="a_node17"><a xlink:href="classscram_1_1mef_1_1Expression.xhtml#ac22fdb9ced7ef6942f666337b6a34110" target="_top" xlink:title="scram::mef::Expression\l::args">
<polygon fill="white" stroke="black" points="319.5,-439.5 319.5,-469.5 448.5,-469.5 448.5,-439.5 319.5,-439.5"/>
<text text-anchor="start" x="327.5" y="-457.5" font-family="Helvetica,sans-Serif" font-size="10.00">scram::mef::Expression</text>
<text text-anchor="middle" x="384" y="-446.5" font-family="Helvetica,sans-Serif" font-size="10.00">::args</text>
</a>
</g>
</g>
<!-- Node15&#45;&gt;Node17 -->
<g id="edge18" class="edge"><title>Node15&#45;&gt;Node17</title>
<path fill="none" stroke="midnightblue" d="M257.522,-427.028C273.219,-430.465 291.405,-434.447 308.977,-438.294"/>
<polygon fill="midnightblue" stroke="midnightblue" points="308.712,-441.819 319.229,-440.538 310.209,-434.98 308.712,-441.819"/>
</g>
<!-- Node18 -->
<g id="node18" class="node"><title>Node18</title>
<g id="a_node18"><a xlink:href="classscram_1_1mef_1_1Formula.xhtml#ac850fff7d56305c9cf3a29c5381b502a" target="_top" xlink:title="scram::mef::Formula\l::args">
<polygon fill="white" stroke="black" points="326,-390.5 326,-420.5 442,-420.5 442,-390.5 326,-390.5"/>
<text text-anchor="start" x="334" y="-408.5" font-family="Helvetica,sans-Serif" font-size="10.00">scram::mef::Formula</text>
<text text-anchor="middle" x="384" y="-397.5" font-family="Helvetica,sans-Serif" font-size="10.00">::args</text>
</a>
</g>
</g>
<!-- Node15&#45;&gt;Node18 -->
<g id="edge19" class="edge"><title>Node15&#45;&gt;Node18</title>
<path fill="none" stroke="midnightblue" d="M272.16,-413.37C286.144,-412.377 301.196,-411.309 315.562,-410.288"/>
<polygon fill="midnightblue" stroke="midnightblue" points="316.149,-413.756 325.876,-409.556 315.654,-406.773 316.149,-413.756"/>
</g>
<!-- Node19 -->
<g id="node19" class="node"><title>Node19</title>
<g id="a_node19"><a xlink:href="classscram_1_1mef_1_1Element.xhtml#a25474d50f8cc2c6a728c88e4c7d1b9f1" target="_top" xlink:title="scram::mef::Element\l::attributes">
<polygon fill="white" stroke="black" points="325.5,-341.5 325.5,-371.5 442.5,-371.5 442.5,-341.5 325.5,-341.5"/>
<text text-anchor="start" x="333.5" y="-359.5" font-family="Helvetica,sans-Serif" font-size="10.00">scram::mef::Element</text>
<text text-anchor="middle" x="384" y="-348.5" font-family="Helvetica,sans-Serif" font-size="10.00">::attributes</text>
</a>
</g>
</g>
<!-- Node15&#45;&gt;Node19 -->
<g id="edge20" class="edge"><title>Node15&#45;&gt;Node19</title>
<path fill="none" stroke="midnightblue" d="M237.019,-407.953C255.953,-400.219 283.55,-389.214 308,-380.5 313.445,-378.56 319.137,-376.605 324.846,-374.695"/>
<polygon fill="midnightblue" stroke="midnightblue" points="326.031,-377.99 334.43,-371.531 323.837,-371.342 326.031,-377.99"/>
</g>
<!-- Node20 -->
<g id="node20" class="node"><title>Node20</title>
<g id="a_node20"><a xlink:href="classscram_1_1mef_1_1Component.xhtml#a483f7a67e2197449902bddc48756e2cd" target="_top" xlink:title="scram::mef::Component\l::components">
<polygon fill="white" stroke="black" points="317,-292.5 317,-322.5 451,-322.5 451,-292.5 317,-292.5"/>
<text text-anchor="start" x="325" y="-310.5" font-family="Helvetica,sans-Serif" font-size="10.00">scram::mef::Component</text>
<text text-anchor="middle" x="384" y="-299.5" font-family="Helvetica,sans-Serif" font-size="10.00">::components</text>
</a>
</g>
</g>
<!-- Node15&#45;&gt;Node20 -->
<g id="edge21" class="edge"><title>Node15&#45;&gt;Node20</title>
<path fill="none" stroke="midnightblue" d="M222.034,-407.78C237.114,-390.132 271.45,-352.687 308,-331.5 310.988,-329.768 314.117,-328.144 317.33,-326.623"/>
<polygon fill="midnightblue" stroke="midnightblue" points="318.785,-329.807 326.559,-322.609 315.993,-323.388 318.785,-329.807"/>
</g>
<!-- Node24 -->
<g id="node24" class="node"><title>Node24</title>
<g id="a_node24"><a xlink:href="classscram_1_1mef_1_1Component.xhtml#ad246305a79904f65b36157096464703b" target="_top" xlink:title="scram::mef::Component\l::gates">
<polygon fill="white" stroke="black" points="508,-246.5 508,-276.5 642,-276.5 642,-246.5 508,-246.5"/>
<text text-anchor="start" x="516" y="-264.5" font-family="Helvetica,sans-Serif" font-size="10.00">scram::mef::Component</text>
<text text-anchor="middle" x="575" y="-253.5" font-family="Helvetica,sans-Serif" font-size="10.00">::gates</text>
</a>
</g>
</g>
<!-- Node15&#45;&gt;Node24 -->
<g id="edge31" class="edge"><title>Node15&#45;&gt;Node24</title>
<path fill="none" stroke="midnightblue" d="M217.377,-407.788C226.908,-382.024 256.716,-311.909 308,-282.5 365.408,-249.579 441.579,-246.861 497.695,-250.889"/>
<polygon fill="midnightblue" stroke="midnightblue" points="497.681,-254.399 507.93,-251.713 498.244,-247.421 497.681,-254.399"/>
</g>
<!-- Node25 -->
<g id="node25" class="node"><title>Node25</title>
<g id="a_node25"><a xlink:href="classscram_1_1mef_1_1Formula.xhtml#a21af442c226b3d6cb9eddcf190583453" target="_top" xlink:title="scram::mef::Formula\l::connective">
<polygon fill="white" stroke="black" points="326,-204.5 326,-234.5 442,-234.5 442,-204.5 326,-204.5"/>
<text text-anchor="start" x="334" y="-222.5" font-family="Helvetica,sans-Serif" font-size="10.00">scram::mef::Formula</text>
<text text-anchor="middle" x="384" y="-211.5" font-family="Helvetica,sans-Serif" font-size="10.00">::connective</text>
</a>
</g>
</g>
<!-- Node15&#45;&gt;Node25 -->
<g id="edge27" class="edge"><title>Node15&#45;&gt;Node25</title>
<path fill="none" stroke="midnightblue" d="M216.906,-407.662C225.793,-379.192 255.261,-295.811 308,-249.5 312.388,-245.647 317.333,-242.253 322.537,-239.272"/>
<polygon fill="midnightblue" stroke="midnightblue" points="324.219,-242.343 331.489,-234.636 320.999,-236.127 324.219,-242.343"/>
</g>
<!-- Node26 -->
<g id="node26" class="node"><title>Node26</title>
<g id="a_node26"><a xlink:href="classscram_1_1mef_1_1BasicEvent.xhtml#ab9764640b00bcc3f7241c5bf185d8f2a" target="_top" xlink:title="Sets the expression of this basic event. ">
<polygon fill="white" stroke="black" points="319,-137.5 319,-167.5 449,-167.5 449,-137.5 319,-137.5"/>
<text text-anchor="start" x="327" y="-155.5" font-family="Helvetica,sans-Serif" font-size="10.00">scram::mef::BasicEvent</text>
<text text-anchor="middle" x="384" y="-144.5" font-family="Helvetica,sans-Serif" font-size="10.00">::expression</text>
</a>
</g>
</g>
<!-- Node15&#45;&gt;Node26 -->
<g id="edge28" class="edge"><title>Node15&#45;&gt;Node26</title>
<path fill="none" stroke="midnightblue" d="M215.737,-407.823C222.176,-374.397 247.507,-262.148 308,-194.5 315.771,-185.81 325.783,-178.513 335.944,-172.567"/>
<polygon fill="midnightblue" stroke="midnightblue" points="337.767,-175.559 344.86,-167.689 334.408,-169.418 337.767,-175.559"/>
</g>
<!-- Node27 -->
<g id="node27" class="node"><title>Node27</title>
<g id="a_node27"><a xlink:href="classscram_1_1mef_1_1Gate.xhtml#abde84a63a060e2424ab92431634f21d9" target="_top" xlink:title="scram::mef::Gate::formula">
<polygon fill="white" stroke="black" points="312.5,-99 312.5,-118 455.5,-118 455.5,-99 312.5,-99"/>
<text text-anchor="middle" x="384" y="-106" font-family="Helvetica,sans-Serif" font-size="10.00">scram::mef::Gate::formula</text>
</a>
</g>
</g>
<!-- Node15&#45;&gt;Node27 -->
<g id="edge30" class="edge"><title>Node15&#45;&gt;Node27</title>
<path fill="none" stroke="midnightblue" d="M216.827,-407.9C231.319,-358.815 297.016,-137.789 308,-127.5 309.673,-125.933 311.456,-124.491 313.326,-123.163"/>
<polygon fill="midnightblue" stroke="midnightblue" points="315.179,-126.134 322.025,-118.048 311.631,-120.1 315.179,-126.134"/>
</g>
<!-- Node28 -->
<g id="node28" class="node"><title>Node28</title>
<g id="a_node28"><a xlink:href="classscram_1_1mef_1_1BasicEvent.xhtml#ab6b4e5fd2ce8a81ae887902be30c2b29" target="_top" xlink:title="scram::mef::BasicEvent\l::HasExpression">
<polygon fill="white" stroke="black" points="319,-49.5 319,-79.5 449,-79.5 449,-49.5 319,-49.5"/>
<text text-anchor="start" x="327" y="-67.5" font-family="Helvetica,sans-Serif" font-size="10.00">scram::mef::BasicEvent</text>
<text text-anchor="middle" x="384" y="-56.5" font-family="Helvetica,sans-Serif" font-size="10.00">::HasExpression</text>
</a>
</g>
</g>
<!-- Node15&#45;&gt;Node28 -->
<g id="edge32" class="edge"><title>Node15&#45;&gt;Node28</title>
<path fill="none" stroke="midnightblue" d="M216.804,-407.932C225.233,-379.154 251.05,-290.849 272,-217.5 288.23,-160.676 267.219,-132.269 308,-89.5 309.385,-88.0473 310.857,-86.6789 312.401,-85.3901"/>
<polygon fill="midnightblue" stroke="midnightblue" points="314.488,-88.2012 320.654,-79.5855 310.461,-82.4754 314.488,-88.2012"/>
</g>
<!-- Node29 -->
<g id="node29" class="node"><title>Node29</title>
<g id="a_node29"><a xlink:href="classscram_1_1mef_1_1Element.xhtml#a87e90b86d7599c2f60d7a7b99ab52d20" target="_top" xlink:title="scram::mef::Element\l::label">
<polygon fill="white" stroke="black" points="325.5,-674.5 325.5,-704.5 442.5,-704.5 442.5,-674.5 325.5,-674.5"/>
<text text-anchor="start" x="333.5" y="-692.5" font-family="Helvetica,sans-Serif" font-size="10.00">scram::mef::Element</text>
<text text-anchor="middle" x="384" y="-681.5" font-family="Helvetica,sans-Serif" font-size="10.00">::label</text>
</a>
</g>
</g>
<!-- Node15&#45;&gt;Node29 -->
<g id="edge33" class="edge"><title>Node15&#45;&gt;Node29</title>
<path fill="none" stroke="midnightblue" d="M230.772,-427.115C244.129,-435.69 262.163,-449.5 272,-466.5 316.798,-543.916 249.397,-596.93 308,-664.5 310.532,-667.419 313.414,-669.999 316.539,-672.278"/>
<polygon fill="midnightblue" stroke="midnightblue" points="314.946,-675.407 325.304,-677.638 318.598,-669.435 314.946,-675.407"/>
</g>
<!-- Node30 -->
<g id="node30" class="node"><title>Node30</title>
<g id="a_node30"><a xlink:href="classscram_1_1mef_1_1Formula.xhtml#a7a1e721a74179b966543929fcaabd6af" target="_top" xlink:title="scram::mef::Formula\l::min_number">
<polygon fill="white" stroke="black" points="326,-625.5 326,-655.5 442,-655.5 442,-625.5 326,-625.5"/>
<text text-anchor="start" x="334" y="-643.5" font-family="Helvetica,sans-Serif" font-size="10.00">scram::mef::Formula</text>
<text text-anchor="middle" x="384" y="-632.5" font-family="Helvetica,sans-Serif" font-size="10.00">::min_number</text>
</a>
</g>
</g>
<!-- Node15&#45;&gt;Node30 -->
<g id="edge34" class="edge"><title>Node15&#45;&gt;Node30</title>
<path fill="none" stroke="midnightblue" d="M230.254,-427.093C243.484,-435.745 261.611,-449.676 272,-466.5 307.795,-524.467 261.909,-565.33 308,-615.5 310.742,-618.485 313.85,-621.114 317.202,-623.429"/>
<polygon fill="midnightblue" stroke="midnightblue" points="315.571,-626.53 325.969,-628.562 319.108,-620.489 315.571,-626.53"/>
</g>
<!-- Node31 -->
<g id="node31" class="node"><title>Node31</title>
<g id="a_node31"><a xlink:href="classscram_1_1mef_1_1Role.xhtml#aa1843c29411c29b27d79414d34525bbc" target="_top" xlink:title="scram::mef::Role::role">
<polygon fill="white" stroke="black" points="323.5,-587 323.5,-606 444.5,-606 444.5,-587 323.5,-587"/>
<text text-anchor="middle" x="384" y="-594" font-family="Helvetica,sans-Serif" font-size="10.00">scram::mef::Role::role</text>
</a>
</g>
</g>
<!-- Node15&#45;&gt;Node31 -->
<g id="edge36" class="edge"><title>Node15&#45;&gt;Node31</title>
<path fill="none" stroke="midnightblue" d="M229.655,-427.136C242.699,-435.91 260.88,-449.991 272,-466.5 300.739,-509.164 270.628,-541.153 308,-576.5 310.157,-578.54 312.498,-580.377 314.976,-582.031"/>
<polygon fill="midnightblue" stroke="midnightblue" points="313.417,-585.169 323.857,-586.977 316.823,-579.054 313.417,-585.169"/>
</g>
<!-- Node15&#45;&gt;Node32 -->
<g id="edge38" class="edge"><title>Node15&#45;&gt;Node32</title>
<path fill="none" stroke="midnightblue" d="M217.191,-407.59C226.462,-378.579 253.887,-291.228 272,-217.5 291.257,-139.118 254.156,-99.6277 308,-39.5 308.872,-38.5261 309.784,-37.5915 310.731,-36.6946"/>
<polygon fill="midnightblue" stroke="midnightblue" points="312.892,-39.4476 318.613,-30.5304 308.58,-33.9335 312.892,-39.4476"/>
</g>
<!-- Node33 -->
<g id="node33" class="node"><title>Node33</title>
<g id="a_node33"><a xlink:href="classscram_1_1mef_1_1HouseEvent.xhtml#a15ab4daf36b62127703cf610bdc80183" target="_top" xlink:title="Sets the state for House event. ">
<polygon fill="white" stroke="black" points="316.5,-537.5 316.5,-567.5 451.5,-567.5 451.5,-537.5 316.5,-537.5"/>
<text text-anchor="start" x="324.5" y="-555.5" font-family="Helvetica,sans-Serif" font-size="10.00">scram::mef::HouseEvent</text>
<text text-anchor="middle" x="384" y="-544.5" font-family="Helvetica,sans-Serif" font-size="10.00">::state</text>
</a>
</g>
</g>
<!-- Node15&#45;&gt;Node33 -->
<g id="edge39" class="edge"><title>Node15&#45;&gt;Node33</title>
<path fill="none" stroke="midnightblue" d="M228.048,-427.251C240.575,-436.408 258.903,-450.99 272,-466.5 292.31,-490.552 283.516,-507.713 308,-527.5 310.252,-529.32 312.642,-531.009 315.132,-532.578"/>
<polygon fill="midnightblue" stroke="midnightblue" points="313.485,-535.667 323.928,-537.458 316.881,-529.546 313.485,-535.667"/>
</g>
<!-- Node21 -->
<g id="node21" class="node"><title>Node21</title>
<g id="a_node21"><a xlink:href="classscram_1_1mef_1_1Component.xhtml#a29871b1caf2fb961509b42872e6b5213" target="_top" xlink:title="Adds MEF constructs into this component container. ">
<polygon fill="white" stroke="black" points="496,-345 496,-364 654,-364 654,-345 496,-345"/>
<text text-anchor="middle" x="575" y="-352" font-family="Helvetica,sans-Serif" font-size="10.00">scram::mef::Component::Add</text>
</a>
</g>
</g>
<!-- Node20&#45;&gt;Node21 -->
<g id="edge22" class="edge"><title>Node20&#45;&gt;Node21</title>
<path fill="none" stroke="midnightblue" d="M445.32,-322.5C471.337,-328.97 501.347,-336.433 525.839,-342.523"/>
<polygon fill="midnightblue" stroke="midnightblue" points="525.074,-345.94 535.623,-344.957 526.763,-339.147 525.074,-345.94"/>
</g>
<!-- Node22 -->
<g id="node22" class="node"><title>Node22</title>
<g id="a_node22"><a xlink:href="classscram_1_1mef_1_1Component.xhtml#ab9230b43d6903a2e26bf55f7584a1f56" target="_top" xlink:title="Removes Event from the component container. ">
<polygon fill="white" stroke="black" points="508,-295.5 508,-325.5 642,-325.5 642,-295.5 508,-295.5"/>
<text text-anchor="start" x="516" y="-313.5" font-family="Helvetica,sans-Serif" font-size="10.00">scram::mef::Component</text>
<text text-anchor="middle" x="575" y="-302.5" font-family="Helvetica,sans-Serif" font-size="10.00">::Remove</text>
</a>
</g>
</g>
<!-- Node20&#45;&gt;Node22 -->
<g id="edge23" class="edge"><title>Node20&#45;&gt;Node22</title>
<path fill="none" stroke="midnightblue" d="M451.103,-308.549C466.21,-308.789 482.384,-309.046 497.873,-309.292"/>
<polygon fill="midnightblue" stroke="midnightblue" points="497.88,-312.792 507.934,-309.451 497.991,-305.793 497.88,-312.792"/>
</g>
<!-- Node23 -->
<g id="node23" class="node"><title>Node23</title>
<g id="a_node23"><a xlink:href="classscram_1_1mef_1_1Component.xhtml#a63441da08667fe6826f3ae0c0a5a94fe" target="_top" xlink:title="Recursively traverses components to gather gates relevant to the whole component. ...">
<polygon fill="white" stroke="black" points="508,-529.5 508,-559.5 642,-559.5 642,-529.5 508,-529.5"/>
<text text-anchor="start" x="516" y="-547.5" font-family="Helvetica,sans-Serif" font-size="10.00">scram::mef::Component</text>
<text text-anchor="middle" x="575" y="-536.5" font-family="Helvetica,sans-Serif" font-size="10.00">::GatherGates</text>
</a>
</g>
</g>
<!-- Node20&#45;&gt;Node23 -->
<g id="edge24" class="edge"><title>Node20&#45;&gt;Node23</title>
<path fill="none" stroke="midnightblue" d="M446.478,-322.643C451.314,-325.158 455.903,-328.087 460,-331.5 491.732,-357.933 542.105,-469.746 563.662,-519.936"/>
<polygon fill="midnightblue" stroke="midnightblue" points="560.548,-521.558 567.691,-529.384 566.987,-518.812 560.548,-521.558"/>
</g>
<!-- Node20&#45;&gt;Node24 -->
<g id="edge26" class="edge"><title>Node20&#45;&gt;Node24</title>
<path fill="none" stroke="midnightblue" d="M446.886,-292.438C464.681,-288.107 484.234,-283.348 502.556,-278.888"/>
<polygon fill="midnightblue" stroke="midnightblue" points="503.41,-282.283 512.298,-276.517 501.754,-275.482 503.41,-282.283"/>
</g>
<!-- Node23&#45;&gt;Node8 -->
<g id="edge25" class="edge"><title>Node23&#45;&gt;Node8</title>
<path fill="none" stroke="midnightblue" d="M587.788,-559.759C617.292,-597.951 694.47,-697.855 729.61,-743.342"/>
<polygon fill="midnightblue" stroke="midnightblue" points="726.973,-745.654 735.856,-751.428 732.513,-741.374 726.973,-745.654"/>
</g>
<!-- Node26&#45;&gt;Node26 -->
<g id="edge29" class="edge"><title>Node26&#45;&gt;Node26</title>
<path fill="none" stroke="midnightblue" d="M354.374,-167.659C347.23,-177.057 357.105,-186 384,-186 400.389,-186 410.458,-182.679 414.207,-177.958"/>
<polygon fill="midnightblue" stroke="midnightblue" points="417.684,-177.446 413.626,-167.659 410.695,-177.84 417.684,-177.446"/>
</g>
</g>
</svg>
        <g id="navigator" transform="translate(0 0)" fill="#404254">
                <rect fill="#f2f5e9" fill-opacity="0.5" stroke="#606060" stroke-width=".5" x="0" y="0" width="60" height="60"/>
                <use id="zoomplus" xlink:href="#zoomPlus" x="17" y="9" onmousedown="handleZoom(evt,'in')"/>
                <use id="zoomminus" xlink:href="#zoomMin" x="42" y="9" onmousedown="handleZoom(evt,'out')"/>
                <use id="reset" xlink:href="#resetDef" x="30" y="36" onmousedown="handleReset()"/>
                <g id="arrowUp" xlink:href="#dirArrow" transform="translate(30 24)" onmousedown="handlePan(0,-1)">
                  <use xlink:href="#rim" fill="#404040">
                        <set attributeName="fill" to="#808080" begin="arrowUp.mouseover" end="arrowUp.mouseout"/>
                  </use>
                  <path fill="none" stroke="white" stroke-width="1.5" d="M0,-3.0v7 M-2.5,-0.5L0,-3.0L2.5,-0.5"/>
                </g>
                <g id="arrowRight" xlink:href="#dirArrow" transform="rotate(90) translate(36 -43)" onmousedown="handlePan(1,0)">
                  <use xlink:href="#rim" fill="#404040">
                        <set attributeName="fill" to="#808080" begin="arrowRight.mouseover" end="arrowRight.mouseout"/>
                  </use>
                  <path fill="none" stroke="white" stroke-width="1.5" d="M0,-3.0v7 M-2.5,-0.5L0,-3.0L2.5,-0.5"/>
                </g>
                <g id="arrowDown" xlink:href="#dirArrow" transform="rotate(180) translate(-30 -48)" onmousedown="handlePan(0,1)">
                  <use xlink:href="#rim" fill="#404040">
                        <set attributeName="fill" to="#808080" begin="arrowDown.mouseover" end="arrowDown.mouseout"/>
                  </use>
                  <path fill="none" stroke="white" stroke-width="1.5" d="M0,-3.0v7 M-2.5,-0.5L0,-3.0L2.5,-0.5"/>
                </g>
                <g id="arrowLeft" xlink:href="#dirArrow" transform="rotate(270) translate(-36 17)" onmousedown="handlePan(-1,0)">
                  <use xlink:href="#rim" fill="#404040">
                        <set attributeName="fill" to="#808080" begin="arrowLeft.mouseover" end="arrowLeft.mouseout"/>
                  </use>
                  <path fill="none" stroke="white" stroke-width="1.5" d="M0,-3.0v7 M-2.5,-0.5L0,-3.0L2.5,-0.5"/>
                </g>
        </g>
        <svg viewBox="0 0 15 15" width="100%" height="30px" preserveAspectRatio="xMaxYMin meet">
         <g id="arrow_out" transform="scale(0.3 0.3)">
          <a xlink:href="serialization_8cc_a04bd5db90ad7b35c9bd60f945d76fe6c_cgraph_org.svg" target="_base">
           <rect id="button" ry="5" rx="5" y="6" x="6" height="38" width="38"
                fill="#f2f5e9" fill-opacity="0.5" stroke="#606060" stroke-width="1.0"/>
           <path id="arrow"
             d="M 11.500037,31.436501 C 11.940474,20.09759 22.043105,11.32322 32.158766,21.979434 L 37.068811,17.246167 C 37.068811,17.246167 37.088388,32 37.088388,32 L 22.160133,31.978069 C 22.160133,31.978069 26.997745,27.140456 26.997745,27.140456 C 18.528582,18.264221 13.291696,25.230495 11.500037,31.436501 z"
             style="fill:#404040;"/>
          </a>
         </g>
        </svg>
</svg>
