<?xml version="1.0" encoding="UTF-8" standalone="no"?>
<!DOCTYPE svg PUBLIC "-//W3C//DTD SVG 1.1//EN"
 "http://www.w3.org/Graphics/SVG/1.1/DTD/svg11.dtd">
<!-- Generated by graphviz version 2.38.0 (20140413.2041)
 -->
<!-- Title: substitution.cc Pages: 1 -->
<!--zoomable 263 -->
<svg id="main" version="1.1" xmlns="http://www.w3.org/2000/svg" xmlns:xlink="http://www.w3.org/1999/xlink" xml:space="preserve" onload="init(evt)">
<style type="text/css"><![CDATA[
.edge:hover path { stroke: red; }
.edge:hover polygon { stroke: red; fill: red; }
]]></style>
<script type="text/javascript"><![CDATA[
var edges = document.getElementsByTagName('g');
if (edges && edges.length) {
  for (var i=0;i<edges.length;i++) {
    if (edges[i].id.substr(0,4)=='edge') {
      edges[i].setAttribute('class','edge');
    }
  }
}
]]></script>
        <defs>
                <circle id="rim" cx="0" cy="0" r="7"/>
                <circle id="rim2" cx="0" cy="0" r="3.5"/>
                <g id="zoomPlus">
                        <use xlink:href="#rim" fill="#404040">
                                <set attributeName="fill" to="#808080" begin="zoomplus.mouseover" end="zoomplus.mouseout"/>
                        </use>
                        <path d="M-4,0h8M0,-4v8" fill="none" stroke="white" stroke-width="1.5" pointer-events="none"/>
                </g>
                <g id="zoomMin">
                        <use xlink:href="#rim" fill="#404040">
                                <set attributeName="fill" to="#808080" begin="zoomminus.mouseover" end="zoomminus.mouseout"/>
                        </use>
                        <path d="M-4,0h8" fill="none" stroke="white" stroke-width="1.5" pointer-events="none"/>
                </g>
                <g id="dirArrow">
                        <path fill="none" stroke="white" stroke-width="1.5" d="M0,-3.0v7 M-2.5,-0.5L0,-3.0L2.5,-0.5"/>
                </g>
               <g id="resetDef">
                       <use xlink:href="#rim2" fill="#404040">
                               <set attributeName="fill" to="#808080" begin="reset.mouseover" end="reset.mouseout"/>
                       </use>
               </g>
        </defs>

<script type="text/javascript">
var viewWidth = 1712;
var viewHeight = 263;
var sectionId = 'dynsection-0';
</script>
<script xlink:href="svgpan.js"/>
<svg id="graph" class="graph">
<g id="viewport">
<title>substitution.cc</title>
<polygon fill="white" stroke="none" points="-4,4 -4,-259 1707.5,-259 1707.5,4 -4,4"/>
<!-- Node1 -->
<g id="node1" class="node"><title>Node1</title>
<polygon fill="#bfbfbf" stroke="black" points="1023.5,-235.5 1023.5,-254.5 1109.5,-254.5 1109.5,-235.5 1023.5,-235.5"/>
<text text-anchor="middle" x="1066.5" y="-242.5" font-family="Helvetica,sans-Serif" font-size="10.00">substitution.cc</text>
</g>
<!-- Node2 -->
<g id="node2" class="node"><title>Node2</title>
<g id="a_node2"><a xlink:href="substitution_8h.xhtml" target="_top" xlink:title="The MEF Substitution constructs. ">
<polygon fill="white" stroke="black" points="234.5,-179.5 234.5,-198.5 316.5,-198.5 316.5,-179.5 234.5,-179.5"/>
<text text-anchor="middle" x="275.5" y="-186.5" font-family="Helvetica,sans-Serif" font-size="10.00">substitution.h</text>
</a>
</g>
</g>
<!-- Node1&#45;&gt;Node2 -->
<g id="edge1" class="edge"><title>Node1&#45;&gt;Node2</title>
<path fill="none" stroke="midnightblue" d="M1023.41,-241.058C888.189,-231.827 472.594,-203.455 326.74,-193.498"/>
<polygon fill="midnightblue" stroke="midnightblue" points="326.928,-190.003 316.712,-192.813 326.451,-196.987 326.928,-190.003"/>
</g>
<!-- Node20 -->
<g id="node20" class="node"><title>Node20</title>
<g id="a_node20"><a xlink:href="error_8h.xhtml" target="_top" xlink:title="Exceptions for SCRAM. ">
<polygon fill="white" stroke="black" points="1042.5,-179.5 1042.5,-198.5 1090.5,-198.5 1090.5,-179.5 1042.5,-179.5"/>
<text text-anchor="middle" x="1066.5" y="-186.5" font-family="Helvetica,sans-Serif" font-size="10.00">error.h</text>
</a>
</g>
</g>
<!-- Node1&#45;&gt;Node20 -->
<g id="edge31" class="edge"><title>Node1&#45;&gt;Node20</title>
<path fill="none" stroke="midnightblue" d="M1066.5,-235.083C1066.5,-228.006 1066.5,-217.861 1066.5,-208.986"/>
<polygon fill="midnightblue" stroke="midnightblue" points="1070,-208.751 1066.5,-198.751 1063,-208.751 1070,-208.751"/>
</g>
<!-- Node26 -->
<g id="node26" class="node"><title>Node26</title>
<g id="a_node26"><a xlink:href="algorithm_8h.xhtml" target="_top" xlink:title="Helpful algorithm facilities as an extension to the STL or Boost. ">
<polygon fill="white" stroke="black" points="1487,-179.5 1487,-198.5 1576,-198.5 1576,-179.5 1487,-179.5"/>
<text text-anchor="middle" x="1531.5" y="-186.5" font-family="Helvetica,sans-Serif" font-size="10.00">ext/algorithm.h</text>
</a>
</g>
</g>
<!-- Node1&#45;&gt;Node26 -->
<g id="edge38" class="edge"><title>Node1&#45;&gt;Node26</title>
<path fill="none" stroke="midnightblue" d="M1109.83,-238.968C1194.8,-229.101 1383.15,-207.228 1476.65,-196.37"/>
<polygon fill="midnightblue" stroke="midnightblue" points="1477.22,-199.827 1486.75,-195.197 1476.41,-192.874 1477.22,-199.827"/>
</g>
<!-- Node3 -->
<g id="node3" class="node"><title>Node3</title>
<polygon fill="white" stroke="#bfbfbf" points="49,-67.5 49,-86.5 106,-86.5 106,-67.5 49,-67.5"/>
<text text-anchor="middle" x="77.5" y="-74.5" font-family="Helvetica,sans-Serif" font-size="10.00">memory</text>
</g>
<!-- Node2&#45;&gt;Node3 -->
<g id="edge2" class="edge"><title>Node2&#45;&gt;Node3</title>
<path fill="none" stroke="midnightblue" d="M259.963,-179.368C225.625,-160.292 143.06,-114.422 101.81,-91.5054"/>
<polygon fill="midnightblue" stroke="midnightblue" points="103.406,-88.3883 92.9646,-86.5914 100.006,-94.5075 103.406,-88.3883"/>
</g>
<!-- Node4 -->
<g id="node4" class="node"><title>Node4</title>
<polygon fill="white" stroke="#bfbfbf" points="124,-67.5 124,-86.5 179,-86.5 179,-67.5 124,-67.5"/>
<text text-anchor="middle" x="151.5" y="-74.5" font-family="Helvetica,sans-Serif" font-size="10.00">optional</text>
</g>
<!-- Node2&#45;&gt;Node4 -->
<g id="edge3" class="edge"><title>Node2&#45;&gt;Node4</title>
<path fill="none" stroke="midnightblue" d="M265.77,-179.368C244.854,-160.814 195.365,-116.913 168.902,-93.4376"/>
<polygon fill="midnightblue" stroke="midnightblue" points="170.988,-90.6093 161.185,-86.5914 166.343,-95.8459 170.988,-90.6093"/>
</g>
<!-- Node5 -->
<g id="node5" class="node"><title>Node5</title>
<polygon fill="white" stroke="#bfbfbf" points="197.5,-67.5 197.5,-86.5 247.5,-86.5 247.5,-67.5 197.5,-67.5"/>
<text text-anchor="middle" x="222.5" y="-74.5" font-family="Helvetica,sans-Serif" font-size="10.00">variant</text>
</g>
<!-- Node2&#45;&gt;Node5 -->
<g id="edge4" class="edge"><title>Node2&#45;&gt;Node5</title>
<path fill="none" stroke="midnightblue" d="M271.341,-179.368C262.672,-161.376 242.52,-119.55 230.993,-95.6267"/>
<polygon fill="midnightblue" stroke="midnightblue" points="234.133,-94.081 226.64,-86.5914 227.827,-97.1195 234.133,-94.081"/>
</g>
<!-- Node6 -->
<g id="node6" class="node"><title>Node6</title>
<polygon fill="white" stroke="#bfbfbf" points="0,-6 0,-25 47,-25 47,-6 0,-6"/>
<text text-anchor="middle" x="23.5" y="-13" font-family="Helvetica,sans-Serif" font-size="10.00">vector</text>
</g>
<!-- Node2&#45;&gt;Node6 -->
<g id="edge5" class="edge"><title>Node2&#45;&gt;Node6</title>
<path fill="none" stroke="midnightblue" d="M277.169,-179.216C280.833,-157.004 286.991,-98.1533 256.5,-67 193.019,-2.14136 142.165,-57.9358 55.5,-31 53.6216,-30.4162 51.7086,-29.7494 49.7996,-29.0297"/>
<polygon fill="midnightblue" stroke="midnightblue" points="51.0421,-25.7557 40.4657,-25.1307 48.344,-32.2148 51.0421,-25.7557"/>
</g>
<!-- Node7 -->
<g id="node7" class="node"><title>Node7</title>
<g id="a_node7"><a xlink:href="element_8h.xhtml" target="_top" xlink:title="Helper classes, structs, and properties common to all other classes. ">
<polygon fill="white" stroke="black" points="380,-67.5 380,-86.5 445,-86.5 445,-67.5 380,-67.5"/>
<text text-anchor="middle" x="412.5" y="-74.5" font-family="Helvetica,sans-Serif" font-size="10.00">element.h</text>
</a>
</g>
</g>
<!-- Node2&#45;&gt;Node7 -->
<g id="edge6" class="edge"><title>Node2&#45;&gt;Node7</title>
<path fill="none" stroke="midnightblue" d="M316.647,-179.725C339.756,-173.202 367.65,-161.938 386.5,-143 398.949,-130.493 405.64,-111.266 409.1,-96.9632"/>
<polygon fill="midnightblue" stroke="midnightblue" points="412.61,-97.276 411.231,-86.7714 405.758,-95.8435 412.61,-97.276"/>
</g>
<!-- Node14 -->
<g id="node14" class="node"><title>Node14</title>
<g id="a_node14"><a xlink:href="event_8h.xhtml" target="_top" xlink:title="Contains event classes for fault trees. ">
<polygon fill="white" stroke="black" points="325,-123.5 325,-142.5 378,-142.5 378,-123.5 325,-123.5"/>
<text text-anchor="middle" x="351.5" y="-130.5" font-family="Helvetica,sans-Serif" font-size="10.00">event.h</text>
</a>
</g>
</g>
<!-- Node2&#45;&gt;Node14 -->
<g id="edge14" class="edge"><title>Node2&#45;&gt;Node14</title>
<path fill="none" stroke="midnightblue" d="M287.711,-179.324C299.276,-171.107 316.875,-158.602 330.661,-148.807"/>
<polygon fill="midnightblue" stroke="midnightblue" points="332.943,-151.479 339.067,-142.834 328.888,-145.773 332.943,-151.479"/>
</g>
<!-- Node7&#45;&gt;Node6 -->
<g id="edge9" class="edge"><title>Node7&#45;&gt;Node6</title>
<path fill="none" stroke="midnightblue" d="M379.91,-72.4564C297.729,-63.4406 86.3842,-39.7279 55.5,-31 53.354,-30.3935 51.1682,-29.6645 48.9979,-28.8604"/>
<polygon fill="midnightblue" stroke="midnightblue" points="50.3288,-25.6233 39.7523,-25.0006 47.632,-32.083 50.3288,-25.6233"/>
</g>
<!-- Node8 -->
<g id="node8" class="node"><title>Node8</title>
<polygon fill="white" stroke="#bfbfbf" points="65,-6 65,-25 114,-25 114,-6 65,-6"/>
<text text-anchor="middle" x="89.5" y="-13" font-family="Helvetica,sans-Serif" font-size="10.00">cstdint</text>
</g>
<!-- Node7&#45;&gt;Node8 -->
<g id="edge7" class="edge"><title>Node7&#45;&gt;Node8</title>
<path fill="none" stroke="midnightblue" d="M379.916,-69.579C375.088,-68.6804 370.169,-67.7939 365.5,-67 258.3,-48.7707 228.142,-60.5693 123.5,-31 121.207,-30.3522 118.865,-29.5873 116.535,-28.7529"/>
<polygon fill="midnightblue" stroke="midnightblue" points="117.775,-25.4796 107.188,-25.0538 115.198,-31.9883 117.775,-25.4796"/>
</g>
<!-- Node9 -->
<g id="node9" class="node"><title>Node9</title>
<polygon fill="white" stroke="#bfbfbf" points="774.5,-6 774.5,-25 818.5,-25 818.5,-6 774.5,-6"/>
<text text-anchor="middle" x="796.5" y="-13" font-family="Helvetica,sans-Serif" font-size="10.00">string</text>
</g>
<!-- Node7&#45;&gt;Node9 -->
<g id="edge8" class="edge"><title>Node7&#45;&gt;Node9</title>
<path fill="none" stroke="midnightblue" d="M445.063,-69.4495C449.894,-68.5693 454.82,-67.7224 459.5,-67 594.835,-46.1093 633.794,-68.4893 765.5,-31 767.429,-30.451 769.388,-29.7948 771.335,-29.0691"/>
<polygon fill="midnightblue" stroke="midnightblue" points="772.963,-32.1799 780.788,-25.037 770.217,-25.7412 772.963,-32.1799"/>
</g>
<!-- Node10 -->
<g id="node10" class="node"><title>Node10</title>
<polygon fill="white" stroke="#bfbfbf" points="132.5,-0.5 132.5,-30.5 272.5,-30.5 272.5,-0.5 132.5,-0.5"/>
<text text-anchor="start" x="140.5" y="-18.5" font-family="Helvetica,sans-Serif" font-size="10.00">boost/multi_index/hashed</text>
<text text-anchor="middle" x="202.5" y="-7.5" font-family="Helvetica,sans-Serif" font-size="10.00">_index.hpp</text>
</g>
<!-- Node7&#45;&gt;Node10 -->
<g id="edge10" class="edge"><title>Node7&#45;&gt;Node10</title>
<path fill="none" stroke="midnightblue" d="M382.412,-67.4751C351.047,-58.5882 301.072,-44.4288 261.744,-33.2859"/>
<polygon fill="midnightblue" stroke="midnightblue" points="262.568,-29.8816 251.993,-30.523 260.66,-36.6165 262.568,-29.8816"/>
</g>
<!-- Node11 -->
<g id="node11" class="node"><title>Node11</title>
<polygon fill="white" stroke="#bfbfbf" points="290.5,-0.5 290.5,-30.5 420.5,-30.5 420.5,-0.5 290.5,-0.5"/>
<text text-anchor="start" x="298.5" y="-18.5" font-family="Helvetica,sans-Serif" font-size="10.00">boost/multi_index/mem</text>
<text text-anchor="middle" x="355.5" y="-7.5" font-family="Helvetica,sans-Serif" font-size="10.00">_fun.hpp</text>
</g>
<!-- Node7&#45;&gt;Node11 -->
<g id="edge11" class="edge"><title>Node7&#45;&gt;Node11</title>
<path fill="none" stroke="midnightblue" d="M404.333,-67.4751C396.974,-59.7932 385.841,-48.1717 376.062,-37.9643"/>
<polygon fill="midnightblue" stroke="midnightblue" points="378.379,-35.3229 368.934,-30.523 373.324,-40.1654 378.379,-35.3229"/>
</g>
<!-- Node12 -->
<g id="node12" class="node"><title>Node12</title>
<polygon fill="white" stroke="#bfbfbf" points="438.5,-6 438.5,-25 610.5,-25 610.5,-6 438.5,-6"/>
<text text-anchor="middle" x="524.5" y="-13" font-family="Helvetica,sans-Serif" font-size="10.00">boost/multi_index_container.hpp</text>
</g>
<!-- Node7&#45;&gt;Node12 -->
<g id="edge12" class="edge"><title>Node7&#45;&gt;Node12</title>
<path fill="none" stroke="midnightblue" d="M428.547,-67.4751C447.093,-57.6222 477.84,-41.2883 499.522,-29.7697"/>
<polygon fill="midnightblue" stroke="midnightblue" points="501.294,-32.7916 508.483,-25.0091 498.01,-26.6098 501.294,-32.7916"/>
</g>
<!-- Node13 -->
<g id="node13" class="node"><title>Node13</title>
<polygon fill="white" stroke="#bfbfbf" points="628.5,-6 628.5,-25 756.5,-25 756.5,-6 628.5,-6"/>
<text text-anchor="middle" x="692.5" y="-13" font-family="Helvetica,sans-Serif" font-size="10.00">boost/noncopyable.hpp</text>
</g>
<!-- Node7&#45;&gt;Node13 -->
<g id="edge13" class="edge"><title>Node7&#45;&gt;Node13</title>
<path fill="none" stroke="midnightblue" d="M445.168,-69.0581C493.751,-58.7341 585.433,-39.2518 642.495,-27.1261"/>
<polygon fill="midnightblue" stroke="midnightblue" points="643.328,-30.5274 652.382,-25.0251 641.873,-23.6803 643.328,-30.5274"/>
</g>
<!-- Node14&#45;&gt;Node3 -->
<g id="edge17" class="edge"><title>Node14&#45;&gt;Node3</title>
<path fill="none" stroke="midnightblue" d="M324.753,-127.38C282.479,-119.979 197.418,-104.689 116.051,-87.2575"/>
<polygon fill="midnightblue" stroke="midnightblue" points="116.663,-83.8091 106.15,-85.1216 115.187,-90.6517 116.663,-83.8091"/>
</g>
<!-- Node14&#45;&gt;Node4 -->
<g id="edge18" class="edge"><title>Node14&#45;&gt;Node4</title>
<path fill="none" stroke="midnightblue" d="M324.942,-124.829C290.045,-115.407 228.557,-98.8053 188.947,-88.1108"/>
<polygon fill="midnightblue" stroke="midnightblue" points="189.699,-84.6886 179.133,-85.4608 187.875,-91.4466 189.699,-84.6886"/>
</g>
<!-- Node14&#45;&gt;Node5 -->
<g id="edge21" class="edge"><title>Node14&#45;&gt;Node5</title>
<path fill="none" stroke="midnightblue" d="M331.06,-123.444C309.83,-114.557 276.401,-100.563 252.245,-90.4514"/>
<polygon fill="midnightblue" stroke="midnightblue" points="253.421,-87.1493 242.845,-86.5164 250.718,-93.6064 253.421,-87.1493"/>
</g>
<!-- Node14&#45;&gt;Node6 -->
<g id="edge22" class="edge"><title>Node14&#45;&gt;Node6</title>
<path fill="none" stroke="midnightblue" d="M345.897,-123.087C336.294,-108.65 315.218,-80.4162 289.5,-67 196.208,-18.3323 156.358,-60.9931 55.5,-31 53.5707,-30.4263 51.6071,-29.7595 49.6501,-29.0333"/>
<polygon fill="midnightblue" stroke="midnightblue" points="50.6861,-25.6734 40.1089,-25.0612 47.9957,-32.1358 50.6861,-25.6734"/>
</g>
<!-- Node14&#45;&gt;Node7 -->
<g id="edge23" class="edge"><title>Node14&#45;&gt;Node7</title>
<path fill="none" stroke="midnightblue" d="M361.301,-123.324C370.318,-115.341 383.906,-103.313 394.818,-93.6529"/>
<polygon fill="midnightblue" stroke="midnightblue" points="397.353,-96.083 402.521,-86.8339 392.713,-90.8416 397.353,-96.083"/>
</g>
<!-- Node14&#45;&gt;Node8 -->
<g id="edge15" class="edge"><title>Node14&#45;&gt;Node8</title>
<path fill="none" stroke="midnightblue" d="M350.95,-123.295C349.561,-109.157 344.672,-81.3436 327.5,-67 256.839,-7.97885 211.752,-57.2293 123.5,-31 121.351,-30.3613 119.155,-29.6268 116.966,-28.8347"/>
<polygon fill="midnightblue" stroke="midnightblue" points="118.155,-25.5411 107.568,-25.1103 115.575,-32.0486 118.155,-25.5411"/>
</g>
<!-- Node14&#45;&gt;Node9 -->
<g id="edge19" class="edge"><title>Node14&#45;&gt;Node9</title>
<path fill="none" stroke="midnightblue" d="M371.979,-123.382C392.689,-114.569 425.543,-100.321 453.5,-87 471.085,-78.6206 473.905,-72.8028 492.5,-67 609.328,-30.5431 648.029,-65.3281 765.5,-31 767.382,-30.45 769.294,-29.8009 771.197,-29.0873"/>
<polygon fill="midnightblue" stroke="midnightblue" points="772.627,-32.2825 780.455,-25.143 769.883,-25.8426 772.627,-32.2825"/>
</g>
<!-- Node15 -->
<g id="node15" class="node"><title>Node15</title>
<polygon fill="white" stroke="#bfbfbf" points="502,-67.5 502,-86.5 579,-86.5 579,-67.5 502,-67.5"/>
<text text-anchor="middle" x="540.5" y="-74.5" font-family="Helvetica,sans-Serif" font-size="10.00">initializer_list</text>
</g>
<!-- Node14&#45;&gt;Node15 -->
<g id="edge16" class="edge"><title>Node14&#45;&gt;Node15</title>
<path fill="none" stroke="midnightblue" d="M378.178,-124.378C410.08,-115.263 463.778,-99.9205 500.616,-89.3954"/>
<polygon fill="midnightblue" stroke="midnightblue" points="501.873,-92.6763 510.527,-86.5637 499.95,-85.9456 501.873,-92.6763"/>
</g>
<!-- Node16 -->
<g id="node16" class="node"><title>Node16</title>
<polygon fill="white" stroke="#bfbfbf" points="966.5,-6 966.5,-25 1008.5,-25 1008.5,-6 966.5,-6"/>
<text text-anchor="middle" x="987.5" y="-13" font-family="Helvetica,sans-Serif" font-size="10.00">utility</text>
</g>
<!-- Node14&#45;&gt;Node16 -->
<g id="edge20" class="edge"><title>Node14&#45;&gt;Node16</title>
<path fill="none" stroke="midnightblue" d="M378.031,-130.174C441.104,-125.56 604.817,-111.989 739.5,-87 837.856,-68.751 863.559,-65.3801 957.5,-31 958.926,-30.4781 960.375,-29.9108 961.827,-29.3129"/>
<polygon fill="midnightblue" stroke="midnightblue" points="963.563,-32.3702 971.25,-25.0794 960.694,-25.9851 963.563,-32.3702"/>
</g>
<!-- Node17 -->
<g id="node17" class="node"><title>Node17</title>
<g id="a_node17"><a xlink:href="expression_8h.xhtml" target="_top" xlink:title="Provides the base class for all expressions and units for expression values. ">
<polygon fill="white" stroke="black" points="654,-67.5 654,-86.5 731,-86.5 731,-67.5 654,-67.5"/>
<text text-anchor="middle" x="692.5" y="-74.5" font-family="Helvetica,sans-Serif" font-size="10.00">expression.h</text>
</a>
</g>
</g>
<!-- Node14&#45;&gt;Node17 -->
<g id="edge24" class="edge"><title>Node14&#45;&gt;Node17</title>
<path fill="none" stroke="midnightblue" d="M378.258,-127.763C435.498,-118.698 570.548,-97.312 643.578,-85.7472"/>
<polygon fill="midnightblue" stroke="midnightblue" points="644.556,-89.136 653.886,-84.1149 643.461,-82.2221 644.556,-89.136"/>
</g>
<!-- Node17&#45;&gt;Node6 -->
<g id="edge28" class="edge"><title>Node17&#45;&gt;Node6</title>
<path fill="none" stroke="midnightblue" d="M653.619,-72.5C633.83,-70.7612 609.391,-68.6787 587.5,-67 351.209,-48.8799 285.321,-88.8289 55.5,-31 53.2893,-30.4437 51.042,-29.7408 48.816,-28.946"/>
<polygon fill="midnightblue" stroke="midnightblue" points="49.9508,-25.6279 39.3722,-25.0421 47.2766,-32.0969 49.9508,-25.6279"/>
</g>
<!-- Node17&#45;&gt;Node9 -->
<g id="edge26" class="edge"><title>Node17&#45;&gt;Node9</title>
<path fill="none" stroke="midnightblue" d="M707.401,-67.4751C724.468,-57.7106 752.661,-41.5807 772.762,-30.0808"/>
<polygon fill="midnightblue" stroke="midnightblue" points="774.685,-33.013 781.627,-25.0091 771.209,-26.9371 774.685,-33.013"/>
</g>
<!-- Node17&#45;&gt;Node13 -->
<g id="edge30" class="edge"><title>Node17&#45;&gt;Node13</title>
<path fill="none" stroke="midnightblue" d="M692.5,-67.4751C692.5,-59.0803 692.5,-45.9806 692.5,-35.1631"/>
<polygon fill="midnightblue" stroke="midnightblue" points="696,-35.0091 692.5,-25.0091 689,-35.0091 696,-35.0091"/>
</g>
<!-- Node17&#45;&gt;Node16 -->
<g id="edge27" class="edge"><title>Node17&#45;&gt;Node16</title>
<path fill="none" stroke="midnightblue" d="M731.033,-69.4566C804.53,-56.976 957.5,-31 957.5,-31 959.167,-30.4675 960.859,-29.8584 962.546,-29.1982"/>
<polygon fill="midnightblue" stroke="midnightblue" points="964.231,-32.2802 971.963,-25.0363 961.401,-25.8777 964.231,-32.2802"/>
</g>
<!-- Node18 -->
<g id="node18" class="node"><title>Node18</title>
<polygon fill="white" stroke="#bfbfbf" points="1263.5,-6 1263.5,-25 1325.5,-25 1325.5,-6 1263.5,-6"/>
<text text-anchor="middle" x="1294.5" y="-13" font-family="Helvetica,sans-Serif" font-size="10.00">algorithm</text>
</g>
<!-- Node17&#45;&gt;Node18 -->
<g id="edge25" class="edge"><title>Node17&#45;&gt;Node18</title>
<path fill="none" stroke="midnightblue" d="M731.074,-72.1875C838.797,-61.5404 1142.2,-31.5526 1253.18,-20.5841"/>
<polygon fill="midnightblue" stroke="midnightblue" points="1253.7,-24.05 1263.3,-19.5833 1253.01,-17.084 1253.7,-24.05"/>
</g>
<!-- Node19 -->
<g id="node19" class="node"><title>Node19</title>
<polygon fill="white" stroke="#bfbfbf" points="836.5,-0.5 836.5,-30.5 948.5,-30.5 948.5,-0.5 836.5,-0.5"/>
<text text-anchor="start" x="844.5" y="-18.5" font-family="Helvetica,sans-Serif" font-size="10.00">boost/icl/continuous</text>
<text text-anchor="middle" x="892.5" y="-7.5" font-family="Helvetica,sans-Serif" font-size="10.00">_interval.hpp</text>
</g>
<!-- Node17&#45;&gt;Node19 -->
<g id="edge29" class="edge"><title>Node17&#45;&gt;Node19</title>
<path fill="none" stroke="midnightblue" d="M721.155,-67.4751C750.9,-58.6259 798.219,-44.5487 835.6,-33.4277"/>
<polygon fill="midnightblue" stroke="midnightblue" points="836.777,-36.7292 845.364,-30.523 834.781,-30.0198 836.777,-36.7292"/>
</g>
<!-- Node20&#45;&gt;Node9 -->
<g id="edge33" class="edge"><title>Node20&#45;&gt;Node9</title>
<path fill="none" stroke="midnightblue" d="M1042.4,-187.106C985.982,-184.493 847.736,-174.908 816.5,-143 788.328,-114.222 790.009,-62.8419 793.402,-35.2486"/>
<polygon fill="midnightblue" stroke="midnightblue" points="796.915,-35.4119 794.879,-25.0145 789.986,-34.412 796.915,-35.4119"/>
</g>
<!-- Node21 -->
<g id="node21" class="node"><title>Node21</title>
<polygon fill="white" stroke="#bfbfbf" points="826,-123.5 826,-142.5 889,-142.5 889,-123.5 826,-123.5"/>
<text text-anchor="middle" x="857.5" y="-130.5" font-family="Helvetica,sans-Serif" font-size="10.00">exception</text>
</g>
<!-- Node20&#45;&gt;Node21 -->
<g id="edge32" class="edge"><title>Node20&#45;&gt;Node21</title>
<path fill="none" stroke="midnightblue" d="M1042.12,-181.7C1007.03,-172.633 941.816,-155.785 899.042,-144.733"/>
<polygon fill="midnightblue" stroke="midnightblue" points="899.772,-141.307 889.214,-142.194 898.021,-148.084 899.772,-141.307"/>
</g>
<!-- Node22 -->
<g id="node22" class="node"><title>Node22</title>
<polygon fill="white" stroke="#bfbfbf" points="907.5,-123.5 907.5,-142.5 1053.5,-142.5 1053.5,-123.5 907.5,-123.5"/>
<text text-anchor="middle" x="980.5" y="-130.5" font-family="Helvetica,sans-Serif" font-size="10.00">boost/current_function.hpp</text>
</g>
<!-- Node20&#45;&gt;Node22 -->
<g id="edge34" class="edge"><title>Node20&#45;&gt;Node22</title>
<path fill="none" stroke="midnightblue" d="M1052.68,-179.324C1039.27,-170.9 1018.68,-157.971 1002.91,-148.074"/>
<polygon fill="midnightblue" stroke="midnightblue" points="1004.61,-145.008 994.283,-142.655 1000.89,-150.936 1004.61,-145.008"/>
</g>
<!-- Node23 -->
<g id="node23" class="node"><title>Node23</title>
<polygon fill="white" stroke="#bfbfbf" points="1071.5,-123.5 1071.5,-142.5 1235.5,-142.5 1235.5,-123.5 1071.5,-123.5"/>
<text text-anchor="middle" x="1153.5" y="-130.5" font-family="Helvetica,sans-Serif" font-size="10.00">boost/exception/exception.hpp</text>
</g>
<!-- Node20&#45;&gt;Node23 -->
<g id="edge35" class="edge"><title>Node20&#45;&gt;Node23</title>
<path fill="none" stroke="midnightblue" d="M1080.48,-179.324C1094.05,-170.9 1114.88,-157.971 1130.82,-148.074"/>
<polygon fill="midnightblue" stroke="midnightblue" points="1132.91,-150.902 1139.56,-142.655 1129.21,-144.954 1132.91,-150.902"/>
</g>
<!-- Node24 -->
<g id="node24" class="node"><title>Node24</title>
<polygon fill="white" stroke="#bfbfbf" points="1253.5,-123.5 1253.5,-142.5 1387.5,-142.5 1387.5,-123.5 1253.5,-123.5"/>
<text text-anchor="middle" x="1320.5" y="-130.5" font-family="Helvetica,sans-Serif" font-size="10.00">boost/exception/info.hpp</text>
</g>
<!-- Node20&#45;&gt;Node24 -->
<g id="edge36" class="edge"><title>Node20&#45;&gt;Node24</title>
<path fill="none" stroke="midnightblue" d="M1090.85,-182.822C1132.03,-174.068 1216.21,-156.172 1270.41,-144.649"/>
<polygon fill="midnightblue" stroke="midnightblue" points="1271.44,-148.008 1280.5,-142.505 1269.99,-141.161 1271.44,-148.008"/>
</g>
<!-- Node25 -->
<g id="node25" class="node"><title>Node25</title>
<g id="a_node25"><a xlink:href="source__info_8h.xhtml" target="_top" xlink:title="Helper facilities to get source file information. ">
<polygon fill="white" stroke="black" points="1405.5,-123.5 1405.5,-142.5 1503.5,-142.5 1503.5,-123.5 1405.5,-123.5"/>
<text text-anchor="middle" x="1454.5" y="-130.5" font-family="Helvetica,sans-Serif" font-size="10.00">ext/source_info.h</text>
</a>
</g>
</g>
<!-- Node20&#45;&gt;Node25 -->
<g id="edge37" class="edge"><title>Node20&#45;&gt;Node25</title>
<path fill="none" stroke="midnightblue" d="M1090.54,-184.877C1143.53,-177.958 1274.63,-160.66 1395.31,-143.151"/>
<polygon fill="midnightblue" stroke="midnightblue" points="1396.07,-146.578 1405.46,-141.674 1395.06,-139.651 1396.07,-146.578"/>
</g>
<!-- Node26&#45;&gt;Node18 -->
<g id="edge39" class="edge"><title>Node26&#45;&gt;Node18</title>
<path fill="none" stroke="midnightblue" d="M1531.15,-179.392C1530.16,-165.883 1526.44,-139.54 1512.5,-123 1466.25,-68.1261 1385,-39.1199 1335.82,-25.8557"/>
<polygon fill="midnightblue" stroke="midnightblue" points="1336.4,-22.3894 1325.84,-23.2606 1334.64,-29.1642 1336.4,-22.3894"/>
</g>
<!-- Node27 -->
<g id="node27" class="node"><title>Node27</title>
<polygon fill="white" stroke="#bfbfbf" points="1559.5,-123.5 1559.5,-142.5 1703.5,-142.5 1703.5,-123.5 1559.5,-123.5"/>
<text text-anchor="middle" x="1631.5" y="-130.5" font-family="Helvetica,sans-Serif" font-size="10.00">boost/range/algorithm.hpp</text>
</g>
<!-- Node26&#45;&gt;Node27 -->
<g id="edge40" class="edge"><title>Node26&#45;&gt;Node27</title>
<path fill="none" stroke="midnightblue" d="M1547.57,-179.324C1563.46,-170.743 1588.01,-157.486 1606.46,-147.522"/>
<polygon fill="midnightblue" stroke="midnightblue" points="1608.34,-150.486 1615.47,-142.655 1605.01,-144.326 1608.34,-150.486"/>
</g>
</g>
</svg>
        <g id="navigator" transform="translate(0 0)" fill="#404254">
                <rect fill="#f2f5e9" fill-opacity="0.5" stroke="#606060" stroke-width=".5" x="0" y="0" width="60" height="60"/>
                <use id="zoomplus" xlink:href="#zoomPlus" x="17" y="9" onmousedown="handleZoom(evt,'in')"/>
                <use id="zoomminus" xlink:href="#zoomMin" x="42" y="9" onmousedown="handleZoom(evt,'out')"/>
                <use id="reset" xlink:href="#resetDef" x="30" y="36" onmousedown="handleReset()"/>
                <g id="arrowUp" xlink:href="#dirArrow" transform="translate(30 24)" onmousedown="handlePan(0,-1)">
                  <use xlink:href="#rim" fill="#404040">
                        <set attributeName="fill" to="#808080" begin="arrowUp.mouseover" end="arrowUp.mouseout"/>
                  </use>
                  <path fill="none" stroke="white" stroke-width="1.5" d="M0,-3.0v7 M-2.5,-0.5L0,-3.0L2.5,-0.5"/>
                </g>
                <g id="arrowRight" xlink:href="#dirArrow" transform="rotate(90) translate(36 -43)" onmousedown="handlePan(1,0)">
                  <use xlink:href="#rim" fill="#404040">
                        <set attributeName="fill" to="#808080" begin="arrowRight.mouseover" end="arrowRight.mouseout"/>
                  </use>
                  <path fill="none" stroke="white" stroke-width="1.5" d="M0,-3.0v7 M-2.5,-0.5L0,-3.0L2.5,-0.5"/>
                </g>
                <g id="arrowDown" xlink:href="#dirArrow" transform="rotate(180) translate(-30 -48)" onmousedown="handlePan(0,1)">
                  <use xlink:href="#rim" fill="#404040">
                        <set attributeName="fill" to="#808080" begin="arrowDown.mouseover" end="arrowDown.mouseout"/>
                  </use>
                  <path fill="none" stroke="white" stroke-width="1.5" d="M0,-3.0v7 M-2.5,-0.5L0,-3.0L2.5,-0.5"/>
                </g>
                <g id="arrowLeft" xlink:href="#dirArrow" transform="rotate(270) translate(-36 17)" onmousedown="handlePan(-1,0)">
                  <use xlink:href="#rim" fill="#404040">
                        <set attributeName="fill" to="#808080" begin="arrowLeft.mouseover" end="arrowLeft.mouseout"/>
                  </use>
                  <path fill="none" stroke="white" stroke-width="1.5" d="M0,-3.0v7 M-2.5,-0.5L0,-3.0L2.5,-0.5"/>
                </g>
        </g>
        <svg viewBox="0 0 15 15" width="100%" height="30px" preserveAspectRatio="xMaxYMin meet">
         <g id="arrow_out" transform="scale(0.3 0.3)">
          <a xlink:href="substitution_8cc__incl_org.svg" target="_base">
           <rect id="button" ry="5" rx="5" y="6" x="6" height="38" width="38"
                fill="#f2f5e9" fill-opacity="0.5" stroke="#606060" stroke-width="1.0"/>
           <path id="arrow"
             d="M 11.500037,31.436501 C 11.940474,20.09759 22.043105,11.32322 32.158766,21.979434 L 37.068811,17.246167 C 37.068811,17.246167 37.088388,32 37.088388,32 L 22.160133,31.978069 C 22.160133,31.978069 26.997745,27.140456 26.997745,27.140456 C 18.528582,18.264221 13.291696,25.230495 11.500037,31.436501 z"
             style="fill:#404040;"/>
          </a>
         </g>
        </svg>
</svg>
