<?xml version="1.0" encoding="UTF-8" standalone="no"?>
<!DOCTYPE svg PUBLIC "-//W3C//DTD SVG 1.1//EN"
 "http://www.w3.org/Graphics/SVG/1.1/DTD/svg11.dtd">
<!-- Generated by graphviz version 2.38.0 (20140413.2041)
 -->
<!-- Title: substitution.h Pages: 1 -->
<svg width="1181pt" height="207pt"
 viewBox="0.00 0.00 1180.50 207.00" xmlns="http://www.w3.org/2000/svg" xmlns:xlink="http://www.w3.org/1999/xlink">
<g id="graph0" class="graph" transform="scale(1 1) rotate(0) translate(4 203)">
<title>substitution.h</title>
<polygon fill="white" stroke="none" points="-4,4 -4,-203 1176.5,-203 1176.5,4 -4,4"/>
<!-- Node1 -->
<g id="node1" class="node"><title>Node1</title>
<polygon fill="#bfbfbf" stroke="black" points="222.5,-179.5 222.5,-198.5 304.5,-198.5 304.5,-179.5 222.5,-179.5"/>
<text text-anchor="middle" x="263.5" y="-186.5" font-family="Helvetica,sans-Serif" font-size="10.00">substitution.h</text>
</g>
<!-- Node2 -->
<g id="node2" class="node"><title>Node2</title>
<polygon fill="white" stroke="#bfbfbf" points="0,-67.5 0,-86.5 57,-86.5 57,-67.5 0,-67.5"/>
<text text-anchor="middle" x="28.5" y="-74.5" font-family="Helvetica,sans-Serif" font-size="10.00">memory</text>
</g>
<!-- Node1&#45;&gt;Node2 -->
<g id="edge1" class="edge"><title>Node1&#45;&gt;Node2</title>
<path fill="none" stroke="midnightblue" d="M244.68,-179.443C224.927,-170.441 192.983,-155.829 165.5,-143 127.303,-125.17 83.2918,-104.215 55.6829,-91.0201"/>
<polygon fill="midnightblue" stroke="midnightblue" points="57.1692,-87.8513 46.6377,-86.6942 54.149,-94.1662 57.1692,-87.8513"/>
</g>
<!-- Node3 -->
<g id="node3" class="node"><title>Node3</title>
<polygon fill="white" stroke="#bfbfbf" points="75,-67.5 75,-86.5 130,-86.5 130,-67.5 75,-67.5"/>
<text text-anchor="middle" x="102.5" y="-74.5" font-family="Helvetica,sans-Serif" font-size="10.00">optional</text>
</g>
<!-- Node1&#45;&gt;Node3 -->
<g id="edge2" class="edge"><title>Node1&#45;&gt;Node3</title>
<path fill="none" stroke="midnightblue" d="M250.867,-179.368C223.239,-160.492 157.218,-115.385 123.337,-92.2367"/>
<polygon fill="midnightblue" stroke="midnightblue" points="125.306,-89.3429 115.075,-86.5914 121.357,-95.1227 125.306,-89.3429"/>
</g>
<!-- Node4 -->
<g id="node4" class="node"><title>Node4</title>
<polygon fill="white" stroke="#bfbfbf" points="148.5,-67.5 148.5,-86.5 198.5,-86.5 198.5,-67.5 148.5,-67.5"/>
<text text-anchor="middle" x="173.5" y="-74.5" font-family="Helvetica,sans-Serif" font-size="10.00">variant</text>
</g>
<!-- Node1&#45;&gt;Node4 -->
<g id="edge3" class="edge"><title>Node1&#45;&gt;Node4</title>
<path fill="none" stroke="midnightblue" d="M256.438,-179.368C241.454,-161.055 206.267,-118.049 186.887,-94.3624"/>
<polygon fill="midnightblue" stroke="midnightblue" points="189.571,-92.1147 180.529,-86.5914 184.153,-96.5474 189.571,-92.1147"/>
</g>
<!-- Node5 -->
<g id="node5" class="node"><title>Node5</title>
<polygon fill="white" stroke="#bfbfbf" points="415,-6 415,-25 462,-25 462,-6 415,-6"/>
<text text-anchor="middle" x="438.5" y="-13" font-family="Helvetica,sans-Serif" font-size="10.00">vector</text>
</g>
<!-- Node1&#45;&gt;Node5 -->
<g id="edge4" class="edge"><title>Node1&#45;&gt;Node5</title>
<path fill="none" stroke="midnightblue" d="M304.663,-183.211C358.283,-174.518 450.059,-150.683 491.5,-87 504.668,-66.7644 481.512,-44.7125 461.78,-30.7573"/>
<polygon fill="midnightblue" stroke="midnightblue" points="463.63,-27.7839 453.374,-25.1261 459.734,-33.5996 463.63,-27.7839"/>
</g>
<!-- Node6 -->
<g id="node6" class="node"><title>Node6</title>
<g id="a_node6"><a xlink:href="element_8h.xhtml" target="_top" xlink:title="Helper classes, structs, and properties common to all other classes. ">
<polygon fill="white" stroke="black" points="599,-67.5 599,-86.5 664,-86.5 664,-67.5 599,-67.5"/>
<text text-anchor="middle" x="631.5" y="-74.5" font-family="Helvetica,sans-Serif" font-size="10.00">element.h</text>
</a>
</g>
</g>
<!-- Node1&#45;&gt;Node6 -->
<g id="edge5" class="edge"><title>Node1&#45;&gt;Node6</title>
<path fill="none" stroke="midnightblue" d="M304.683,-186.209C380.387,-182.276 538.16,-170.905 584.5,-143 602.529,-132.144 615.651,-111.453 623.376,-96.3224"/>
<polygon fill="midnightblue" stroke="midnightblue" points="626.712,-97.4578 627.857,-86.9249 620.394,-94.4453 626.712,-97.4578"/>
</g>
<!-- Node13 -->
<g id="node13" class="node"><title>Node13</title>
<g id="a_node13"><a xlink:href="event_8h.xhtml" target="_top" xlink:title="Contains event classes for fault trees. ">
<polygon fill="white" stroke="black" points="267,-123.5 267,-142.5 320,-142.5 320,-123.5 267,-123.5"/>
<text text-anchor="middle" x="293.5" y="-130.5" font-family="Helvetica,sans-Serif" font-size="10.00">event.h</text>
</a>
</g>
</g>
<!-- Node1&#45;&gt;Node13 -->
<g id="edge13" class="edge"><title>Node1&#45;&gt;Node13</title>
<path fill="none" stroke="midnightblue" d="M268.454,-179.083C272.604,-171.613 278.653,-160.724 283.767,-151.52"/>
<polygon fill="midnightblue" stroke="midnightblue" points="286.841,-153.192 288.638,-142.751 280.722,-149.793 286.841,-153.192"/>
</g>
<!-- Node6&#45;&gt;Node5 -->
<g id="edge8" class="edge"><title>Node6&#45;&gt;Node5</title>
<path fill="none" stroke="midnightblue" d="M598.904,-68.2563C566.274,-60.1733 514.827,-46.5256 471.5,-31 469.839,-30.405 468.145,-29.7652 466.443,-29.0977"/>
<polygon fill="midnightblue" stroke="midnightblue" points="467.394,-25.7025 456.817,-25.0909 464.704,-32.165 467.394,-25.7025"/>
</g>
<!-- Node7 -->
<g id="node7" class="node"><title>Node7</title>
<polygon fill="white" stroke="#bfbfbf" points="627,-6 627,-25 676,-25 676,-6 627,-6"/>
<text text-anchor="middle" x="651.5" y="-13" font-family="Helvetica,sans-Serif" font-size="10.00">cstdint</text>
</g>
<!-- Node6&#45;&gt;Node7 -->
<g id="edge6" class="edge"><title>Node6&#45;&gt;Node7</title>
<path fill="none" stroke="midnightblue" d="M634.366,-67.4751C637.217,-58.9919 641.683,-45.7043 645.341,-34.8222"/>
<polygon fill="midnightblue" stroke="midnightblue" points="648.771,-35.6031 648.64,-25.0091 642.136,-33.3727 648.771,-35.6031"/>
</g>
<!-- Node8 -->
<g id="node8" class="node"><title>Node8</title>
<polygon fill="white" stroke="#bfbfbf" points="352.5,-6 352.5,-25 396.5,-25 396.5,-6 352.5,-6"/>
<text text-anchor="middle" x="374.5" y="-13" font-family="Helvetica,sans-Serif" font-size="10.00">string</text>
</g>
<!-- Node6&#45;&gt;Node8 -->
<g id="edge7" class="edge"><title>Node6&#45;&gt;Node8</title>
<path fill="none" stroke="midnightblue" d="M598.683,-71.9937C554.134,-65.9884 472.402,-52.9502 405.5,-31 403.831,-30.4524 402.134,-29.838 400.438,-29.1794"/>
<polygon fill="midnightblue" stroke="midnightblue" points="401.501,-25.8262 390.932,-25.0829 398.731,-32.2547 401.501,-25.8262"/>
</g>
<!-- Node9 -->
<g id="node9" class="node"><title>Node9</title>
<polygon fill="white" stroke="#bfbfbf" points="694.5,-0.5 694.5,-30.5 834.5,-30.5 834.5,-0.5 694.5,-0.5"/>
<text text-anchor="start" x="702.5" y="-18.5" font-family="Helvetica,sans-Serif" font-size="10.00">boost/multi_index/hashed</text>
<text text-anchor="middle" x="764.5" y="-7.5" font-family="Helvetica,sans-Serif" font-size="10.00">_index.hpp</text>
</g>
<!-- Node6&#45;&gt;Node9 -->
<g id="edge9" class="edge"><title>Node6&#45;&gt;Node9</title>
<path fill="none" stroke="midnightblue" d="M650.556,-67.4751C669.579,-58.9648 699.41,-45.6193 723.777,-34.718"/>
<polygon fill="midnightblue" stroke="midnightblue" points="725.456,-37.8016 733.155,-30.523 722.597,-31.4118 725.456,-37.8016"/>
</g>
<!-- Node10 -->
<g id="node10" class="node"><title>Node10</title>
<polygon fill="white" stroke="#bfbfbf" points="852.5,-0.5 852.5,-30.5 982.5,-30.5 982.5,-0.5 852.5,-0.5"/>
<text text-anchor="start" x="860.5" y="-18.5" font-family="Helvetica,sans-Serif" font-size="10.00">boost/multi_index/mem</text>
<text text-anchor="middle" x="917.5" y="-7.5" font-family="Helvetica,sans-Serif" font-size="10.00">_fun.hpp</text>
</g>
<!-- Node6&#45;&gt;Node10 -->
<g id="edge10" class="edge"><title>Node6&#45;&gt;Node10</title>
<path fill="none" stroke="midnightblue" d="M664.029,-69.2325C707.141,-60.2635 784.504,-44.1687 842.461,-32.1113"/>
<polygon fill="midnightblue" stroke="midnightblue" points="843.236,-35.525 852.314,-30.0614 841.811,-28.6717 843.236,-35.525"/>
</g>
<!-- Node11 -->
<g id="node11" class="node"><title>Node11</title>
<polygon fill="white" stroke="#bfbfbf" points="1000.5,-6 1000.5,-25 1172.5,-25 1172.5,-6 1000.5,-6"/>
<text text-anchor="middle" x="1086.5" y="-13" font-family="Helvetica,sans-Serif" font-size="10.00">boost/multi_index_container.hpp</text>
</g>
<!-- Node6&#45;&gt;Node11 -->
<g id="edge11" class="edge"><title>Node6&#45;&gt;Node11</title>
<path fill="none" stroke="midnightblue" d="M664.299,-72.2017C727.621,-64.8021 871.09,-47.7116 991.5,-31 1001.42,-29.6238 1011.9,-28.0963 1022.15,-26.5638"/>
<polygon fill="midnightblue" stroke="midnightblue" points="1022.91,-29.9877 1032.28,-25.0352 1021.87,-23.066 1022.91,-29.9877"/>
</g>
<!-- Node12 -->
<g id="node12" class="node"><title>Node12</title>
<polygon fill="white" stroke="#bfbfbf" points="480.5,-6 480.5,-25 608.5,-25 608.5,-6 480.5,-6"/>
<text text-anchor="middle" x="544.5" y="-13" font-family="Helvetica,sans-Serif" font-size="10.00">boost/noncopyable.hpp</text>
</g>
<!-- Node6&#45;&gt;Node12 -->
<g id="edge12" class="edge"><title>Node6&#45;&gt;Node12</title>
<path fill="none" stroke="midnightblue" d="M619.035,-67.4751C605.081,-57.9315 582.235,-42.3073 565.509,-30.8683"/>
<polygon fill="midnightblue" stroke="midnightblue" points="567.172,-27.7653 556.942,-25.0091 563.22,-33.5433 567.172,-27.7653"/>
</g>
<!-- Node13&#45;&gt;Node2 -->
<g id="edge16" class="edge"><title>Node13&#45;&gt;Node2</title>
<path fill="none" stroke="midnightblue" d="M266.744,-127.112C225.818,-119.551 144.989,-104.284 67.1254,-87.2905"/>
<polygon fill="midnightblue" stroke="midnightblue" points="67.6725,-83.8273 57.1545,-85.101 66.1711,-90.6644 67.6725,-83.8273"/>
</g>
<!-- Node13&#45;&gt;Node3 -->
<g id="edge17" class="edge"><title>Node13&#45;&gt;Node3</title>
<path fill="none" stroke="midnightblue" d="M266.942,-124.492C233.962,-115.167 177.493,-99.2021 140.081,-88.6249"/>
<polygon fill="midnightblue" stroke="midnightblue" points="140.644,-85.1471 130.069,-85.7944 138.74,-91.883 140.644,-85.1471"/>
</g>
<!-- Node13&#45;&gt;Node4 -->
<g id="edge20" class="edge"><title>Node13&#45;&gt;Node4</title>
<path fill="none" stroke="midnightblue" d="M274.486,-123.444C254.912,-114.636 224.192,-100.812 201.771,-90.722"/>
<polygon fill="midnightblue" stroke="midnightblue" points="202.981,-87.4284 192.425,-86.5164 200.108,-93.8119 202.981,-87.4284"/>
</g>
<!-- Node13&#45;&gt;Node5 -->
<g id="edge21" class="edge"><title>Node13&#45;&gt;Node5</title>
<path fill="none" stroke="midnightblue" d="M320.331,-129.32C365.979,-124.146 455.653,-111.106 474.5,-87 487.763,-70.0358 471.304,-47.4272 456.538,-32.4388"/>
<polygon fill="midnightblue" stroke="midnightblue" points="458.785,-29.7445 449.137,-25.3657 453.948,-34.8051 458.785,-29.7445"/>
</g>
<!-- Node13&#45;&gt;Node6 -->
<g id="edge22" class="edge"><title>Node13&#45;&gt;Node6</title>
<path fill="none" stroke="midnightblue" d="M320.022,-127.763C378.316,-118.449 518.029,-96.1286 588.827,-84.8175"/>
<polygon fill="midnightblue" stroke="midnightblue" points="589.433,-88.2653 598.755,-83.2314 588.328,-81.353 589.433,-88.2653"/>
</g>
<!-- Node13&#45;&gt;Node7 -->
<g id="edge14" class="edge"><title>Node13&#45;&gt;Node7</title>
<path fill="none" stroke="midnightblue" d="M320.202,-127.611C358.656,-120.914 431.588,-106.805 491.5,-87 540.132,-70.9242 594.167,-45.4113 625.354,-29.8863"/>
<polygon fill="midnightblue" stroke="midnightblue" points="627.276,-32.8376 634.641,-25.2212 624.134,-26.5824 627.276,-32.8376"/>
</g>
<!-- Node13&#45;&gt;Node8 -->
<g id="edge18" class="edge"><title>Node13&#45;&gt;Node8</title>
<path fill="none" stroke="midnightblue" d="M304.671,-123.292C314.955,-114.849 330.143,-101.258 340.5,-87 352.325,-70.722 361.845,-49.6904 367.771,-34.849"/>
<polygon fill="midnightblue" stroke="midnightblue" points="371.122,-35.883 371.432,-25.2927 364.586,-33.3787 371.122,-35.883"/>
</g>
<!-- Node14 -->
<g id="node14" class="node"><title>Node14</title>
<polygon fill="white" stroke="#bfbfbf" points="389,-67.5 389,-86.5 466,-86.5 466,-67.5 389,-67.5"/>
<text text-anchor="middle" x="427.5" y="-74.5" font-family="Helvetica,sans-Serif" font-size="10.00">initializer_list</text>
</g>
<!-- Node13&#45;&gt;Node14 -->
<g id="edge15" class="edge"><title>Node13&#45;&gt;Node14</title>
<path fill="none" stroke="midnightblue" d="M314.733,-123.444C336.884,-114.517 371.819,-100.439 396.936,-90.3168"/>
<polygon fill="midnightblue" stroke="midnightblue" points="398.4,-93.5006 406.367,-86.5164 395.783,-87.0079 398.4,-93.5006"/>
</g>
<!-- Node15 -->
<g id="node15" class="node"><title>Node15</title>
<polygon fill="white" stroke="#bfbfbf" points="82.5,-6 82.5,-25 124.5,-25 124.5,-6 82.5,-6"/>
<text text-anchor="middle" x="103.5" y="-13" font-family="Helvetica,sans-Serif" font-size="10.00">utility</text>
</g>
<!-- Node13&#45;&gt;Node15 -->
<g id="edge19" class="edge"><title>Node13&#45;&gt;Node15</title>
<path fill="none" stroke="midnightblue" d="M283.377,-123.306C267.759,-110.14 236.545,-84.793 207.5,-67 206.593,-66.4442 161.22,-44.4496 130.711,-29.6735"/>
<polygon fill="midnightblue" stroke="midnightblue" points="131.928,-26.3744 121.403,-25.166 128.877,-32.6746 131.928,-26.3744"/>
</g>
<!-- Node16 -->
<g id="node16" class="node"><title>Node16</title>
<g id="a_node16"><a xlink:href="expression_8h.xhtml" target="_top" xlink:title="Provides the base class for all expressions and units for expression values. ">
<polygon fill="white" stroke="black" points="255,-67.5 255,-86.5 332,-86.5 332,-67.5 255,-67.5"/>
<text text-anchor="middle" x="293.5" y="-74.5" font-family="Helvetica,sans-Serif" font-size="10.00">expression.h</text>
</a>
</g>
</g>
<!-- Node13&#45;&gt;Node16 -->
<g id="edge23" class="edge"><title>Node13&#45;&gt;Node16</title>
<path fill="none" stroke="midnightblue" d="M293.5,-123.083C293.5,-116.006 293.5,-105.861 293.5,-96.9865"/>
<polygon fill="midnightblue" stroke="midnightblue" points="297,-96.751 293.5,-86.7511 290,-96.7511 297,-96.751"/>
</g>
<!-- Node16&#45;&gt;Node5 -->
<g id="edge27" class="edge"><title>Node16&#45;&gt;Node5</title>
<path fill="none" stroke="midnightblue" d="M315.475,-67.4108C338.119,-58.5039 374.399,-44.0767 405.5,-31 406.906,-30.4088 408.344,-29.7987 409.794,-29.1787"/>
<polygon fill="midnightblue" stroke="midnightblue" points="411.566,-32.2254 419.35,-25.038 408.783,-25.8025 411.566,-32.2254"/>
</g>
<!-- Node16&#45;&gt;Node8 -->
<g id="edge25" class="edge"><title>Node16&#45;&gt;Node8</title>
<path fill="none" stroke="midnightblue" d="M305.105,-67.4751C317.977,-58.0199 338.974,-42.5961 354.506,-31.1871"/>
<polygon fill="midnightblue" stroke="midnightblue" points="356.929,-33.75 362.916,-25.0091 352.785,-28.1085 356.929,-33.75"/>
</g>
<!-- Node16&#45;&gt;Node12 -->
<g id="edge29" class="edge"><title>Node16&#45;&gt;Node12</title>
<path fill="none" stroke="midnightblue" d="M329.462,-67.4751C374.009,-56.9153 449.959,-38.911 498.649,-27.3689"/>
<polygon fill="midnightblue" stroke="midnightblue" points="499.682,-30.7214 508.605,-25.0091 498.067,-23.9101 499.682,-30.7214"/>
</g>
<!-- Node16&#45;&gt;Node15 -->
<g id="edge26" class="edge"><title>Node16&#45;&gt;Node15</title>
<path fill="none" stroke="midnightblue" d="M256.043,-67.4486C223.231,-59.4913 174.515,-46.541 133.5,-31 132.08,-30.4619 130.636,-29.8818 129.187,-29.2738"/>
<polygon fill="midnightblue" stroke="midnightblue" points="130.329,-25.9487 119.776,-25.0093 127.44,-32.3247 130.329,-25.9487"/>
</g>
<!-- Node17 -->
<g id="node17" class="node"><title>Node17</title>
<polygon fill="white" stroke="#bfbfbf" points="142.5,-6 142.5,-25 204.5,-25 204.5,-6 142.5,-6"/>
<text text-anchor="middle" x="173.5" y="-13" font-family="Helvetica,sans-Serif" font-size="10.00">algorithm</text>
</g>
<!-- Node16&#45;&gt;Node17 -->
<g id="edge24" class="edge"><title>Node16&#45;&gt;Node17</title>
<path fill="none" stroke="midnightblue" d="M276.307,-67.4751C256.257,-57.5338 222.901,-40.9947 199.64,-29.461"/>
<polygon fill="midnightblue" stroke="midnightblue" points="201.175,-26.3157 190.661,-25.0091 198.066,-32.5871 201.175,-26.3157"/>
</g>
<!-- Node18 -->
<g id="node18" class="node"><title>Node18</title>
<polygon fill="white" stroke="#bfbfbf" points="222.5,-0.5 222.5,-30.5 334.5,-30.5 334.5,-0.5 222.5,-0.5"/>
<text text-anchor="start" x="230.5" y="-18.5" font-family="Helvetica,sans-Serif" font-size="10.00">boost/icl/continuous</text>
<text text-anchor="middle" x="278.5" y="-7.5" font-family="Helvetica,sans-Serif" font-size="10.00">_interval.hpp</text>
</g>
<!-- Node16&#45;&gt;Node18 -->
<g id="edge28" class="edge"><title>Node16&#45;&gt;Node18</title>
<path fill="none" stroke="midnightblue" d="M291.351,-67.4751C289.566,-60.3957 286.938,-49.9705 284.523,-40.3896"/>
<polygon fill="midnightblue" stroke="midnightblue" points="287.874,-39.364 282.035,-30.523 281.086,-41.0752 287.874,-39.364"/>
</g>
</g>
</svg>
